0, 0, Header, 1, 3, 384
1, 0, Start_track
1, 0, Tempo, 500000
1, 0, Time_signature, 4, 2, 24, 8
1, 93696, End_track
2, 0, Start_track
2, 0, Text_t, "harpsichord: John Sankey"
2, 0, Program_c, 0, 6
2, 0, Pitch_bend_c, 0, 8192
2, 0, Program_c, 1, 6
2, 0, Pitch_bend_c, 1, 7792
2, 0, Program_c, 2, 6
2, 0, Pitch_bend_c, 2, 7876
2, 0, Program_c, 3, 6
2, 0, Pitch_bend_c, 3, 7952
2, 0, Program_c, 4, 6
2, 0, Pitch_bend_c, 4, 7792
2, 0, Program_c, 5, 6
2, 0, Pitch_bend_c, 5, 8112
2, 0, Program_c, 6, 6
2, 0, Pitch_bend_c, 6, 7712
2, 0, Program_c, 7, 6
2, 0, Pitch_bend_c, 7, 8037
2, 0, Program_c, 8, 6
2, 0, Pitch_bend_c, 8, 7872
2, 0, Program_c, 10, 6
2, 0, Pitch_bend_c, 10, 7712
2, 0, Program_c, 11, 6
2, 0, Pitch_bend_c, 11, 8032
2, 0, Program_c, 12, 6
2, 0, Pitch_bend_c, 12, 7872
2, 0, Title_t, "Track 1"
2, 96, Note_on_c, 3, 51, 127
2, 172, Note_on_c, 2, 50, 127
2, 187, Note_off_c, 3, 51, 127
2, 236, Note_off_c, 2, 50, 127
2, 249, Note_on_c, 3, 51, 127
2, 445, Note_on_c, 3, 63, 127
2, 618, Note_off_c, 3, 63, 127
2, 620, Note_on_c, 2, 62, 127
2, 793, Note_off_c, 2, 62, 127
2, 795, Note_on_c, 3, 39, 127
2, 795, Note_on_c, 3, 63, 127
2, 1122, Note_off_c, 3, 51, 127
2, 1137, Note_off_c, 3, 63, 127
2, 1144, Note_on_c, 5, 65, 127
2, 1359, Note_off_c, 3, 39, 127
2, 1486, Note_off_c, 5, 65, 127
2, 1493, Note_on_c, 7, 67, 127
2, 1578, Note_off_c, 7, 67, 127
2, 1580, Note_on_c, 5, 65, 127
2, 1665, Note_off_c, 5, 65, 127
2, 1667, Note_on_c, 3, 63, 127
2, 1667, Note_on_c, 7, 67, 127
2, 1840, Note_off_c, 3, 63, 127
2, 1842, Note_on_c, 2, 62, 127
2, 1995, Note_off_c, 7, 67, 127
2, 2015, Note_off_c, 2, 62, 127
2, 2017, Note_on_c, 3, 63, 127
2, 2190, Note_off_c, 3, 63, 127
2, 2192, Note_on_c, 0, 60, 127
2, 2192, Note_on_c, 8, 68, 127
2, 2365, Note_off_c, 0, 60, 127
2, 2367, Note_on_c, 2, 62, 127
2, 2538, Note_off_c, 8, 68, 127
2, 2540, Note_off_c, 2, 62, 127
2, 2542, Note_on_c, 11, 58, 127
2, 2715, Note_off_c, 11, 58, 127
2, 2717, Note_on_c, 0, 60, 127
2, 2890, Note_off_c, 0, 60, 127
2, 2892, Note_on_c, 8, 56, 127
2, 3065, Note_off_c, 8, 56, 127
2, 3067, Note_on_c, 0, 60, 127
2, 3240, Note_off_c, 0, 60, 127
2, 3242, Note_on_c, 11, 58, 127
2, 3242, Note_on_c, 5, 65, 127
2, 3415, Note_off_c, 5, 65, 127
2, 3415, Note_off_c, 11, 58, 127
2, 3417, Note_on_c, 0, 60, 127
2, 3417, Note_on_c, 3, 63, 127
2, 3590, Note_off_c, 3, 63, 127
2, 3590, Note_off_c, 0, 60, 127
2, 3592, Note_on_c, 8, 56, 127
2, 3592, Note_on_c, 5, 65, 127
2, 3765, Note_off_c, 8, 56, 127
2, 3767, Note_on_c, 11, 58, 127
2, 3931, Note_off_c, 5, 65, 127
2, 3940, Note_off_c, 11, 58, 127
2, 3942, Note_on_c, 7, 55, 127
2, 3942, Note_on_c, 7, 67, 127
2, 4115, Note_off_c, 7, 55, 127
2, 4117, Note_on_c, 8, 56, 127
2, 4281, Note_off_c, 7, 67, 127
2, 4290, Note_off_c, 8, 56, 127
2, 4292, Note_on_c, 5, 53, 127
2, 4292, Note_on_c, 8, 68, 127
2, 4377, Note_off_c, 8, 68, 127
2, 4379, Note_on_c, 7, 67, 127
2, 4464, Note_off_c, 7, 67, 127
2, 4464, Note_off_c, 5, 53, 127
2, 4466, Note_on_c, 3, 63, 127
2, 4466, Note_on_c, 8, 68, 127
2, 4639, Note_off_c, 3, 63, 127
2, 4641, Note_on_c, 2, 62, 127
2, 4794, Note_off_c, 8, 68, 127
2, 4814, Note_off_c, 2, 62, 127
2, 4816, Note_on_c, 0, 60, 127
2, 4989, Note_off_c, 0, 60, 127
2, 4991, Note_on_c, 2, 62, 127
2, 4991, Note_on_c, 11, 70, 127
2, 5164, Note_off_c, 2, 62, 127
2, 5166, Note_on_c, 3, 63, 127
2, 5337, Note_off_c, 11, 70, 127
2, 5339, Note_off_c, 3, 63, 127
2, 5341, Note_on_c, 0, 60, 127
2, 5514, Note_off_c, 0, 60, 127
2, 5516, Note_on_c, 2, 62, 127
2, 5689, Note_off_c, 2, 62, 127
2, 5691, Note_on_c, 3, 51, 127
2, 5691, Note_on_c, 7, 67, 127
2, 5864, Note_off_c, 3, 51, 127
2, 5866, Note_on_c, 3, 63, 127
2, 6039, Note_off_c, 3, 63, 127
2, 6039, Note_off_c, 7, 67, 127
2, 6041, Note_on_c, 2, 62, 127
2, 6041, Note_on_c, 0, 72, 127
2, 6214, Note_off_c, 2, 62, 127
2, 6216, Note_on_c, 0, 60, 127
2, 6389, Note_off_c, 0, 60, 127
2, 6389, Note_off_c, 0, 72, 127
2, 6391, Note_on_c, 2, 62, 127
2, 6391, Note_on_c, 11, 70, 127
2, 6495, Note_off_c, 11, 70, 127
2, 6497, Note_on_c, 0, 72, 127
2, 6564, Note_off_c, 2, 62, 127
2, 6566, Note_on_c, 3, 63, 127
2, 6601, Note_off_c, 0, 72, 127
2, 6603, Note_on_c, 11, 70, 127
2, 6739, Note_off_c, 11, 70, 127
2, 6739, Note_off_c, 3, 63, 127
2, 6741, Note_on_c, 0, 60, 127
2, 6741, Note_on_c, 8, 68, 127
2, 6914, Note_off_c, 0, 60, 127
2, 6916, Note_on_c, 2, 62, 127
2, 7060, Note_off_c, 8, 68, 127
2, 7089, Note_off_c, 2, 62, 127
2, 7091, Note_on_c, 11, 58, 127
2, 7091, Note_on_c, 7, 67, 127
2, 7264, Note_off_c, 7, 67, 127
2, 7264, Note_off_c, 11, 58, 127
2, 7266, Note_on_c, 3, 63, 127
2, 7266, Note_on_c, 8, 68, 127
2, 7439, Note_off_c, 8, 68, 127
2, 7439, Note_off_c, 3, 63, 127
2, 7441, Note_on_c, 2, 62, 127
2, 7441, Note_on_c, 11, 70, 127
2, 7614, Note_off_c, 11, 70, 127
2, 7614, Note_off_c, 2, 62, 127
2, 7616, Note_on_c, 0, 60, 127
2, 7616, Note_on_c, 8, 68, 127
2, 7789, Note_off_c, 8, 68, 127
2, 7789, Note_off_c, 0, 60, 127
2, 7791, Note_on_c, 11, 58, 127
2, 7791, Note_on_c, 7, 67, 127
2, 7964, Note_off_c, 11, 58, 127
2, 7966, Note_on_c, 0, 60, 127
2, 8119, Note_off_c, 7, 67, 127
2, 8139, Note_off_c, 0, 60, 127
2, 8141, Note_on_c, 8, 56, 127
2, 8141, Note_on_c, 5, 65, 127
2, 8314, Note_off_c, 8, 56, 127
2, 8316, Note_on_c, 11, 58, 127
2, 8469, Note_off_c, 5, 65, 127
2, 8489, Note_off_c, 11, 58, 127
2, 8491, Note_on_c, 7, 55, 127
2, 8491, Note_on_c, 3, 63, 127
2, 8664, Note_off_c, 7, 55, 127
2, 8666, Note_on_c, 0, 60, 127
2, 8839, Note_off_c, 0, 60, 127
2, 8839, Note_off_c, 3, 63, 127
2, 8841, Note_on_c, 11, 58, 127
2, 8841, Note_on_c, 7, 67, 127
2, 9014, Note_off_c, 11, 58, 127
2, 9016, Note_on_c, 8, 56, 127
2, 9169, Note_off_c, 7, 67, 127
2, 9189, Note_off_c, 8, 56, 127
2, 9191, Note_on_c, 7, 55, 127
2, 9191, Note_on_c, 11, 70, 127
2, 9364, Note_off_c, 7, 55, 127
2, 9366, Note_on_c, 8, 56, 127
2, 9519, Note_off_c, 11, 70, 127
2, 9539, Note_off_c, 8, 56, 127
2, 9541, Note_on_c, 5, 53, 127
2, 9541, Note_on_c, 3, 75, 127
2, 9714, Note_off_c, 5, 53, 127
2, 9716, Note_on_c, 7, 55, 127
2, 9889, Note_off_c, 7, 55, 127
2, 9891, Note_on_c, 0, 48, 127
2, 10064, Note_off_c, 0, 48, 127
2, 10064, Note_off_c, 3, 75, 127
2, 10066, Note_on_c, 11, 58, 127
2, 10066, Note_on_c, 0, 72, 127
2, 10239, Note_off_c, 0, 72, 127
2, 10239, Note_off_c, 11, 58, 127
2, 10241, Note_on_c, 10, 57, 127
2, 10241, Note_on_c, 2, 74, 127
2, 10414, Note_off_c, 2, 74, 127
2, 10414, Note_off_c, 10, 57, 127
2, 10416, Note_on_c, 7, 55, 127
2, 10416, Note_on_c, 3, 75, 127
2, 10589, Note_off_c, 3, 75, 127
2, 10589, Note_off_c, 7, 55, 127
2, 10591, Note_on_c, 10, 57, 127
2, 10591, Note_on_c, 5, 77, 127
2, 10764, Note_off_c, 10, 57, 127
2, 10766, Note_on_c, 11, 58, 127
2, 10939, Note_off_c, 11, 58, 127
2, 10939, Note_off_c, 5, 77, 127
2, 10941, Note_on_c, 7, 55, 127
2, 10941, Note_on_c, 3, 75, 127
2, 11114, Note_off_c, 7, 55, 127
2, 11116, Note_on_c, 10, 57, 127
2, 11289, Note_off_c, 10, 57, 127
2, 11289, Note_off_c, 3, 75, 127
2, 11291, Note_on_c, 11, 58, 127
2, 11291, Note_on_c, 2, 74, 127
2, 11464, Note_off_c, 2, 74, 127
2, 11466, Note_on_c, 3, 75, 127
2, 11639, Note_off_c, 3, 75, 127
2, 11639, Note_off_c, 11, 58, 127
2, 11641, Note_on_c, 11, 46, 127
2, 11641, Note_on_c, 2, 74, 127
2, 11814, Note_off_c, 2, 74, 127
2, 11814, Note_off_c, 11, 46, 127
2, 11816, Note_on_c, 10, 45, 127
2, 11816, Note_on_c, 0, 72, 127
2, 11989, Note_off_c, 0, 72, 127
2, 11989, Note_off_c, 10, 45, 127
2, 11991, Note_on_c, 11, 46, 127
2, 11991, Note_on_c, 2, 74, 127
2, 12164, Note_off_c, 2, 74, 127
2, 12166, Note_on_c, 3, 75, 127
2, 12339, Note_off_c, 3, 75, 127
2, 12339, Note_off_c, 11, 46, 127
2, 12341, Note_on_c, 0, 48, 127
2, 12341, Note_on_c, 0, 72, 127
2, 12514, Note_off_c, 0, 72, 127
2, 12516, Note_on_c, 2, 74, 127
2, 12689, Note_off_c, 2, 74, 127
2, 12689, Note_off_c, 0, 48, 127
2, 12691, Note_on_c, 2, 50, 127
2, 12691, Note_on_c, 11, 70, 127
2, 12776, Note_off_c, 2, 50, 127
2, 12778, Note_on_c, 0, 48, 127
2, 12863, Note_off_c, 0, 48, 127
2, 12865, Note_on_c, 2, 50, 127
2, 12865, Note_on_c, 11, 82, 127
2, 12909, Note_off_c, 11, 70, 127
2, 13038, Note_off_c, 11, 82, 127
2, 13040, Note_on_c, 10, 81, 127
2, 13213, Note_off_c, 10, 81, 127
2, 13215, Note_on_c, 11, 82, 127
2, 13339, Note_off_c, 2, 50, 127
2, 13388, Note_off_c, 11, 82, 127
2, 13390, Note_on_c, 3, 51, 127
2, 13390, Note_on_c, 7, 79, 127
2, 13563, Note_off_c, 7, 79, 127
2, 13565, Note_on_c, 10, 81, 127
2, 13738, Note_off_c, 10, 81, 127
2, 13740, Note_on_c, 5, 77, 127
2, 13913, Note_off_c, 5, 77, 127
2, 13915, Note_on_c, 7, 79, 127
2, 13937, Note_off_c, 3, 51, 127
2, 14088, Note_off_c, 7, 79, 127
2, 14090, Note_on_c, 3, 75, 127
2, 14263, Note_off_c, 3, 75, 127
2, 14265, Note_on_c, 7, 79, 127
2, 14438, Note_off_c, 7, 79, 127
2, 14440, Note_on_c, 0, 48, 127
2, 14440, Note_on_c, 5, 77, 127
2, 14613, Note_off_c, 5, 77, 127
2, 14613, Note_off_c, 0, 48, 127
2, 14615, Note_on_c, 11, 46, 127
2, 14615, Note_on_c, 7, 79, 127
2, 14788, Note_off_c, 7, 79, 127
2, 14788, Note_off_c, 11, 46, 127
2, 14790, Note_on_c, 0, 48, 127
2, 14790, Note_on_c, 3, 75, 127
2, 14963, Note_off_c, 3, 75, 127
2, 14965, Note_on_c, 5, 77, 127
2, 15138, Note_off_c, 5, 77, 127
2, 15138, Note_off_c, 0, 48, 127
2, 15140, Note_on_c, 2, 50, 127
2, 15140, Note_on_c, 2, 74, 127
2, 15313, Note_off_c, 2, 74, 127
2, 15315, Note_on_c, 3, 75, 127
2, 15488, Note_off_c, 3, 75, 127
2, 15488, Note_off_c, 2, 50, 127
2, 15490, Note_on_c, 3, 51, 127
2, 15490, Note_on_c, 0, 72, 127
2, 15575, Note_off_c, 3, 51, 127
2, 15577, Note_on_c, 2, 50, 127
2, 15662, Note_off_c, 2, 50, 127
2, 15662, Note_off_c, 0, 72, 127
2, 15664, Note_on_c, 3, 51, 127
2, 15664, Note_on_c, 11, 82, 127
2, 15837, Note_off_c, 11, 82, 127
2, 15839, Note_on_c, 10, 81, 127
2, 16012, Note_off_c, 10, 81, 127
2, 16014, Note_on_c, 7, 79, 127
2, 16147, Note_off_c, 3, 51, 127
2, 16187, Note_off_c, 7, 79, 127
2, 16189, Note_on_c, 5, 53, 127
2, 16189, Note_on_c, 10, 81, 127
2, 16362, Note_off_c, 10, 81, 127
2, 16364, Note_on_c, 11, 82, 127
2, 16537, Note_off_c, 11, 82, 127
2, 16539, Note_on_c, 7, 79, 127
2, 16712, Note_off_c, 7, 79, 127
2, 16714, Note_on_c, 10, 81, 127
2, 16772, Note_off_c, 5, 53, 127
2, 16887, Note_off_c, 10, 81, 127
2, 16889, Note_on_c, 2, 50, 127
2, 16889, Note_on_c, 11, 70, 127
2, 17062, Note_off_c, 11, 70, 127
2, 17064, Note_on_c, 11, 82, 127
2, 17237, Note_off_c, 11, 82, 127
2, 17237, Note_off_c, 2, 50, 127
2, 17239, Note_on_c, 7, 55, 127
2, 17239, Note_on_c, 10, 81, 127
2, 17412, Note_off_c, 10, 81, 127
2, 17414, Note_on_c, 7, 79, 127
2, 17587, Note_off_c, 7, 79, 127
2, 17587, Note_off_c, 7, 55, 127
2, 17589, Note_on_c, 5, 53, 127
2, 17589, Note_on_c, 10, 81, 127
2, 17689, Note_off_c, 5, 53, 127
2, 17691, Note_on_c, 7, 55, 127
2, 17762, Note_off_c, 10, 81, 127
2, 17764, Note_on_c, 11, 82, 127
2, 17791, Note_off_c, 7, 55, 127
2, 17793, Note_on_c, 5, 53, 127
2, 17937, Note_off_c, 5, 53, 127
2, 17937, Note_off_c, 11, 82, 127
2, 17939, Note_on_c, 3, 51, 127
2, 17939, Note_on_c, 7, 79, 127
2, 18112, Note_off_c, 7, 79, 127
2, 18114, Note_on_c, 10, 81, 127
2, 18287, Note_off_c, 10, 81, 127
2, 18287, Note_off_c, 3, 51, 127
2, 18289, Note_on_c, 2, 50, 127
2, 18289, Note_on_c, 5, 77, 127
2, 18462, Note_off_c, 5, 77, 127
2, 18462, Note_off_c, 2, 50, 127
2, 18464, Note_on_c, 3, 51, 127
2, 18464, Note_on_c, 11, 82, 127
2, 18637, Note_off_c, 11, 82, 127
2, 18637, Note_off_c, 3, 51, 127
2, 18639, Note_on_c, 5, 53, 127
2, 18639, Note_on_c, 8, 80, 127
2, 18812, Note_off_c, 8, 80, 127
2, 18812, Note_off_c, 5, 53, 127
2, 18814, Note_on_c, 3, 51, 127
2, 18814, Note_on_c, 7, 79, 127
2, 18987, Note_off_c, 7, 79, 127
2, 18987, Note_off_c, 3, 51, 127
2, 18989, Note_on_c, 2, 50, 127
2, 18989, Note_on_c, 5, 77, 127
2, 19162, Note_off_c, 5, 77, 127
2, 19164, Note_on_c, 7, 79, 127
2, 19337, Note_off_c, 7, 79, 127
2, 19337, Note_off_c, 2, 50, 127
2, 19339, Note_on_c, 0, 48, 127
2, 19339, Note_on_c, 3, 75, 127
2, 19512, Note_off_c, 3, 75, 127
2, 19514, Note_on_c, 5, 77, 127
2, 19687, Note_off_c, 5, 77, 127
2, 19687, Note_off_c, 0, 48, 127
2, 19689, Note_on_c, 11, 46, 127
2, 19689, Note_on_c, 2, 74, 127
2, 19862, Note_off_c, 2, 74, 127
2, 19864, Note_on_c, 7, 79, 127
2, 20037, Note_off_c, 7, 79, 127
2, 20037, Note_off_c, 11, 46, 127
2, 20039, Note_on_c, 2, 50, 127
2, 20039, Note_on_c, 5, 77, 127
2, 20212, Note_off_c, 5, 77, 127
2, 20214, Note_on_c, 3, 75, 127
2, 20387, Note_off_c, 3, 75, 127
2, 20387, Note_off_c, 2, 50, 127
2, 20389, Note_on_c, 5, 53, 127
2, 20389, Note_on_c, 2, 74, 127
2, 20562, Note_off_c, 2, 74, 127
2, 20564, Note_on_c, 3, 75, 127
2, 20737, Note_off_c, 3, 75, 127
2, 20737, Note_off_c, 5, 53, 127
2, 20739, Note_on_c, 8, 56, 127
2, 20739, Note_on_c, 0, 72, 127
2, 20912, Note_off_c, 0, 72, 127
2, 20914, Note_on_c, 2, 74, 127
2, 21089, Note_on_c, 5, 65, 127
2, 21105, Note_off_c, 2, 74, 127
2, 21261, Note_off_c, 5, 65, 127
2, 21261, Note_off_c, 8, 56, 127
2, 21263, Note_on_c, 5, 53, 127
2, 21263, Note_on_c, 3, 75, 127
2, 21436, Note_off_c, 3, 75, 127
2, 21436, Note_off_c, 5, 53, 127
2, 21438, Note_on_c, 7, 55, 127
2, 21438, Note_on_c, 2, 74, 127
2, 21611, Note_off_c, 2, 74, 127
2, 21611, Note_off_c, 7, 55, 127
2, 21613, Note_on_c, 8, 56, 127
2, 21613, Note_on_c, 0, 72, 127
2, 21786, Note_off_c, 0, 72, 127
2, 21786, Note_off_c, 8, 56, 127
2, 21788, Note_on_c, 11, 58, 127
2, 21788, Note_on_c, 2, 74, 127
2, 21961, Note_off_c, 2, 74, 127
2, 21963, Note_on_c, 3, 75, 127
2, 22136, Note_off_c, 3, 75, 127
2, 22136, Note_off_c, 11, 58, 127
2, 22138, Note_on_c, 8, 56, 127
2, 22138, Note_on_c, 0, 72, 127
2, 22311, Note_off_c, 0, 72, 127
2, 22313, Note_on_c, 2, 74, 127
2, 22486, Note_off_c, 2, 74, 127
2, 22486, Note_off_c, 8, 56, 127
2, 22488, Note_on_c, 7, 55, 127
2, 22488, Note_on_c, 3, 75, 127
2, 22661, Note_off_c, 7, 55, 127
2, 22663, Note_on_c, 8, 56, 127
2, 22798, Note_off_c, 3, 75, 127
2, 22836, Note_off_c, 8, 56, 127
2, 22838, Note_on_c, 7, 55, 127
2, 22838, Note_on_c, 11, 70, 127
2, 23011, Note_off_c, 11, 70, 127
2, 23011, Note_off_c, 7, 55, 127
2, 23013, Note_on_c, 5, 53, 127
2, 23013, Note_on_c, 8, 68, 127
2, 23186, Note_off_c, 8, 68, 127
2, 23186, Note_off_c, 5, 53, 127
2, 23188, Note_on_c, 7, 55, 127
2, 23188, Note_on_c, 11, 70, 127
2, 23361, Note_off_c, 7, 55, 127
2, 23363, Note_on_c, 8, 56, 127
2, 23536, Note_off_c, 8, 56, 127
2, 23536, Note_off_c, 11, 70, 127
2, 23538, Note_on_c, 5, 53, 127
2, 23538, Note_on_c, 0, 72, 127
2, 23711, Note_off_c, 5, 53, 127
2, 23713, Note_on_c, 7, 55, 127
2, 23886, Note_off_c, 7, 55, 127
2, 23886, Note_off_c, 0, 72, 127
2, 23888, Note_on_c, 3, 51, 127
2, 23888, Note_on_c, 1, 73, 127
2, 23973, Note_off_c, 1, 73, 127
2, 23975, Note_on_c, 0, 72, 127
2, 24060, Note_off_c, 0, 72, 127
2, 24060, Note_off_c, 3, 51, 127
2, 24062, Note_on_c, 3, 63, 127
2, 24062, Note_on_c, 1, 73, 127
2, 24235, Note_off_c, 3, 63, 127
2, 24237, Note_on_c, 1, 61, 127
2, 24390, Note_off_c, 1, 73, 127
2, 24410, Note_off_c, 1, 61, 127
2, 24412, Note_on_c, 3, 63, 127
2, 24585, Note_off_c, 3, 63, 127
2, 24587, Note_on_c, 0, 60, 127
2, 24587, Note_on_c, 3, 75, 127
2, 24760, Note_off_c, 0, 60, 127
2, 24762, Note_on_c, 1, 61, 127
2, 24933, Note_off_c, 3, 75, 127
2, 24935, Note_off_c, 1, 61, 127
2, 24937, Note_on_c, 11, 58, 127
2, 25110, Note_off_c, 11, 58, 127
2, 25112, Note_on_c, 0, 60, 127
2, 25285, Note_off_c, 0, 60, 127
2, 25287, Note_on_c, 8, 56, 127
2, 25460, Note_off_c, 8, 56, 127
2, 25462, Note_on_c, 11, 58, 127
2, 25635, Note_off_c, 11, 58, 127
2, 25637, Note_on_c, 8, 56, 127
2, 25637, Note_on_c, 0, 72, 127
2, 25810, Note_off_c, 0, 72, 127
2, 25810, Note_off_c, 8, 56, 127
2, 25812, Note_on_c, 7, 55, 127
2, 25812, Note_on_c, 11, 70, 127
2, 25985, Note_off_c, 11, 70, 127
2, 25985, Note_off_c, 7, 55, 127
2, 25987, Note_on_c, 8, 56, 127
2, 25987, Note_on_c, 0, 72, 127
2, 26160, Note_off_c, 8, 56, 127
2, 26162, Note_on_c, 11, 58, 127
2, 26335, Note_off_c, 11, 58, 127
2, 26335, Note_off_c, 0, 72, 127
2, 26337, Note_on_c, 7, 55, 127
2, 26337, Note_on_c, 2, 74, 127
2, 26510, Note_off_c, 7, 55, 127
2, 26512, Note_on_c, 8, 56, 127
2, 26685, Note_off_c, 8, 56, 127
2, 26685, Note_off_c, 2, 74, 127
2, 26687, Note_on_c, 5, 53, 127
2, 26687, Note_on_c, 3, 75, 127
2, 26772, Note_off_c, 3, 75, 127
2, 26774, Note_on_c, 2, 74, 127
2, 26859, Note_off_c, 2, 74, 127
2, 26859, Note_off_c, 5, 53, 127
2, 26861, Note_on_c, 5, 65, 127
2, 26861, Note_on_c, 3, 75, 127
2, 27034, Note_off_c, 5, 65, 127
2, 27036, Note_on_c, 3, 63, 127
2, 27189, Note_off_c, 3, 75, 127
2, 27209, Note_off_c, 3, 63, 127
2, 27211, Note_on_c, 5, 65, 127
2, 27384, Note_off_c, 5, 65, 127
2, 27386, Note_on_c, 2, 62, 127
2, 27386, Note_on_c, 5, 77, 127
2, 27559, Note_off_c, 2, 62, 127
2, 27561, Note_on_c, 3, 63, 127
2, 27732, Note_off_c, 5, 77, 127
2, 27734, Note_off_c, 3, 63, 127
2, 27736, Note_on_c, 0, 60, 127
2, 27909, Note_off_c, 0, 60, 127
2, 27911, Note_on_c, 2, 62, 127
2, 28084, Note_off_c, 2, 62, 127
2, 28086, Note_on_c, 11, 58, 127
2, 28259, Note_off_c, 11, 58, 127
2, 28261, Note_on_c, 0, 60, 127
2, 28434, Note_off_c, 0, 60, 127
2, 28436, Note_on_c, 11, 58, 127
2, 28436, Note_on_c, 2, 74, 127
2, 28609, Note_off_c, 2, 74, 127
2, 28609, Note_off_c, 11, 58, 127
2, 28611, Note_on_c, 10, 57, 127
2, 28611, Note_on_c, 0, 72, 127
2, 28784, Note_off_c, 0, 72, 127
2, 28784, Note_off_c, 10, 57, 127
2, 28786, Note_on_c, 11, 58, 127
2, 28786, Note_on_c, 2, 74, 127
2, 28959, Note_off_c, 11, 58, 127
2, 28961, Note_on_c, 0, 60, 127
2, 29134, Note_off_c, 0, 60, 127
2, 29134, Note_off_c, 2, 74, 127
2, 29136, Note_on_c, 8, 56, 127
2, 29136, Note_on_c, 3, 75, 127
2, 29309, Note_off_c, 8, 56, 127
2, 29311, Note_on_c, 11, 58, 127
2, 29484, Note_off_c, 11, 58, 127
2, 29484, Note_off_c, 3, 75, 127
2, 29486, Note_on_c, 7, 55, 127
2, 29486, Note_on_c, 5, 77, 127
2, 29571, Note_off_c, 5, 77, 127
2, 29573, Note_on_c, 3, 75, 127
2, 29658, Note_off_c, 3, 75, 127
2, 29658, Note_off_c, 7, 55, 127
2, 29660, Note_on_c, 8, 56, 127
2, 29660, Note_on_c, 5, 77, 127
2, 29833, Note_off_c, 8, 56, 127
2, 29835, Note_on_c, 5, 53, 127
2, 30008, Note_off_c, 5, 53, 127
2, 30010, Note_on_c, 7, 55, 127
2, 30025, Note_off_c, 5, 77, 127
2, 30183, Note_off_c, 7, 55, 127
2, 30185, Note_on_c, 3, 51, 127
2, 30185, Note_on_c, 7, 79, 127
2, 30358, Note_off_c, 3, 51, 127
2, 30360, Note_on_c, 5, 53, 127
2, 30533, Note_off_c, 5, 53, 127
2, 30535, Note_on_c, 2, 50, 127
2, 30622, Note_off_c, 7, 79, 127
2, 30707, Note_off_c, 2, 50, 127
2, 30709, Note_on_c, 3, 51, 127
2, 30882, Note_off_c, 3, 51, 127
2, 30884, Note_on_c, 0, 48, 127
2, 30884, Note_on_c, 3, 75, 127
2, 31057, Note_off_c, 3, 75, 127
2, 31059, Note_on_c, 5, 77, 127
2, 31232, Note_off_c, 5, 77, 127
2, 31232, Note_off_c, 0, 48, 127
2, 31234, Note_on_c, 0, 48, 127
2, 31234, Note_on_c, 3, 75, 127
2, 31407, Note_off_c, 3, 75, 127
2, 31407, Note_off_c, 0, 48, 127
2, 31409, Note_on_c, 12, 47, 127
2, 31409, Note_on_c, 2, 74, 127
2, 31582, Note_off_c, 2, 74, 127
2, 31582, Note_off_c, 12, 47, 127
2, 31584, Note_on_c, 0, 48, 127
2, 31584, Note_on_c, 3, 75, 127
2, 31757, Note_off_c, 3, 75, 127
2, 31759, Note_on_c, 5, 77, 127
2, 31932, Note_off_c, 5, 77, 127
2, 31932, Note_off_c, 0, 48, 127
2, 31934, Note_on_c, 2, 50, 127
2, 31934, Note_on_c, 2, 74, 127
2, 32107, Note_off_c, 2, 74, 127
2, 32109, Note_on_c, 3, 75, 127
2, 32282, Note_off_c, 3, 75, 127
2, 32282, Note_off_c, 2, 50, 127
2, 32284, Note_on_c, 3, 51, 127
2, 32284, Note_on_c, 0, 72, 127
2, 32369, Note_off_c, 3, 51, 127
2, 32371, Note_on_c, 2, 50, 127
2, 32456, Note_off_c, 2, 50, 127
2, 32458, Note_on_c, 3, 51, 127
2, 32458, Note_on_c, 0, 84, 127
2, 32502, Note_off_c, 0, 72, 127
2, 32631, Note_off_c, 0, 84, 127
2, 32633, Note_on_c, 11, 82, 127
2, 32806, Note_off_c, 11, 82, 127
2, 32808, Note_on_c, 0, 84, 127
2, 32959, Note_off_c, 3, 51, 127
2, 32981, Note_off_c, 0, 84, 127
2, 32983, Note_on_c, 5, 53, 127
2, 32983, Note_on_c, 8, 80, 127
2, 33156, Note_off_c, 8, 80, 127
2, 33158, Note_on_c, 11, 82, 127
2, 33331, Note_off_c, 11, 82, 127
2, 33333, Note_on_c, 7, 79, 127
2, 33506, Note_off_c, 7, 79, 127
2, 33508, Note_on_c, 8, 80, 127
2, 33566, Note_off_c, 5, 53, 127
2, 33681, Note_off_c, 8, 80, 127
2, 33683, Note_on_c, 5, 77, 127
2, 33856, Note_off_c, 5, 77, 127
2, 33858, Note_on_c, 8, 80, 127
2, 34031, Note_off_c, 8, 80, 127
2, 34033, Note_on_c, 2, 50, 127
2, 34033, Note_on_c, 7, 79, 127
2, 34206, Note_off_c, 7, 79, 127
2, 34206, Note_off_c, 2, 50, 127
2, 34208, Note_on_c, 0, 48, 127
2, 34208, Note_on_c, 8, 80, 127
2, 34381, Note_off_c, 8, 80, 127
2, 34381, Note_off_c, 0, 48, 127
2, 34383, Note_on_c, 2, 50, 127
2, 34383, Note_on_c, 5, 77, 127
2, 34556, Note_off_c, 5, 77, 127
2, 34558, Note_on_c, 7, 79, 127
2, 34731, Note_off_c, 7, 79, 127
2, 34731, Note_off_c, 2, 50, 127
2, 34733, Note_on_c, 3, 51, 127
2, 34733, Note_on_c, 3, 75, 127
2, 34906, Note_off_c, 3, 75, 127
2, 34908, Note_on_c, 5, 77, 127
2, 35081, Note_off_c, 5, 77, 127
2, 35081, Note_off_c, 3, 51, 127
2, 35083, Note_on_c, 5, 53, 127
2, 35083, Note_on_c, 2, 74, 127
2, 35168, Note_off_c, 5, 53, 127
2, 35170, Note_on_c, 3, 51, 127
2, 35255, Note_off_c, 3, 51, 127
2, 35255, Note_off_c, 2, 74, 127
2, 35257, Note_on_c, 5, 53, 127
2, 35257, Note_on_c, 0, 84, 127
2, 35430, Note_off_c, 0, 84, 127
2, 35432, Note_on_c, 12, 83, 127
2, 35605, Note_off_c, 12, 83, 127
2, 35607, Note_on_c, 10, 81, 127
2, 35758, Note_off_c, 5, 53, 127
2, 35780, Note_off_c, 10, 81, 127
2, 35782, Note_on_c, 7, 55, 127
2, 35782, Note_on_c, 12, 83, 127
2, 35955, Note_off_c, 12, 83, 127
2, 35957, Note_on_c, 0, 84, 127
2, 36130, Note_off_c, 0, 84, 127
2, 36132, Note_on_c, 10, 81, 127
2, 36305, Note_off_c, 10, 81, 127
2, 36307, Note_on_c, 12, 83, 127
2, 36438, Note_off_c, 7, 55, 127
2, 36480, Note_off_c, 12, 83, 127
2, 36482, Note_on_c, 3, 51, 127
2, 36482, Note_on_c, 0, 72, 127
2, 36657, Note_on_c, 0, 84, 127
2, 36701, Note_off_c, 0, 72, 127
2, 36830, Note_off_c, 0, 84, 127
2, 36830, Note_off_c, 3, 51, 127
2, 36832, Note_on_c, 8, 56, 127
2, 36832, Note_on_c, 11, 82, 127
2, 37005, Note_off_c, 11, 82, 127
2, 37007, Note_on_c, 8, 80, 127
2, 37180, Note_off_c, 8, 80, 127
2, 37180, Note_off_c, 8, 56, 127
2, 37182, Note_on_c, 7, 55, 127
2, 37182, Note_on_c, 11, 82, 127
2, 37280, Note_off_c, 7, 55, 127
2, 37282, Note_on_c, 8, 56, 127
2, 37355, Note_off_c, 11, 82, 127
2, 37357, Note_on_c, 0, 84, 127
2, 37381, Note_off_c, 8, 56, 127
2, 37383, Note_on_c, 7, 55, 127
2, 37530, Note_off_c, 7, 55, 127
2, 37530, Note_off_c, 0, 84, 127
2, 37532, Note_on_c, 5, 53, 127
2, 37532, Note_on_c, 8, 80, 127
2, 37705, Note_off_c, 8, 80, 127
2, 37707, Note_on_c, 11, 82, 127
2, 37880, Note_off_c, 11, 82, 127
2, 37880, Note_off_c, 5, 53, 127
2, 37882, Note_on_c, 4, 52, 127
2, 37882, Note_on_c, 7, 79, 127
2, 38055, Note_off_c, 7, 79, 127
2, 38055, Note_off_c, 4, 52, 127
2, 38057, Note_on_c, 5, 53, 127
2, 38057, Note_on_c, 0, 84, 127
2, 38230, Note_off_c, 0, 84, 127
2, 38230, Note_off_c, 5, 53, 127
2, 38232, Note_on_c, 7, 55, 127
2, 38232, Note_on_c, 11, 82, 127
2, 38405, Note_off_c, 11, 82, 127
2, 38405, Note_off_c, 7, 55, 127
2, 38407, Note_on_c, 5, 53, 127
2, 38407, Note_on_c, 8, 80, 127
2, 38580, Note_off_c, 8, 80, 127
2, 38580, Note_off_c, 5, 53, 127
2, 38582, Note_on_c, 4, 52, 127
2, 38582, Note_on_c, 7, 79, 127
2, 38755, Note_off_c, 7, 79, 127
2, 38757, Note_on_c, 8, 80, 127
2, 38930, Note_off_c, 8, 80, 127
2, 38930, Note_off_c, 4, 52, 127
2, 38932, Note_on_c, 2, 50, 127
2, 38932, Note_on_c, 5, 77, 127
2, 39105, Note_off_c, 5, 77, 127
2, 39107, Note_on_c, 7, 79, 127
2, 39280, Note_off_c, 7, 79, 127
2, 39280, Note_off_c, 2, 50, 127
2, 39282, Note_on_c, 0, 48, 127
2, 39282, Note_on_c, 4, 76, 127
2, 39455, Note_off_c, 4, 76, 127
2, 39457, Note_on_c, 8, 80, 127
2, 39630, Note_off_c, 8, 80, 127
2, 39630, Note_off_c, 0, 48, 127
2, 39632, Note_on_c, 4, 52, 127
2, 39632, Note_on_c, 7, 79, 127
2, 39805, Note_off_c, 7, 79, 127
2, 39807, Note_on_c, 5, 77, 127
2, 39980, Note_off_c, 5, 77, 127
2, 39980, Note_off_c, 4, 52, 127
2, 39982, Note_on_c, 7, 55, 127
2, 39982, Note_on_c, 4, 76, 127
2, 40155, Note_off_c, 4, 76, 127
2, 40157, Note_on_c, 5, 77, 127
2, 40330, Note_off_c, 5, 77, 127
2, 40330, Note_off_c, 7, 55, 127
2, 40332, Note_on_c, 11, 58, 127
2, 40332, Note_on_c, 2, 74, 127
2, 40505, Note_off_c, 2, 74, 127
2, 40507, Note_on_c, 4, 76, 127
2, 40682, Note_on_c, 7, 67, 127
2, 40707, Note_off_c, 4, 76, 127
2, 40854, Note_off_c, 7, 67, 127
2, 40854, Note_off_c, 11, 58, 127
2, 40856, Note_on_c, 7, 55, 127
2, 40856, Note_on_c, 5, 77, 127
2, 41029, Note_off_c, 5, 77, 127
2, 41029, Note_off_c, 7, 55, 127
2, 41031, Note_on_c, 8, 56, 127
2, 41031, Note_on_c, 4, 76, 127
2, 41204, Note_off_c, 4, 76, 127
2, 41204, Note_off_c, 8, 56, 127
2, 41206, Note_on_c, 11, 58, 127
2, 41206, Note_on_c, 2, 74, 127
2, 41379, Note_off_c, 2, 74, 127
2, 41379, Note_off_c, 11, 58, 127
2, 41381, Note_on_c, 0, 60, 127
2, 41381, Note_on_c, 4, 76, 127
2, 41554, Note_off_c, 4, 76, 127
2, 41556, Note_on_c, 5, 77, 127
2, 41729, Note_off_c, 5, 77, 127
2, 41729, Note_off_c, 0, 60, 127
2, 41731, Note_on_c, 11, 58, 127
2, 41731, Note_on_c, 2, 74, 127
2, 41904, Note_off_c, 2, 74, 127
2, 41906, Note_on_c, 4, 76, 127
2, 42079, Note_off_c, 4, 76, 127
2, 42079, Note_off_c, 11, 58, 127
2, 42081, Note_on_c, 8, 56, 127
2, 42081, Note_on_c, 5, 77, 127
2, 42254, Note_off_c, 8, 56, 127
2, 42256, Note_on_c, 11, 58, 127
2, 42429, Note_off_c, 11, 58, 127
2, 42429, Note_off_c, 5, 77, 127
2, 42431, Note_on_c, 8, 56, 127
2, 42431, Note_on_c, 5, 65, 127
2, 42604, Note_off_c, 5, 65, 127
2, 42604, Note_off_c, 8, 56, 127
2, 42606, Note_on_c, 7, 55, 127
2, 42606, Note_on_c, 4, 64, 127
2, 42779, Note_off_c, 4, 64, 127
2, 42779, Note_off_c, 7, 55, 127
2, 42781, Note_on_c, 8, 56, 127
2, 42781, Note_on_c, 5, 65, 127
2, 42954, Note_off_c, 8, 56, 127
2, 42956, Note_on_c, 11, 58, 127
2, 43129, Note_off_c, 11, 58, 127
2, 43129, Note_off_c, 5, 65, 127
2, 43131, Note_on_c, 7, 55, 127
2, 43131, Note_on_c, 7, 67, 127
2, 43304, Note_off_c, 7, 55, 127
2, 43306, Note_on_c, 8, 56, 127
2, 43479, Note_off_c, 8, 56, 127
2, 43479, Note_off_c, 7, 67, 127
2, 43481, Note_on_c, 5, 53, 127
2, 43481, Note_on_c, 8, 68, 127
2, 43566, Note_off_c, 8, 68, 127
2, 43568, Note_on_c, 7, 67, 127
2, 43653, Note_off_c, 7, 67, 127
2, 43653, Note_off_c, 5, 53, 127
2, 43655, Note_on_c, 5, 65, 127
2, 43655, Note_on_c, 8, 68, 127
2, 43828, Note_off_c, 5, 65, 127
2, 43830, Note_on_c, 3, 63, 127
2, 43983, Note_off_c, 8, 68, 127
2, 44003, Note_off_c, 3, 63, 127
2, 44005, Note_on_c, 5, 65, 127
2, 44178, Note_off_c, 5, 65, 127
2, 44180, Note_on_c, 1, 61, 127
2, 44180, Note_on_c, 11, 70, 127
2, 44353, Note_off_c, 1, 61, 127
2, 44355, Note_on_c, 3, 63, 127
2, 44526, Note_off_c, 11, 70, 127
2, 44528, Note_off_c, 3, 63, 127
2, 44530, Note_on_c, 0, 60, 127
2, 44703, Note_off_c, 0, 60, 127
2, 44705, Note_on_c, 1, 61, 127
2, 44878, Note_off_c, 1, 61, 127
2, 44880, Note_on_c, 11, 58, 127
2, 45053, Note_off_c, 11, 58, 127
2, 45055, Note_on_c, 1, 61, 127
2, 45228, Note_off_c, 1, 61, 127
2, 45230, Note_on_c, 0, 60, 127
2, 45230, Note_on_c, 7, 67, 127
2, 45403, Note_off_c, 7, 67, 127
2, 45403, Note_off_c, 0, 60, 127
2, 45405, Note_on_c, 1, 61, 127
2, 45405, Note_on_c, 5, 65, 127
2, 45578, Note_off_c, 5, 65, 127
2, 45578, Note_off_c, 1, 61, 127
2, 45580, Note_on_c, 11, 58, 127
2, 45580, Note_on_c, 7, 67, 127
2, 45753, Note_off_c, 11, 58, 127
2, 45755, Note_on_c, 0, 60, 127
2, 45928, Note_off_c, 0, 60, 127
2, 45928, Note_off_c, 7, 67, 127
2, 45930, Note_on_c, 8, 56, 127
2, 45930, Note_on_c, 8, 68, 127
2, 46103, Note_off_c, 8, 56, 127
2, 46105, Note_on_c, 11, 58, 127
2, 46278, Note_off_c, 11, 58, 127
2, 46278, Note_off_c, 8, 68, 127
2, 46280, Note_on_c, 7, 55, 127
2, 46280, Note_on_c, 11, 70, 127
2, 46365, Note_off_c, 11, 70, 127
2, 46367, Note_on_c, 8, 68, 127
2, 46452, Note_off_c, 8, 68, 127
2, 46452, Note_off_c, 7, 55, 127
2, 46454, Note_on_c, 5, 65, 127
2, 46454, Note_on_c, 11, 70, 127
2, 46627, Note_off_c, 5, 65, 127
2, 46629, Note_on_c, 4, 64, 127
2, 46782, Note_off_c, 11, 70, 127
2, 46802, Note_off_c, 4, 64, 127
2, 46804, Note_on_c, 2, 62, 127
2, 46977, Note_off_c, 2, 62, 127
2, 46979, Note_on_c, 4, 64, 127
2, 46979, Note_on_c, 0, 72, 127
2, 47152, Note_off_c, 4, 64, 127
2, 47154, Note_on_c, 5, 65, 127
2, 47325, Note_off_c, 0, 72, 127
2, 47327, Note_off_c, 5, 65, 127
2, 47329, Note_on_c, 2, 62, 127
2, 47502, Note_off_c, 2, 62, 127
2, 47504, Note_on_c, 4, 64, 127
2, 47677, Note_off_c, 4, 64, 127
2, 47679, Note_on_c, 5, 53, 127
2, 47679, Note_on_c, 8, 68, 127
2, 47852, Note_off_c, 5, 53, 127
2, 47854, Note_on_c, 5, 65, 127
2, 48027, Note_off_c, 5, 65, 127
2, 48027, Note_off_c, 8, 68, 127
2, 48029, Note_on_c, 3, 63, 127
2, 48029, Note_on_c, 1, 73, 127
2, 48202, Note_off_c, 3, 63, 127
2, 48204, Note_on_c, 1, 61, 127
2, 48377, Note_off_c, 1, 61, 127
2, 48377, Note_off_c, 1, 73, 127
2, 48379, Note_on_c, 3, 63, 127
2, 48379, Note_on_c, 0, 72, 127
2, 48486, Note_off_c, 0, 72, 127
2, 48488, Note_on_c, 1, 73, 127
2, 48552, Note_off_c, 3, 63, 127
2, 48554, Note_on_c, 5, 65, 127
2, 48596, Note_off_c, 1, 73, 127
2, 48598, Note_on_c, 0, 72, 127
2, 48727, Note_off_c, 0, 72, 127
2, 48727, Note_off_c, 5, 65, 127
2, 48729, Note_on_c, 1, 61, 127
2, 48729, Note_on_c, 11, 70, 127
2, 48902, Note_off_c, 1, 61, 127
2, 48904, Note_on_c, 3, 63, 127
2, 49048, Note_off_c, 11, 70, 127
2, 49077, Note_off_c, 3, 63, 127
2, 49079, Note_on_c, 0, 60, 127
2, 49079, Note_on_c, 10, 69, 127
2, 49252, Note_off_c, 10, 69, 127
2, 49252, Note_off_c, 0, 60, 127
2, 49254, Note_on_c, 5, 65, 127
2, 49254, Note_on_c, 11, 70, 127
2, 49427, Note_off_c, 11, 70, 127
2, 49427, Note_off_c, 5, 65, 127
2, 49429, Note_on_c, 3, 63, 127
2, 49429, Note_on_c, 0, 72, 127
2, 49602, Note_off_c, 0, 72, 127
2, 49602, Note_off_c, 3, 63, 127
2, 49604, Note_on_c, 1, 61, 127
2, 49604, Note_on_c, 11, 70, 127
2, 49777, Note_off_c, 11, 70, 127
2, 49777, Note_off_c, 1, 61, 127
2, 49779, Note_on_c, 0, 60, 127
2, 49779, Note_on_c, 10, 69, 127
2, 49952, Note_off_c, 0, 60, 127
2, 49954, Note_on_c, 1, 61, 127
2, 50127, Note_off_c, 1, 61, 127
2, 50127, Note_off_c, 10, 69, 127
2, 50129, Note_on_c, 11, 58, 127
2, 50129, Note_on_c, 7, 67, 127
2, 50302, Note_off_c, 11, 58, 127
2, 50304, Note_on_c, 0, 60, 127
2, 50455, Note_off_c, 7, 67, 127
2, 50477, Note_off_c, 0, 60, 127
2, 50479, Note_on_c, 10, 57, 127
2, 50479, Note_on_c, 5, 65, 127
2, 50652, Note_off_c, 10, 57, 127
2, 50654, Note_on_c, 1, 61, 127
2, 50827, Note_off_c, 1, 61, 127
2, 50827, Note_off_c, 5, 65, 127
2, 50829, Note_on_c, 0, 60, 127
2, 50829, Note_on_c, 10, 69, 127
2, 51002, Note_off_c, 0, 60, 127
2, 51004, Note_on_c, 11, 58, 127
2, 51157, Note_off_c, 10, 69, 127
2, 51177, Note_off_c, 11, 58, 127
2, 51179, Note_on_c, 10, 57, 127
2, 51179, Note_on_c, 0, 72, 127
2, 51352, Note_off_c, 10, 57, 127
2, 51354, Note_on_c, 11, 58, 127
2, 51507, Note_off_c, 0, 72, 127
2, 51527, Note_off_c, 11, 58, 127
2, 51529, Note_on_c, 7, 55, 127
2, 51529, Note_on_c, 3, 75, 127
2, 51702, Note_off_c, 7, 55, 127
2, 51704, Note_on_c, 10, 57, 127
2, 51877, Note_off_c, 10, 57, 127
2, 51879, Note_on_c, 0, 48, 127
2, 52052, Note_off_c, 0, 48, 127
2, 52052, Note_off_c, 3, 75, 127
2, 52054, Note_on_c, 11, 58, 127
2, 52054, Note_on_c, 0, 72, 127
2, 52227, Note_off_c, 0, 72, 127
2, 52227, Note_off_c, 11, 58, 127
2, 52229, Note_on_c, 10, 57, 127
2, 52229, Note_on_c, 1, 73, 127
2, 52402, Note_off_c, 1, 73, 127
2, 52402, Note_off_c, 10, 57, 127
2, 52404, Note_on_c, 7, 55, 127
2, 52404, Note_on_c, 3, 75, 127
2, 52577, Note_off_c, 3, 75, 127
2, 52577, Note_off_c, 7, 55, 127
2, 52579, Note_on_c, 10, 57, 127
2, 52579, Note_on_c, 5, 77, 127
2, 52752, Note_off_c, 10, 57, 127
2, 52754, Note_on_c, 11, 58, 127
2, 52927, Note_off_c, 11, 58, 127
2, 52927, Note_off_c, 5, 77, 127
2, 52929, Note_on_c, 7, 55, 127
2, 52929, Note_on_c, 3, 75, 127
2, 53102, Note_off_c, 7, 55, 127
2, 53104, Note_on_c, 10, 57, 127
2, 53277, Note_off_c, 10, 57, 127
2, 53277, Note_off_c, 3, 75, 127
2, 53279, Note_on_c, 11, 58, 127
2, 53279, Note_on_c, 1, 73, 127
2, 53452, Note_off_c, 1, 73, 127
2, 53454, Note_on_c, 3, 75, 127
2, 53627, Note_off_c, 3, 75, 127
2, 53627, Note_off_c, 11, 58, 127
2, 53629, Note_on_c, 11, 46, 127
2, 53629, Note_on_c, 1, 73, 127
2, 53802, Note_off_c, 1, 73, 127
2, 53802, Note_off_c, 11, 46, 127
2, 53804, Note_on_c, 10, 45, 127
2, 53804, Note_on_c, 0, 72, 127
2, 53977, Note_off_c, 0, 72, 127
2, 53977, Note_off_c, 10, 45, 127
2, 53979, Note_on_c, 11, 46, 127
2, 53979, Note_on_c, 1, 73, 127
2, 54152, Note_off_c, 1, 73, 127
2, 54154, Note_on_c, 3, 75, 127
2, 54327, Note_off_c, 3, 75, 127
2, 54327, Note_off_c, 11, 46, 127
2, 54329, Note_on_c, 0, 48, 127
2, 54329, Note_on_c, 0, 72, 127
2, 54502, Note_off_c, 0, 72, 127
2, 54504, Note_on_c, 1, 73, 127
2, 54677, Note_off_c, 1, 73, 127
2, 54677, Note_off_c, 0, 48, 127
2, 54679, Note_on_c, 1, 49, 127
2, 54679, Note_on_c, 11, 70, 127
2, 54764, Note_off_c, 1, 49, 127
2, 54766, Note_on_c, 0, 48, 127
2, 54851, Note_off_c, 0, 48, 127
2, 54851, Note_off_c, 11, 70, 127
2, 54853, Note_on_c, 1, 49, 127
2, 54853, Note_on_c, 8, 80, 127
2, 55026, Note_off_c, 8, 80, 127
2, 55028, Note_on_c, 7, 79, 127
2, 55201, Note_off_c, 7, 79, 127
2, 55203, Note_on_c, 5, 77, 127
2, 55345, Note_off_c, 1, 49, 127
2, 55376, Note_off_c, 5, 77, 127
2, 55378, Note_on_c, 3, 51, 127
2, 55378, Note_on_c, 7, 79, 127
2, 55551, Note_off_c, 7, 79, 127
2, 55553, Note_on_c, 8, 80, 127
2, 55726, Note_off_c, 8, 80, 127
2, 55728, Note_on_c, 5, 77, 127
2, 55901, Note_off_c, 5, 77, 127
2, 55903, Note_on_c, 7, 79, 127
2, 56076, Note_off_c, 7, 79, 127
2, 56078, Note_on_c, 8, 80, 127
2, 56089, Note_off_c, 3, 51, 127
2, 56251, Note_off_c, 8, 80, 127
2, 56253, Note_on_c, 1, 73, 127
2, 56426, Note_off_c, 1, 73, 127
2, 56428, Note_on_c, 8, 44, 127
2, 56428, Note_on_c, 0, 72, 127
2, 56601, Note_off_c, 0, 72, 127
2, 56601, Note_off_c, 8, 44, 127
2, 56603, Note_on_c, 7, 43, 127
2, 56603, Note_on_c, 11, 70, 127
2, 56776, Note_off_c, 11, 70, 127
2, 56776, Note_off_c, 7, 43, 127
2, 56778, Note_on_c, 8, 44, 127
2, 56778, Note_on_c, 0, 72, 127
2, 56951, Note_off_c, 0, 72, 127
2, 56953, Note_on_c, 1, 73, 127
2, 57126, Note_off_c, 1, 73, 127
2, 57126, Note_off_c, 8, 44, 127
2, 57128, Note_on_c, 11, 46, 127
2, 57128, Note_on_c, 11, 70, 127
2, 57301, Note_off_c, 11, 70, 127
2, 57303, Note_on_c, 0, 72, 127
2, 57476, Note_off_c, 0, 72, 127
2, 57476, Note_off_c, 11, 46, 127
2, 57478, Note_on_c, 0, 48, 127
2, 57478, Note_on_c, 8, 68, 127
2, 57563, Note_off_c, 0, 48, 127
2, 57565, Note_on_c, 11, 46, 127
2, 57650, Note_off_c, 11, 46, 127
2, 57650, Note_off_c, 8, 68, 127
2, 57652, Note_on_c, 0, 48, 127
2, 57652, Note_on_c, 7, 79, 127
2, 57825, Note_off_c, 7, 79, 127
2, 57827, Note_on_c, 5, 77, 127
2, 58000, Note_off_c, 5, 77, 127
2, 58002, Note_on_c, 4, 76, 127
2, 58153, Note_off_c, 0, 48, 127
2, 58175, Note_off_c, 4, 76, 127
2, 58177, Note_on_c, 1, 49, 127
2, 58177, Note_on_c, 5, 77, 127
2, 58350, Note_off_c, 5, 77, 127
2, 58352, Note_on_c, 7, 79, 127
2, 58525, Note_off_c, 7, 79, 127
2, 58527, Note_on_c, 4, 76, 127
2, 58700, Note_off_c, 4, 76, 127
2, 58702, Note_on_c, 5, 77, 127
2, 58875, Note_off_c, 5, 77, 127
2, 58877, Note_on_c, 7, 79, 127
2, 58979, Note_off_c, 1, 49, 127
2, 59050, Note_off_c, 7, 79, 127
2, 59052, Note_on_c, 0, 72, 127
2, 59225, Note_off_c, 0, 72, 127
2, 59227, Note_on_c, 7, 43, 127
2, 59227, Note_on_c, 11, 70, 127
2, 59400, Note_off_c, 11, 70, 127
2, 59400, Note_off_c, 7, 43, 127
2, 59402, Note_on_c, 5, 41, 127
2, 59402, Note_on_c, 8, 68, 127
2, 59575, Note_off_c, 8, 68, 127
2, 59575, Note_off_c, 5, 41, 127
2, 59577, Note_on_c, 7, 43, 127
2, 59577, Note_on_c, 11, 70, 127
2, 59750, Note_off_c, 11, 70, 127
2, 59752, Note_on_c, 0, 72, 127
2, 59925, Note_off_c, 0, 72, 127
2, 59925, Note_off_c, 7, 43, 127
2, 59927, Note_on_c, 8, 44, 127
2, 59927, Note_on_c, 8, 68, 127
2, 60100, Note_off_c, 8, 68, 127
2, 60102, Note_on_c, 11, 70, 127
2, 60275, Note_off_c, 11, 70, 127
2, 60275, Note_off_c, 8, 44, 127
2, 60277, Note_on_c, 11, 46, 127
2, 60277, Note_on_c, 7, 67, 127
2, 60362, Note_off_c, 11, 46, 127
2, 60364, Note_on_c, 8, 44, 127
2, 60449, Note_off_c, 8, 44, 127
2, 60449, Note_off_c, 7, 67, 127
2, 60451, Note_on_c, 11, 46, 127
2, 60451, Note_on_c, 5, 77, 127
2, 60624, Note_off_c, 5, 77, 127
2, 60626, Note_on_c, 4, 76, 127
2, 60799, Note_off_c, 4, 76, 127
2, 60801, Note_on_c, 2, 74, 127
2, 60952, Note_off_c, 11, 46, 127
2, 60974, Note_off_c, 2, 74, 127
2, 60976, Note_on_c, 0, 48, 127
2, 60976, Note_on_c, 4, 76, 127
2, 61149, Note_off_c, 4, 76, 127
2, 61151, Note_on_c, 5, 77, 127
2, 61324, Note_off_c, 5, 77, 127
2, 61326, Note_on_c, 2, 74, 127
2, 61499, Note_off_c, 2, 74, 127
2, 61501, Note_on_c, 4, 76, 127
2, 61661, Note_off_c, 0, 48, 127
2, 61674, Note_off_c, 4, 76, 127
2, 61676, Note_on_c, 5, 41, 127
2, 61676, Note_on_c, 5, 77, 127
2, 61836, Note_off_c, 5, 41, 127
2, 61851, Note_on_c, 0, 60, 127
2, 62024, Note_off_c, 0, 60, 127
2, 62024, Note_off_c, 5, 77, 127
2, 62026, Note_on_c, 11, 58, 127
2, 62026, Note_on_c, 8, 68, 127
2, 62199, Note_off_c, 8, 68, 127
2, 62199, Note_off_c, 11, 58, 127
2, 62201, Note_on_c, 0, 60, 127
2, 62201, Note_on_c, 7, 67, 127
2, 62374, Note_off_c, 7, 67, 127
2, 62374, Note_off_c, 0, 60, 127
2, 62376, Note_on_c, 8, 56, 127
2, 62376, Note_on_c, 8, 68, 127
2, 62549, Note_off_c, 8, 56, 127
2, 62551, Note_on_c, 11, 58, 127
2, 62724, Note_off_c, 11, 58, 127
2, 62724, Note_off_c, 8, 68, 127
2, 62726, Note_on_c, 7, 55, 127
2, 62726, Note_on_c, 11, 70, 127
2, 62899, Note_off_c, 7, 55, 127
2, 62901, Note_on_c, 8, 56, 127
2, 63074, Note_off_c, 8, 56, 127
2, 63074, Note_off_c, 11, 70, 127
2, 63076, Note_on_c, 5, 53, 127
2, 63076, Note_on_c, 0, 72, 127
2, 63161, Note_off_c, 0, 72, 127
2, 63163, Note_on_c, 11, 70, 127
2, 63248, Note_off_c, 11, 70, 127
2, 63248, Note_off_c, 5, 53, 127
2, 63250, Note_on_c, 8, 56, 127
2, 63250, Note_on_c, 0, 72, 127
2, 63423, Note_off_c, 8, 56, 127
2, 63425, Note_on_c, 7, 55, 127
2, 63596, Note_off_c, 0, 72, 127
2, 63598, Note_off_c, 7, 55, 127
2, 63600, Note_on_c, 8, 56, 127
2, 63773, Note_off_c, 8, 56, 127
2, 63775, Note_on_c, 5, 53, 127
2, 63775, Note_on_c, 1, 73, 127
2, 63948, Note_off_c, 5, 53, 127
2, 63950, Note_on_c, 7, 55, 127
2, 64123, Note_off_c, 7, 55, 127
2, 64125, Note_on_c, 3, 51, 127
2, 64140, Note_off_c, 1, 73, 127
2, 64298, Note_off_c, 3, 51, 127
2, 64300, Note_on_c, 5, 53, 127
2, 64473, Note_off_c, 5, 53, 127
2, 64475, Note_on_c, 1, 49, 127
2, 64648, Note_off_c, 1, 49, 127
2, 64650, Note_on_c, 5, 53, 127
2, 64823, Note_off_c, 5, 53, 127
2, 64825, Note_on_c, 3, 51, 127
2, 64825, Note_on_c, 11, 70, 127
2, 64998, Note_off_c, 11, 70, 127
2, 64998, Note_off_c, 3, 51, 127
2, 65000, Note_on_c, 5, 53, 127
2, 65000, Note_on_c, 8, 68, 127
2, 65173, Note_off_c, 8, 68, 127
2, 65173, Note_off_c, 5, 53, 127
2, 65175, Note_on_c, 1, 49, 127
2, 65175, Note_on_c, 11, 70, 127
2, 65260, Note_off_c, 11, 70, 127
2, 65262, Note_on_c, 8, 68, 127
2, 65347, Note_off_c, 8, 68, 127
2, 65347, Note_off_c, 1, 49, 127
2, 65349, Note_on_c, 3, 51, 127
2, 65349, Note_on_c, 11, 70, 127
2, 65522, Note_off_c, 11, 70, 127
2, 65522, Note_off_c, 3, 51, 127
2, 65524, Note_on_c, 0, 48, 127
2, 65524, Note_on_c, 0, 72, 127
2, 65697, Note_off_c, 0, 48, 127
2, 65699, Note_on_c, 1, 49, 127
2, 65872, Note_off_c, 1, 49, 127
2, 65872, Note_off_c, 0, 72, 127
2, 65874, Note_on_c, 11, 46, 127
2, 65874, Note_on_c, 1, 73, 127
2, 65959, Note_off_c, 1, 73, 127
2, 65961, Note_on_c, 0, 72, 127
2, 66046, Note_off_c, 0, 72, 127
2, 66046, Note_off_c, 11, 46, 127
2, 66048, Note_on_c, 8, 56, 127
2, 66048, Note_on_c, 1, 73, 127
2, 66221, Note_off_c, 8, 56, 127
2, 66223, Note_on_c, 7, 55, 127
2, 66396, Note_off_c, 7, 55, 127
2, 66398, Note_on_c, 5, 53, 127
2, 66449, Note_off_c, 1, 73, 127
2, 66571, Note_off_c, 5, 53, 127
2, 66573, Note_on_c, 7, 55, 127
2, 66573, Note_on_c, 3, 75, 127
2, 66746, Note_off_c, 7, 55, 127
2, 66748, Note_on_c, 8, 56, 127
2, 66921, Note_off_c, 8, 56, 127
2, 66923, Note_on_c, 5, 53, 127
2, 67010, Note_off_c, 3, 75, 127
2, 67095, Note_off_c, 5, 53, 127
2, 67097, Note_on_c, 7, 55, 127
2, 67270, Note_off_c, 7, 55, 127
2, 67272, Note_on_c, 8, 56, 127
2, 67272, Note_on_c, 0, 72, 127
2, 67445, Note_off_c, 0, 72, 127
2, 67447, Note_on_c, 8, 80, 127
2, 67620, Note_off_c, 8, 80, 127
2, 67620, Note_off_c, 8, 56, 127
2, 67622, Note_on_c, 3, 51, 127
2, 67622, Note_on_c, 7, 79, 127
2, 67795, Note_off_c, 7, 79, 127
2, 67795, Note_off_c, 3, 51, 127
2, 67797, Note_on_c, 1, 49, 127
2, 67797, Note_on_c, 8, 80, 127
2, 67970, Note_off_c, 8, 80, 127
2, 67970, Note_off_c, 1, 49, 127
2, 67972, Note_on_c, 3, 51, 127
2, 67972, Note_on_c, 5, 77, 127
2, 68145, Note_off_c, 5, 77, 127
2, 68147, Note_on_c, 7, 79, 127
2, 68320, Note_off_c, 7, 79, 127
2, 68320, Note_off_c, 3, 51, 127
2, 68322, Note_on_c, 5, 53, 127
2, 68322, Note_on_c, 3, 75, 127
2, 68495, Note_off_c, 3, 75, 127
2, 68497, Note_on_c, 5, 77, 127
2, 68670, Note_off_c, 5, 77, 127
2, 68670, Note_off_c, 5, 53, 127
2, 68672, Note_on_c, 7, 55, 127
2, 68672, Note_on_c, 1, 73, 127
2, 68757, Note_off_c, 7, 55, 127
2, 68759, Note_on_c, 5, 53, 127
2, 68844, Note_off_c, 5, 53, 127
2, 68844, Note_off_c, 1, 73, 127
2, 68846, Note_on_c, 7, 55, 127
2, 68846, Note_on_c, 11, 82, 127
2, 69019, Note_off_c, 11, 82, 127
2, 69021, Note_on_c, 8, 80, 127
2, 69194, Note_off_c, 8, 80, 127
2, 69196, Note_on_c, 11, 82, 127
2, 69349, Note_off_c, 7, 55, 127
2, 69369, Note_off_c, 11, 82, 127
2, 69371, Note_on_c, 8, 56, 127
2, 69371, Note_on_c, 0, 72, 127
2, 69544, Note_off_c, 0, 72, 127
2, 69546, Note_on_c, 1, 73, 127
2, 69719, Note_off_c, 1, 73, 127
2, 69721, Note_on_c, 11, 70, 127
2, 69894, Note_off_c, 11, 70, 127
2, 69896, Note_on_c, 0, 72, 127
2, 70069, Note_off_c, 0, 72, 127
2, 70071, Note_on_c, 8, 68, 127
2, 70173, Note_off_c, 8, 56, 127
2, 70244, Note_off_c, 8, 68, 127
2, 70246, Note_on_c, 0, 72, 127
2, 70419, Note_off_c, 0, 72, 127
2, 70421, Note_on_c, 5, 53, 127
2, 70421, Note_on_c, 11, 70, 127
2, 70594, Note_off_c, 11, 70, 127
2, 70594, Note_off_c, 5, 53, 127
2, 70596, Note_on_c, 3, 51, 127
2, 70596, Note_on_c, 0, 72, 127
2, 70769, Note_off_c, 0, 72, 127
2, 70769, Note_off_c, 3, 51, 127
2, 70771, Note_on_c, 5, 53, 127
2, 70771, Note_on_c, 8, 68, 127
2, 70944, Note_off_c, 8, 68, 127
2, 70946, Note_on_c, 11, 70, 127
2, 71119, Note_off_c, 11, 70, 127
2, 71119, Note_off_c, 5, 53, 127
2, 71121, Note_on_c, 7, 55, 127
2, 71121, Note_on_c, 7, 67, 127
2, 71294, Note_off_c, 7, 67, 127
2, 71296, Note_on_c, 8, 68, 127
2, 71469, Note_off_c, 8, 68, 127
2, 71469, Note_off_c, 7, 55, 127
2, 71471, Note_on_c, 8, 56, 127
2, 71471, Note_on_c, 5, 65, 127
2, 71556, Note_off_c, 8, 56, 127
2, 71558, Note_on_c, 7, 55, 127
2, 71643, Note_off_c, 7, 55, 127
2, 71643, Note_off_c, 5, 65, 127
2, 71645, Note_on_c, 8, 56, 127
2, 71645, Note_on_c, 3, 75, 127
2, 71818, Note_off_c, 3, 75, 127
2, 71820, Note_on_c, 2, 74, 127
2, 71993, Note_off_c, 2, 74, 127
2, 71995, Note_on_c, 0, 72, 127
2, 72150, Note_off_c, 8, 56, 127
2, 72168, Note_off_c, 0, 72, 127
2, 72170, Note_on_c, 11, 58, 127
2, 72170, Note_on_c, 2, 74, 127
2, 72343, Note_off_c, 2, 74, 127
2, 72345, Note_on_c, 3, 75, 127
2, 72518, Note_off_c, 3, 75, 127
2, 72520, Note_on_c, 0, 72, 127
2, 72693, Note_off_c, 0, 72, 127
2, 72695, Note_on_c, 2, 74, 127
2, 72853, Note_off_c, 11, 58, 127
2, 72868, Note_off_c, 2, 74, 127
2, 72870, Note_on_c, 7, 55, 127
2, 72870, Note_on_c, 3, 75, 127
2, 73043, Note_off_c, 7, 55, 127
2, 73045, Note_on_c, 8, 56, 127
2, 73218, Note_off_c, 8, 56, 127
2, 73218, Note_off_c, 3, 75, 127
2, 73220, Note_on_c, 7, 55, 127
2, 73220, Note_on_c, 3, 63, 127
2, 73393, Note_off_c, 3, 63, 127
2, 73393, Note_off_c, 7, 55, 127
2, 73395, Note_on_c, 5, 53, 127
2, 73395, Note_on_c, 2, 62, 127
2, 73568, Note_off_c, 2, 62, 127
2, 73568, Note_off_c, 5, 53, 127
2, 73570, Note_on_c, 7, 55, 127
2, 73570, Note_on_c, 3, 63, 127
2, 73743, Note_off_c, 7, 55, 127
2, 73745, Note_on_c, 8, 56, 127
2, 73918, Note_off_c, 8, 56, 127
2, 73918, Note_off_c, 3, 63, 127
2, 73920, Note_on_c, 5, 53, 127
2, 73920, Note_on_c, 5, 65, 127
2, 74093, Note_off_c, 5, 53, 127
2, 74095, Note_on_c, 7, 55, 127
2, 74268, Note_off_c, 7, 55, 127
2, 74268, Note_off_c, 5, 65, 127
2, 74270, Note_on_c, 3, 51, 127
2, 74270, Note_on_c, 7, 67, 127
2, 74355, Note_off_c, 7, 67, 127
2, 74357, Note_on_c, 5, 65, 127
2, 74442, Note_off_c, 5, 65, 127
2, 74442, Note_off_c, 3, 51, 127
2, 74444, Note_on_c, 3, 63, 127
2, 74444, Note_on_c, 7, 67, 127
2, 74617, Note_off_c, 3, 63, 127
2, 74619, Note_on_c, 2, 62, 127
2, 74772, Note_off_c, 7, 67, 127
2, 74792, Note_off_c, 2, 62, 127
2, 74794, Note_on_c, 3, 63, 127
2, 74967, Note_off_c, 3, 63, 127
2, 74969, Note_on_c, 0, 60, 127
2, 74969, Note_on_c, 8, 68, 127
2, 75142, Note_off_c, 0, 60, 127
2, 75144, Note_on_c, 2, 62, 127
2, 75315, Note_off_c, 8, 68, 127
2, 75317, Note_off_c, 2, 62, 127
2, 75319, Note_on_c, 11, 58, 127
2, 75492, Note_off_c, 11, 58, 127
2, 75494, Note_on_c, 0, 60, 127
2, 75667, Note_off_c, 0, 60, 127
2, 75669, Note_on_c, 8, 56, 127
2, 75842, Note_off_c, 8, 56, 127
2, 75844, Note_on_c, 0, 60, 127
2, 76017, Note_off_c, 0, 60, 127
2, 76019, Note_on_c, 11, 58, 127
2, 76019, Note_on_c, 5, 65, 127
2, 76192, Note_off_c, 5, 65, 127
2, 76192, Note_off_c, 11, 58, 127
2, 76194, Note_on_c, 0, 60, 127
2, 76194, Note_on_c, 3, 63, 127
2, 76367, Note_off_c, 3, 63, 127
2, 76367, Note_off_c, 0, 60, 127
2, 76369, Note_on_c, 8, 56, 127
2, 76369, Note_on_c, 5, 65, 127
2, 76542, Note_off_c, 8, 56, 127
2, 76544, Note_on_c, 11, 58, 127
2, 76717, Note_off_c, 11, 58, 127
2, 76717, Note_off_c, 5, 65, 127
2, 76719, Note_on_c, 7, 55, 127
2, 76719, Note_on_c, 7, 67, 127
2, 76892, Note_off_c, 7, 55, 127
2, 76894, Note_on_c, 8, 56, 127
2, 77067, Note_off_c, 8, 56, 127
2, 77067, Note_off_c, 7, 67, 127
2, 77069, Note_on_c, 5, 53, 127
2, 77069, Note_on_c, 8, 68, 127
2, 77154, Note_off_c, 8, 68, 127
2, 77156, Note_on_c, 7, 67, 127
2, 77241, Note_off_c, 7, 67, 127
2, 77241, Note_off_c, 5, 53, 127
2, 77243, Note_on_c, 3, 63, 127
2, 77243, Note_on_c, 8, 68, 127
2, 77416, Note_off_c, 3, 63, 127
2, 77418, Note_on_c, 2, 62, 127
2, 77589, Note_off_c, 8, 68, 127
2, 77591, Note_off_c, 2, 62, 127
2, 77593, Note_on_c, 0, 60, 127
2, 77766, Note_off_c, 0, 60, 127
2, 77768, Note_on_c, 2, 62, 127
2, 77768, Note_on_c, 11, 70, 127
2, 77941, Note_off_c, 2, 62, 127
2, 77943, Note_on_c, 3, 63, 127
2, 78116, Note_off_c, 3, 63, 127
2, 78118, Note_on_c, 0, 60, 127
2, 78133, Note_off_c, 11, 70, 127
2, 78291, Note_off_c, 0, 60, 127
2, 78293, Note_on_c, 2, 62, 127
2, 78466, Note_off_c, 2, 62, 127
2, 78468, Note_on_c, 3, 51, 127
2, 78468, Note_on_c, 7, 67, 127
2, 78641, Note_off_c, 3, 51, 127
2, 78643, Note_on_c, 3, 63, 127
2, 78816, Note_off_c, 3, 63, 127
2, 78816, Note_off_c, 7, 67, 127
2, 78818, Note_on_c, 2, 62, 127
2, 78818, Note_on_c, 0, 72, 127
2, 78991, Note_off_c, 2, 62, 127
2, 78993, Note_on_c, 0, 60, 127
2, 79166, Note_off_c, 0, 60, 127
2, 79166, Note_off_c, 0, 72, 127
2, 79168, Note_on_c, 2, 62, 127
2, 79168, Note_on_c, 11, 70, 127
2, 79275, Note_off_c, 11, 70, 127
2, 79277, Note_on_c, 0, 72, 127
2, 79341, Note_off_c, 2, 62, 127
2, 79343, Note_on_c, 3, 63, 127
2, 79385, Note_off_c, 0, 72, 127
2, 79387, Note_on_c, 11, 70, 127
2, 79516, Note_off_c, 11, 70, 127
2, 79516, Note_off_c, 3, 63, 127
2, 79518, Note_on_c, 0, 60, 127
2, 79518, Note_on_c, 8, 68, 127
2, 79691, Note_off_c, 0, 60, 127
2, 79693, Note_on_c, 2, 62, 127
2, 79837, Note_off_c, 8, 68, 127
2, 79866, Note_off_c, 2, 62, 127
2, 79868, Note_on_c, 11, 58, 127
2, 79868, Note_on_c, 7, 67, 127
2, 80041, Note_off_c, 7, 67, 127
2, 80041, Note_off_c, 11, 58, 127
2, 80043, Note_on_c, 3, 63, 127
2, 80043, Note_on_c, 8, 68, 127
2, 80216, Note_off_c, 8, 68, 127
2, 80216, Note_off_c, 3, 63, 127
2, 80218, Note_on_c, 2, 62, 127
2, 80218, Note_on_c, 11, 70, 127
2, 80391, Note_off_c, 11, 70, 127
2, 80391, Note_off_c, 2, 62, 127
2, 80393, Note_on_c, 0, 60, 127
2, 80393, Note_on_c, 8, 68, 127
2, 80566, Note_off_c, 8, 68, 127
2, 80566, Note_off_c, 0, 60, 127
2, 80568, Note_on_c, 11, 58, 127
2, 80568, Note_on_c, 7, 67, 127
2, 80741, Note_off_c, 11, 58, 127
2, 80743, Note_on_c, 0, 60, 127
2, 80916, Note_off_c, 0, 60, 127
2, 80916, Note_off_c, 7, 67, 127
2, 80918, Note_on_c, 8, 56, 127
2, 80918, Note_on_c, 5, 65, 127
2, 81091, Note_off_c, 8, 56, 127
2, 81093, Note_on_c, 11, 58, 127
2, 81255, Note_off_c, 5, 65, 127
2, 81266, Note_off_c, 11, 58, 127
2, 81268, Note_on_c, 7, 55, 127
2, 81268, Note_on_c, 3, 63, 127
2, 81441, Note_off_c, 7, 55, 127
2, 81443, Note_on_c, 0, 60, 127
2, 81603, Note_off_c, 3, 63, 127
2, 81616, Note_off_c, 0, 60, 127
2, 81618, Note_on_c, 11, 58, 127
2, 81618, Note_on_c, 5, 77, 127
2, 81791, Note_off_c, 11, 58, 127
2, 81793, Note_on_c, 8, 56, 127
2, 81966, Note_off_c, 8, 56, 127
2, 81966, Note_off_c, 5, 77, 127
2, 81968, Note_on_c, 7, 55, 127
2, 81968, Note_on_c, 3, 75, 127
2, 82083, Note_off_c, 3, 75, 127
2, 82085, Note_on_c, 5, 77, 127
2, 82141, Note_off_c, 7, 55, 127
2, 82143, Note_on_c, 8, 56, 127
2, 82199, Note_off_c, 5, 77, 127
2, 82201, Note_on_c, 3, 75, 127
2, 82316, Note_off_c, 3, 75, 127
2, 82316, Note_off_c, 8, 56, 127
2, 82318, Note_on_c, 5, 53, 127
2, 82318, Note_on_c, 1, 73, 127
2, 82491, Note_off_c, 5, 53, 127
2, 82493, Note_on_c, 7, 55, 127
2, 82644, Note_off_c, 1, 73, 127
2, 82666, Note_off_c, 7, 55, 127
2, 82668, Note_on_c, 3, 51, 127
2, 82668, Note_on_c, 0, 72, 127
2, 82841, Note_off_c, 0, 72, 127
2, 82841, Note_off_c, 3, 51, 127
2, 82843, Note_on_c, 8, 56, 127
2, 82843, Note_on_c, 1, 73, 127
2, 83016, Note_off_c, 1, 73, 127
2, 83016, Note_off_c, 8, 56, 127
2, 83018, Note_on_c, 7, 55, 127
2, 83018, Note_on_c, 3, 75, 127
2, 83191, Note_off_c, 3, 75, 127
2, 83191, Note_off_c, 7, 55, 127
2, 83193, Note_on_c, 5, 53, 127
2, 83193, Note_on_c, 1, 73, 127
2, 83366, Note_off_c, 1, 73, 127
2, 83366, Note_off_c, 5, 53, 127
2, 83368, Note_on_c, 3, 51, 127
2, 83368, Note_on_c, 0, 72, 127
2, 83541, Note_off_c, 3, 51, 127
2, 83543, Note_on_c, 5, 53, 127
2, 83716, Note_off_c, 5, 53, 127
2, 83716, Note_off_c, 0, 72, 127
2, 83718, Note_on_c, 1, 49, 127
2, 83718, Note_on_c, 11, 70, 127
2, 83891, Note_off_c, 1, 49, 127
2, 83893, Note_on_c, 3, 51, 127
2, 84055, Note_off_c, 11, 70, 127
2, 84066, Note_off_c, 3, 51, 127
2, 84068, Note_on_c, 0, 48, 127
2, 84068, Note_on_c, 8, 68, 127
2, 84242, Note_off_c, 0, 48, 127
2, 84244, Note_on_c, 5, 53, 127
2, 84418, Note_off_c, 5, 53, 127
2, 84418, Note_off_c, 8, 68, 127
2, 84420, Note_on_c, 3, 51, 127
2, 84420, Note_on_c, 0, 72, 127
2, 84594, Note_off_c, 3, 51, 127
2, 84596, Note_on_c, 1, 49, 127
2, 84750, Note_off_c, 0, 72, 127
2, 84770, Note_off_c, 1, 49, 127
2, 84772, Note_on_c, 0, 48, 127
2, 84772, Note_on_c, 3, 75, 127
2, 84946, Note_off_c, 0, 48, 127
2, 84948, Note_on_c, 1, 49, 127
2, 85102, Note_off_c, 3, 75, 127
2, 85122, Note_off_c, 1, 49, 127
2, 85124, Note_on_c, 11, 46, 127
2, 85124, Note_on_c, 8, 80, 127
2, 85298, Note_off_c, 11, 46, 127
2, 85300, Note_on_c, 0, 48, 127
2, 85474, Note_off_c, 0, 48, 127
2, 85476, Note_on_c, 5, 41, 127
2, 85651, Note_off_c, 5, 41, 127
2, 85651, Note_off_c, 8, 80, 127
2, 85653, Note_on_c, 3, 51, 127
2, 85653, Note_on_c, 5, 77, 127
2, 85828, Note_off_c, 5, 77, 127
2, 85828, Note_off_c, 3, 51, 127
2, 85830, Note_on_c, 2, 50, 127
2, 85830, Note_on_c, 7, 79, 127
2, 86005, Note_off_c, 7, 79, 127
2, 86005, Note_off_c, 2, 50, 127
2, 86007, Note_on_c, 0, 48, 127
2, 86007, Note_on_c, 8, 80, 127
2, 86182, Note_off_c, 8, 80, 127
2, 86182, Note_off_c, 0, 48, 127
2, 86184, Note_on_c, 2, 50, 127
2, 86184, Note_on_c, 11, 82, 127
2, 86359, Note_off_c, 2, 50, 127
2, 86361, Note_on_c, 3, 51, 127
2, 86536, Note_off_c, 3, 51, 127
2, 86536, Note_off_c, 11, 82, 127
2, 86538, Note_on_c, 0, 48, 127
2, 86538, Note_on_c, 8, 80, 127
2, 86713, Note_off_c, 0, 48, 127
2, 86715, Note_on_c, 2, 50, 127
2, 86890, Note_off_c, 2, 50, 127
2, 86890, Note_off_c, 8, 80, 127
2, 86900, Note_on_c, 3, 51, 127
2, 86900, Note_on_c, 7, 79, 127
2, 87282, Note_off_c, 3, 51, 127
2, 87284, Note_on_c, 7, 43, 127
2, 87378, Note_off_c, 7, 79, 127
2, 87380, Note_on_c, 5, 77, 127
2, 87474, Note_off_c, 5, 77, 127
2, 87476, Note_on_c, 3, 75, 127
2, 87570, Note_off_c, 3, 75, 127
2, 87572, Note_on_c, 5, 77, 127
2, 87666, Note_off_c, 5, 77, 127
2, 87666, Note_off_c, 7, 43, 127
2, 87668, Note_on_c, 8, 44, 127
2, 87668, Note_on_c, 7, 79, 127
2, 87781, Note_off_c, 7, 79, 127
2, 87781, Note_on_c, 5, 77, 127
2, 87857, Note_off_c, 5, 77, 127
2, 87857, Note_on_c, 7, 79, 127
2, 87933, Note_off_c, 7, 79, 127
2, 87933, Note_on_c, 5, 77, 127
2, 88009, Note_off_c, 5, 77, 127
2, 88009, Note_on_c, 7, 79, 127
2, 88083, Note_off_c, 8, 44, 127
2, 88085, Note_off_c, 7, 79, 127
2, 88085, Note_on_c, 11, 46, 127
2, 88085, Note_on_c, 5, 77, 127
2, 88292, Note_off_c, 5, 77, 127
2, 88294, Note_on_c, 3, 75, 127
2, 88501, Note_off_c, 3, 75, 127
2, 88501, Note_off_c, 11, 46, 127
2, 88519, Note_on_c, 3, 75, 127
2, 88519, Note_on_c, 3, 39, 127
2, 90357, Note_off_c, 3, 39, 127
2, 90357, Note_off_c, 3, 75, 127
2, 93696, End_track
3, 0, Start_track
3, 0, Title_t, "MIDI"
3, 1536, End_track
0, 0, End_of_file
