0, 0, Header, 1, 3, 384
1, 0, Start_track
1, 0, Tempo, 500000
1, 0, Time_signature, 4, 2, 24, 8
1, 64493, End_track
2, 0, Start_track
2, 0, Text_t, "harpsichord: John Sankey"
2, 0, Program_c, 0, 6
2, 0, Pitch_bend_c, 0, 8192
2, 0, Program_c, 1, 6
2, 0, Pitch_bend_c, 1, 7792
2, 0, Program_c, 2, 6
2, 0, Pitch_bend_c, 2, 7876
2, 0, Program_c, 3, 6
2, 0, Pitch_bend_c, 3, 7952
2, 0, Program_c, 4, 6
2, 0, Pitch_bend_c, 4, 7792
2, 0, Program_c, 5, 6
2, 0, Pitch_bend_c, 5, 8112
2, 0, Program_c, 6, 6
2, 0, Pitch_bend_c, 6, 7712
2, 0, Program_c, 7, 6
2, 0, Pitch_bend_c, 7, 8037
2, 0, Program_c, 8, 6
2, 0, Pitch_bend_c, 8, 7872
2, 0, Program_c, 10, 6
2, 0, Pitch_bend_c, 10, 7712
2, 0, Program_c, 11, 6
2, 0, Pitch_bend_c, 11, 8032
2, 0, Program_c, 12, 6
2, 0, Pitch_bend_c, 12, 7872
2, 0, Title_t, "Track 1"
2, 48, Note_on_c, 0, 48, 127
2, 225, Note_on_c, 7, 67, 127
2, 399, Note_off_c, 7, 67, 127
2, 403, Note_on_c, 10, 69, 127
2, 577, Note_off_c, 10, 69, 127
2, 581, Note_on_c, 12, 71, 127
2, 755, Note_off_c, 12, 71, 127
2, 759, Note_on_c, 0, 72, 127
2, 933, Note_off_c, 0, 72, 127
2, 937, Note_off_c, 0, 48, 127
2, 937, Note_on_c, 2, 74, 127
2, 1111, Note_off_c, 2, 74, 127
2, 1115, Note_on_c, 0, 60, 127
2, 1115, Note_on_c, 4, 76, 127
2, 1289, Note_off_c, 4, 76, 127
2, 1293, Note_on_c, 5, 77, 127
2, 1467, Note_off_c, 5, 77, 127
2, 1467, Note_off_c, 0, 60, 127
2, 1471, Note_on_c, 12, 59, 127
2, 1471, Note_on_c, 7, 79, 127
2, 1645, Note_off_c, 7, 79, 127
2, 1649, Note_on_c, 5, 77, 127
2, 1823, Note_off_c, 5, 77, 127
2, 1823, Note_off_c, 12, 59, 127
2, 1827, Note_on_c, 7, 55, 127
2, 1827, Note_on_c, 7, 79, 127
2, 2001, Note_off_c, 7, 79, 127
2, 2005, Note_on_c, 10, 81, 127
2, 2179, Note_off_c, 10, 81, 127
2, 2179, Note_off_c, 7, 55, 127
2, 2183, Note_on_c, 10, 57, 127
2, 2183, Note_on_c, 5, 77, 127
2, 2357, Note_off_c, 5, 77, 127
2, 2361, Note_on_c, 10, 81, 127
2, 2535, Note_off_c, 10, 81, 127
2, 2535, Note_off_c, 10, 57, 127
2, 2539, Note_on_c, 12, 59, 127
2, 2539, Note_on_c, 7, 79, 127
2, 2713, Note_off_c, 7, 79, 127
2, 2717, Note_on_c, 5, 77, 127
2, 2891, Note_off_c, 5, 77, 127
2, 2891, Note_off_c, 12, 59, 127
2, 2895, Note_on_c, 0, 60, 127
2, 2895, Note_on_c, 4, 76, 127
2, 2980, Note_off_c, 4, 76, 127
2, 2984, Note_on_c, 2, 74, 127
2, 3062, Note_off_c, 0, 60, 127
2, 3069, Note_off_c, 2, 74, 127
2, 3073, Note_on_c, 0, 60, 127
2, 3073, Note_on_c, 4, 76, 127
2, 3250, Note_on_c, 2, 62, 127
2, 3424, Note_off_c, 2, 62, 127
2, 3428, Note_on_c, 4, 64, 127
2, 3602, Note_off_c, 4, 64, 127
2, 3606, Note_on_c, 5, 65, 127
2, 3780, Note_off_c, 5, 65, 127
2, 3784, Note_on_c, 7, 67, 127
2, 3958, Note_off_c, 7, 67, 127
2, 3962, Note_off_c, 0, 60, 127
2, 3962, Note_on_c, 12, 59, 127
2, 3962, Note_on_c, 10, 69, 127
2, 4136, Note_off_c, 10, 69, 127
2, 4140, Note_on_c, 12, 71, 127
2, 4314, Note_off_c, 12, 71, 127
2, 4314, Note_off_c, 12, 59, 127
2, 4318, Note_on_c, 10, 57, 127
2, 4318, Note_on_c, 0, 72, 127
2, 4492, Note_off_c, 0, 72, 127
2, 4496, Note_on_c, 12, 71, 127
2, 4670, Note_off_c, 12, 71, 127
2, 4670, Note_off_c, 10, 57, 127
2, 4674, Note_on_c, 7, 55, 127
2, 4674, Note_on_c, 0, 72, 127
2, 4848, Note_off_c, 0, 72, 127
2, 4852, Note_on_c, 2, 74, 127
2, 5026, Note_off_c, 2, 74, 127
2, 5026, Note_off_c, 7, 55, 127
2, 5026, Note_off_c, 4, 76, 127
2, 5030, Note_on_c, 10, 57, 127
2, 5030, Note_on_c, 0, 72, 127
2, 5030, Note_on_c, 6, 78, 127
2, 5204, Note_off_c, 0, 72, 127
2, 5208, Note_on_c, 4, 76, 127
2, 5382, Note_off_c, 4, 76, 127
2, 5382, Note_off_c, 10, 57, 127
2, 5386, Note_on_c, 2, 50, 127
2, 5386, Note_on_c, 2, 74, 127
2, 5560, Note_off_c, 2, 74, 127
2, 5564, Note_on_c, 0, 72, 127
2, 5650, Note_off_c, 6, 78, 127
2, 5738, Note_off_c, 0, 72, 127
2, 5738, Note_off_c, 2, 50, 127
2, 5742, Note_on_c, 7, 43, 127
2, 5742, Note_on_c, 12, 71, 127
2, 5742, Note_on_c, 7, 79, 127
2, 5916, Note_off_c, 7, 43, 127
2, 5920, Note_on_c, 7, 55, 127
2, 6094, Note_off_c, 7, 55, 127
2, 6094, Note_off_c, 7, 79, 127
2, 6094, Note_off_c, 12, 71, 127
2, 6098, Note_on_c, 10, 57, 127
2, 6098, Note_on_c, 2, 74, 127
2, 6098, Note_on_c, 5, 77, 127
2, 6272, Note_off_c, 10, 57, 127
2, 6276, Note_on_c, 12, 59, 127
2, 6450, Note_off_c, 12, 59, 127
2, 6450, Note_off_c, 5, 77, 127
2, 6454, Note_on_c, 0, 60, 127
2, 6454, Note_on_c, 4, 76, 127
2, 6628, Note_off_c, 0, 60, 127
2, 6632, Note_on_c, 2, 62, 127
2, 6806, Note_off_c, 2, 62, 127
2, 6806, Note_off_c, 2, 74, 127
2, 6810, Note_on_c, 4, 64, 127
2, 6810, Note_on_c, 0, 72, 127
2, 6984, Note_off_c, 4, 64, 127
2, 6988, Note_on_c, 5, 65, 127
2, 7162, Note_off_c, 5, 65, 127
2, 7162, Note_off_c, 4, 76, 127
2, 7166, Note_on_c, 7, 67, 127
2, 7166, Note_on_c, 2, 74, 127
2, 7340, Note_off_c, 7, 67, 127
2, 7344, Note_on_c, 5, 65, 127
2, 7518, Note_off_c, 5, 65, 127
2, 7518, Note_off_c, 2, 74, 127
2, 7522, Note_on_c, 7, 67, 127
2, 7522, Note_on_c, 4, 76, 127
2, 7696, Note_off_c, 4, 76, 127
2, 7696, Note_off_c, 7, 67, 127
2, 7700, Note_on_c, 10, 69, 127
2, 7700, Note_on_c, 5, 77, 127
2, 7874, Note_off_c, 5, 77, 127
2, 7874, Note_off_c, 10, 69, 127
2, 7874, Note_off_c, 0, 72, 127
2, 7878, Note_on_c, 5, 65, 127
2, 7878, Note_on_c, 12, 71, 127
2, 7878, Note_on_c, 4, 76, 127
2, 7992, Note_off_c, 4, 76, 127
2, 7996, Note_on_c, 2, 74, 127
2, 8051, Note_off_c, 2, 74, 127
2, 8051, Note_off_c, 5, 65, 127
2, 8055, Note_on_c, 10, 69, 127
2, 8055, Note_on_c, 4, 76, 127
2, 8110, Note_off_c, 4, 76, 127
2, 8114, Note_on_c, 2, 74, 127
2, 8169, Note_off_c, 2, 74, 127
2, 8173, Note_on_c, 4, 76, 127
2, 8228, Note_off_c, 4, 76, 127
2, 8228, Note_off_c, 10, 69, 127
2, 8232, Note_on_c, 7, 67, 127
2, 8232, Note_on_c, 2, 74, 127
2, 8406, Note_off_c, 7, 67, 127
2, 8410, Note_on_c, 5, 65, 127
2, 8584, Note_off_c, 5, 65, 127
2, 8588, Note_on_c, 4, 64, 127
2, 8670, Note_off_c, 2, 74, 127
2, 8761, Note_off_c, 4, 64, 127
2, 8765, Note_on_c, 5, 65, 127
2, 8939, Note_off_c, 5, 65, 127
2, 8941, Note_off_c, 12, 71, 127
2, 8943, Note_on_c, 4, 64, 127
2, 8943, Note_on_c, 7, 79, 127
2, 9117, Note_off_c, 7, 79, 127
2, 9117, Note_off_c, 4, 64, 127
2, 9121, Note_on_c, 2, 62, 127
2, 9121, Note_on_c, 5, 77, 127
2, 9295, Note_off_c, 5, 77, 127
2, 9295, Note_off_c, 2, 62, 127
2, 9299, Note_on_c, 0, 60, 127
2, 9299, Note_on_c, 4, 76, 127
2, 9473, Note_off_c, 0, 60, 127
2, 9477, Note_on_c, 12, 59, 127
2, 9477, Note_on_c, 2, 74, 127
2, 9651, Note_off_c, 2, 74, 127
2, 9651, Note_off_c, 12, 59, 127
2, 9655, Note_on_c, 10, 57, 127
2, 9655, Note_on_c, 0, 72, 127
2, 9829, Note_off_c, 0, 72, 127
2, 9829, Note_off_c, 10, 57, 127
2, 9833, Note_on_c, 7, 55, 127
2, 9833, Note_on_c, 12, 71, 127
2, 10007, Note_off_c, 12, 71, 127
2, 10007, Note_off_c, 7, 55, 127
2, 10011, Note_on_c, 5, 53, 127
2, 10011, Note_on_c, 10, 69, 127
2, 10185, Note_off_c, 5, 53, 127
2, 10189, Note_on_c, 7, 55, 127
2, 10363, Note_off_c, 7, 55, 127
2, 10363, Note_off_c, 4, 76, 127
2, 10367, Note_on_c, 5, 53, 127
2, 10367, Note_on_c, 4, 76, 127
2, 10541, Note_off_c, 5, 53, 127
2, 10545, Note_on_c, 4, 52, 127
2, 10719, Note_off_c, 4, 52, 127
2, 10719, Note_off_c, 4, 76, 127
2, 10723, Note_on_c, 5, 53, 127
2, 10723, Note_on_c, 2, 74, 127
2, 10897, Note_off_c, 5, 53, 127
2, 10901, Note_on_c, 2, 50, 127
2, 11075, Note_off_c, 2, 50, 127
2, 11075, Note_off_c, 10, 69, 127
2, 11079, Note_on_c, 4, 52, 127
2, 11079, Note_on_c, 10, 69, 127
2, 11253, Note_off_c, 4, 52, 127
2, 11257, Note_on_c, 5, 53, 127
2, 11431, Note_off_c, 5, 53, 127
2, 11431, Note_off_c, 10, 69, 127
2, 11435, Note_on_c, 4, 52, 127
2, 11435, Note_on_c, 7, 67, 127
2, 11609, Note_off_c, 4, 52, 127
2, 11613, Note_on_c, 7, 43, 127
2, 11787, Note_off_c, 7, 43, 127
2, 11787, Note_off_c, 7, 67, 127
2, 11791, Note_on_c, 10, 45, 127
2, 11791, Note_on_c, 5, 65, 127
2, 11965, Note_off_c, 10, 45, 127
2, 11969, Note_on_c, 12, 47, 127
2, 12143, Note_off_c, 12, 47, 127
2, 12143, Note_off_c, 5, 65, 127
2, 12147, Note_on_c, 0, 48, 127
2, 12147, Note_on_c, 4, 64, 127
2, 12321, Note_off_c, 0, 48, 127
2, 12325, Note_on_c, 2, 50, 127
2, 12499, Note_off_c, 2, 50, 127
2, 12499, Note_off_c, 2, 74, 127
2, 12503, Note_on_c, 4, 52, 127
2, 12503, Note_on_c, 0, 72, 127
2, 12677, Note_off_c, 4, 52, 127
2, 12681, Note_on_c, 5, 53, 127
2, 12855, Note_off_c, 5, 53, 127
2, 12855, Note_off_c, 4, 64, 127
2, 12859, Note_on_c, 7, 55, 127
2, 12859, Note_on_c, 2, 62, 127
2, 13033, Note_off_c, 7, 55, 127
2, 13037, Note_on_c, 5, 53, 127
2, 13211, Note_off_c, 5, 53, 127
2, 13211, Note_off_c, 0, 72, 127
2, 13215, Note_on_c, 7, 55, 127
2, 13215, Note_on_c, 12, 71, 127
2, 13389, Note_off_c, 12, 71, 127
2, 13389, Note_off_c, 7, 55, 127
2, 13393, Note_on_c, 10, 57, 127
2, 13393, Note_on_c, 10, 69, 127
2, 13567, Note_off_c, 10, 69, 127
2, 13567, Note_off_c, 10, 57, 127
2, 13571, Note_on_c, 5, 53, 127
2, 13571, Note_on_c, 12, 71, 127
2, 13745, Note_off_c, 12, 71, 127
2, 13745, Note_off_c, 5, 53, 127
2, 13749, Note_on_c, 10, 57, 127
2, 13749, Note_on_c, 0, 72, 127
2, 13923, Note_off_c, 0, 72, 127
2, 13923, Note_off_c, 10, 57, 127
2, 13927, Note_on_c, 7, 55, 127
2, 13927, Note_on_c, 2, 74, 127
2, 14101, Note_off_c, 2, 74, 127
2, 14101, Note_off_c, 7, 55, 127
2, 14105, Note_on_c, 5, 53, 127
2, 14105, Note_on_c, 12, 71, 127
2, 14279, Note_off_c, 12, 71, 127
2, 14279, Note_off_c, 5, 53, 127
2, 14283, Note_on_c, 4, 52, 127
2, 14283, Note_on_c, 7, 67, 127
2, 14416, Note_off_c, 2, 62, 127
2, 14460, Note_on_c, 5, 65, 127
2, 14634, Note_off_c, 5, 65, 127
2, 14638, Note_on_c, 4, 64, 127
2, 14812, Note_off_c, 4, 64, 127
2, 14816, Note_on_c, 2, 62, 127
2, 14990, Note_off_c, 2, 62, 127
2, 14994, Note_on_c, 0, 60, 127
2, 15168, Note_off_c, 0, 60, 127
2, 15168, Note_off_c, 7, 67, 127
2, 15172, Note_on_c, 12, 59, 127
2, 15172, Note_on_c, 0, 72, 127
2, 15346, Note_off_c, 0, 72, 127
2, 15346, Note_off_c, 12, 59, 127
2, 15350, Note_on_c, 10, 57, 127
2, 15350, Note_on_c, 2, 74, 127
2, 15524, Note_off_c, 2, 74, 127
2, 15524, Note_off_c, 10, 57, 127
2, 15528, Note_on_c, 7, 55, 127
2, 15528, Note_on_c, 4, 76, 127
2, 15702, Note_off_c, 4, 76, 127
2, 15702, Note_off_c, 7, 55, 127
2, 15706, Note_on_c, 5, 53, 127
2, 15706, Note_on_c, 10, 69, 127
2, 15880, Note_off_c, 10, 69, 127
2, 15880, Note_off_c, 5, 53, 127
2, 15884, Note_on_c, 7, 55, 127
2, 15884, Note_on_c, 12, 71, 127
2, 16058, Note_off_c, 12, 71, 127
2, 16058, Note_off_c, 7, 55, 127
2, 16062, Note_on_c, 5, 53, 127
2, 16062, Note_on_c, 10, 69, 127
2, 16136, Note_off_c, 4, 52, 127
2, 16236, Note_off_c, 10, 69, 127
2, 16236, Note_off_c, 5, 53, 127
2, 16240, Note_on_c, 4, 52, 127
2, 16240, Note_on_c, 12, 71, 127
2, 16414, Note_off_c, 12, 71, 127
2, 16414, Note_off_c, 4, 52, 127
2, 16418, Note_on_c, 2, 50, 127
2, 16418, Note_on_c, 5, 53, 127
2, 16418, Note_on_c, 0, 72, 127
2, 16503, Note_off_c, 0, 72, 127
2, 16507, Note_on_c, 12, 71, 127
2, 16585, Note_off_c, 2, 50, 127
2, 16592, Note_off_c, 12, 71, 127
2, 16592, Note_off_c, 5, 53, 127
2, 16596, Note_on_c, 2, 50, 127
2, 16596, Note_on_c, 0, 72, 127
2, 16681, Note_off_c, 0, 72, 127
2, 16685, Note_on_c, 12, 71, 127
2, 16770, Note_off_c, 12, 71, 127
2, 16774, Note_on_c, 4, 52, 127
2, 16774, Note_on_c, 0, 72, 127
2, 16859, Note_off_c, 0, 72, 127
2, 16863, Note_on_c, 12, 71, 127
2, 16948, Note_off_c, 12, 71, 127
2, 16948, Note_off_c, 4, 52, 127
2, 16952, Note_on_c, 5, 53, 127
2, 16952, Note_on_c, 10, 69, 127
2, 17037, Note_off_c, 10, 69, 127
2, 17041, Note_on_c, 12, 71, 127
2, 17096, Note_off_c, 2, 50, 127
2, 17126, Note_off_c, 12, 71, 127
2, 17126, Note_off_c, 5, 53, 127
2, 17130, Note_on_c, 0, 48, 127
2, 17130, Note_on_c, 4, 52, 127
2, 17130, Note_on_c, 0, 72, 127
2, 17304, Note_off_c, 0, 48, 127
2, 17308, Note_on_c, 2, 50, 127
2, 17482, Note_off_c, 2, 50, 127
2, 17482, Note_off_c, 0, 72, 127
2, 17486, Note_on_c, 0, 48, 127
2, 17486, Note_on_c, 7, 67, 127
2, 17660, Note_off_c, 0, 48, 127
2, 17664, Note_on_c, 12, 47, 127
2, 17760, Note_off_c, 4, 52, 127
2, 17838, Note_off_c, 12, 47, 127
2, 17838, Note_off_c, 7, 67, 127
2, 17842, Note_on_c, 10, 45, 127
2, 17842, Note_on_c, 0, 72, 127
2, 17927, Note_off_c, 0, 72, 127
2, 17931, Note_on_c, 12, 71, 127
2, 18016, Note_off_c, 12, 71, 127
2, 18016, Note_off_c, 10, 45, 127
2, 18020, Note_on_c, 7, 43, 127
2, 18020, Note_on_c, 0, 72, 127
2, 18194, Note_off_c, 7, 43, 127
2, 18198, Note_on_c, 6, 42, 127
2, 18198, Note_on_c, 4, 64, 127
2, 18372, Note_off_c, 6, 42, 127
2, 18376, Note_on_c, 4, 40, 127
2, 18502, Note_off_c, 4, 64, 127
2, 18550, Note_off_c, 4, 40, 127
2, 18554, Note_on_c, 2, 38, 127
2, 18554, Note_on_c, 6, 66, 127
2, 18728, Note_off_c, 2, 38, 127
2, 18732, Note_on_c, 4, 52, 127
2, 18906, Note_off_c, 4, 52, 127
2, 18906, Note_off_c, 0, 72, 127
2, 18910, Note_on_c, 2, 50, 127
2, 18910, Note_on_c, 12, 71, 127
2, 19084, Note_off_c, 12, 71, 127
2, 19084, Note_off_c, 2, 50, 127
2, 19088, Note_on_c, 0, 48, 127
2, 19088, Note_on_c, 10, 69, 127
2, 19261, Note_off_c, 10, 69, 127
2, 19261, Note_off_c, 0, 48, 127
2, 19265, Note_on_c, 12, 47, 127
2, 19265, Note_on_c, 2, 74, 127
2, 19354, Note_off_c, 6, 66, 127
2, 19439, Note_off_c, 12, 47, 127
2, 19443, Note_on_c, 10, 45, 127
2, 19443, Note_on_c, 0, 72, 127
2, 19617, Note_off_c, 0, 72, 127
2, 19617, Note_off_c, 10, 45, 127
2, 19621, Note_on_c, 7, 43, 127
2, 19621, Note_on_c, 12, 71, 127
2, 19795, Note_off_c, 12, 71, 127
2, 19795, Note_off_c, 7, 43, 127
2, 19799, Note_on_c, 6, 42, 127
2, 19799, Note_on_c, 10, 69, 127
2, 19973, Note_off_c, 10, 69, 127
2, 19973, Note_off_c, 6, 42, 127
2, 19977, Note_on_c, 4, 40, 127
2, 19977, Note_on_c, 7, 67, 127
2, 20151, Note_off_c, 4, 40, 127
2, 20151, Note_off_c, 2, 74, 127
2, 20155, Note_on_c, 5, 53, 127
2, 20155, Note_on_c, 12, 71, 127
2, 20329, Note_off_c, 12, 71, 127
2, 20329, Note_off_c, 5, 53, 127
2, 20333, Note_on_c, 4, 52, 127
2, 20333, Note_on_c, 0, 72, 127
2, 20507, Note_off_c, 0, 72, 127
2, 20507, Note_off_c, 4, 52, 127
2, 20511, Note_on_c, 2, 50, 127
2, 20511, Note_on_c, 2, 74, 127
2, 20685, Note_off_c, 2, 74, 127
2, 20685, Note_off_c, 2, 50, 127
2, 20689, Note_on_c, 0, 48, 127
2, 20689, Note_on_c, 4, 76, 127
2, 20863, Note_off_c, 0, 48, 127
2, 20863, Note_off_c, 7, 67, 127
2, 20867, Note_on_c, 12, 47, 127
2, 20867, Note_on_c, 7, 67, 127
2, 21041, Note_off_c, 7, 67, 127
2, 21041, Note_off_c, 12, 47, 127
2, 21045, Note_on_c, 10, 45, 127
2, 21045, Note_on_c, 0, 72, 127
2, 21219, Note_off_c, 0, 72, 127
2, 21219, Note_off_c, 10, 45, 127
2, 21223, Note_on_c, 7, 43, 127
2, 21223, Note_on_c, 12, 71, 127
2, 21397, Note_off_c, 12, 71, 127
2, 21397, Note_off_c, 7, 43, 127
2, 21401, Note_on_c, 6, 42, 127
2, 21401, Note_on_c, 0, 72, 127
2, 21575, Note_off_c, 6, 42, 127
2, 21579, Note_on_c, 2, 38, 127
2, 21753, Note_off_c, 2, 38, 127
2, 21753, Note_off_c, 4, 76, 127
2, 21757, Note_on_c, 4, 40, 127
2, 21757, Note_on_c, 10, 81, 127
2, 21931, Note_off_c, 4, 40, 127
2, 21935, Note_on_c, 6, 42, 127
2, 22109, Note_off_c, 6, 42, 127
2, 22109, Note_off_c, 0, 72, 127
2, 22113, Note_on_c, 7, 43, 127
2, 22113, Note_on_c, 12, 71, 127
2, 22287, Note_off_c, 7, 43, 127
2, 22291, Note_on_c, 10, 45, 127
2, 22465, Note_off_c, 10, 45, 127
2, 22465, Note_off_c, 10, 81, 127
2, 22469, Note_on_c, 12, 47, 127
2, 22469, Note_on_c, 7, 79, 127
2, 22643, Note_off_c, 12, 47, 127
2, 22647, Note_on_c, 0, 48, 127
2, 22821, Note_off_c, 0, 48, 127
2, 22821, Note_off_c, 12, 71, 127
2, 22825, Note_on_c, 2, 50, 127
2, 22825, Note_on_c, 10, 69, 127
2, 22999, Note_off_c, 2, 50, 127
2, 23003, Note_on_c, 0, 48, 127
2, 23177, Note_off_c, 0, 48, 127
2, 23177, Note_off_c, 7, 79, 127
2, 23181, Note_on_c, 2, 50, 127
2, 23181, Note_on_c, 6, 78, 127
2, 23355, Note_off_c, 6, 78, 127
2, 23355, Note_off_c, 2, 50, 127
2, 23359, Note_on_c, 4, 52, 127
2, 23359, Note_on_c, 4, 76, 127
2, 23533, Note_off_c, 4, 76, 127
2, 23533, Note_off_c, 4, 52, 127
2, 23537, Note_on_c, 0, 48, 127
2, 23537, Note_on_c, 6, 78, 127
2, 23711, Note_off_c, 6, 78, 127
2, 23711, Note_off_c, 0, 48, 127
2, 23715, Note_on_c, 4, 52, 127
2, 23715, Note_on_c, 7, 79, 127
2, 23889, Note_off_c, 7, 79, 127
2, 23889, Note_off_c, 4, 52, 127
2, 23893, Note_on_c, 2, 50, 127
2, 23893, Note_on_c, 10, 81, 127
2, 24067, Note_off_c, 10, 81, 127
2, 24067, Note_off_c, 2, 50, 127
2, 24071, Note_on_c, 0, 48, 127
2, 24071, Note_on_c, 6, 78, 127
2, 24245, Note_off_c, 6, 78, 127
2, 24245, Note_off_c, 0, 48, 127
2, 24249, Note_on_c, 12, 47, 127
2, 24249, Note_on_c, 2, 74, 127
2, 24423, Note_off_c, 10, 69, 127
2, 24427, Note_on_c, 0, 72, 127
2, 24601, Note_off_c, 0, 72, 127
2, 24605, Note_on_c, 12, 71, 127
2, 24779, Note_off_c, 12, 71, 127
2, 24783, Note_on_c, 10, 69, 127
2, 24934, Note_off_c, 12, 47, 127
2, 24956, Note_off_c, 10, 69, 127
2, 24960, Note_on_c, 12, 59, 127
2, 24960, Note_on_c, 7, 67, 127
2, 25134, Note_off_c, 7, 67, 127
2, 25134, Note_off_c, 2, 74, 127
2, 25138, Note_on_c, 6, 66, 127
2, 25138, Note_on_c, 7, 79, 127
2, 25312, Note_off_c, 7, 79, 127
2, 25312, Note_off_c, 6, 66, 127
2, 25316, Note_on_c, 4, 64, 127
2, 25316, Note_on_c, 10, 81, 127
2, 25490, Note_off_c, 10, 81, 127
2, 25490, Note_off_c, 4, 64, 127
2, 25494, Note_on_c, 2, 62, 127
2, 25494, Note_on_c, 12, 83, 127
2, 25668, Note_off_c, 12, 83, 127
2, 25668, Note_off_c, 2, 62, 127
2, 25672, Note_on_c, 0, 60, 127
2, 25672, Note_on_c, 4, 76, 127
2, 25846, Note_off_c, 4, 76, 127
2, 25846, Note_off_c, 0, 60, 127
2, 25850, Note_on_c, 2, 62, 127
2, 25850, Note_on_c, 6, 78, 127
2, 26024, Note_off_c, 6, 78, 127
2, 26024, Note_off_c, 2, 62, 127
2, 26028, Note_on_c, 0, 60, 127
2, 26028, Note_on_c, 4, 76, 127
2, 26183, Note_off_c, 12, 59, 127
2, 26201, Note_off_c, 4, 76, 127
2, 26201, Note_off_c, 0, 60, 127
2, 26205, Note_on_c, 12, 59, 127
2, 26205, Note_on_c, 6, 78, 127
2, 26379, Note_off_c, 6, 78, 127
2, 26379, Note_off_c, 12, 59, 127
2, 26383, Note_on_c, 10, 57, 127
2, 26383, Note_on_c, 0, 60, 127
2, 26383, Note_on_c, 7, 79, 127
2, 26468, Note_off_c, 7, 79, 127
2, 26472, Note_on_c, 6, 78, 127
2, 26550, Note_off_c, 10, 57, 127
2, 26557, Note_off_c, 6, 78, 127
2, 26557, Note_off_c, 0, 60, 127
2, 26561, Note_on_c, 10, 57, 127
2, 26561, Note_on_c, 7, 79, 127
2, 26646, Note_off_c, 7, 79, 127
2, 26650, Note_on_c, 6, 78, 127
2, 26735, Note_off_c, 6, 78, 127
2, 26739, Note_on_c, 12, 59, 127
2, 26739, Note_on_c, 7, 79, 127
2, 26824, Note_off_c, 7, 79, 127
2, 26828, Note_on_c, 6, 78, 127
2, 26913, Note_off_c, 6, 78, 127
2, 26913, Note_off_c, 12, 59, 127
2, 26917, Note_on_c, 0, 60, 127
2, 26917, Note_on_c, 4, 76, 127
2, 27002, Note_off_c, 4, 76, 127
2, 27006, Note_on_c, 6, 78, 127
2, 27061, Note_off_c, 10, 57, 127
2, 27091, Note_off_c, 6, 78, 127
2, 27091, Note_off_c, 0, 60, 127
2, 27095, Note_on_c, 4, 52, 127
2, 27095, Note_on_c, 12, 59, 127
2, 27095, Note_on_c, 7, 79, 127
2, 27269, Note_off_c, 7, 79, 127
2, 27273, Note_on_c, 10, 81, 127
2, 27447, Note_off_c, 10, 81, 127
2, 27447, Note_off_c, 4, 52, 127
2, 27451, Note_on_c, 2, 50, 127
2, 27451, Note_on_c, 7, 79, 127
2, 27625, Note_off_c, 7, 79, 127
2, 27629, Note_on_c, 6, 78, 127
2, 27803, Note_off_c, 6, 78, 127
2, 27803, Note_off_c, 2, 50, 127
2, 27807, Note_on_c, 0, 48, 127
2, 27807, Note_on_c, 4, 76, 127
2, 27981, Note_off_c, 4, 76, 127
2, 27981, Note_off_c, 12, 59, 127
2, 27985, Note_on_c, 12, 59, 127
2, 27985, Note_on_c, 2, 74, 127
2, 28159, Note_off_c, 2, 74, 127
2, 28159, Note_off_c, 12, 59, 127
2, 28163, Note_on_c, 10, 57, 127
2, 28163, Note_on_c, 0, 72, 127
2, 28337, Note_off_c, 0, 72, 127
2, 28337, Note_off_c, 10, 57, 127
2, 28341, Note_on_c, 7, 55, 127
2, 28341, Note_on_c, 12, 71, 127
2, 28515, Note_off_c, 12, 71, 127
2, 28515, Note_off_c, 7, 55, 127
2, 28515, Note_off_c, 0, 48, 127
2, 28519, Note_on_c, 2, 50, 127
2, 28519, Note_on_c, 6, 54, 127
2, 28519, Note_on_c, 10, 69, 127
2, 28693, Note_off_c, 10, 69, 127
2, 28693, Note_off_c, 2, 50, 127
2, 28697, Note_on_c, 7, 55, 127
2, 28697, Note_on_c, 12, 71, 127
2, 28852, Note_off_c, 6, 54, 127
2, 28870, Note_off_c, 12, 71, 127
2, 28870, Note_off_c, 7, 55, 127
2, 28874, Note_on_c, 6, 54, 127
2, 28874, Note_on_c, 10, 69, 127
2, 29048, Note_off_c, 10, 69, 127
2, 29048, Note_off_c, 6, 54, 127
2, 29052, Note_on_c, 4, 52, 127
2, 29052, Note_on_c, 7, 67, 127
2, 29226, Note_off_c, 7, 67, 127
2, 29226, Note_off_c, 4, 52, 127
2, 29230, Note_on_c, 2, 50, 127
2, 29230, Note_on_c, 10, 69, 127
2, 29404, Note_off_c, 10, 69, 127
2, 29404, Note_off_c, 2, 50, 127
2, 29408, Note_on_c, 0, 48, 127
2, 29408, Note_on_c, 6, 66, 127
2, 29582, Note_off_c, 6, 66, 127
2, 29582, Note_off_c, 0, 48, 127
2, 29586, Note_on_c, 12, 47, 127
2, 29586, Note_on_c, 7, 67, 127
2, 29760, Note_off_c, 7, 67, 127
2, 29760, Note_off_c, 12, 47, 127
2, 29764, Note_on_c, 10, 45, 127
2, 29764, Note_on_c, 10, 69, 127
2, 29938, Note_off_c, 10, 69, 127
2, 29938, Note_off_c, 10, 45, 127
2, 29942, Note_on_c, 7, 43, 127
2, 29942, Note_on_c, 12, 71, 127
2, 30116, Note_off_c, 7, 43, 127
2, 30120, Note_on_c, 10, 45, 127
2, 30120, Note_on_c, 2, 62, 127
2, 30294, Note_off_c, 2, 62, 127
2, 30294, Note_off_c, 10, 45, 127
2, 30298, Note_on_c, 7, 43, 127
2, 30298, Note_on_c, 4, 64, 127
2, 30472, Note_off_c, 4, 64, 127
2, 30472, Note_off_c, 7, 43, 127
2, 30476, Note_on_c, 5, 41, 127
2, 30476, Note_on_c, 5, 65, 127
2, 30650, Note_off_c, 5, 65, 127
2, 30650, Note_off_c, 5, 41, 127
2, 30654, Note_on_c, 7, 43, 127
2, 30654, Note_on_c, 4, 64, 127
2, 30828, Note_off_c, 7, 43, 127
2, 30828, Note_off_c, 12, 71, 127
2, 30832, Note_on_c, 4, 40, 127
2, 30832, Note_on_c, 7, 67, 127
2, 31006, Note_off_c, 7, 67, 127
2, 31006, Note_off_c, 4, 40, 127
2, 31010, Note_on_c, 5, 41, 127
2, 31010, Note_on_c, 10, 69, 127
2, 31184, Note_off_c, 10, 69, 127
2, 31184, Note_off_c, 5, 41, 127
2, 31188, Note_on_c, 7, 43, 127
2, 31188, Note_on_c, 11, 70, 127
2, 31362, Note_off_c, 11, 70, 127
2, 31362, Note_off_c, 7, 43, 127
2, 31366, Note_on_c, 1, 37, 127
2, 31366, Note_on_c, 10, 69, 127
2, 31497, Note_off_c, 4, 64, 127
2, 31539, Note_off_c, 10, 69, 127
2, 31543, Note_on_c, 4, 64, 127
2, 31717, Note_off_c, 4, 64, 127
2, 31717, Note_off_c, 1, 37, 127
2, 31721, Note_on_c, 2, 50, 127
2, 31721, Note_on_c, 5, 65, 127
2, 31895, Note_off_c, 5, 65, 127
2, 31899, Note_on_c, 7, 67, 127
2, 32073, Note_off_c, 7, 67, 127
2, 32073, Note_off_c, 2, 50, 127
2, 32077, Note_on_c, 1, 49, 127
2, 32077, Note_on_c, 10, 69, 127
2, 32251, Note_off_c, 10, 69, 127
2, 32255, Note_on_c, 12, 71, 127
2, 32429, Note_off_c, 12, 71, 127
2, 32429, Note_off_c, 1, 49, 127
2, 32433, Note_on_c, 12, 47, 127
2, 32433, Note_on_c, 1, 73, 127
2, 32607, Note_off_c, 1, 73, 127
2, 32611, Note_on_c, 2, 74, 127
2, 32785, Note_off_c, 2, 74, 127
2, 32785, Note_off_c, 12, 47, 127
2, 32789, Note_on_c, 10, 45, 127
2, 32789, Note_on_c, 4, 76, 127
2, 32963, Note_off_c, 4, 76, 127
2, 32967, Note_on_c, 2, 74, 127
2, 33141, Note_off_c, 2, 74, 127
2, 33141, Note_off_c, 10, 45, 127
2, 33145, Note_on_c, 7, 55, 127
2, 33145, Note_on_c, 10, 57, 127
2, 33145, Note_on_c, 4, 76, 127
2, 33319, Note_off_c, 4, 76, 127
2, 33323, Note_on_c, 5, 77, 127
2, 33497, Note_off_c, 5, 77, 127
2, 33497, Note_off_c, 10, 57, 127
2, 33497, Note_off_c, 7, 55, 127
2, 33501, Note_on_c, 5, 53, 127
2, 33501, Note_on_c, 12, 59, 127
2, 33501, Note_on_c, 4, 76, 127
2, 33675, Note_off_c, 4, 76, 127
2, 33679, Note_on_c, 11, 82, 127
2, 33853, Note_off_c, 11, 82, 127
2, 33853, Note_off_c, 12, 59, 127
2, 33853, Note_off_c, 5, 53, 127
2, 33857, Note_on_c, 4, 52, 127
2, 33857, Note_on_c, 1, 61, 127
2, 33857, Note_on_c, 10, 81, 127
2, 34031, Note_off_c, 10, 81, 127
2, 34035, Note_on_c, 7, 79, 127
2, 34209, Note_off_c, 7, 79, 127
2, 34209, Note_off_c, 1, 61, 127
2, 34209, Note_off_c, 4, 52, 127
2, 34213, Note_on_c, 2, 50, 127
2, 34213, Note_on_c, 2, 62, 127
2, 34213, Note_on_c, 5, 77, 127
2, 34387, Note_off_c, 5, 77, 127
2, 34387, Note_off_c, 2, 62, 127
2, 34391, Note_on_c, 2, 62, 127
2, 34391, Note_on_c, 7, 79, 127
2, 34565, Note_off_c, 7, 79, 127
2, 34565, Note_off_c, 2, 62, 127
2, 34565, Note_off_c, 2, 50, 127
2, 34569, Note_on_c, 4, 64, 127
2, 34569, Note_on_c, 5, 77, 127
2, 34743, Note_off_c, 5, 77, 127
2, 34743, Note_off_c, 4, 64, 127
2, 34747, Note_on_c, 5, 65, 127
2, 34747, Note_on_c, 4, 76, 127
2, 34921, Note_off_c, 4, 76, 127
2, 34921, Note_off_c, 5, 65, 127
2, 34925, Note_on_c, 7, 67, 127
2, 34925, Note_on_c, 2, 74, 127
2, 35099, Note_off_c, 2, 74, 127
2, 35099, Note_off_c, 7, 67, 127
2, 35103, Note_on_c, 10, 69, 127
2, 35103, Note_on_c, 1, 73, 127
2, 35277, Note_off_c, 1, 73, 127
2, 35277, Note_off_c, 10, 69, 127
2, 35281, Note_on_c, 12, 71, 127
2, 35281, Note_on_c, 2, 74, 127
2, 35455, Note_off_c, 2, 74, 127
2, 35455, Note_off_c, 12, 71, 127
2, 35459, Note_on_c, 1, 73, 127
2, 35459, Note_on_c, 4, 76, 127
2, 35633, Note_off_c, 4, 76, 127
2, 35633, Note_off_c, 1, 73, 127
2, 35637, Note_on_c, 2, 74, 127
2, 35637, Note_on_c, 5, 77, 127
2, 35811, Note_off_c, 2, 74, 127
2, 35815, Note_on_c, 7, 67, 127
2, 35815, Note_on_c, 1, 73, 127
2, 35989, Note_off_c, 1, 73, 127
2, 35989, Note_off_c, 7, 67, 127
2, 35993, Note_on_c, 5, 65, 127
2, 35993, Note_on_c, 2, 74, 127
2, 36167, Note_off_c, 2, 74, 127
2, 36167, Note_off_c, 5, 65, 127
2, 36171, Note_on_c, 4, 64, 127
2, 36171, Note_on_c, 4, 76, 127
2, 36345, Note_off_c, 4, 76, 127
2, 36345, Note_off_c, 4, 64, 127
2, 36345, Note_off_c, 5, 77, 127
2, 36349, Note_on_c, 2, 62, 127
2, 36349, Note_on_c, 0, 72, 127
2, 36349, Note_on_c, 6, 78, 127
2, 36523, Note_off_c, 0, 72, 127
2, 36523, Note_off_c, 2, 62, 127
2, 36527, Note_on_c, 0, 60, 127
2, 36527, Note_on_c, 3, 75, 127
2, 36701, Note_off_c, 3, 75, 127
2, 36701, Note_off_c, 0, 60, 127
2, 36705, Note_on_c, 11, 58, 127
2, 36705, Note_on_c, 2, 74, 127
2, 36879, Note_off_c, 2, 74, 127
2, 36879, Note_off_c, 11, 58, 127
2, 36883, Note_on_c, 10, 57, 127
2, 36883, Note_on_c, 0, 72, 127
2, 37057, Note_off_c, 0, 72, 127
2, 37057, Note_off_c, 10, 57, 127
2, 37057, Note_off_c, 6, 78, 127
2, 37061, Note_on_c, 7, 55, 127
2, 37061, Note_on_c, 11, 70, 127
2, 37061, Note_on_c, 7, 79, 127
2, 37235, Note_off_c, 11, 70, 127
2, 37235, Note_off_c, 7, 55, 127
2, 37239, Note_on_c, 0, 48, 127
2, 37239, Note_on_c, 10, 69, 127
2, 37413, Note_off_c, 10, 69, 127
2, 37413, Note_off_c, 0, 48, 127
2, 37417, Note_on_c, 2, 50, 127
2, 37417, Note_on_c, 11, 70, 127
2, 37591, Note_off_c, 11, 70, 127
2, 37591, Note_off_c, 2, 50, 127
2, 37595, Note_on_c, 4, 52, 127
2, 37595, Note_on_c, 0, 72, 127
2, 37769, Note_off_c, 0, 72, 127
2, 37769, Note_off_c, 4, 52, 127
2, 37769, Note_off_c, 7, 79, 127
2, 37773, Note_on_c, 5, 53, 127
2, 37773, Note_on_c, 10, 69, 127
2, 37773, Note_on_c, 5, 77, 127
2, 37947, Note_off_c, 10, 69, 127
2, 37947, Note_off_c, 5, 53, 127
2, 37951, Note_on_c, 7, 55, 127
2, 37951, Note_on_c, 0, 72, 127
2, 38125, Note_off_c, 0, 72, 127
2, 38125, Note_off_c, 7, 55, 127
2, 38129, Note_on_c, 10, 57, 127
2, 38129, Note_on_c, 11, 70, 127
2, 38303, Note_off_c, 11, 70, 127
2, 38303, Note_off_c, 10, 57, 127
2, 38307, Note_on_c, 11, 58, 127
2, 38307, Note_on_c, 10, 69, 127
2, 38481, Note_off_c, 10, 69, 127
2, 38481, Note_off_c, 11, 58, 127
2, 38485, Note_on_c, 0, 60, 127
2, 38485, Note_on_c, 7, 67, 127
2, 38659, Note_off_c, 0, 60, 127
2, 38663, Note_on_c, 11, 58, 127
2, 38837, Note_off_c, 11, 58, 127
2, 38837, Note_off_c, 5, 77, 127
2, 38841, Note_on_c, 0, 60, 127
2, 38841, Note_on_c, 5, 77, 127
2, 38926, Note_off_c, 5, 77, 127
2, 38930, Note_on_c, 4, 76, 127
2, 39015, Note_off_c, 4, 76, 127
2, 39015, Note_off_c, 0, 60, 127
2, 39019, Note_on_c, 2, 62, 127
2, 39019, Note_on_c, 2, 74, 127
2, 39193, Note_off_c, 2, 74, 127
2, 39193, Note_off_c, 2, 62, 127
2, 39197, Note_on_c, 11, 58, 127
2, 39197, Note_on_c, 4, 76, 127
2, 39371, Note_off_c, 11, 58, 127
2, 39375, Note_on_c, 2, 62, 127
2, 39549, Note_off_c, 2, 62, 127
2, 39549, Note_off_c, 7, 67, 127
2, 39553, Note_on_c, 0, 60, 127
2, 39553, Note_on_c, 7, 67, 127
2, 39727, Note_off_c, 0, 60, 127
2, 39731, Note_on_c, 11, 58, 127
2, 39905, Note_off_c, 11, 58, 127
2, 39905, Note_off_c, 7, 67, 127
2, 39909, Note_on_c, 10, 57, 127
2, 39909, Note_on_c, 5, 65, 127
2, 40083, Note_off_c, 10, 57, 127
2, 40087, Note_on_c, 7, 55, 127
2, 40261, Note_off_c, 7, 55, 127
2, 40261, Note_off_c, 4, 76, 127
2, 40265, Note_on_c, 10, 57, 127
2, 40265, Note_on_c, 2, 74, 127
2, 40439, Note_off_c, 10, 57, 127
2, 40443, Note_on_c, 12, 59, 127
2, 40617, Note_off_c, 12, 59, 127
2, 40617, Note_off_c, 5, 65, 127
2, 40621, Note_on_c, 0, 60, 127
2, 40621, Note_on_c, 4, 64, 127
2, 40795, Note_off_c, 0, 60, 127
2, 40799, Note_on_c, 2, 62, 127
2, 40954, Note_off_c, 4, 64, 127
2, 40972, Note_off_c, 2, 62, 127
2, 40972, Note_off_c, 2, 74, 127
2, 40976, Note_on_c, 4, 64, 127
2, 40976, Note_on_c, 0, 72, 127
2, 41150, Note_off_c, 4, 64, 127
2, 41154, Note_on_c, 5, 65, 127
2, 41328, Note_off_c, 5, 65, 127
2, 41332, Note_on_c, 7, 67, 127
2, 41506, Note_off_c, 7, 67, 127
2, 41510, Note_on_c, 5, 65, 127
2, 41684, Note_off_c, 5, 65, 127
2, 41684, Note_off_c, 0, 72, 127
2, 41688, Note_on_c, 7, 67, 127
2, 41688, Note_on_c, 0, 72, 127
2, 41773, Note_off_c, 0, 72, 127
2, 41777, Note_on_c, 12, 71, 127
2, 41866, Note_on_c, 10, 69, 127
2, 41871, Note_off_c, 12, 71, 127
2, 41968, Note_off_c, 7, 67, 127
2, 42040, Note_off_c, 10, 69, 127
2, 42044, Note_on_c, 5, 65, 127
2, 42044, Note_on_c, 12, 71, 127
2, 42218, Note_off_c, 5, 65, 127
2, 42222, Note_on_c, 10, 69, 127
2, 42396, Note_off_c, 10, 69, 127
2, 42396, Note_off_c, 12, 71, 127
2, 42400, Note_on_c, 7, 67, 127
2, 42400, Note_on_c, 2, 74, 127
2, 42574, Note_off_c, 7, 67, 127
2, 42578, Note_on_c, 5, 65, 127
2, 42680, Note_off_c, 2, 74, 127
2, 42752, Note_off_c, 5, 65, 127
2, 42756, Note_on_c, 4, 64, 127
2, 42756, Note_on_c, 7, 79, 127
2, 42933, Note_on_c, 5, 65, 127
2, 43107, Note_off_c, 5, 65, 127
2, 43111, Note_on_c, 7, 67, 127
2, 43285, Note_off_c, 7, 67, 127
2, 43289, Note_on_c, 10, 69, 127
2, 43459, Note_off_c, 4, 64, 127
2, 43463, Note_off_c, 10, 69, 127
2, 43467, Note_on_c, 12, 71, 127
2, 43641, Note_off_c, 12, 71, 127
2, 43641, Note_off_c, 7, 79, 127
2, 43645, Note_on_c, 0, 72, 127
2, 43645, Note_on_c, 10, 81, 127
2, 43819, Note_off_c, 10, 81, 127
2, 43819, Note_off_c, 0, 72, 127
2, 43823, Note_on_c, 2, 74, 127
2, 43823, Note_on_c, 5, 77, 127
2, 43997, Note_off_c, 5, 77, 127
2, 43997, Note_off_c, 2, 74, 127
2, 44001, Note_on_c, 4, 76, 127
2, 44001, Note_on_c, 7, 79, 127
2, 44175, Note_off_c, 7, 79, 127
2, 44175, Note_off_c, 4, 76, 127
2, 44179, Note_on_c, 5, 77, 127
2, 44179, Note_on_c, 10, 81, 127
2, 44353, Note_off_c, 5, 77, 127
2, 44357, Note_on_c, 0, 72, 127
2, 44357, Note_on_c, 4, 76, 127
2, 44531, Note_off_c, 4, 76, 127
2, 44531, Note_off_c, 0, 72, 127
2, 44535, Note_on_c, 12, 71, 127
2, 44535, Note_on_c, 5, 77, 127
2, 44709, Note_off_c, 5, 77, 127
2, 44709, Note_off_c, 12, 71, 127
2, 44713, Note_on_c, 10, 69, 127
2, 44713, Note_on_c, 7, 79, 127
2, 44887, Note_off_c, 7, 79, 127
2, 44887, Note_off_c, 10, 69, 127
2, 44887, Note_off_c, 10, 81, 127
2, 44891, Note_on_c, 7, 67, 127
2, 44891, Note_on_c, 5, 77, 127
2, 44891, Note_on_c, 12, 83, 127
2, 45065, Note_off_c, 5, 77, 127
2, 45065, Note_off_c, 7, 67, 127
2, 45069, Note_on_c, 5, 65, 127
2, 45069, Note_on_c, 10, 81, 127
2, 45243, Note_off_c, 10, 81, 127
2, 45243, Note_off_c, 5, 65, 127
2, 45247, Note_on_c, 4, 64, 127
2, 45247, Note_on_c, 7, 79, 127
2, 45421, Note_off_c, 7, 79, 127
2, 45421, Note_off_c, 4, 64, 127
2, 45425, Note_on_c, 2, 62, 127
2, 45425, Note_on_c, 5, 77, 127
2, 45585, Note_off_c, 2, 62, 127
2, 45599, Note_off_c, 5, 77, 127
2, 45599, Note_off_c, 12, 83, 127
2, 45603, Note_on_c, 0, 60, 127
2, 45603, Note_on_c, 4, 76, 127
2, 45603, Note_on_c, 0, 84, 127
2, 45777, Note_off_c, 0, 60, 127
2, 45781, Note_on_c, 2, 62, 127
2, 45955, Note_off_c, 2, 62, 127
2, 45955, Note_off_c, 4, 76, 127
2, 45959, Note_on_c, 0, 60, 127
2, 45959, Note_on_c, 10, 81, 127
2, 46133, Note_off_c, 0, 60, 127
2, 46137, Note_on_c, 11, 58, 127
2, 46311, Note_off_c, 11, 58, 127
2, 46311, Note_off_c, 0, 84, 127
2, 46315, Note_on_c, 0, 60, 127
2, 46315, Note_on_c, 11, 82, 127
2, 46489, Note_off_c, 0, 60, 127
2, 46493, Note_on_c, 10, 57, 127
2, 46667, Note_off_c, 10, 57, 127
2, 46667, Note_off_c, 10, 81, 127
2, 46671, Note_on_c, 11, 58, 127
2, 46671, Note_on_c, 7, 79, 127
2, 46831, Note_off_c, 11, 58, 127
2, 46849, Note_on_c, 0, 60, 127
2, 47023, Note_off_c, 0, 60, 127
2, 47023, Note_off_c, 11, 82, 127
2, 47027, Note_on_c, 5, 53, 127
2, 47027, Note_on_c, 10, 81, 127
2, 47201, Note_off_c, 5, 53, 127
2, 47201, Note_off_c, 7, 79, 127
2, 47205, Note_on_c, 7, 55, 127
2, 47205, Note_on_c, 0, 72, 127
2, 47379, Note_off_c, 0, 72, 127
2, 47379, Note_off_c, 7, 55, 127
2, 47383, Note_on_c, 5, 53, 127
2, 47383, Note_on_c, 2, 74, 127
2, 47557, Note_off_c, 2, 74, 127
2, 47557, Note_off_c, 5, 53, 127
2, 47561, Note_on_c, 4, 52, 127
2, 47561, Note_on_c, 4, 76, 127
2, 47731, Note_off_c, 10, 81, 127
2, 47735, Note_off_c, 4, 76, 127
2, 47735, Note_off_c, 4, 52, 127
2, 47739, Note_on_c, 2, 50, 127
2, 47739, Note_on_c, 5, 77, 127
2, 47913, Note_off_c, 2, 50, 127
2, 47917, Note_on_c, 0, 48, 127
2, 47917, Note_on_c, 4, 76, 127
2, 48091, Note_off_c, 4, 76, 127
2, 48091, Note_off_c, 0, 48, 127
2, 48095, Note_on_c, 12, 47, 127
2, 48095, Note_on_c, 2, 74, 127
2, 48269, Note_off_c, 2, 74, 127
2, 48269, Note_off_c, 12, 47, 127
2, 48273, Note_on_c, 10, 45, 127
2, 48273, Note_on_c, 0, 72, 127
2, 48447, Note_off_c, 0, 72, 127
2, 48447, Note_off_c, 10, 45, 127
2, 48451, Note_on_c, 7, 43, 127
2, 48451, Note_on_c, 12, 71, 127
2, 48625, Note_off_c, 12, 71, 127
2, 48625, Note_off_c, 7, 43, 127
2, 48629, Note_on_c, 10, 57, 127
2, 48629, Note_on_c, 2, 74, 127
2, 48803, Note_off_c, 2, 74, 127
2, 48803, Note_off_c, 10, 57, 127
2, 48807, Note_on_c, 7, 55, 127
2, 48807, Note_on_c, 4, 76, 127
2, 48962, Note_off_c, 5, 77, 127
2, 48980, Note_off_c, 4, 76, 127
2, 48980, Note_off_c, 7, 55, 127
2, 48984, Note_on_c, 5, 53, 127
2, 48984, Note_on_c, 5, 77, 127
2, 49158, Note_off_c, 5, 77, 127
2, 49158, Note_off_c, 5, 53, 127
2, 49162, Note_on_c, 4, 52, 127
2, 49162, Note_on_c, 7, 79, 127
2, 49336, Note_off_c, 4, 52, 127
2, 49340, Note_on_c, 2, 50, 127
2, 49340, Note_on_c, 5, 77, 127
2, 49514, Note_off_c, 5, 77, 127
2, 49514, Note_off_c, 2, 50, 127
2, 49518, Note_on_c, 0, 48, 127
2, 49518, Note_on_c, 4, 76, 127
2, 49692, Note_off_c, 4, 76, 127
2, 49692, Note_off_c, 0, 48, 127
2, 49696, Note_on_c, 11, 46, 127
2, 49696, Note_on_c, 2, 74, 127
2, 49870, Note_off_c, 2, 74, 127
2, 49870, Note_off_c, 11, 46, 127
2, 49874, Note_on_c, 10, 45, 127
2, 49874, Note_on_c, 0, 72, 127
2, 50048, Note_off_c, 0, 72, 127
2, 50048, Note_off_c, 10, 45, 127
2, 50052, Note_on_c, 11, 58, 127
2, 50052, Note_on_c, 2, 74, 127
2, 50226, Note_off_c, 2, 74, 127
2, 50226, Note_off_c, 11, 58, 127
2, 50230, Note_on_c, 10, 57, 127
2, 50230, Note_on_c, 0, 72, 127
2, 50404, Note_off_c, 0, 72, 127
2, 50404, Note_off_c, 10, 57, 127
2, 50408, Note_on_c, 7, 55, 127
2, 50408, Note_on_c, 11, 70, 127
2, 50582, Note_off_c, 11, 70, 127
2, 50582, Note_off_c, 7, 55, 127
2, 50586, Note_on_c, 5, 53, 127
2, 50586, Note_on_c, 10, 69, 127
2, 50760, Note_off_c, 5, 53, 127
2, 50760, Note_off_c, 7, 79, 127
2, 50764, Note_on_c, 4, 52, 127
2, 50764, Note_on_c, 0, 72, 127
2, 50938, Note_off_c, 0, 72, 127
2, 50938, Note_off_c, 4, 52, 127
2, 50942, Note_on_c, 2, 50, 127
2, 50942, Note_on_c, 5, 77, 127
2, 51116, Note_off_c, 5, 77, 127
2, 51116, Note_off_c, 2, 50, 127
2, 51120, Note_on_c, 0, 48, 127
2, 51120, Note_on_c, 4, 76, 127
2, 51280, Note_off_c, 0, 48, 127
2, 51294, Note_off_c, 4, 76, 127
2, 51298, Note_on_c, 12, 47, 127
2, 51298, Note_on_c, 5, 77, 127
2, 51472, Note_off_c, 12, 47, 127
2, 51476, Note_on_c, 7, 43, 127
2, 51650, Note_off_c, 7, 43, 127
2, 51650, Note_off_c, 10, 69, 127
2, 51654, Note_on_c, 10, 45, 127
2, 51654, Note_on_c, 2, 74, 127
2, 51828, Note_off_c, 10, 45, 127
2, 51832, Note_on_c, 12, 47, 127
2, 52006, Note_off_c, 12, 47, 127
2, 52006, Note_off_c, 5, 77, 127
2, 52010, Note_on_c, 0, 48, 127
2, 52010, Note_on_c, 4, 76, 127
2, 52184, Note_off_c, 0, 48, 127
2, 52188, Note_on_c, 2, 50, 127
2, 52362, Note_off_c, 2, 50, 127
2, 52362, Note_off_c, 2, 74, 127
2, 52366, Note_on_c, 4, 52, 127
2, 52366, Note_on_c, 0, 72, 127
2, 52540, Note_off_c, 4, 52, 127
2, 52544, Note_on_c, 5, 53, 127
2, 52718, Note_off_c, 5, 53, 127
2, 52718, Note_off_c, 4, 76, 127
2, 52722, Note_on_c, 7, 55, 127
2, 52722, Note_on_c, 2, 74, 127
2, 52896, Note_off_c, 7, 55, 127
2, 52900, Note_on_c, 5, 53, 127
2, 53074, Note_off_c, 5, 53, 127
2, 53074, Note_off_c, 0, 72, 127
2, 53078, Note_on_c, 7, 55, 127
2, 53078, Note_on_c, 12, 71, 127
2, 53252, Note_off_c, 12, 71, 127
2, 53252, Note_off_c, 7, 55, 127
2, 53256, Note_on_c, 10, 57, 127
2, 53256, Note_on_c, 10, 69, 127
2, 53430, Note_off_c, 10, 69, 127
2, 53430, Note_off_c, 10, 57, 127
2, 53434, Note_on_c, 5, 53, 127
2, 53434, Note_on_c, 12, 71, 127
2, 53608, Note_off_c, 12, 71, 127
2, 53608, Note_off_c, 5, 53, 127
2, 53612, Note_on_c, 10, 57, 127
2, 53612, Note_on_c, 0, 72, 127
2, 53776, Note_off_c, 2, 74, 127
2, 53785, Note_off_c, 0, 72, 127
2, 53785, Note_off_c, 10, 57, 127
2, 53789, Note_on_c, 7, 55, 127
2, 53789, Note_on_c, 2, 74, 127
2, 53963, Note_off_c, 7, 55, 127
2, 53967, Note_on_c, 5, 53, 127
2, 53967, Note_on_c, 12, 71, 127
2, 54141, Note_off_c, 12, 71, 127
2, 54141, Note_off_c, 5, 53, 127
2, 54141, Note_off_c, 2, 74, 127
2, 54145, Note_on_c, 4, 52, 127
2, 54145, Note_on_c, 7, 67, 127
2, 54325, Note_on_c, 5, 77, 127
2, 54501, Note_off_c, 5, 77, 127
2, 54501, Note_off_c, 4, 52, 127
2, 54505, Note_on_c, 5, 53, 127
2, 54505, Note_on_c, 4, 76, 127
2, 54681, Note_off_c, 4, 76, 127
2, 54681, Note_off_c, 5, 53, 127
2, 54685, Note_on_c, 7, 55, 127
2, 54685, Note_on_c, 2, 74, 127
2, 54857, Note_off_c, 7, 67, 127
2, 54861, Note_off_c, 2, 74, 127
2, 54861, Note_off_c, 7, 55, 127
2, 54865, Note_on_c, 10, 57, 127
2, 54865, Note_on_c, 0, 72, 127
2, 55045, Note_on_c, 11, 70, 127
2, 55221, Note_off_c, 11, 70, 127
2, 55221, Note_off_c, 10, 57, 127
2, 55225, Note_on_c, 0, 48, 127
2, 55225, Note_on_c, 10, 69, 127
2, 55401, Note_off_c, 10, 69, 127
2, 55405, Note_on_c, 7, 67, 127
2, 55581, Note_off_c, 7, 67, 127
2, 55581, Note_off_c, 0, 48, 127
2, 55585, Note_on_c, 2, 50, 127
2, 55585, Note_on_c, 5, 65, 127
2, 55764, Note_off_c, 5, 65, 127
2, 55768, Note_on_c, 7, 67, 127
2, 55947, Note_off_c, 7, 67, 127
2, 55947, Note_off_c, 2, 50, 127
2, 55951, Note_on_c, 4, 52, 127
2, 55951, Note_on_c, 5, 65, 127
2, 56130, Note_off_c, 5, 65, 127
2, 56130, Note_off_c, 4, 52, 127
2, 56134, Note_on_c, 5, 53, 127
2, 56134, Note_on_c, 4, 64, 127
2, 56295, Note_off_c, 0, 72, 127
2, 56313, Note_off_c, 4, 64, 127
2, 56313, Note_off_c, 5, 53, 127
2, 56317, Note_on_c, 7, 55, 127
2, 56317, Note_on_c, 5, 65, 127
2, 56317, Note_on_c, 12, 71, 127
2, 56508, Note_off_c, 5, 65, 127
2, 56512, Note_on_c, 2, 62, 127
2, 56703, Note_off_c, 2, 62, 127
2, 56707, Note_on_c, 7, 43, 127
2, 56707, Note_on_c, 4, 64, 127
2, 56918, Note_off_c, 7, 55, 127
2, 56932, Note_off_c, 4, 64, 127
2, 56937, Note_on_c, 5, 65, 127
2, 57163, Note_off_c, 5, 65, 127
2, 57163, Note_off_c, 12, 71, 127
2, 57175, Note_off_c, 7, 43, 127
2, 57184, Note_on_c, 0, 72, 127
2, 57184, Note_on_c, 4, 64, 127
2, 57184, Note_on_c, 0, 48, 127
2, 59344, Note_off_c, 0, 48, 127
2, 59344, Note_off_c, 4, 64, 127
2, 59344, Note_off_c, 0, 72, 127
2, 64493, End_track
3, 0, Start_track
3, 0, Title_t, "MIDI"
3, 1536, End_track
0, 0, End_of_file
