0, 0, Header, 1, 3, 384
1, 0, Start_track
1, 0, Tempo, 500000
1, 0, Time_signature, 4, 2, 24, 8
1, 79872, End_track
2, 0, Start_track
2, 0, Text_t, "harpsichord: John Sankey"
2, 0, Program_c, 0, 6
2, 0, Pitch_bend_c, 0, 8192
2, 0, Program_c, 1, 6
2, 0, Pitch_bend_c, 1, 7792
2, 0, Program_c, 2, 6
2, 0, Pitch_bend_c, 2, 7876
2, 0, Program_c, 3, 6
2, 0, Pitch_bend_c, 3, 7952
2, 0, Program_c, 4, 6
2, 0, Pitch_bend_c, 4, 7792
2, 0, Program_c, 5, 6
2, 0, Pitch_bend_c, 5, 8112
2, 0, Program_c, 6, 6
2, 0, Pitch_bend_c, 6, 7712
2, 0, Program_c, 7, 6
2, 0, Pitch_bend_c, 7, 8037
2, 0, Program_c, 8, 6
2, 0, Pitch_bend_c, 8, 7872
2, 0, Program_c, 10, 6
2, 0, Pitch_bend_c, 10, 7712
2, 0, Program_c, 11, 6
2, 0, Pitch_bend_c, 11, 8032
2, 0, Program_c, 12, 6
2, 0, Pitch_bend_c, 12, 7872
2, 0, Title_t, "Track 1"
2, 151, Note_on_c, 0, 72, 127
2, 324, Note_off_c, 0, 72, 127
2, 326, Note_on_c, 12, 71, 127
2, 499, Note_off_c, 12, 71, 127
2, 501, Note_on_c, 0, 72, 127
2, 674, Note_off_c, 0, 72, 127
2, 676, Note_on_c, 2, 74, 127
2, 849, Note_off_c, 2, 74, 127
2, 851, Note_on_c, 3, 75, 127
2, 1024, Note_off_c, 3, 75, 127
2, 1026, Note_on_c, 7, 67, 127
2, 1199, Note_off_c, 7, 67, 127
2, 1202, Note_on_c, 8, 68, 127
2, 1375, Note_off_c, 8, 68, 127
2, 1377, Note_on_c, 11, 70, 127
2, 1550, Note_off_c, 11, 70, 127
2, 1552, Note_on_c, 8, 68, 127
2, 1725, Note_off_c, 8, 68, 127
2, 1727, Note_on_c, 5, 65, 127
2, 1900, Note_off_c, 5, 65, 127
2, 1902, Note_on_c, 5, 77, 127
2, 2075, Note_off_c, 5, 77, 127
2, 2077, Note_on_c, 3, 75, 127
2, 2250, Note_off_c, 3, 75, 127
2, 2252, Note_on_c, 2, 74, 127
2, 2425, Note_off_c, 2, 74, 127
2, 2427, Note_on_c, 0, 72, 127
2, 2600, Note_off_c, 0, 72, 127
2, 2602, Note_on_c, 12, 71, 127
2, 2775, Note_off_c, 12, 71, 127
2, 2777, Note_on_c, 8, 80, 127
2, 2950, Note_off_c, 8, 80, 127
2, 2953, Note_on_c, 7, 79, 127
2, 3126, Note_off_c, 7, 79, 127
2, 3128, Note_on_c, 5, 77, 127
2, 3301, Note_off_c, 5, 77, 127
2, 3303, Note_on_c, 3, 75, 127
2, 3476, Note_off_c, 3, 75, 127
2, 3478, Note_on_c, 2, 74, 127
2, 3651, Note_off_c, 2, 74, 127
2, 3653, Note_on_c, 0, 72, 127
2, 3826, Note_off_c, 0, 72, 127
2, 3828, Note_on_c, 12, 71, 127
2, 4001, Note_off_c, 12, 71, 127
2, 4003, Note_on_c, 0, 72, 127
2, 4176, Note_off_c, 0, 72, 127
2, 4178, Note_on_c, 2, 74, 127
2, 4351, Note_off_c, 2, 74, 127
2, 4353, Note_on_c, 0, 72, 127
2, 4526, Note_off_c, 0, 72, 127
2, 4528, Note_on_c, 2, 74, 127
2, 4701, Note_off_c, 2, 74, 127
2, 4704, Note_on_c, 3, 75, 127
2, 4787, Note_off_c, 3, 75, 127
2, 4791, Note_on_c, 2, 74, 127
2, 4874, Note_off_c, 2, 74, 127
2, 4879, Note_on_c, 3, 75, 127
2, 4962, Note_off_c, 3, 75, 127
2, 4966, Note_on_c, 2, 74, 127
2, 5049, Note_off_c, 2, 74, 127
2, 5054, Note_on_c, 3, 75, 127
2, 5137, Note_off_c, 3, 75, 127
2, 5141, Note_on_c, 2, 74, 127
2, 5224, Note_off_c, 2, 74, 127
2, 5229, Note_on_c, 0, 72, 127
2, 5312, Note_off_c, 0, 72, 127
2, 5316, Note_on_c, 2, 74, 127
2, 5399, Note_off_c, 2, 74, 127
2, 5404, Note_on_c, 3, 75, 127
2, 5577, Note_off_c, 3, 75, 127
2, 5579, Note_on_c, 2, 74, 127
2, 5752, Note_off_c, 2, 74, 127
2, 5754, Note_on_c, 0, 60, 127
2, 5754, Note_on_c, 0, 72, 127
2, 5924, Note_off_c, 0, 60, 127
2, 5927, Note_off_c, 0, 72, 127
2, 5929, Note_on_c, 12, 59, 127
2, 5929, Note_on_c, 2, 74, 127
2, 6099, Note_off_c, 12, 59, 127
2, 6102, Note_off_c, 2, 74, 127
2, 6104, Note_on_c, 0, 60, 127
2, 6104, Note_on_c, 3, 75, 127
2, 6274, Note_off_c, 0, 60, 127
2, 6277, Note_off_c, 3, 75, 127
2, 6279, Note_on_c, 2, 62, 127
2, 6279, Note_on_c, 5, 77, 127
2, 6449, Note_off_c, 2, 62, 127
2, 6452, Note_off_c, 5, 77, 127
2, 6455, Note_on_c, 3, 63, 127
2, 6455, Note_on_c, 7, 79, 127
2, 6629, Note_on_c, 7, 55, 127
2, 6636, Note_off_c, 3, 63, 127
2, 6672, Note_off_c, 7, 79, 127
2, 6799, Note_off_c, 7, 55, 127
2, 6804, Note_on_c, 8, 56, 127
2, 6804, Note_on_c, 8, 80, 127
2, 6887, Note_off_c, 8, 80, 127
2, 6891, Note_on_c, 7, 79, 127
2, 6974, Note_off_c, 7, 79, 127
2, 6974, Note_off_c, 8, 56, 127
2, 6979, Note_on_c, 11, 58, 127
2, 6979, Note_on_c, 8, 80, 127
2, 7062, Note_off_c, 8, 80, 127
2, 7066, Note_on_c, 7, 79, 127
2, 7149, Note_off_c, 7, 79, 127
2, 7149, Note_off_c, 11, 58, 127
2, 7154, Note_on_c, 8, 56, 127
2, 7154, Note_on_c, 5, 77, 127
2, 7324, Note_off_c, 8, 56, 127
2, 7329, Note_on_c, 5, 53, 127
2, 7499, Note_off_c, 5, 53, 127
2, 7504, Note_on_c, 5, 65, 127
2, 7674, Note_off_c, 5, 65, 127
2, 7679, Note_on_c, 3, 63, 127
2, 7774, Note_off_c, 5, 77, 127
2, 7849, Note_off_c, 3, 63, 127
2, 7854, Note_on_c, 2, 62, 127
2, 7854, Note_on_c, 5, 77, 127
2, 8024, Note_off_c, 2, 62, 127
2, 8029, Note_on_c, 0, 60, 127
2, 8199, Note_off_c, 0, 60, 127
2, 8200, Note_off_c, 5, 77, 127
2, 8204, Note_on_c, 12, 59, 127
2, 8204, Note_on_c, 7, 79, 127
2, 8287, Note_off_c, 7, 79, 127
2, 8292, Note_on_c, 5, 77, 127
2, 8374, Note_off_c, 12, 59, 127
2, 8375, Note_off_c, 5, 77, 127
2, 8380, Note_on_c, 8, 68, 127
2, 8380, Note_on_c, 7, 79, 127
2, 8463, Note_off_c, 7, 79, 127
2, 8467, Note_on_c, 5, 77, 127
2, 8550, Note_off_c, 5, 77, 127
2, 8550, Note_off_c, 8, 68, 127
2, 8555, Note_on_c, 7, 67, 127
2, 8555, Note_on_c, 3, 75, 127
2, 8725, Note_off_c, 7, 67, 127
2, 8730, Note_on_c, 5, 65, 127
2, 8900, Note_off_c, 5, 65, 127
2, 8905, Note_on_c, 3, 63, 127
2, 9075, Note_off_c, 3, 63, 127
2, 9080, Note_on_c, 2, 62, 127
2, 9175, Note_off_c, 3, 75, 127
2, 9250, Note_off_c, 2, 62, 127
2, 9255, Note_on_c, 0, 60, 127
2, 9255, Note_on_c, 2, 74, 127
2, 9425, Note_off_c, 0, 60, 127
2, 9430, Note_on_c, 12, 59, 127
2, 9600, Note_off_c, 12, 59, 127
2, 9601, Note_off_c, 2, 74, 127
2, 9605, Note_on_c, 0, 60, 127
2, 9605, Note_on_c, 3, 75, 127
2, 9775, Note_off_c, 0, 60, 127
2, 9780, Note_on_c, 2, 62, 127
2, 9877, Note_off_c, 3, 75, 127
2, 9950, Note_off_c, 2, 62, 127
2, 9955, Note_on_c, 0, 60, 127
2, 9955, Note_on_c, 8, 68, 127
2, 10125, Note_off_c, 0, 60, 127
2, 10131, Note_on_c, 2, 62, 127
2, 10301, Note_off_c, 2, 62, 127
2, 10306, Note_on_c, 3, 63, 127
2, 10389, Note_off_c, 3, 63, 127
2, 10393, Note_on_c, 2, 62, 127
2, 10476, Note_off_c, 2, 62, 127
2, 10476, Note_off_c, 8, 68, 127
2, 10481, Note_on_c, 3, 63, 127
2, 10481, Note_on_c, 5, 65, 127
2, 10564, Note_off_c, 3, 63, 127
2, 10568, Note_on_c, 2, 62, 127
2, 10651, Note_off_c, 2, 62, 127
2, 10654, Note_off_c, 5, 65, 127
2, 10656, Note_on_c, 3, 63, 127
2, 10656, Note_on_c, 11, 70, 127
2, 10739, Note_off_c, 3, 63, 127
2, 10743, Note_on_c, 2, 62, 127
2, 10826, Note_off_c, 2, 62, 127
2, 10829, Note_off_c, 11, 70, 127
2, 10831, Note_on_c, 0, 60, 127
2, 10831, Note_on_c, 5, 65, 127
2, 10914, Note_off_c, 0, 60, 127
2, 10919, Note_on_c, 2, 62, 127
2, 11002, Note_off_c, 2, 62, 127
2, 11004, Note_off_c, 5, 65, 127
2, 11006, Note_on_c, 3, 63, 127
2, 11006, Note_on_c, 7, 67, 127
2, 11176, Note_off_c, 3, 63, 127
2, 11181, Note_on_c, 2, 62, 127
2, 11278, Note_off_c, 7, 67, 127
2, 11351, Note_off_c, 2, 62, 127
2, 11356, Note_on_c, 0, 60, 127
2, 11356, Note_on_c, 3, 75, 127
2, 11526, Note_off_c, 0, 60, 127
2, 11531, Note_on_c, 2, 62, 127
2, 11701, Note_off_c, 2, 62, 127
2, 11706, Note_on_c, 3, 63, 127
2, 11876, Note_off_c, 3, 63, 127
2, 11877, Note_off_c, 3, 75, 127
2, 11882, Note_on_c, 5, 65, 127
2, 11882, Note_on_c, 2, 74, 127
2, 12052, Note_off_c, 5, 65, 127
2, 12055, Note_off_c, 2, 74, 127
2, 12057, Note_on_c, 7, 67, 127
2, 12057, Note_on_c, 3, 75, 127
2, 12230, Note_off_c, 3, 75, 127
2, 12232, Note_on_c, 11, 70, 127
2, 12403, Note_off_c, 7, 67, 127
2, 12405, Note_off_c, 11, 70, 127
2, 12407, Note_on_c, 8, 68, 127
2, 12407, Note_on_c, 0, 72, 127
2, 12490, Note_off_c, 8, 68, 127
2, 12494, Note_on_c, 7, 67, 127
2, 12577, Note_off_c, 7, 67, 127
2, 12580, Note_off_c, 0, 72, 127
2, 12582, Note_on_c, 8, 68, 127
2, 12582, Note_on_c, 3, 75, 127
2, 12665, Note_off_c, 8, 68, 127
2, 12670, Note_on_c, 7, 67, 127
2, 12753, Note_off_c, 7, 67, 127
2, 12755, Note_off_c, 3, 75, 127
2, 12757, Note_on_c, 5, 65, 127
2, 12757, Note_on_c, 8, 80, 127
2, 12930, Note_off_c, 8, 80, 127
2, 12932, Note_on_c, 7, 79, 127
2, 13105, Note_off_c, 7, 79, 127
2, 13107, Note_on_c, 5, 77, 127
2, 13280, Note_off_c, 5, 77, 127
2, 13282, Note_on_c, 3, 75, 127
2, 13377, Note_off_c, 5, 65, 127
2, 13455, Note_off_c, 3, 75, 127
2, 13457, Note_on_c, 5, 65, 127
2, 13457, Note_on_c, 2, 74, 127
2, 13630, Note_off_c, 2, 74, 127
2, 13633, Note_on_c, 0, 72, 127
2, 13803, Note_off_c, 5, 65, 127
2, 13806, Note_off_c, 0, 72, 127
2, 13808, Note_on_c, 7, 67, 127
2, 13808, Note_on_c, 11, 70, 127
2, 13891, Note_off_c, 7, 67, 127
2, 13895, Note_on_c, 5, 65, 127
2, 13978, Note_off_c, 5, 65, 127
2, 13981, Note_off_c, 11, 70, 127
2, 13983, Note_on_c, 7, 67, 127
2, 13983, Note_on_c, 2, 74, 127
2, 14066, Note_off_c, 7, 67, 127
2, 14070, Note_on_c, 5, 65, 127
2, 14153, Note_off_c, 5, 65, 127
2, 14156, Note_off_c, 2, 74, 127
2, 14158, Note_on_c, 3, 63, 127
2, 14158, Note_on_c, 7, 79, 127
2, 14331, Note_off_c, 7, 79, 127
2, 14333, Note_on_c, 5, 77, 127
2, 14506, Note_off_c, 5, 77, 127
2, 14508, Note_on_c, 3, 75, 127
2, 14681, Note_off_c, 3, 75, 127
2, 14683, Note_on_c, 2, 74, 127
2, 14795, Note_off_c, 3, 63, 127
2, 14855, Note_off_c, 2, 74, 127
2, 14857, Note_on_c, 2, 62, 127
2, 14857, Note_on_c, 0, 72, 127
2, 15030, Note_off_c, 0, 72, 127
2, 15032, Note_on_c, 11, 70, 127
2, 15203, Note_off_c, 2, 62, 127
2, 15205, Note_off_c, 11, 70, 127
2, 15207, Note_on_c, 3, 63, 127
2, 15207, Note_on_c, 8, 68, 127
2, 15380, Note_off_c, 8, 68, 127
2, 15383, Note_on_c, 0, 72, 127
2, 15534, Note_off_c, 3, 63, 127
2, 15555, Note_off_c, 0, 72, 127
2, 15557, Note_on_c, 8, 56, 127
2, 15557, Note_on_c, 5, 77, 127
2, 15730, Note_off_c, 5, 77, 127
2, 15732, Note_on_c, 0, 72, 127
2, 15905, Note_off_c, 0, 72, 127
2, 15907, Note_on_c, 2, 74, 127
2, 15990, Note_off_c, 2, 74, 127
2, 15994, Note_on_c, 0, 72, 127
2, 16077, Note_off_c, 0, 72, 127
2, 16078, Note_off_c, 8, 56, 127
2, 16082, Note_on_c, 5, 53, 127
2, 16082, Note_on_c, 2, 74, 127
2, 16252, Note_off_c, 5, 53, 127
2, 16257, Note_on_c, 11, 58, 127
2, 16427, Note_off_c, 11, 58, 127
2, 16428, Note_off_c, 2, 74, 127
2, 16432, Note_on_c, 5, 53, 127
2, 16432, Note_on_c, 2, 74, 127
2, 16602, Note_off_c, 5, 53, 127
2, 16605, Note_off_c, 2, 74, 127
2, 16607, Note_on_c, 7, 55, 127
2, 16607, Note_on_c, 3, 75, 127
2, 16780, Note_off_c, 3, 75, 127
2, 16782, Note_on_c, 11, 70, 127
2, 16953, Note_off_c, 7, 55, 127
2, 16955, Note_off_c, 11, 70, 127
2, 16957, Note_on_c, 3, 63, 127
2, 16957, Note_on_c, 0, 72, 127
2, 17040, Note_off_c, 3, 63, 127
2, 17045, Note_on_c, 2, 62, 127
2, 17128, Note_off_c, 2, 62, 127
2, 17130, Note_off_c, 0, 72, 127
2, 17133, Note_on_c, 3, 63, 127
2, 17133, Note_on_c, 11, 70, 127
2, 17306, Note_off_c, 11, 70, 127
2, 17308, Note_on_c, 7, 79, 127
2, 17391, Note_off_c, 7, 79, 127
2, 17395, Note_on_c, 5, 77, 127
2, 17478, Note_off_c, 5, 77, 127
2, 17479, Note_off_c, 3, 63, 127
2, 17483, Note_on_c, 2, 62, 127
2, 17483, Note_on_c, 7, 79, 127
2, 17653, Note_off_c, 2, 62, 127
2, 17658, Note_on_c, 3, 63, 127
2, 17828, Note_off_c, 3, 63, 127
2, 17833, Note_on_c, 11, 58, 127
2, 18003, Note_off_c, 11, 58, 127
2, 18008, Note_on_c, 0, 60, 127
2, 18103, Note_off_c, 7, 79, 127
2, 18178, Note_off_c, 0, 60, 127
2, 18183, Note_on_c, 3, 63, 127
2, 18183, Note_on_c, 11, 70, 127
2, 18353, Note_off_c, 3, 63, 127
2, 18356, Note_off_c, 11, 70, 127
2, 18358, Note_on_c, 8, 68, 127
2, 18358, Note_on_c, 0, 72, 127
2, 18528, Note_off_c, 8, 68, 127
2, 18531, Note_off_c, 0, 72, 127
2, 18533, Note_on_c, 7, 67, 127
2, 18533, Note_on_c, 11, 70, 127
2, 18703, Note_off_c, 7, 67, 127
2, 18706, Note_off_c, 11, 70, 127
2, 18708, Note_on_c, 5, 65, 127
2, 18708, Note_on_c, 8, 80, 127
2, 18791, Note_off_c, 8, 80, 127
2, 18796, Note_on_c, 7, 79, 127
2, 18878, Note_off_c, 5, 65, 127
2, 18879, Note_off_c, 7, 79, 127
2, 18884, Note_on_c, 3, 63, 127
2, 18884, Note_on_c, 8, 80, 127
2, 19054, Note_off_c, 3, 63, 127
2, 19059, Note_on_c, 2, 62, 127
2, 19229, Note_off_c, 2, 62, 127
2, 19234, Note_on_c, 0, 60, 127
2, 19404, Note_off_c, 0, 60, 127
2, 19409, Note_on_c, 11, 58, 127
2, 19521, Note_off_c, 8, 80, 127
2, 19578, Note_off_c, 11, 58, 127
2, 19583, Note_on_c, 2, 62, 127
2, 19583, Note_on_c, 11, 70, 127
2, 19753, Note_off_c, 2, 62, 127
2, 19756, Note_off_c, 11, 70, 127
2, 19758, Note_on_c, 7, 67, 127
2, 19758, Note_on_c, 3, 75, 127
2, 19928, Note_off_c, 7, 67, 127
2, 19931, Note_off_c, 3, 75, 127
2, 19933, Note_on_c, 5, 65, 127
2, 19933, Note_on_c, 2, 74, 127
2, 20103, Note_off_c, 5, 65, 127
2, 20106, Note_off_c, 2, 74, 127
2, 20108, Note_on_c, 3, 63, 127
2, 20108, Note_on_c, 7, 79, 127
2, 20278, Note_off_c, 3, 63, 127
2, 20281, Note_off_c, 7, 79, 127
2, 20283, Note_on_c, 2, 62, 127
2, 20283, Note_on_c, 5, 77, 127
2, 20453, Note_off_c, 2, 62, 127
2, 20456, Note_off_c, 5, 77, 127
2, 20458, Note_on_c, 0, 60, 127
2, 20458, Note_on_c, 8, 80, 127
2, 20628, Note_off_c, 0, 60, 127
2, 20631, Note_off_c, 8, 80, 127
2, 20633, Note_on_c, 11, 58, 127
2, 20633, Note_on_c, 7, 79, 127
2, 20803, Note_off_c, 11, 58, 127
2, 20806, Note_off_c, 7, 79, 127
2, 20809, Note_on_c, 8, 56, 127
2, 20809, Note_on_c, 0, 84, 127
2, 20979, Note_off_c, 8, 56, 127
2, 20982, Note_off_c, 0, 84, 127
2, 20984, Note_on_c, 0, 60, 127
2, 20984, Note_on_c, 11, 82, 127
2, 21154, Note_off_c, 0, 60, 127
2, 21157, Note_off_c, 11, 82, 127
2, 21159, Note_on_c, 5, 65, 127
2, 21159, Note_on_c, 8, 80, 127
2, 21329, Note_off_c, 5, 65, 127
2, 21332, Note_off_c, 8, 80, 127
2, 21334, Note_on_c, 0, 60, 127
2, 21334, Note_on_c, 7, 79, 127
2, 21504, Note_off_c, 0, 60, 127
2, 21507, Note_off_c, 7, 79, 127
2, 21509, Note_on_c, 3, 63, 127
2, 21509, Note_on_c, 5, 77, 127
2, 21592, Note_off_c, 3, 63, 127
2, 21597, Note_on_c, 2, 62, 127
2, 21680, Note_off_c, 2, 62, 127
2, 21682, Note_off_c, 5, 77, 127
2, 21684, Note_on_c, 3, 63, 127
2, 21684, Note_on_c, 11, 82, 127
2, 21767, Note_off_c, 3, 63, 127
2, 21772, Note_on_c, 2, 62, 127
2, 21855, Note_off_c, 2, 62, 127
2, 21857, Note_off_c, 11, 82, 127
2, 21859, Note_on_c, 3, 63, 127
2, 21859, Note_on_c, 8, 80, 127
2, 21942, Note_off_c, 3, 63, 127
2, 21947, Note_on_c, 2, 62, 127
2, 22030, Note_off_c, 2, 62, 127
2, 22032, Note_off_c, 8, 80, 127
2, 22034, Note_on_c, 0, 60, 127
2, 22034, Note_on_c, 11, 82, 127
2, 22117, Note_off_c, 0, 60, 127
2, 22122, Note_on_c, 2, 62, 127
2, 22205, Note_off_c, 2, 62, 127
2, 22207, Note_off_c, 11, 82, 127
2, 22209, Note_on_c, 3, 63, 127
2, 22209, Note_on_c, 7, 79, 127
2, 22379, Note_off_c, 3, 63, 127
2, 22382, Note_off_c, 7, 79, 127
2, 22384, Note_on_c, 11, 58, 127
2, 22384, Note_on_c, 11, 82, 127
2, 22554, Note_off_c, 11, 58, 127
2, 22557, Note_off_c, 11, 82, 127
2, 22560, Note_on_c, 0, 60, 127
2, 22560, Note_on_c, 8, 80, 127
2, 22730, Note_off_c, 0, 60, 127
2, 22733, Note_off_c, 8, 80, 127
2, 22735, Note_on_c, 11, 58, 127
2, 22735, Note_on_c, 11, 82, 127
2, 22905, Note_off_c, 11, 58, 127
2, 22908, Note_off_c, 11, 82, 127
2, 22910, Note_on_c, 7, 67, 127
2, 22910, Note_on_c, 3, 75, 127
2, 22993, Note_off_c, 7, 67, 127
2, 22997, Note_on_c, 5, 65, 127
2, 23080, Note_off_c, 5, 65, 127
2, 23083, Note_off_c, 3, 75, 127
2, 23085, Note_on_c, 7, 67, 127
2, 23085, Note_on_c, 7, 79, 127
2, 23258, Note_off_c, 7, 79, 127
2, 23260, Note_on_c, 5, 77, 127
2, 23433, Note_off_c, 5, 77, 127
2, 23435, Note_on_c, 7, 79, 127
2, 23608, Note_off_c, 7, 79, 127
2, 23610, Note_on_c, 0, 72, 127
2, 23722, Note_off_c, 7, 67, 127
2, 23782, Note_off_c, 0, 72, 127
2, 23784, Note_on_c, 11, 58, 127
2, 23784, Note_on_c, 2, 74, 127
2, 23954, Note_off_c, 11, 58, 127
2, 23957, Note_off_c, 2, 74, 127
2, 23959, Note_on_c, 0, 60, 127
2, 23959, Note_on_c, 3, 75, 127
2, 24129, Note_off_c, 0, 60, 127
2, 24132, Note_off_c, 3, 75, 127
2, 24134, Note_on_c, 11, 58, 127
2, 24134, Note_on_c, 5, 77, 127
2, 24304, Note_off_c, 11, 58, 127
2, 24307, Note_off_c, 5, 77, 127
2, 24310, Note_on_c, 8, 68, 127
2, 24310, Note_on_c, 2, 74, 127
2, 24393, Note_off_c, 8, 68, 127
2, 24397, Note_on_c, 7, 67, 127
2, 24480, Note_off_c, 7, 67, 127
2, 24483, Note_off_c, 2, 74, 127
2, 24485, Note_on_c, 8, 68, 127
2, 24485, Note_on_c, 3, 75, 127
2, 24658, Note_off_c, 3, 75, 127
2, 24660, Note_on_c, 5, 77, 127
2, 24833, Note_off_c, 5, 77, 127
2, 24835, Note_on_c, 7, 79, 127
2, 25008, Note_off_c, 7, 79, 127
2, 25010, Note_on_c, 3, 75, 127
2, 25105, Note_off_c, 8, 68, 127
2, 25183, Note_off_c, 3, 75, 127
2, 25185, Note_on_c, 11, 58, 127
2, 25185, Note_on_c, 5, 77, 127
2, 25355, Note_off_c, 11, 58, 127
2, 25358, Note_off_c, 5, 77, 127
2, 25360, Note_on_c, 3, 63, 127
2, 25360, Note_on_c, 7, 79, 127
2, 25530, Note_off_c, 3, 63, 127
2, 25533, Note_off_c, 7, 79, 127
2, 25535, Note_on_c, 2, 62, 127
2, 25535, Note_on_c, 8, 80, 127
2, 25705, Note_off_c, 2, 62, 127
2, 25708, Note_off_c, 8, 80, 127
2, 25710, Note_on_c, 7, 67, 127
2, 25710, Note_on_c, 11, 82, 127
2, 25880, Note_off_c, 7, 67, 127
2, 25883, Note_off_c, 11, 82, 127
2, 25885, Note_on_c, 5, 65, 127
2, 25885, Note_on_c, 8, 80, 127
2, 26055, Note_off_c, 5, 65, 127
2, 26058, Note_off_c, 8, 80, 127
2, 26061, Note_on_c, 8, 68, 127
2, 26061, Note_on_c, 0, 84, 127
2, 26231, Note_off_c, 8, 68, 127
2, 26234, Note_off_c, 0, 84, 127
2, 26236, Note_on_c, 7, 67, 127
2, 26236, Note_on_c, 11, 82, 127
2, 26406, Note_off_c, 7, 67, 127
2, 26409, Note_off_c, 11, 82, 127
2, 26411, Note_on_c, 0, 72, 127
2, 26411, Note_on_c, 8, 80, 127
2, 26581, Note_off_c, 0, 72, 127
2, 26584, Note_off_c, 8, 80, 127
2, 26586, Note_on_c, 11, 70, 127
2, 26586, Note_on_c, 7, 79, 127
2, 26756, Note_off_c, 11, 70, 127
2, 26759, Note_off_c, 7, 79, 127
2, 26761, Note_on_c, 8, 68, 127
2, 26761, Note_on_c, 5, 77, 127
2, 26931, Note_off_c, 8, 68, 127
2, 26934, Note_off_c, 5, 77, 127
2, 26936, Note_on_c, 7, 67, 127
2, 26936, Note_on_c, 8, 80, 127
2, 27106, Note_off_c, 7, 67, 127
2, 27109, Note_off_c, 8, 80, 127
2, 27111, Note_on_c, 5, 65, 127
2, 27111, Note_on_c, 2, 74, 127
2, 27194, Note_off_c, 2, 74, 127
2, 27199, Note_on_c, 0, 72, 127
2, 27281, Note_off_c, 5, 65, 127
2, 27282, Note_off_c, 0, 72, 127
2, 27286, Note_on_c, 11, 70, 127
2, 27286, Note_on_c, 2, 74, 127
2, 27456, Note_off_c, 11, 70, 127
2, 27461, Note_on_c, 8, 68, 127
2, 27631, Note_off_c, 8, 68, 127
2, 27636, Note_on_c, 11, 70, 127
2, 27761, Note_off_c, 2, 74, 127
2, 27806, Note_off_c, 11, 70, 127
2, 27812, Note_on_c, 7, 67, 127
2, 27986, Note_on_c, 2, 74, 127
2, 28138, Note_off_c, 7, 67, 127
2, 28158, Note_off_c, 2, 74, 127
2, 28160, Note_on_c, 3, 51, 127
2, 28160, Note_on_c, 7, 79, 127
2, 28330, Note_off_c, 3, 51, 127
2, 28333, Note_off_c, 7, 79, 127
2, 28335, Note_on_c, 5, 53, 127
2, 28335, Note_on_c, 2, 74, 127
2, 28505, Note_off_c, 5, 53, 127
2, 28508, Note_off_c, 2, 74, 127
2, 28510, Note_on_c, 7, 55, 127
2, 28510, Note_on_c, 3, 75, 127
2, 28680, Note_off_c, 7, 55, 127
2, 28683, Note_off_c, 3, 75, 127
2, 28685, Note_on_c, 10, 57, 127
2, 28685, Note_on_c, 0, 72, 127
2, 28855, Note_off_c, 10, 57, 127
2, 28858, Note_off_c, 0, 72, 127
2, 28860, Note_on_c, 11, 58, 127
2, 28860, Note_on_c, 2, 74, 127
2, 29030, Note_off_c, 11, 58, 127
2, 29033, Note_off_c, 2, 74, 127
2, 29035, Note_on_c, 2, 50, 127
2, 29035, Note_on_c, 11, 70, 127
2, 29205, Note_off_c, 2, 50, 127
2, 29208, Note_off_c, 11, 70, 127
2, 29210, Note_on_c, 3, 51, 127
2, 29210, Note_on_c, 0, 72, 127
2, 29380, Note_off_c, 3, 51, 127
2, 29385, Note_on_c, 5, 53, 127
2, 29555, Note_off_c, 5, 53, 127
2, 29561, Note_on_c, 3, 51, 127
2, 29731, Note_off_c, 3, 51, 127
2, 29736, Note_on_c, 0, 48, 127
2, 29906, Note_off_c, 0, 48, 127
2, 29911, Note_on_c, 0, 60, 127
2, 30012, Note_off_c, 0, 72, 127
2, 30081, Note_off_c, 0, 60, 127
2, 30086, Note_on_c, 11, 58, 127
2, 30086, Note_on_c, 7, 79, 127
2, 30256, Note_off_c, 11, 58, 127
2, 30259, Note_off_c, 7, 79, 127
2, 30261, Note_on_c, 10, 57, 127
2, 30261, Note_on_c, 6, 78, 127
2, 30431, Note_off_c, 10, 57, 127
2, 30434, Note_off_c, 6, 78, 127
2, 30436, Note_on_c, 7, 55, 127
2, 30436, Note_on_c, 10, 81, 127
2, 30606, Note_off_c, 7, 55, 127
2, 30609, Note_off_c, 10, 81, 127
2, 30611, Note_on_c, 6, 54, 127
2, 30611, Note_on_c, 0, 72, 127
2, 30781, Note_off_c, 6, 54, 127
2, 30784, Note_off_c, 0, 72, 127
2, 30786, Note_on_c, 3, 63, 127
2, 30786, Note_on_c, 11, 70, 127
2, 30956, Note_off_c, 3, 63, 127
2, 30959, Note_off_c, 11, 70, 127
2, 30961, Note_on_c, 2, 62, 127
2, 30961, Note_on_c, 0, 72, 127
2, 31131, Note_off_c, 2, 62, 127
2, 31136, Note_on_c, 0, 60, 127
2, 31306, Note_off_c, 0, 60, 127
2, 31312, Note_on_c, 11, 58, 127
2, 31398, Note_off_c, 0, 72, 127
2, 31482, Note_off_c, 11, 58, 127
2, 31487, Note_on_c, 10, 57, 127
2, 31487, Note_on_c, 6, 78, 127
2, 31657, Note_off_c, 10, 57, 127
2, 31660, Note_off_c, 6, 78, 127
2, 31662, Note_on_c, 7, 55, 127
2, 31662, Note_on_c, 4, 76, 127
2, 31832, Note_off_c, 7, 55, 127
2, 31835, Note_off_c, 4, 76, 127
2, 31837, Note_on_c, 6, 54, 127
2, 31837, Note_on_c, 2, 74, 127
2, 32007, Note_off_c, 6, 54, 127
2, 32010, Note_off_c, 2, 74, 127
2, 32012, Note_on_c, 7, 55, 127
2, 32012, Note_on_c, 11, 82, 127
2, 32182, Note_off_c, 7, 55, 127
2, 32187, Note_on_c, 10, 57, 127
2, 32357, Note_off_c, 10, 57, 127
2, 32362, Note_on_c, 7, 55, 127
2, 32532, Note_off_c, 7, 55, 127
2, 32533, Note_off_c, 11, 82, 127
2, 32537, Note_on_c, 10, 57, 127
2, 32537, Note_on_c, 4, 76, 127
2, 32707, Note_off_c, 10, 57, 127
2, 32710, Note_off_c, 4, 76, 127
2, 32712, Note_on_c, 11, 58, 127
2, 32712, Note_on_c, 6, 78, 127
2, 32795, Note_off_c, 11, 58, 127
2, 32800, Note_on_c, 10, 57, 127
2, 32883, Note_off_c, 10, 57, 127
2, 32887, Note_on_c, 11, 58, 127
2, 32970, Note_off_c, 11, 58, 127
2, 32975, Note_on_c, 10, 57, 127
2, 33058, Note_off_c, 10, 57, 127
2, 33063, Note_on_c, 11, 58, 127
2, 33146, Note_off_c, 11, 58, 127
2, 33150, Note_on_c, 10, 57, 127
2, 33233, Note_off_c, 10, 57, 127
2, 33233, Note_off_c, 6, 78, 127
2, 33238, Note_on_c, 7, 55, 127
2, 33238, Note_on_c, 7, 79, 127
2, 33321, Note_off_c, 7, 55, 127
2, 33325, Note_on_c, 10, 57, 127
2, 33408, Note_off_c, 10, 57, 127
2, 33411, Note_off_c, 7, 79, 127
2, 33413, Note_on_c, 11, 58, 127
2, 33413, Note_on_c, 7, 79, 127
2, 33583, Note_off_c, 11, 58, 127
2, 33588, Note_on_c, 10, 57, 127
2, 33758, Note_off_c, 10, 57, 127
2, 33759, Note_off_c, 7, 79, 127
2, 33763, Note_on_c, 7, 55, 127
2, 33763, Note_on_c, 7, 67, 127
2, 33933, Note_off_c, 7, 55, 127
2, 33936, Note_off_c, 7, 67, 127
2, 33938, Note_on_c, 10, 57, 127
2, 33938, Note_on_c, 6, 66, 127
2, 34108, Note_off_c, 10, 57, 127
2, 34111, Note_off_c, 6, 66, 127
2, 34113, Note_on_c, 11, 58, 127
2, 34113, Note_on_c, 7, 67, 127
2, 34283, Note_off_c, 11, 58, 127
2, 34286, Note_off_c, 7, 67, 127
2, 34288, Note_on_c, 0, 60, 127
2, 34288, Note_on_c, 10, 69, 127
2, 34458, Note_off_c, 0, 60, 127
2, 34461, Note_off_c, 10, 69, 127
2, 34463, Note_on_c, 2, 62, 127
2, 34463, Note_on_c, 11, 70, 127
2, 34626, Note_off_c, 2, 62, 127
2, 34636, Note_off_c, 11, 70, 127
2, 34638, Note_on_c, 2, 62, 127
2, 34811, Note_off_c, 2, 62, 127
2, 34814, Note_on_c, 3, 63, 127
2, 34901, Note_on_c, 2, 62, 127
2, 34977, Note_off_c, 3, 63, 127
2, 34984, Note_off_c, 2, 62, 127
2, 34989, Note_on_c, 3, 63, 127
2, 34989, Note_on_c, 5, 65, 127
2, 35072, Note_off_c, 3, 63, 127
2, 35076, Note_on_c, 2, 62, 127
2, 35159, Note_off_c, 2, 62, 127
2, 35162, Note_off_c, 5, 65, 127
2, 35164, Note_on_c, 0, 60, 127
2, 35164, Note_on_c, 3, 63, 127
2, 35327, Note_off_c, 0, 60, 127
2, 35337, Note_off_c, 3, 63, 127
2, 35339, Note_on_c, 0, 60, 127
2, 35513, Note_on_c, 0, 72, 127
2, 35686, Note_off_c, 0, 72, 127
2, 35688, Note_on_c, 11, 70, 127
2, 35830, Note_off_c, 0, 60, 127
2, 35861, Note_off_c, 11, 70, 127
2, 35863, Note_on_c, 0, 60, 127
2, 35863, Note_on_c, 10, 69, 127
2, 36036, Note_off_c, 10, 69, 127
2, 36038, Note_on_c, 7, 67, 127
2, 36209, Note_off_c, 0, 60, 127
2, 36211, Note_off_c, 7, 67, 127
2, 36213, Note_on_c, 2, 62, 127
2, 36213, Note_on_c, 6, 66, 127
2, 36296, Note_off_c, 2, 62, 127
2, 36301, Note_on_c, 0, 60, 127
2, 36384, Note_off_c, 0, 60, 127
2, 36386, Note_off_c, 6, 66, 127
2, 36388, Note_on_c, 2, 62, 127
2, 36388, Note_on_c, 3, 75, 127
2, 36471, Note_off_c, 2, 62, 127
2, 36476, Note_on_c, 0, 60, 127
2, 36559, Note_off_c, 0, 60, 127
2, 36561, Note_off_c, 3, 75, 127
2, 36563, Note_on_c, 11, 58, 127
2, 36563, Note_on_c, 2, 74, 127
2, 36736, Note_off_c, 2, 74, 127
2, 36739, Note_on_c, 0, 72, 127
2, 36912, Note_off_c, 0, 72, 127
2, 36914, Note_on_c, 11, 70, 127
2, 37087, Note_off_c, 11, 70, 127
2, 37089, Note_on_c, 10, 69, 127
2, 37183, Note_off_c, 11, 58, 127
2, 37262, Note_off_c, 10, 69, 127
2, 37264, Note_on_c, 10, 57, 127
2, 37264, Note_on_c, 7, 67, 127
2, 37437, Note_off_c, 7, 67, 127
2, 37439, Note_on_c, 6, 66, 127
2, 37610, Note_off_c, 10, 57, 127
2, 37612, Note_off_c, 6, 66, 127
2, 37614, Note_on_c, 11, 58, 127
2, 37614, Note_on_c, 7, 67, 127
2, 37787, Note_off_c, 7, 67, 127
2, 37789, Note_on_c, 10, 69, 127
2, 37932, Note_off_c, 11, 58, 127
2, 37961, Note_off_c, 10, 69, 127
2, 37963, Note_on_c, 3, 51, 127
2, 37963, Note_on_c, 7, 67, 127
2, 38136, Note_off_c, 7, 67, 127
2, 38138, Note_on_c, 10, 69, 127
2, 38311, Note_off_c, 10, 69, 127
2, 38313, Note_on_c, 11, 70, 127
2, 38396, Note_off_c, 11, 70, 127
2, 38401, Note_on_c, 10, 69, 127
2, 38484, Note_off_c, 10, 69, 127
2, 38484, Note_off_c, 3, 51, 127
2, 38489, Note_on_c, 0, 48, 127
2, 38489, Note_on_c, 11, 70, 127
2, 38572, Note_off_c, 11, 70, 127
2, 38576, Note_on_c, 10, 69, 127
2, 38659, Note_off_c, 10, 69, 127
2, 38659, Note_off_c, 0, 48, 127
2, 38664, Note_on_c, 5, 53, 127
2, 38664, Note_on_c, 11, 70, 127
2, 38747, Note_off_c, 11, 70, 127
2, 38751, Note_on_c, 10, 69, 127
2, 38834, Note_off_c, 10, 69, 127
2, 38834, Note_off_c, 5, 53, 127
2, 38839, Note_on_c, 0, 48, 127
2, 38839, Note_on_c, 7, 67, 127
2, 38922, Note_off_c, 7, 67, 127
2, 38926, Note_on_c, 10, 69, 127
2, 39009, Note_off_c, 10, 69, 127
2, 39009, Note_off_c, 0, 48, 127
2, 39014, Note_on_c, 2, 50, 127
2, 39014, Note_on_c, 11, 70, 127
2, 39187, Note_off_c, 11, 70, 127
2, 39189, Note_on_c, 10, 69, 127
2, 39324, Note_off_c, 2, 50, 127
2, 39362, Note_off_c, 10, 69, 127
2, 39364, Note_on_c, 11, 58, 127
2, 39364, Note_on_c, 7, 67, 127
2, 39537, Note_off_c, 7, 67, 127
2, 39539, Note_on_c, 10, 69, 127
2, 39712, Note_off_c, 10, 69, 127
2, 39714, Note_on_c, 11, 70, 127
2, 39885, Note_off_c, 11, 58, 127
2, 39887, Note_off_c, 11, 70, 127
2, 39889, Note_on_c, 10, 57, 127
2, 39889, Note_on_c, 0, 72, 127
2, 40059, Note_off_c, 10, 57, 127
2, 40062, Note_off_c, 0, 72, 127
2, 40064, Note_on_c, 11, 58, 127
2, 40064, Note_on_c, 2, 74, 127
2, 40234, Note_off_c, 11, 58, 127
2, 40240, Note_on_c, 5, 53, 127
2, 40336, Note_off_c, 2, 74, 127
2, 40410, Note_off_c, 5, 53, 127
2, 40415, Note_on_c, 7, 55, 127
2, 40415, Note_on_c, 3, 75, 127
2, 40498, Note_off_c, 3, 75, 127
2, 40502, Note_on_c, 2, 74, 127
2, 40585, Note_off_c, 2, 74, 127
2, 40585, Note_off_c, 7, 55, 127
2, 40590, Note_on_c, 11, 58, 127
2, 40590, Note_on_c, 3, 75, 127
2, 40673, Note_off_c, 3, 75, 127
2, 40677, Note_on_c, 2, 74, 127
2, 40760, Note_off_c, 2, 74, 127
2, 40760, Note_off_c, 11, 58, 127
2, 40765, Note_on_c, 3, 63, 127
2, 40765, Note_on_c, 0, 72, 127
2, 40935, Note_off_c, 3, 63, 127
2, 40940, Note_on_c, 2, 62, 127
2, 41110, Note_off_c, 2, 62, 127
2, 41115, Note_on_c, 0, 60, 127
2, 41285, Note_off_c, 0, 60, 127
2, 41290, Note_on_c, 11, 58, 127
2, 41366, Note_off_c, 0, 72, 127
2, 41460, Note_off_c, 11, 58, 127
2, 41465, Note_on_c, 10, 57, 127
2, 41465, Note_on_c, 0, 72, 127
2, 41635, Note_off_c, 10, 57, 127
2, 41640, Note_on_c, 7, 55, 127
2, 41810, Note_off_c, 7, 55, 127
2, 41811, Note_off_c, 0, 72, 127
2, 41815, Note_on_c, 5, 53, 127
2, 41815, Note_on_c, 2, 74, 127
2, 41898, Note_off_c, 2, 74, 127
2, 41903, Note_on_c, 0, 72, 127
2, 41985, Note_off_c, 5, 53, 127
2, 41986, Note_off_c, 0, 72, 127
2, 41991, Note_on_c, 10, 57, 127
2, 41991, Note_on_c, 2, 74, 127
2, 42074, Note_off_c, 2, 74, 127
2, 42078, Note_on_c, 0, 72, 127
2, 42161, Note_off_c, 0, 72, 127
2, 42161, Note_off_c, 10, 57, 127
2, 42166, Note_on_c, 2, 62, 127
2, 42166, Note_on_c, 11, 70, 127
2, 42336, Note_off_c, 2, 62, 127
2, 42341, Note_on_c, 0, 60, 127
2, 42511, Note_off_c, 0, 60, 127
2, 42516, Note_on_c, 11, 58, 127
2, 42686, Note_off_c, 11, 58, 127
2, 42691, Note_on_c, 10, 57, 127
2, 42786, Note_off_c, 11, 70, 127
2, 42861, Note_off_c, 10, 57, 127
2, 42866, Note_on_c, 7, 55, 127
2, 42866, Note_on_c, 10, 69, 127
2, 43036, Note_off_c, 7, 55, 127
2, 43041, Note_on_c, 5, 53, 127
2, 43211, Note_off_c, 5, 53, 127
2, 43212, Note_off_c, 10, 69, 127
2, 43216, Note_on_c, 3, 51, 127
2, 43216, Note_on_c, 11, 70, 127
2, 43386, Note_off_c, 3, 51, 127
2, 43391, Note_on_c, 7, 55, 127
2, 43488, Note_off_c, 11, 70, 127
2, 43561, Note_off_c, 7, 55, 127
2, 43566, Note_on_c, 0, 60, 127
2, 43566, Note_on_c, 3, 63, 127
2, 43736, Note_off_c, 0, 60, 127
2, 43742, Note_on_c, 7, 55, 127
2, 43912, Note_off_c, 7, 55, 127
2, 43917, Note_on_c, 11, 58, 127
2, 44000, Note_off_c, 11, 58, 127
2, 44004, Note_on_c, 10, 57, 127
2, 44087, Note_off_c, 10, 57, 127
2, 44087, Note_off_c, 3, 63, 127
2, 44092, Note_on_c, 11, 58, 127
2, 44092, Note_on_c, 0, 60, 127
2, 44175, Note_off_c, 11, 58, 127
2, 44179, Note_on_c, 10, 57, 127
2, 44262, Note_off_c, 10, 57, 127
2, 44265, Note_off_c, 0, 60, 127
2, 44267, Note_on_c, 11, 58, 127
2, 44267, Note_on_c, 5, 65, 127
2, 44350, Note_off_c, 11, 58, 127
2, 44354, Note_on_c, 10, 57, 127
2, 44437, Note_off_c, 10, 57, 127
2, 44440, Note_off_c, 5, 65, 127
2, 44442, Note_on_c, 7, 55, 127
2, 44442, Note_on_c, 0, 60, 127
2, 44525, Note_off_c, 7, 55, 127
2, 44529, Note_on_c, 10, 57, 127
2, 44612, Note_off_c, 10, 57, 127
2, 44615, Note_off_c, 0, 60, 127
2, 44617, Note_on_c, 11, 58, 127
2, 44617, Note_on_c, 2, 62, 127
2, 44787, Note_off_c, 11, 58, 127
2, 44792, Note_on_c, 5, 53, 127
2, 44889, Note_off_c, 2, 62, 127
2, 44962, Note_off_c, 5, 53, 127
2, 44967, Note_on_c, 7, 55, 127
2, 44967, Note_on_c, 11, 70, 127
2, 45137, Note_off_c, 7, 55, 127
2, 45142, Note_on_c, 5, 53, 127
2, 45312, Note_off_c, 5, 53, 127
2, 45317, Note_on_c, 2, 62, 127
2, 45488, Note_off_c, 11, 70, 127
2, 45493, Note_on_c, 10, 69, 127
2, 45666, Note_off_c, 10, 69, 127
2, 45668, Note_on_c, 11, 70, 127
2, 45841, Note_off_c, 11, 70, 127
2, 45843, Note_on_c, 5, 65, 127
2, 46016, Note_off_c, 5, 65, 127
2, 46018, Note_on_c, 7, 67, 127
2, 46119, Note_off_c, 2, 62, 127
2, 46191, Note_off_c, 7, 67, 127
2, 46193, Note_on_c, 5, 53, 127
2, 46193, Note_on_c, 11, 70, 127
2, 46363, Note_off_c, 5, 53, 127
2, 46366, Note_off_c, 11, 70, 127
2, 46368, Note_on_c, 7, 55, 127
2, 46368, Note_on_c, 3, 75, 127
2, 46538, Note_off_c, 7, 55, 127
2, 46541, Note_off_c, 3, 75, 127
2, 46543, Note_on_c, 5, 53, 127
2, 46543, Note_on_c, 2, 74, 127
2, 46713, Note_off_c, 5, 53, 127
2, 46716, Note_off_c, 2, 74, 127
2, 46718, Note_on_c, 3, 63, 127
2, 46718, Note_on_c, 0, 72, 127
2, 46891, Note_off_c, 0, 72, 127
2, 46893, Note_on_c, 11, 70, 127
2, 47066, Note_off_c, 11, 70, 127
2, 47068, Note_on_c, 10, 69, 127
2, 47241, Note_off_c, 10, 69, 127
2, 47244, Note_on_c, 7, 67, 127
2, 47417, Note_off_c, 7, 67, 127
2, 47419, Note_on_c, 5, 65, 127
2, 47520, Note_off_c, 3, 63, 127
2, 47592, Note_off_c, 5, 65, 127
2, 47594, Note_on_c, 5, 53, 127
2, 47594, Note_on_c, 10, 69, 127
2, 47764, Note_off_c, 5, 53, 127
2, 47767, Note_off_c, 10, 69, 127
2, 47769, Note_on_c, 11, 58, 127
2, 47769, Note_on_c, 2, 74, 127
2, 47939, Note_off_c, 11, 58, 127
2, 47942, Note_off_c, 2, 74, 127
2, 47944, Note_on_c, 10, 57, 127
2, 47944, Note_on_c, 0, 72, 127
2, 48114, Note_off_c, 10, 57, 127
2, 48117, Note_off_c, 0, 72, 127
2, 48119, Note_on_c, 2, 62, 127
2, 48119, Note_on_c, 11, 70, 127
2, 48289, Note_off_c, 2, 62, 127
2, 48292, Note_off_c, 11, 70, 127
2, 48294, Note_on_c, 0, 60, 127
2, 48294, Note_on_c, 10, 69, 127
2, 48464, Note_off_c, 0, 60, 127
2, 48467, Note_off_c, 10, 69, 127
2, 48469, Note_on_c, 3, 63, 127
2, 48469, Note_on_c, 7, 67, 127
2, 48639, Note_off_c, 3, 63, 127
2, 48642, Note_off_c, 7, 67, 127
2, 48644, Note_on_c, 2, 62, 127
2, 48644, Note_on_c, 5, 65, 127
2, 48814, Note_off_c, 2, 62, 127
2, 48817, Note_off_c, 5, 65, 127
2, 48819, Note_on_c, 7, 67, 127
2, 48819, Note_on_c, 3, 63, 127
2, 48989, Note_off_c, 7, 67, 127
2, 48992, Note_off_c, 3, 63, 127
2, 48995, Note_on_c, 5, 65, 127
2, 48995, Note_on_c, 7, 67, 127
2, 49165, Note_off_c, 5, 65, 127
2, 49168, Note_off_c, 7, 67, 127
2, 49170, Note_on_c, 3, 63, 127
2, 49170, Note_on_c, 0, 72, 127
2, 49340, Note_off_c, 3, 63, 127
2, 49343, Note_off_c, 0, 72, 127
2, 49345, Note_on_c, 2, 62, 127
2, 49345, Note_on_c, 7, 67, 127
2, 49515, Note_off_c, 2, 62, 127
2, 49518, Note_off_c, 7, 67, 127
2, 49520, Note_on_c, 0, 60, 127
2, 49520, Note_on_c, 10, 69, 127
2, 49603, Note_off_c, 10, 69, 127
2, 49607, Note_on_c, 7, 67, 127
2, 49690, Note_off_c, 7, 67, 127
2, 49690, Note_off_c, 0, 60, 127
2, 49695, Note_on_c, 5, 65, 127
2, 49695, Note_on_c, 10, 69, 127
2, 49865, Note_off_c, 5, 65, 127
2, 49870, Note_on_c, 3, 63, 127
2, 50040, Note_off_c, 3, 63, 127
2, 50041, Note_off_c, 10, 69, 127
2, 50045, Note_on_c, 5, 65, 127
2, 50045, Note_on_c, 10, 69, 127
2, 50215, Note_off_c, 5, 65, 127
2, 50218, Note_off_c, 10, 69, 127
2, 50220, Note_on_c, 2, 62, 127
2, 50220, Note_on_c, 11, 70, 127
2, 50393, Note_off_c, 11, 70, 127
2, 50395, Note_on_c, 5, 65, 127
2, 50566, Note_off_c, 2, 62, 127
2, 50568, Note_off_c, 5, 65, 127
2, 50570, Note_on_c, 3, 63, 127
2, 50570, Note_on_c, 7, 67, 127
2, 50740, Note_off_c, 3, 63, 127
2, 50743, Note_off_c, 7, 67, 127
2, 50746, Note_on_c, 5, 65, 127
2, 50919, Note_off_c, 5, 65, 127
2, 50921, Note_on_c, 11, 58, 127
2, 50921, Note_on_c, 2, 74, 127
2, 51008, Note_off_c, 2, 74, 127
2, 51008, Note_on_c, 0, 72, 127
2, 51091, Note_off_c, 11, 58, 127
2, 51095, Note_off_c, 0, 72, 127
2, 51096, Note_on_c, 2, 62, 127
2, 51096, Note_on_c, 2, 74, 127
2, 51266, Note_off_c, 2, 62, 127
2, 51271, Note_on_c, 0, 60, 127
2, 51441, Note_off_c, 0, 60, 127
2, 51446, Note_on_c, 2, 62, 127
2, 51616, Note_off_c, 2, 62, 127
2, 51621, Note_on_c, 7, 55, 127
2, 51697, Note_off_c, 2, 74, 127
2, 51791, Note_off_c, 7, 55, 127
2, 51796, Note_on_c, 10, 57, 127
2, 51796, Note_on_c, 5, 65, 127
2, 51966, Note_off_c, 10, 57, 127
2, 51969, Note_off_c, 5, 65, 127
2, 51971, Note_on_c, 11, 58, 127
2, 51971, Note_on_c, 7, 67, 127
2, 52141, Note_off_c, 11, 58, 127
2, 52144, Note_off_c, 7, 67, 127
2, 52146, Note_on_c, 0, 60, 127
2, 52146, Note_on_c, 5, 65, 127
2, 52316, Note_off_c, 0, 60, 127
2, 52319, Note_off_c, 5, 65, 127
2, 52321, Note_on_c, 10, 57, 127
2, 52321, Note_on_c, 3, 75, 127
2, 52406, Note_off_c, 3, 75, 127
2, 52409, Note_on_c, 2, 74, 127
2, 52491, Note_off_c, 10, 57, 127
2, 52494, Note_off_c, 2, 74, 127
2, 52497, Note_on_c, 11, 58, 127
2, 52497, Note_on_c, 3, 75, 127
2, 52667, Note_off_c, 11, 58, 127
2, 52672, Note_on_c, 0, 60, 127
2, 52842, Note_off_c, 0, 60, 127
2, 52847, Note_on_c, 2, 62, 127
2, 53017, Note_off_c, 2, 62, 127
2, 53022, Note_on_c, 11, 58, 127
2, 53098, Note_off_c, 3, 75, 127
2, 53192, Note_off_c, 11, 58, 127
2, 53197, Note_on_c, 0, 60, 127
2, 53197, Note_on_c, 5, 65, 127
2, 53367, Note_off_c, 0, 60, 127
2, 53370, Note_off_c, 5, 65, 127
2, 53372, Note_on_c, 2, 62, 127
2, 53372, Note_on_c, 11, 70, 127
2, 53542, Note_off_c, 2, 62, 127
2, 53545, Note_off_c, 11, 70, 127
2, 53547, Note_on_c, 3, 63, 127
2, 53547, Note_on_c, 10, 69, 127
2, 53717, Note_off_c, 3, 63, 127
2, 53720, Note_off_c, 10, 69, 127
2, 53722, Note_on_c, 5, 65, 127
2, 53722, Note_on_c, 2, 74, 127
2, 53892, Note_off_c, 5, 65, 127
2, 53895, Note_off_c, 2, 74, 127
2, 53897, Note_on_c, 3, 63, 127
2, 53897, Note_on_c, 0, 72, 127
2, 54067, Note_off_c, 3, 63, 127
2, 54070, Note_off_c, 0, 72, 127
2, 54072, Note_on_c, 7, 67, 127
2, 54072, Note_on_c, 3, 75, 127
2, 54242, Note_off_c, 7, 67, 127
2, 54245, Note_off_c, 3, 75, 127
2, 54248, Note_on_c, 5, 65, 127
2, 54248, Note_on_c, 2, 74, 127
2, 54418, Note_off_c, 5, 65, 127
2, 54421, Note_off_c, 2, 74, 127
2, 54423, Note_on_c, 3, 63, 127
2, 54423, Note_on_c, 7, 79, 127
2, 54593, Note_off_c, 3, 63, 127
2, 54596, Note_off_c, 7, 79, 127
2, 54598, Note_on_c, 2, 62, 127
2, 54598, Note_on_c, 5, 77, 127
2, 54768, Note_off_c, 2, 62, 127
2, 54771, Note_off_c, 5, 77, 127
2, 54773, Note_on_c, 0, 60, 127
2, 54773, Note_on_c, 3, 75, 127
2, 54943, Note_off_c, 0, 60, 127
2, 54946, Note_off_c, 3, 75, 127
2, 54948, Note_on_c, 3, 63, 127
2, 54948, Note_on_c, 2, 74, 127
2, 55118, Note_off_c, 3, 63, 127
2, 55121, Note_off_c, 2, 74, 127
2, 55123, Note_on_c, 10, 57, 127
2, 55123, Note_on_c, 0, 72, 127
2, 55208, Note_off_c, 10, 57, 127
2, 55211, Note_on_c, 7, 55, 127
2, 55296, Note_off_c, 7, 55, 127
2, 55296, Note_off_c, 0, 72, 127
2, 55298, Note_on_c, 10, 57, 127
2, 55298, Note_on_c, 5, 77, 127
2, 55471, Note_off_c, 5, 77, 127
2, 55473, Note_on_c, 3, 75, 127
2, 55646, Note_off_c, 3, 75, 127
2, 55648, Note_on_c, 5, 77, 127
2, 55821, Note_off_c, 5, 77, 127
2, 55823, Note_on_c, 2, 74, 127
2, 55918, Note_off_c, 10, 57, 127
2, 55996, Note_off_c, 2, 74, 127
2, 55999, Note_on_c, 2, 50, 127
2, 55999, Note_on_c, 0, 72, 127
2, 56169, Note_off_c, 2, 50, 127
2, 56172, Note_off_c, 0, 72, 127
2, 56174, Note_on_c, 7, 55, 127
2, 56174, Note_on_c, 11, 70, 127
2, 56344, Note_off_c, 7, 55, 127
2, 56347, Note_off_c, 11, 70, 127
2, 56349, Note_on_c, 6, 54, 127
2, 56349, Note_on_c, 10, 69, 127
2, 56519, Note_off_c, 6, 54, 127
2, 56522, Note_off_c, 10, 69, 127
2, 56524, Note_on_c, 11, 58, 127
2, 56524, Note_on_c, 2, 74, 127
2, 56694, Note_off_c, 11, 58, 127
2, 56697, Note_off_c, 2, 74, 127
2, 56699, Note_on_c, 10, 57, 127
2, 56699, Note_on_c, 0, 72, 127
2, 56869, Note_off_c, 10, 57, 127
2, 56872, Note_off_c, 0, 72, 127
2, 56874, Note_on_c, 0, 60, 127
2, 56874, Note_on_c, 3, 75, 127
2, 57044, Note_off_c, 0, 60, 127
2, 57047, Note_off_c, 3, 75, 127
2, 57049, Note_on_c, 11, 58, 127
2, 57049, Note_on_c, 2, 74, 127
2, 57219, Note_off_c, 11, 58, 127
2, 57222, Note_off_c, 2, 74, 127
2, 57224, Note_on_c, 3, 63, 127
2, 57224, Note_on_c, 0, 72, 127
2, 57394, Note_off_c, 3, 63, 127
2, 57397, Note_off_c, 0, 72, 127
2, 57399, Note_on_c, 2, 62, 127
2, 57399, Note_on_c, 11, 70, 127
2, 57569, Note_off_c, 2, 62, 127
2, 57572, Note_off_c, 11, 70, 127
2, 57574, Note_on_c, 0, 60, 127
2, 57574, Note_on_c, 10, 69, 127
2, 57744, Note_off_c, 0, 60, 127
2, 57747, Note_off_c, 10, 69, 127
2, 57750, Note_on_c, 11, 58, 127
2, 57750, Note_on_c, 0, 72, 127
2, 57920, Note_off_c, 11, 58, 127
2, 57923, Note_off_c, 0, 72, 127
2, 57925, Note_on_c, 10, 57, 127
2, 57925, Note_on_c, 5, 77, 127
2, 58010, Note_off_c, 5, 77, 127
2, 58012, Note_on_c, 3, 75, 127
2, 58095, Note_off_c, 10, 57, 127
2, 58097, Note_off_c, 3, 75, 127
2, 58100, Note_on_c, 2, 62, 127
2, 58100, Note_on_c, 5, 77, 127
2, 58270, Note_off_c, 2, 62, 127
2, 58275, Note_on_c, 0, 60, 127
2, 58445, Note_off_c, 0, 60, 127
2, 58450, Note_on_c, 2, 62, 127
2, 58620, Note_off_c, 2, 62, 127
2, 58625, Note_on_c, 12, 59, 127
2, 58682, Note_off_c, 5, 77, 127
2, 58794, Note_off_c, 12, 59, 127
2, 58799, Note_on_c, 5, 65, 127
2, 58799, Note_on_c, 7, 67, 127
2, 58969, Note_off_c, 5, 65, 127
2, 58972, Note_off_c, 7, 67, 127
2, 58974, Note_on_c, 3, 63, 127
2, 58974, Note_on_c, 0, 72, 127
2, 59144, Note_off_c, 3, 63, 127
2, 59147, Note_off_c, 0, 72, 127
2, 59149, Note_on_c, 2, 62, 127
2, 59149, Note_on_c, 12, 71, 127
2, 59319, Note_off_c, 2, 62, 127
2, 59322, Note_off_c, 12, 71, 127
2, 59324, Note_on_c, 0, 60, 127
2, 59324, Note_on_c, 3, 75, 127
2, 59494, Note_off_c, 0, 60, 127
2, 59497, Note_off_c, 3, 75, 127
2, 59500, Note_on_c, 11, 58, 127
2, 59500, Note_on_c, 2, 74, 127
2, 59670, Note_off_c, 11, 58, 127
2, 59673, Note_off_c, 2, 74, 127
2, 59675, Note_on_c, 8, 56, 127
2, 59675, Note_on_c, 5, 77, 127
2, 59845, Note_off_c, 8, 56, 127
2, 59848, Note_off_c, 5, 77, 127
2, 59850, Note_on_c, 7, 55, 127
2, 59850, Note_on_c, 3, 75, 127
2, 60020, Note_off_c, 7, 55, 127
2, 60023, Note_off_c, 3, 75, 127
2, 60025, Note_on_c, 5, 53, 127
2, 60025, Note_on_c, 8, 80, 127
2, 60195, Note_off_c, 5, 53, 127
2, 60198, Note_off_c, 8, 80, 127
2, 60200, Note_on_c, 3, 51, 127
2, 60200, Note_on_c, 7, 79, 127
2, 60370, Note_off_c, 3, 51, 127
2, 60373, Note_off_c, 7, 79, 127
2, 60375, Note_on_c, 2, 50, 127
2, 60375, Note_on_c, 5, 77, 127
2, 60545, Note_off_c, 2, 50, 127
2, 60548, Note_off_c, 5, 77, 127
2, 60550, Note_on_c, 0, 48, 127
2, 60550, Note_on_c, 3, 75, 127
2, 60720, Note_off_c, 0, 48, 127
2, 60723, Note_off_c, 3, 75, 127
2, 60725, Note_on_c, 7, 55, 127
2, 60725, Note_on_c, 2, 74, 127
2, 60898, Note_off_c, 2, 74, 127
2, 60900, Note_on_c, 7, 79, 127
2, 61073, Note_off_c, 7, 79, 127
2, 61075, Note_on_c, 7, 43, 127
2, 61075, Note_on_c, 5, 77, 127
2, 61234, Note_off_c, 7, 55, 127
2, 61247, Note_off_c, 5, 77, 127
2, 61249, Note_on_c, 7, 79, 127
2, 61401, Note_off_c, 7, 43, 127
2, 61421, Note_off_c, 7, 79, 127
2, 61424, Note_on_c, 0, 48, 127
2, 61424, Note_on_c, 3, 75, 127
2, 61507, Note_off_c, 0, 48, 127
2, 61511, Note_on_c, 12, 47, 127
2, 61594, Note_off_c, 12, 47, 127
2, 61597, Note_off_c, 3, 75, 127
2, 61599, Note_on_c, 0, 48, 127
2, 61599, Note_on_c, 2, 74, 127
2, 61772, Note_off_c, 2, 74, 127
2, 61774, Note_on_c, 0, 72, 127
2, 61945, Note_off_c, 0, 48, 127
2, 61947, Note_off_c, 0, 72, 127
2, 61949, Note_on_c, 2, 50, 127
2, 61949, Note_on_c, 12, 71, 127
2, 62119, Note_off_c, 2, 50, 127
2, 62122, Note_off_c, 12, 71, 127
2, 62124, Note_on_c, 3, 51, 127
2, 62124, Note_on_c, 0, 72, 127
2, 62294, Note_off_c, 3, 51, 127
2, 62297, Note_off_c, 0, 72, 127
2, 62299, Note_on_c, 5, 53, 127
2, 62299, Note_on_c, 2, 74, 127
2, 62469, Note_off_c, 5, 53, 127
2, 62472, Note_off_c, 2, 74, 127
2, 62474, Note_on_c, 7, 55, 127
2, 62474, Note_on_c, 3, 75, 127
2, 62647, Note_off_c, 3, 75, 127
2, 62649, Note_on_c, 7, 67, 127
2, 62820, Note_off_c, 7, 55, 127
2, 62822, Note_off_c, 7, 67, 127
2, 62824, Note_on_c, 8, 56, 127
2, 62824, Note_on_c, 8, 68, 127
2, 62907, Note_off_c, 8, 56, 127
2, 62912, Note_on_c, 7, 55, 127
2, 62995, Note_off_c, 7, 55, 127
2, 62997, Note_off_c, 8, 68, 127
2, 62999, Note_on_c, 8, 56, 127
2, 62999, Note_on_c, 11, 70, 127
2, 63082, Note_off_c, 8, 56, 127
2, 63087, Note_on_c, 7, 55, 127
2, 63170, Note_off_c, 7, 55, 127
2, 63172, Note_off_c, 11, 70, 127
2, 63175, Note_on_c, 5, 53, 127
2, 63175, Note_on_c, 8, 68, 127
2, 63348, Note_off_c, 8, 68, 127
2, 63350, Note_on_c, 5, 65, 127
2, 63523, Note_off_c, 5, 65, 127
2, 63525, Note_on_c, 5, 77, 127
2, 63698, Note_off_c, 5, 77, 127
2, 63700, Note_on_c, 3, 75, 127
2, 63831, Note_off_c, 5, 53, 127
2, 63873, Note_off_c, 3, 75, 127
2, 63875, Note_on_c, 5, 53, 127
2, 63875, Note_on_c, 2, 74, 127
2, 64048, Note_off_c, 2, 74, 127
2, 64050, Note_on_c, 0, 72, 127
2, 64221, Note_off_c, 5, 53, 127
2, 64223, Note_off_c, 0, 72, 127
2, 64225, Note_on_c, 7, 55, 127
2, 64225, Note_on_c, 12, 71, 127
2, 64308, Note_off_c, 7, 55, 127
2, 64313, Note_on_c, 5, 53, 127
2, 64396, Note_off_c, 5, 53, 127
2, 64398, Note_off_c, 12, 71, 127
2, 64400, Note_on_c, 7, 55, 127
2, 64400, Note_on_c, 8, 80, 127
2, 64483, Note_off_c, 7, 55, 127
2, 64488, Note_on_c, 5, 53, 127
2, 64571, Note_off_c, 5, 53, 127
2, 64573, Note_off_c, 8, 80, 127
2, 64575, Note_on_c, 3, 51, 127
2, 64575, Note_on_c, 7, 79, 127
2, 64748, Note_off_c, 7, 79, 127
2, 64750, Note_on_c, 5, 77, 127
2, 64923, Note_off_c, 5, 77, 127
2, 64926, Note_on_c, 3, 75, 127
2, 65030, Note_off_c, 3, 51, 127
2, 65098, Note_off_c, 3, 75, 127
2, 65100, Note_on_c, 5, 53, 127
2, 65100, Note_on_c, 2, 74, 127
2, 65270, Note_off_c, 5, 53, 127
2, 65273, Note_off_c, 2, 74, 127
2, 65275, Note_on_c, 3, 51, 127
2, 65275, Note_on_c, 0, 72, 127
2, 65445, Note_off_c, 3, 51, 127
2, 65448, Note_off_c, 0, 72, 127
2, 65450, Note_on_c, 2, 50, 127
2, 65450, Note_on_c, 12, 71, 127
2, 65620, Note_off_c, 2, 50, 127
2, 65623, Note_off_c, 12, 71, 127
2, 65625, Note_on_c, 0, 48, 127
2, 65625, Note_on_c, 0, 72, 127
2, 65795, Note_off_c, 0, 48, 127
2, 65798, Note_off_c, 0, 72, 127
2, 65800, Note_on_c, 11, 46, 127
2, 65800, Note_on_c, 2, 74, 127
2, 65970, Note_off_c, 11, 46, 127
2, 65973, Note_off_c, 2, 74, 127
2, 65975, Note_on_c, 8, 44, 127
2, 65975, Note_on_c, 0, 72, 127
2, 66145, Note_off_c, 8, 44, 127
2, 66148, Note_off_c, 0, 72, 127
2, 66150, Note_on_c, 7, 43, 127
2, 66150, Note_on_c, 2, 74, 127
2, 66320, Note_off_c, 7, 43, 127
2, 66323, Note_off_c, 2, 74, 127
2, 66325, Note_on_c, 5, 41, 127
2, 66325, Note_on_c, 3, 75, 127
2, 66408, Note_off_c, 3, 75, 127
2, 66413, Note_on_c, 2, 74, 127
2, 66495, Note_off_c, 5, 41, 127
2, 66496, Note_off_c, 2, 74, 127
2, 66500, Note_on_c, 3, 39, 127
2, 66500, Note_on_c, 3, 75, 127
2, 66583, Note_off_c, 3, 75, 127
2, 66588, Note_on_c, 2, 74, 127
2, 66670, Note_off_c, 3, 39, 127
2, 66671, Note_off_c, 2, 74, 127
2, 66676, Note_on_c, 5, 41, 127
2, 66676, Note_on_c, 3, 75, 127
2, 66759, Note_off_c, 3, 75, 127
2, 66763, Note_on_c, 2, 74, 127
2, 66846, Note_off_c, 2, 74, 127
2, 66846, Note_off_c, 5, 41, 127
2, 66851, Note_on_c, 7, 43, 127
2, 66851, Note_on_c, 0, 72, 127
2, 66934, Note_off_c, 0, 72, 127
2, 66938, Note_on_c, 2, 74, 127
2, 67021, Note_off_c, 2, 74, 127
2, 67021, Note_off_c, 7, 43, 127
2, 67026, Note_on_c, 0, 36, 127
2, 67026, Note_on_c, 3, 75, 127
2, 67199, Note_off_c, 3, 75, 127
2, 67201, Note_on_c, 2, 74, 127
2, 67372, Note_off_c, 0, 36, 127
2, 67374, Note_off_c, 2, 74, 127
2, 67376, Note_on_c, 0, 48, 127
2, 67376, Note_on_c, 0, 72, 127
2, 67546, Note_off_c, 0, 48, 127
2, 67549, Note_off_c, 0, 72, 127
2, 67551, Note_on_c, 12, 47, 127
2, 67551, Note_on_c, 2, 74, 127
2, 67721, Note_off_c, 12, 47, 127
2, 67724, Note_off_c, 2, 74, 127
2, 67726, Note_on_c, 0, 48, 127
2, 67726, Note_on_c, 3, 75, 127
2, 67896, Note_off_c, 0, 48, 127
2, 67899, Note_off_c, 3, 75, 127
2, 67901, Note_on_c, 2, 50, 127
2, 67901, Note_on_c, 5, 77, 127
2, 68071, Note_off_c, 2, 50, 127
2, 68074, Note_off_c, 5, 77, 127
2, 68076, Note_on_c, 3, 51, 127
2, 68076, Note_on_c, 7, 79, 127
2, 68246, Note_off_c, 3, 51, 127
2, 68251, Note_on_c, 7, 43, 127
2, 68348, Note_off_c, 7, 79, 127
2, 68421, Note_off_c, 7, 43, 127
2, 68427, Note_on_c, 8, 44, 127
2, 68427, Note_on_c, 8, 80, 127
2, 68510, Note_off_c, 8, 80, 127
2, 68514, Note_on_c, 7, 79, 127
2, 68597, Note_off_c, 7, 79, 127
2, 68597, Note_off_c, 8, 44, 127
2, 68602, Note_on_c, 11, 46, 127
2, 68602, Note_on_c, 8, 80, 127
2, 68685, Note_off_c, 8, 80, 127
2, 68689, Note_on_c, 7, 79, 127
2, 68772, Note_off_c, 7, 79, 127
2, 68772, Note_off_c, 11, 46, 127
2, 68777, Note_on_c, 8, 44, 127
2, 68777, Note_on_c, 5, 77, 127
2, 68947, Note_off_c, 8, 44, 127
2, 68952, Note_on_c, 5, 41, 127
2, 69122, Note_off_c, 5, 41, 127
2, 69127, Note_on_c, 5, 53, 127
2, 69297, Note_off_c, 5, 53, 127
2, 69302, Note_on_c, 3, 51, 127
2, 69397, Note_off_c, 5, 77, 127
2, 69472, Note_off_c, 3, 51, 127
2, 69477, Note_on_c, 2, 50, 127
2, 69477, Note_on_c, 5, 77, 127
2, 69647, Note_off_c, 2, 50, 127
2, 69652, Note_on_c, 0, 48, 127
2, 69822, Note_off_c, 0, 48, 127
2, 69823, Note_off_c, 5, 77, 127
2, 69827, Note_on_c, 12, 47, 127
2, 69827, Note_on_c, 7, 79, 127
2, 69911, Note_off_c, 7, 79, 127
2, 69916, Note_on_c, 5, 77, 127
2, 70000, Note_off_c, 5, 77, 127
2, 70000, Note_off_c, 12, 47, 127
2, 70004, Note_on_c, 8, 56, 127
2, 70004, Note_on_c, 7, 79, 127
2, 70088, Note_off_c, 7, 79, 127
2, 70093, Note_on_c, 5, 77, 127
2, 70177, Note_off_c, 5, 77, 127
2, 70177, Note_off_c, 8, 56, 127
2, 70182, Note_on_c, 7, 55, 127
2, 70182, Note_on_c, 3, 75, 127
2, 70355, Note_off_c, 7, 55, 127
2, 70357, Note_off_c, 3, 75, 127
2, 70359, Note_on_c, 5, 53, 127
2, 70359, Note_on_c, 2, 74, 127
2, 70532, Note_off_c, 5, 53, 127
2, 70534, Note_off_c, 2, 74, 127
2, 70536, Note_on_c, 3, 51, 127
2, 70536, Note_on_c, 7, 79, 127
2, 70712, Note_off_c, 3, 51, 127
2, 70714, Note_off_c, 7, 79, 127
2, 70716, Note_on_c, 2, 50, 127
2, 70716, Note_on_c, 5, 77, 127
2, 70892, Note_off_c, 2, 50, 127
2, 70894, Note_off_c, 5, 77, 127
2, 70896, Note_on_c, 0, 48, 127
2, 70896, Note_on_c, 8, 80, 127
2, 71072, Note_off_c, 0, 48, 127
2, 71074, Note_off_c, 8, 80, 127
2, 71077, Note_on_c, 12, 47, 127
2, 71077, Note_on_c, 7, 79, 127
2, 71253, Note_off_c, 12, 47, 127
2, 71255, Note_off_c, 7, 79, 127
2, 71257, Note_on_c, 0, 48, 127
2, 71257, Note_on_c, 7, 79, 127
2, 71345, Note_off_c, 7, 79, 127
2, 71350, Note_on_c, 5, 77, 127
2, 71438, Note_off_c, 5, 77, 127
2, 71438, Note_off_c, 0, 48, 127
2, 71442, Note_on_c, 7, 43, 127
2, 71442, Note_on_c, 7, 79, 127
2, 71623, Note_off_c, 7, 43, 127
2, 71628, Note_on_c, 8, 44, 127
2, 71808, Note_off_c, 7, 79, 127
2, 71809, Note_off_c, 8, 44, 127
2, 71813, Note_on_c, 5, 41, 127
2, 71813, Note_on_c, 8, 80, 127
2, 71994, Note_off_c, 5, 41, 127
2, 71996, Note_off_c, 8, 80, 127
2, 71999, Note_on_c, 7, 43, 127
2, 71999, Note_on_c, 3, 75, 127
2, 72138, Note_off_c, 3, 75, 127
2, 72140, Note_on_c, 2, 74, 127
2, 72211, Note_on_c, 3, 75, 127
2, 72215, Note_off_c, 2, 74, 127
2, 72281, Note_on_c, 2, 74, 127
2, 72285, Note_off_c, 3, 75, 127
2, 72351, Note_on_c, 3, 75, 127
2, 72355, Note_off_c, 2, 74, 127
2, 72417, Note_off_c, 7, 43, 127
2, 72421, Note_on_c, 7, 43, 127
2, 72421, Note_on_c, 2, 74, 127
2, 72425, Note_off_c, 3, 75, 127
2, 72630, Note_off_c, 2, 74, 127
2, 72648, Note_on_c, 0, 72, 127
2, 72854, Note_off_c, 7, 43, 127
2, 72857, Note_off_c, 0, 72, 127
2, 72876, Note_on_c, 0, 36, 127
2, 72876, Note_on_c, 0, 72, 127
2, 75524, Note_off_c, 0, 72, 127
2, 75524, Note_off_c, 0, 36, 127
2, 79872, End_track
3, 0, Start_track
3, 0, Title_t, "MIDI"
3, 1536, End_track
0, 0, End_of_file
