0, 0, Header, 1, 3, 384
1, 0, Start_track
1, 0, Tempo, 500000
1, 0, Time_signature, 4, 2, 24, 8
1, 72960, End_track
2, 0, Start_track
2, 0, Text_t, "harpsichord: John Sankey"
2, 0, Program_c, 0, 6
2, 0, Pitch_bend_c, 0, 8192
2, 0, Program_c, 1, 6
2, 0, Pitch_bend_c, 1, 7792
2, 0, Program_c, 2, 6
2, 0, Pitch_bend_c, 2, 7876
2, 0, Program_c, 3, 6
2, 0, Pitch_bend_c, 3, 7952
2, 0, Program_c, 4, 6
2, 0, Pitch_bend_c, 4, 7792
2, 0, Program_c, 5, 6
2, 0, Pitch_bend_c, 5, 8112
2, 0, Program_c, 6, 6
2, 0, Pitch_bend_c, 6, 7712
2, 0, Program_c, 7, 6
2, 0, Pitch_bend_c, 7, 8037
2, 0, Program_c, 8, 6
2, 0, Pitch_bend_c, 8, 7872
2, 0, Program_c, 10, 6
2, 0, Pitch_bend_c, 10, 7712
2, 0, Program_c, 11, 6
2, 0, Pitch_bend_c, 11, 8032
2, 0, Program_c, 12, 6
2, 0, Pitch_bend_c, 12, 7872
2, 0, Title_t, "Track 1"
2, 96, Note_on_c, 11, 58, 127
2, 318, Note_on_c, 11, 70, 127
2, 426, Note_off_c, 11, 70, 127
2, 428, Note_on_c, 0, 72, 127
2, 536, Note_off_c, 0, 72, 127
2, 538, Note_on_c, 2, 74, 127
2, 538, Note_on_c, 11, 46, 127
2, 646, Note_off_c, 2, 74, 127
2, 648, Note_on_c, 0, 72, 127
2, 740, Note_off_c, 11, 58, 127
2, 756, Note_off_c, 0, 72, 127
2, 758, Note_on_c, 11, 70, 127
2, 963, Note_off_c, 11, 46, 127
2, 977, Note_off_c, 11, 70, 127
2, 979, Note_on_c, 5, 77, 127
2, 979, Note_on_c, 2, 50, 127
2, 1198, Note_off_c, 5, 77, 127
2, 1200, Note_on_c, 2, 74, 127
2, 1405, Note_off_c, 2, 50, 127
2, 1419, Note_off_c, 2, 74, 127
2, 1421, Note_on_c, 11, 82, 127
2, 1421, Note_on_c, 5, 53, 127
2, 1640, Note_off_c, 11, 82, 127
2, 1642, Note_on_c, 5, 77, 127
2, 1847, Note_off_c, 5, 53, 127
2, 1861, Note_off_c, 5, 77, 127
2, 1863, Note_on_c, 2, 74, 127
2, 1863, Note_on_c, 11, 58, 127
2, 1971, Note_off_c, 11, 58, 127
2, 1973, Note_on_c, 10, 57, 127
2, 2081, Note_off_c, 10, 57, 127
2, 2081, Note_off_c, 2, 74, 127
2, 2083, Note_on_c, 5, 77, 127
2, 2083, Note_on_c, 11, 58, 127
2, 2191, Note_off_c, 5, 77, 127
2, 2193, Note_on_c, 3, 75, 127
2, 2301, Note_off_c, 3, 75, 127
2, 2303, Note_on_c, 2, 74, 127
2, 2411, Note_off_c, 2, 74, 127
2, 2413, Note_on_c, 3, 75, 127
2, 2521, Note_off_c, 3, 75, 127
2, 2523, Note_on_c, 5, 77, 127
2, 2742, Note_off_c, 5, 77, 127
2, 2744, Note_on_c, 11, 70, 127
2, 2963, Note_off_c, 11, 70, 127
2, 2965, Note_on_c, 2, 74, 127
2, 3184, Note_off_c, 2, 74, 127
2, 3186, Note_on_c, 5, 65, 127
2, 3405, Note_off_c, 5, 65, 127
2, 3407, Note_on_c, 8, 68, 127
2, 3624, Note_off_c, 11, 58, 127
2, 3626, Note_off_c, 8, 68, 127
2, 3628, Note_on_c, 7, 67, 127
2, 3847, Note_off_c, 7, 67, 127
2, 3849, Note_on_c, 3, 63, 127
2, 3957, Note_off_c, 3, 63, 127
2, 3959, Note_on_c, 5, 65, 127
2, 4067, Note_off_c, 5, 65, 127
2, 4069, Note_on_c, 7, 67, 127
2, 4069, Note_on_c, 11, 46, 127
2, 4177, Note_off_c, 7, 67, 127
2, 4179, Note_on_c, 5, 65, 127
2, 4287, Note_off_c, 5, 65, 127
2, 4289, Note_on_c, 3, 63, 127
2, 4494, Note_off_c, 11, 46, 127
2, 4508, Note_off_c, 3, 63, 127
2, 4510, Note_on_c, 11, 70, 127
2, 4510, Note_on_c, 3, 51, 127
2, 4729, Note_off_c, 11, 70, 127
2, 4731, Note_on_c, 7, 67, 127
2, 4936, Note_off_c, 3, 51, 127
2, 4950, Note_off_c, 7, 67, 127
2, 4952, Note_on_c, 3, 75, 127
2, 4952, Note_on_c, 7, 55, 127
2, 5171, Note_off_c, 3, 75, 127
2, 5173, Note_on_c, 11, 70, 127
2, 5378, Note_off_c, 7, 55, 127
2, 5392, Note_off_c, 11, 70, 127
2, 5394, Note_on_c, 7, 67, 127
2, 5394, Note_on_c, 11, 58, 127
2, 5502, Note_off_c, 11, 58, 127
2, 5504, Note_on_c, 8, 56, 127
2, 5612, Note_off_c, 8, 56, 127
2, 5612, Note_off_c, 7, 67, 127
2, 5614, Note_on_c, 11, 70, 127
2, 5614, Note_on_c, 11, 58, 127
2, 5722, Note_off_c, 11, 70, 127
2, 5724, Note_on_c, 8, 68, 127
2, 5832, Note_off_c, 8, 68, 127
2, 5834, Note_on_c, 7, 67, 127
2, 5942, Note_off_c, 7, 67, 127
2, 5944, Note_on_c, 8, 68, 127
2, 6052, Note_off_c, 8, 68, 127
2, 6054, Note_on_c, 11, 70, 127
2, 6273, Note_off_c, 11, 70, 127
2, 6275, Note_on_c, 3, 63, 127
2, 6494, Note_off_c, 3, 63, 127
2, 6496, Note_on_c, 7, 67, 127
2, 6715, Note_off_c, 7, 67, 127
2, 6717, Note_on_c, 0, 60, 127
2, 6936, Note_off_c, 0, 60, 127
2, 6936, Note_off_c, 11, 58, 127
2, 6938, Note_on_c, 3, 63, 127
2, 7157, Note_off_c, 3, 63, 127
2, 7159, Note_on_c, 10, 57, 127
2, 7378, Note_off_c, 10, 57, 127
2, 7380, Note_on_c, 0, 60, 127
2, 7488, Note_off_c, 0, 60, 127
2, 7490, Note_on_c, 2, 62, 127
2, 7598, Note_off_c, 2, 62, 127
2, 7600, Note_on_c, 3, 63, 127
2, 7600, Note_on_c, 11, 46, 127
2, 7708, Note_off_c, 3, 63, 127
2, 7710, Note_on_c, 2, 62, 127
2, 7818, Note_off_c, 2, 62, 127
2, 7820, Note_on_c, 0, 60, 127
2, 8021, Note_off_c, 11, 46, 127
2, 8039, Note_off_c, 0, 60, 127
2, 8041, Note_on_c, 10, 69, 127
2, 8041, Note_on_c, 0, 48, 127
2, 8260, Note_off_c, 10, 69, 127
2, 8262, Note_on_c, 5, 65, 127
2, 8463, Note_off_c, 0, 48, 127
2, 8481, Note_off_c, 5, 65, 127
2, 8483, Note_on_c, 0, 72, 127
2, 8483, Note_on_c, 3, 51, 127
2, 8702, Note_off_c, 0, 72, 127
2, 8704, Note_on_c, 10, 69, 127
2, 8905, Note_off_c, 3, 51, 127
2, 8923, Note_off_c, 10, 69, 127
2, 8925, Note_on_c, 3, 75, 127
2, 8925, Note_on_c, 10, 57, 127
2, 9033, Note_off_c, 10, 57, 127
2, 9035, Note_on_c, 7, 55, 127
2, 9143, Note_off_c, 7, 55, 127
2, 9143, Note_off_c, 3, 75, 127
2, 9145, Note_on_c, 5, 65, 127
2, 9145, Note_on_c, 10, 57, 127
2, 9253, Note_off_c, 5, 65, 127
2, 9255, Note_on_c, 7, 67, 127
2, 9363, Note_off_c, 7, 67, 127
2, 9365, Note_on_c, 10, 69, 127
2, 9473, Note_off_c, 10, 69, 127
2, 9475, Note_on_c, 7, 67, 127
2, 9583, Note_off_c, 7, 67, 127
2, 9585, Note_on_c, 5, 65, 127
2, 9788, Note_off_c, 10, 57, 127
2, 9804, Note_off_c, 5, 65, 127
2, 9806, Note_on_c, 0, 72, 127
2, 10025, Note_off_c, 0, 72, 127
2, 10027, Note_on_c, 10, 69, 127
2, 10246, Note_off_c, 10, 69, 127
2, 10248, Note_on_c, 5, 77, 127
2, 10467, Note_off_c, 5, 77, 127
2, 10469, Note_on_c, 0, 72, 127
2, 10681, Note_off_c, 0, 72, 127
2, 10690, Note_on_c, 2, 74, 127
2, 10912, Note_on_c, 11, 58, 127
2, 11020, Note_off_c, 11, 58, 127
2, 11022, Note_on_c, 0, 60, 127
2, 11130, Note_off_c, 0, 60, 127
2, 11132, Note_on_c, 2, 62, 127
2, 11240, Note_off_c, 2, 62, 127
2, 11242, Note_on_c, 0, 60, 127
2, 11350, Note_off_c, 0, 60, 127
2, 11352, Note_on_c, 11, 58, 127
2, 11564, Note_off_c, 2, 74, 127
2, 11571, Note_off_c, 11, 58, 127
2, 11573, Note_on_c, 3, 63, 127
2, 11795, Note_on_c, 7, 79, 127
2, 11903, Note_off_c, 7, 79, 127
2, 11905, Note_on_c, 5, 77, 127
2, 12013, Note_off_c, 5, 77, 127
2, 12015, Note_on_c, 3, 75, 127
2, 12123, Note_off_c, 3, 75, 127
2, 12125, Note_on_c, 5, 77, 127
2, 12233, Note_off_c, 5, 77, 127
2, 12235, Note_on_c, 7, 79, 127
2, 12263, Note_off_c, 3, 63, 127
2, 12455, Note_off_c, 7, 79, 127
2, 12457, Note_on_c, 0, 72, 127
2, 12679, Note_on_c, 10, 57, 127
2, 12787, Note_off_c, 10, 57, 127
2, 12789, Note_on_c, 11, 58, 127
2, 12897, Note_off_c, 11, 58, 127
2, 12899, Note_on_c, 0, 60, 127
2, 13007, Note_off_c, 0, 60, 127
2, 13009, Note_on_c, 11, 58, 127
2, 13117, Note_off_c, 11, 58, 127
2, 13119, Note_on_c, 10, 57, 127
2, 13331, Note_off_c, 0, 72, 127
2, 13338, Note_off_c, 10, 57, 127
2, 13340, Note_on_c, 2, 62, 127
2, 13562, Note_on_c, 5, 77, 127
2, 13670, Note_off_c, 5, 77, 127
2, 13672, Note_on_c, 3, 75, 127
2, 13780, Note_off_c, 3, 75, 127
2, 13782, Note_on_c, 2, 74, 127
2, 13890, Note_off_c, 2, 74, 127
2, 13892, Note_on_c, 3, 75, 127
2, 14000, Note_off_c, 3, 75, 127
2, 14002, Note_on_c, 5, 77, 127
2, 14030, Note_off_c, 2, 62, 127
2, 14222, Note_off_c, 5, 77, 127
2, 14224, Note_on_c, 11, 70, 127
2, 14446, Note_on_c, 7, 55, 127
2, 14554, Note_off_c, 7, 55, 127
2, 14556, Note_on_c, 10, 57, 127
2, 14664, Note_off_c, 10, 57, 127
2, 14666, Note_on_c, 11, 58, 127
2, 14774, Note_off_c, 11, 58, 127
2, 14776, Note_on_c, 10, 57, 127
2, 14884, Note_off_c, 10, 57, 127
2, 14886, Note_on_c, 7, 55, 127
2, 15098, Note_off_c, 11, 70, 127
2, 15105, Note_off_c, 7, 55, 127
2, 15107, Note_on_c, 0, 60, 127
2, 15329, Note_on_c, 3, 75, 127
2, 15329, Note_on_c, 0, 48, 127
2, 15361, Note_off_c, 0, 60, 127
2, 15437, Note_off_c, 0, 48, 127
2, 15437, Note_off_c, 3, 75, 127
2, 15439, Note_on_c, 2, 74, 127
2, 15439, Note_on_c, 2, 50, 127
2, 15547, Note_off_c, 2, 50, 127
2, 15547, Note_off_c, 2, 74, 127
2, 15549, Note_on_c, 0, 72, 127
2, 15549, Note_on_c, 3, 51, 127
2, 15657, Note_off_c, 3, 51, 127
2, 15657, Note_off_c, 0, 72, 127
2, 15659, Note_on_c, 2, 74, 127
2, 15659, Note_on_c, 2, 50, 127
2, 15767, Note_off_c, 2, 50, 127
2, 15767, Note_off_c, 2, 74, 127
2, 15769, Note_on_c, 3, 75, 127
2, 15769, Note_on_c, 0, 48, 127
2, 15988, Note_off_c, 0, 48, 127
2, 15988, Note_off_c, 3, 75, 127
2, 15990, Note_on_c, 10, 69, 127
2, 15990, Note_on_c, 5, 53, 127
2, 16209, Note_off_c, 10, 69, 127
2, 16211, Note_on_c, 0, 72, 127
2, 16319, Note_off_c, 0, 72, 127
2, 16321, Note_on_c, 11, 70, 127
2, 16429, Note_off_c, 11, 70, 127
2, 16431, Note_on_c, 10, 69, 127
2, 16431, Note_on_c, 5, 41, 127
2, 16539, Note_off_c, 10, 69, 127
2, 16541, Note_on_c, 11, 70, 127
2, 16633, Note_off_c, 5, 53, 127
2, 16649, Note_off_c, 11, 70, 127
2, 16651, Note_on_c, 0, 72, 127
2, 16868, Note_off_c, 5, 41, 127
2, 16870, Note_off_c, 0, 72, 127
2, 16872, Note_on_c, 5, 65, 127
2, 17094, Note_on_c, 0, 60, 127
2, 17313, Note_off_c, 0, 60, 127
2, 17315, Note_on_c, 10, 57, 127
2, 17518, Note_off_c, 5, 65, 127
2, 17534, Note_off_c, 10, 57, 127
2, 17536, Note_on_c, 5, 53, 127
2, 17758, Note_on_c, 5, 77, 127
2, 17869, Note_off_c, 5, 53, 127
2, 17980, Note_on_c, 5, 53, 127
2, 18088, Note_off_c, 5, 53, 127
2, 18090, Note_on_c, 7, 55, 127
2, 18198, Note_off_c, 7, 55, 127
2, 18200, Note_on_c, 5, 65, 127
2, 18200, Note_on_c, 10, 57, 127
2, 18308, Note_off_c, 10, 57, 127
2, 18310, Note_on_c, 7, 55, 127
2, 18418, Note_off_c, 7, 55, 127
2, 18420, Note_on_c, 5, 53, 127
2, 18632, Note_off_c, 5, 77, 127
2, 18639, Note_off_c, 5, 53, 127
2, 18639, Note_off_c, 5, 65, 127
2, 18641, Note_on_c, 10, 69, 127
2, 18641, Note_on_c, 0, 60, 127
2, 18860, Note_off_c, 0, 60, 127
2, 18862, Note_on_c, 10, 57, 127
2, 19081, Note_off_c, 10, 57, 127
2, 19081, Note_off_c, 10, 69, 127
2, 19083, Note_on_c, 0, 72, 127
2, 19083, Note_on_c, 5, 65, 127
2, 19302, Note_off_c, 5, 65, 127
2, 19304, Note_on_c, 0, 60, 127
2, 19523, Note_off_c, 0, 60, 127
2, 19523, Note_off_c, 0, 72, 127
2, 19525, Note_on_c, 5, 77, 127
2, 19525, Note_on_c, 10, 57, 127
2, 19633, Note_off_c, 5, 77, 127
2, 19635, Note_on_c, 4, 76, 127
2, 19743, Note_off_c, 4, 76, 127
2, 19743, Note_off_c, 10, 57, 127
2, 19745, Note_on_c, 5, 77, 127
2, 19745, Note_on_c, 0, 60, 127
2, 19853, Note_off_c, 0, 60, 127
2, 19855, Note_on_c, 11, 58, 127
2, 19963, Note_off_c, 11, 58, 127
2, 19965, Note_on_c, 10, 57, 127
2, 20073, Note_off_c, 10, 57, 127
2, 20075, Note_on_c, 11, 58, 127
2, 20183, Note_off_c, 11, 58, 127
2, 20185, Note_on_c, 0, 60, 127
2, 20404, Note_off_c, 0, 60, 127
2, 20406, Note_on_c, 5, 53, 127
2, 20625, Note_off_c, 5, 53, 127
2, 20627, Note_on_c, 10, 57, 127
2, 20846, Note_off_c, 10, 57, 127
2, 20848, Note_on_c, 0, 48, 127
2, 21067, Note_off_c, 0, 48, 127
2, 21069, Note_on_c, 3, 51, 127
2, 21286, Note_off_c, 5, 77, 127
2, 21288, Note_off_c, 3, 51, 127
2, 21290, Note_on_c, 2, 50, 127
2, 21509, Note_off_c, 2, 50, 127
2, 21511, Note_on_c, 11, 46, 127
2, 21619, Note_off_c, 11, 46, 127
2, 21621, Note_on_c, 0, 48, 127
2, 21729, Note_off_c, 0, 48, 127
2, 21731, Note_on_c, 5, 65, 127
2, 21731, Note_on_c, 2, 50, 127
2, 21839, Note_off_c, 2, 50, 127
2, 21841, Note_on_c, 0, 48, 127
2, 21949, Note_off_c, 0, 48, 127
2, 21951, Note_on_c, 11, 46, 127
2, 22170, Note_off_c, 11, 46, 127
2, 22170, Note_off_c, 5, 65, 127
2, 22172, Note_on_c, 11, 70, 127
2, 22172, Note_on_c, 5, 53, 127
2, 22391, Note_off_c, 5, 53, 127
2, 22393, Note_on_c, 2, 50, 127
2, 22612, Note_off_c, 2, 50, 127
2, 22612, Note_off_c, 11, 70, 127
2, 22614, Note_on_c, 2, 74, 127
2, 22614, Note_on_c, 11, 58, 127
2, 22833, Note_off_c, 11, 58, 127
2, 22835, Note_on_c, 5, 53, 127
2, 23054, Note_off_c, 5, 53, 127
2, 23054, Note_off_c, 2, 74, 127
2, 23056, Note_on_c, 5, 77, 127
2, 23056, Note_on_c, 2, 50, 127
2, 23164, Note_off_c, 5, 77, 127
2, 23166, Note_on_c, 3, 75, 127
2, 23274, Note_off_c, 3, 75, 127
2, 23274, Note_off_c, 2, 50, 127
2, 23276, Note_on_c, 5, 77, 127
2, 23276, Note_on_c, 5, 53, 127
2, 23384, Note_off_c, 5, 53, 127
2, 23386, Note_on_c, 3, 51, 127
2, 23494, Note_off_c, 3, 51, 127
2, 23496, Note_on_c, 2, 50, 127
2, 23604, Note_off_c, 2, 50, 127
2, 23606, Note_on_c, 3, 51, 127
2, 23714, Note_off_c, 3, 51, 127
2, 23716, Note_on_c, 5, 53, 127
2, 23935, Note_off_c, 5, 53, 127
2, 23937, Note_on_c, 11, 46, 127
2, 24149, Note_off_c, 5, 77, 127
2, 24156, Note_off_c, 11, 46, 127
2, 24158, Note_on_c, 2, 50, 127
2, 24377, Note_off_c, 2, 50, 127
2, 24379, Note_on_c, 7, 43, 127
2, 24598, Note_off_c, 7, 43, 127
2, 24600, Note_on_c, 11, 46, 127
2, 24819, Note_off_c, 11, 46, 127
2, 24821, Note_on_c, 4, 40, 127
2, 25040, Note_off_c, 4, 40, 127
2, 25042, Note_on_c, 7, 43, 127
2, 25150, Note_off_c, 7, 43, 127
2, 25152, Note_on_c, 10, 45, 127
2, 25260, Note_off_c, 10, 45, 127
2, 25262, Note_on_c, 7, 67, 127
2, 25262, Note_on_c, 11, 46, 127
2, 25370, Note_off_c, 11, 46, 127
2, 25372, Note_on_c, 10, 45, 127
2, 25480, Note_off_c, 10, 45, 127
2, 25482, Note_on_c, 7, 43, 127
2, 25701, Note_off_c, 7, 43, 127
2, 25701, Note_off_c, 7, 67, 127
2, 25703, Note_on_c, 11, 70, 127
2, 25703, Note_on_c, 4, 52, 127
2, 25922, Note_off_c, 4, 52, 127
2, 25924, Note_on_c, 0, 48, 127
2, 26143, Note_off_c, 0, 48, 127
2, 26143, Note_off_c, 11, 70, 127
2, 26145, Note_on_c, 0, 72, 127
2, 26145, Note_on_c, 7, 55, 127
2, 26364, Note_off_c, 7, 55, 127
2, 26366, Note_on_c, 4, 52, 127
2, 26585, Note_off_c, 4, 52, 127
2, 26585, Note_off_c, 0, 72, 127
2, 26587, Note_on_c, 4, 76, 127
2, 26587, Note_on_c, 11, 58, 127
2, 26695, Note_off_c, 4, 76, 127
2, 26697, Note_on_c, 2, 74, 127
2, 26805, Note_off_c, 2, 74, 127
2, 26805, Note_off_c, 11, 58, 127
2, 26807, Note_on_c, 4, 76, 127
2, 26807, Note_on_c, 0, 48, 127
2, 26915, Note_off_c, 0, 48, 127
2, 26917, Note_on_c, 2, 50, 127
2, 27025, Note_off_c, 2, 50, 127
2, 27027, Note_on_c, 4, 52, 127
2, 27135, Note_off_c, 4, 52, 127
2, 27137, Note_on_c, 2, 50, 127
2, 27245, Note_off_c, 2, 50, 127
2, 27247, Note_on_c, 0, 48, 127
2, 27450, Note_off_c, 4, 76, 127
2, 27466, Note_off_c, 0, 48, 127
2, 27468, Note_on_c, 7, 55, 127
2, 27687, Note_off_c, 7, 55, 127
2, 27689, Note_on_c, 4, 52, 127
2, 27908, Note_off_c, 4, 52, 127
2, 27910, Note_on_c, 0, 60, 127
2, 28129, Note_off_c, 0, 60, 127
2, 28131, Note_on_c, 7, 55, 127
2, 28350, Note_off_c, 7, 55, 127
2, 28352, Note_on_c, 10, 57, 127
2, 28574, Note_on_c, 5, 65, 127
2, 28682, Note_off_c, 5, 65, 127
2, 28684, Note_on_c, 7, 67, 127
2, 28779, Note_off_c, 10, 57, 127
2, 28793, Note_off_c, 7, 67, 127
2, 28795, Note_on_c, 10, 69, 127
2, 28795, Note_on_c, 0, 60, 127
2, 28903, Note_off_c, 10, 69, 127
2, 28905, Note_on_c, 7, 67, 127
2, 29013, Note_off_c, 7, 67, 127
2, 29015, Note_on_c, 5, 65, 127
2, 29220, Note_off_c, 0, 60, 127
2, 29234, Note_off_c, 5, 65, 127
2, 29236, Note_on_c, 0, 72, 127
2, 29236, Note_on_c, 10, 57, 127
2, 29455, Note_off_c, 0, 72, 127
2, 29457, Note_on_c, 10, 69, 127
2, 29662, Note_off_c, 10, 57, 127
2, 29676, Note_off_c, 10, 69, 127
2, 29678, Note_on_c, 5, 77, 127
2, 29678, Note_on_c, 5, 53, 127
2, 29897, Note_off_c, 5, 77, 127
2, 29899, Note_on_c, 0, 72, 127
2, 30104, Note_off_c, 5, 53, 127
2, 30118, Note_off_c, 0, 72, 127
2, 30120, Note_on_c, 10, 81, 127
2, 30120, Note_on_c, 6, 54, 127
2, 30339, Note_off_c, 10, 81, 127
2, 30341, Note_on_c, 3, 75, 127
2, 30449, Note_off_c, 3, 75, 127
2, 30451, Note_on_c, 2, 74, 127
2, 30546, Note_off_c, 6, 54, 127
2, 30560, Note_off_c, 2, 74, 127
2, 30562, Note_on_c, 0, 72, 127
2, 30562, Note_on_c, 10, 57, 127
2, 30670, Note_off_c, 0, 72, 127
2, 30672, Note_on_c, 2, 74, 127
2, 30780, Note_off_c, 2, 74, 127
2, 30782, Note_on_c, 3, 75, 127
2, 30987, Note_off_c, 10, 57, 127
2, 31001, Note_off_c, 3, 75, 127
2, 31003, Note_on_c, 10, 69, 127
2, 31003, Note_on_c, 6, 54, 127
2, 31222, Note_off_c, 10, 69, 127
2, 31224, Note_on_c, 0, 72, 127
2, 31429, Note_off_c, 6, 54, 127
2, 31443, Note_off_c, 0, 72, 127
2, 31445, Note_on_c, 6, 66, 127
2, 31445, Note_on_c, 2, 50, 127
2, 31664, Note_off_c, 6, 66, 127
2, 31666, Note_on_c, 10, 69, 127
2, 31871, Note_off_c, 2, 50, 127
2, 31885, Note_off_c, 10, 69, 127
2, 31887, Note_on_c, 11, 70, 127
2, 31887, Note_on_c, 7, 55, 127
2, 32106, Note_off_c, 7, 55, 127
2, 32108, Note_on_c, 7, 43, 127
2, 32216, Note_off_c, 7, 43, 127
2, 32218, Note_on_c, 10, 45, 127
2, 32301, Note_off_c, 11, 70, 127
2, 32326, Note_off_c, 10, 45, 127
2, 32328, Note_on_c, 2, 74, 127
2, 32328, Note_on_c, 11, 46, 127
2, 32436, Note_off_c, 11, 46, 127
2, 32438, Note_on_c, 10, 45, 127
2, 32546, Note_off_c, 10, 45, 127
2, 32548, Note_on_c, 7, 43, 127
2, 32742, Note_off_c, 2, 74, 127
2, 32767, Note_off_c, 7, 43, 127
2, 32769, Note_on_c, 11, 70, 127
2, 32769, Note_on_c, 2, 50, 127
2, 32988, Note_off_c, 2, 50, 127
2, 32990, Note_on_c, 11, 46, 127
2, 33184, Note_off_c, 11, 70, 127
2, 33209, Note_off_c, 11, 46, 127
2, 33211, Note_on_c, 7, 67, 127
2, 33211, Note_on_c, 7, 55, 127
2, 33430, Note_off_c, 7, 55, 127
2, 33432, Note_on_c, 2, 50, 127
2, 33626, Note_off_c, 7, 67, 127
2, 33651, Note_off_c, 2, 50, 127
2, 33653, Note_on_c, 8, 68, 127
2, 33653, Note_on_c, 11, 58, 127
2, 33872, Note_off_c, 11, 58, 127
2, 33874, Note_on_c, 8, 56, 127
2, 33982, Note_off_c, 8, 56, 127
2, 33984, Note_on_c, 7, 55, 127
2, 34067, Note_off_c, 8, 68, 127
2, 34092, Note_off_c, 7, 55, 127
2, 34094, Note_on_c, 5, 77, 127
2, 34094, Note_on_c, 5, 53, 127
2, 34202, Note_off_c, 5, 53, 127
2, 34204, Note_on_c, 7, 55, 127
2, 34312, Note_off_c, 7, 55, 127
2, 34314, Note_on_c, 8, 56, 127
2, 34508, Note_off_c, 5, 77, 127
2, 34533, Note_off_c, 8, 56, 127
2, 34535, Note_on_c, 8, 68, 127
2, 34535, Note_on_c, 2, 50, 127
2, 34754, Note_off_c, 2, 50, 127
2, 34756, Note_on_c, 5, 53, 127
2, 34950, Note_off_c, 8, 68, 127
2, 34975, Note_off_c, 5, 53, 127
2, 34977, Note_on_c, 5, 65, 127
2, 34977, Note_on_c, 11, 46, 127
2, 35196, Note_off_c, 11, 46, 127
2, 35198, Note_on_c, 2, 50, 127
2, 35392, Note_off_c, 5, 65, 127
2, 35417, Note_off_c, 2, 50, 127
2, 35419, Note_on_c, 7, 67, 127
2, 35419, Note_on_c, 3, 51, 127
2, 35638, Note_off_c, 7, 67, 127
2, 35640, Note_on_c, 0, 60, 127
2, 35748, Note_off_c, 0, 60, 127
2, 35750, Note_on_c, 2, 62, 127
2, 35845, Note_off_c, 3, 51, 127
2, 35859, Note_off_c, 2, 62, 127
2, 35861, Note_on_c, 3, 63, 127
2, 35861, Note_on_c, 7, 55, 127
2, 35969, Note_off_c, 3, 63, 127
2, 35971, Note_on_c, 2, 62, 127
2, 36079, Note_off_c, 2, 62, 127
2, 36081, Note_on_c, 0, 60, 127
2, 36286, Note_off_c, 7, 55, 127
2, 36300, Note_off_c, 0, 60, 127
2, 36302, Note_on_c, 7, 67, 127
2, 36302, Note_on_c, 3, 51, 127
2, 36521, Note_off_c, 7, 67, 127
2, 36523, Note_on_c, 3, 63, 127
2, 36728, Note_off_c, 3, 51, 127
2, 36742, Note_off_c, 3, 63, 127
2, 36744, Note_on_c, 0, 72, 127
2, 36744, Note_on_c, 0, 48, 127
2, 36963, Note_off_c, 0, 72, 127
2, 36965, Note_on_c, 7, 67, 127
2, 37170, Note_off_c, 0, 48, 127
2, 37184, Note_off_c, 7, 67, 127
2, 37186, Note_on_c, 2, 74, 127
2, 37186, Note_on_c, 12, 47, 127
2, 37405, Note_off_c, 2, 74, 127
2, 37407, Note_on_c, 8, 68, 127
2, 37515, Note_off_c, 8, 68, 127
2, 37517, Note_on_c, 7, 67, 127
2, 37612, Note_off_c, 12, 47, 127
2, 37626, Note_off_c, 7, 67, 127
2, 37628, Note_on_c, 5, 65, 127
2, 37628, Note_on_c, 2, 50, 127
2, 37736, Note_off_c, 5, 65, 127
2, 37738, Note_on_c, 7, 67, 127
2, 37846, Note_off_c, 7, 67, 127
2, 37848, Note_on_c, 8, 68, 127
2, 38053, Note_off_c, 2, 50, 127
2, 38067, Note_off_c, 8, 68, 127
2, 38069, Note_on_c, 2, 62, 127
2, 38069, Note_on_c, 12, 47, 127
2, 38288, Note_off_c, 2, 62, 127
2, 38290, Note_on_c, 5, 65, 127
2, 38495, Note_off_c, 12, 47, 127
2, 38509, Note_off_c, 5, 65, 127
2, 38511, Note_on_c, 12, 59, 127
2, 38511, Note_on_c, 7, 43, 127
2, 38730, Note_off_c, 12, 59, 127
2, 38732, Note_on_c, 7, 67, 127
2, 38937, Note_off_c, 7, 43, 127
2, 38951, Note_off_c, 7, 67, 127
2, 38953, Note_on_c, 3, 63, 127
2, 38953, Note_on_c, 0, 48, 127
2, 39175, Note_on_c, 0, 36, 127
2, 39283, Note_off_c, 0, 36, 127
2, 39285, Note_off_c, 0, 48, 127
2, 39285, Note_on_c, 2, 38, 127
2, 39393, Note_off_c, 2, 38, 127
2, 39395, Note_on_c, 3, 39, 127
2, 39503, Note_off_c, 3, 39, 127
2, 39505, Note_on_c, 2, 38, 127
2, 39613, Note_off_c, 2, 38, 127
2, 39615, Note_on_c, 0, 36, 127
2, 39827, Note_off_c, 3, 63, 127
2, 39834, Note_off_c, 0, 36, 127
2, 39836, Note_on_c, 0, 48, 127
2, 39944, Note_off_c, 0, 48, 127
2, 39946, Note_on_c, 11, 46, 127
2, 40054, Note_off_c, 11, 46, 127
2, 40056, Note_on_c, 0, 60, 127
2, 40056, Note_on_c, 0, 48, 127
2, 40164, Note_off_c, 0, 60, 127
2, 40166, Note_on_c, 2, 62, 127
2, 40274, Note_off_c, 2, 62, 127
2, 40276, Note_on_c, 3, 63, 127
2, 40384, Note_off_c, 3, 63, 127
2, 40386, Note_on_c, 2, 62, 127
2, 40481, Note_off_c, 0, 48, 127
2, 40495, Note_off_c, 2, 62, 127
2, 40497, Note_on_c, 0, 60, 127
2, 40497, Note_on_c, 11, 46, 127
2, 40716, Note_off_c, 11, 46, 127
2, 40716, Note_off_c, 0, 60, 127
2, 40718, Note_on_c, 0, 72, 127
2, 40718, Note_on_c, 10, 45, 127
2, 40826, Note_off_c, 0, 72, 127
2, 40828, Note_on_c, 11, 70, 127
2, 40936, Note_off_c, 11, 70, 127
2, 40936, Note_off_c, 10, 45, 127
2, 40938, Note_on_c, 0, 72, 127
2, 40938, Note_on_c, 5, 41, 127
2, 41046, Note_off_c, 5, 41, 127
2, 41048, Note_on_c, 7, 43, 127
2, 41156, Note_off_c, 7, 43, 127
2, 41158, Note_on_c, 10, 45, 127
2, 41266, Note_off_c, 10, 45, 127
2, 41268, Note_on_c, 7, 43, 127
2, 41305, Note_off_c, 0, 72, 127
2, 41377, Note_off_c, 7, 43, 127
2, 41379, Note_on_c, 11, 70, 127
2, 41379, Note_on_c, 5, 41, 127
2, 41598, Note_off_c, 5, 41, 127
2, 41598, Note_off_c, 11, 70, 127
2, 41600, Note_on_c, 10, 69, 127
2, 41600, Note_on_c, 5, 53, 127
2, 41818, Note_off_c, 10, 69, 127
2, 41820, Note_on_c, 5, 65, 127
2, 41928, Note_off_c, 5, 65, 127
2, 41930, Note_on_c, 7, 67, 127
2, 42038, Note_off_c, 7, 67, 127
2, 42040, Note_on_c, 10, 69, 127
2, 42148, Note_off_c, 10, 69, 127
2, 42150, Note_on_c, 7, 67, 127
2, 42180, Note_off_c, 5, 53, 127
2, 42259, Note_off_c, 7, 67, 127
2, 42261, Note_on_c, 5, 65, 127
2, 42261, Note_on_c, 3, 51, 127
2, 42480, Note_off_c, 3, 51, 127
2, 42480, Note_off_c, 5, 65, 127
2, 42482, Note_on_c, 5, 77, 127
2, 42482, Note_on_c, 2, 50, 127
2, 42590, Note_off_c, 5, 77, 127
2, 42592, Note_on_c, 3, 75, 127
2, 42700, Note_off_c, 3, 75, 127
2, 42700, Note_off_c, 2, 50, 127
2, 42702, Note_on_c, 5, 77, 127
2, 42702, Note_on_c, 11, 46, 127
2, 42810, Note_off_c, 11, 46, 127
2, 42812, Note_on_c, 0, 48, 127
2, 42920, Note_off_c, 0, 48, 127
2, 42922, Note_on_c, 2, 50, 127
2, 43030, Note_off_c, 2, 50, 127
2, 43032, Note_on_c, 0, 48, 127
2, 43069, Note_off_c, 5, 77, 127
2, 43141, Note_off_c, 0, 48, 127
2, 43143, Note_on_c, 3, 75, 127
2, 43143, Note_on_c, 11, 46, 127
2, 43362, Note_off_c, 11, 46, 127
2, 43362, Note_off_c, 3, 75, 127
2, 43364, Note_on_c, 2, 74, 127
2, 43364, Note_on_c, 11, 58, 127
2, 43582, Note_off_c, 2, 74, 127
2, 43584, Note_on_c, 11, 70, 127
2, 43692, Note_off_c, 11, 70, 127
2, 43694, Note_on_c, 0, 72, 127
2, 43802, Note_off_c, 0, 72, 127
2, 43804, Note_on_c, 2, 74, 127
2, 43912, Note_off_c, 2, 74, 127
2, 43914, Note_on_c, 0, 72, 127
2, 43933, Note_off_c, 11, 58, 127
2, 44023, Note_off_c, 0, 72, 127
2, 44025, Note_on_c, 11, 70, 127
2, 44025, Note_on_c, 8, 56, 127
2, 44244, Note_off_c, 8, 56, 127
2, 44244, Note_off_c, 11, 70, 127
2, 44246, Note_on_c, 11, 82, 127
2, 44246, Note_on_c, 7, 55, 127
2, 44464, Note_off_c, 7, 55, 127
2, 44466, Note_on_c, 3, 51, 127
2, 44574, Note_off_c, 3, 51, 127
2, 44576, Note_on_c, 5, 53, 127
2, 44684, Note_off_c, 5, 53, 127
2, 44686, Note_on_c, 7, 55, 127
2, 44794, Note_off_c, 7, 55, 127
2, 44796, Note_on_c, 5, 53, 127
2, 44885, Note_off_c, 11, 82, 127
2, 44904, Note_off_c, 5, 53, 127
2, 44906, Note_on_c, 8, 80, 127
2, 44906, Note_on_c, 3, 51, 127
2, 45107, Note_off_c, 3, 51, 127
2, 45125, Note_off_c, 8, 80, 127
2, 45127, Note_on_c, 7, 79, 127
2, 45127, Note_on_c, 3, 63, 127
2, 45235, Note_off_c, 3, 63, 127
2, 45237, Note_on_c, 2, 62, 127
2, 45345, Note_off_c, 2, 62, 127
2, 45345, Note_off_c, 7, 79, 127
2, 45347, Note_on_c, 3, 63, 127
2, 45347, Note_on_c, 11, 82, 127
2, 45455, Note_off_c, 11, 82, 127
2, 45457, Note_on_c, 8, 80, 127
2, 45565, Note_off_c, 8, 80, 127
2, 45567, Note_on_c, 7, 79, 127
2, 45675, Note_off_c, 7, 79, 127
2, 45677, Note_on_c, 8, 80, 127
2, 45737, Note_off_c, 3, 63, 127
2, 45786, Note_off_c, 8, 80, 127
2, 45788, Note_on_c, 11, 82, 127
2, 45788, Note_on_c, 2, 62, 127
2, 46007, Note_off_c, 2, 62, 127
2, 46007, Note_off_c, 11, 82, 127
2, 46009, Note_on_c, 3, 75, 127
2, 46009, Note_on_c, 0, 60, 127
2, 46228, Note_off_c, 0, 60, 127
2, 46228, Note_off_c, 3, 75, 127
2, 46230, Note_on_c, 7, 79, 127
2, 46230, Note_on_c, 3, 63, 127
2, 46338, Note_off_c, 3, 63, 127
2, 46338, Note_off_c, 7, 79, 127
2, 46340, Note_on_c, 5, 77, 127
2, 46340, Note_on_c, 2, 62, 127
2, 46448, Note_off_c, 2, 62, 127
2, 46448, Note_off_c, 5, 77, 127
2, 46450, Note_on_c, 3, 75, 127
2, 46450, Note_on_c, 0, 60, 127
2, 46558, Note_off_c, 0, 60, 127
2, 46558, Note_off_c, 3, 75, 127
2, 46560, Note_on_c, 5, 77, 127
2, 46560, Note_on_c, 2, 62, 127
2, 46668, Note_off_c, 2, 62, 127
2, 46668, Note_off_c, 5, 77, 127
2, 46670, Note_on_c, 7, 79, 127
2, 46670, Note_on_c, 3, 63, 127
2, 46889, Note_off_c, 3, 63, 127
2, 46889, Note_off_c, 7, 79, 127
2, 46891, Note_on_c, 0, 72, 127
2, 46891, Note_on_c, 10, 57, 127
2, 47110, Note_off_c, 10, 57, 127
2, 47110, Note_off_c, 0, 72, 127
2, 47112, Note_on_c, 3, 75, 127
2, 47112, Note_on_c, 0, 60, 127
2, 47220, Note_off_c, 0, 60, 127
2, 47220, Note_off_c, 3, 75, 127
2, 47222, Note_on_c, 2, 74, 127
2, 47222, Note_on_c, 11, 58, 127
2, 47330, Note_off_c, 11, 58, 127
2, 47330, Note_off_c, 2, 74, 127
2, 47332, Note_on_c, 0, 72, 127
2, 47332, Note_on_c, 10, 57, 127
2, 47440, Note_off_c, 10, 57, 127
2, 47440, Note_off_c, 0, 72, 127
2, 47442, Note_on_c, 2, 74, 127
2, 47442, Note_on_c, 11, 58, 127
2, 47550, Note_off_c, 11, 58, 127
2, 47550, Note_off_c, 2, 74, 127
2, 47552, Note_on_c, 3, 75, 127
2, 47552, Note_on_c, 0, 60, 127
2, 47771, Note_off_c, 0, 60, 127
2, 47771, Note_off_c, 3, 75, 127
2, 47773, Note_on_c, 10, 69, 127
2, 47773, Note_on_c, 5, 53, 127
2, 47958, Note_off_c, 10, 69, 127
2, 47972, Note_off_c, 5, 53, 127
2, 47995, Note_on_c, 0, 72, 127
2, 47995, Note_on_c, 10, 57, 127
2, 48103, Note_off_c, 10, 57, 127
2, 48103, Note_off_c, 0, 72, 127
2, 48105, Note_on_c, 2, 74, 127
2, 48105, Note_on_c, 11, 58, 127
2, 48213, Note_off_c, 11, 58, 127
2, 48213, Note_off_c, 2, 74, 127
2, 48215, Note_on_c, 3, 75, 127
2, 48215, Note_on_c, 0, 60, 127
2, 48323, Note_off_c, 0, 60, 127
2, 48323, Note_off_c, 3, 75, 127
2, 48325, Note_on_c, 2, 74, 127
2, 48325, Note_on_c, 11, 58, 127
2, 48433, Note_off_c, 11, 58, 127
2, 48433, Note_off_c, 2, 74, 127
2, 48435, Note_on_c, 0, 72, 127
2, 48435, Note_on_c, 10, 57, 127
2, 48654, Note_off_c, 10, 57, 127
2, 48654, Note_off_c, 0, 72, 127
2, 48656, Note_on_c, 5, 77, 127
2, 48656, Note_on_c, 2, 62, 127
2, 48875, Note_off_c, 2, 62, 127
2, 48875, Note_off_c, 5, 77, 127
2, 48877, Note_on_c, 8, 68, 127
2, 48877, Note_on_c, 5, 53, 127
2, 48985, Note_off_c, 5, 53, 127
2, 48985, Note_off_c, 8, 68, 127
2, 48987, Note_on_c, 7, 67, 127
2, 48987, Note_on_c, 3, 51, 127
2, 49095, Note_off_c, 3, 51, 127
2, 49095, Note_off_c, 7, 67, 127
2, 49097, Note_on_c, 5, 65, 127
2, 49097, Note_on_c, 2, 50, 127
2, 49205, Note_off_c, 2, 50, 127
2, 49205, Note_off_c, 5, 65, 127
2, 49207, Note_on_c, 7, 67, 127
2, 49207, Note_on_c, 3, 51, 127
2, 49315, Note_off_c, 3, 51, 127
2, 49315, Note_off_c, 7, 67, 127
2, 49317, Note_on_c, 8, 68, 127
2, 49317, Note_on_c, 5, 53, 127
2, 49536, Note_off_c, 5, 53, 127
2, 49536, Note_off_c, 8, 68, 127
2, 49538, Note_on_c, 7, 67, 127
2, 49538, Note_on_c, 3, 51, 127
2, 49757, Note_off_c, 3, 51, 127
2, 49757, Note_off_c, 7, 67, 127
2, 49759, Note_on_c, 11, 70, 127
2, 49759, Note_on_c, 7, 55, 127
2, 49867, Note_off_c, 7, 55, 127
2, 49867, Note_off_c, 11, 70, 127
2, 49869, Note_on_c, 0, 72, 127
2, 49869, Note_on_c, 10, 57, 127
2, 49977, Note_off_c, 10, 57, 127
2, 49977, Note_off_c, 0, 72, 127
2, 49979, Note_on_c, 2, 74, 127
2, 49979, Note_on_c, 11, 58, 127
2, 50087, Note_off_c, 11, 58, 127
2, 50087, Note_off_c, 2, 74, 127
2, 50089, Note_on_c, 0, 72, 127
2, 50089, Note_on_c, 10, 57, 127
2, 50197, Note_off_c, 10, 57, 127
2, 50197, Note_off_c, 0, 72, 127
2, 50199, Note_on_c, 11, 70, 127
2, 50199, Note_on_c, 7, 55, 127
2, 50418, Note_off_c, 7, 55, 127
2, 50418, Note_off_c, 11, 70, 127
2, 50420, Note_on_c, 3, 75, 127
2, 50420, Note_on_c, 0, 60, 127
2, 50639, Note_off_c, 0, 60, 127
2, 50639, Note_off_c, 3, 75, 127
2, 50641, Note_on_c, 7, 67, 127
2, 50641, Note_on_c, 3, 51, 127
2, 50749, Note_off_c, 3, 51, 127
2, 50749, Note_off_c, 7, 67, 127
2, 50751, Note_on_c, 5, 65, 127
2, 50751, Note_on_c, 2, 50, 127
2, 50859, Note_off_c, 2, 50, 127
2, 50859, Note_off_c, 5, 65, 127
2, 50861, Note_on_c, 3, 63, 127
2, 50861, Note_on_c, 0, 48, 127
2, 50969, Note_off_c, 0, 48, 127
2, 50969, Note_off_c, 3, 63, 127
2, 50971, Note_on_c, 5, 65, 127
2, 50971, Note_on_c, 2, 50, 127
2, 51079, Note_off_c, 2, 50, 127
2, 51079, Note_off_c, 5, 65, 127
2, 51081, Note_on_c, 7, 67, 127
2, 51081, Note_on_c, 3, 51, 127
2, 51300, Note_off_c, 3, 51, 127
2, 51300, Note_off_c, 7, 67, 127
2, 51302, Note_on_c, 5, 65, 127
2, 51302, Note_on_c, 2, 50, 127
2, 51521, Note_off_c, 2, 50, 127
2, 51521, Note_off_c, 5, 65, 127
2, 51523, Note_on_c, 10, 69, 127
2, 51523, Note_on_c, 5, 53, 127
2, 51631, Note_off_c, 5, 53, 127
2, 51631, Note_off_c, 10, 69, 127
2, 51633, Note_on_c, 11, 70, 127
2, 51633, Note_on_c, 7, 55, 127
2, 51741, Note_off_c, 7, 55, 127
2, 51741, Note_off_c, 11, 70, 127
2, 51743, Note_on_c, 0, 72, 127
2, 51743, Note_on_c, 10, 57, 127
2, 51851, Note_off_c, 10, 57, 127
2, 51851, Note_off_c, 0, 72, 127
2, 51853, Note_on_c, 11, 70, 127
2, 51853, Note_on_c, 7, 55, 127
2, 51961, Note_off_c, 7, 55, 127
2, 51961, Note_off_c, 11, 70, 127
2, 51963, Note_on_c, 10, 69, 127
2, 51963, Note_on_c, 5, 53, 127
2, 52182, Note_off_c, 5, 53, 127
2, 52182, Note_off_c, 10, 69, 127
2, 52184, Note_on_c, 2, 74, 127
2, 52184, Note_on_c, 11, 58, 127
2, 52403, Note_off_c, 11, 58, 127
2, 52403, Note_off_c, 2, 74, 127
2, 52405, Note_on_c, 5, 65, 127
2, 52405, Note_on_c, 2, 50, 127
2, 52513, Note_off_c, 2, 50, 127
2, 52513, Note_off_c, 5, 65, 127
2, 52515, Note_on_c, 3, 63, 127
2, 52515, Note_on_c, 0, 48, 127
2, 52623, Note_off_c, 0, 48, 127
2, 52623, Note_off_c, 3, 63, 127
2, 52625, Note_on_c, 2, 62, 127
2, 52625, Note_on_c, 11, 46, 127
2, 52733, Note_off_c, 11, 46, 127
2, 52733, Note_off_c, 2, 62, 127
2, 52735, Note_on_c, 3, 63, 127
2, 52735, Note_on_c, 0, 48, 127
2, 52843, Note_off_c, 0, 48, 127
2, 52843, Note_off_c, 3, 63, 127
2, 52845, Note_on_c, 5, 65, 127
2, 52845, Note_on_c, 2, 50, 127
2, 53064, Note_off_c, 2, 50, 127
2, 53064, Note_off_c, 5, 65, 127
2, 53066, Note_on_c, 3, 63, 127
2, 53066, Note_on_c, 0, 48, 127
2, 53285, Note_off_c, 0, 48, 127
2, 53285, Note_off_c, 3, 63, 127
2, 53287, Note_on_c, 7, 67, 127
2, 53287, Note_on_c, 3, 51, 127
2, 53395, Note_off_c, 3, 51, 127
2, 53395, Note_off_c, 7, 67, 127
2, 53397, Note_on_c, 10, 69, 127
2, 53397, Note_on_c, 5, 53, 127
2, 53505, Note_off_c, 5, 53, 127
2, 53505, Note_off_c, 10, 69, 127
2, 53507, Note_on_c, 11, 70, 127
2, 53507, Note_on_c, 7, 55, 127
2, 53615, Note_off_c, 7, 55, 127
2, 53615, Note_off_c, 11, 70, 127
2, 53617, Note_on_c, 10, 69, 127
2, 53617, Note_on_c, 5, 53, 127
2, 53725, Note_off_c, 5, 53, 127
2, 53725, Note_off_c, 10, 69, 127
2, 53727, Note_on_c, 7, 67, 127
2, 53727, Note_on_c, 3, 51, 127
2, 53946, Note_off_c, 3, 51, 127
2, 53946, Note_off_c, 7, 67, 127
2, 53948, Note_on_c, 0, 72, 127
2, 53948, Note_on_c, 10, 57, 127
2, 54167, Note_off_c, 10, 57, 127
2, 54167, Note_off_c, 0, 72, 127
2, 54169, Note_on_c, 3, 63, 127
2, 54169, Note_on_c, 0, 48, 127
2, 54277, Note_off_c, 0, 48, 127
2, 54277, Note_off_c, 3, 63, 127
2, 54279, Note_on_c, 2, 62, 127
2, 54279, Note_on_c, 11, 46, 127
2, 54387, Note_off_c, 11, 46, 127
2, 54387, Note_off_c, 2, 62, 127
2, 54389, Note_on_c, 0, 60, 127
2, 54389, Note_on_c, 10, 45, 127
2, 54497, Note_off_c, 10, 45, 127
2, 54497, Note_off_c, 0, 60, 127
2, 54499, Note_on_c, 2, 62, 127
2, 54499, Note_on_c, 11, 46, 127
2, 54607, Note_off_c, 11, 46, 127
2, 54607, Note_off_c, 2, 62, 127
2, 54609, Note_on_c, 3, 63, 127
2, 54609, Note_on_c, 0, 48, 127
2, 54828, Note_off_c, 0, 48, 127
2, 54828, Note_off_c, 3, 63, 127
2, 54830, Note_on_c, 2, 62, 127
2, 54830, Note_on_c, 11, 46, 127
2, 54938, Note_off_c, 2, 62, 127
2, 54940, Note_on_c, 0, 60, 127
2, 55048, Note_off_c, 0, 60, 127
2, 55048, Note_off_c, 11, 46, 127
2, 55050, Note_on_c, 2, 62, 127
2, 55050, Note_on_c, 11, 58, 127
2, 55158, Note_off_c, 11, 58, 127
2, 55160, Note_on_c, 0, 60, 127
2, 55257, Note_off_c, 2, 62, 127
2, 55269, Note_off_c, 0, 60, 127
2, 55271, Note_on_c, 2, 62, 127
2, 55382, Note_on_c, 0, 60, 127
2, 55490, Note_off_c, 0, 60, 127
2, 55492, Note_on_c, 11, 58, 127
2, 55640, Note_off_c, 2, 62, 127
2, 55712, Note_off_c, 11, 58, 127
2, 55714, Note_on_c, 5, 65, 127
2, 55933, Note_off_c, 5, 65, 127
2, 55935, Note_on_c, 11, 70, 127
2, 55935, Note_on_c, 2, 62, 127
2, 56043, Note_off_c, 11, 70, 127
2, 56045, Note_on_c, 0, 72, 127
2, 56153, Note_off_c, 0, 72, 127
2, 56153, Note_off_c, 2, 62, 127
2, 56155, Note_on_c, 2, 74, 127
2, 56155, Note_on_c, 11, 70, 127
2, 56263, Note_off_c, 2, 74, 127
2, 56265, Note_on_c, 0, 72, 127
2, 56373, Note_off_c, 0, 72, 127
2, 56373, Note_off_c, 11, 70, 127
2, 56375, Note_on_c, 11, 70, 127
2, 56375, Note_on_c, 5, 65, 127
2, 56594, Note_off_c, 5, 65, 127
2, 56594, Note_off_c, 11, 70, 127
2, 56596, Note_on_c, 5, 77, 127
2, 56596, Note_on_c, 2, 62, 127
2, 56815, Note_off_c, 2, 62, 127
2, 56815, Note_off_c, 5, 77, 127
2, 56817, Note_on_c, 2, 74, 127
2, 56817, Note_on_c, 5, 65, 127
2, 56925, Note_off_c, 5, 65, 127
2, 56927, Note_on_c, 3, 63, 127
2, 57035, Note_off_c, 3, 63, 127
2, 57035, Note_off_c, 2, 74, 127
2, 57037, Note_on_c, 11, 82, 127
2, 57037, Note_on_c, 2, 62, 127
2, 57145, Note_off_c, 2, 62, 127
2, 57147, Note_on_c, 3, 63, 127
2, 57255, Note_off_c, 3, 63, 127
2, 57255, Note_off_c, 11, 82, 127
2, 57257, Note_on_c, 5, 77, 127
2, 57257, Note_on_c, 5, 65, 127
2, 57476, Note_off_c, 5, 65, 127
2, 57476, Note_off_c, 5, 77, 127
2, 57478, Note_on_c, 2, 74, 127
2, 57478, Note_on_c, 11, 58, 127
2, 57697, Note_off_c, 11, 58, 127
2, 57697, Note_off_c, 2, 74, 127
2, 57699, Note_on_c, 5, 77, 127
2, 57699, Note_on_c, 2, 62, 127
2, 57807, Note_off_c, 5, 77, 127
2, 57809, Note_on_c, 3, 75, 127
2, 57917, Note_off_c, 3, 75, 127
2, 57917, Note_off_c, 2, 62, 127
2, 57919, Note_on_c, 2, 74, 127
2, 57919, Note_on_c, 5, 53, 127
2, 58027, Note_off_c, 2, 74, 127
2, 58029, Note_on_c, 3, 75, 127
2, 58137, Note_off_c, 3, 75, 127
2, 58137, Note_off_c, 5, 53, 127
2, 58139, Note_on_c, 5, 77, 127
2, 58139, Note_on_c, 8, 56, 127
2, 58358, Note_off_c, 8, 56, 127
2, 58358, Note_off_c, 5, 77, 127
2, 58360, Note_on_c, 11, 70, 127
2, 58360, Note_on_c, 7, 55, 127
2, 58579, Note_off_c, 7, 55, 127
2, 58579, Note_off_c, 11, 70, 127
2, 58581, Note_on_c, 3, 75, 127
2, 58581, Note_on_c, 3, 51, 127
2, 58689, Note_off_c, 3, 51, 127
2, 58691, Note_on_c, 5, 53, 127
2, 58799, Note_off_c, 5, 53, 127
2, 58799, Note_off_c, 3, 75, 127
2, 58801, Note_on_c, 11, 70, 127
2, 58801, Note_on_c, 7, 55, 127
2, 58909, Note_off_c, 7, 55, 127
2, 58911, Note_on_c, 5, 53, 127
2, 59019, Note_off_c, 5, 53, 127
2, 59019, Note_off_c, 11, 70, 127
2, 59021, Note_on_c, 3, 75, 127
2, 59021, Note_on_c, 3, 51, 127
2, 59240, Note_off_c, 3, 51, 127
2, 59240, Note_off_c, 3, 75, 127
2, 59242, Note_on_c, 7, 67, 127
2, 59242, Note_on_c, 11, 58, 127
2, 59461, Note_off_c, 11, 58, 127
2, 59461, Note_off_c, 7, 67, 127
2, 59463, Note_on_c, 3, 63, 127
2, 59463, Note_on_c, 7, 55, 127
2, 59571, Note_off_c, 3, 63, 127
2, 59573, Note_on_c, 5, 65, 127
2, 59681, Note_off_c, 5, 65, 127
2, 59681, Note_off_c, 7, 55, 127
2, 59683, Note_on_c, 7, 67, 127
2, 59683, Note_on_c, 3, 63, 127
2, 59791, Note_off_c, 7, 67, 127
2, 59793, Note_on_c, 5, 65, 127
2, 59901, Note_off_c, 5, 65, 127
2, 59901, Note_off_c, 3, 63, 127
2, 59903, Note_on_c, 3, 63, 127
2, 59903, Note_on_c, 11, 58, 127
2, 60122, Note_off_c, 11, 58, 127
2, 60122, Note_off_c, 3, 63, 127
2, 60124, Note_on_c, 11, 70, 127
2, 60124, Note_on_c, 7, 55, 127
2, 60343, Note_off_c, 7, 55, 127
2, 60343, Note_off_c, 11, 70, 127
2, 60345, Note_on_c, 7, 67, 127
2, 60345, Note_on_c, 11, 58, 127
2, 60453, Note_off_c, 11, 58, 127
2, 60455, Note_on_c, 8, 56, 127
2, 60563, Note_off_c, 8, 56, 127
2, 60563, Note_off_c, 7, 67, 127
2, 60565, Note_on_c, 3, 75, 127
2, 60565, Note_on_c, 7, 55, 127
2, 60673, Note_off_c, 7, 55, 127
2, 60675, Note_on_c, 8, 56, 127
2, 60783, Note_off_c, 8, 56, 127
2, 60783, Note_off_c, 3, 75, 127
2, 60785, Note_on_c, 11, 70, 127
2, 60785, Note_on_c, 11, 58, 127
2, 61004, Note_off_c, 11, 58, 127
2, 61004, Note_off_c, 11, 70, 127
2, 61006, Note_on_c, 7, 67, 127
2, 61006, Note_on_c, 3, 51, 127
2, 61225, Note_off_c, 3, 51, 127
2, 61225, Note_off_c, 7, 67, 127
2, 61227, Note_on_c, 11, 70, 127
2, 61227, Note_on_c, 7, 55, 127
2, 61335, Note_off_c, 11, 70, 127
2, 61337, Note_on_c, 8, 68, 127
2, 61445, Note_off_c, 8, 68, 127
2, 61445, Note_off_c, 7, 55, 127
2, 61447, Note_on_c, 7, 67, 127
2, 61447, Note_on_c, 11, 46, 127
2, 61555, Note_off_c, 7, 67, 127
2, 61557, Note_on_c, 8, 68, 127
2, 61665, Note_off_c, 8, 68, 127
2, 61665, Note_off_c, 11, 46, 127
2, 61667, Note_on_c, 11, 70, 127
2, 61667, Note_on_c, 2, 50, 127
2, 61886, Note_off_c, 2, 50, 127
2, 61886, Note_off_c, 11, 70, 127
2, 61888, Note_on_c, 3, 63, 127
2, 61888, Note_on_c, 0, 48, 127
2, 62096, Note_off_c, 0, 48, 127
2, 62110, Note_on_c, 5, 41, 127
2, 62218, Note_off_c, 5, 41, 127
2, 62220, Note_on_c, 7, 43, 127
2, 62280, Note_off_c, 3, 63, 127
2, 62328, Note_off_c, 7, 43, 127
2, 62330, Note_on_c, 3, 75, 127
2, 62330, Note_on_c, 10, 45, 127
2, 62438, Note_off_c, 10, 45, 127
2, 62438, Note_off_c, 3, 75, 127
2, 62440, Note_on_c, 2, 74, 127
2, 62440, Note_on_c, 7, 43, 127
2, 62548, Note_off_c, 7, 43, 127
2, 62548, Note_off_c, 2, 74, 127
2, 62550, Note_on_c, 3, 75, 127
2, 62550, Note_on_c, 5, 41, 127
2, 62769, Note_off_c, 5, 41, 127
2, 62771, Note_on_c, 0, 48, 127
2, 62990, Note_off_c, 0, 48, 127
2, 62990, Note_off_c, 3, 75, 127
2, 62992, Note_on_c, 3, 75, 127
2, 62992, Note_on_c, 10, 45, 127
2, 63100, Note_off_c, 3, 75, 127
2, 63102, Note_on_c, 2, 74, 127
2, 63210, Note_off_c, 2, 74, 127
2, 63210, Note_off_c, 10, 45, 127
2, 63212, Note_on_c, 0, 72, 127
2, 63212, Note_on_c, 3, 51, 127
2, 63320, Note_off_c, 0, 72, 127
2, 63322, Note_on_c, 2, 74, 127
2, 63430, Note_off_c, 2, 74, 127
2, 63430, Note_off_c, 3, 51, 127
2, 63432, Note_on_c, 3, 75, 127
2, 63432, Note_on_c, 0, 48, 127
2, 63651, Note_off_c, 0, 48, 127
2, 63651, Note_off_c, 3, 75, 127
2, 63653, Note_on_c, 5, 65, 127
2, 63653, Note_on_c, 10, 45, 127
2, 63872, Note_off_c, 10, 45, 127
2, 63874, Note_on_c, 0, 48, 127
2, 63982, Note_off_c, 0, 48, 127
2, 63984, Note_on_c, 11, 46, 127
2, 64044, Note_off_c, 5, 65, 127
2, 64092, Note_off_c, 11, 46, 127
2, 64094, Note_on_c, 3, 75, 127
2, 64094, Note_on_c, 10, 45, 127
2, 64202, Note_off_c, 10, 45, 127
2, 64202, Note_off_c, 3, 75, 127
2, 64204, Note_on_c, 2, 74, 127
2, 64204, Note_on_c, 11, 46, 127
2, 64312, Note_off_c, 11, 46, 127
2, 64312, Note_off_c, 2, 74, 127
2, 64314, Note_on_c, 3, 75, 127
2, 64314, Note_on_c, 0, 48, 127
2, 64533, Note_off_c, 0, 48, 127
2, 64535, Note_on_c, 5, 41, 127
2, 64754, Note_off_c, 5, 41, 127
2, 64754, Note_off_c, 3, 75, 127
2, 64756, Note_on_c, 0, 72, 127
2, 64756, Note_on_c, 10, 45, 127
2, 64864, Note_off_c, 0, 72, 127
2, 64866, Note_on_c, 2, 74, 127
2, 64974, Note_off_c, 2, 74, 127
2, 64974, Note_off_c, 10, 45, 127
2, 64976, Note_on_c, 3, 75, 127
2, 64976, Note_on_c, 0, 36, 127
2, 65084, Note_off_c, 3, 75, 127
2, 65086, Note_on_c, 2, 74, 127
2, 65194, Note_off_c, 2, 74, 127
2, 65194, Note_off_c, 0, 36, 127
2, 65196, Note_on_c, 0, 72, 127
2, 65196, Note_on_c, 3, 39, 127
2, 65415, Note_off_c, 3, 39, 127
2, 65415, Note_off_c, 0, 72, 127
2, 65417, Note_on_c, 5, 77, 127
2, 65417, Note_on_c, 2, 38, 127
2, 65641, Note_off_c, 2, 38, 127
2, 65641, Note_off_c, 5, 77, 127
2, 65643, Note_on_c, 2, 74, 127
2, 65643, Note_on_c, 11, 46, 127
2, 65754, Note_off_c, 11, 46, 127
2, 65754, Note_off_c, 2, 74, 127
2, 65756, Note_on_c, 0, 72, 127
2, 65756, Note_on_c, 0, 48, 127
2, 65867, Note_off_c, 0, 48, 127
2, 65867, Note_off_c, 0, 72, 127
2, 65869, Note_on_c, 11, 70, 127
2, 65869, Note_on_c, 2, 50, 127
2, 65982, Note_off_c, 2, 50, 127
2, 65982, Note_off_c, 11, 70, 127
2, 65984, Note_on_c, 0, 72, 127
2, 65984, Note_on_c, 0, 48, 127
2, 66097, Note_off_c, 0, 48, 127
2, 66097, Note_off_c, 0, 72, 127
2, 66099, Note_on_c, 2, 74, 127
2, 66099, Note_on_c, 11, 46, 127
2, 66327, Note_off_c, 11, 46, 127
2, 66327, Note_off_c, 2, 74, 127
2, 66329, Note_on_c, 5, 65, 127
2, 66329, Note_on_c, 5, 53, 127
2, 66577, Note_off_c, 5, 65, 127
2, 66580, Note_on_c, 11, 70, 127
2, 66828, Note_off_c, 11, 70, 127
2, 66828, Note_off_c, 5, 53, 127
2, 66831, Note_on_c, 0, 72, 127
2, 66831, Note_on_c, 5, 41, 127
2, 67084, Note_off_c, 0, 72, 127
2, 67087, Note_on_c, 10, 69, 127
2, 67340, Note_off_c, 10, 69, 127
2, 67340, Note_off_c, 5, 41, 127
2, 67359, Note_on_c, 11, 46, 127
2, 67359, Note_on_c, 11, 70, 127
2, 70159, Note_off_c, 11, 70, 127
2, 70159, Note_off_c, 11, 46, 127
2, 72960, End_track
3, 0, Start_track
3, 0, Title_t, "MIDI"
3, 1536, End_track
0, 0, End_of_file
