0, 0, Header, 1, 3, 384
1, 0, Start_track
1, 0, Tempo, 500000
1, 0, Time_signature, 4, 2, 24, 8
1, 70656, End_track
2, 0, Start_track
2, 0, Text_t, "harpsichord: John Sankey"
2, 0, Program_c, 0, 6
2, 0, Pitch_bend_c, 0, 8192
2, 0, Program_c, 1, 6
2, 0, Pitch_bend_c, 1, 7792
2, 0, Program_c, 2, 6
2, 0, Pitch_bend_c, 2, 7876
2, 0, Program_c, 3, 6
2, 0, Pitch_bend_c, 3, 7952
2, 0, Program_c, 4, 6
2, 0, Pitch_bend_c, 4, 7792
2, 0, Program_c, 5, 6
2, 0, Pitch_bend_c, 5, 8112
2, 0, Program_c, 6, 6
2, 0, Pitch_bend_c, 6, 7712
2, 0, Program_c, 7, 6
2, 0, Pitch_bend_c, 7, 8037
2, 0, Program_c, 8, 6
2, 0, Pitch_bend_c, 8, 7872
2, 0, Program_c, 10, 6
2, 0, Pitch_bend_c, 10, 7712
2, 0, Program_c, 11, 6
2, 0, Pitch_bend_c, 11, 8032
2, 0, Program_c, 12, 6
2, 0, Pitch_bend_c, 12, 7872
2, 0, Title_t, "Track 1"
2, 111, Note_on_c, 2, 62, 127
2, 293, Note_off_c, 2, 62, 127
2, 295, Note_on_c, 4, 64, 127
2, 477, Note_off_c, 4, 64, 127
2, 481, Note_on_c, 6, 66, 127
2, 663, Note_off_c, 6, 66, 127
2, 667, Note_on_c, 4, 64, 127
2, 849, Note_off_c, 4, 64, 127
2, 852, Note_on_c, 7, 67, 127
2, 1034, Note_off_c, 7, 67, 127
2, 1038, Note_on_c, 6, 66, 127
2, 1220, Note_off_c, 6, 66, 127
2, 1225, Note_on_c, 4, 64, 127
2, 1407, Note_off_c, 4, 64, 127
2, 1410, Note_on_c, 2, 62, 127
2, 1592, Note_off_c, 2, 62, 127
2, 1596, Note_on_c, 10, 69, 127
2, 1778, Note_off_c, 10, 69, 127
2, 1781, Note_on_c, 7, 67, 127
2, 1963, Note_off_c, 7, 67, 127
2, 1967, Note_on_c, 6, 66, 127
2, 2149, Note_off_c, 6, 66, 127
2, 2152, Note_on_c, 4, 64, 127
2, 2334, Note_off_c, 4, 64, 127
2, 2338, Note_on_c, 6, 66, 127
2, 2338, Note_on_c, 2, 50, 127
2, 2520, Note_off_c, 2, 50, 127
2, 2520, Note_off_c, 6, 66, 127
2, 2525, Note_on_c, 2, 62, 127
2, 2525, Note_on_c, 4, 52, 127
2, 2707, Note_off_c, 4, 52, 127
2, 2707, Note_off_c, 2, 62, 127
2, 2710, Note_on_c, 10, 69, 127
2, 2710, Note_on_c, 6, 54, 127
2, 2892, Note_off_c, 6, 54, 127
2, 2896, Note_on_c, 4, 52, 127
2, 3078, Note_off_c, 4, 52, 127
2, 3078, Note_off_c, 10, 69, 127
2, 3082, Note_on_c, 12, 71, 127
2, 3082, Note_on_c, 7, 55, 127
2, 3264, Note_off_c, 7, 55, 127
2, 3266, Note_on_c, 6, 54, 127
2, 3448, Note_off_c, 6, 54, 127
2, 3450, Note_off_c, 12, 71, 127
2, 3452, Note_on_c, 1, 73, 127
2, 3452, Note_on_c, 4, 52, 127
2, 3541, Note_off_c, 1, 73, 127
2, 3546, Note_on_c, 12, 71, 127
2, 3634, Note_off_c, 4, 52, 127
2, 3635, Note_off_c, 12, 71, 127
2, 3638, Note_on_c, 1, 73, 127
2, 3638, Note_on_c, 2, 50, 127
2, 3727, Note_off_c, 1, 73, 127
2, 3732, Note_on_c, 2, 74, 127
2, 3820, Note_off_c, 2, 50, 127
2, 3821, Note_off_c, 2, 74, 127
2, 3825, Note_on_c, 2, 74, 127
2, 3825, Note_on_c, 10, 57, 127
2, 3914, Note_off_c, 2, 74, 127
2, 3916, Note_on_c, 1, 73, 127
2, 4005, Note_off_c, 1, 73, 127
2, 4007, Note_off_c, 10, 57, 127
2, 4010, Note_on_c, 2, 74, 127
2, 4010, Note_on_c, 7, 55, 127
2, 4099, Note_off_c, 2, 74, 127
2, 4102, Note_on_c, 1, 73, 127
2, 4191, Note_off_c, 1, 73, 127
2, 4192, Note_off_c, 7, 55, 127
2, 4196, Note_on_c, 12, 71, 127
2, 4196, Note_on_c, 6, 54, 127
2, 4378, Note_off_c, 6, 54, 127
2, 4378, Note_off_c, 12, 71, 127
2, 4382, Note_on_c, 10, 69, 127
2, 4382, Note_on_c, 4, 52, 127
2, 4540, Note_off_c, 10, 69, 127
2, 4562, Note_off_c, 4, 52, 127
2, 4565, Note_on_c, 1, 73, 127
2, 4565, Note_on_c, 6, 54, 127
2, 4747, Note_off_c, 6, 54, 127
2, 4747, Note_off_c, 1, 73, 127
2, 4751, Note_on_c, 2, 74, 127
2, 4751, Note_on_c, 2, 50, 127
2, 4933, Note_off_c, 2, 50, 127
2, 4933, Note_off_c, 2, 74, 127
2, 4937, Note_on_c, 4, 76, 127
2, 4937, Note_on_c, 10, 57, 127
2, 5122, Note_on_c, 1, 73, 127
2, 5128, Note_off_c, 4, 76, 127
2, 5304, Note_off_c, 1, 73, 127
2, 5308, Note_on_c, 6, 78, 127
2, 5308, Note_on_c, 10, 45, 127
2, 5493, Note_on_c, 2, 74, 127
2, 5537, Note_off_c, 6, 78, 127
2, 5668, Note_off_c, 10, 57, 127
2, 5673, Note_off_c, 2, 74, 127
2, 5676, Note_on_c, 1, 73, 127
2, 5676, Note_on_c, 10, 57, 127
2, 5691, Note_off_c, 10, 45, 127
2, 5858, Note_off_c, 1, 73, 127
2, 5862, Note_on_c, 12, 71, 127
2, 6044, Note_off_c, 12, 71, 127
2, 6044, Note_off_c, 10, 57, 127
2, 6048, Note_on_c, 4, 76, 127
2, 6048, Note_on_c, 10, 57, 127
2, 6233, Note_on_c, 1, 73, 127
2, 6239, Note_off_c, 4, 76, 127
2, 6415, Note_off_c, 1, 73, 127
2, 6418, Note_on_c, 2, 74, 127
2, 6418, Note_on_c, 10, 45, 127
2, 6604, Note_on_c, 12, 71, 127
2, 6647, Note_off_c, 2, 74, 127
2, 6779, Note_off_c, 10, 57, 127
2, 6784, Note_off_c, 12, 71, 127
2, 6789, Note_on_c, 10, 69, 127
2, 6789, Note_on_c, 10, 57, 127
2, 6801, Note_off_c, 10, 45, 127
2, 6971, Note_off_c, 10, 69, 127
2, 6973, Note_on_c, 8, 68, 127
2, 7155, Note_off_c, 8, 68, 127
2, 7157, Note_off_c, 10, 57, 127
2, 7159, Note_on_c, 4, 76, 127
2, 7159, Note_on_c, 10, 57, 127
2, 7334, Note_off_c, 4, 76, 127
2, 7344, Note_on_c, 1, 73, 127
2, 7514, Note_off_c, 10, 57, 127
2, 7519, Note_off_c, 1, 73, 127
2, 7528, Note_on_c, 6, 78, 127
2, 7528, Note_on_c, 10, 45, 127
2, 7703, Note_off_c, 6, 78, 127
2, 7713, Note_on_c, 2, 74, 127
2, 7883, Note_off_c, 10, 45, 127
2, 7888, Note_off_c, 2, 74, 127
2, 7898, Note_on_c, 1, 73, 127
2, 7898, Note_on_c, 10, 57, 127
2, 8073, Note_off_c, 1, 73, 127
2, 8082, Note_on_c, 12, 71, 127
2, 8253, Note_off_c, 10, 57, 127
2, 8257, Note_off_c, 12, 71, 127
2, 8266, Note_on_c, 4, 76, 127
2, 8266, Note_on_c, 10, 57, 127
2, 8441, Note_off_c, 4, 76, 127
2, 8452, Note_on_c, 1, 73, 127
2, 8621, Note_off_c, 10, 57, 127
2, 8627, Note_off_c, 1, 73, 127
2, 8637, Note_on_c, 2, 74, 127
2, 8637, Note_on_c, 10, 45, 127
2, 8812, Note_off_c, 2, 74, 127
2, 8821, Note_on_c, 12, 71, 127
2, 8992, Note_off_c, 10, 45, 127
2, 8996, Note_off_c, 12, 71, 127
2, 9006, Note_on_c, 10, 69, 127
2, 9006, Note_on_c, 10, 57, 127
2, 9181, Note_off_c, 10, 69, 127
2, 9190, Note_on_c, 8, 68, 127
2, 9333, Note_off_c, 10, 57, 127
2, 9369, Note_off_c, 8, 68, 127
2, 9375, Note_on_c, 1, 73, 127
2, 9375, Note_on_c, 10, 57, 127
2, 9557, Note_off_c, 1, 73, 127
2, 9561, Note_on_c, 12, 71, 127
2, 9743, Note_off_c, 12, 71, 127
2, 9743, Note_off_c, 10, 57, 127
2, 9747, Note_on_c, 2, 74, 127
2, 9747, Note_on_c, 12, 59, 127
2, 9929, Note_off_c, 2, 74, 127
2, 9933, Note_on_c, 1, 73, 127
2, 10115, Note_off_c, 1, 73, 127
2, 10115, Note_off_c, 12, 59, 127
2, 10119, Note_on_c, 12, 71, 127
2, 10119, Note_on_c, 1, 61, 127
2, 10301, Note_off_c, 12, 71, 127
2, 10305, Note_on_c, 10, 69, 127
2, 10487, Note_off_c, 10, 69, 127
2, 10487, Note_off_c, 1, 61, 127
2, 10491, Note_on_c, 6, 78, 127
2, 10491, Note_on_c, 2, 62, 127
2, 10673, Note_off_c, 2, 62, 127
2, 10675, Note_on_c, 1, 61, 127
2, 10857, Note_off_c, 1, 61, 127
2, 10859, Note_off_c, 6, 78, 127
2, 10861, Note_on_c, 8, 68, 127
2, 10861, Note_on_c, 4, 64, 127
2, 11043, Note_off_c, 4, 64, 127
2, 11047, Note_on_c, 2, 62, 127
2, 11229, Note_off_c, 2, 62, 127
2, 11229, Note_off_c, 8, 68, 127
2, 11233, Note_on_c, 10, 69, 127
2, 11233, Note_on_c, 1, 61, 127
2, 11415, Note_off_c, 1, 61, 127
2, 11419, Note_on_c, 12, 59, 127
2, 11508, Note_off_c, 10, 69, 127
2, 11511, Note_on_c, 12, 71, 127
2, 11600, Note_off_c, 12, 71, 127
2, 11601, Note_off_c, 12, 59, 127
2, 11605, Note_on_c, 10, 69, 127
2, 11605, Note_on_c, 1, 61, 127
2, 11694, Note_off_c, 10, 69, 127
2, 11697, Note_on_c, 8, 68, 127
2, 11786, Note_off_c, 8, 68, 127
2, 11787, Note_off_c, 1, 61, 127
2, 11790, Note_on_c, 10, 69, 127
2, 11790, Note_on_c, 2, 62, 127
2, 11879, Note_off_c, 10, 69, 127
2, 11883, Note_on_c, 12, 71, 127
2, 11972, Note_off_c, 12, 71, 127
2, 11972, Note_off_c, 2, 62, 127
2, 11975, Note_on_c, 1, 73, 127
2, 11975, Note_on_c, 4, 64, 127
2, 12095, Note_off_c, 1, 73, 127
2, 12099, Note_on_c, 12, 71, 127
2, 12159, Note_off_c, 12, 71, 127
2, 12160, Note_on_c, 1, 73, 127
2, 12220, Note_off_c, 1, 73, 127
2, 12222, Note_on_c, 12, 71, 127
2, 12282, Note_off_c, 12, 71, 127
2, 12283, Note_on_c, 1, 73, 127
2, 12343, Note_off_c, 1, 73, 127
2, 12344, Note_on_c, 12, 71, 127
2, 12344, Note_on_c, 4, 52, 127
2, 12526, Note_off_c, 12, 71, 127
2, 12529, Note_on_c, 10, 69, 127
2, 12705, Note_off_c, 4, 64, 127
2, 12709, Note_off_c, 10, 69, 127
2, 12711, Note_off_c, 4, 52, 127
2, 12715, Note_on_c, 10, 69, 127
2, 12715, Note_on_c, 10, 57, 127
2, 12897, Note_off_c, 10, 57, 127
2, 12901, Note_on_c, 4, 52, 127
2, 13083, Note_off_c, 4, 52, 127
2, 13085, Note_on_c, 6, 54, 127
2, 13267, Note_off_c, 6, 54, 127
2, 13271, Note_on_c, 8, 56, 127
2, 13453, Note_off_c, 8, 56, 127
2, 13457, Note_on_c, 10, 57, 127
2, 13564, Note_off_c, 10, 69, 127
2, 13639, Note_off_c, 10, 57, 127
2, 13642, Note_on_c, 12, 59, 127
2, 13824, Note_off_c, 12, 59, 127
2, 13828, Note_on_c, 1, 61, 127
2, 14010, Note_off_c, 1, 61, 127
2, 14015, Note_on_c, 12, 59, 127
2, 14197, Note_off_c, 12, 59, 127
2, 14201, Note_on_c, 4, 76, 127
2, 14201, Note_on_c, 2, 62, 127
2, 14383, Note_off_c, 2, 62, 127
2, 14386, Note_on_c, 1, 61, 127
2, 14562, Note_off_c, 4, 76, 127
2, 14568, Note_off_c, 1, 61, 127
2, 14571, Note_on_c, 10, 81, 127
2, 14571, Note_on_c, 12, 59, 127
2, 14753, Note_off_c, 12, 59, 127
2, 14757, Note_on_c, 10, 57, 127
2, 14939, Note_off_c, 10, 57, 127
2, 14942, Note_on_c, 4, 64, 127
2, 15125, Note_off_c, 10, 81, 127
2, 15128, Note_on_c, 12, 71, 127
2, 15310, Note_off_c, 12, 71, 127
2, 15315, Note_on_c, 1, 73, 127
2, 15315, Note_on_c, 4, 52, 127
2, 15497, Note_off_c, 1, 73, 127
2, 15500, Note_on_c, 3, 75, 127
2, 15682, Note_off_c, 3, 75, 127
2, 15686, Note_on_c, 4, 76, 127
2, 15868, Note_off_c, 4, 76, 127
2, 15869, Note_off_c, 4, 64, 127
2, 15871, Note_off_c, 4, 52, 127
2, 15872, Note_on_c, 6, 78, 127
2, 16054, Note_off_c, 6, 78, 127
2, 16057, Note_on_c, 7, 79, 127
2, 16239, Note_off_c, 7, 79, 127
2, 16242, Note_on_c, 6, 78, 127
2, 16424, Note_off_c, 6, 78, 127
2, 16428, Note_on_c, 10, 81, 127
2, 16428, Note_on_c, 12, 59, 127
2, 16610, Note_off_c, 10, 81, 127
2, 16615, Note_on_c, 7, 79, 127
2, 16796, Note_off_c, 12, 59, 127
2, 16797, Note_off_c, 7, 79, 127
2, 16800, Note_on_c, 6, 78, 127
2, 16800, Note_on_c, 4, 64, 127
2, 16982, Note_off_c, 6, 78, 127
2, 16986, Note_on_c, 4, 76, 127
2, 17168, Note_off_c, 4, 76, 127
2, 17172, Note_on_c, 12, 83, 127
2, 17354, Note_off_c, 4, 64, 127
2, 17356, Note_on_c, 6, 54, 127
2, 17538, Note_off_c, 6, 54, 127
2, 17542, Note_on_c, 12, 71, 127
2, 17542, Note_on_c, 8, 56, 127
2, 17724, Note_off_c, 8, 56, 127
2, 17728, Note_on_c, 11, 58, 127
2, 17910, Note_off_c, 11, 58, 127
2, 17915, Note_on_c, 12, 59, 127
2, 18097, Note_off_c, 12, 59, 127
2, 18100, Note_on_c, 1, 61, 127
2, 18275, Note_off_c, 12, 71, 127
2, 18280, Note_off_c, 1, 61, 127
2, 18282, Note_off_c, 12, 83, 127
2, 18285, Note_on_c, 2, 62, 127
2, 18467, Note_off_c, 2, 62, 127
2, 18471, Note_on_c, 1, 61, 127
2, 18653, Note_off_c, 1, 61, 127
2, 18655, Note_on_c, 6, 66, 127
2, 18655, Note_on_c, 4, 64, 127
2, 18837, Note_off_c, 4, 64, 127
2, 18841, Note_on_c, 2, 62, 127
2, 19023, Note_off_c, 2, 62, 127
2, 19023, Note_off_c, 6, 66, 127
2, 19027, Note_on_c, 12, 71, 127
2, 19027, Note_on_c, 1, 61, 127
2, 19116, Note_off_c, 12, 71, 127
2, 19121, Note_on_c, 11, 70, 127
2, 19209, Note_off_c, 1, 61, 127
2, 19210, Note_off_c, 11, 70, 127
2, 19212, Note_on_c, 12, 71, 127
2, 19212, Note_on_c, 12, 59, 127
2, 19394, Note_off_c, 12, 59, 127
2, 19399, Note_on_c, 6, 66, 127
2, 19580, Note_off_c, 12, 71, 127
2, 19585, Note_on_c, 11, 70, 127
2, 19767, Note_off_c, 11, 70, 127
2, 19770, Note_on_c, 12, 71, 127
2, 19770, Note_on_c, 6, 54, 127
2, 19952, Note_off_c, 12, 71, 127
2, 19956, Note_on_c, 1, 73, 127
2, 20056, Note_off_c, 6, 66, 127
2, 20138, Note_off_c, 1, 73, 127
2, 20138, Note_off_c, 6, 54, 127
2, 20141, Note_on_c, 2, 74, 127
2, 20141, Note_on_c, 4, 64, 127
2, 20323, Note_off_c, 2, 74, 127
2, 20327, Note_on_c, 4, 76, 127
2, 20509, Note_off_c, 4, 76, 127
2, 20509, Note_off_c, 4, 64, 127
2, 20512, Note_on_c, 6, 78, 127
2, 20512, Note_on_c, 2, 62, 127
2, 20694, Note_off_c, 6, 78, 127
2, 20699, Note_on_c, 4, 76, 127
2, 20880, Note_off_c, 2, 62, 127
2, 20881, Note_off_c, 4, 76, 127
2, 20885, Note_on_c, 7, 79, 127
2, 20885, Note_on_c, 12, 71, 127
2, 21067, Note_off_c, 12, 71, 127
2, 21067, Note_off_c, 7, 79, 127
2, 21070, Note_on_c, 6, 78, 127
2, 21070, Note_on_c, 11, 70, 127
2, 21252, Note_off_c, 11, 70, 127
2, 21252, Note_off_c, 6, 78, 127
2, 21256, Note_on_c, 4, 76, 127
2, 21256, Note_on_c, 12, 71, 127
2, 21438, Note_off_c, 4, 76, 127
2, 21442, Note_on_c, 2, 74, 127
2, 21612, Note_off_c, 12, 71, 127
2, 21624, Note_off_c, 2, 74, 127
2, 21626, Note_on_c, 4, 76, 127
2, 21626, Note_on_c, 1, 61, 127
2, 21808, Note_off_c, 4, 76, 127
2, 21812, Note_on_c, 2, 74, 127
2, 21994, Note_off_c, 2, 74, 127
2, 21994, Note_off_c, 1, 61, 127
2, 21999, Note_on_c, 6, 78, 127
2, 21999, Note_on_c, 11, 70, 127
2, 22181, Note_off_c, 11, 70, 127
2, 22181, Note_off_c, 6, 78, 127
2, 22185, Note_on_c, 4, 76, 127
2, 22185, Note_on_c, 8, 68, 127
2, 22367, Note_off_c, 8, 68, 127
2, 22367, Note_off_c, 4, 76, 127
2, 22370, Note_on_c, 2, 74, 127
2, 22370, Note_on_c, 11, 70, 127
2, 22552, Note_off_c, 2, 74, 127
2, 22556, Note_on_c, 1, 73, 127
2, 22726, Note_off_c, 11, 70, 127
2, 22738, Note_off_c, 1, 73, 127
2, 22742, Note_on_c, 2, 74, 127
2, 22742, Note_on_c, 12, 71, 127
2, 22924, Note_off_c, 12, 71, 127
2, 22924, Note_off_c, 2, 74, 127
2, 22926, Note_on_c, 1, 73, 127
2, 22926, Note_on_c, 10, 69, 127
2, 23108, Note_off_c, 10, 69, 127
2, 23108, Note_off_c, 1, 73, 127
2, 23112, Note_on_c, 4, 76, 127
2, 23112, Note_on_c, 7, 67, 127
2, 23294, Note_off_c, 7, 67, 127
2, 23294, Note_off_c, 4, 76, 127
2, 23299, Note_on_c, 2, 74, 127
2, 23299, Note_on_c, 6, 66, 127
2, 23481, Note_off_c, 6, 66, 127
2, 23481, Note_off_c, 2, 74, 127
2, 23484, Note_on_c, 1, 73, 127
2, 23484, Note_on_c, 4, 64, 127
2, 23666, Note_off_c, 4, 64, 127
2, 23666, Note_off_c, 1, 73, 127
2, 23670, Note_on_c, 12, 71, 127
2, 23670, Note_on_c, 2, 62, 127
2, 23852, Note_off_c, 2, 62, 127
2, 23852, Note_off_c, 12, 71, 127
2, 23856, Note_on_c, 1, 73, 127
2, 23856, Note_on_c, 4, 64, 127
2, 24038, Note_off_c, 4, 64, 127
2, 24042, Note_on_c, 2, 62, 127
2, 24224, Note_off_c, 2, 62, 127
2, 24224, Note_off_c, 1, 73, 127
2, 24227, Note_on_c, 12, 71, 127
2, 24227, Note_on_c, 6, 66, 127
2, 24316, Note_off_c, 12, 71, 127
2, 24320, Note_on_c, 11, 70, 127
2, 24409, Note_off_c, 11, 70, 127
2, 24409, Note_off_c, 6, 66, 127
2, 24412, Note_on_c, 8, 68, 127
2, 24412, Note_on_c, 4, 64, 127
2, 24501, Note_off_c, 8, 68, 127
2, 24506, Note_on_c, 11, 70, 127
2, 24594, Note_off_c, 4, 64, 127
2, 24595, Note_off_c, 11, 70, 127
2, 24599, Note_on_c, 12, 71, 127
2, 24599, Note_on_c, 2, 62, 127
2, 24688, Note_off_c, 12, 71, 127
2, 24692, Note_on_c, 11, 70, 127
2, 24781, Note_off_c, 11, 70, 127
2, 24781, Note_off_c, 2, 62, 127
2, 24784, Note_on_c, 12, 71, 127
2, 24784, Note_on_c, 1, 61, 127
2, 24966, Note_off_c, 1, 61, 127
2, 24970, Note_on_c, 2, 62, 127
2, 25152, Note_off_c, 2, 62, 127
2, 25152, Note_off_c, 12, 71, 127
2, 25156, Note_on_c, 1, 73, 127
2, 25156, Note_on_c, 4, 64, 127
2, 25338, Note_off_c, 4, 64, 127
2, 25338, Note_off_c, 1, 73, 127
2, 25341, Note_on_c, 2, 74, 127
2, 25341, Note_on_c, 6, 66, 127
2, 25461, Note_off_c, 2, 74, 127
2, 25465, Note_on_c, 1, 73, 127
2, 25525, Note_off_c, 1, 73, 127
2, 25526, Note_on_c, 2, 74, 127
2, 25586, Note_off_c, 2, 74, 127
2, 25588, Note_on_c, 1, 73, 127
2, 25648, Note_off_c, 1, 73, 127
2, 25648, Note_on_c, 2, 74, 127
2, 25707, Note_off_c, 6, 66, 127
2, 25709, Note_off_c, 2, 74, 127
2, 25710, Note_on_c, 1, 73, 127
2, 25710, Note_on_c, 6, 54, 127
2, 25892, Note_off_c, 1, 73, 127
2, 25897, Note_on_c, 12, 71, 127
2, 26078, Note_off_c, 6, 54, 127
2, 26079, Note_off_c, 12, 71, 127
2, 26082, Note_on_c, 12, 71, 127
2, 26082, Note_on_c, 12, 59, 127
2, 26264, Note_off_c, 12, 71, 127
2, 26268, Note_on_c, 6, 66, 127
2, 26450, Note_off_c, 6, 66, 127
2, 26450, Note_off_c, 12, 59, 127
2, 26454, Note_on_c, 8, 68, 127
2, 26454, Note_on_c, 6, 54, 127
2, 26636, Note_off_c, 8, 68, 127
2, 26639, Note_on_c, 11, 70, 127
2, 26821, Note_off_c, 11, 70, 127
2, 26822, Note_off_c, 6, 54, 127
2, 26825, Note_on_c, 12, 71, 127
2, 26825, Note_on_c, 2, 50, 127
2, 27007, Note_off_c, 12, 71, 127
2, 27010, Note_on_c, 1, 73, 127
2, 27192, Note_off_c, 1, 73, 127
2, 27193, Note_off_c, 2, 50, 127
2, 27196, Note_on_c, 2, 74, 127
2, 27196, Note_on_c, 12, 47, 127
2, 27378, Note_off_c, 2, 74, 127
2, 27382, Note_on_c, 1, 73, 127
2, 27564, Note_off_c, 1, 73, 127
2, 27568, Note_on_c, 4, 76, 127
2, 27750, Note_off_c, 4, 76, 127
2, 27754, Note_on_c, 2, 74, 127
2, 27936, Note_off_c, 2, 74, 127
2, 27939, Note_on_c, 1, 73, 127
2, 28121, Note_off_c, 1, 73, 127
2, 28123, Note_off_c, 12, 47, 127
2, 28125, Note_on_c, 12, 71, 127
2, 28307, Note_off_c, 12, 71, 127
2, 28311, Note_on_c, 7, 79, 127
2, 28387, Note_on_c, 6, 78, 127
2, 28400, Note_off_c, 7, 79, 127
2, 28464, Note_on_c, 7, 79, 127
2, 28475, Note_off_c, 6, 78, 127
2, 28494, Note_on_c, 12, 47, 127
2, 28676, Note_off_c, 12, 47, 127
2, 28681, Note_on_c, 1, 49, 127
2, 28863, Note_off_c, 1, 49, 127
2, 28867, Note_on_c, 3, 51, 127
2, 29049, Note_off_c, 3, 51, 127
2, 29052, Note_on_c, 4, 52, 127
2, 29234, Note_off_c, 4, 52, 127
2, 29238, Note_on_c, 6, 54, 127
2, 29420, Note_off_c, 6, 54, 127
2, 29424, Note_on_c, 7, 55, 127
2, 29574, Note_off_c, 7, 79, 127
2, 29604, Note_off_c, 7, 55, 127
2, 29609, Note_on_c, 6, 54, 127
2, 29791, Note_off_c, 6, 54, 127
2, 29793, Note_on_c, 10, 57, 127
2, 29975, Note_off_c, 10, 57, 127
2, 29980, Note_on_c, 7, 55, 127
2, 30162, Note_off_c, 7, 55, 127
2, 30166, Note_on_c, 6, 54, 127
2, 30348, Note_off_c, 6, 54, 127
2, 30351, Note_on_c, 4, 52, 127
2, 30533, Note_off_c, 4, 52, 127
2, 30537, Note_on_c, 10, 57, 127
2, 30626, Note_off_c, 10, 57, 127
2, 30630, Note_on_c, 8, 56, 127
2, 30719, Note_off_c, 8, 56, 127
2, 30723, Note_on_c, 4, 64, 127
2, 30723, Note_on_c, 10, 57, 127
2, 30905, Note_off_c, 4, 64, 127
2, 30908, Note_on_c, 6, 66, 127
2, 31090, Note_off_c, 6, 66, 127
2, 31093, Note_on_c, 8, 68, 127
2, 31275, Note_off_c, 8, 68, 127
2, 31280, Note_on_c, 10, 69, 127
2, 31462, Note_off_c, 10, 69, 127
2, 31466, Note_on_c, 12, 71, 127
2, 31648, Note_off_c, 12, 71, 127
2, 31651, Note_on_c, 1, 73, 127
2, 31833, Note_off_c, 1, 73, 127
2, 31837, Note_on_c, 12, 71, 127
2, 32019, Note_off_c, 12, 71, 127
2, 32023, Note_on_c, 2, 74, 127
2, 32205, Note_off_c, 2, 74, 127
2, 32208, Note_on_c, 1, 73, 127
2, 32390, Note_off_c, 1, 73, 127
2, 32394, Note_on_c, 12, 71, 127
2, 32576, Note_off_c, 12, 71, 127
2, 32579, Note_off_c, 10, 57, 127
2, 32580, Note_on_c, 10, 69, 127
2, 32762, Note_off_c, 10, 69, 127
2, 32765, Note_on_c, 6, 78, 127
2, 32854, Note_off_c, 6, 78, 127
2, 32858, Note_on_c, 4, 76, 127
2, 32947, Note_off_c, 4, 76, 127
2, 32951, Note_on_c, 6, 78, 127
2, 32951, Note_on_c, 10, 45, 127
2, 33133, Note_off_c, 10, 45, 127
2, 33137, Note_on_c, 12, 47, 127
2, 33319, Note_off_c, 12, 47, 127
2, 33323, Note_on_c, 1, 49, 127
2, 33505, Note_off_c, 1, 49, 127
2, 33508, Note_on_c, 2, 50, 127
2, 33690, Note_off_c, 2, 50, 127
2, 33694, Note_on_c, 4, 52, 127
2, 33876, Note_off_c, 4, 52, 127
2, 33881, Note_on_c, 6, 54, 127
2, 34063, Note_off_c, 6, 54, 127
2, 34065, Note_on_c, 4, 52, 127
2, 34247, Note_off_c, 4, 52, 127
2, 34251, Note_on_c, 7, 55, 127
2, 34433, Note_off_c, 7, 55, 127
2, 34437, Note_on_c, 6, 54, 127
2, 34619, Note_off_c, 6, 54, 127
2, 34622, Note_on_c, 4, 52, 127
2, 34804, Note_off_c, 4, 52, 127
2, 34808, Note_on_c, 2, 50, 127
2, 34981, Note_off_c, 6, 78, 127
2, 34990, Note_off_c, 2, 50, 127
2, 34994, Note_on_c, 8, 56, 127
2, 35180, Note_on_c, 12, 71, 127
2, 35362, Note_off_c, 12, 71, 127
2, 35364, Note_on_c, 4, 76, 127
2, 35546, Note_off_c, 4, 76, 127
2, 35547, Note_off_c, 8, 56, 127
2, 35550, Note_on_c, 2, 74, 127
2, 35550, Note_on_c, 4, 52, 127
2, 35732, Note_off_c, 4, 52, 127
2, 35732, Note_off_c, 2, 74, 127
2, 35736, Note_on_c, 1, 73, 127
2, 35736, Note_on_c, 6, 54, 127
2, 35918, Note_off_c, 6, 54, 127
2, 35918, Note_off_c, 1, 73, 127
2, 35921, Note_on_c, 12, 71, 127
2, 35921, Note_on_c, 8, 56, 127
2, 36103, Note_off_c, 8, 56, 127
2, 36103, Note_off_c, 12, 71, 127
2, 36107, Note_on_c, 1, 73, 127
2, 36107, Note_on_c, 10, 57, 127
2, 36289, Note_off_c, 10, 57, 127
2, 36289, Note_off_c, 1, 73, 127
2, 36293, Note_on_c, 12, 71, 127
2, 36293, Note_on_c, 8, 56, 127
2, 36475, Note_off_c, 8, 56, 127
2, 36475, Note_off_c, 12, 71, 127
2, 36479, Note_on_c, 2, 74, 127
2, 36479, Note_on_c, 6, 54, 127
2, 36661, Note_off_c, 6, 54, 127
2, 36661, Note_off_c, 2, 74, 127
2, 36664, Note_on_c, 1, 73, 127
2, 36664, Note_on_c, 4, 52, 127
2, 36846, Note_off_c, 4, 52, 127
2, 36846, Note_off_c, 1, 73, 127
2, 36850, Note_on_c, 12, 71, 127
2, 36850, Note_on_c, 2, 50, 127
2, 37032, Note_off_c, 2, 50, 127
2, 37032, Note_off_c, 12, 71, 127
2, 37036, Note_on_c, 10, 69, 127
2, 37036, Note_on_c, 6, 54, 127
2, 37218, Note_off_c, 6, 54, 127
2, 37218, Note_off_c, 10, 69, 127
2, 37221, Note_on_c, 8, 68, 127
2, 37221, Note_on_c, 4, 52, 127
2, 37403, Note_off_c, 4, 52, 127
2, 37407, Note_on_c, 2, 50, 127
2, 37466, Note_off_c, 8, 68, 127
2, 37470, Note_on_c, 6, 66, 127
2, 37589, Note_off_c, 2, 50, 127
2, 37590, Note_off_c, 6, 66, 127
2, 37593, Note_on_c, 4, 64, 127
2, 37593, Note_on_c, 1, 49, 127
2, 37775, Note_off_c, 1, 49, 127
2, 37779, Note_on_c, 12, 47, 127
2, 37900, Note_off_c, 4, 64, 127
2, 37961, Note_off_c, 12, 47, 127
2, 37965, Note_on_c, 10, 69, 127
2, 37965, Note_on_c, 1, 49, 127
2, 38147, Note_off_c, 1, 49, 127
2, 38147, Note_off_c, 10, 69, 127
2, 38150, Note_on_c, 12, 71, 127
2, 38150, Note_on_c, 10, 45, 127
2, 38332, Note_off_c, 10, 45, 127
2, 38332, Note_off_c, 12, 71, 127
2, 38335, Note_on_c, 1, 73, 127
2, 38335, Note_on_c, 10, 57, 127
2, 38517, Note_off_c, 1, 73, 127
2, 38521, Note_on_c, 12, 71, 127
2, 38703, Note_off_c, 12, 71, 127
2, 38703, Note_off_c, 10, 57, 127
2, 38707, Note_on_c, 2, 74, 127
2, 38707, Note_on_c, 6, 54, 127
2, 38889, Note_off_c, 2, 74, 127
2, 38893, Note_on_c, 1, 73, 127
2, 39075, Note_off_c, 1, 73, 127
2, 39075, Note_off_c, 6, 54, 127
2, 39079, Note_on_c, 12, 71, 127
2, 39079, Note_on_c, 1, 49, 127
2, 39261, Note_off_c, 12, 71, 127
2, 39265, Note_on_c, 10, 69, 127
2, 39447, Note_off_c, 10, 69, 127
2, 39447, Note_off_c, 1, 49, 127
2, 39451, Note_on_c, 6, 78, 127
2, 39451, Note_on_c, 2, 50, 127
2, 39633, Note_off_c, 2, 50, 127
2, 39635, Note_on_c, 1, 49, 127
2, 39817, Note_off_c, 1, 49, 127
2, 39821, Note_on_c, 4, 52, 127
2, 40003, Note_off_c, 4, 52, 127
2, 40005, Note_off_c, 6, 78, 127
2, 40007, Note_on_c, 8, 68, 127
2, 40007, Note_on_c, 2, 50, 127
2, 40189, Note_off_c, 2, 50, 127
2, 40189, Note_off_c, 8, 68, 127
2, 40192, Note_on_c, 10, 69, 127
2, 40192, Note_on_c, 1, 49, 127
2, 40374, Note_off_c, 1, 49, 127
2, 40374, Note_off_c, 10, 69, 127
2, 40379, Note_on_c, 8, 68, 127
2, 40379, Note_on_c, 12, 47, 127
2, 40561, Note_off_c, 12, 47, 127
2, 40561, Note_off_c, 8, 68, 127
2, 40565, Note_on_c, 10, 69, 127
2, 40565, Note_on_c, 1, 49, 127
2, 40747, Note_off_c, 1, 49, 127
2, 40747, Note_off_c, 10, 69, 127
2, 40751, Note_on_c, 2, 74, 127
2, 40751, Note_on_c, 2, 50, 127
2, 40933, Note_off_c, 2, 50, 127
2, 40933, Note_off_c, 2, 74, 127
2, 40935, Note_on_c, 1, 73, 127
2, 40935, Note_on_c, 4, 52, 127
2, 41055, Note_off_c, 1, 73, 127
2, 41059, Note_on_c, 12, 71, 127
2, 41119, Note_off_c, 12, 71, 127
2, 41120, Note_on_c, 1, 73, 127
2, 41180, Note_off_c, 1, 73, 127
2, 41181, Note_on_c, 12, 71, 127
2, 41241, Note_off_c, 12, 71, 127
2, 41243, Note_on_c, 1, 73, 127
2, 41301, Note_off_c, 4, 52, 127
2, 41304, Note_off_c, 1, 73, 127
2, 41305, Note_on_c, 12, 71, 127
2, 41305, Note_on_c, 4, 40, 127
2, 41487, Note_off_c, 12, 71, 127
2, 41490, Note_on_c, 10, 69, 127
2, 41672, Note_off_c, 10, 69, 127
2, 41673, Note_off_c, 4, 40, 127
2, 41676, Note_on_c, 10, 69, 127
2, 41676, Note_on_c, 10, 45, 127
2, 41858, Note_off_c, 10, 45, 127
2, 41863, Note_on_c, 1, 49, 127
2, 42045, Note_off_c, 1, 49, 127
2, 42048, Note_on_c, 2, 50, 127
2, 42230, Note_off_c, 2, 50, 127
2, 42230, Note_off_c, 10, 69, 127
2, 42233, Note_on_c, 1, 73, 127
2, 42233, Note_on_c, 4, 52, 127
2, 42415, Note_off_c, 4, 52, 127
2, 42415, Note_off_c, 1, 73, 127
2, 42419, Note_on_c, 2, 74, 127
2, 42419, Note_on_c, 6, 54, 127
2, 42601, Note_off_c, 6, 54, 127
2, 42601, Note_off_c, 2, 74, 127
2, 42605, Note_on_c, 4, 76, 127
2, 42605, Note_on_c, 7, 55, 127
2, 42787, Note_off_c, 7, 55, 127
2, 42787, Note_off_c, 4, 76, 127
2, 42790, Note_on_c, 6, 66, 127
2, 42790, Note_on_c, 10, 57, 127
2, 42972, Note_off_c, 10, 57, 127
2, 42976, Note_on_c, 7, 55, 127
2, 43158, Note_off_c, 7, 55, 127
2, 43158, Note_off_c, 6, 66, 127
2, 43163, Note_on_c, 7, 67, 127
2, 43163, Note_on_c, 12, 59, 127
2, 43345, Note_off_c, 12, 59, 127
2, 43348, Note_on_c, 10, 57, 127
2, 43530, Note_off_c, 10, 57, 127
2, 43531, Note_off_c, 7, 67, 127
2, 43534, Note_on_c, 12, 71, 127
2, 43534, Note_on_c, 7, 55, 127
2, 43623, Note_off_c, 12, 71, 127
2, 43626, Note_on_c, 10, 69, 127
2, 43715, Note_off_c, 10, 69, 127
2, 43716, Note_off_c, 7, 55, 127
2, 43719, Note_on_c, 7, 67, 127
2, 43719, Note_on_c, 6, 54, 127
2, 43808, Note_off_c, 7, 67, 127
2, 43813, Note_on_c, 10, 69, 127
2, 43901, Note_off_c, 6, 54, 127
2, 43902, Note_off_c, 10, 69, 127
2, 43904, Note_on_c, 12, 71, 127
2, 43904, Note_on_c, 7, 55, 127
2, 44086, Note_off_c, 7, 55, 127
2, 44090, Note_on_c, 6, 54, 127
2, 44272, Note_off_c, 6, 54, 127
2, 44272, Note_off_c, 12, 71, 127
2, 44276, Note_on_c, 2, 74, 127
2, 44276, Note_on_c, 10, 57, 127
2, 44365, Note_off_c, 2, 74, 127
2, 44369, Note_on_c, 1, 73, 127
2, 44458, Note_off_c, 1, 73, 127
2, 44458, Note_off_c, 10, 57, 127
2, 44463, Note_on_c, 12, 71, 127
2, 44463, Note_on_c, 7, 55, 127
2, 44552, Note_off_c, 12, 71, 127
2, 44554, Note_on_c, 1, 73, 127
2, 44643, Note_off_c, 1, 73, 127
2, 44645, Note_off_c, 7, 55, 127
2, 44648, Note_on_c, 2, 74, 127
2, 44648, Note_on_c, 6, 54, 127
2, 44830, Note_off_c, 6, 54, 127
2, 44834, Note_on_c, 4, 52, 127
2, 45016, Note_off_c, 4, 52, 127
2, 45019, Note_on_c, 6, 54, 127
2, 45201, Note_off_c, 6, 54, 127
2, 45202, Note_off_c, 2, 74, 127
2, 45204, Note_on_c, 1, 73, 127
2, 45204, Note_on_c, 4, 52, 127
2, 45386, Note_off_c, 4, 52, 127
2, 45386, Note_off_c, 1, 73, 127
2, 45390, Note_on_c, 4, 76, 127
2, 45390, Note_on_c, 7, 55, 127
2, 45572, Note_off_c, 7, 55, 127
2, 45572, Note_off_c, 4, 76, 127
2, 45576, Note_on_c, 2, 74, 127
2, 45576, Note_on_c, 6, 54, 127
2, 45758, Note_off_c, 6, 54, 127
2, 45758, Note_off_c, 2, 74, 127
2, 45762, Note_on_c, 1, 73, 127
2, 45762, Note_on_c, 4, 52, 127
2, 45944, Note_off_c, 4, 52, 127
2, 45944, Note_off_c, 1, 73, 127
2, 45948, Note_on_c, 2, 74, 127
2, 45948, Note_on_c, 2, 50, 127
2, 46130, Note_off_c, 2, 50, 127
2, 46130, Note_off_c, 2, 74, 127
2, 46134, Note_on_c, 4, 76, 127
2, 46134, Note_on_c, 10, 57, 127
2, 46316, Note_off_c, 4, 76, 127
2, 46320, Note_on_c, 2, 74, 127
2, 46502, Note_off_c, 2, 74, 127
2, 46504, Note_on_c, 1, 73, 127
2, 46504, Note_on_c, 10, 45, 127
2, 46686, Note_off_c, 1, 73, 127
2, 46690, Note_on_c, 12, 71, 127
2, 46872, Note_off_c, 12, 71, 127
2, 46876, Note_on_c, 10, 69, 127
2, 47042, Note_off_c, 10, 45, 127
2, 47056, Note_off_c, 10, 69, 127
2, 47060, Note_off_c, 10, 57, 127
2, 47061, Note_on_c, 7, 67, 127
2, 47243, Note_off_c, 7, 67, 127
2, 47247, Note_on_c, 6, 66, 127
2, 47429, Note_off_c, 6, 66, 127
2, 47433, Note_on_c, 4, 64, 127
2, 47615, Note_off_c, 4, 64, 127
2, 47618, Note_on_c, 7, 67, 127
2, 47800, Note_off_c, 7, 67, 127
2, 47803, Note_on_c, 6, 66, 127
2, 47985, Note_off_c, 6, 66, 127
2, 47989, Note_on_c, 4, 64, 127
2, 48171, Note_off_c, 4, 64, 127
2, 48175, Note_on_c, 2, 62, 127
2, 48357, Note_off_c, 2, 62, 127
2, 48361, Note_on_c, 10, 69, 127
2, 48543, Note_off_c, 10, 69, 127
2, 48547, Note_on_c, 7, 67, 127
2, 48729, Note_off_c, 7, 67, 127
2, 48733, Note_on_c, 6, 66, 127
2, 48915, Note_off_c, 6, 66, 127
2, 48918, Note_on_c, 4, 64, 127
2, 49100, Note_off_c, 4, 64, 127
2, 49104, Note_on_c, 6, 66, 127
2, 49104, Note_on_c, 2, 50, 127
2, 49286, Note_off_c, 2, 50, 127
2, 49286, Note_off_c, 6, 66, 127
2, 49289, Note_on_c, 2, 62, 127
2, 49289, Note_on_c, 4, 52, 127
2, 49471, Note_off_c, 4, 52, 127
2, 49471, Note_off_c, 2, 62, 127
2, 49474, Note_on_c, 10, 69, 127
2, 49474, Note_on_c, 6, 54, 127
2, 49656, Note_off_c, 6, 54, 127
2, 49661, Note_on_c, 4, 52, 127
2, 49842, Note_off_c, 10, 69, 127
2, 49843, Note_off_c, 4, 52, 127
2, 49847, Note_on_c, 12, 71, 127
2, 49847, Note_on_c, 7, 55, 127
2, 50029, Note_off_c, 7, 55, 127
2, 50033, Note_on_c, 6, 54, 127
2, 50215, Note_off_c, 6, 54, 127
2, 50215, Note_off_c, 12, 71, 127
2, 50218, Note_on_c, 1, 73, 127
2, 50218, Note_on_c, 4, 52, 127
2, 50307, Note_off_c, 1, 73, 127
2, 50311, Note_on_c, 12, 71, 127
2, 50400, Note_off_c, 12, 71, 127
2, 50400, Note_off_c, 4, 52, 127
2, 50404, Note_on_c, 1, 73, 127
2, 50404, Note_on_c, 2, 50, 127
2, 50493, Note_off_c, 1, 73, 127
2, 50497, Note_on_c, 2, 74, 127
2, 50586, Note_off_c, 2, 74, 127
2, 50586, Note_off_c, 2, 50, 127
2, 50589, Note_on_c, 1, 73, 127
2, 50589, Note_on_c, 10, 57, 127
2, 50771, Note_off_c, 10, 57, 127
2, 50774, Note_on_c, 7, 55, 127
2, 50834, Note_off_c, 1, 73, 127
2, 50838, Note_on_c, 12, 71, 127
2, 50956, Note_off_c, 7, 55, 127
2, 50958, Note_off_c, 12, 71, 127
2, 50961, Note_on_c, 10, 69, 127
2, 50961, Note_on_c, 6, 54, 127
2, 51143, Note_off_c, 6, 54, 127
2, 51147, Note_on_c, 4, 52, 127
2, 51289, Note_off_c, 10, 69, 127
2, 51329, Note_off_c, 4, 52, 127
2, 51332, Note_on_c, 2, 74, 127
2, 51332, Note_on_c, 6, 54, 127
2, 51514, Note_off_c, 6, 54, 127
2, 51518, Note_on_c, 2, 50, 127
2, 51700, Note_off_c, 2, 50, 127
2, 51700, Note_off_c, 2, 74, 127
2, 51704, Note_on_c, 2, 74, 127
2, 51704, Note_on_c, 10, 57, 127
2, 51886, Note_off_c, 10, 57, 127
2, 51890, Note_on_c, 6, 54, 127
2, 52072, Note_off_c, 6, 54, 127
2, 52074, Note_on_c, 2, 62, 127
2, 52074, Note_on_c, 12, 59, 127
2, 52256, Note_off_c, 12, 59, 127
2, 52261, Note_on_c, 7, 55, 127
2, 52437, Note_off_c, 2, 74, 127
2, 52441, Note_off_c, 7, 55, 127
2, 52446, Note_on_c, 2, 74, 127
2, 52446, Note_on_c, 6, 54, 127
2, 52628, Note_off_c, 6, 54, 127
2, 52631, Note_on_c, 4, 52, 127
2, 52813, Note_off_c, 4, 52, 127
2, 52814, Note_off_c, 2, 74, 127
2, 52817, Note_on_c, 2, 74, 127
2, 52817, Note_on_c, 10, 57, 127
2, 52999, Note_off_c, 10, 57, 127
2, 53003, Note_on_c, 6, 54, 127
2, 53184, Note_off_c, 2, 62, 127
2, 53185, Note_off_c, 6, 54, 127
2, 53188, Note_on_c, 2, 62, 127
2, 53188, Note_on_c, 7, 55, 127
2, 53370, Note_off_c, 7, 55, 127
2, 53373, Note_on_c, 4, 52, 127
2, 53550, Note_off_c, 2, 74, 127
2, 53553, Note_off_c, 4, 52, 127
2, 53558, Note_on_c, 2, 74, 127
2, 53558, Note_on_c, 2, 50, 127
2, 53740, Note_off_c, 2, 50, 127
2, 53744, Note_on_c, 1, 49, 127
2, 53920, Note_off_c, 2, 62, 127
2, 53924, Note_off_c, 1, 49, 127
2, 53925, Note_off_c, 2, 74, 127
2, 53929, Note_on_c, 2, 74, 127
2, 53929, Note_on_c, 10, 57, 127
2, 54111, Note_off_c, 10, 57, 127
2, 54115, Note_on_c, 6, 54, 127
2, 54297, Note_off_c, 6, 54, 127
2, 54297, Note_off_c, 2, 74, 127
2, 54301, Note_on_c, 2, 62, 127
2, 54301, Note_on_c, 12, 59, 127
2, 54483, Note_off_c, 12, 59, 127
2, 54486, Note_on_c, 7, 55, 127
2, 54647, Note_off_c, 2, 62, 127
2, 54666, Note_off_c, 7, 55, 127
2, 54670, Note_on_c, 2, 74, 127
2, 54670, Note_on_c, 6, 54, 127
2, 54852, Note_off_c, 6, 54, 127
2, 54856, Note_on_c, 4, 52, 127
2, 55038, Note_off_c, 4, 52, 127
2, 55038, Note_off_c, 2, 74, 127
2, 55042, Note_on_c, 2, 74, 127
2, 55042, Note_on_c, 10, 57, 127
2, 55224, Note_off_c, 10, 57, 127
2, 55228, Note_on_c, 6, 54, 127
2, 55410, Note_off_c, 6, 54, 127
2, 55410, Note_off_c, 2, 74, 127
2, 55414, Note_on_c, 2, 62, 127
2, 55414, Note_on_c, 7, 55, 127
2, 55596, Note_off_c, 7, 55, 127
2, 55599, Note_on_c, 4, 52, 127
2, 55691, Note_off_c, 2, 62, 127
2, 55781, Note_off_c, 4, 52, 127
2, 55785, Note_on_c, 2, 74, 127
2, 55785, Note_on_c, 2, 50, 127
2, 55967, Note_off_c, 2, 50, 127
2, 55967, Note_off_c, 2, 74, 127
2, 55970, Note_on_c, 4, 76, 127
2, 55970, Note_on_c, 1, 49, 127
2, 56152, Note_off_c, 1, 49, 127
2, 56152, Note_off_c, 4, 76, 127
2, 56156, Note_on_c, 6, 78, 127
2, 56156, Note_on_c, 2, 50, 127
2, 56338, Note_off_c, 6, 78, 127
2, 56342, Note_on_c, 4, 76, 127
2, 56524, Note_off_c, 4, 76, 127
2, 56524, Note_off_c, 2, 50, 127
2, 56528, Note_on_c, 7, 79, 127
2, 56528, Note_on_c, 4, 52, 127
2, 56710, Note_off_c, 7, 79, 127
2, 56714, Note_on_c, 6, 78, 127
2, 56896, Note_off_c, 6, 78, 127
2, 56896, Note_off_c, 4, 52, 127
2, 56899, Note_on_c, 4, 76, 127
2, 56899, Note_on_c, 6, 54, 127
2, 57081, Note_off_c, 4, 76, 127
2, 57085, Note_on_c, 2, 74, 127
2, 57267, Note_off_c, 2, 74, 127
2, 57267, Note_off_c, 6, 54, 127
2, 57271, Note_on_c, 12, 83, 127
2, 57271, Note_on_c, 7, 55, 127
2, 57453, Note_off_c, 7, 55, 127
2, 57455, Note_on_c, 6, 54, 127
2, 57637, Note_off_c, 6, 54, 127
2, 57639, Note_off_c, 12, 83, 127
2, 57642, Note_on_c, 1, 73, 127
2, 57642, Note_on_c, 10, 57, 127
2, 57824, Note_off_c, 10, 57, 127
2, 57828, Note_on_c, 7, 55, 127
2, 58010, Note_off_c, 7, 55, 127
2, 58010, Note_off_c, 1, 73, 127
2, 58014, Note_on_c, 2, 74, 127
2, 58014, Note_on_c, 6, 54, 127
2, 58196, Note_off_c, 6, 54, 127
2, 58199, Note_on_c, 4, 52, 127
2, 58289, Note_off_c, 2, 74, 127
2, 58292, Note_on_c, 4, 76, 127
2, 58381, Note_off_c, 4, 76, 127
2, 58381, Note_off_c, 4, 52, 127
2, 58385, Note_on_c, 2, 74, 127
2, 58385, Note_on_c, 6, 54, 127
2, 58474, Note_off_c, 2, 74, 127
2, 58478, Note_on_c, 1, 73, 127
2, 58567, Note_off_c, 1, 73, 127
2, 58567, Note_off_c, 6, 54, 127
2, 58571, Note_on_c, 2, 74, 127
2, 58571, Note_on_c, 7, 55, 127
2, 58660, Note_off_c, 2, 74, 127
2, 58664, Note_on_c, 4, 76, 127
2, 58753, Note_off_c, 4, 76, 127
2, 58753, Note_off_c, 7, 55, 127
2, 58755, Note_on_c, 6, 78, 127
2, 58755, Note_on_c, 10, 57, 127
2, 58875, Note_off_c, 6, 78, 127
2, 58880, Note_on_c, 4, 76, 127
2, 58940, Note_off_c, 4, 76, 127
2, 58940, Note_on_c, 6, 78, 127
2, 59000, Note_off_c, 6, 78, 127
2, 59003, Note_on_c, 4, 76, 127
2, 59063, Note_off_c, 4, 76, 127
2, 59063, Note_on_c, 6, 78, 127
2, 59121, Note_off_c, 10, 57, 127
2, 59124, Note_off_c, 6, 78, 127
2, 59126, Note_on_c, 4, 76, 127
2, 59126, Note_on_c, 10, 45, 127
2, 59308, Note_off_c, 4, 76, 127
2, 59311, Note_on_c, 2, 74, 127
2, 59493, Note_off_c, 2, 74, 127
2, 59494, Note_off_c, 10, 45, 127
2, 59497, Note_on_c, 2, 74, 127
2, 59497, Note_on_c, 12, 47, 127
2, 59681, Note_off_c, 12, 47, 127
2, 59685, Note_on_c, 10, 45, 127
2, 59809, Note_off_c, 2, 74, 127
2, 59870, Note_off_c, 10, 45, 127
2, 59874, Note_on_c, 2, 62, 127
2, 59874, Note_on_c, 0, 48, 127
2, 60058, Note_off_c, 0, 48, 127
2, 60062, Note_on_c, 12, 47, 127
2, 60206, Note_off_c, 2, 62, 127
2, 60247, Note_off_c, 12, 47, 127
2, 60251, Note_on_c, 7, 67, 127
2, 60251, Note_on_c, 10, 45, 127
2, 60435, Note_off_c, 10, 45, 127
2, 60439, Note_on_c, 7, 43, 127
2, 60623, Note_off_c, 7, 43, 127
2, 60626, Note_on_c, 2, 50, 127
2, 60811, Note_off_c, 7, 67, 127
2, 60815, Note_on_c, 10, 57, 127
2, 60999, Note_off_c, 10, 57, 127
2, 61003, Note_on_c, 12, 59, 127
2, 61187, Note_off_c, 12, 59, 127
2, 61191, Note_on_c, 1, 61, 127
2, 61375, Note_off_c, 1, 61, 127
2, 61377, Note_on_c, 2, 62, 127
2, 61561, Note_off_c, 2, 62, 127
2, 61565, Note_on_c, 4, 64, 127
2, 61749, Note_off_c, 4, 64, 127
2, 61750, Note_off_c, 2, 50, 127
2, 61754, Note_on_c, 6, 66, 127
2, 61938, Note_off_c, 6, 66, 127
2, 61942, Note_on_c, 4, 64, 127
2, 61942, Note_on_c, 1, 49, 127
2, 62126, Note_off_c, 1, 49, 127
2, 62126, Note_off_c, 4, 64, 127
2, 62129, Note_on_c, 7, 67, 127
2, 62129, Note_on_c, 12, 47, 127
2, 62313, Note_off_c, 12, 47, 127
2, 62313, Note_off_c, 7, 67, 127
2, 62317, Note_on_c, 6, 66, 127
2, 62317, Note_on_c, 10, 45, 127
2, 62501, Note_off_c, 10, 45, 127
2, 62501, Note_off_c, 6, 66, 127
2, 62506, Note_on_c, 4, 64, 127
2, 62506, Note_on_c, 7, 43, 127
2, 62690, Note_off_c, 7, 43, 127
2, 62690, Note_off_c, 4, 64, 127
2, 62693, Note_on_c, 2, 62, 127
2, 62693, Note_on_c, 6, 42, 127
2, 62877, Note_off_c, 6, 42, 127
2, 62877, Note_off_c, 2, 62, 127
2, 62881, Note_on_c, 12, 71, 127
2, 62881, Note_on_c, 7, 43, 127
2, 63074, Note_off_c, 7, 43, 127
2, 63078, Note_on_c, 6, 42, 127
2, 63271, Note_off_c, 6, 42, 127
2, 63275, Note_on_c, 10, 45, 127
2, 63467, Note_off_c, 12, 71, 127
2, 63468, Note_off_c, 10, 45, 127
2, 63472, Note_on_c, 1, 61, 127
2, 63472, Note_on_c, 7, 43, 127
2, 63665, Note_off_c, 7, 43, 127
2, 63665, Note_off_c, 1, 61, 127
2, 63667, Note_on_c, 2, 62, 127
2, 63667, Note_on_c, 6, 42, 127
2, 63860, Note_off_c, 6, 42, 127
2, 63860, Note_off_c, 2, 62, 127
2, 63864, Note_on_c, 1, 61, 127
2, 63864, Note_on_c, 4, 40, 127
2, 64057, Note_off_c, 4, 40, 127
2, 64057, Note_off_c, 1, 61, 127
2, 64061, Note_on_c, 2, 62, 127
2, 64061, Note_on_c, 6, 42, 127
2, 64254, Note_off_c, 6, 42, 127
2, 64254, Note_off_c, 2, 62, 127
2, 64258, Note_on_c, 7, 67, 127
2, 64258, Note_on_c, 7, 43, 127
2, 64451, Note_off_c, 7, 43, 127
2, 64451, Note_off_c, 7, 67, 127
2, 64455, Note_on_c, 6, 66, 127
2, 64455, Note_on_c, 10, 45, 127
2, 64603, Note_off_c, 6, 66, 127
2, 64606, Note_on_c, 4, 64, 127
2, 64680, Note_off_c, 4, 64, 127
2, 64683, Note_on_c, 6, 66, 127
2, 64757, Note_off_c, 6, 66, 127
2, 64758, Note_on_c, 4, 64, 127
2, 64832, Note_off_c, 4, 64, 127
2, 64835, Note_on_c, 6, 66, 127
2, 64909, Note_off_c, 6, 66, 127
2, 64912, Note_on_c, 4, 64, 127
2, 65137, Note_off_c, 4, 64, 127
2, 65141, Note_on_c, 2, 62, 127
2, 65366, Note_off_c, 2, 62, 127
2, 65366, Note_off_c, 10, 45, 127
2, 65386, Note_on_c, 2, 38, 127
2, 65386, Note_on_c, 2, 62, 127
2, 67351, Note_off_c, 2, 62, 127
2, 67351, Note_off_c, 2, 38, 127
2, 70656, End_track
3, 0, Start_track
3, 0, Title_t, "MIDI"
3, 1536, End_track
0, 0, End_of_file
