0, 0, Header, 1, 3, 384
1, 0, Start_track
1, 0, Tempo, 500000
1, 0, Time_signature, 4, 2, 24, 8
1, 82944, End_track
2, 0, Start_track
2, 0, Text_t, "harpsichord: John Sankey"
2, 0, Program_c, 0, 6
2, 0, Pitch_bend_c, 0, 8192
2, 0, Program_c, 1, 6
2, 0, Pitch_bend_c, 1, 7792
2, 0, Program_c, 2, 6
2, 0, Pitch_bend_c, 2, 7876
2, 0, Program_c, 3, 6
2, 0, Pitch_bend_c, 3, 7952
2, 0, Program_c, 4, 6
2, 0, Pitch_bend_c, 4, 7792
2, 0, Program_c, 5, 6
2, 0, Pitch_bend_c, 5, 8112
2, 0, Program_c, 6, 6
2, 0, Pitch_bend_c, 6, 7712
2, 0, Program_c, 7, 6
2, 0, Pitch_bend_c, 7, 8037
2, 0, Program_c, 8, 6
2, 0, Pitch_bend_c, 8, 7872
2, 0, Program_c, 10, 6
2, 0, Pitch_bend_c, 10, 7712
2, 0, Program_c, 11, 6
2, 0, Pitch_bend_c, 11, 8032
2, 0, Program_c, 12, 6
2, 0, Pitch_bend_c, 12, 7872
2, 0, Title_t, "Track 1"
2, 96, Note_on_c, 5, 41, 127
2, 96, Note_on_c, 0, 72, 127
2, 284, Note_off_c, 0, 72, 127
2, 288, Note_on_c, 11, 70, 127
2, 416, Note_off_c, 5, 41, 127
2, 476, Note_off_c, 11, 70, 127
2, 480, Note_on_c, 5, 53, 127
2, 480, Note_on_c, 8, 68, 127
2, 668, Note_off_c, 8, 68, 127
2, 672, Note_on_c, 7, 67, 127
2, 860, Note_off_c, 7, 67, 127
2, 864, Note_on_c, 8, 68, 127
2, 1052, Note_off_c, 5, 53, 127
2, 1056, Note_on_c, 7, 55, 127
2, 1224, Note_off_c, 8, 68, 127
2, 1244, Note_off_c, 7, 55, 127
2, 1248, Note_on_c, 8, 56, 127
2, 1248, Note_on_c, 5, 65, 127
2, 1436, Note_off_c, 8, 56, 127
2, 1440, Note_on_c, 7, 55, 127
2, 1588, Note_off_c, 5, 65, 127
2, 1628, Note_off_c, 7, 55, 127
2, 1632, Note_on_c, 5, 53, 127
2, 1632, Note_on_c, 1, 73, 127
2, 1724, Note_off_c, 1, 73, 127
2, 1728, Note_on_c, 0, 72, 127
2, 1820, Note_off_c, 0, 72, 127
2, 1820, Note_off_c, 5, 53, 127
2, 1824, Note_on_c, 3, 51, 127
2, 1824, Note_on_c, 1, 73, 127
2, 2012, Note_off_c, 3, 51, 127
2, 2016, Note_on_c, 1, 49, 127
2, 2204, Note_off_c, 1, 49, 127
2, 2208, Note_on_c, 0, 48, 127
2, 2396, Note_off_c, 0, 48, 127
2, 2400, Note_on_c, 11, 46, 127
2, 2588, Note_off_c, 1, 73, 127
2, 2592, Note_on_c, 0, 72, 127
2, 2720, Note_off_c, 11, 46, 127
2, 2780, Note_off_c, 0, 72, 127
2, 2784, Note_on_c, 7, 55, 127
2, 2784, Note_on_c, 11, 70, 127
2, 2972, Note_off_c, 11, 70, 127
2, 2976, Note_on_c, 10, 69, 127
2, 3164, Note_off_c, 10, 69, 127
2, 3168, Note_on_c, 11, 70, 127
2, 3356, Note_off_c, 7, 55, 127
2, 3360, Note_on_c, 8, 56, 127
2, 3528, Note_off_c, 11, 70, 127
2, 3548, Note_off_c, 8, 56, 127
2, 3552, Note_on_c, 11, 58, 127
2, 3552, Note_on_c, 7, 67, 127
2, 3740, Note_off_c, 11, 58, 127
2, 3744, Note_on_c, 8, 56, 127
2, 3892, Note_off_c, 7, 67, 127
2, 3932, Note_off_c, 8, 56, 127
2, 3936, Note_on_c, 7, 55, 127
2, 3936, Note_on_c, 4, 76, 127
2, 4028, Note_off_c, 4, 76, 127
2, 4032, Note_on_c, 2, 74, 127
2, 4124, Note_off_c, 2, 74, 127
2, 4124, Note_off_c, 7, 55, 127
2, 4128, Note_on_c, 5, 53, 127
2, 4128, Note_on_c, 4, 76, 127
2, 4316, Note_off_c, 5, 53, 127
2, 4320, Note_on_c, 4, 52, 127
2, 4508, Note_off_c, 4, 52, 127
2, 4512, Note_on_c, 2, 50, 127
2, 4700, Note_off_c, 2, 50, 127
2, 4704, Note_on_c, 0, 48, 127
2, 4892, Note_off_c, 0, 48, 127
2, 4892, Note_off_c, 4, 76, 127
2, 4896, Note_on_c, 2, 50, 127
2, 4896, Note_on_c, 5, 77, 127
2, 5084, Note_off_c, 5, 77, 127
2, 5084, Note_off_c, 2, 50, 127
2, 5088, Note_on_c, 4, 52, 127
2, 5088, Note_on_c, 7, 79, 127
2, 5276, Note_off_c, 7, 79, 127
2, 5276, Note_off_c, 4, 52, 127
2, 5280, Note_on_c, 5, 53, 127
2, 5280, Note_on_c, 8, 80, 127
2, 5468, Note_off_c, 8, 80, 127
2, 5468, Note_off_c, 5, 53, 127
2, 5472, Note_on_c, 7, 55, 127
2, 5472, Note_on_c, 11, 82, 127
2, 5660, Note_off_c, 7, 55, 127
2, 5664, Note_on_c, 8, 56, 127
2, 5852, Note_off_c, 8, 56, 127
2, 5852, Note_off_c, 11, 82, 127
2, 5856, Note_on_c, 11, 58, 127
2, 5856, Note_on_c, 7, 79, 127
2, 6044, Note_off_c, 7, 79, 127
2, 6044, Note_off_c, 11, 58, 127
2, 6048, Note_on_c, 7, 55, 127
2, 6048, Note_on_c, 4, 76, 127
2, 6236, Note_off_c, 4, 76, 127
2, 6236, Note_off_c, 7, 55, 127
2, 6240, Note_on_c, 5, 53, 127
2, 6240, Note_on_c, 1, 73, 127
2, 6428, Note_off_c, 5, 53, 127
2, 6432, Note_on_c, 4, 52, 127
2, 6610, Note_off_c, 1, 73, 127
2, 6620, Note_off_c, 4, 52, 127
2, 6624, Note_on_c, 5, 53, 127
2, 6624, Note_on_c, 0, 72, 127
2, 6812, Note_off_c, 5, 53, 127
2, 6816, Note_on_c, 4, 52, 127
2, 6994, Note_off_c, 0, 72, 127
2, 7004, Note_off_c, 4, 52, 127
2, 7008, Note_on_c, 5, 53, 127
2, 7008, Note_on_c, 11, 70, 127
2, 7196, Note_off_c, 11, 70, 127
2, 7200, Note_on_c, 8, 68, 127
2, 7388, Note_off_c, 8, 68, 127
2, 7392, Note_on_c, 7, 67, 127
2, 7580, Note_off_c, 7, 67, 127
2, 7584, Note_on_c, 8, 68, 127
2, 7772, Note_off_c, 8, 68, 127
2, 7776, Note_on_c, 11, 70, 127
2, 7918, Note_off_c, 5, 53, 127
2, 7964, Note_off_c, 11, 70, 127
2, 7968, Note_on_c, 0, 48, 127
2, 7968, Note_on_c, 1, 73, 127
2, 8156, Note_off_c, 1, 73, 127
2, 8156, Note_off_c, 0, 48, 127
2, 8160, Note_on_c, 2, 50, 127
2, 8160, Note_on_c, 0, 72, 127
2, 8348, Note_off_c, 0, 72, 127
2, 8348, Note_off_c, 2, 50, 127
2, 8352, Note_on_c, 4, 52, 127
2, 8352, Note_on_c, 11, 70, 127
2, 8540, Note_off_c, 11, 70, 127
2, 8540, Note_off_c, 4, 52, 127
2, 8544, Note_on_c, 5, 53, 127
2, 8544, Note_on_c, 8, 68, 127
2, 8732, Note_off_c, 8, 68, 127
2, 8732, Note_off_c, 5, 53, 127
2, 8736, Note_on_c, 7, 55, 127
2, 8736, Note_on_c, 7, 67, 127
2, 8924, Note_off_c, 7, 67, 127
2, 8924, Note_off_c, 7, 55, 127
2, 8928, Note_on_c, 8, 56, 127
2, 8928, Note_on_c, 5, 65, 127
2, 9116, Note_off_c, 5, 65, 127
2, 9116, Note_off_c, 8, 56, 127
2, 9120, Note_on_c, 11, 58, 127
2, 9120, Note_on_c, 4, 64, 127
2, 9308, Note_off_c, 4, 64, 127
2, 9308, Note_off_c, 11, 58, 127
2, 9312, Note_on_c, 0, 60, 127
2, 9312, Note_on_c, 8, 68, 127
2, 9500, Note_off_c, 0, 60, 127
2, 9504, Note_on_c, 11, 58, 127
2, 9612, Note_off_c, 8, 68, 127
2, 9692, Note_off_c, 11, 58, 127
2, 9696, Note_on_c, 8, 56, 127
2, 9696, Note_on_c, 5, 77, 127
2, 9884, Note_off_c, 8, 56, 127
2, 9888, Note_on_c, 7, 55, 127
2, 10076, Note_off_c, 7, 55, 127
2, 10080, Note_on_c, 8, 56, 127
2, 10268, Note_off_c, 5, 77, 127
2, 10272, Note_on_c, 7, 79, 127
2, 10450, Note_off_c, 8, 56, 127
2, 10460, Note_off_c, 7, 79, 127
2, 10464, Note_on_c, 5, 53, 127
2, 10464, Note_on_c, 8, 80, 127
2, 10652, Note_off_c, 8, 80, 127
2, 10656, Note_on_c, 7, 79, 127
2, 10834, Note_off_c, 5, 53, 127
2, 10844, Note_off_c, 7, 79, 127
2, 10848, Note_on_c, 5, 77, 127
2, 10849, Note_on_c, 1, 61, 127
2, 11036, Note_off_c, 5, 77, 127
2, 11037, Note_off_c, 1, 61, 127
2, 11040, Note_on_c, 0, 60, 127
2, 11040, Note_on_c, 3, 75, 127
2, 11228, Note_off_c, 3, 75, 127
2, 11228, Note_off_c, 0, 60, 127
2, 11231, Note_on_c, 1, 61, 127
2, 11232, Note_on_c, 1, 73, 127
2, 11420, Note_off_c, 1, 73, 127
2, 11424, Note_on_c, 0, 72, 127
2, 11612, Note_off_c, 0, 72, 127
2, 11616, Note_on_c, 11, 70, 127
2, 11803, Note_off_c, 1, 61, 127
2, 11808, Note_on_c, 0, 60, 127
2, 11916, Note_off_c, 11, 70, 127
2, 11996, Note_off_c, 0, 60, 127
2, 12000, Note_on_c, 11, 58, 127
2, 12000, Note_on_c, 7, 79, 127
2, 12188, Note_off_c, 11, 58, 127
2, 12192, Note_on_c, 10, 57, 127
2, 12380, Note_off_c, 10, 57, 127
2, 12384, Note_on_c, 11, 58, 127
2, 12572, Note_off_c, 7, 79, 127
2, 12576, Note_on_c, 8, 80, 127
2, 12754, Note_off_c, 11, 58, 127
2, 12764, Note_off_c, 8, 80, 127
2, 12768, Note_on_c, 7, 55, 127
2, 12768, Note_on_c, 11, 82, 127
2, 12956, Note_off_c, 11, 82, 127
2, 12960, Note_on_c, 8, 80, 127
2, 13138, Note_off_c, 7, 55, 127
2, 13148, Note_off_c, 8, 80, 127
2, 13152, Note_on_c, 4, 64, 127
2, 13152, Note_on_c, 7, 79, 127
2, 13340, Note_off_c, 7, 79, 127
2, 13340, Note_off_c, 4, 64, 127
2, 13344, Note_on_c, 2, 62, 127
2, 13344, Note_on_c, 5, 77, 127
2, 13532, Note_off_c, 5, 77, 127
2, 13532, Note_off_c, 2, 62, 127
2, 13536, Note_on_c, 4, 64, 127
2, 13536, Note_on_c, 4, 76, 127
2, 13724, Note_off_c, 4, 76, 127
2, 13728, Note_on_c, 2, 74, 127
2, 13916, Note_off_c, 2, 74, 127
2, 13920, Note_on_c, 0, 72, 127
2, 14108, Note_off_c, 0, 72, 127
2, 14108, Note_off_c, 4, 64, 127
2, 14112, Note_on_c, 5, 65, 127
2, 14112, Note_on_c, 2, 74, 127
2, 14300, Note_off_c, 2, 74, 127
2, 14300, Note_off_c, 5, 65, 127
2, 14304, Note_on_c, 7, 67, 127
2, 14304, Note_on_c, 4, 76, 127
2, 14492, Note_off_c, 4, 76, 127
2, 14492, Note_off_c, 7, 67, 127
2, 14496, Note_on_c, 8, 68, 127
2, 14496, Note_on_c, 5, 77, 127
2, 14684, Note_off_c, 5, 77, 127
2, 14684, Note_off_c, 8, 68, 127
2, 14688, Note_on_c, 11, 70, 127
2, 14688, Note_on_c, 7, 79, 127
2, 14876, Note_off_c, 7, 79, 127
2, 14880, Note_on_c, 8, 80, 127
2, 15068, Note_off_c, 8, 80, 127
2, 15068, Note_off_c, 11, 70, 127
2, 15072, Note_on_c, 7, 67, 127
2, 15072, Note_on_c, 11, 82, 127
2, 15260, Note_off_c, 11, 82, 127
2, 15260, Note_off_c, 7, 67, 127
2, 15264, Note_on_c, 4, 64, 127
2, 15264, Note_on_c, 7, 79, 127
2, 15452, Note_off_c, 7, 79, 127
2, 15452, Note_off_c, 4, 64, 127
2, 15456, Note_on_c, 1, 61, 127
2, 15456, Note_on_c, 5, 77, 127
2, 15644, Note_off_c, 5, 77, 127
2, 15648, Note_on_c, 4, 76, 127
2, 15836, Note_off_c, 4, 76, 127
2, 15836, Note_off_c, 1, 61, 127
2, 15840, Note_on_c, 0, 60, 127
2, 15840, Note_on_c, 5, 77, 127
2, 16028, Note_off_c, 5, 77, 127
2, 16032, Note_on_c, 4, 76, 127
2, 16220, Note_off_c, 4, 76, 127
2, 16220, Note_off_c, 0, 60, 127
2, 16224, Note_on_c, 11, 58, 127
2, 16224, Note_on_c, 5, 77, 127
2, 16412, Note_off_c, 11, 58, 127
2, 16416, Note_on_c, 8, 56, 127
2, 16544, Note_off_c, 5, 77, 127
2, 16604, Note_off_c, 8, 56, 127
2, 16608, Note_on_c, 7, 55, 127
2, 16608, Note_on_c, 0, 72, 127
2, 16796, Note_off_c, 7, 55, 127
2, 16800, Note_on_c, 8, 56, 127
2, 16988, Note_off_c, 8, 56, 127
2, 16992, Note_on_c, 11, 58, 127
2, 17180, Note_off_c, 11, 58, 127
2, 17180, Note_off_c, 0, 72, 127
2, 17184, Note_on_c, 1, 61, 127
2, 17184, Note_on_c, 11, 70, 127
2, 17372, Note_off_c, 11, 70, 127
2, 17372, Note_off_c, 1, 61, 127
2, 17376, Note_on_c, 0, 60, 127
2, 17376, Note_on_c, 8, 68, 127
2, 17564, Note_off_c, 8, 68, 127
2, 17564, Note_off_c, 0, 60, 127
2, 17568, Note_on_c, 11, 58, 127
2, 17568, Note_on_c, 7, 67, 127
2, 17756, Note_off_c, 7, 67, 127
2, 17756, Note_off_c, 11, 58, 127
2, 17760, Note_on_c, 8, 56, 127
2, 17760, Note_on_c, 5, 65, 127
2, 17948, Note_off_c, 5, 65, 127
2, 17948, Note_off_c, 8, 56, 127
2, 17952, Note_on_c, 7, 55, 127
2, 17952, Note_on_c, 4, 64, 127
2, 18140, Note_off_c, 4, 64, 127
2, 18140, Note_off_c, 7, 55, 127
2, 18144, Note_on_c, 5, 53, 127
2, 18144, Note_on_c, 8, 68, 127
2, 18332, Note_off_c, 8, 68, 127
2, 18332, Note_off_c, 5, 53, 127
2, 18336, Note_on_c, 4, 52, 127
2, 18336, Note_on_c, 7, 67, 127
2, 18524, Note_off_c, 7, 67, 127
2, 18524, Note_off_c, 4, 52, 127
2, 18528, Note_on_c, 8, 56, 127
2, 18528, Note_on_c, 0, 72, 127
2, 18716, Note_off_c, 0, 72, 127
2, 18720, Note_on_c, 11, 70, 127
2, 18868, Note_off_c, 8, 56, 127
2, 18908, Note_off_c, 11, 70, 127
2, 18912, Note_on_c, 5, 53, 127
2, 18912, Note_on_c, 8, 68, 127
2, 19100, Note_off_c, 8, 68, 127
2, 19104, Note_on_c, 7, 67, 127
2, 19292, Note_off_c, 7, 67, 127
2, 19296, Note_on_c, 8, 68, 127
2, 19484, Note_off_c, 5, 53, 127
2, 19488, Note_on_c, 7, 55, 127
2, 19659, Note_off_c, 8, 68, 127
2, 19676, Note_off_c, 7, 55, 127
2, 19680, Note_on_c, 8, 56, 127
2, 19680, Note_on_c, 5, 65, 127
2, 19868, Note_off_c, 8, 56, 127
2, 19872, Note_on_c, 7, 55, 127
2, 19973, Note_off_c, 5, 65, 127
2, 20060, Note_off_c, 7, 55, 127
2, 20064, Note_on_c, 5, 53, 127
2, 20064, Note_on_c, 8, 80, 127
2, 20156, Note_off_c, 8, 80, 127
2, 20160, Note_on_c, 7, 79, 127
2, 20252, Note_off_c, 7, 79, 127
2, 20252, Note_off_c, 5, 53, 127
2, 20256, Note_on_c, 3, 51, 127
2, 20256, Note_on_c, 8, 80, 127
2, 20444, Note_off_c, 3, 51, 127
2, 20448, Note_on_c, 2, 50, 127
2, 20636, Note_off_c, 2, 50, 127
2, 20640, Note_on_c, 0, 48, 127
2, 20828, Note_off_c, 0, 48, 127
2, 20832, Note_on_c, 12, 47, 127
2, 21020, Note_off_c, 8, 80, 127
2, 21024, Note_on_c, 7, 79, 127
2, 21152, Note_off_c, 12, 47, 127
2, 21212, Note_off_c, 7, 79, 127
2, 21216, Note_on_c, 8, 56, 127
2, 21216, Note_on_c, 5, 77, 127
2, 21404, Note_off_c, 5, 77, 127
2, 21408, Note_on_c, 4, 76, 127
2, 21596, Note_off_c, 4, 76, 127
2, 21600, Note_on_c, 5, 77, 127
2, 21788, Note_off_c, 8, 56, 127
2, 21792, Note_on_c, 7, 55, 127
2, 21960, Note_off_c, 5, 77, 127
2, 21980, Note_off_c, 7, 55, 127
2, 21984, Note_on_c, 5, 53, 127
2, 21984, Note_on_c, 2, 74, 127
2, 22172, Note_off_c, 5, 53, 127
2, 22176, Note_on_c, 3, 51, 127
2, 22324, Note_off_c, 2, 74, 127
2, 22364, Note_off_c, 3, 51, 127
2, 22368, Note_on_c, 2, 50, 127
2, 22368, Note_on_c, 0, 72, 127
2, 22556, Note_off_c, 2, 50, 127
2, 22560, Note_on_c, 0, 48, 127
2, 22748, Note_off_c, 0, 48, 127
2, 22748, Note_off_c, 0, 72, 127
2, 22752, Note_on_c, 12, 47, 127
2, 22752, Note_on_c, 12, 71, 127
2, 22940, Note_off_c, 12, 47, 127
2, 22944, Note_on_c, 10, 45, 127
2, 23132, Note_off_c, 10, 45, 127
2, 23136, Note_on_c, 7, 43, 127
2, 23324, Note_off_c, 7, 43, 127
2, 23324, Note_off_c, 12, 71, 127
2, 23328, Note_on_c, 10, 45, 127
2, 23328, Note_on_c, 0, 72, 127
2, 23516, Note_off_c, 0, 72, 127
2, 23516, Note_off_c, 10, 45, 127
2, 23520, Note_on_c, 12, 47, 127
2, 23520, Note_on_c, 2, 74, 127
2, 23708, Note_off_c, 2, 74, 127
2, 23708, Note_off_c, 12, 47, 127
2, 23712, Note_on_c, 0, 48, 127
2, 23712, Note_on_c, 3, 75, 127
2, 23900, Note_off_c, 3, 75, 127
2, 23900, Note_off_c, 0, 48, 127
2, 23904, Note_on_c, 2, 50, 127
2, 23904, Note_on_c, 5, 77, 127
2, 24092, Note_off_c, 2, 50, 127
2, 24096, Note_on_c, 3, 51, 127
2, 24284, Note_off_c, 3, 51, 127
2, 24284, Note_off_c, 5, 77, 127
2, 24288, Note_on_c, 5, 53, 127
2, 24288, Note_on_c, 2, 74, 127
2, 24476, Note_off_c, 2, 74, 127
2, 24476, Note_off_c, 5, 53, 127
2, 24480, Note_on_c, 2, 50, 127
2, 24480, Note_on_c, 12, 71, 127
2, 24668, Note_off_c, 12, 71, 127
2, 24668, Note_off_c, 2, 50, 127
2, 24672, Note_on_c, 0, 48, 127
2, 24672, Note_on_c, 8, 68, 127
2, 24860, Note_off_c, 0, 48, 127
2, 24864, Note_on_c, 12, 47, 127
2, 25052, Note_off_c, 12, 47, 127
2, 25052, Note_off_c, 8, 68, 127
2, 25056, Note_on_c, 0, 48, 127
2, 25056, Note_on_c, 7, 67, 127
2, 25244, Note_off_c, 0, 48, 127
2, 25248, Note_on_c, 12, 47, 127
2, 25436, Note_off_c, 12, 47, 127
2, 25440, Note_on_c, 3, 51, 127
2, 25628, Note_off_c, 7, 67, 127
2, 25632, Note_on_c, 5, 65, 127
2, 25760, Note_off_c, 3, 51, 127
2, 25820, Note_off_c, 5, 65, 127
2, 25824, Note_on_c, 0, 60, 127
2, 25824, Note_on_c, 3, 63, 127
2, 26012, Note_off_c, 3, 63, 127
2, 26016, Note_on_c, 2, 62, 127
2, 26204, Note_off_c, 2, 62, 127
2, 26208, Note_on_c, 3, 63, 127
2, 26396, Note_off_c, 0, 60, 127
2, 26400, Note_on_c, 2, 62, 127
2, 26568, Note_off_c, 3, 63, 127
2, 26588, Note_off_c, 2, 62, 127
2, 26592, Note_on_c, 3, 63, 127
2, 26592, Note_on_c, 0, 60, 127
2, 26780, Note_off_c, 3, 63, 127
2, 26784, Note_on_c, 2, 62, 127
2, 26932, Note_off_c, 0, 60, 127
2, 26972, Note_off_c, 2, 62, 127
2, 26976, Note_on_c, 0, 60, 127
2, 26976, Note_on_c, 3, 75, 127
2, 27068, Note_off_c, 3, 75, 127
2, 27072, Note_on_c, 2, 74, 127
2, 27164, Note_off_c, 2, 74, 127
2, 27164, Note_off_c, 0, 60, 127
2, 27168, Note_on_c, 11, 58, 127
2, 27168, Note_on_c, 3, 75, 127
2, 27356, Note_off_c, 11, 58, 127
2, 27360, Note_on_c, 10, 57, 127
2, 27548, Note_off_c, 10, 57, 127
2, 27552, Note_on_c, 7, 55, 127
2, 27740, Note_off_c, 7, 55, 127
2, 27744, Note_on_c, 6, 54, 127
2, 27932, Note_off_c, 3, 75, 127
2, 27936, Note_on_c, 2, 74, 127
2, 28064, Note_off_c, 6, 54, 127
2, 28124, Note_off_c, 2, 74, 127
2, 28128, Note_on_c, 3, 63, 127
2, 28128, Note_on_c, 0, 72, 127
2, 28316, Note_off_c, 0, 72, 127
2, 28320, Note_on_c, 12, 71, 127
2, 28508, Note_off_c, 12, 71, 127
2, 28512, Note_on_c, 0, 72, 127
2, 28700, Note_off_c, 3, 63, 127
2, 28704, Note_on_c, 2, 62, 127
2, 28892, Note_off_c, 2, 62, 127
2, 28892, Note_off_c, 0, 72, 127
2, 28896, Note_on_c, 0, 60, 127
2, 28896, Note_on_c, 10, 69, 127
2, 29084, Note_off_c, 0, 60, 127
2, 29088, Note_on_c, 11, 58, 127
2, 29196, Note_off_c, 10, 69, 127
2, 29276, Note_off_c, 11, 58, 127
2, 29280, Note_on_c, 10, 57, 127
2, 29280, Note_on_c, 2, 74, 127
2, 29372, Note_off_c, 2, 74, 127
2, 29376, Note_on_c, 4, 76, 127
2, 29468, Note_off_c, 4, 76, 127
2, 29468, Note_off_c, 10, 57, 127
2, 29472, Note_on_c, 7, 55, 127
2, 29472, Note_on_c, 6, 78, 127
2, 29660, Note_off_c, 7, 55, 127
2, 29664, Note_on_c, 6, 54, 127
2, 29852, Note_off_c, 6, 54, 127
2, 29856, Note_on_c, 4, 52, 127
2, 30044, Note_off_c, 4, 52, 127
2, 30048, Note_on_c, 2, 50, 127
2, 30236, Note_off_c, 2, 50, 127
2, 30236, Note_off_c, 6, 78, 127
2, 30240, Note_on_c, 4, 52, 127
2, 30240, Note_on_c, 7, 79, 127
2, 30428, Note_off_c, 7, 79, 127
2, 30428, Note_off_c, 4, 52, 127
2, 30432, Note_on_c, 6, 54, 127
2, 30432, Note_on_c, 10, 81, 127
2, 30620, Note_off_c, 10, 81, 127
2, 30620, Note_off_c, 6, 54, 127
2, 30624, Note_on_c, 7, 55, 127
2, 30624, Note_on_c, 11, 82, 127
2, 30812, Note_off_c, 11, 82, 127
2, 30812, Note_off_c, 7, 55, 127
2, 30816, Note_on_c, 10, 57, 127
2, 30816, Note_on_c, 0, 84, 127
2, 31004, Note_off_c, 10, 57, 127
2, 31008, Note_on_c, 11, 58, 127
2, 31196, Note_off_c, 11, 58, 127
2, 31196, Note_off_c, 0, 84, 127
2, 31200, Note_on_c, 0, 60, 127
2, 31200, Note_on_c, 10, 81, 127
2, 31388, Note_off_c, 10, 81, 127
2, 31388, Note_off_c, 0, 60, 127
2, 31392, Note_on_c, 10, 57, 127
2, 31392, Note_on_c, 6, 78, 127
2, 31580, Note_off_c, 6, 78, 127
2, 31580, Note_off_c, 10, 57, 127
2, 31584, Note_on_c, 7, 55, 127
2, 31584, Note_on_c, 3, 75, 127
2, 31772, Note_off_c, 7, 55, 127
2, 31776, Note_on_c, 6, 54, 127
2, 31944, Note_off_c, 3, 75, 127
2, 31964, Note_off_c, 6, 54, 127
2, 31968, Note_on_c, 7, 55, 127
2, 31968, Note_on_c, 2, 74, 127
2, 32156, Note_off_c, 7, 55, 127
2, 32160, Note_on_c, 6, 54, 127
2, 32308, Note_off_c, 2, 74, 127
2, 32348, Note_off_c, 6, 54, 127
2, 32352, Note_on_c, 7, 55, 127
2, 32352, Note_on_c, 0, 72, 127
2, 32540, Note_off_c, 7, 55, 127
2, 32544, Note_on_c, 10, 57, 127
2, 32732, Note_off_c, 10, 57, 127
2, 32732, Note_off_c, 0, 72, 127
2, 32736, Note_on_c, 12, 59, 127
2, 32760, Note_on_c, 12, 71, 127
2, 32850, Note_on_c, 0, 72, 127
2, 32852, Note_off_c, 12, 71, 127
2, 32924, Note_off_c, 12, 59, 127
2, 32928, Note_on_c, 0, 60, 127
2, 32940, Note_on_c, 12, 71, 127
2, 32942, Note_off_c, 0, 72, 127
2, 33030, Note_on_c, 0, 72, 127
2, 33032, Note_off_c, 12, 71, 127
2, 33116, Note_off_c, 0, 60, 127
2, 33120, Note_on_c, 2, 62, 127
2, 33120, Note_on_c, 12, 71, 127
2, 33122, Note_off_c, 0, 72, 127
2, 33308, Note_off_c, 2, 62, 127
2, 33312, Note_on_c, 3, 63, 127
2, 33500, Note_off_c, 3, 63, 127
2, 33504, Note_on_c, 5, 65, 127
2, 33560, Note_off_c, 12, 71, 127
2, 33692, Note_off_c, 5, 65, 127
2, 33696, Note_on_c, 2, 62, 127
2, 33696, Note_on_c, 12, 71, 127
2, 33884, Note_off_c, 2, 62, 127
2, 33886, Note_off_c, 12, 71, 127
2, 33888, Note_on_c, 3, 63, 127
2, 33888, Note_on_c, 0, 72, 127
2, 33980, Note_off_c, 0, 72, 127
2, 33984, Note_on_c, 12, 71, 127
2, 34076, Note_off_c, 12, 71, 127
2, 34076, Note_off_c, 3, 63, 127
2, 34080, Note_on_c, 0, 60, 127
2, 34080, Note_on_c, 0, 72, 127
2, 34268, Note_off_c, 0, 60, 127
2, 34272, Note_on_c, 2, 62, 127
2, 34460, Note_off_c, 2, 62, 127
2, 34464, Note_on_c, 3, 63, 127
2, 34652, Note_off_c, 3, 63, 127
2, 34656, Note_on_c, 5, 65, 127
2, 34844, Note_off_c, 5, 65, 127
2, 34848, Note_on_c, 7, 67, 127
2, 34880, Note_off_c, 0, 72, 127
2, 34944, Note_on_c, 2, 74, 127
2, 35036, Note_off_c, 2, 74, 127
2, 35036, Note_off_c, 7, 67, 127
2, 35040, Note_on_c, 8, 68, 127
2, 35040, Note_on_c, 0, 72, 127
2, 35132, Note_off_c, 0, 72, 127
2, 35136, Note_on_c, 12, 71, 127
2, 35228, Note_off_c, 12, 71, 127
2, 35228, Note_off_c, 8, 68, 127
2, 35232, Note_on_c, 5, 65, 127
2, 35232, Note_on_c, 0, 72, 127
2, 35324, Note_off_c, 0, 72, 127
2, 35328, Note_on_c, 2, 74, 127
2, 35420, Note_off_c, 2, 74, 127
2, 35420, Note_off_c, 5, 65, 127
2, 35424, Note_on_c, 7, 67, 127
2, 35424, Note_on_c, 3, 75, 127
2, 35612, Note_off_c, 7, 67, 127
2, 35616, Note_on_c, 2, 62, 127
2, 35646, Note_off_c, 3, 75, 127
2, 35648, Note_on_c, 2, 74, 127
2, 35716, Note_on_c, 3, 75, 127
2, 35718, Note_off_c, 2, 74, 127
2, 35784, Note_on_c, 2, 74, 127
2, 35786, Note_off_c, 3, 75, 127
2, 35804, Note_off_c, 2, 62, 127
2, 35808, Note_on_c, 3, 63, 127
2, 35852, Note_on_c, 3, 75, 127
2, 35854, Note_off_c, 2, 74, 127
2, 35920, Note_on_c, 2, 74, 127
2, 35922, Note_off_c, 3, 75, 127
2, 35988, Note_on_c, 3, 75, 127
2, 35990, Note_off_c, 2, 74, 127
2, 35996, Note_off_c, 3, 63, 127
2, 36000, Note_on_c, 5, 65, 127
2, 36056, Note_on_c, 2, 74, 127
2, 36058, Note_off_c, 3, 75, 127
2, 36124, Note_on_c, 3, 75, 127
2, 36126, Note_off_c, 2, 74, 127
2, 36188, Note_off_c, 5, 65, 127
2, 36192, Note_on_c, 7, 55, 127
2, 36192, Note_on_c, 2, 74, 127
2, 36194, Note_off_c, 3, 75, 127
2, 36380, Note_off_c, 7, 55, 127
2, 36384, Note_on_c, 5, 65, 127
2, 36552, Note_off_c, 2, 74, 127
2, 36572, Note_off_c, 5, 65, 127
2, 36576, Note_on_c, 3, 63, 127
2, 36576, Note_on_c, 0, 72, 127
2, 36764, Note_off_c, 3, 63, 127
2, 36768, Note_on_c, 2, 62, 127
2, 36916, Note_off_c, 0, 72, 127
2, 36956, Note_off_c, 2, 62, 127
2, 36960, Note_on_c, 3, 63, 127
2, 36960, Note_on_c, 0, 72, 127
2, 37148, Note_off_c, 3, 63, 127
2, 37152, Note_on_c, 5, 53, 127
2, 37340, Note_off_c, 5, 53, 127
2, 37344, Note_on_c, 3, 51, 127
2, 37532, Note_off_c, 3, 51, 127
2, 37536, Note_on_c, 2, 50, 127
2, 37724, Note_off_c, 2, 50, 127
2, 37728, Note_on_c, 3, 51, 127
2, 37916, Note_off_c, 0, 72, 127
2, 37920, Note_on_c, 2, 74, 127
2, 38098, Note_off_c, 3, 51, 127
2, 38108, Note_off_c, 2, 74, 127
2, 38112, Note_on_c, 0, 48, 127
2, 38112, Note_on_c, 3, 75, 127
2, 38300, Note_off_c, 3, 75, 127
2, 38304, Note_on_c, 2, 74, 127
2, 38482, Note_off_c, 0, 48, 127
2, 38492, Note_off_c, 2, 74, 127
2, 38496, Note_on_c, 8, 56, 127
2, 38496, Note_on_c, 0, 72, 127
2, 38684, Note_off_c, 0, 72, 127
2, 38684, Note_off_c, 8, 56, 127
2, 38688, Note_on_c, 7, 55, 127
2, 38688, Note_on_c, 11, 70, 127
2, 38876, Note_off_c, 11, 70, 127
2, 38876, Note_off_c, 7, 55, 127
2, 38880, Note_on_c, 8, 56, 127
2, 38880, Note_on_c, 8, 68, 127
2, 39068, Note_off_c, 8, 68, 127
2, 39072, Note_on_c, 7, 67, 127
2, 39260, Note_off_c, 7, 67, 127
2, 39264, Note_on_c, 5, 65, 127
2, 39452, Note_off_c, 8, 56, 127
2, 39456, Note_on_c, 7, 55, 127
2, 39564, Note_off_c, 5, 65, 127
2, 39644, Note_off_c, 7, 55, 127
2, 39648, Note_on_c, 5, 53, 127
2, 39648, Note_on_c, 2, 74, 127
2, 39836, Note_off_c, 5, 53, 127
2, 39840, Note_on_c, 4, 52, 127
2, 40028, Note_off_c, 4, 52, 127
2, 40032, Note_on_c, 5, 53, 127
2, 40220, Note_off_c, 2, 74, 127
2, 40224, Note_on_c, 3, 75, 127
2, 40402, Note_off_c, 5, 53, 127
2, 40412, Note_off_c, 3, 75, 127
2, 40416, Note_on_c, 2, 50, 127
2, 40416, Note_on_c, 5, 77, 127
2, 40604, Note_off_c, 5, 77, 127
2, 40608, Note_on_c, 3, 75, 127
2, 40786, Note_off_c, 2, 50, 127
2, 40796, Note_off_c, 3, 75, 127
2, 40800, Note_on_c, 12, 59, 127
2, 40800, Note_on_c, 2, 74, 127
2, 40988, Note_off_c, 2, 74, 127
2, 40988, Note_off_c, 12, 59, 127
2, 40992, Note_on_c, 10, 57, 127
2, 40992, Note_on_c, 0, 72, 127
2, 41180, Note_off_c, 0, 72, 127
2, 41180, Note_off_c, 10, 57, 127
2, 41184, Note_on_c, 12, 59, 127
2, 41184, Note_on_c, 12, 71, 127
2, 41372, Note_off_c, 12, 71, 127
2, 41376, Note_on_c, 10, 69, 127
2, 41564, Note_off_c, 10, 69, 127
2, 41568, Note_on_c, 7, 67, 127
2, 41756, Note_off_c, 7, 67, 127
2, 41756, Note_off_c, 12, 59, 127
2, 41760, Note_on_c, 0, 60, 127
2, 41760, Note_on_c, 10, 69, 127
2, 41948, Note_off_c, 10, 69, 127
2, 41948, Note_off_c, 0, 60, 127
2, 41952, Note_on_c, 2, 62, 127
2, 41952, Note_on_c, 12, 71, 127
2, 42140, Note_off_c, 12, 71, 127
2, 42140, Note_off_c, 2, 62, 127
2, 42144, Note_on_c, 3, 63, 127
2, 42144, Note_on_c, 0, 72, 127
2, 42332, Note_off_c, 0, 72, 127
2, 42332, Note_off_c, 3, 63, 127
2, 42336, Note_on_c, 5, 65, 127
2, 42336, Note_on_c, 2, 74, 127
2, 42524, Note_off_c, 2, 74, 127
2, 42528, Note_on_c, 3, 75, 127
2, 42716, Note_off_c, 3, 75, 127
2, 42716, Note_off_c, 5, 65, 127
2, 42720, Note_on_c, 2, 62, 127
2, 42720, Note_on_c, 5, 77, 127
2, 42908, Note_off_c, 5, 77, 127
2, 42908, Note_off_c, 2, 62, 127
2, 42912, Note_on_c, 12, 59, 127
2, 42912, Note_on_c, 2, 74, 127
2, 43100, Note_off_c, 2, 74, 127
2, 43100, Note_off_c, 12, 59, 127
2, 43104, Note_on_c, 8, 56, 127
2, 43104, Note_on_c, 0, 72, 127
2, 43292, Note_off_c, 0, 72, 127
2, 43296, Note_on_c, 12, 71, 127
2, 43484, Note_off_c, 12, 71, 127
2, 43484, Note_off_c, 8, 56, 127
2, 43488, Note_on_c, 7, 55, 127
2, 43488, Note_on_c, 0, 72, 127
2, 43676, Note_off_c, 0, 72, 127
2, 43680, Note_on_c, 12, 71, 127
2, 43868, Note_off_c, 12, 71, 127
2, 43868, Note_off_c, 7, 55, 127
2, 43872, Note_on_c, 5, 53, 127
2, 43872, Note_on_c, 7, 79, 127
2, 43998, Note_off_c, 7, 79, 127
2, 44000, Note_on_c, 5, 77, 127
2, 44060, Note_off_c, 5, 53, 127
2, 44064, Note_on_c, 3, 51, 127
2, 44126, Note_off_c, 5, 77, 127
2, 44128, Note_on_c, 7, 79, 127
2, 44252, Note_off_c, 3, 51, 127
2, 44256, Note_on_c, 2, 50, 127
2, 44444, Note_off_c, 2, 50, 127
2, 44448, Note_on_c, 3, 51, 127
2, 44636, Note_off_c, 3, 51, 127
2, 44640, Note_on_c, 5, 53, 127
2, 44700, Note_off_c, 7, 79, 127
2, 44828, Note_off_c, 5, 53, 127
2, 44832, Note_on_c, 8, 56, 127
2, 44832, Note_on_c, 5, 77, 127
2, 45020, Note_off_c, 5, 77, 127
2, 45020, Note_off_c, 8, 56, 127
2, 45024, Note_on_c, 7, 55, 127
2, 45024, Note_on_c, 3, 75, 127
2, 45212, Note_off_c, 3, 75, 127
2, 45212, Note_off_c, 7, 55, 127
2, 45216, Note_on_c, 5, 53, 127
2, 45216, Note_on_c, 2, 74, 127
2, 45404, Note_off_c, 2, 74, 127
2, 45404, Note_off_c, 5, 53, 127
2, 45408, Note_on_c, 3, 51, 127
2, 45408, Note_on_c, 0, 72, 127
2, 45500, Note_off_c, 0, 72, 127
2, 45504, Note_on_c, 12, 71, 127
2, 45596, Note_off_c, 12, 71, 127
2, 45596, Note_off_c, 3, 51, 127
2, 45600, Note_on_c, 2, 50, 127
2, 45600, Note_on_c, 0, 72, 127
2, 45788, Note_off_c, 2, 50, 127
2, 45792, Note_on_c, 0, 48, 127
2, 45980, Note_off_c, 0, 48, 127
2, 45984, Note_on_c, 11, 46, 127
2, 46172, Note_off_c, 11, 46, 127
2, 46176, Note_on_c, 10, 45, 127
2, 46364, Note_off_c, 0, 72, 127
2, 46368, Note_on_c, 11, 70, 127
2, 46516, Note_off_c, 10, 45, 127
2, 46556, Note_off_c, 11, 70, 127
2, 46560, Note_on_c, 0, 60, 127
2, 46560, Note_on_c, 10, 69, 127
2, 46748, Note_off_c, 10, 69, 127
2, 46752, Note_on_c, 7, 67, 127
2, 46940, Note_off_c, 7, 67, 127
2, 46944, Note_on_c, 10, 69, 127
2, 47132, Note_off_c, 0, 60, 127
2, 47136, Note_on_c, 11, 58, 127
2, 47304, Note_off_c, 10, 69, 127
2, 47324, Note_off_c, 11, 58, 127
2, 47328, Note_on_c, 10, 57, 127
2, 47328, Note_on_c, 5, 65, 127
2, 47516, Note_off_c, 10, 57, 127
2, 47520, Note_on_c, 7, 55, 127
2, 47668, Note_off_c, 5, 65, 127
2, 47708, Note_off_c, 7, 55, 127
2, 47712, Note_on_c, 5, 53, 127
2, 47712, Note_on_c, 0, 72, 127
2, 47804, Note_off_c, 0, 72, 127
2, 47808, Note_on_c, 1, 73, 127
2, 47900, Note_off_c, 1, 73, 127
2, 47900, Note_off_c, 5, 53, 127
2, 47904, Note_on_c, 3, 51, 127
2, 47904, Note_on_c, 3, 75, 127
2, 48092, Note_off_c, 3, 51, 127
2, 48096, Note_on_c, 1, 49, 127
2, 48284, Note_off_c, 1, 49, 127
2, 48288, Note_on_c, 0, 48, 127
2, 48476, Note_off_c, 0, 48, 127
2, 48480, Note_on_c, 11, 46, 127
2, 48668, Note_off_c, 3, 75, 127
2, 48672, Note_on_c, 1, 73, 127
2, 48860, Note_off_c, 1, 73, 127
2, 48860, Note_off_c, 11, 46, 127
2, 48864, Note_on_c, 1, 49, 127
2, 48864, Note_on_c, 0, 72, 127
2, 49052, Note_off_c, 0, 72, 127
2, 49056, Note_on_c, 1, 73, 127
2, 49244, Note_off_c, 1, 73, 127
2, 49244, Note_off_c, 1, 49, 127
2, 49248, Note_on_c, 5, 53, 127
2, 49248, Note_on_c, 3, 75, 127
2, 49436, Note_off_c, 3, 75, 127
2, 49440, Note_on_c, 6, 78, 127
2, 49628, Note_off_c, 6, 78, 127
2, 49628, Note_off_c, 5, 53, 127
2, 49632, Note_on_c, 10, 57, 127
2, 49632, Note_on_c, 5, 77, 127
2, 49820, Note_off_c, 5, 77, 127
2, 49824, Note_on_c, 3, 75, 127
2, 50012, Note_off_c, 3, 75, 127
2, 50012, Note_off_c, 10, 57, 127
2, 50016, Note_on_c, 11, 58, 127
2, 50016, Note_on_c, 1, 73, 127
2, 50204, Note_off_c, 1, 73, 127
2, 50204, Note_off_c, 11, 58, 127
2, 50208, Note_on_c, 10, 57, 127
2, 50208, Note_on_c, 0, 72, 127
2, 50396, Note_off_c, 0, 72, 127
2, 50396, Note_off_c, 10, 57, 127
2, 50400, Note_on_c, 11, 58, 127
2, 50400, Note_on_c, 11, 70, 127
2, 50588, Note_off_c, 11, 70, 127
2, 50592, Note_on_c, 8, 68, 127
2, 50780, Note_off_c, 8, 68, 127
2, 50784, Note_on_c, 7, 67, 127
2, 50972, Note_off_c, 11, 58, 127
2, 50976, Note_on_c, 8, 56, 127
2, 51084, Note_off_c, 7, 67, 127
2, 51164, Note_off_c, 8, 56, 127
2, 51168, Note_on_c, 7, 55, 127
2, 51168, Note_on_c, 11, 82, 127
2, 51356, Note_off_c, 7, 55, 127
2, 51360, Note_on_c, 5, 53, 127
2, 51548, Note_off_c, 5, 53, 127
2, 51552, Note_on_c, 7, 55, 127
2, 51740, Note_off_c, 11, 82, 127
2, 51744, Note_on_c, 8, 80, 127
2, 51922, Note_off_c, 7, 55, 127
2, 51932, Note_off_c, 8, 80, 127
2, 51936, Note_on_c, 3, 51, 127
2, 51936, Note_on_c, 7, 79, 127
2, 52124, Note_off_c, 7, 79, 127
2, 52128, Note_on_c, 5, 77, 127
2, 52306, Note_off_c, 3, 51, 127
2, 52316, Note_off_c, 5, 77, 127
2, 52320, Note_on_c, 1, 61, 127
2, 52320, Note_on_c, 3, 75, 127
2, 52508, Note_off_c, 3, 75, 127
2, 52508, Note_off_c, 1, 61, 127
2, 52512, Note_on_c, 0, 60, 127
2, 52512, Note_on_c, 1, 73, 127
2, 52700, Note_off_c, 1, 73, 127
2, 52700, Note_off_c, 0, 60, 127
2, 52704, Note_on_c, 1, 61, 127
2, 52704, Note_on_c, 0, 72, 127
2, 52892, Note_off_c, 0, 72, 127
2, 52896, Note_on_c, 11, 70, 127
2, 53084, Note_off_c, 11, 70, 127
2, 53088, Note_on_c, 8, 68, 127
2, 53276, Note_off_c, 1, 61, 127
2, 53280, Note_on_c, 0, 60, 127
2, 53468, Note_off_c, 0, 60, 127
2, 53468, Note_off_c, 8, 68, 127
2, 53472, Note_on_c, 11, 58, 127
2, 53472, Note_on_c, 0, 72, 127
2, 53660, Note_off_c, 11, 58, 127
2, 53664, Note_on_c, 0, 60, 127
2, 53852, Note_off_c, 0, 60, 127
2, 53852, Note_off_c, 0, 72, 127
2, 53856, Note_on_c, 1, 61, 127
2, 53856, Note_on_c, 3, 75, 127
2, 54044, Note_off_c, 1, 61, 127
2, 54048, Note_on_c, 5, 65, 127
2, 54236, Note_off_c, 5, 65, 127
2, 54236, Note_off_c, 3, 75, 127
2, 54240, Note_on_c, 3, 63, 127
2, 54240, Note_on_c, 7, 79, 127
2, 54428, Note_off_c, 3, 63, 127
2, 54432, Note_on_c, 1, 61, 127
2, 54620, Note_off_c, 1, 61, 127
2, 54620, Note_off_c, 7, 79, 127
2, 54624, Note_on_c, 0, 60, 127
2, 54624, Note_on_c, 8, 80, 127
2, 54716, Note_off_c, 8, 80, 127
2, 54720, Note_on_c, 7, 79, 127
2, 54812, Note_off_c, 7, 79, 127
2, 54812, Note_off_c, 0, 60, 127
2, 54816, Note_on_c, 11, 58, 127
2, 54816, Note_on_c, 8, 80, 127
2, 55004, Note_off_c, 11, 58, 127
2, 55008, Note_on_c, 8, 56, 127
2, 55196, Note_off_c, 8, 56, 127
2, 55200, Note_on_c, 7, 55, 127
2, 55388, Note_off_c, 7, 55, 127
2, 55392, Note_on_c, 5, 53, 127
2, 55580, Note_off_c, 8, 80, 127
2, 55584, Note_on_c, 7, 79, 127
2, 55732, Note_off_c, 5, 53, 127
2, 55772, Note_off_c, 7, 79, 127
2, 55776, Note_on_c, 5, 65, 127
2, 55776, Note_on_c, 5, 77, 127
2, 55964, Note_off_c, 5, 77, 127
2, 55968, Note_on_c, 3, 75, 127
2, 56156, Note_off_c, 3, 75, 127
2, 56160, Note_on_c, 1, 73, 127
2, 56348, Note_off_c, 1, 73, 127
2, 56348, Note_off_c, 5, 65, 127
2, 56352, Note_on_c, 3, 63, 127
2, 56352, Note_on_c, 11, 70, 127
2, 56540, Note_off_c, 11, 70, 127
2, 56540, Note_off_c, 3, 63, 127
2, 56544, Note_on_c, 1, 61, 127
2, 56544, Note_on_c, 8, 80, 127
2, 56732, Note_off_c, 1, 61, 127
2, 56736, Note_on_c, 0, 60, 127
2, 56904, Note_off_c, 8, 80, 127
2, 56924, Note_off_c, 0, 60, 127
2, 56928, Note_on_c, 11, 58, 127
2, 56928, Note_on_c, 7, 79, 127
2, 57020, Note_off_c, 7, 79, 127
2, 57024, Note_on_c, 5, 77, 127
2, 57116, Note_off_c, 5, 77, 127
2, 57116, Note_off_c, 11, 58, 127
2, 57120, Note_on_c, 8, 56, 127
2, 57120, Note_on_c, 7, 79, 127
2, 57308, Note_off_c, 8, 56, 127
2, 57312, Note_on_c, 7, 55, 127
2, 57500, Note_off_c, 7, 55, 127
2, 57504, Note_on_c, 11, 58, 127
2, 57692, Note_off_c, 11, 58, 127
2, 57696, Note_on_c, 3, 51, 127
2, 57884, Note_off_c, 7, 79, 127
2, 57888, Note_on_c, 5, 77, 127
2, 58036, Note_off_c, 3, 51, 127
2, 58076, Note_off_c, 5, 77, 127
2, 58080, Note_on_c, 3, 63, 127
2, 58080, Note_on_c, 3, 75, 127
2, 58268, Note_off_c, 3, 75, 127
2, 58272, Note_on_c, 1, 73, 127
2, 58460, Note_off_c, 1, 73, 127
2, 58464, Note_on_c, 0, 72, 127
2, 58652, Note_off_c, 0, 72, 127
2, 58652, Note_off_c, 3, 63, 127
2, 58656, Note_on_c, 1, 61, 127
2, 58656, Note_on_c, 8, 68, 127
2, 58844, Note_off_c, 8, 68, 127
2, 58844, Note_off_c, 1, 61, 127
2, 58848, Note_on_c, 0, 60, 127
2, 58848, Note_on_c, 6, 78, 127
2, 59036, Note_off_c, 0, 60, 127
2, 59040, Note_on_c, 11, 58, 127
2, 59208, Note_off_c, 6, 78, 127
2, 59228, Note_off_c, 11, 58, 127
2, 59232, Note_on_c, 8, 56, 127
2, 59232, Note_on_c, 5, 77, 127
2, 59324, Note_off_c, 5, 77, 127
2, 59328, Note_on_c, 3, 75, 127
2, 59420, Note_off_c, 3, 75, 127
2, 59420, Note_off_c, 8, 56, 127
2, 59424, Note_on_c, 6, 54, 127
2, 59424, Note_on_c, 5, 77, 127
2, 59612, Note_off_c, 6, 54, 127
2, 59616, Note_on_c, 5, 53, 127
2, 59804, Note_off_c, 5, 53, 127
2, 59808, Note_on_c, 8, 56, 127
2, 59996, Note_off_c, 8, 56, 127
2, 60000, Note_on_c, 1, 49, 127
2, 60188, Note_off_c, 5, 77, 127
2, 60192, Note_on_c, 3, 75, 127
2, 60340, Note_off_c, 1, 49, 127
2, 60380, Note_off_c, 3, 75, 127
2, 60384, Note_on_c, 1, 61, 127
2, 60384, Note_on_c, 1, 73, 127
2, 60572, Note_off_c, 1, 73, 127
2, 60576, Note_on_c, 0, 72, 127
2, 60764, Note_off_c, 0, 72, 127
2, 60768, Note_on_c, 11, 70, 127
2, 60956, Note_off_c, 11, 70, 127
2, 60956, Note_off_c, 1, 61, 127
2, 60960, Note_on_c, 0, 60, 127
2, 60960, Note_on_c, 8, 68, 127
2, 61148, Note_off_c, 8, 68, 127
2, 61148, Note_off_c, 0, 60, 127
2, 61152, Note_on_c, 11, 58, 127
2, 61152, Note_on_c, 7, 67, 127
2, 61340, Note_off_c, 7, 67, 127
2, 61340, Note_off_c, 11, 58, 127
2, 61344, Note_on_c, 8, 56, 127
2, 61344, Note_on_c, 8, 68, 127
2, 61532, Note_off_c, 8, 68, 127
2, 61532, Note_off_c, 8, 56, 127
2, 61536, Note_on_c, 7, 55, 127
2, 61536, Note_on_c, 11, 70, 127
2, 61724, Note_off_c, 11, 70, 127
2, 61724, Note_off_c, 7, 55, 127
2, 61728, Note_on_c, 5, 53, 127
2, 61728, Note_on_c, 8, 68, 127
2, 61916, Note_off_c, 8, 68, 127
2, 61916, Note_off_c, 5, 53, 127
2, 61920, Note_on_c, 4, 52, 127
2, 61920, Note_on_c, 11, 70, 127
2, 62108, Note_off_c, 4, 52, 127
2, 62112, Note_on_c, 7, 55, 127
2, 62300, Note_off_c, 7, 55, 127
2, 62304, Note_on_c, 0, 48, 127
2, 62492, Note_off_c, 11, 70, 127
2, 62496, Note_on_c, 8, 68, 127
2, 62684, Note_off_c, 8, 68, 127
2, 62688, Note_on_c, 7, 67, 127
2, 62876, Note_off_c, 7, 67, 127
2, 62880, Note_on_c, 5, 65, 127
2, 63068, Note_off_c, 5, 65, 127
2, 63072, Note_on_c, 4, 64, 127
2, 63260, Note_off_c, 4, 64, 127
2, 63260, Note_off_c, 0, 48, 127
2, 63264, Note_on_c, 2, 50, 127
2, 63264, Note_on_c, 5, 65, 127
2, 63452, Note_off_c, 5, 65, 127
2, 63452, Note_off_c, 2, 50, 127
2, 63456, Note_on_c, 4, 52, 127
2, 63456, Note_on_c, 7, 67, 127
2, 63644, Note_off_c, 7, 67, 127
2, 63644, Note_off_c, 4, 52, 127
2, 63648, Note_on_c, 5, 53, 127
2, 63648, Note_on_c, 8, 68, 127
2, 63836, Note_off_c, 8, 68, 127
2, 63836, Note_off_c, 5, 53, 127
2, 63840, Note_on_c, 7, 55, 127
2, 63840, Note_on_c, 11, 70, 127
2, 64028, Note_off_c, 11, 70, 127
2, 64028, Note_off_c, 7, 55, 127
2, 64032, Note_on_c, 8, 56, 127
2, 64032, Note_on_c, 0, 72, 127
2, 64220, Note_off_c, 0, 72, 127
2, 64220, Note_off_c, 8, 56, 127
2, 64224, Note_on_c, 11, 58, 127
2, 64224, Note_on_c, 1, 73, 127
2, 64412, Note_off_c, 1, 73, 127
2, 64412, Note_off_c, 11, 58, 127
2, 64416, Note_on_c, 7, 55, 127
2, 64416, Note_on_c, 11, 70, 127
2, 64604, Note_off_c, 11, 70, 127
2, 64604, Note_off_c, 7, 55, 127
2, 64608, Note_on_c, 8, 56, 127
2, 64608, Note_on_c, 0, 72, 127
2, 64796, Note_off_c, 0, 72, 127
2, 64796, Note_off_c, 8, 56, 127
2, 64800, Note_on_c, 11, 58, 127
2, 64800, Note_on_c, 11, 70, 127
2, 64988, Note_off_c, 11, 70, 127
2, 64988, Note_off_c, 11, 58, 127
2, 64992, Note_on_c, 0, 60, 127
2, 64992, Note_on_c, 8, 68, 127
2, 65180, Note_off_c, 8, 68, 127
2, 65184, Note_on_c, 7, 67, 127
2, 65372, Note_off_c, 7, 67, 127
2, 65376, Note_on_c, 8, 68, 127
2, 65564, Note_off_c, 0, 60, 127
2, 65568, Note_on_c, 11, 58, 127
2, 65736, Note_off_c, 8, 68, 127
2, 65756, Note_off_c, 11, 58, 127
2, 65760, Note_on_c, 8, 56, 127
2, 65760, Note_on_c, 5, 65, 127
2, 65948, Note_off_c, 8, 56, 127
2, 65952, Note_on_c, 7, 55, 127
2, 66100, Note_off_c, 5, 65, 127
2, 66140, Note_off_c, 7, 55, 127
2, 66144, Note_on_c, 5, 53, 127
2, 66144, Note_on_c, 1, 73, 127
2, 66236, Note_off_c, 1, 73, 127
2, 66240, Note_on_c, 0, 72, 127
2, 66332, Note_off_c, 0, 72, 127
2, 66332, Note_off_c, 5, 53, 127
2, 66336, Note_on_c, 3, 51, 127
2, 66336, Note_on_c, 1, 73, 127
2, 66524, Note_off_c, 3, 51, 127
2, 66528, Note_on_c, 1, 49, 127
2, 66716, Note_off_c, 1, 49, 127
2, 66720, Note_on_c, 0, 48, 127
2, 66908, Note_off_c, 0, 48, 127
2, 66912, Note_on_c, 11, 46, 127
2, 67100, Note_off_c, 11, 46, 127
2, 67100, Note_off_c, 1, 73, 127
2, 67104, Note_on_c, 0, 48, 127
2, 67104, Note_on_c, 0, 72, 127
2, 67292, Note_off_c, 0, 72, 127
2, 67292, Note_off_c, 0, 48, 127
2, 67296, Note_on_c, 1, 49, 127
2, 67296, Note_on_c, 11, 70, 127
2, 67484, Note_off_c, 11, 70, 127
2, 67488, Note_on_c, 10, 69, 127
2, 67676, Note_off_c, 10, 69, 127
2, 67680, Note_on_c, 11, 70, 127
2, 67834, Note_off_c, 1, 49, 127
2, 67872, Note_on_c, 0, 48, 127
2, 68040, Note_off_c, 11, 70, 127
2, 68060, Note_off_c, 0, 48, 127
2, 68064, Note_on_c, 11, 46, 127
2, 68064, Note_on_c, 7, 67, 127
2, 68252, Note_off_c, 11, 46, 127
2, 68256, Note_on_c, 8, 44, 127
2, 68404, Note_off_c, 7, 67, 127
2, 68444, Note_off_c, 8, 44, 127
2, 68448, Note_on_c, 7, 43, 127
2, 68448, Note_on_c, 4, 76, 127
2, 68540, Note_off_c, 4, 76, 127
2, 68544, Note_on_c, 2, 74, 127
2, 68636, Note_off_c, 2, 74, 127
2, 68636, Note_off_c, 7, 43, 127
2, 68640, Note_on_c, 5, 41, 127
2, 68640, Note_on_c, 4, 76, 127
2, 68828, Note_off_c, 5, 41, 127
2, 68832, Note_on_c, 4, 40, 127
2, 69020, Note_off_c, 4, 40, 127
2, 69024, Note_on_c, 2, 38, 127
2, 69212, Note_off_c, 2, 38, 127
2, 69216, Note_on_c, 0, 36, 127
2, 69404, Note_off_c, 0, 36, 127
2, 69404, Note_off_c, 4, 76, 127
2, 69408, Note_on_c, 2, 38, 127
2, 69408, Note_on_c, 5, 77, 127
2, 69596, Note_off_c, 5, 77, 127
2, 69596, Note_off_c, 2, 38, 127
2, 69600, Note_on_c, 4, 40, 127
2, 69600, Note_on_c, 7, 79, 127
2, 69788, Note_off_c, 7, 79, 127
2, 69788, Note_off_c, 4, 40, 127
2, 69792, Note_on_c, 5, 41, 127
2, 69792, Note_on_c, 8, 80, 127
2, 69980, Note_off_c, 8, 80, 127
2, 69980, Note_off_c, 5, 41, 127
2, 69984, Note_on_c, 7, 43, 127
2, 69984, Note_on_c, 11, 82, 127
2, 70172, Note_off_c, 7, 43, 127
2, 70176, Note_on_c, 8, 44, 127
2, 70364, Note_off_c, 8, 44, 127
2, 70364, Note_off_c, 11, 82, 127
2, 70368, Note_on_c, 11, 46, 127
2, 70368, Note_on_c, 7, 79, 127
2, 70556, Note_off_c, 7, 79, 127
2, 70556, Note_off_c, 11, 46, 127
2, 70560, Note_on_c, 7, 43, 127
2, 70560, Note_on_c, 4, 76, 127
2, 70748, Note_off_c, 4, 76, 127
2, 70748, Note_off_c, 7, 43, 127
2, 70752, Note_on_c, 5, 41, 127
2, 70752, Note_on_c, 1, 73, 127
2, 70940, Note_off_c, 5, 41, 127
2, 70944, Note_on_c, 4, 40, 127
2, 71122, Note_off_c, 1, 73, 127
2, 71132, Note_off_c, 4, 40, 127
2, 71136, Note_on_c, 5, 41, 127
2, 71136, Note_on_c, 0, 72, 127
2, 71324, Note_off_c, 5, 41, 127
2, 71328, Note_on_c, 4, 40, 127
2, 71506, Note_off_c, 0, 72, 127
2, 71516, Note_off_c, 4, 40, 127
2, 71520, Note_on_c, 5, 41, 127
2, 71520, Note_on_c, 11, 70, 127
2, 71711, Note_off_c, 11, 70, 127
2, 71715, Note_on_c, 8, 68, 127
2, 71906, Note_off_c, 8, 68, 127
2, 71910, Note_on_c, 7, 67, 127
2, 72101, Note_off_c, 7, 67, 127
2, 72105, Note_on_c, 8, 68, 127
2, 72296, Note_off_c, 8, 68, 127
2, 72300, Note_on_c, 11, 70, 127
2, 72414, Note_off_c, 5, 41, 127
2, 72491, Note_off_c, 11, 70, 127
2, 72495, Note_on_c, 0, 48, 127
2, 72495, Note_on_c, 1, 73, 127
2, 72686, Note_off_c, 1, 73, 127
2, 72686, Note_off_c, 0, 48, 127
2, 72690, Note_on_c, 2, 50, 127
2, 72690, Note_on_c, 0, 72, 127
2, 72881, Note_off_c, 0, 72, 127
2, 72881, Note_off_c, 2, 50, 127
2, 72885, Note_on_c, 4, 52, 127
2, 72885, Note_on_c, 11, 70, 127
2, 73076, Note_off_c, 11, 70, 127
2, 73076, Note_off_c, 4, 52, 127
2, 73080, Note_on_c, 5, 53, 127
2, 73080, Note_on_c, 8, 68, 127
2, 73274, Note_off_c, 8, 68, 127
2, 73274, Note_off_c, 5, 53, 127
2, 73278, Note_on_c, 4, 52, 127
2, 73278, Note_on_c, 7, 67, 127
2, 73472, Note_off_c, 7, 67, 127
2, 73472, Note_off_c, 4, 52, 127
2, 73476, Note_on_c, 5, 53, 127
2, 73476, Note_on_c, 5, 65, 127
2, 73670, Note_off_c, 5, 65, 127
2, 73670, Note_off_c, 5, 53, 127
2, 73674, Note_on_c, 7, 55, 127
2, 73674, Note_on_c, 4, 64, 127
2, 73868, Note_off_c, 4, 64, 127
2, 73868, Note_off_c, 7, 55, 127
2, 73872, Note_on_c, 8, 56, 127
2, 73872, Note_on_c, 0, 72, 127
2, 73969, Note_off_c, 0, 72, 127
2, 73973, Note_on_c, 11, 70, 127
2, 74070, Note_off_c, 11, 70, 127
2, 74070, Note_off_c, 8, 56, 127
2, 74074, Note_on_c, 7, 55, 127
2, 74074, Note_on_c, 0, 72, 127
2, 74272, Note_off_c, 7, 55, 127
2, 74276, Note_on_c, 8, 56, 127
2, 74474, Note_off_c, 8, 56, 127
2, 74474, Note_off_c, 0, 72, 127
2, 74478, Note_on_c, 11, 58, 127
2, 74478, Note_on_c, 1, 73, 127
2, 74676, Note_off_c, 1, 73, 127
2, 74676, Note_off_c, 11, 58, 127
2, 74680, Note_on_c, 0, 60, 127
2, 74680, Note_on_c, 8, 68, 127
2, 74920, Note_off_c, 8, 68, 127
2, 74920, Note_on_c, 7, 67, 127
2, 75015, Note_on_c, 8, 68, 127
2, 75017, Note_off_c, 7, 67, 127
2, 75080, Note_off_c, 0, 60, 127
2, 75084, Note_on_c, 11, 58, 127
2, 75109, Note_on_c, 7, 67, 127
2, 75111, Note_off_c, 8, 68, 127
2, 75204, Note_on_c, 8, 68, 127
2, 75206, Note_off_c, 7, 67, 127
2, 75299, Note_on_c, 7, 67, 127
2, 75301, Note_off_c, 8, 68, 127
2, 75394, Note_on_c, 8, 68, 127
2, 75396, Note_off_c, 7, 67, 127
2, 75484, Note_off_c, 11, 58, 127
2, 75488, Note_on_c, 0, 60, 127
2, 75488, Note_on_c, 7, 67, 127
2, 75490, Note_off_c, 8, 68, 127
2, 75944, Note_off_c, 7, 67, 127
2, 75944, Note_off_c, 0, 60, 127
2, 75949, Note_on_c, 0, 48, 127
2, 75949, Note_on_c, 5, 65, 127
2, 76405, Note_off_c, 5, 65, 127
2, 76405, Note_off_c, 0, 48, 127
2, 76448, Note_on_c, 5, 65, 127
2, 76448, Note_on_c, 5, 41, 127
2, 79206, Note_off_c, 5, 41, 127
2, 79206, Note_off_c, 5, 65, 127
2, 82944, End_track
3, 0, Start_track
3, 0, Title_t, "MIDI"
3, 1536, End_track
0, 0, End_of_file
