0, 0, Header, 1, 3, 384
1, 0, Start_track
1, 0, Tempo, 500000
1, 0, Time_signature, 4, 2, 24, 8
1, 58368, End_track
2, 0, Start_track
2, 0, Text_t, "harpsichord: John Sankey"
2, 0, Program_c, 0, 6
2, 0, Pitch_bend_c, 0, 8192
2, 0, Program_c, 1, 6
2, 0, Pitch_bend_c, 1, 7792
2, 0, Program_c, 2, 6
2, 0, Pitch_bend_c, 2, 7876
2, 0, Program_c, 3, 6
2, 0, Pitch_bend_c, 3, 7952
2, 0, Program_c, 4, 6
2, 0, Pitch_bend_c, 4, 7792
2, 0, Program_c, 5, 6
2, 0, Pitch_bend_c, 5, 8112
2, 0, Program_c, 6, 6
2, 0, Pitch_bend_c, 6, 7712
2, 0, Program_c, 7, 6
2, 0, Pitch_bend_c, 7, 8037
2, 0, Program_c, 8, 6
2, 0, Pitch_bend_c, 8, 7872
2, 0, Program_c, 10, 6
2, 0, Pitch_bend_c, 10, 7712
2, 0, Program_c, 11, 6
2, 0, Pitch_bend_c, 11, 8032
2, 0, Program_c, 12, 6
2, 0, Pitch_bend_c, 12, 7872
2, 0, Title_t, "Track 1"
2, 88, Note_on_c, 5, 65, 127
2, 320, Note_off_c, 5, 65, 127
2, 353, Note_on_c, 10, 69, 127
2, 592, Note_off_c, 10, 69, 127
2, 619, Note_on_c, 5, 65, 127
2, 851, Note_off_c, 5, 65, 127
2, 885, Note_on_c, 0, 72, 127
2, 1124, Note_off_c, 0, 72, 127
2, 1151, Note_on_c, 5, 65, 127
2, 1383, Note_off_c, 5, 65, 127
2, 1417, Note_on_c, 5, 77, 127
2, 1681, Note_off_c, 5, 77, 127
2, 1683, Note_on_c, 4, 76, 127
2, 1683, Note_on_c, 5, 53, 127
2, 1812, Note_off_c, 4, 76, 127
2, 1816, Note_on_c, 2, 74, 127
2, 1937, Note_off_c, 5, 53, 127
2, 1946, Note_off_c, 2, 74, 127
2, 1949, Note_on_c, 0, 72, 127
2, 1949, Note_on_c, 10, 57, 127
2, 2078, Note_off_c, 0, 72, 127
2, 2082, Note_on_c, 2, 74, 127
2, 2203, Note_off_c, 10, 57, 127
2, 2212, Note_off_c, 2, 74, 127
2, 2215, Note_on_c, 0, 72, 127
2, 2215, Note_on_c, 5, 53, 127
2, 2344, Note_off_c, 0, 72, 127
2, 2347, Note_on_c, 11, 70, 127
2, 2469, Note_off_c, 5, 53, 127
2, 2477, Note_off_c, 11, 70, 127
2, 2481, Note_on_c, 10, 69, 127
2, 2481, Note_on_c, 0, 60, 127
2, 2610, Note_off_c, 10, 69, 127
2, 2613, Note_on_c, 11, 70, 127
2, 2735, Note_off_c, 0, 60, 127
2, 2743, Note_off_c, 11, 70, 127
2, 2747, Note_on_c, 10, 69, 127
2, 2747, Note_on_c, 5, 53, 127
2, 2876, Note_off_c, 10, 69, 127
2, 2879, Note_on_c, 7, 67, 127
2, 3001, Note_off_c, 5, 53, 127
2, 3009, Note_off_c, 7, 67, 127
2, 3012, Note_on_c, 5, 65, 127
2, 3276, Note_off_c, 5, 65, 127
2, 3279, Note_on_c, 10, 69, 127
2, 3279, Note_on_c, 4, 64, 127
2, 3408, Note_off_c, 4, 64, 127
2, 3411, Note_on_c, 2, 62, 127
2, 3511, Note_off_c, 10, 69, 127
2, 3541, Note_off_c, 2, 62, 127
2, 3545, Note_on_c, 0, 72, 127
2, 3545, Note_on_c, 0, 60, 127
2, 3674, Note_off_c, 0, 60, 127
2, 3677, Note_on_c, 2, 62, 127
2, 3777, Note_off_c, 0, 72, 127
2, 3807, Note_off_c, 2, 62, 127
2, 3811, Note_on_c, 10, 69, 127
2, 3811, Note_on_c, 0, 60, 127
2, 3940, Note_off_c, 0, 60, 127
2, 3943, Note_on_c, 11, 58, 127
2, 4043, Note_off_c, 10, 69, 127
2, 4073, Note_off_c, 11, 58, 127
2, 4076, Note_on_c, 5, 77, 127
2, 4076, Note_on_c, 10, 57, 127
2, 4205, Note_off_c, 10, 57, 127
2, 4209, Note_on_c, 11, 58, 127
2, 4308, Note_off_c, 5, 77, 127
2, 4339, Note_off_c, 11, 58, 127
2, 4342, Note_on_c, 0, 72, 127
2, 4342, Note_on_c, 10, 57, 127
2, 4471, Note_off_c, 10, 57, 127
2, 4475, Note_on_c, 7, 55, 127
2, 4574, Note_off_c, 0, 72, 127
2, 4605, Note_off_c, 7, 55, 127
2, 4608, Note_on_c, 10, 81, 127
2, 4608, Note_on_c, 5, 53, 127
2, 4737, Note_off_c, 10, 81, 127
2, 4741, Note_on_c, 0, 84, 127
2, 4862, Note_off_c, 5, 53, 127
2, 4871, Note_off_c, 0, 84, 127
2, 4874, Note_on_c, 11, 82, 127
2, 4874, Note_on_c, 10, 57, 127
2, 5003, Note_off_c, 11, 82, 127
2, 5006, Note_on_c, 0, 84, 127
2, 5128, Note_off_c, 10, 57, 127
2, 5136, Note_off_c, 0, 84, 127
2, 5140, Note_on_c, 10, 81, 127
2, 5140, Note_on_c, 0, 60, 127
2, 5269, Note_off_c, 10, 81, 127
2, 5272, Note_on_c, 0, 84, 127
2, 5394, Note_off_c, 0, 60, 127
2, 5402, Note_off_c, 0, 84, 127
2, 5405, Note_on_c, 11, 82, 127
2, 5405, Note_on_c, 10, 57, 127
2, 5534, Note_off_c, 11, 82, 127
2, 5538, Note_on_c, 0, 84, 127
2, 5659, Note_off_c, 10, 57, 127
2, 5668, Note_off_c, 0, 84, 127
2, 5671, Note_on_c, 10, 81, 127
2, 5671, Note_on_c, 5, 65, 127
2, 5800, Note_off_c, 10, 81, 127
2, 5804, Note_on_c, 0, 84, 127
2, 5925, Note_off_c, 5, 65, 127
2, 5934, Note_off_c, 0, 84, 127
2, 5937, Note_on_c, 11, 82, 127
2, 5937, Note_on_c, 0, 60, 127
2, 6066, Note_off_c, 11, 82, 127
2, 6070, Note_on_c, 0, 84, 127
2, 6191, Note_off_c, 0, 60, 127
2, 6200, Note_off_c, 0, 84, 127
2, 6203, Note_on_c, 5, 77, 127
2, 6203, Note_on_c, 10, 69, 127
2, 6332, Note_off_c, 10, 69, 127
2, 6332, Note_off_c, 5, 77, 127
2, 6335, Note_on_c, 10, 81, 127
2, 6335, Note_on_c, 0, 72, 127
2, 6464, Note_off_c, 0, 72, 127
2, 6464, Note_off_c, 10, 81, 127
2, 6468, Note_on_c, 7, 79, 127
2, 6468, Note_on_c, 11, 70, 127
2, 6597, Note_off_c, 11, 70, 127
2, 6597, Note_off_c, 7, 79, 127
2, 6600, Note_on_c, 10, 81, 127
2, 6600, Note_on_c, 0, 72, 127
2, 6729, Note_off_c, 0, 72, 127
2, 6729, Note_off_c, 10, 81, 127
2, 6733, Note_on_c, 5, 77, 127
2, 6733, Note_on_c, 10, 69, 127
2, 6862, Note_off_c, 10, 69, 127
2, 6862, Note_off_c, 5, 77, 127
2, 6865, Note_on_c, 10, 81, 127
2, 6865, Note_on_c, 0, 72, 127
2, 6994, Note_off_c, 0, 72, 127
2, 6994, Note_off_c, 10, 81, 127
2, 6998, Note_on_c, 7, 79, 127
2, 6998, Note_on_c, 11, 70, 127
2, 7127, Note_off_c, 11, 70, 127
2, 7127, Note_off_c, 7, 79, 127
2, 7130, Note_on_c, 10, 81, 127
2, 7130, Note_on_c, 0, 72, 127
2, 7259, Note_off_c, 0, 72, 127
2, 7259, Note_off_c, 10, 81, 127
2, 7263, Note_on_c, 5, 77, 127
2, 7263, Note_on_c, 10, 69, 127
2, 7392, Note_off_c, 10, 69, 127
2, 7392, Note_off_c, 5, 77, 127
2, 7395, Note_on_c, 10, 81, 127
2, 7395, Note_on_c, 0, 72, 127
2, 7524, Note_off_c, 0, 72, 127
2, 7524, Note_off_c, 10, 81, 127
2, 7528, Note_on_c, 7, 79, 127
2, 7528, Note_on_c, 11, 70, 127
2, 7657, Note_off_c, 11, 70, 127
2, 7657, Note_off_c, 7, 79, 127
2, 7660, Note_on_c, 10, 81, 127
2, 7660, Note_on_c, 0, 72, 127
2, 7789, Note_off_c, 0, 72, 127
2, 7789, Note_off_c, 10, 81, 127
2, 7793, Note_on_c, 2, 74, 127
2, 7793, Note_on_c, 5, 65, 127
2, 7922, Note_off_c, 5, 65, 127
2, 7922, Note_off_c, 2, 74, 127
2, 7925, Note_on_c, 5, 77, 127
2, 7925, Note_on_c, 10, 69, 127
2, 8054, Note_off_c, 10, 69, 127
2, 8054, Note_off_c, 5, 77, 127
2, 8058, Note_on_c, 4, 76, 127
2, 8058, Note_on_c, 7, 67, 127
2, 8187, Note_off_c, 7, 67, 127
2, 8187, Note_off_c, 4, 76, 127
2, 8190, Note_on_c, 5, 77, 127
2, 8190, Note_on_c, 10, 69, 127
2, 8319, Note_off_c, 10, 69, 127
2, 8319, Note_off_c, 5, 77, 127
2, 8323, Note_on_c, 2, 74, 127
2, 8323, Note_on_c, 5, 65, 127
2, 8452, Note_off_c, 5, 65, 127
2, 8452, Note_off_c, 2, 74, 127
2, 8455, Note_on_c, 5, 77, 127
2, 8455, Note_on_c, 10, 69, 127
2, 8584, Note_off_c, 10, 69, 127
2, 8584, Note_off_c, 5, 77, 127
2, 8588, Note_on_c, 4, 76, 127
2, 8588, Note_on_c, 7, 67, 127
2, 8717, Note_off_c, 7, 67, 127
2, 8717, Note_off_c, 4, 76, 127
2, 8720, Note_on_c, 5, 77, 127
2, 8720, Note_on_c, 10, 69, 127
2, 8849, Note_off_c, 10, 69, 127
2, 8849, Note_off_c, 5, 77, 127
2, 8852, Note_on_c, 2, 74, 127
2, 8852, Note_on_c, 5, 65, 127
2, 8981, Note_off_c, 5, 65, 127
2, 8981, Note_off_c, 2, 74, 127
2, 8985, Note_on_c, 5, 77, 127
2, 8985, Note_on_c, 10, 69, 127
2, 9114, Note_off_c, 10, 69, 127
2, 9114, Note_off_c, 5, 77, 127
2, 9117, Note_on_c, 4, 76, 127
2, 9117, Note_on_c, 7, 67, 127
2, 9246, Note_off_c, 7, 67, 127
2, 9246, Note_off_c, 4, 76, 127
2, 9250, Note_on_c, 5, 77, 127
2, 9250, Note_on_c, 10, 69, 127
2, 9379, Note_off_c, 10, 69, 127
2, 9379, Note_off_c, 5, 77, 127
2, 9382, Note_on_c, 12, 71, 127
2, 9382, Note_on_c, 2, 62, 127
2, 9511, Note_off_c, 2, 62, 127
2, 9515, Note_on_c, 5, 65, 127
2, 9614, Note_off_c, 12, 71, 127
2, 9645, Note_off_c, 5, 65, 127
2, 9648, Note_on_c, 7, 67, 127
2, 9648, Note_on_c, 4, 64, 127
2, 9777, Note_off_c, 4, 64, 127
2, 9781, Note_on_c, 5, 65, 127
2, 9880, Note_off_c, 7, 67, 127
2, 9911, Note_off_c, 5, 65, 127
2, 9914, Note_on_c, 2, 74, 127
2, 9914, Note_on_c, 2, 62, 127
2, 10043, Note_off_c, 2, 62, 127
2, 10047, Note_on_c, 5, 65, 127
2, 10146, Note_off_c, 2, 74, 127
2, 10177, Note_off_c, 5, 65, 127
2, 10180, Note_on_c, 12, 71, 127
2, 10180, Note_on_c, 4, 64, 127
2, 10309, Note_off_c, 4, 64, 127
2, 10312, Note_on_c, 5, 65, 127
2, 10412, Note_off_c, 12, 71, 127
2, 10442, Note_off_c, 5, 65, 127
2, 10446, Note_on_c, 5, 77, 127
2, 10446, Note_on_c, 2, 62, 127
2, 10575, Note_off_c, 2, 62, 127
2, 10578, Note_on_c, 5, 65, 127
2, 10678, Note_off_c, 5, 77, 127
2, 10708, Note_off_c, 5, 65, 127
2, 10711, Note_on_c, 2, 74, 127
2, 10711, Note_on_c, 4, 64, 127
2, 10840, Note_off_c, 4, 64, 127
2, 10844, Note_on_c, 5, 65, 127
2, 10943, Note_off_c, 2, 74, 127
2, 10974, Note_off_c, 5, 65, 127
2, 10977, Note_on_c, 7, 79, 127
2, 10977, Note_on_c, 12, 59, 127
2, 11106, Note_off_c, 7, 79, 127
2, 11110, Note_on_c, 10, 81, 127
2, 11231, Note_off_c, 12, 59, 127
2, 11240, Note_off_c, 10, 81, 127
2, 11243, Note_on_c, 7, 79, 127
2, 11243, Note_on_c, 7, 55, 127
2, 11372, Note_off_c, 7, 79, 127
2, 11376, Note_on_c, 5, 77, 127
2, 11497, Note_off_c, 7, 55, 127
2, 11506, Note_off_c, 5, 77, 127
2, 11509, Note_on_c, 4, 76, 127
2, 11509, Note_on_c, 0, 60, 127
2, 11638, Note_off_c, 4, 76, 127
2, 11641, Note_on_c, 5, 77, 127
2, 11763, Note_off_c, 0, 60, 127
2, 11771, Note_off_c, 5, 77, 127
2, 11775, Note_on_c, 4, 76, 127
2, 11775, Note_on_c, 7, 55, 127
2, 11904, Note_off_c, 4, 76, 127
2, 11907, Note_on_c, 2, 74, 127
2, 12029, Note_off_c, 7, 55, 127
2, 12037, Note_off_c, 2, 74, 127
2, 12041, Note_on_c, 0, 72, 127
2, 12041, Note_on_c, 4, 64, 127
2, 12170, Note_off_c, 0, 72, 127
2, 12173, Note_on_c, 2, 74, 127
2, 12295, Note_off_c, 4, 64, 127
2, 12303, Note_off_c, 2, 74, 127
2, 12306, Note_on_c, 0, 72, 127
2, 12306, Note_on_c, 0, 60, 127
2, 12435, Note_off_c, 0, 72, 127
2, 12439, Note_on_c, 11, 70, 127
2, 12560, Note_off_c, 0, 60, 127
2, 12569, Note_off_c, 11, 70, 127
2, 12572, Note_on_c, 10, 69, 127
2, 12572, Note_on_c, 5, 65, 127
2, 12701, Note_off_c, 5, 65, 127
2, 12705, Note_on_c, 7, 67, 127
2, 12834, Note_off_c, 7, 67, 127
2, 12836, Note_off_c, 10, 69, 127
2, 12838, Note_on_c, 2, 74, 127
2, 12838, Note_on_c, 5, 65, 127
2, 12967, Note_off_c, 5, 65, 127
2, 12967, Note_off_c, 2, 74, 127
2, 12970, Note_on_c, 0, 72, 127
2, 12970, Note_on_c, 4, 64, 127
2, 13099, Note_off_c, 4, 64, 127
2, 13099, Note_off_c, 0, 72, 127
2, 13103, Note_on_c, 12, 71, 127
2, 13103, Note_on_c, 2, 62, 127
2, 13232, Note_off_c, 2, 62, 127
2, 13232, Note_off_c, 12, 71, 127
2, 13235, Note_on_c, 0, 72, 127
2, 13235, Note_on_c, 4, 64, 127
2, 13364, Note_off_c, 4, 64, 127
2, 13364, Note_off_c, 0, 72, 127
2, 13368, Note_on_c, 12, 71, 127
2, 13368, Note_on_c, 2, 62, 127
2, 13497, Note_off_c, 2, 62, 127
2, 13497, Note_off_c, 12, 71, 127
2, 13500, Note_on_c, 10, 69, 127
2, 13500, Note_on_c, 0, 60, 127
2, 13629, Note_off_c, 0, 60, 127
2, 13629, Note_off_c, 10, 69, 127
2, 13633, Note_on_c, 7, 67, 127
2, 13633, Note_on_c, 12, 59, 127
2, 13762, Note_off_c, 12, 59, 127
2, 13762, Note_off_c, 7, 67, 127
2, 13765, Note_on_c, 10, 69, 127
2, 13765, Note_on_c, 0, 60, 127
2, 13894, Note_off_c, 0, 60, 127
2, 13894, Note_off_c, 10, 69, 127
2, 13898, Note_on_c, 7, 67, 127
2, 13898, Note_on_c, 12, 59, 127
2, 14027, Note_off_c, 12, 59, 127
2, 14027, Note_off_c, 7, 67, 127
2, 14030, Note_on_c, 5, 65, 127
2, 14030, Note_on_c, 10, 57, 127
2, 14159, Note_off_c, 10, 57, 127
2, 14159, Note_off_c, 5, 65, 127
2, 14163, Note_on_c, 4, 64, 127
2, 14163, Note_on_c, 7, 55, 127
2, 14292, Note_off_c, 4, 64, 127
2, 14295, Note_on_c, 5, 65, 127
2, 14424, Note_off_c, 5, 65, 127
2, 14427, Note_off_c, 7, 55, 127
2, 14429, Note_on_c, 4, 64, 127
2, 14429, Note_on_c, 0, 60, 127
2, 14558, Note_off_c, 0, 60, 127
2, 14558, Note_off_c, 4, 64, 127
2, 14561, Note_on_c, 2, 62, 127
2, 14561, Note_on_c, 12, 59, 127
2, 14690, Note_off_c, 12, 59, 127
2, 14690, Note_off_c, 2, 62, 127
2, 14694, Note_on_c, 0, 60, 127
2, 14694, Note_on_c, 10, 57, 127
2, 14823, Note_off_c, 10, 57, 127
2, 14826, Note_on_c, 12, 59, 127
2, 14955, Note_off_c, 12, 59, 127
2, 14958, Note_off_c, 0, 60, 127
2, 14959, Note_on_c, 0, 72, 127
2, 14959, Note_on_c, 10, 57, 127
2, 15088, Note_off_c, 10, 57, 127
2, 15088, Note_off_c, 0, 72, 127
2, 15092, Note_on_c, 12, 71, 127
2, 15092, Note_on_c, 7, 55, 127
2, 15221, Note_off_c, 7, 55, 127
2, 15221, Note_off_c, 12, 71, 127
2, 15224, Note_on_c, 0, 72, 127
2, 15224, Note_on_c, 5, 53, 127
2, 15353, Note_off_c, 5, 53, 127
2, 15357, Note_on_c, 7, 55, 127
2, 15456, Note_off_c, 0, 72, 127
2, 15487, Note_off_c, 7, 55, 127
2, 15490, Note_on_c, 4, 64, 127
2, 15490, Note_on_c, 5, 53, 127
2, 15619, Note_off_c, 5, 53, 127
2, 15623, Note_on_c, 4, 52, 127
2, 15722, Note_off_c, 4, 64, 127
2, 15753, Note_off_c, 4, 52, 127
2, 15756, Note_on_c, 5, 65, 127
2, 15756, Note_on_c, 2, 50, 127
2, 15885, Note_off_c, 2, 50, 127
2, 15888, Note_on_c, 4, 52, 127
2, 15988, Note_off_c, 5, 65, 127
2, 16018, Note_off_c, 4, 52, 127
2, 16022, Note_on_c, 0, 72, 127
2, 16022, Note_on_c, 2, 50, 127
2, 16151, Note_off_c, 2, 50, 127
2, 16154, Note_on_c, 0, 48, 127
2, 16254, Note_off_c, 0, 72, 127
2, 16284, Note_off_c, 0, 48, 127
2, 16288, Note_on_c, 4, 64, 127
2, 16288, Note_on_c, 7, 55, 127
2, 16417, Note_off_c, 7, 55, 127
2, 16420, Note_on_c, 5, 53, 127
2, 16520, Note_off_c, 4, 64, 127
2, 16550, Note_off_c, 5, 53, 127
2, 16553, Note_on_c, 0, 72, 127
2, 16553, Note_on_c, 4, 52, 127
2, 16682, Note_off_c, 4, 52, 127
2, 16686, Note_on_c, 5, 53, 127
2, 16785, Note_off_c, 0, 72, 127
2, 16816, Note_off_c, 5, 53, 127
2, 16819, Note_on_c, 2, 62, 127
2, 16819, Note_on_c, 7, 55, 127
2, 17051, Note_off_c, 2, 62, 127
2, 17083, Note_off_c, 7, 55, 127
2, 17085, Note_on_c, 12, 71, 127
2, 17085, Note_on_c, 7, 43, 127
2, 17317, Note_off_c, 12, 71, 127
2, 17349, Note_off_c, 7, 43, 127
2, 17351, Note_on_c, 0, 72, 127
2, 17617, Note_on_c, 0, 48, 127
2, 17871, Note_off_c, 0, 48, 127
2, 17882, Note_on_c, 4, 52, 127
2, 18136, Note_off_c, 4, 52, 127
2, 18148, Note_on_c, 0, 48, 127
2, 18402, Note_off_c, 0, 48, 127
2, 18414, Note_on_c, 7, 55, 127
2, 18668, Note_off_c, 7, 55, 127
2, 18680, Note_on_c, 0, 48, 127
2, 18934, Note_off_c, 0, 48, 127
2, 18943, Note_off_c, 0, 72, 127
2, 18946, Note_on_c, 0, 60, 127
2, 19210, Note_off_c, 0, 60, 127
2, 19212, Note_on_c, 0, 72, 127
2, 19212, Note_on_c, 12, 59, 127
2, 19341, Note_off_c, 12, 59, 127
2, 19345, Note_on_c, 10, 57, 127
2, 19444, Note_off_c, 0, 72, 127
2, 19475, Note_off_c, 10, 57, 127
2, 19478, Note_on_c, 4, 76, 127
2, 19478, Note_on_c, 7, 55, 127
2, 19607, Note_off_c, 7, 55, 127
2, 19611, Note_on_c, 10, 57, 127
2, 19710, Note_off_c, 4, 76, 127
2, 19741, Note_off_c, 10, 57, 127
2, 19744, Note_on_c, 0, 72, 127
2, 19744, Note_on_c, 7, 55, 127
2, 19873, Note_off_c, 7, 55, 127
2, 19876, Note_on_c, 5, 53, 127
2, 19976, Note_off_c, 0, 72, 127
2, 20006, Note_off_c, 5, 53, 127
2, 20010, Note_on_c, 7, 79, 127
2, 20010, Note_on_c, 4, 52, 127
2, 20139, Note_off_c, 4, 52, 127
2, 20142, Note_on_c, 5, 53, 127
2, 20242, Note_off_c, 7, 79, 127
2, 20272, Note_off_c, 5, 53, 127
2, 20276, Note_on_c, 0, 72, 127
2, 20276, Note_on_c, 4, 52, 127
2, 20405, Note_off_c, 4, 52, 127
2, 20408, Note_on_c, 2, 50, 127
2, 20508, Note_off_c, 0, 72, 127
2, 20538, Note_off_c, 2, 50, 127
2, 20541, Note_on_c, 0, 84, 127
2, 20541, Note_on_c, 0, 48, 127
2, 20795, Note_off_c, 0, 48, 127
2, 20805, Note_off_c, 0, 84, 127
2, 20807, Note_on_c, 12, 83, 127
2, 20807, Note_on_c, 4, 52, 127
2, 20936, Note_off_c, 12, 83, 127
2, 20940, Note_on_c, 10, 81, 127
2, 21061, Note_off_c, 4, 52, 127
2, 21070, Note_off_c, 10, 81, 127
2, 21073, Note_on_c, 7, 79, 127
2, 21073, Note_on_c, 7, 55, 127
2, 21202, Note_off_c, 7, 79, 127
2, 21205, Note_on_c, 10, 81, 127
2, 21327, Note_off_c, 7, 55, 127
2, 21335, Note_off_c, 10, 81, 127
2, 21339, Note_on_c, 7, 79, 127
2, 21339, Note_on_c, 4, 52, 127
2, 21468, Note_off_c, 7, 79, 127
2, 21471, Note_on_c, 5, 77, 127
2, 21593, Note_off_c, 4, 52, 127
2, 21601, Note_off_c, 5, 77, 127
2, 21605, Note_on_c, 4, 76, 127
2, 21605, Note_on_c, 0, 60, 127
2, 21734, Note_off_c, 4, 76, 127
2, 21737, Note_on_c, 5, 77, 127
2, 21859, Note_off_c, 0, 60, 127
2, 21867, Note_off_c, 5, 77, 127
2, 21870, Note_on_c, 4, 76, 127
2, 21870, Note_on_c, 7, 55, 127
2, 21999, Note_off_c, 4, 76, 127
2, 22003, Note_on_c, 2, 74, 127
2, 22124, Note_off_c, 7, 55, 127
2, 22133, Note_off_c, 2, 74, 127
2, 22136, Note_on_c, 0, 72, 127
2, 22136, Note_on_c, 3, 63, 127
2, 22265, Note_off_c, 0, 72, 127
2, 22269, Note_on_c, 11, 70, 127
2, 22398, Note_off_c, 11, 70, 127
2, 22400, Note_off_c, 3, 63, 127
2, 22402, Note_on_c, 0, 72, 127
2, 22402, Note_on_c, 6, 54, 127
2, 22531, Note_off_c, 0, 72, 127
2, 22535, Note_on_c, 10, 81, 127
2, 22664, Note_off_c, 10, 81, 127
2, 22666, Note_off_c, 6, 54, 127
2, 22668, Note_on_c, 0, 72, 127
2, 22668, Note_on_c, 3, 63, 127
2, 22797, Note_off_c, 0, 72, 127
2, 22800, Note_on_c, 10, 81, 127
2, 22929, Note_off_c, 10, 81, 127
2, 22932, Note_off_c, 3, 63, 127
2, 22934, Note_on_c, 11, 70, 127
2, 22934, Note_on_c, 6, 54, 127
2, 23063, Note_off_c, 11, 70, 127
2, 23066, Note_on_c, 10, 81, 127
2, 23195, Note_off_c, 10, 81, 127
2, 23198, Note_off_c, 6, 54, 127
2, 23200, Note_on_c, 0, 72, 127
2, 23200, Note_on_c, 3, 63, 127
2, 23329, Note_off_c, 0, 72, 127
2, 23332, Note_on_c, 10, 81, 127
2, 23461, Note_off_c, 10, 81, 127
2, 23464, Note_off_c, 3, 63, 127
2, 23465, Note_on_c, 10, 69, 127
2, 23465, Note_on_c, 6, 54, 127
2, 23594, Note_off_c, 10, 69, 127
2, 23598, Note_on_c, 10, 81, 127
2, 23719, Note_off_c, 6, 54, 127
2, 23728, Note_off_c, 10, 81, 127
2, 23731, Note_on_c, 11, 70, 127
2, 23731, Note_on_c, 7, 55, 127
2, 23995, Note_off_c, 7, 55, 127
2, 23995, Note_off_c, 11, 70, 127
2, 23998, Note_on_c, 7, 67, 127
2, 23998, Note_on_c, 5, 53, 127
2, 24127, Note_off_c, 5, 53, 127
2, 24130, Note_on_c, 3, 51, 127
2, 24230, Note_off_c, 7, 67, 127
2, 24260, Note_off_c, 3, 51, 127
2, 24264, Note_on_c, 11, 70, 127
2, 24264, Note_on_c, 2, 50, 127
2, 24393, Note_off_c, 2, 50, 127
2, 24396, Note_on_c, 3, 51, 127
2, 24496, Note_off_c, 11, 70, 127
2, 24526, Note_off_c, 3, 51, 127
2, 24529, Note_on_c, 7, 67, 127
2, 24529, Note_on_c, 2, 50, 127
2, 24658, Note_off_c, 2, 50, 127
2, 24662, Note_on_c, 0, 48, 127
2, 24761, Note_off_c, 7, 67, 127
2, 24792, Note_off_c, 0, 48, 127
2, 24795, Note_on_c, 2, 74, 127
2, 24795, Note_on_c, 11, 46, 127
2, 24924, Note_off_c, 11, 46, 127
2, 24928, Note_on_c, 0, 48, 127
2, 25027, Note_off_c, 2, 74, 127
2, 25058, Note_off_c, 0, 48, 127
2, 25061, Note_on_c, 7, 67, 127
2, 25061, Note_on_c, 11, 46, 127
2, 25190, Note_off_c, 11, 46, 127
2, 25194, Note_on_c, 10, 45, 127
2, 25293, Note_off_c, 7, 67, 127
2, 25324, Note_off_c, 10, 45, 127
2, 25327, Note_on_c, 7, 79, 127
2, 25327, Note_on_c, 7, 43, 127
2, 25581, Note_off_c, 7, 43, 127
2, 25591, Note_off_c, 7, 79, 127
2, 25593, Note_on_c, 5, 77, 127
2, 25593, Note_on_c, 7, 55, 127
2, 25722, Note_off_c, 5, 77, 127
2, 25725, Note_on_c, 3, 75, 127
2, 25847, Note_off_c, 7, 55, 127
2, 25855, Note_off_c, 3, 75, 127
2, 25858, Note_on_c, 2, 74, 127
2, 25858, Note_on_c, 11, 58, 127
2, 25987, Note_off_c, 2, 74, 127
2, 25991, Note_on_c, 3, 75, 127
2, 26112, Note_off_c, 11, 58, 127
2, 26121, Note_off_c, 3, 75, 127
2, 26124, Note_on_c, 2, 74, 127
2, 26124, Note_on_c, 7, 55, 127
2, 26253, Note_off_c, 2, 74, 127
2, 26257, Note_on_c, 0, 72, 127
2, 26378, Note_off_c, 7, 55, 127
2, 26387, Note_off_c, 0, 72, 127
2, 26390, Note_on_c, 11, 70, 127
2, 26390, Note_on_c, 2, 62, 127
2, 26519, Note_off_c, 11, 70, 127
2, 26523, Note_on_c, 0, 72, 127
2, 26644, Note_off_c, 2, 62, 127
2, 26653, Note_off_c, 0, 72, 127
2, 26656, Note_on_c, 11, 70, 127
2, 26656, Note_on_c, 7, 55, 127
2, 26785, Note_off_c, 11, 70, 127
2, 26788, Note_on_c, 10, 69, 127
2, 26910, Note_off_c, 7, 55, 127
2, 26918, Note_off_c, 10, 69, 127
2, 26922, Note_on_c, 7, 67, 127
2, 27186, Note_off_c, 7, 67, 127
2, 27188, Note_on_c, 11, 70, 127
2, 27188, Note_on_c, 5, 65, 127
2, 27317, Note_off_c, 5, 65, 127
2, 27321, Note_on_c, 3, 63, 127
2, 27420, Note_off_c, 11, 70, 127
2, 27451, Note_off_c, 3, 63, 127
2, 27454, Note_on_c, 2, 74, 127
2, 27454, Note_on_c, 2, 62, 127
2, 27583, Note_off_c, 2, 62, 127
2, 27587, Note_on_c, 3, 63, 127
2, 27686, Note_off_c, 2, 74, 127
2, 27717, Note_off_c, 3, 63, 127
2, 27720, Note_on_c, 11, 70, 127
2, 27720, Note_on_c, 2, 62, 127
2, 27849, Note_off_c, 2, 62, 127
2, 27852, Note_on_c, 0, 60, 127
2, 27952, Note_off_c, 11, 70, 127
2, 27982, Note_off_c, 0, 60, 127
2, 27986, Note_on_c, 7, 79, 127
2, 27986, Note_on_c, 11, 58, 127
2, 28115, Note_off_c, 11, 58, 127
2, 28118, Note_on_c, 0, 60, 127
2, 28218, Note_off_c, 7, 79, 127
2, 28248, Note_off_c, 0, 60, 127
2, 28252, Note_on_c, 2, 74, 127
2, 28252, Note_on_c, 11, 58, 127
2, 28381, Note_off_c, 11, 58, 127
2, 28384, Note_on_c, 10, 57, 127
2, 28484, Note_off_c, 2, 74, 127
2, 28514, Note_off_c, 10, 57, 127
2, 28517, Note_on_c, 11, 82, 127
2, 28517, Note_on_c, 7, 55, 127
2, 28646, Note_off_c, 7, 55, 127
2, 28650, Note_on_c, 5, 53, 127
2, 28779, Note_off_c, 5, 53, 127
2, 28781, Note_off_c, 11, 82, 127
2, 28783, Note_on_c, 1, 73, 127
2, 28783, Note_on_c, 7, 55, 127
2, 28912, Note_off_c, 7, 55, 127
2, 28916, Note_on_c, 4, 64, 127
2, 29045, Note_off_c, 4, 64, 127
2, 29047, Note_off_c, 1, 73, 127
2, 29049, Note_on_c, 11, 82, 127
2, 29049, Note_on_c, 7, 55, 127
2, 29178, Note_off_c, 7, 55, 127
2, 29182, Note_on_c, 4, 64, 127
2, 29311, Note_off_c, 4, 64, 127
2, 29313, Note_off_c, 11, 82, 127
2, 29315, Note_on_c, 1, 73, 127
2, 29315, Note_on_c, 5, 53, 127
2, 29444, Note_off_c, 5, 53, 127
2, 29447, Note_on_c, 4, 64, 127
2, 29576, Note_off_c, 4, 64, 127
2, 29579, Note_off_c, 1, 73, 127
2, 29581, Note_on_c, 11, 82, 127
2, 29581, Note_on_c, 7, 55, 127
2, 29710, Note_off_c, 7, 55, 127
2, 29713, Note_on_c, 4, 64, 127
2, 29842, Note_off_c, 4, 64, 127
2, 29845, Note_off_c, 11, 82, 127
2, 29847, Note_on_c, 1, 73, 127
2, 29847, Note_on_c, 4, 52, 127
2, 29976, Note_off_c, 4, 52, 127
2, 29979, Note_on_c, 4, 64, 127
2, 30079, Note_off_c, 1, 73, 127
2, 30109, Note_off_c, 4, 64, 127
2, 30112, Note_on_c, 2, 74, 127
2, 30112, Note_on_c, 5, 53, 127
2, 30241, Note_off_c, 5, 53, 127
2, 30245, Note_on_c, 4, 52, 127
2, 30344, Note_off_c, 2, 74, 127
2, 30375, Note_off_c, 4, 52, 127
2, 30378, Note_on_c, 10, 69, 127
2, 30378, Note_on_c, 5, 53, 127
2, 30507, Note_off_c, 5, 53, 127
2, 30511, Note_on_c, 2, 62, 127
2, 30610, Note_off_c, 10, 69, 127
2, 30641, Note_off_c, 2, 62, 127
2, 30644, Note_on_c, 5, 77, 127
2, 30644, Note_on_c, 5, 53, 127
2, 30773, Note_off_c, 5, 53, 127
2, 30776, Note_on_c, 2, 62, 127
2, 30876, Note_off_c, 5, 77, 127
2, 30906, Note_off_c, 2, 62, 127
2, 30910, Note_on_c, 2, 74, 127
2, 30910, Note_on_c, 4, 52, 127
2, 31039, Note_off_c, 4, 52, 127
2, 31042, Note_on_c, 2, 62, 127
2, 31142, Note_off_c, 2, 74, 127
2, 31172, Note_off_c, 2, 62, 127
2, 31176, Note_on_c, 10, 81, 127
2, 31176, Note_on_c, 5, 53, 127
2, 31305, Note_off_c, 5, 53, 127
2, 31308, Note_on_c, 2, 62, 127
2, 31408, Note_off_c, 10, 81, 127
2, 31438, Note_off_c, 2, 62, 127
2, 31441, Note_on_c, 5, 77, 127
2, 31441, Note_on_c, 2, 50, 127
2, 31570, Note_off_c, 2, 50, 127
2, 31574, Note_on_c, 2, 62, 127
2, 31673, Note_off_c, 5, 77, 127
2, 31704, Note_off_c, 2, 62, 127
2, 31707, Note_on_c, 7, 79, 127
2, 31707, Note_on_c, 11, 58, 127
2, 31836, Note_off_c, 7, 79, 127
2, 31840, Note_on_c, 5, 77, 127
2, 31969, Note_off_c, 5, 77, 127
2, 31971, Note_off_c, 11, 58, 127
2, 31973, Note_on_c, 7, 79, 127
2, 31973, Note_on_c, 7, 55, 127
2, 32102, Note_off_c, 7, 79, 127
2, 32105, Note_on_c, 11, 82, 127
2, 32234, Note_off_c, 11, 82, 127
2, 32237, Note_off_c, 7, 55, 127
2, 32239, Note_on_c, 0, 72, 127
2, 32239, Note_on_c, 4, 52, 127
2, 32368, Note_off_c, 0, 72, 127
2, 32371, Note_on_c, 11, 82, 127
2, 32500, Note_off_c, 11, 82, 127
2, 32503, Note_off_c, 4, 52, 127
2, 32505, Note_on_c, 2, 74, 127
2, 32505, Note_on_c, 7, 55, 127
2, 32634, Note_off_c, 2, 74, 127
2, 32637, Note_on_c, 11, 82, 127
2, 32759, Note_off_c, 7, 55, 127
2, 32767, Note_off_c, 11, 82, 127
2, 32770, Note_on_c, 4, 76, 127
2, 32770, Note_on_c, 0, 48, 127
2, 32899, Note_off_c, 4, 76, 127
2, 32903, Note_on_c, 11, 82, 127
2, 33024, Note_off_c, 0, 48, 127
2, 33033, Note_off_c, 11, 82, 127
2, 33036, Note_on_c, 0, 72, 127
2, 33036, Note_on_c, 4, 52, 127
2, 33165, Note_off_c, 0, 72, 127
2, 33169, Note_on_c, 11, 82, 127
2, 33290, Note_off_c, 4, 52, 127
2, 33299, Note_off_c, 11, 82, 127
2, 33302, Note_on_c, 5, 77, 127
2, 33302, Note_on_c, 10, 57, 127
2, 33431, Note_off_c, 5, 77, 127
2, 33435, Note_on_c, 4, 76, 127
2, 33564, Note_off_c, 4, 76, 127
2, 33566, Note_off_c, 10, 57, 127
2, 33568, Note_on_c, 5, 77, 127
2, 33568, Note_on_c, 5, 53, 127
2, 33697, Note_off_c, 5, 77, 127
2, 33700, Note_on_c, 10, 81, 127
2, 33829, Note_off_c, 10, 81, 127
2, 33832, Note_off_c, 5, 53, 127
2, 33834, Note_on_c, 12, 71, 127
2, 33834, Note_on_c, 2, 50, 127
2, 33963, Note_off_c, 12, 71, 127
2, 33966, Note_on_c, 10, 81, 127
2, 34095, Note_off_c, 10, 81, 127
2, 34098, Note_off_c, 2, 50, 127
2, 34100, Note_on_c, 1, 73, 127
2, 34100, Note_on_c, 5, 53, 127
2, 34229, Note_off_c, 1, 73, 127
2, 34232, Note_on_c, 10, 81, 127
2, 34354, Note_off_c, 5, 53, 127
2, 34362, Note_off_c, 10, 81, 127
2, 34365, Note_on_c, 2, 74, 127
2, 34365, Note_on_c, 12, 47, 127
2, 34494, Note_off_c, 2, 74, 127
2, 34498, Note_on_c, 10, 81, 127
2, 34619, Note_off_c, 12, 47, 127
2, 34628, Note_off_c, 10, 81, 127
2, 34631, Note_on_c, 12, 71, 127
2, 34631, Note_on_c, 2, 50, 127
2, 34760, Note_off_c, 12, 71, 127
2, 34764, Note_on_c, 10, 81, 127
2, 34885, Note_off_c, 2, 50, 127
2, 34894, Note_off_c, 10, 81, 127
2, 34897, Note_on_c, 4, 76, 127
2, 34897, Note_on_c, 7, 55, 127
2, 35026, Note_off_c, 4, 76, 127
2, 35029, Note_on_c, 2, 74, 127
2, 35158, Note_off_c, 2, 74, 127
2, 35161, Note_off_c, 7, 55, 127
2, 35163, Note_on_c, 4, 76, 127
2, 35163, Note_on_c, 4, 52, 127
2, 35292, Note_off_c, 4, 76, 127
2, 35295, Note_on_c, 7, 79, 127
2, 35424, Note_off_c, 7, 79, 127
2, 35427, Note_off_c, 4, 52, 127
2, 35429, Note_on_c, 10, 69, 127
2, 35429, Note_on_c, 1, 49, 127
2, 35558, Note_off_c, 10, 69, 127
2, 35561, Note_on_c, 7, 79, 127
2, 35690, Note_off_c, 7, 79, 127
2, 35693, Note_off_c, 1, 49, 127
2, 35694, Note_on_c, 12, 71, 127
2, 35694, Note_on_c, 4, 52, 127
2, 35823, Note_off_c, 12, 71, 127
2, 35827, Note_on_c, 7, 79, 127
2, 35948, Note_off_c, 4, 52, 127
2, 35957, Note_off_c, 7, 79, 127
2, 35960, Note_on_c, 1, 73, 127
2, 35960, Note_on_c, 10, 45, 127
2, 36089, Note_off_c, 1, 73, 127
2, 36093, Note_on_c, 7, 79, 127
2, 36214, Note_off_c, 10, 45, 127
2, 36223, Note_off_c, 7, 79, 127
2, 36226, Note_on_c, 10, 69, 127
2, 36226, Note_on_c, 1, 49, 127
2, 36355, Note_off_c, 10, 69, 127
2, 36358, Note_on_c, 7, 79, 127
2, 36480, Note_off_c, 1, 49, 127
2, 36488, Note_off_c, 7, 79, 127
2, 36492, Note_on_c, 5, 77, 127
2, 36492, Note_on_c, 2, 38, 127
2, 36621, Note_off_c, 2, 38, 127
2, 36624, Note_on_c, 2, 50, 127
2, 36753, Note_off_c, 2, 50, 127
2, 36756, Note_off_c, 5, 77, 127
2, 36758, Note_on_c, 2, 74, 127
2, 36758, Note_on_c, 0, 48, 127
2, 36887, Note_off_c, 0, 48, 127
2, 36890, Note_on_c, 2, 50, 127
2, 36990, Note_off_c, 2, 74, 127
2, 37020, Note_off_c, 2, 50, 127
2, 37023, Note_on_c, 11, 70, 127
2, 37023, Note_on_c, 7, 43, 127
2, 37152, Note_off_c, 7, 43, 127
2, 37156, Note_on_c, 2, 50, 127
2, 37255, Note_off_c, 11, 70, 127
2, 37286, Note_off_c, 2, 50, 127
2, 37289, Note_on_c, 2, 74, 127
2, 37289, Note_on_c, 10, 45, 127
2, 37418, Note_off_c, 10, 45, 127
2, 37422, Note_on_c, 2, 50, 127
2, 37521, Note_off_c, 2, 74, 127
2, 37552, Note_off_c, 2, 50, 127
2, 37555, Note_on_c, 7, 67, 127
2, 37555, Note_on_c, 11, 46, 127
2, 37684, Note_off_c, 11, 46, 127
2, 37688, Note_on_c, 2, 50, 127
2, 37787, Note_off_c, 7, 67, 127
2, 37818, Note_off_c, 2, 50, 127
2, 37821, Note_on_c, 5, 77, 127
2, 37821, Note_on_c, 7, 43, 127
2, 37950, Note_off_c, 7, 43, 127
2, 37953, Note_on_c, 2, 50, 127
2, 38053, Note_off_c, 5, 77, 127
2, 38083, Note_off_c, 2, 50, 127
2, 38087, Note_on_c, 4, 76, 127
2, 38087, Note_on_c, 0, 36, 127
2, 38216, Note_off_c, 0, 36, 127
2, 38219, Note_on_c, 0, 48, 127
2, 38348, Note_off_c, 0, 48, 127
2, 38351, Note_off_c, 4, 76, 127
2, 38352, Note_on_c, 0, 72, 127
2, 38352, Note_on_c, 11, 46, 127
2, 38481, Note_off_c, 11, 46, 127
2, 38485, Note_on_c, 0, 48, 127
2, 38584, Note_off_c, 0, 72, 127
2, 38615, Note_off_c, 0, 48, 127
2, 38618, Note_on_c, 10, 69, 127
2, 38618, Note_on_c, 5, 41, 127
2, 38747, Note_off_c, 5, 41, 127
2, 38751, Note_on_c, 0, 48, 127
2, 38850, Note_off_c, 10, 69, 127
2, 38881, Note_off_c, 0, 48, 127
2, 38884, Note_on_c, 0, 72, 127
2, 38884, Note_on_c, 7, 43, 127
2, 39013, Note_off_c, 7, 43, 127
2, 39017, Note_on_c, 0, 48, 127
2, 39116, Note_off_c, 0, 72, 127
2, 39147, Note_off_c, 0, 48, 127
2, 39150, Note_on_c, 5, 65, 127
2, 39150, Note_on_c, 10, 45, 127
2, 39279, Note_off_c, 10, 45, 127
2, 39282, Note_on_c, 0, 48, 127
2, 39382, Note_off_c, 5, 65, 127
2, 39412, Note_off_c, 0, 48, 127
2, 39416, Note_on_c, 3, 75, 127
2, 39416, Note_on_c, 5, 41, 127
2, 39545, Note_off_c, 5, 41, 127
2, 39548, Note_on_c, 0, 48, 127
2, 39648, Note_off_c, 3, 75, 127
2, 39678, Note_off_c, 0, 48, 127
2, 39682, Note_on_c, 2, 74, 127
2, 39682, Note_on_c, 11, 46, 127
2, 39811, Note_off_c, 2, 74, 127
2, 39814, Note_on_c, 5, 77, 127
2, 39943, Note_off_c, 5, 77, 127
2, 39946, Note_off_c, 11, 46, 127
2, 39947, Note_on_c, 3, 75, 127
2, 39947, Note_on_c, 2, 50, 127
2, 40076, Note_off_c, 3, 75, 127
2, 40080, Note_on_c, 5, 77, 127
2, 40201, Note_off_c, 2, 50, 127
2, 40210, Note_off_c, 5, 77, 127
2, 40213, Note_on_c, 2, 74, 127
2, 40213, Note_on_c, 5, 53, 127
2, 40342, Note_off_c, 2, 74, 127
2, 40346, Note_on_c, 5, 77, 127
2, 40467, Note_off_c, 5, 53, 127
2, 40476, Note_off_c, 5, 77, 127
2, 40479, Note_on_c, 3, 75, 127
2, 40479, Note_on_c, 2, 50, 127
2, 40608, Note_off_c, 3, 75, 127
2, 40611, Note_on_c, 5, 77, 127
2, 40733, Note_off_c, 2, 50, 127
2, 40741, Note_off_c, 5, 77, 127
2, 40745, Note_on_c, 2, 74, 127
2, 40745, Note_on_c, 11, 58, 127
2, 40874, Note_off_c, 2, 74, 127
2, 40877, Note_on_c, 5, 77, 127
2, 40999, Note_off_c, 11, 58, 127
2, 41007, Note_off_c, 5, 77, 127
2, 41011, Note_on_c, 3, 75, 127
2, 41011, Note_on_c, 5, 53, 127
2, 41140, Note_off_c, 3, 75, 127
2, 41143, Note_on_c, 5, 77, 127
2, 41265, Note_off_c, 5, 53, 127
2, 41273, Note_off_c, 5, 77, 127
2, 41276, Note_on_c, 11, 70, 127
2, 41276, Note_on_c, 2, 62, 127
2, 41405, Note_off_c, 2, 62, 127
2, 41405, Note_off_c, 11, 70, 127
2, 41409, Note_on_c, 2, 74, 127
2, 41409, Note_on_c, 5, 65, 127
2, 41538, Note_off_c, 5, 65, 127
2, 41538, Note_off_c, 2, 74, 127
2, 41541, Note_on_c, 0, 72, 127
2, 41541, Note_on_c, 3, 63, 127
2, 41670, Note_off_c, 3, 63, 127
2, 41670, Note_off_c, 0, 72, 127
2, 41674, Note_on_c, 2, 74, 127
2, 41674, Note_on_c, 5, 65, 127
2, 41803, Note_off_c, 5, 65, 127
2, 41803, Note_off_c, 2, 74, 127
2, 41806, Note_on_c, 11, 70, 127
2, 41806, Note_on_c, 2, 62, 127
2, 41935, Note_off_c, 2, 62, 127
2, 41935, Note_off_c, 11, 70, 127
2, 41939, Note_on_c, 2, 74, 127
2, 41939, Note_on_c, 5, 65, 127
2, 42068, Note_off_c, 5, 65, 127
2, 42068, Note_off_c, 2, 74, 127
2, 42071, Note_on_c, 0, 72, 127
2, 42071, Note_on_c, 3, 63, 127
2, 42200, Note_off_c, 3, 63, 127
2, 42200, Note_off_c, 0, 72, 127
2, 42204, Note_on_c, 2, 74, 127
2, 42204, Note_on_c, 5, 65, 127
2, 42333, Note_off_c, 5, 65, 127
2, 42333, Note_off_c, 2, 74, 127
2, 42336, Note_on_c, 11, 70, 127
2, 42336, Note_on_c, 2, 62, 127
2, 42465, Note_off_c, 2, 62, 127
2, 42465, Note_off_c, 11, 70, 127
2, 42469, Note_on_c, 2, 74, 127
2, 42469, Note_on_c, 5, 65, 127
2, 42598, Note_off_c, 5, 65, 127
2, 42598, Note_off_c, 2, 74, 127
2, 42601, Note_on_c, 0, 72, 127
2, 42601, Note_on_c, 3, 63, 127
2, 42730, Note_off_c, 3, 63, 127
2, 42730, Note_off_c, 0, 72, 127
2, 42734, Note_on_c, 2, 74, 127
2, 42734, Note_on_c, 5, 65, 127
2, 42863, Note_off_c, 5, 65, 127
2, 42863, Note_off_c, 2, 74, 127
2, 42866, Note_on_c, 7, 67, 127
2, 42866, Note_on_c, 11, 58, 127
2, 42995, Note_off_c, 11, 58, 127
2, 42995, Note_off_c, 7, 67, 127
2, 42999, Note_on_c, 11, 70, 127
2, 42999, Note_on_c, 2, 62, 127
2, 43128, Note_off_c, 2, 62, 127
2, 43128, Note_off_c, 11, 70, 127
2, 43131, Note_on_c, 10, 69, 127
2, 43131, Note_on_c, 0, 60, 127
2, 43260, Note_off_c, 0, 60, 127
2, 43260, Note_off_c, 10, 69, 127
2, 43264, Note_on_c, 11, 70, 127
2, 43264, Note_on_c, 2, 62, 127
2, 43393, Note_off_c, 2, 62, 127
2, 43393, Note_off_c, 11, 70, 127
2, 43396, Note_on_c, 7, 67, 127
2, 43396, Note_on_c, 11, 58, 127
2, 43525, Note_off_c, 11, 58, 127
2, 43525, Note_off_c, 7, 67, 127
2, 43529, Note_on_c, 11, 70, 127
2, 43529, Note_on_c, 2, 62, 127
2, 43658, Note_off_c, 2, 62, 127
2, 43658, Note_off_c, 11, 70, 127
2, 43661, Note_on_c, 10, 69, 127
2, 43661, Note_on_c, 0, 60, 127
2, 43790, Note_off_c, 0, 60, 127
2, 43790, Note_off_c, 10, 69, 127
2, 43794, Note_on_c, 11, 70, 127
2, 43794, Note_on_c, 2, 62, 127
2, 43923, Note_off_c, 2, 62, 127
2, 43923, Note_off_c, 11, 70, 127
2, 43926, Note_on_c, 7, 67, 127
2, 43926, Note_on_c, 11, 58, 127
2, 44055, Note_off_c, 11, 58, 127
2, 44055, Note_off_c, 7, 67, 127
2, 44058, Note_on_c, 11, 70, 127
2, 44058, Note_on_c, 2, 62, 127
2, 44187, Note_off_c, 2, 62, 127
2, 44187, Note_off_c, 11, 70, 127
2, 44191, Note_on_c, 10, 69, 127
2, 44191, Note_on_c, 0, 60, 127
2, 44320, Note_off_c, 0, 60, 127
2, 44320, Note_off_c, 10, 69, 127
2, 44323, Note_on_c, 11, 70, 127
2, 44323, Note_on_c, 2, 62, 127
2, 44452, Note_off_c, 2, 62, 127
2, 44452, Note_off_c, 11, 70, 127
2, 44456, Note_on_c, 4, 64, 127
2, 44456, Note_on_c, 7, 55, 127
2, 44585, Note_off_c, 7, 55, 127
2, 44588, Note_on_c, 11, 58, 127
2, 44688, Note_off_c, 4, 64, 127
2, 44718, Note_off_c, 11, 58, 127
2, 44722, Note_on_c, 0, 60, 127
2, 44722, Note_on_c, 10, 57, 127
2, 44851, Note_off_c, 10, 57, 127
2, 44854, Note_on_c, 11, 58, 127
2, 44954, Note_off_c, 0, 60, 127
2, 44984, Note_off_c, 11, 58, 127
2, 44988, Note_on_c, 7, 67, 127
2, 44988, Note_on_c, 7, 55, 127
2, 45117, Note_off_c, 7, 55, 127
2, 45120, Note_on_c, 11, 58, 127
2, 45220, Note_off_c, 7, 67, 127
2, 45250, Note_off_c, 11, 58, 127
2, 45253, Note_on_c, 4, 64, 127
2, 45253, Note_on_c, 10, 57, 127
2, 45382, Note_off_c, 10, 57, 127
2, 45386, Note_on_c, 11, 58, 127
2, 45485, Note_off_c, 4, 64, 127
2, 45516, Note_off_c, 11, 58, 127
2, 45519, Note_on_c, 11, 70, 127
2, 45519, Note_on_c, 7, 55, 127
2, 45648, Note_off_c, 7, 55, 127
2, 45652, Note_on_c, 11, 58, 127
2, 45751, Note_off_c, 11, 70, 127
2, 45782, Note_off_c, 11, 58, 127
2, 45785, Note_on_c, 7, 67, 127
2, 45785, Note_on_c, 10, 57, 127
2, 45914, Note_off_c, 10, 57, 127
2, 45917, Note_on_c, 11, 58, 127
2, 46017, Note_off_c, 7, 67, 127
2, 46047, Note_off_c, 11, 58, 127
2, 46051, Note_on_c, 0, 72, 127
2, 46051, Note_on_c, 4, 52, 127
2, 46180, Note_off_c, 0, 72, 127
2, 46183, Note_on_c, 2, 74, 127
2, 46305, Note_off_c, 4, 52, 127
2, 46313, Note_off_c, 2, 74, 127
2, 46317, Note_on_c, 0, 72, 127
2, 46317, Note_on_c, 0, 48, 127
2, 46446, Note_off_c, 0, 72, 127
2, 46449, Note_on_c, 11, 70, 127
2, 46571, Note_off_c, 0, 48, 127
2, 46579, Note_off_c, 11, 70, 127
2, 46582, Note_on_c, 10, 69, 127
2, 46582, Note_on_c, 5, 53, 127
2, 46711, Note_off_c, 10, 69, 127
2, 46715, Note_on_c, 11, 70, 127
2, 46836, Note_off_c, 5, 53, 127
2, 46845, Note_off_c, 11, 70, 127
2, 46848, Note_on_c, 10, 69, 127
2, 46848, Note_on_c, 0, 48, 127
2, 46977, Note_off_c, 10, 69, 127
2, 46981, Note_on_c, 7, 67, 127
2, 47102, Note_off_c, 0, 48, 127
2, 47111, Note_off_c, 7, 67, 127
2, 47114, Note_on_c, 5, 65, 127
2, 47114, Note_on_c, 10, 57, 127
2, 47243, Note_off_c, 5, 65, 127
2, 47247, Note_on_c, 7, 67, 127
2, 47368, Note_off_c, 10, 57, 127
2, 47377, Note_off_c, 7, 67, 127
2, 47380, Note_on_c, 5, 65, 127
2, 47380, Note_on_c, 5, 53, 127
2, 47509, Note_off_c, 5, 65, 127
2, 47512, Note_on_c, 3, 63, 127
2, 47634, Note_off_c, 5, 53, 127
2, 47642, Note_off_c, 3, 63, 127
2, 47646, Note_on_c, 2, 62, 127
2, 47646, Note_on_c, 11, 58, 127
2, 47775, Note_off_c, 11, 58, 127
2, 47778, Note_on_c, 0, 60, 127
2, 47907, Note_off_c, 0, 60, 127
2, 47910, Note_off_c, 2, 62, 127
2, 47911, Note_on_c, 7, 67, 127
2, 47911, Note_on_c, 11, 58, 127
2, 48040, Note_off_c, 11, 58, 127
2, 48040, Note_off_c, 7, 67, 127
2, 48044, Note_on_c, 5, 65, 127
2, 48044, Note_on_c, 10, 57, 127
2, 48173, Note_off_c, 10, 57, 127
2, 48173, Note_off_c, 5, 65, 127
2, 48176, Note_on_c, 4, 64, 127
2, 48176, Note_on_c, 7, 55, 127
2, 48305, Note_off_c, 7, 55, 127
2, 48305, Note_off_c, 4, 64, 127
2, 48309, Note_on_c, 5, 65, 127
2, 48309, Note_on_c, 10, 57, 127
2, 48438, Note_off_c, 10, 57, 127
2, 48438, Note_off_c, 5, 65, 127
2, 48441, Note_on_c, 4, 64, 127
2, 48441, Note_on_c, 7, 55, 127
2, 48570, Note_off_c, 7, 55, 127
2, 48570, Note_off_c, 4, 64, 127
2, 48574, Note_on_c, 2, 62, 127
2, 48574, Note_on_c, 5, 53, 127
2, 48703, Note_off_c, 5, 53, 127
2, 48703, Note_off_c, 2, 62, 127
2, 48706, Note_on_c, 0, 60, 127
2, 48706, Note_on_c, 4, 52, 127
2, 48835, Note_off_c, 4, 52, 127
2, 48835, Note_off_c, 0, 60, 127
2, 48839, Note_on_c, 2, 62, 127
2, 48839, Note_on_c, 5, 53, 127
2, 48968, Note_off_c, 5, 53, 127
2, 48968, Note_off_c, 2, 62, 127
2, 48971, Note_on_c, 0, 60, 127
2, 48971, Note_on_c, 4, 52, 127
2, 49100, Note_off_c, 4, 52, 127
2, 49100, Note_off_c, 0, 60, 127
2, 49104, Note_on_c, 11, 58, 127
2, 49104, Note_on_c, 2, 50, 127
2, 49233, Note_off_c, 2, 50, 127
2, 49233, Note_off_c, 11, 58, 127
2, 49236, Note_on_c, 10, 57, 127
2, 49236, Note_on_c, 0, 48, 127
2, 49365, Note_off_c, 10, 57, 127
2, 49369, Note_on_c, 11, 58, 127
2, 49498, Note_off_c, 11, 58, 127
2, 49500, Note_off_c, 0, 48, 127
2, 49502, Note_on_c, 10, 57, 127
2, 49502, Note_on_c, 5, 53, 127
2, 49631, Note_off_c, 5, 53, 127
2, 49631, Note_off_c, 10, 57, 127
2, 49635, Note_on_c, 7, 55, 127
2, 49635, Note_on_c, 4, 52, 127
2, 49764, Note_off_c, 4, 52, 127
2, 49764, Note_off_c, 7, 55, 127
2, 49767, Note_on_c, 5, 53, 127
2, 49767, Note_on_c, 2, 50, 127
2, 49896, Note_off_c, 2, 50, 127
2, 49900, Note_on_c, 4, 52, 127
2, 49999, Note_off_c, 5, 53, 127
2, 50030, Note_off_c, 4, 52, 127
2, 50033, Note_on_c, 5, 65, 127
2, 50033, Note_on_c, 2, 50, 127
2, 50162, Note_off_c, 2, 50, 127
2, 50162, Note_off_c, 5, 65, 127
2, 50165, Note_on_c, 4, 64, 127
2, 50165, Note_on_c, 0, 48, 127
2, 50294, Note_off_c, 0, 48, 127
2, 50294, Note_off_c, 4, 64, 127
2, 50298, Note_on_c, 5, 65, 127
2, 50298, Note_on_c, 11, 46, 127
2, 50427, Note_off_c, 11, 46, 127
2, 50430, Note_on_c, 0, 48, 127
2, 50530, Note_off_c, 5, 65, 127
2, 50560, Note_off_c, 0, 48, 127
2, 50564, Note_on_c, 10, 57, 127
2, 50564, Note_on_c, 11, 46, 127
2, 50693, Note_off_c, 11, 46, 127
2, 50696, Note_on_c, 10, 45, 127
2, 50796, Note_off_c, 10, 57, 127
2, 50826, Note_off_c, 10, 45, 127
2, 50829, Note_on_c, 11, 58, 127
2, 50829, Note_on_c, 7, 43, 127
2, 50963, Note_off_c, 7, 43, 127
2, 50966, Note_on_c, 10, 45, 127
2, 51068, Note_off_c, 11, 58, 127
2, 51100, Note_off_c, 10, 45, 127
2, 51103, Note_on_c, 5, 65, 127
2, 51103, Note_on_c, 7, 43, 127
2, 51237, Note_off_c, 7, 43, 127
2, 51240, Note_on_c, 5, 41, 127
2, 51342, Note_off_c, 5, 65, 127
2, 51374, Note_off_c, 5, 41, 127
2, 51376, Note_on_c, 10, 57, 127
2, 51376, Note_on_c, 0, 48, 127
2, 51515, Note_off_c, 0, 48, 127
2, 51518, Note_on_c, 11, 46, 127
2, 51624, Note_off_c, 10, 57, 127
2, 51657, Note_off_c, 11, 46, 127
2, 51660, Note_on_c, 5, 65, 127
2, 51660, Note_on_c, 10, 45, 127
2, 51799, Note_off_c, 10, 45, 127
2, 51802, Note_on_c, 11, 46, 127
2, 51908, Note_off_c, 5, 65, 127
2, 51941, Note_off_c, 11, 46, 127
2, 51944, Note_on_c, 7, 55, 127
2, 51944, Note_on_c, 0, 48, 127
2, 52217, Note_off_c, 7, 55, 127
2, 52243, Note_off_c, 0, 48, 127
2, 52256, Note_on_c, 4, 64, 127
2, 52256, Note_on_c, 0, 36, 127
2, 52569, Note_off_c, 4, 64, 127
2, 52599, Note_off_c, 0, 36, 127
2, 52614, Note_on_c, 0, 60, 127
2, 52614, Note_on_c, 5, 65, 127
2, 52614, Note_on_c, 10, 57, 127
2, 52614, Note_on_c, 5, 41, 127
2, 54756, Note_off_c, 5, 41, 127
2, 54756, Note_off_c, 10, 57, 127
2, 54756, Note_off_c, 5, 65, 127
2, 54756, Note_off_c, 0, 60, 127
2, 58368, End_track
3, 0, Start_track
3, 0, Title_t, "MIDI"
3, 1536, End_track
0, 0, End_of_file
