0, 0, Header, 1, 3, 384
1, 0, Start_track
1, 0, Tempo, 500000
1, 0, Time_signature, 4, 2, 24, 8
1, 93696, End_track
2, 0, Start_track
2, 0, Text_t, "harpsichord: John Sankey"
2, 0, Program_c, 0, 6
2, 0, Pitch_bend_c, 0, 8192
2, 0, Program_c, 1, 6
2, 0, Pitch_bend_c, 1, 7792
2, 0, Program_c, 2, 6
2, 0, Pitch_bend_c, 2, 7876
2, 0, Program_c, 3, 6
2, 0, Pitch_bend_c, 3, 7952
2, 0, Program_c, 4, 6
2, 0, Pitch_bend_c, 4, 7792
2, 0, Program_c, 5, 6
2, 0, Pitch_bend_c, 5, 8112
2, 0, Program_c, 6, 6
2, 0, Pitch_bend_c, 6, 7712
2, 0, Program_c, 7, 6
2, 0, Pitch_bend_c, 7, 8037
2, 0, Program_c, 8, 6
2, 0, Pitch_bend_c, 8, 7872
2, 0, Program_c, 10, 6
2, 0, Pitch_bend_c, 10, 7712
2, 0, Program_c, 11, 6
2, 0, Pitch_bend_c, 11, 8032
2, 0, Program_c, 12, 6
2, 0, Pitch_bend_c, 12, 7872
2, 0, Title_t, "Track 1"
2, 48, Note_on_c, 10, 57, 127
2, 48, Note_on_c, 10, 69, 127
2, 401, Note_off_c, 10, 69, 127
2, 403, Note_on_c, 8, 68, 127
2, 455, Note_off_c, 10, 57, 127
2, 579, Note_off_c, 8, 68, 127
2, 581, Note_on_c, 10, 69, 127
2, 756, Note_off_c, 10, 69, 127
2, 758, Note_on_c, 8, 56, 127
2, 758, Note_on_c, 12, 71, 127
2, 1111, Note_off_c, 12, 71, 127
2, 1113, Note_on_c, 10, 69, 127
2, 1165, Note_off_c, 8, 56, 127
2, 1289, Note_off_c, 10, 69, 127
2, 1291, Note_on_c, 8, 68, 127
2, 1466, Note_off_c, 8, 68, 127
2, 1468, Note_on_c, 6, 54, 127
2, 1468, Note_on_c, 10, 69, 127
2, 1643, Note_off_c, 10, 69, 127
2, 1645, Note_on_c, 8, 68, 127
2, 1820, Note_off_c, 8, 68, 127
2, 1822, Note_on_c, 10, 69, 127
2, 1874, Note_off_c, 6, 54, 127
2, 2177, Note_on_c, 1, 49, 127
2, 2352, Note_off_c, 10, 69, 127
2, 2354, Note_on_c, 12, 71, 127
2, 2529, Note_off_c, 12, 71, 127
2, 2531, Note_on_c, 8, 68, 127
2, 2583, Note_off_c, 1, 49, 127
2, 2707, Note_off_c, 8, 68, 127
2, 2709, Note_on_c, 10, 69, 127
2, 2884, Note_off_c, 10, 69, 127
2, 2886, Note_on_c, 2, 50, 127
2, 2886, Note_on_c, 12, 71, 127
2, 3061, Note_off_c, 12, 71, 127
2, 3063, Note_on_c, 4, 64, 127
2, 3238, Note_off_c, 4, 64, 127
2, 3240, Note_on_c, 1, 73, 127
2, 3292, Note_off_c, 2, 50, 127
2, 3416, Note_off_c, 1, 73, 127
2, 3418, Note_on_c, 4, 64, 127
2, 3593, Note_off_c, 4, 64, 127
2, 3595, Note_on_c, 4, 52, 127
2, 3595, Note_on_c, 2, 74, 127
2, 3770, Note_off_c, 2, 74, 127
2, 3772, Note_on_c, 4, 64, 127
2, 3947, Note_off_c, 4, 64, 127
2, 3949, Note_on_c, 4, 76, 127
2, 4001, Note_off_c, 4, 52, 127
2, 4302, Note_off_c, 4, 76, 127
2, 4304, Note_on_c, 10, 45, 127
2, 4304, Note_on_c, 1, 73, 127
2, 4479, Note_off_c, 1, 73, 127
2, 4481, Note_on_c, 12, 71, 127
2, 4656, Note_off_c, 12, 71, 127
2, 4656, Note_off_c, 10, 45, 127
2, 4658, Note_on_c, 10, 57, 127
2, 4658, Note_on_c, 10, 69, 127
2, 4833, Note_off_c, 10, 69, 127
2, 4835, Note_on_c, 12, 71, 127
2, 5010, Note_off_c, 12, 71, 127
2, 5010, Note_off_c, 10, 57, 127
2, 5012, Note_on_c, 8, 56, 127
2, 5012, Note_on_c, 1, 73, 127
2, 5187, Note_off_c, 1, 73, 127
2, 5189, Note_on_c, 3, 75, 127
2, 5364, Note_off_c, 3, 75, 127
2, 5364, Note_off_c, 8, 56, 127
2, 5366, Note_on_c, 6, 54, 127
2, 5366, Note_on_c, 4, 76, 127
2, 5541, Note_off_c, 4, 76, 127
2, 5543, Note_on_c, 6, 78, 127
2, 5718, Note_off_c, 6, 78, 127
2, 5718, Note_off_c, 6, 54, 127
2, 5720, Note_on_c, 4, 52, 127
2, 5720, Note_on_c, 4, 64, 127
2, 5720, Note_on_c, 8, 80, 127
2, 5895, Note_off_c, 8, 80, 127
2, 5897, Note_on_c, 10, 81, 127
2, 6072, Note_off_c, 10, 81, 127
2, 6072, Note_off_c, 4, 64, 127
2, 6074, Note_on_c, 3, 63, 127
2, 6074, Note_on_c, 12, 83, 127
2, 6126, Note_off_c, 4, 52, 127
2, 6250, Note_off_c, 3, 63, 127
2, 6252, Note_on_c, 4, 64, 127
2, 6427, Note_off_c, 4, 64, 127
2, 6429, Note_on_c, 3, 63, 127
2, 6429, Note_on_c, 6, 66, 127
2, 6604, Note_off_c, 12, 83, 127
2, 6606, Note_on_c, 10, 81, 127
2, 6781, Note_off_c, 10, 81, 127
2, 6781, Note_off_c, 6, 66, 127
2, 6783, Note_on_c, 4, 64, 127
2, 6783, Note_on_c, 8, 80, 127
2, 6835, Note_off_c, 3, 63, 127
2, 6959, Note_off_c, 8, 80, 127
2, 6959, Note_off_c, 4, 64, 127
2, 6961, Note_on_c, 3, 63, 127
2, 6961, Note_on_c, 6, 78, 127
2, 7136, Note_off_c, 6, 78, 127
2, 7136, Note_off_c, 3, 63, 127
2, 7138, Note_on_c, 1, 61, 127
2, 7138, Note_on_c, 4, 64, 127
2, 7138, Note_on_c, 4, 76, 127
2, 7313, Note_off_c, 4, 76, 127
2, 7315, Note_on_c, 3, 75, 127
2, 7490, Note_off_c, 3, 75, 127
2, 7492, Note_on_c, 1, 73, 127
2, 7544, Note_off_c, 1, 61, 127
2, 7668, Note_off_c, 1, 73, 127
2, 7670, Note_on_c, 12, 71, 127
2, 7845, Note_off_c, 12, 71, 127
2, 7847, Note_on_c, 8, 56, 127
2, 7847, Note_on_c, 4, 76, 127
2, 8022, Note_off_c, 4, 64, 127
2, 8024, Note_on_c, 6, 66, 127
2, 8199, Note_off_c, 6, 66, 127
2, 8201, Note_on_c, 3, 63, 127
2, 8253, Note_off_c, 8, 56, 127
2, 8377, Note_off_c, 3, 63, 127
2, 8379, Note_on_c, 4, 64, 127
2, 8554, Note_off_c, 4, 64, 127
2, 8556, Note_on_c, 10, 57, 127
2, 8556, Note_on_c, 6, 66, 127
2, 8731, Note_off_c, 6, 66, 127
2, 8733, Note_on_c, 12, 59, 127
2, 8908, Note_off_c, 12, 59, 127
2, 8910, Note_on_c, 8, 68, 127
2, 8962, Note_off_c, 10, 57, 127
2, 9086, Note_off_c, 8, 68, 127
2, 9088, Note_on_c, 12, 59, 127
2, 9263, Note_off_c, 12, 59, 127
2, 9263, Note_off_c, 4, 76, 127
2, 9265, Note_on_c, 12, 59, 127
2, 9265, Note_on_c, 10, 69, 127
2, 9265, Note_on_c, 3, 75, 127
2, 9440, Note_off_c, 10, 69, 127
2, 9440, Note_off_c, 12, 59, 127
2, 9442, Note_on_c, 12, 59, 127
2, 9619, Note_on_c, 12, 71, 127
2, 9793, Note_off_c, 12, 59, 127
2, 9972, Note_off_c, 12, 71, 127
2, 9972, Note_off_c, 3, 75, 127
2, 9974, Note_on_c, 4, 64, 127
2, 9974, Note_on_c, 8, 68, 127
2, 9974, Note_on_c, 4, 76, 127
2, 10149, Note_off_c, 8, 68, 127
2, 10151, Note_on_c, 10, 69, 127
2, 10326, Note_off_c, 10, 69, 127
2, 10326, Note_off_c, 4, 76, 127
2, 10328, Note_on_c, 12, 71, 127
2, 10328, Note_on_c, 2, 74, 127
2, 10503, Note_off_c, 2, 74, 127
2, 10503, Note_off_c, 12, 71, 127
2, 10505, Note_on_c, 10, 69, 127
2, 10505, Note_on_c, 1, 73, 127
2, 10680, Note_off_c, 1, 73, 127
2, 10680, Note_off_c, 10, 69, 127
2, 10682, Note_on_c, 8, 68, 127
2, 10682, Note_on_c, 2, 74, 127
2, 10857, Note_off_c, 2, 74, 127
2, 10857, Note_off_c, 8, 68, 127
2, 10859, Note_on_c, 6, 66, 127
2, 10859, Note_on_c, 4, 76, 127
2, 10970, Note_off_c, 4, 64, 127
2, 11035, Note_off_c, 4, 76, 127
2, 11035, Note_off_c, 6, 66, 127
2, 11037, Note_on_c, 4, 64, 127
2, 11037, Note_on_c, 6, 78, 127
2, 11212, Note_off_c, 6, 78, 127
2, 11212, Note_off_c, 4, 64, 127
2, 11214, Note_on_c, 2, 62, 127
2, 11214, Note_on_c, 8, 80, 127
2, 11389, Note_off_c, 8, 80, 127
2, 11389, Note_off_c, 2, 62, 127
2, 11391, Note_on_c, 10, 57, 127
2, 11391, Note_on_c, 1, 61, 127
2, 11391, Note_on_c, 10, 81, 127
2, 11566, Note_off_c, 1, 61, 127
2, 11568, Note_on_c, 1, 73, 127
2, 11743, Note_off_c, 1, 73, 127
2, 11743, Note_off_c, 10, 57, 127
2, 11745, Note_on_c, 8, 56, 127
2, 11745, Note_on_c, 6, 78, 127
2, 11920, Note_off_c, 8, 56, 127
2, 11920, Note_off_c, 10, 81, 127
2, 11922, Note_on_c, 10, 57, 127
2, 11922, Note_on_c, 10, 81, 127
2, 12097, Note_off_c, 10, 81, 127
2, 12097, Note_off_c, 10, 57, 127
2, 12099, Note_on_c, 12, 59, 127
2, 12099, Note_on_c, 8, 80, 127
2, 12274, Note_off_c, 6, 78, 127
2, 12276, Note_on_c, 3, 75, 127
2, 12451, Note_off_c, 3, 75, 127
2, 12451, Note_off_c, 12, 59, 127
2, 12453, Note_on_c, 10, 57, 127
2, 12453, Note_on_c, 4, 76, 127
2, 12628, Note_off_c, 10, 57, 127
2, 12628, Note_off_c, 8, 80, 127
2, 12630, Note_on_c, 8, 56, 127
2, 12630, Note_on_c, 8, 80, 127
2, 12805, Note_off_c, 8, 80, 127
2, 12805, Note_off_c, 8, 56, 127
2, 12807, Note_on_c, 10, 57, 127
2, 12807, Note_on_c, 6, 78, 127
2, 12982, Note_off_c, 4, 76, 127
2, 12984, Note_on_c, 1, 73, 127
2, 13159, Note_off_c, 1, 73, 127
2, 13161, Note_on_c, 2, 74, 127
2, 13336, Note_off_c, 6, 78, 127
2, 13338, Note_on_c, 6, 78, 127
2, 13513, Note_off_c, 6, 78, 127
2, 13515, Note_on_c, 4, 76, 127
2, 13690, Note_off_c, 2, 74, 127
2, 13690, Note_off_c, 10, 57, 127
2, 13692, Note_on_c, 12, 59, 127
2, 13692, Note_on_c, 12, 71, 127
2, 13867, Note_off_c, 12, 71, 127
2, 13867, Note_off_c, 12, 59, 127
2, 13869, Note_on_c, 8, 56, 127
2, 13869, Note_on_c, 1, 73, 127
2, 14044, Note_off_c, 8, 56, 127
2, 14044, Note_off_c, 4, 76, 127
2, 14046, Note_on_c, 10, 57, 127
2, 14046, Note_on_c, 4, 76, 127
2, 14221, Note_off_c, 4, 76, 127
2, 14221, Note_off_c, 10, 57, 127
2, 14221, Note_off_c, 1, 73, 127
2, 14223, Note_on_c, 12, 59, 127
2, 14223, Note_on_c, 8, 68, 127
2, 14223, Note_on_c, 2, 74, 127
2, 14398, Note_off_c, 12, 59, 127
2, 14400, Note_on_c, 4, 52, 127
2, 14575, Note_off_c, 4, 52, 127
2, 14575, Note_off_c, 2, 74, 127
2, 14575, Note_off_c, 8, 68, 127
2, 14577, Note_on_c, 1, 61, 127
2, 14577, Note_on_c, 10, 69, 127
2, 14577, Note_on_c, 1, 73, 127
2, 14752, Note_off_c, 1, 61, 127
2, 14754, Note_on_c, 4, 52, 127
2, 14929, Note_off_c, 4, 52, 127
2, 14929, Note_off_c, 1, 73, 127
2, 14931, Note_on_c, 2, 62, 127
2, 14931, Note_on_c, 12, 71, 127
2, 15106, Note_off_c, 2, 62, 127
2, 15108, Note_on_c, 4, 52, 127
2, 15283, Note_off_c, 4, 52, 127
2, 15283, Note_off_c, 10, 69, 127
2, 15285, Note_on_c, 4, 64, 127
2, 15285, Note_on_c, 8, 68, 127
2, 15638, Note_off_c, 8, 68, 127
2, 15638, Note_off_c, 4, 64, 127
2, 15638, Note_off_c, 12, 71, 127
2, 15640, Note_on_c, 1, 61, 127
2, 15640, Note_on_c, 10, 69, 127
2, 15815, Note_off_c, 1, 61, 127
2, 15817, Note_on_c, 12, 59, 127
2, 15992, Note_off_c, 12, 59, 127
2, 15994, Note_on_c, 10, 57, 127
2, 15994, Note_on_c, 1, 73, 127
2, 16169, Note_off_c, 10, 57, 127
2, 16171, Note_on_c, 12, 59, 127
2, 16346, Note_off_c, 12, 59, 127
2, 16346, Note_off_c, 1, 73, 127
2, 16348, Note_on_c, 1, 61, 127
2, 16348, Note_on_c, 6, 78, 127
2, 16523, Note_off_c, 1, 61, 127
2, 16525, Note_on_c, 3, 63, 127
2, 16700, Note_off_c, 3, 63, 127
2, 16700, Note_off_c, 10, 69, 127
2, 16702, Note_on_c, 4, 64, 127
2, 16702, Note_on_c, 10, 69, 127
2, 16877, Note_off_c, 4, 64, 127
2, 16879, Note_on_c, 6, 66, 127
2, 17054, Note_off_c, 6, 66, 127
2, 17054, Note_off_c, 10, 69, 127
2, 17056, Note_on_c, 12, 59, 127
2, 17056, Note_on_c, 8, 68, 127
2, 17231, Note_off_c, 12, 59, 127
2, 17233, Note_on_c, 10, 57, 127
2, 17408, Note_off_c, 10, 57, 127
2, 17408, Note_off_c, 6, 78, 127
2, 17410, Note_on_c, 8, 56, 127
2, 17410, Note_on_c, 12, 71, 127
2, 17585, Note_off_c, 8, 56, 127
2, 17587, Note_on_c, 10, 57, 127
2, 17762, Note_off_c, 10, 57, 127
2, 17762, Note_off_c, 12, 71, 127
2, 17764, Note_on_c, 12, 59, 127
2, 17764, Note_on_c, 4, 76, 127
2, 17939, Note_off_c, 12, 59, 127
2, 17941, Note_on_c, 1, 61, 127
2, 18116, Note_off_c, 1, 61, 127
2, 18116, Note_off_c, 8, 68, 127
2, 18118, Note_on_c, 3, 63, 127
2, 18118, Note_on_c, 8, 68, 127
2, 18293, Note_off_c, 3, 63, 127
2, 18295, Note_on_c, 4, 64, 127
2, 18470, Note_off_c, 4, 64, 127
2, 18470, Note_off_c, 8, 68, 127
2, 18472, Note_on_c, 10, 57, 127
2, 18472, Note_on_c, 6, 66, 127
2, 18647, Note_off_c, 10, 57, 127
2, 18649, Note_on_c, 8, 56, 127
2, 18824, Note_off_c, 8, 56, 127
2, 18824, Note_off_c, 4, 76, 127
2, 18826, Note_on_c, 6, 54, 127
2, 18826, Note_on_c, 3, 75, 127
2, 19001, Note_off_c, 3, 75, 127
2, 19001, Note_off_c, 6, 54, 127
2, 19003, Note_on_c, 8, 56, 127
2, 19003, Note_on_c, 4, 76, 127
2, 19178, Note_off_c, 4, 76, 127
2, 19178, Note_off_c, 8, 56, 127
2, 19180, Note_on_c, 10, 57, 127
2, 19180, Note_on_c, 6, 78, 127
2, 19355, Note_off_c, 10, 57, 127
2, 19357, Note_on_c, 8, 56, 127
2, 19532, Note_off_c, 8, 56, 127
2, 19532, Note_off_c, 6, 78, 127
2, 19534, Note_on_c, 10, 57, 127
2, 19534, Note_on_c, 4, 76, 127
2, 19709, Note_off_c, 4, 76, 127
2, 19709, Note_off_c, 10, 57, 127
2, 19711, Note_on_c, 12, 59, 127
2, 19711, Note_on_c, 3, 75, 127
2, 19873, Note_off_c, 6, 66, 127
2, 19886, Note_off_c, 3, 75, 127
2, 19886, Note_off_c, 12, 59, 127
2, 19888, Note_on_c, 8, 56, 127
2, 19888, Note_on_c, 4, 76, 127
2, 20065, Note_on_c, 3, 75, 127
2, 20240, Note_off_c, 3, 75, 127
2, 20240, Note_off_c, 8, 56, 127
2, 20242, Note_on_c, 10, 57, 127
2, 20242, Note_on_c, 1, 73, 127
2, 20417, Note_off_c, 1, 73, 127
2, 20417, Note_off_c, 10, 57, 127
2, 20419, Note_on_c, 12, 59, 127
2, 20419, Note_on_c, 12, 71, 127
2, 20594, Note_off_c, 12, 71, 127
2, 20594, Note_off_c, 12, 59, 127
2, 20596, Note_on_c, 1, 61, 127
2, 20596, Note_on_c, 10, 69, 127
2, 20771, Note_off_c, 10, 69, 127
2, 20771, Note_off_c, 4, 76, 127
2, 20773, Note_on_c, 8, 68, 127
2, 20773, Note_on_c, 6, 78, 127
2, 20948, Note_off_c, 6, 78, 127
2, 20948, Note_off_c, 8, 68, 127
2, 20950, Note_on_c, 6, 66, 127
2, 20950, Note_on_c, 3, 75, 127
2, 21125, Note_off_c, 3, 75, 127
2, 21125, Note_off_c, 6, 66, 127
2, 21127, Note_on_c, 4, 64, 127
2, 21127, Note_on_c, 4, 76, 127
2, 21302, Note_off_c, 4, 76, 127
2, 21302, Note_off_c, 4, 64, 127
2, 21304, Note_on_c, 3, 63, 127
2, 21304, Note_on_c, 6, 78, 127
2, 21479, Note_off_c, 6, 78, 127
2, 21479, Note_off_c, 1, 61, 127
2, 21481, Note_on_c, 12, 59, 127
2, 21481, Note_on_c, 12, 71, 127
2, 21656, Note_off_c, 12, 71, 127
2, 21656, Note_off_c, 12, 59, 127
2, 21656, Note_off_c, 3, 63, 127
2, 21658, Note_on_c, 10, 57, 127
2, 21658, Note_on_c, 4, 64, 127
2, 21658, Note_on_c, 8, 80, 127
2, 21833, Note_off_c, 8, 80, 127
2, 21833, Note_off_c, 10, 57, 127
2, 21835, Note_on_c, 8, 56, 127
2, 21835, Note_on_c, 12, 71, 127
2, 22010, Note_off_c, 12, 71, 127
2, 22010, Note_off_c, 8, 56, 127
2, 22012, Note_on_c, 6, 54, 127
2, 22012, Note_on_c, 10, 81, 127
2, 22187, Note_off_c, 10, 81, 127
2, 22189, Note_on_c, 12, 71, 127
2, 22364, Note_off_c, 12, 71, 127
2, 22364, Note_off_c, 6, 54, 127
2, 22364, Note_off_c, 4, 64, 127
2, 22366, Note_on_c, 12, 59, 127
2, 22366, Note_on_c, 3, 63, 127
2, 22366, Note_on_c, 12, 83, 127
2, 22719, Note_off_c, 12, 83, 127
2, 22719, Note_off_c, 3, 63, 127
2, 22719, Note_off_c, 12, 59, 127
2, 22721, Note_on_c, 4, 52, 127
2, 22721, Note_on_c, 4, 64, 127
2, 22721, Note_on_c, 8, 80, 127
2, 22896, Note_off_c, 8, 80, 127
2, 22898, Note_on_c, 10, 81, 127
2, 23073, Note_off_c, 10, 81, 127
2, 23075, Note_on_c, 12, 83, 127
2, 23250, Note_off_c, 12, 83, 127
2, 23252, Note_on_c, 10, 81, 127
2, 23403, Note_off_c, 4, 64, 127
2, 23403, Note_off_c, 4, 52, 127
2, 23427, Note_off_c, 10, 81, 127
2, 23429, Note_on_c, 8, 80, 127
2, 23604, Note_off_c, 8, 80, 127
2, 23606, Note_on_c, 10, 57, 127
2, 23606, Note_on_c, 6, 78, 127
2, 23781, Note_off_c, 6, 78, 127
2, 23781, Note_off_c, 10, 57, 127
2, 23783, Note_on_c, 8, 56, 127
2, 23783, Note_on_c, 4, 76, 127
2, 23958, Note_off_c, 4, 76, 127
2, 23958, Note_off_c, 8, 56, 127
2, 23960, Note_on_c, 6, 54, 127
2, 23960, Note_on_c, 2, 74, 127
2, 24135, Note_off_c, 2, 74, 127
2, 24135, Note_off_c, 6, 54, 127
2, 24137, Note_on_c, 5, 53, 127
2, 24137, Note_on_c, 1, 73, 127
2, 24312, Note_off_c, 5, 53, 127
2, 24314, Note_on_c, 1, 49, 127
2, 24489, Note_off_c, 1, 49, 127
2, 24491, Note_on_c, 6, 54, 127
2, 24491, Note_on_c, 8, 68, 127
2, 24666, Note_off_c, 8, 68, 127
2, 24666, Note_off_c, 6, 54, 127
2, 24668, Note_on_c, 1, 49, 127
2, 24668, Note_on_c, 10, 69, 127
2, 24843, Note_off_c, 10, 69, 127
2, 24843, Note_off_c, 1, 49, 127
2, 24845, Note_on_c, 8, 56, 127
2, 24845, Note_on_c, 12, 71, 127
2, 25020, Note_off_c, 8, 56, 127
2, 25022, Note_on_c, 1, 49, 127
2, 25197, Note_off_c, 1, 49, 127
2, 25197, Note_off_c, 12, 71, 127
2, 25199, Note_on_c, 5, 53, 127
2, 25199, Note_on_c, 10, 69, 127
2, 25374, Note_off_c, 10, 69, 127
2, 25374, Note_off_c, 5, 53, 127
2, 25376, Note_on_c, 1, 49, 127
2, 25376, Note_on_c, 8, 68, 127
2, 25551, Note_off_c, 8, 68, 127
2, 25551, Note_off_c, 1, 49, 127
2, 25553, Note_on_c, 6, 54, 127
2, 25553, Note_on_c, 10, 69, 127
2, 25728, Note_off_c, 6, 54, 127
2, 25730, Note_on_c, 1, 49, 127
2, 25905, Note_off_c, 1, 49, 127
2, 25905, Note_off_c, 1, 73, 127
2, 25907, Note_on_c, 8, 56, 127
2, 25907, Note_on_c, 1, 73, 127
2, 26082, Note_off_c, 1, 73, 127
2, 26082, Note_off_c, 8, 56, 127
2, 26084, Note_on_c, 1, 49, 127
2, 26084, Note_on_c, 2, 74, 127
2, 26259, Note_off_c, 2, 74, 127
2, 26259, Note_off_c, 1, 49, 127
2, 26261, Note_on_c, 6, 54, 127
2, 26261, Note_on_c, 4, 76, 127
2, 26436, Note_off_c, 6, 54, 127
2, 26438, Note_on_c, 1, 49, 127
2, 26613, Note_off_c, 1, 49, 127
2, 26613, Note_off_c, 4, 76, 127
2, 26615, Note_on_c, 4, 52, 127
2, 26615, Note_on_c, 2, 74, 127
2, 26790, Note_off_c, 2, 74, 127
2, 26790, Note_off_c, 4, 52, 127
2, 26792, Note_on_c, 1, 49, 127
2, 26792, Note_on_c, 1, 73, 127
2, 26967, Note_off_c, 1, 73, 127
2, 26967, Note_off_c, 1, 49, 127
2, 26969, Note_on_c, 3, 51, 127
2, 26969, Note_on_c, 12, 71, 127
2, 27144, Note_off_c, 3, 51, 127
2, 27146, Note_on_c, 12, 47, 127
2, 27321, Note_off_c, 12, 47, 127
2, 27321, Note_off_c, 10, 69, 127
2, 27323, Note_on_c, 4, 52, 127
2, 27323, Note_on_c, 6, 66, 127
2, 27498, Note_off_c, 6, 66, 127
2, 27498, Note_off_c, 4, 52, 127
2, 27500, Note_on_c, 12, 47, 127
2, 27500, Note_on_c, 8, 68, 127
2, 27675, Note_off_c, 8, 68, 127
2, 27675, Note_off_c, 12, 47, 127
2, 27677, Note_on_c, 6, 54, 127
2, 27677, Note_on_c, 10, 69, 127
2, 27852, Note_off_c, 6, 54, 127
2, 27854, Note_on_c, 12, 47, 127
2, 28029, Note_off_c, 12, 47, 127
2, 28029, Note_off_c, 10, 69, 127
2, 28031, Note_on_c, 3, 51, 127
2, 28031, Note_on_c, 8, 68, 127
2, 28206, Note_off_c, 8, 68, 127
2, 28206, Note_off_c, 3, 51, 127
2, 28208, Note_on_c, 12, 47, 127
2, 28208, Note_on_c, 6, 66, 127
2, 28383, Note_off_c, 6, 66, 127
2, 28383, Note_off_c, 12, 47, 127
2, 28385, Note_on_c, 4, 52, 127
2, 28385, Note_on_c, 8, 68, 127
2, 28560, Note_off_c, 4, 52, 127
2, 28562, Note_on_c, 12, 47, 127
2, 28737, Note_off_c, 12, 47, 127
2, 28737, Note_off_c, 12, 71, 127
2, 28739, Note_on_c, 6, 54, 127
2, 28739, Note_on_c, 12, 71, 127
2, 28914, Note_off_c, 12, 71, 127
2, 28914, Note_off_c, 6, 54, 127
2, 28916, Note_on_c, 12, 47, 127
2, 28916, Note_on_c, 1, 73, 127
2, 29091, Note_off_c, 1, 73, 127
2, 29091, Note_off_c, 12, 47, 127
2, 29093, Note_on_c, 4, 52, 127
2, 29093, Note_on_c, 2, 74, 127
2, 29268, Note_off_c, 4, 52, 127
2, 29270, Note_on_c, 12, 47, 127
2, 29445, Note_off_c, 12, 47, 127
2, 29445, Note_off_c, 2, 74, 127
2, 29447, Note_on_c, 2, 50, 127
2, 29447, Note_on_c, 1, 73, 127
2, 29622, Note_off_c, 1, 73, 127
2, 29622, Note_off_c, 2, 50, 127
2, 29624, Note_on_c, 12, 47, 127
2, 29624, Note_on_c, 12, 71, 127
2, 29799, Note_off_c, 12, 71, 127
2, 29799, Note_off_c, 12, 47, 127
2, 29801, Note_on_c, 1, 49, 127
2, 29801, Note_on_c, 10, 69, 127
2, 29976, Note_off_c, 1, 49, 127
2, 29978, Note_on_c, 10, 45, 127
2, 30153, Note_off_c, 10, 45, 127
2, 30153, Note_off_c, 8, 68, 127
2, 30155, Note_on_c, 2, 50, 127
2, 30155, Note_on_c, 5, 65, 127
2, 30330, Note_off_c, 5, 65, 127
2, 30330, Note_off_c, 2, 50, 127
2, 30332, Note_on_c, 10, 45, 127
2, 30332, Note_on_c, 6, 66, 127
2, 30507, Note_off_c, 6, 66, 127
2, 30507, Note_off_c, 10, 45, 127
2, 30509, Note_on_c, 4, 52, 127
2, 30509, Note_on_c, 8, 68, 127
2, 30684, Note_off_c, 4, 52, 127
2, 30686, Note_on_c, 10, 45, 127
2, 30861, Note_off_c, 10, 45, 127
2, 30861, Note_off_c, 8, 68, 127
2, 30863, Note_on_c, 1, 49, 127
2, 30863, Note_on_c, 6, 66, 127
2, 31038, Note_off_c, 6, 66, 127
2, 31038, Note_off_c, 1, 49, 127
2, 31040, Note_on_c, 10, 45, 127
2, 31040, Note_on_c, 5, 65, 127
2, 31215, Note_off_c, 5, 65, 127
2, 31215, Note_off_c, 10, 45, 127
2, 31217, Note_on_c, 2, 50, 127
2, 31217, Note_on_c, 6, 66, 127
2, 31392, Note_off_c, 2, 50, 127
2, 31394, Note_on_c, 10, 45, 127
2, 31569, Note_off_c, 10, 45, 127
2, 31569, Note_off_c, 10, 69, 127
2, 31571, Note_on_c, 4, 52, 127
2, 31571, Note_on_c, 10, 69, 127
2, 31746, Note_off_c, 10, 69, 127
2, 31746, Note_off_c, 4, 52, 127
2, 31748, Note_on_c, 10, 45, 127
2, 31748, Note_on_c, 12, 71, 127
2, 31923, Note_off_c, 12, 71, 127
2, 31923, Note_off_c, 10, 45, 127
2, 31925, Note_on_c, 2, 50, 127
2, 31925, Note_on_c, 1, 73, 127
2, 32100, Note_off_c, 2, 50, 127
2, 32102, Note_on_c, 10, 45, 127
2, 32277, Note_off_c, 10, 45, 127
2, 32277, Note_off_c, 1, 73, 127
2, 32279, Note_on_c, 1, 49, 127
2, 32279, Note_on_c, 12, 71, 127
2, 32454, Note_off_c, 12, 71, 127
2, 32454, Note_off_c, 1, 49, 127
2, 32456, Note_on_c, 10, 45, 127
2, 32456, Note_on_c, 10, 69, 127
2, 32631, Note_off_c, 10, 69, 127
2, 32631, Note_off_c, 10, 45, 127
2, 32633, Note_on_c, 12, 47, 127
2, 32633, Note_on_c, 8, 68, 127
2, 32808, Note_off_c, 12, 47, 127
2, 32810, Note_on_c, 8, 44, 127
2, 32985, Note_off_c, 8, 44, 127
2, 32985, Note_off_c, 6, 66, 127
2, 32987, Note_on_c, 1, 49, 127
2, 32987, Note_on_c, 3, 63, 127
2, 33162, Note_off_c, 3, 63, 127
2, 33162, Note_off_c, 1, 49, 127
2, 33164, Note_on_c, 8, 44, 127
2, 33164, Note_on_c, 5, 65, 127
2, 33339, Note_off_c, 5, 65, 127
2, 33339, Note_off_c, 8, 44, 127
2, 33341, Note_on_c, 2, 50, 127
2, 33341, Note_on_c, 6, 66, 127
2, 33516, Note_off_c, 2, 50, 127
2, 33518, Note_on_c, 8, 44, 127
2, 33693, Note_off_c, 8, 44, 127
2, 33693, Note_off_c, 6, 66, 127
2, 33695, Note_on_c, 12, 47, 127
2, 33695, Note_on_c, 5, 65, 127
2, 33870, Note_off_c, 5, 65, 127
2, 33870, Note_off_c, 12, 47, 127
2, 33872, Note_on_c, 8, 44, 127
2, 33872, Note_on_c, 3, 63, 127
2, 34047, Note_off_c, 3, 63, 127
2, 34047, Note_off_c, 8, 44, 127
2, 34049, Note_on_c, 1, 49, 127
2, 34049, Note_on_c, 5, 65, 127
2, 34402, Note_off_c, 5, 65, 127
2, 34402, Note_off_c, 8, 68, 127
2, 34404, Note_on_c, 5, 65, 127
2, 34404, Note_on_c, 8, 68, 127
2, 34579, Note_off_c, 8, 68, 127
2, 34579, Note_off_c, 5, 65, 127
2, 34581, Note_on_c, 6, 66, 127
2, 34581, Note_on_c, 10, 69, 127
2, 34756, Note_off_c, 10, 69, 127
2, 34756, Note_off_c, 6, 66, 127
2, 34758, Note_on_c, 8, 68, 127
2, 34758, Note_on_c, 12, 71, 127
2, 35111, Note_off_c, 12, 71, 127
2, 35111, Note_off_c, 8, 68, 127
2, 35113, Note_on_c, 6, 66, 127
2, 35113, Note_on_c, 10, 69, 127
2, 35288, Note_off_c, 10, 69, 127
2, 35288, Note_off_c, 6, 66, 127
2, 35290, Note_on_c, 5, 65, 127
2, 35290, Note_on_c, 8, 68, 127
2, 35465, Note_off_c, 8, 68, 127
2, 35465, Note_off_c, 5, 65, 127
2, 35465, Note_off_c, 1, 49, 127
2, 35467, Note_on_c, 1, 49, 127
2, 35467, Note_on_c, 6, 66, 127
2, 35467, Note_on_c, 10, 69, 127
2, 35820, Note_off_c, 10, 69, 127
2, 35822, Note_on_c, 11, 70, 127
2, 35997, Note_off_c, 11, 70, 127
2, 35999, Note_on_c, 0, 72, 127
2, 36174, Note_off_c, 0, 72, 127
2, 36174, Note_off_c, 6, 66, 127
2, 36176, Note_on_c, 4, 64, 127
2, 36176, Note_on_c, 1, 73, 127
2, 36529, Note_off_c, 1, 73, 127
2, 36531, Note_on_c, 0, 72, 127
2, 36706, Note_off_c, 0, 72, 127
2, 36708, Note_on_c, 11, 70, 127
2, 36883, Note_off_c, 11, 70, 127
2, 36883, Note_off_c, 4, 64, 127
2, 36883, Note_off_c, 1, 49, 127
2, 36885, Note_on_c, 1, 49, 127
2, 36885, Note_on_c, 3, 63, 127
2, 36885, Note_on_c, 0, 72, 127
2, 37238, Note_off_c, 0, 72, 127
2, 37240, Note_on_c, 0, 72, 127
2, 37415, Note_off_c, 0, 72, 127
2, 37417, Note_on_c, 1, 73, 127
2, 37592, Note_off_c, 1, 73, 127
2, 37592, Note_off_c, 3, 63, 127
2, 37594, Note_on_c, 6, 66, 127
2, 37594, Note_on_c, 3, 75, 127
2, 37947, Note_off_c, 3, 75, 127
2, 37949, Note_on_c, 1, 73, 127
2, 38124, Note_off_c, 1, 73, 127
2, 38126, Note_on_c, 0, 72, 127
2, 38301, Note_off_c, 0, 72, 127
2, 38303, Note_on_c, 1, 73, 127
2, 38478, Note_off_c, 1, 49, 127
2, 38480, Note_on_c, 2, 62, 127
2, 38655, Note_off_c, 2, 62, 127
2, 38655, Note_off_c, 1, 73, 127
2, 38657, Note_on_c, 1, 61, 127
2, 38657, Note_on_c, 8, 68, 127
2, 38832, Note_off_c, 8, 68, 127
2, 38832, Note_off_c, 1, 61, 127
2, 38834, Note_on_c, 12, 59, 127
2, 38834, Note_on_c, 10, 69, 127
2, 39009, Note_off_c, 10, 69, 127
2, 39009, Note_off_c, 12, 59, 127
2, 39009, Note_off_c, 6, 66, 127
2, 39011, Note_on_c, 1, 61, 127
2, 39011, Note_on_c, 5, 65, 127
2, 39011, Note_on_c, 12, 71, 127
2, 39186, Note_off_c, 1, 61, 127
2, 39188, Note_on_c, 10, 57, 127
2, 39363, Note_off_c, 10, 57, 127
2, 39363, Note_off_c, 12, 71, 127
2, 39365, Note_on_c, 12, 59, 127
2, 39365, Note_on_c, 10, 69, 127
2, 39540, Note_off_c, 10, 69, 127
2, 39540, Note_off_c, 12, 59, 127
2, 39542, Note_on_c, 1, 61, 127
2, 39542, Note_on_c, 8, 68, 127
2, 39717, Note_off_c, 8, 68, 127
2, 39717, Note_off_c, 1, 61, 127
2, 39717, Note_off_c, 5, 65, 127
2, 39719, Note_on_c, 6, 54, 127
2, 39719, Note_on_c, 6, 66, 127
2, 39719, Note_on_c, 10, 69, 127
2, 39885, Note_off_c, 6, 66, 127
2, 39894, Note_off_c, 10, 69, 127
2, 39896, Note_on_c, 6, 66, 127
2, 40071, Note_off_c, 6, 66, 127
2, 40071, Note_off_c, 6, 54, 127
2, 40073, Note_on_c, 5, 53, 127
2, 40073, Note_on_c, 8, 68, 127
2, 40248, Note_off_c, 8, 68, 127
2, 40248, Note_off_c, 5, 53, 127
2, 40250, Note_on_c, 6, 54, 127
2, 40250, Note_on_c, 10, 69, 127
2, 40425, Note_off_c, 10, 69, 127
2, 40425, Note_off_c, 6, 54, 127
2, 40427, Note_on_c, 8, 56, 127
2, 40427, Note_on_c, 12, 71, 127
2, 40602, Note_off_c, 12, 71, 127
2, 40604, Note_on_c, 1, 73, 127
2, 40779, Note_off_c, 1, 73, 127
2, 40779, Note_off_c, 8, 56, 127
2, 40781, Note_on_c, 6, 54, 127
2, 40781, Note_on_c, 2, 74, 127
2, 40956, Note_off_c, 2, 74, 127
2, 40956, Note_off_c, 6, 54, 127
2, 40958, Note_on_c, 5, 53, 127
2, 40958, Note_on_c, 4, 76, 127
2, 41133, Note_off_c, 4, 76, 127
2, 41133, Note_off_c, 5, 53, 127
2, 41135, Note_on_c, 6, 54, 127
2, 41135, Note_on_c, 2, 74, 127
2, 41312, Note_on_c, 1, 73, 127
2, 41487, Note_off_c, 1, 73, 127
2, 41489, Note_on_c, 12, 71, 127
2, 41664, Note_off_c, 2, 74, 127
2, 41666, Note_on_c, 2, 74, 127
2, 41841, Note_off_c, 2, 74, 127
2, 41843, Note_on_c, 1, 73, 127
2, 42018, Note_off_c, 12, 71, 127
2, 42018, Note_off_c, 6, 54, 127
2, 42020, Note_on_c, 8, 56, 127
2, 42020, Note_on_c, 12, 71, 127
2, 42195, Note_off_c, 12, 71, 127
2, 42195, Note_off_c, 8, 56, 127
2, 42197, Note_on_c, 5, 53, 127
2, 42197, Note_on_c, 10, 69, 127
2, 42372, Note_off_c, 5, 53, 127
2, 42372, Note_off_c, 1, 73, 127
2, 42374, Note_on_c, 6, 54, 127
2, 42374, Note_on_c, 1, 73, 127
2, 42549, Note_off_c, 1, 73, 127
2, 42549, Note_off_c, 6, 54, 127
2, 42549, Note_off_c, 10, 69, 127
2, 42551, Note_on_c, 8, 56, 127
2, 42551, Note_on_c, 5, 65, 127
2, 42551, Note_on_c, 12, 71, 127
2, 42726, Note_off_c, 8, 56, 127
2, 42728, Note_on_c, 1, 49, 127
2, 42903, Note_off_c, 1, 49, 127
2, 42903, Note_off_c, 12, 71, 127
2, 42903, Note_off_c, 5, 65, 127
2, 42905, Note_on_c, 10, 57, 127
2, 42905, Note_on_c, 6, 66, 127
2, 42905, Note_on_c, 10, 69, 127
2, 43080, Note_off_c, 10, 57, 127
2, 43082, Note_on_c, 1, 49, 127
2, 43257, Note_off_c, 1, 49, 127
2, 43257, Note_off_c, 10, 69, 127
2, 43259, Note_on_c, 12, 59, 127
2, 43259, Note_on_c, 8, 68, 127
2, 43434, Note_off_c, 12, 59, 127
2, 43436, Note_on_c, 1, 49, 127
2, 43611, Note_off_c, 1, 49, 127
2, 43611, Note_off_c, 6, 66, 127
2, 43613, Note_on_c, 1, 61, 127
2, 43613, Note_on_c, 5, 65, 127
2, 43788, Note_off_c, 1, 61, 127
2, 43790, Note_on_c, 12, 59, 127
2, 43965, Note_off_c, 12, 59, 127
2, 43965, Note_off_c, 5, 65, 127
2, 43965, Note_off_c, 8, 68, 127
2, 43967, Note_on_c, 10, 57, 127
2, 43967, Note_on_c, 6, 66, 127
2, 44142, Note_off_c, 10, 57, 127
2, 44144, Note_on_c, 12, 59, 127
2, 44319, Note_off_c, 12, 59, 127
2, 44321, Note_on_c, 1, 61, 127
2, 44321, Note_on_c, 1, 73, 127
2, 44496, Note_off_c, 1, 61, 127
2, 44498, Note_on_c, 12, 59, 127
2, 44673, Note_off_c, 12, 59, 127
2, 44673, Note_off_c, 1, 73, 127
2, 44675, Note_on_c, 10, 57, 127
2, 44675, Note_on_c, 6, 78, 127
2, 44850, Note_off_c, 10, 57, 127
2, 44852, Note_on_c, 8, 56, 127
2, 45027, Note_off_c, 8, 56, 127
2, 45027, Note_off_c, 6, 66, 127
2, 45029, Note_on_c, 6, 54, 127
2, 45029, Note_on_c, 10, 69, 127
2, 45204, Note_off_c, 6, 54, 127
2, 45206, Note_on_c, 4, 52, 127
2, 45381, Note_off_c, 4, 52, 127
2, 45381, Note_off_c, 10, 69, 127
2, 45383, Note_on_c, 12, 59, 127
2, 45383, Note_on_c, 2, 74, 127
2, 45558, Note_off_c, 12, 59, 127
2, 45560, Note_on_c, 1, 61, 127
2, 45735, Note_off_c, 1, 61, 127
2, 45735, Note_off_c, 6, 78, 127
2, 45737, Note_on_c, 2, 62, 127
2, 45737, Note_on_c, 12, 71, 127
2, 45912, Note_off_c, 2, 62, 127
2, 45914, Note_on_c, 1, 61, 127
2, 46089, Note_off_c, 1, 61, 127
2, 46089, Note_off_c, 12, 71, 127
2, 46091, Note_on_c, 12, 59, 127
2, 46091, Note_on_c, 8, 80, 127
2, 46266, Note_off_c, 12, 59, 127
2, 46268, Note_on_c, 10, 57, 127
2, 46443, Note_off_c, 10, 57, 127
2, 46443, Note_off_c, 2, 74, 127
2, 46445, Note_on_c, 8, 56, 127
2, 46445, Note_on_c, 12, 71, 127
2, 46620, Note_off_c, 8, 56, 127
2, 46622, Note_on_c, 6, 54, 127
2, 46797, Note_off_c, 6, 54, 127
2, 46797, Note_off_c, 12, 71, 127
2, 46799, Note_on_c, 1, 61, 127
2, 46799, Note_on_c, 4, 76, 127
2, 46974, Note_off_c, 1, 61, 127
2, 46976, Note_on_c, 2, 62, 127
2, 47151, Note_off_c, 2, 62, 127
2, 47151, Note_off_c, 8, 80, 127
2, 47153, Note_on_c, 4, 64, 127
2, 47153, Note_on_c, 1, 73, 127
2, 47328, Note_off_c, 4, 64, 127
2, 47330, Note_on_c, 2, 62, 127
2, 47505, Note_off_c, 2, 62, 127
2, 47505, Note_off_c, 1, 73, 127
2, 47507, Note_on_c, 1, 61, 127
2, 47507, Note_on_c, 10, 81, 127
2, 47682, Note_off_c, 1, 61, 127
2, 47684, Note_on_c, 12, 59, 127
2, 47859, Note_off_c, 12, 59, 127
2, 47859, Note_off_c, 4, 76, 127
2, 47861, Note_on_c, 10, 57, 127
2, 47861, Note_on_c, 1, 73, 127
2, 48036, Note_off_c, 10, 57, 127
2, 48038, Note_on_c, 8, 56, 127
2, 48213, Note_off_c, 8, 56, 127
2, 48213, Note_off_c, 1, 73, 127
2, 48215, Note_on_c, 3, 63, 127
2, 48215, Note_on_c, 6, 78, 127
2, 48390, Note_off_c, 3, 63, 127
2, 48392, Note_on_c, 4, 64, 127
2, 48567, Note_off_c, 4, 64, 127
2, 48567, Note_off_c, 10, 81, 127
2, 48569, Note_on_c, 6, 66, 127
2, 48569, Note_on_c, 3, 75, 127
2, 48744, Note_off_c, 6, 66, 127
2, 48746, Note_on_c, 4, 64, 127
2, 48921, Note_off_c, 4, 64, 127
2, 48921, Note_off_c, 3, 75, 127
2, 48923, Note_on_c, 3, 63, 127
2, 48923, Note_on_c, 12, 83, 127
2, 49098, Note_off_c, 3, 63, 127
2, 49100, Note_on_c, 1, 61, 127
2, 49275, Note_off_c, 1, 61, 127
2, 49275, Note_off_c, 12, 83, 127
2, 49277, Note_on_c, 12, 59, 127
2, 49277, Note_on_c, 10, 81, 127
2, 49452, Note_off_c, 12, 59, 127
2, 49454, Note_on_c, 10, 57, 127
2, 49629, Note_off_c, 10, 57, 127
2, 49629, Note_off_c, 10, 81, 127
2, 49631, Note_on_c, 4, 64, 127
2, 49631, Note_on_c, 8, 80, 127
2, 49984, Note_off_c, 8, 80, 127
2, 49984, Note_off_c, 6, 78, 127
2, 49986, Note_on_c, 12, 71, 127
2, 49986, Note_on_c, 8, 80, 127
2, 50161, Note_off_c, 8, 80, 127
2, 50161, Note_off_c, 12, 71, 127
2, 50163, Note_on_c, 1, 73, 127
2, 50163, Note_on_c, 10, 81, 127
2, 50338, Note_off_c, 10, 81, 127
2, 50338, Note_off_c, 1, 73, 127
2, 50340, Note_on_c, 2, 74, 127
2, 50340, Note_on_c, 12, 83, 127
2, 50693, Note_off_c, 12, 83, 127
2, 50693, Note_off_c, 2, 74, 127
2, 50695, Note_on_c, 1, 73, 127
2, 50695, Note_on_c, 10, 81, 127
2, 50870, Note_off_c, 10, 81, 127
2, 50870, Note_off_c, 1, 73, 127
2, 50872, Note_on_c, 12, 71, 127
2, 50872, Note_on_c, 8, 80, 127
2, 51047, Note_off_c, 8, 80, 127
2, 51047, Note_off_c, 12, 71, 127
2, 51047, Note_off_c, 4, 64, 127
2, 51049, Note_on_c, 4, 64, 127
2, 51049, Note_on_c, 1, 73, 127
2, 51049, Note_on_c, 10, 81, 127
2, 51402, Note_off_c, 1, 73, 127
2, 51404, Note_on_c, 1, 73, 127
2, 51579, Note_off_c, 1, 73, 127
2, 51581, Note_on_c, 3, 75, 127
2, 51756, Note_off_c, 3, 75, 127
2, 51756, Note_off_c, 10, 81, 127
2, 51758, Note_on_c, 4, 76, 127
2, 51758, Note_on_c, 8, 80, 127
2, 52111, Note_off_c, 4, 76, 127
2, 52113, Note_on_c, 3, 75, 127
2, 52288, Note_off_c, 3, 75, 127
2, 52290, Note_on_c, 1, 73, 127
2, 52465, Note_off_c, 1, 73, 127
2, 52465, Note_off_c, 8, 80, 127
2, 52465, Note_off_c, 4, 64, 127
2, 52467, Note_on_c, 4, 64, 127
2, 52467, Note_on_c, 3, 75, 127
2, 52467, Note_on_c, 6, 78, 127
2, 52820, Note_off_c, 3, 75, 127
2, 52822, Note_on_c, 3, 75, 127
2, 52997, Note_off_c, 3, 75, 127
2, 52999, Note_on_c, 4, 76, 127
2, 53174, Note_off_c, 4, 76, 127
2, 53174, Note_off_c, 6, 78, 127
2, 53176, Note_on_c, 6, 78, 127
2, 53176, Note_on_c, 10, 81, 127
2, 53529, Note_off_c, 6, 78, 127
2, 53531, Note_on_c, 4, 76, 127
2, 53706, Note_off_c, 4, 76, 127
2, 53708, Note_on_c, 3, 75, 127
2, 53883, Note_off_c, 3, 75, 127
2, 53885, Note_on_c, 4, 76, 127
2, 54060, Note_off_c, 4, 64, 127
2, 54062, Note_on_c, 1, 61, 127
2, 54237, Note_off_c, 1, 61, 127
2, 54237, Note_off_c, 10, 81, 127
2, 54239, Note_on_c, 12, 59, 127
2, 54239, Note_on_c, 8, 80, 127
2, 54414, Note_off_c, 8, 80, 127
2, 54414, Note_off_c, 12, 59, 127
2, 54416, Note_on_c, 10, 57, 127
2, 54416, Note_on_c, 10, 81, 127
2, 54591, Note_off_c, 10, 81, 127
2, 54591, Note_off_c, 10, 57, 127
2, 54593, Note_on_c, 8, 56, 127
2, 54593, Note_on_c, 12, 83, 127
2, 54768, Note_off_c, 12, 83, 127
2, 54768, Note_off_c, 8, 56, 127
2, 54770, Note_on_c, 6, 54, 127
2, 54770, Note_on_c, 10, 81, 127
2, 54945, Note_off_c, 10, 81, 127
2, 54945, Note_off_c, 6, 54, 127
2, 54947, Note_on_c, 4, 52, 127
2, 54947, Note_on_c, 8, 80, 127
2, 55122, Note_off_c, 8, 80, 127
2, 55122, Note_off_c, 4, 52, 127
2, 55124, Note_on_c, 2, 50, 127
2, 55124, Note_on_c, 6, 78, 127
2, 55299, Note_off_c, 6, 78, 127
2, 55299, Note_off_c, 2, 50, 127
2, 55299, Note_off_c, 4, 76, 127
2, 55301, Note_on_c, 1, 49, 127
2, 55301, Note_on_c, 4, 76, 127
2, 55476, Note_off_c, 4, 76, 127
2, 55476, Note_off_c, 1, 49, 127
2, 55478, Note_on_c, 10, 57, 127
2, 55478, Note_on_c, 2, 74, 127
2, 55653, Note_off_c, 2, 74, 127
2, 55653, Note_off_c, 10, 57, 127
2, 55655, Note_on_c, 2, 50, 127
2, 55655, Note_on_c, 1, 73, 127
2, 55830, Note_off_c, 1, 73, 127
2, 55830, Note_off_c, 2, 50, 127
2, 55832, Note_on_c, 10, 57, 127
2, 55832, Note_on_c, 12, 71, 127
2, 56007, Note_off_c, 12, 71, 127
2, 56007, Note_off_c, 10, 57, 127
2, 56009, Note_on_c, 4, 52, 127
2, 56009, Note_on_c, 10, 69, 127
2, 56184, Note_off_c, 10, 69, 127
2, 56184, Note_off_c, 4, 52, 127
2, 56186, Note_on_c, 10, 57, 127
2, 56186, Note_on_c, 1, 73, 127
2, 56361, Note_off_c, 1, 73, 127
2, 56361, Note_off_c, 10, 57, 127
2, 56363, Note_on_c, 1, 49, 127
2, 56363, Note_on_c, 4, 76, 127
2, 56538, Note_off_c, 4, 76, 127
2, 56538, Note_off_c, 1, 49, 127
2, 56540, Note_on_c, 10, 57, 127
2, 56540, Note_on_c, 7, 79, 127
2, 56715, Note_off_c, 7, 79, 127
2, 56715, Note_off_c, 10, 57, 127
2, 56717, Note_on_c, 2, 50, 127
2, 56717, Note_on_c, 6, 78, 127
2, 56892, Note_off_c, 2, 50, 127
2, 56894, Note_on_c, 10, 57, 127
2, 57069, Note_off_c, 10, 57, 127
2, 57071, Note_on_c, 4, 52, 127
2, 57071, Note_on_c, 10, 69, 127
2, 57246, Note_off_c, 10, 69, 127
2, 57246, Note_off_c, 4, 52, 127
2, 57248, Note_on_c, 10, 57, 127
2, 57248, Note_on_c, 12, 71, 127
2, 57423, Note_off_c, 12, 71, 127
2, 57423, Note_off_c, 10, 57, 127
2, 57425, Note_on_c, 2, 50, 127
2, 57425, Note_on_c, 1, 73, 127
2, 57600, Note_off_c, 2, 50, 127
2, 57602, Note_on_c, 10, 57, 127
2, 57777, Note_off_c, 10, 57, 127
2, 57777, Note_off_c, 1, 73, 127
2, 57779, Note_on_c, 1, 49, 127
2, 57779, Note_on_c, 12, 71, 127
2, 57954, Note_off_c, 12, 71, 127
2, 57954, Note_off_c, 1, 49, 127
2, 57956, Note_on_c, 10, 57, 127
2, 57956, Note_on_c, 10, 69, 127
2, 58131, Note_off_c, 10, 69, 127
2, 58131, Note_off_c, 10, 57, 127
2, 58133, Note_on_c, 12, 47, 127
2, 58133, Note_on_c, 8, 68, 127
2, 58308, Note_off_c, 12, 47, 127
2, 58310, Note_on_c, 8, 56, 127
2, 58485, Note_off_c, 8, 56, 127
2, 58485, Note_off_c, 6, 78, 127
2, 58487, Note_on_c, 1, 49, 127
2, 58487, Note_on_c, 2, 74, 127
2, 58662, Note_off_c, 2, 74, 127
2, 58662, Note_off_c, 1, 49, 127
2, 58664, Note_on_c, 8, 56, 127
2, 58664, Note_on_c, 4, 76, 127
2, 58839, Note_off_c, 4, 76, 127
2, 58839, Note_off_c, 8, 56, 127
2, 58841, Note_on_c, 2, 50, 127
2, 58841, Note_on_c, 6, 78, 127
2, 59016, Note_off_c, 2, 50, 127
2, 59018, Note_on_c, 8, 56, 127
2, 59193, Note_off_c, 8, 56, 127
2, 59193, Note_off_c, 6, 78, 127
2, 59195, Note_on_c, 12, 47, 127
2, 59195, Note_on_c, 4, 76, 127
2, 59370, Note_off_c, 4, 76, 127
2, 59370, Note_off_c, 12, 47, 127
2, 59372, Note_on_c, 8, 56, 127
2, 59372, Note_on_c, 2, 74, 127
2, 59547, Note_off_c, 2, 74, 127
2, 59547, Note_off_c, 8, 56, 127
2, 59549, Note_on_c, 1, 49, 127
2, 59549, Note_on_c, 4, 76, 127
2, 59724, Note_off_c, 1, 49, 127
2, 59726, Note_on_c, 8, 56, 127
2, 59901, Note_off_c, 8, 56, 127
2, 59901, Note_off_c, 8, 68, 127
2, 59903, Note_on_c, 2, 50, 127
2, 59903, Note_on_c, 8, 68, 127
2, 60078, Note_off_c, 8, 68, 127
2, 60078, Note_off_c, 2, 50, 127
2, 60080, Note_on_c, 8, 56, 127
2, 60080, Note_on_c, 10, 69, 127
2, 60255, Note_off_c, 10, 69, 127
2, 60255, Note_off_c, 8, 56, 127
2, 60257, Note_on_c, 1, 49, 127
2, 60257, Note_on_c, 12, 71, 127
2, 60432, Note_off_c, 1, 49, 127
2, 60434, Note_on_c, 8, 56, 127
2, 60609, Note_off_c, 8, 56, 127
2, 60609, Note_off_c, 12, 71, 127
2, 60611, Note_on_c, 12, 47, 127
2, 60611, Note_on_c, 10, 69, 127
2, 60786, Note_off_c, 10, 69, 127
2, 60786, Note_off_c, 12, 47, 127
2, 60788, Note_on_c, 8, 56, 127
2, 60788, Note_on_c, 8, 68, 127
2, 60963, Note_off_c, 8, 68, 127
2, 60963, Note_off_c, 8, 56, 127
2, 60965, Note_on_c, 11, 46, 127
2, 60965, Note_on_c, 6, 66, 127
2, 61140, Note_off_c, 11, 46, 127
2, 61142, Note_on_c, 6, 54, 127
2, 61317, Note_off_c, 6, 54, 127
2, 61317, Note_off_c, 4, 76, 127
2, 61319, Note_on_c, 12, 47, 127
2, 61319, Note_on_c, 1, 73, 127
2, 61494, Note_off_c, 1, 73, 127
2, 61494, Note_off_c, 12, 47, 127
2, 61496, Note_on_c, 6, 54, 127
2, 61496, Note_on_c, 2, 74, 127
2, 61671, Note_off_c, 2, 74, 127
2, 61671, Note_off_c, 6, 54, 127
2, 61673, Note_on_c, 1, 49, 127
2, 61673, Note_on_c, 4, 76, 127
2, 61848, Note_off_c, 1, 49, 127
2, 61850, Note_on_c, 6, 54, 127
2, 62025, Note_off_c, 6, 54, 127
2, 62025, Note_off_c, 4, 76, 127
2, 62027, Note_on_c, 11, 46, 127
2, 62027, Note_on_c, 2, 74, 127
2, 62202, Note_off_c, 2, 74, 127
2, 62202, Note_off_c, 11, 46, 127
2, 62204, Note_on_c, 6, 54, 127
2, 62204, Note_on_c, 1, 73, 127
2, 62379, Note_off_c, 1, 73, 127
2, 62379, Note_off_c, 6, 54, 127
2, 62381, Note_on_c, 12, 47, 127
2, 62381, Note_on_c, 2, 74, 127
2, 62556, Note_off_c, 12, 47, 127
2, 62558, Note_on_c, 6, 54, 127
2, 62733, Note_off_c, 6, 54, 127
2, 62733, Note_off_c, 6, 66, 127
2, 62735, Note_on_c, 1, 49, 127
2, 62735, Note_on_c, 6, 66, 127
2, 62910, Note_off_c, 6, 66, 127
2, 62910, Note_off_c, 1, 49, 127
2, 62912, Note_on_c, 6, 54, 127
2, 62912, Note_on_c, 8, 68, 127
2, 63087, Note_off_c, 8, 68, 127
2, 63087, Note_off_c, 6, 54, 127
2, 63089, Note_on_c, 12, 47, 127
2, 63089, Note_on_c, 10, 69, 127
2, 63264, Note_off_c, 12, 47, 127
2, 63266, Note_on_c, 6, 54, 127
2, 63441, Note_off_c, 6, 54, 127
2, 63441, Note_off_c, 10, 69, 127
2, 63443, Note_on_c, 10, 45, 127
2, 63443, Note_on_c, 8, 68, 127
2, 63618, Note_off_c, 8, 68, 127
2, 63618, Note_off_c, 10, 45, 127
2, 63620, Note_on_c, 6, 54, 127
2, 63620, Note_on_c, 6, 66, 127
2, 63795, Note_off_c, 6, 66, 127
2, 63795, Note_off_c, 6, 54, 127
2, 63797, Note_on_c, 8, 44, 127
2, 63797, Note_on_c, 4, 64, 127
2, 63972, Note_off_c, 8, 44, 127
2, 63974, Note_on_c, 4, 52, 127
2, 64149, Note_off_c, 4, 52, 127
2, 64149, Note_off_c, 2, 74, 127
2, 64151, Note_on_c, 4, 40, 127
2, 64151, Note_on_c, 12, 71, 127
2, 64326, Note_off_c, 12, 71, 127
2, 64326, Note_off_c, 4, 40, 127
2, 64328, Note_on_c, 4, 52, 127
2, 64328, Note_on_c, 1, 73, 127
2, 64503, Note_off_c, 1, 73, 127
2, 64503, Note_off_c, 4, 52, 127
2, 64505, Note_on_c, 6, 42, 127
2, 64505, Note_on_c, 2, 74, 127
2, 64680, Note_off_c, 6, 42, 127
2, 64682, Note_on_c, 4, 52, 127
2, 64857, Note_off_c, 4, 52, 127
2, 64857, Note_off_c, 2, 74, 127
2, 64859, Note_on_c, 8, 44, 127
2, 64859, Note_on_c, 1, 73, 127
2, 65034, Note_off_c, 1, 73, 127
2, 65034, Note_off_c, 8, 44, 127
2, 65036, Note_on_c, 4, 52, 127
2, 65036, Note_on_c, 12, 71, 127
2, 65211, Note_off_c, 12, 71, 127
2, 65211, Note_off_c, 4, 52, 127
2, 65213, Note_on_c, 10, 45, 127
2, 65213, Note_on_c, 1, 73, 127
2, 65383, Note_off_c, 4, 64, 127
2, 65389, Note_off_c, 1, 73, 127
2, 65391, Note_on_c, 10, 69, 127
2, 65566, Note_off_c, 10, 69, 127
2, 65566, Note_off_c, 10, 45, 127
2, 65568, Note_on_c, 8, 44, 127
2, 65568, Note_on_c, 6, 78, 127
2, 65743, Note_off_c, 8, 44, 127
2, 65745, Note_on_c, 10, 45, 127
2, 65745, Note_on_c, 10, 69, 127
2, 65920, Note_off_c, 10, 69, 127
2, 65920, Note_off_c, 10, 45, 127
2, 65922, Note_on_c, 12, 47, 127
2, 65922, Note_on_c, 8, 68, 127
2, 66097, Note_off_c, 6, 78, 127
2, 66099, Note_on_c, 3, 75, 127
2, 66274, Note_off_c, 3, 75, 127
2, 66274, Note_off_c, 12, 47, 127
2, 66276, Note_on_c, 10, 45, 127
2, 66276, Note_on_c, 4, 76, 127
2, 66451, Note_off_c, 10, 45, 127
2, 66451, Note_off_c, 8, 68, 127
2, 66453, Note_on_c, 8, 44, 127
2, 66453, Note_on_c, 8, 68, 127
2, 66628, Note_off_c, 8, 68, 127
2, 66628, Note_off_c, 8, 44, 127
2, 66630, Note_on_c, 10, 45, 127
2, 66630, Note_on_c, 6, 66, 127
2, 66805, Note_off_c, 4, 76, 127
2, 66807, Note_on_c, 1, 73, 127
2, 66982, Note_off_c, 1, 73, 127
2, 66984, Note_on_c, 2, 74, 127
2, 67159, Note_off_c, 6, 66, 127
2, 67161, Note_on_c, 6, 66, 127
2, 67336, Note_off_c, 6, 66, 127
2, 67338, Note_on_c, 4, 64, 127
2, 67513, Note_off_c, 2, 74, 127
2, 67513, Note_off_c, 10, 45, 127
2, 67515, Note_on_c, 12, 47, 127
2, 67515, Note_on_c, 12, 71, 127
2, 67690, Note_off_c, 12, 71, 127
2, 67690, Note_off_c, 12, 47, 127
2, 67692, Note_on_c, 8, 44, 127
2, 67692, Note_on_c, 1, 73, 127
2, 67867, Note_off_c, 8, 44, 127
2, 67867, Note_off_c, 4, 64, 127
2, 67869, Note_on_c, 10, 45, 127
2, 67869, Note_on_c, 4, 64, 127
2, 68044, Note_off_c, 4, 64, 127
2, 68044, Note_off_c, 10, 45, 127
2, 68044, Note_off_c, 1, 73, 127
2, 68046, Note_on_c, 12, 47, 127
2, 68046, Note_on_c, 2, 62, 127
2, 68046, Note_on_c, 8, 68, 127
2, 68221, Note_off_c, 12, 47, 127
2, 68223, Note_on_c, 4, 40, 127
2, 68398, Note_off_c, 4, 40, 127
2, 68398, Note_off_c, 8, 68, 127
2, 68398, Note_off_c, 2, 62, 127
2, 68400, Note_on_c, 1, 49, 127
2, 68400, Note_on_c, 1, 61, 127
2, 68400, Note_on_c, 10, 69, 127
2, 68575, Note_off_c, 1, 49, 127
2, 68577, Note_on_c, 4, 40, 127
2, 68752, Note_off_c, 4, 40, 127
2, 68752, Note_off_c, 1, 61, 127
2, 68754, Note_on_c, 2, 50, 127
2, 68754, Note_on_c, 12, 59, 127
2, 68929, Note_off_c, 2, 50, 127
2, 68931, Note_on_c, 4, 40, 127
2, 69106, Note_off_c, 4, 40, 127
2, 69106, Note_off_c, 10, 69, 127
2, 69108, Note_on_c, 4, 52, 127
2, 69108, Note_on_c, 8, 68, 127
2, 69461, Note_off_c, 8, 68, 127
2, 69461, Note_off_c, 4, 52, 127
2, 69461, Note_off_c, 12, 59, 127
2, 69463, Note_on_c, 1, 49, 127
2, 69463, Note_on_c, 4, 64, 127
2, 69463, Note_on_c, 10, 69, 127
2, 69638, Note_off_c, 4, 64, 127
2, 69640, Note_on_c, 1, 61, 127
2, 69815, Note_off_c, 1, 61, 127
2, 69815, Note_off_c, 10, 69, 127
2, 69815, Note_off_c, 1, 49, 127
2, 69817, Note_on_c, 6, 54, 127
2, 69817, Note_on_c, 2, 62, 127
2, 69817, Note_on_c, 8, 68, 127
2, 69992, Note_off_c, 8, 68, 127
2, 69994, Note_on_c, 10, 69, 127
2, 70169, Note_off_c, 10, 69, 127
2, 70171, Note_on_c, 12, 71, 127
2, 70346, Note_off_c, 2, 62, 127
2, 70348, Note_on_c, 12, 59, 127
2, 70523, Note_off_c, 12, 59, 127
2, 70523, Note_off_c, 12, 71, 127
2, 70523, Note_off_c, 6, 54, 127
2, 70525, Note_on_c, 5, 53, 127
2, 70525, Note_on_c, 1, 61, 127
2, 70525, Note_on_c, 10, 69, 127
2, 70700, Note_off_c, 10, 69, 127
2, 70702, Note_on_c, 8, 68, 127
2, 70877, Note_off_c, 8, 68, 127
2, 70877, Note_off_c, 1, 61, 127
2, 70877, Note_off_c, 5, 53, 127
2, 70879, Note_on_c, 6, 54, 127
2, 70879, Note_on_c, 1, 61, 127
2, 70879, Note_on_c, 10, 69, 127
2, 71054, Note_off_c, 10, 69, 127
2, 71054, Note_off_c, 1, 61, 127
2, 71056, Note_on_c, 10, 57, 127
2, 71056, Note_on_c, 8, 68, 127
2, 71231, Note_off_c, 8, 68, 127
2, 71231, Note_off_c, 10, 57, 127
2, 71233, Note_on_c, 12, 59, 127
2, 71233, Note_on_c, 10, 69, 127
2, 71408, Note_off_c, 12, 59, 127
2, 71410, Note_on_c, 8, 56, 127
2, 71585, Note_off_c, 8, 56, 127
2, 71587, Note_on_c, 10, 57, 127
2, 71762, Note_off_c, 10, 69, 127
2, 71764, Note_on_c, 12, 71, 127
2, 71939, Note_off_c, 12, 71, 127
2, 71939, Note_off_c, 6, 54, 127
2, 71941, Note_on_c, 4, 52, 127
2, 71941, Note_on_c, 8, 68, 127
2, 72116, Note_off_c, 8, 68, 127
2, 72118, Note_on_c, 10, 69, 127
2, 72293, Note_off_c, 10, 69, 127
2, 72293, Note_off_c, 4, 52, 127
2, 72295, Note_on_c, 2, 50, 127
2, 72295, Note_on_c, 12, 71, 127
2, 72470, Note_off_c, 12, 71, 127
2, 72470, Note_off_c, 10, 57, 127
2, 72472, Note_on_c, 8, 56, 127
2, 72472, Note_on_c, 4, 64, 127
2, 72647, Note_off_c, 4, 64, 127
2, 72647, Note_off_c, 8, 56, 127
2, 72647, Note_off_c, 2, 50, 127
2, 72649, Note_on_c, 1, 49, 127
2, 72649, Note_on_c, 10, 57, 127
2, 72649, Note_on_c, 1, 73, 127
2, 72824, Note_off_c, 1, 73, 127
2, 72826, Note_on_c, 4, 64, 127
2, 73001, Note_off_c, 4, 64, 127
2, 73001, Note_off_c, 1, 49, 127
2, 73003, Note_on_c, 12, 47, 127
2, 73003, Note_on_c, 2, 74, 127
2, 73178, Note_off_c, 2, 74, 127
2, 73180, Note_on_c, 4, 64, 127
2, 73355, Note_off_c, 4, 64, 127
2, 73355, Note_off_c, 12, 47, 127
2, 73355, Note_off_c, 10, 57, 127
2, 73357, Note_on_c, 4, 52, 127
2, 73357, Note_on_c, 8, 56, 127
2, 73357, Note_on_c, 4, 76, 127
2, 73710, Note_off_c, 4, 76, 127
2, 73710, Note_off_c, 8, 56, 127
2, 73710, Note_off_c, 4, 52, 127
2, 73712, Note_on_c, 10, 45, 127
2, 73712, Note_on_c, 10, 57, 127
2, 73712, Note_on_c, 1, 73, 127
2, 73887, Note_off_c, 1, 73, 127
2, 73889, Note_on_c, 12, 71, 127
2, 74064, Note_off_c, 12, 71, 127
2, 74064, Note_off_c, 10, 57, 127
2, 74066, Note_on_c, 1, 61, 127
2, 74066, Note_on_c, 10, 69, 127
2, 74241, Note_off_c, 10, 69, 127
2, 74243, Note_on_c, 12, 71, 127
2, 74394, Note_off_c, 10, 45, 127
2, 74418, Note_off_c, 12, 71, 127
2, 74418, Note_off_c, 1, 61, 127
2, 74420, Note_on_c, 6, 66, 127
2, 74420, Note_on_c, 1, 73, 127
2, 74595, Note_off_c, 1, 73, 127
2, 74597, Note_on_c, 2, 74, 127
2, 74772, Note_off_c, 2, 74, 127
2, 74774, Note_on_c, 10, 57, 127
2, 74774, Note_on_c, 4, 76, 127
2, 74949, Note_off_c, 4, 76, 127
2, 74951, Note_on_c, 6, 78, 127
2, 75126, Note_off_c, 6, 78, 127
2, 75126, Note_off_c, 10, 57, 127
2, 75128, Note_on_c, 8, 56, 127
2, 75128, Note_on_c, 12, 71, 127
2, 75303, Note_off_c, 12, 71, 127
2, 75305, Note_on_c, 10, 69, 127
2, 75480, Note_off_c, 10, 69, 127
2, 75480, Note_off_c, 6, 66, 127
2, 75482, Note_on_c, 12, 59, 127
2, 75482, Note_on_c, 8, 68, 127
2, 75657, Note_off_c, 8, 68, 127
2, 75659, Note_on_c, 10, 69, 127
2, 75834, Note_off_c, 10, 69, 127
2, 75834, Note_off_c, 12, 59, 127
2, 75836, Note_on_c, 4, 64, 127
2, 75836, Note_on_c, 12, 71, 127
2, 75902, Note_off_c, 8, 56, 127
2, 76011, Note_off_c, 12, 71, 127
2, 76013, Note_on_c, 1, 73, 127
2, 76188, Note_off_c, 1, 73, 127
2, 76190, Note_on_c, 8, 56, 127
2, 76190, Note_on_c, 2, 74, 127
2, 76365, Note_off_c, 2, 74, 127
2, 76367, Note_on_c, 4, 76, 127
2, 76542, Note_off_c, 4, 76, 127
2, 76542, Note_off_c, 8, 56, 127
2, 76544, Note_on_c, 6, 54, 127
2, 76544, Note_on_c, 10, 69, 127
2, 76719, Note_off_c, 10, 69, 127
2, 76721, Note_on_c, 8, 68, 127
2, 76896, Note_off_c, 8, 68, 127
2, 76896, Note_off_c, 4, 64, 127
2, 76898, Note_on_c, 10, 57, 127
2, 76898, Note_on_c, 6, 66, 127
2, 77073, Note_off_c, 6, 66, 127
2, 77075, Note_on_c, 8, 68, 127
2, 77250, Note_off_c, 8, 68, 127
2, 77250, Note_off_c, 10, 57, 127
2, 77252, Note_on_c, 2, 62, 127
2, 77252, Note_on_c, 10, 69, 127
2, 77318, Note_off_c, 6, 54, 127
2, 77427, Note_off_c, 10, 69, 127
2, 77429, Note_on_c, 12, 71, 127
2, 77604, Note_off_c, 12, 71, 127
2, 77606, Note_on_c, 6, 54, 127
2, 77606, Note_on_c, 1, 73, 127
2, 77781, Note_off_c, 1, 73, 127
2, 77783, Note_on_c, 2, 74, 127
2, 77958, Note_off_c, 2, 74, 127
2, 77958, Note_off_c, 6, 54, 127
2, 77960, Note_on_c, 4, 52, 127
2, 77960, Note_on_c, 8, 68, 127
2, 78135, Note_off_c, 8, 68, 127
2, 78137, Note_on_c, 12, 71, 127
2, 78312, Note_off_c, 12, 71, 127
2, 78312, Note_off_c, 2, 62, 127
2, 78314, Note_on_c, 12, 59, 127
2, 78314, Note_on_c, 8, 68, 127
2, 78489, Note_off_c, 8, 68, 127
2, 78489, Note_off_c, 12, 59, 127
2, 78491, Note_on_c, 1, 61, 127
2, 78491, Note_on_c, 4, 64, 127
2, 78666, Note_off_c, 4, 64, 127
2, 78666, Note_off_c, 1, 61, 127
2, 78668, Note_on_c, 2, 62, 127
2, 78668, Note_on_c, 4, 76, 127
2, 79021, Note_off_c, 2, 62, 127
2, 79023, Note_on_c, 1, 61, 127
2, 79198, Note_off_c, 1, 61, 127
2, 79200, Note_on_c, 12, 59, 127
2, 79375, Note_off_c, 12, 59, 127
2, 79375, Note_off_c, 4, 52, 127
2, 79377, Note_on_c, 4, 52, 127
2, 79377, Note_on_c, 1, 61, 127
2, 79552, Note_off_c, 4, 76, 127
2, 79554, Note_on_c, 4, 76, 127
2, 79729, Note_off_c, 4, 76, 127
2, 79729, Note_off_c, 1, 61, 127
2, 79731, Note_on_c, 10, 57, 127
2, 79731, Note_on_c, 1, 73, 127
2, 79906, Note_off_c, 1, 73, 127
2, 79906, Note_off_c, 10, 57, 127
2, 79908, Note_on_c, 12, 59, 127
2, 79908, Note_on_c, 10, 69, 127
2, 80083, Note_off_c, 10, 69, 127
2, 80083, Note_off_c, 12, 59, 127
2, 80085, Note_on_c, 1, 61, 127
2, 80085, Note_on_c, 10, 81, 127
2, 80438, Note_off_c, 1, 61, 127
2, 80440, Note_on_c, 12, 59, 127
2, 80615, Note_off_c, 12, 59, 127
2, 80617, Note_on_c, 10, 57, 127
2, 80792, Note_off_c, 10, 57, 127
2, 80792, Note_off_c, 4, 52, 127
2, 80794, Note_on_c, 4, 52, 127
2, 80794, Note_on_c, 12, 59, 127
2, 80969, Note_off_c, 10, 81, 127
2, 80971, Note_on_c, 12, 71, 127
2, 81146, Note_off_c, 12, 71, 127
2, 81146, Note_off_c, 12, 59, 127
2, 81148, Note_on_c, 8, 56, 127
2, 81148, Note_on_c, 2, 74, 127
2, 81323, Note_off_c, 2, 74, 127
2, 81323, Note_off_c, 8, 56, 127
2, 81325, Note_on_c, 10, 57, 127
2, 81325, Note_on_c, 6, 78, 127
2, 81500, Note_off_c, 6, 78, 127
2, 81500, Note_off_c, 10, 57, 127
2, 81502, Note_on_c, 12, 59, 127
2, 81502, Note_on_c, 8, 80, 127
2, 81855, Note_off_c, 12, 59, 127
2, 81857, Note_on_c, 10, 57, 127
2, 82032, Note_off_c, 10, 57, 127
2, 82034, Note_on_c, 8, 56, 127
2, 82209, Note_off_c, 8, 56, 127
2, 82209, Note_off_c, 4, 52, 127
2, 82211, Note_on_c, 4, 52, 127
2, 82211, Note_on_c, 10, 57, 127
2, 82386, Note_off_c, 8, 80, 127
2, 82388, Note_on_c, 10, 69, 127
2, 82563, Note_off_c, 10, 69, 127
2, 82563, Note_off_c, 10, 57, 127
2, 82565, Note_on_c, 6, 54, 127
2, 82565, Note_on_c, 1, 73, 127
2, 82740, Note_off_c, 1, 73, 127
2, 82740, Note_off_c, 6, 54, 127
2, 82742, Note_on_c, 8, 56, 127
2, 82742, Note_on_c, 4, 76, 127
2, 82917, Note_off_c, 4, 76, 127
2, 82917, Note_off_c, 8, 56, 127
2, 82919, Note_on_c, 10, 57, 127
2, 82919, Note_on_c, 6, 78, 127
2, 83272, Note_off_c, 10, 57, 127
2, 83274, Note_on_c, 8, 56, 127
2, 83449, Note_off_c, 8, 56, 127
2, 83451, Note_on_c, 6, 54, 127
2, 83626, Note_off_c, 6, 54, 127
2, 83628, Note_on_c, 8, 56, 127
2, 83809, Note_off_c, 6, 78, 127
2, 83809, Note_off_c, 4, 52, 127
2, 83811, Note_on_c, 4, 52, 127
2, 83811, Note_on_c, 4, 76, 127
2, 83990, Note_off_c, 8, 56, 127
2, 83992, Note_off_c, 4, 76, 127
2, 83992, Note_off_c, 4, 52, 127
2, 83994, Note_on_c, 8, 56, 127
2, 83994, Note_on_c, 3, 75, 127
2, 84175, Note_off_c, 3, 75, 127
2, 84175, Note_off_c, 8, 56, 127
2, 84177, Note_on_c, 12, 59, 127
2, 84177, Note_on_c, 4, 76, 127
2, 84358, Note_off_c, 4, 76, 127
2, 84358, Note_off_c, 12, 59, 127
2, 84360, Note_on_c, 0, 60, 127
2, 84360, Note_on_c, 10, 69, 127
2, 84360, Note_on_c, 6, 78, 127
2, 84553, Note_off_c, 0, 60, 127
2, 84555, Note_on_c, 8, 56, 127
2, 84748, Note_off_c, 8, 56, 127
2, 84750, Note_on_c, 10, 57, 127
2, 84929, Note_off_c, 6, 78, 127
2, 84929, Note_off_c, 10, 69, 127
2, 84943, Note_off_c, 10, 57, 127
2, 84951, Note_on_c, 3, 51, 127
2, 85187, Note_off_c, 3, 51, 127
2, 85204, Note_on_c, 4, 52, 127
2, 85204, Note_on_c, 10, 69, 127
2, 85204, Note_on_c, 1, 73, 127
2, 85893, Note_off_c, 1, 73, 127
2, 85893, Note_off_c, 10, 69, 127
2, 85895, Note_on_c, 12, 71, 127
2, 85895, Note_on_c, 2, 74, 127
2, 86020, Note_off_c, 4, 52, 127
2, 86123, Note_off_c, 2, 74, 127
2, 86123, Note_off_c, 12, 71, 127
2, 86125, Note_on_c, 4, 40, 127
2, 86125, Note_on_c, 8, 68, 127
2, 86125, Note_on_c, 12, 71, 127
2, 86814, Note_off_c, 12, 71, 127
2, 86816, Note_on_c, 10, 69, 127
2, 86941, Note_off_c, 8, 68, 127
2, 86941, Note_off_c, 4, 40, 127
2, 87044, Note_off_c, 10, 69, 127
2, 87046, Note_on_c, 10, 45, 127
2, 87046, Note_on_c, 10, 69, 127
2, 88884, Note_off_c, 10, 69, 127
2, 88884, Note_off_c, 10, 45, 127
2, 93696, End_track
3, 0, Start_track
3, 0, Title_t, "MIDI"
3, 1536, End_track
0, 0, End_of_file
