0, 0, Header, 1, 3, 384
1, 0, Start_track
1, 0, Tempo, 500000
1, 0, Time_signature, 4, 2, 24, 8
1, 73728, End_track
2, 0, Start_track
2, 0, Text_t, "harpsichord: John Sankey"
2, 0, Program_c, 0, 6
2, 0, Pitch_bend_c, 0, 8192
2, 0, Program_c, 1, 6
2, 0, Pitch_bend_c, 1, 7792
2, 0, Program_c, 2, 6
2, 0, Pitch_bend_c, 2, 7876
2, 0, Program_c, 3, 6
2, 0, Pitch_bend_c, 3, 7952
2, 0, Program_c, 4, 6
2, 0, Pitch_bend_c, 4, 7792
2, 0, Program_c, 5, 6
2, 0, Pitch_bend_c, 5, 8112
2, 0, Program_c, 6, 6
2, 0, Pitch_bend_c, 6, 7712
2, 0, Program_c, 7, 6
2, 0, Pitch_bend_c, 7, 8037
2, 0, Program_c, 8, 6
2, 0, Pitch_bend_c, 8, 7872
2, 0, Program_c, 10, 6
2, 0, Pitch_bend_c, 10, 7712
2, 0, Program_c, 11, 6
2, 0, Pitch_bend_c, 11, 8032
2, 0, Program_c, 12, 6
2, 0, Pitch_bend_c, 12, 7872
2, 0, Title_t, "Track 1"
2, 48, Note_on_c, 7, 43, 127
2, 392, Note_on_c, 7, 67, 127
2, 734, Note_off_c, 7, 43, 127
2, 736, Note_on_c, 12, 47, 127
2, 906, Note_off_c, 7, 67, 127
2, 908, Note_on_c, 6, 66, 127
2, 1078, Note_off_c, 6, 66, 127
2, 1080, Note_on_c, 7, 67, 127
2, 1250, Note_off_c, 7, 67, 127
2, 1252, Note_on_c, 10, 69, 127
2, 1422, Note_off_c, 10, 69, 127
2, 1422, Note_off_c, 12, 47, 127
2, 1424, Note_on_c, 7, 43, 127
2, 1424, Note_on_c, 12, 71, 127
2, 1594, Note_off_c, 12, 71, 127
2, 1596, Note_on_c, 0, 72, 127
2, 1766, Note_off_c, 0, 72, 127
2, 1768, Note_on_c, 2, 74, 127
2, 1938, Note_off_c, 2, 74, 127
2, 1940, Note_on_c, 12, 71, 127
2, 2110, Note_off_c, 12, 71, 127
2, 2110, Note_off_c, 7, 43, 127
2, 2112, Note_on_c, 0, 48, 127
2, 2112, Note_on_c, 4, 76, 127
2, 2282, Note_off_c, 4, 76, 127
2, 2284, Note_on_c, 2, 74, 127
2, 2454, Note_off_c, 2, 74, 127
2, 2456, Note_on_c, 0, 72, 127
2, 2626, Note_off_c, 0, 72, 127
2, 2628, Note_on_c, 12, 71, 127
2, 2798, Note_off_c, 12, 71, 127
2, 2798, Note_off_c, 0, 48, 127
2, 2800, Note_on_c, 2, 50, 127
2, 2800, Note_on_c, 10, 69, 127
2, 2970, Note_off_c, 10, 69, 127
2, 2972, Note_on_c, 7, 67, 127
2, 3142, Note_off_c, 7, 67, 127
2, 3144, Note_on_c, 6, 66, 127
2, 3314, Note_off_c, 6, 66, 127
2, 3316, Note_on_c, 4, 64, 127
2, 3486, Note_off_c, 4, 64, 127
2, 3486, Note_off_c, 2, 50, 127
2, 3488, Note_on_c, 2, 38, 127
2, 3488, Note_on_c, 2, 62, 127
2, 3658, Note_off_c, 2, 62, 127
2, 3660, Note_on_c, 0, 72, 127
2, 3830, Note_off_c, 0, 72, 127
2, 3832, Note_on_c, 12, 71, 127
2, 4002, Note_off_c, 12, 71, 127
2, 4004, Note_on_c, 10, 69, 127
2, 4174, Note_off_c, 10, 69, 127
2, 4174, Note_off_c, 2, 38, 127
2, 4176, Note_on_c, 7, 43, 127
2, 4176, Note_on_c, 12, 71, 127
2, 4520, Note_on_c, 2, 62, 127
2, 4862, Note_off_c, 7, 43, 127
2, 4864, Note_on_c, 7, 55, 127
2, 5034, Note_off_c, 2, 62, 127
2, 5034, Note_off_c, 12, 71, 127
2, 5036, Note_on_c, 1, 61, 127
2, 5036, Note_on_c, 10, 69, 127
2, 5206, Note_off_c, 10, 69, 127
2, 5206, Note_off_c, 1, 61, 127
2, 5208, Note_on_c, 2, 62, 127
2, 5208, Note_on_c, 12, 71, 127
2, 5378, Note_off_c, 12, 71, 127
2, 5378, Note_off_c, 2, 62, 127
2, 5380, Note_on_c, 4, 64, 127
2, 5380, Note_on_c, 1, 73, 127
2, 5550, Note_off_c, 1, 73, 127
2, 5550, Note_off_c, 4, 64, 127
2, 5550, Note_off_c, 7, 55, 127
2, 5552, Note_on_c, 6, 54, 127
2, 5552, Note_on_c, 6, 66, 127
2, 5552, Note_on_c, 2, 74, 127
2, 5722, Note_off_c, 6, 66, 127
2, 5724, Note_on_c, 7, 67, 127
2, 5894, Note_off_c, 7, 67, 127
2, 5896, Note_on_c, 10, 69, 127
2, 6066, Note_off_c, 10, 69, 127
2, 6068, Note_on_c, 6, 66, 127
2, 6238, Note_off_c, 6, 66, 127
2, 6238, Note_off_c, 6, 54, 127
2, 6240, Note_on_c, 7, 55, 127
2, 6240, Note_on_c, 12, 71, 127
2, 6410, Note_off_c, 12, 71, 127
2, 6412, Note_on_c, 10, 69, 127
2, 6582, Note_off_c, 10, 69, 127
2, 6584, Note_on_c, 7, 67, 127
2, 6754, Note_off_c, 7, 67, 127
2, 6756, Note_on_c, 6, 66, 127
2, 6926, Note_off_c, 6, 66, 127
2, 6926, Note_off_c, 7, 55, 127
2, 6928, Note_on_c, 10, 57, 127
2, 6928, Note_on_c, 4, 64, 127
2, 7098, Note_off_c, 4, 64, 127
2, 7100, Note_on_c, 2, 62, 127
2, 7270, Note_off_c, 2, 62, 127
2, 7272, Note_on_c, 1, 61, 127
2, 7442, Note_off_c, 1, 61, 127
2, 7444, Note_on_c, 12, 59, 127
2, 7614, Note_off_c, 12, 59, 127
2, 7614, Note_off_c, 10, 57, 127
2, 7614, Note_off_c, 2, 74, 127
2, 7616, Note_on_c, 10, 45, 127
2, 7616, Note_on_c, 10, 57, 127
2, 7616, Note_on_c, 1, 73, 127
2, 7786, Note_off_c, 10, 57, 127
2, 7788, Note_on_c, 7, 67, 127
2, 7958, Note_off_c, 7, 67, 127
2, 7960, Note_on_c, 6, 66, 127
2, 8130, Note_off_c, 6, 66, 127
2, 8132, Note_on_c, 4, 64, 127
2, 8302, Note_off_c, 4, 64, 127
2, 8302, Note_off_c, 1, 73, 127
2, 8302, Note_off_c, 10, 45, 127
2, 8304, Note_on_c, 2, 50, 127
2, 8304, Note_on_c, 6, 66, 127
2, 8304, Note_on_c, 2, 74, 127
2, 8474, Note_off_c, 6, 66, 127
2, 8476, Note_on_c, 10, 57, 127
2, 8646, Note_off_c, 10, 57, 127
2, 8648, Note_on_c, 12, 59, 127
2, 8818, Note_off_c, 12, 59, 127
2, 8820, Note_on_c, 1, 61, 127
2, 8985, Note_off_c, 2, 50, 127
2, 8990, Note_off_c, 1, 61, 127
2, 8992, Note_on_c, 2, 62, 127
2, 9162, Note_off_c, 2, 62, 127
2, 9162, Note_off_c, 2, 74, 127
2, 9164, Note_on_c, 4, 64, 127
2, 9164, Note_on_c, 1, 73, 127
2, 9334, Note_off_c, 1, 73, 127
2, 9334, Note_off_c, 4, 64, 127
2, 9336, Note_on_c, 6, 66, 127
2, 9336, Note_on_c, 2, 74, 127
2, 9506, Note_off_c, 2, 74, 127
2, 9506, Note_off_c, 6, 66, 127
2, 9508, Note_on_c, 7, 67, 127
2, 9508, Note_on_c, 4, 76, 127
2, 9678, Note_off_c, 4, 76, 127
2, 9678, Note_off_c, 7, 67, 127
2, 9680, Note_on_c, 10, 69, 127
2, 9680, Note_on_c, 6, 78, 127
2, 9850, Note_off_c, 6, 78, 127
2, 9850, Note_off_c, 10, 69, 127
2, 9852, Note_on_c, 12, 71, 127
2, 9852, Note_on_c, 7, 79, 127
2, 10022, Note_off_c, 7, 79, 127
2, 10022, Note_off_c, 12, 71, 127
2, 10024, Note_on_c, 0, 72, 127
2, 10024, Note_on_c, 10, 81, 127
2, 10194, Note_off_c, 10, 81, 127
2, 10194, Note_off_c, 0, 72, 127
2, 10196, Note_on_c, 10, 69, 127
2, 10196, Note_on_c, 6, 78, 127
2, 10366, Note_off_c, 6, 78, 127
2, 10366, Note_off_c, 10, 69, 127
2, 10368, Note_on_c, 2, 74, 127
2, 10368, Note_on_c, 12, 83, 127
2, 10538, Note_off_c, 12, 83, 127
2, 10540, Note_on_c, 10, 81, 127
2, 10710, Note_off_c, 10, 81, 127
2, 10710, Note_off_c, 2, 74, 127
2, 10712, Note_on_c, 12, 71, 127
2, 10712, Note_on_c, 7, 79, 127
2, 10882, Note_off_c, 7, 79, 127
2, 10884, Note_on_c, 6, 78, 127
2, 11054, Note_off_c, 6, 78, 127
2, 11054, Note_off_c, 12, 71, 127
2, 11056, Note_on_c, 7, 67, 127
2, 11056, Note_on_c, 4, 76, 127
2, 11226, Note_off_c, 4, 76, 127
2, 11228, Note_on_c, 2, 74, 127
2, 11398, Note_off_c, 2, 74, 127
2, 11398, Note_off_c, 7, 67, 127
2, 11400, Note_on_c, 4, 64, 127
2, 11400, Note_on_c, 0, 72, 127
2, 11570, Note_off_c, 0, 72, 127
2, 11572, Note_on_c, 12, 71, 127
2, 11742, Note_off_c, 12, 71, 127
2, 11742, Note_off_c, 4, 64, 127
2, 11744, Note_on_c, 0, 72, 127
2, 11744, Note_on_c, 10, 69, 127
2, 11914, Note_off_c, 10, 69, 127
2, 11916, Note_on_c, 7, 79, 127
2, 12086, Note_off_c, 7, 79, 127
2, 12088, Note_on_c, 6, 78, 127
2, 12258, Note_off_c, 6, 78, 127
2, 12260, Note_on_c, 4, 76, 127
2, 12430, Note_off_c, 4, 76, 127
2, 12432, Note_on_c, 2, 74, 127
2, 12602, Note_off_c, 0, 72, 127
2, 12604, Note_on_c, 0, 72, 127
2, 12774, Note_off_c, 0, 72, 127
2, 12776, Note_on_c, 7, 55, 127
2, 12776, Note_on_c, 12, 71, 127
2, 12946, Note_off_c, 12, 71, 127
2, 12948, Note_on_c, 10, 69, 127
2, 13118, Note_off_c, 10, 69, 127
2, 13120, Note_on_c, 12, 71, 127
2, 13290, Note_off_c, 7, 55, 127
2, 13290, Note_off_c, 2, 74, 127
2, 13292, Note_on_c, 6, 54, 127
2, 13292, Note_on_c, 2, 74, 127
2, 13462, Note_off_c, 2, 74, 127
2, 13462, Note_off_c, 6, 54, 127
2, 13464, Note_on_c, 7, 55, 127
2, 13464, Note_on_c, 4, 76, 127
2, 13634, Note_off_c, 4, 76, 127
2, 13634, Note_off_c, 7, 55, 127
2, 13636, Note_on_c, 10, 57, 127
2, 13636, Note_on_c, 6, 78, 127
2, 13806, Note_off_c, 6, 78, 127
2, 13806, Note_off_c, 10, 57, 127
2, 13808, Note_on_c, 12, 59, 127
2, 13808, Note_on_c, 7, 79, 127
2, 13978, Note_off_c, 12, 59, 127
2, 13978, Note_off_c, 12, 71, 127
2, 13980, Note_on_c, 0, 60, 127
2, 13980, Note_on_c, 10, 69, 127
2, 14150, Note_off_c, 10, 69, 127
2, 14150, Note_off_c, 0, 60, 127
2, 14152, Note_on_c, 2, 62, 127
2, 14152, Note_on_c, 12, 71, 127
2, 14322, Note_off_c, 12, 71, 127
2, 14322, Note_off_c, 2, 62, 127
2, 14324, Note_on_c, 12, 59, 127
2, 14324, Note_on_c, 7, 67, 127
2, 14494, Note_off_c, 7, 67, 127
2, 14494, Note_off_c, 12, 59, 127
2, 14496, Note_on_c, 4, 64, 127
2, 14496, Note_on_c, 0, 72, 127
2, 14666, Note_off_c, 4, 64, 127
2, 14668, Note_on_c, 2, 62, 127
2, 14838, Note_off_c, 2, 62, 127
2, 14838, Note_off_c, 7, 79, 127
2, 14840, Note_on_c, 0, 60, 127
2, 14840, Note_on_c, 4, 76, 127
2, 15010, Note_off_c, 0, 60, 127
2, 15012, Note_on_c, 12, 59, 127
2, 15177, Note_off_c, 0, 72, 127
2, 15182, Note_off_c, 12, 59, 127
2, 15182, Note_off_c, 4, 76, 127
2, 15184, Note_on_c, 10, 57, 127
2, 15184, Note_on_c, 0, 72, 127
2, 15354, Note_off_c, 10, 57, 127
2, 15356, Note_on_c, 7, 55, 127
2, 15526, Note_off_c, 7, 55, 127
2, 15528, Note_on_c, 6, 54, 127
2, 15528, Note_on_c, 10, 69, 127
2, 15698, Note_off_c, 6, 54, 127
2, 15700, Note_on_c, 4, 52, 127
2, 15870, Note_off_c, 4, 52, 127
2, 15870, Note_off_c, 10, 69, 127
2, 15872, Note_on_c, 2, 50, 127
2, 15872, Note_on_c, 6, 78, 127
2, 16026, Note_off_c, 0, 72, 127
2, 16042, Note_off_c, 2, 50, 127
2, 16044, Note_on_c, 0, 60, 127
2, 16044, Note_on_c, 4, 76, 127
2, 16214, Note_off_c, 4, 76, 127
2, 16214, Note_off_c, 0, 60, 127
2, 16216, Note_on_c, 12, 59, 127
2, 16216, Note_on_c, 2, 74, 127
2, 16386, Note_off_c, 2, 74, 127
2, 16386, Note_off_c, 12, 59, 127
2, 16388, Note_on_c, 10, 57, 127
2, 16388, Note_on_c, 0, 72, 127
2, 16558, Note_off_c, 0, 72, 127
2, 16558, Note_off_c, 10, 57, 127
2, 16560, Note_on_c, 2, 62, 127
2, 16560, Note_on_c, 12, 71, 127
2, 16730, Note_off_c, 2, 62, 127
2, 16732, Note_on_c, 0, 60, 127
2, 16902, Note_off_c, 0, 60, 127
2, 16902, Note_off_c, 6, 78, 127
2, 16904, Note_on_c, 12, 59, 127
2, 16904, Note_on_c, 2, 74, 127
2, 17074, Note_off_c, 12, 59, 127
2, 17076, Note_on_c, 10, 57, 127
2, 17241, Note_off_c, 12, 71, 127
2, 17246, Note_off_c, 10, 57, 127
2, 17246, Note_off_c, 2, 74, 127
2, 17248, Note_on_c, 7, 55, 127
2, 17248, Note_on_c, 12, 71, 127
2, 17418, Note_off_c, 7, 55, 127
2, 17420, Note_on_c, 6, 54, 127
2, 17590, Note_off_c, 6, 54, 127
2, 17592, Note_on_c, 4, 52, 127
2, 17592, Note_on_c, 7, 67, 127
2, 17762, Note_off_c, 4, 52, 127
2, 17764, Note_on_c, 2, 50, 127
2, 17934, Note_off_c, 2, 50, 127
2, 17934, Note_off_c, 7, 67, 127
2, 17936, Note_on_c, 0, 48, 127
2, 17936, Note_on_c, 4, 76, 127
2, 18090, Note_off_c, 12, 71, 127
2, 18106, Note_off_c, 0, 48, 127
2, 18108, Note_on_c, 12, 59, 127
2, 18108, Note_on_c, 2, 74, 127
2, 18278, Note_off_c, 2, 74, 127
2, 18278, Note_off_c, 12, 59, 127
2, 18280, Note_on_c, 10, 57, 127
2, 18280, Note_on_c, 0, 72, 127
2, 18450, Note_off_c, 0, 72, 127
2, 18450, Note_off_c, 10, 57, 127
2, 18452, Note_on_c, 7, 55, 127
2, 18452, Note_on_c, 12, 71, 127
2, 18622, Note_off_c, 12, 71, 127
2, 18622, Note_off_c, 7, 55, 127
2, 18624, Note_on_c, 0, 60, 127
2, 18624, Note_on_c, 10, 69, 127
2, 18794, Note_off_c, 0, 60, 127
2, 18796, Note_on_c, 12, 59, 127
2, 18966, Note_off_c, 12, 59, 127
2, 18966, Note_off_c, 4, 76, 127
2, 18968, Note_on_c, 10, 57, 127
2, 18968, Note_on_c, 0, 72, 127
2, 19138, Note_off_c, 10, 57, 127
2, 19140, Note_on_c, 7, 55, 127
2, 19305, Note_off_c, 10, 69, 127
2, 19310, Note_off_c, 7, 55, 127
2, 19310, Note_off_c, 0, 72, 127
2, 19312, Note_on_c, 6, 54, 127
2, 19312, Note_on_c, 10, 69, 127
2, 19482, Note_off_c, 6, 54, 127
2, 19484, Note_on_c, 4, 52, 127
2, 19654, Note_off_c, 4, 52, 127
2, 19656, Note_on_c, 3, 51, 127
2, 19656, Note_on_c, 6, 66, 127
2, 19826, Note_off_c, 3, 51, 127
2, 19828, Note_on_c, 1, 49, 127
2, 19998, Note_off_c, 1, 49, 127
2, 19998, Note_off_c, 6, 66, 127
2, 20000, Note_on_c, 12, 47, 127
2, 20000, Note_on_c, 3, 75, 127
2, 20154, Note_off_c, 10, 69, 127
2, 20170, Note_off_c, 12, 47, 127
2, 20172, Note_on_c, 10, 57, 127
2, 20172, Note_on_c, 0, 72, 127
2, 20342, Note_off_c, 0, 72, 127
2, 20342, Note_off_c, 10, 57, 127
2, 20344, Note_on_c, 7, 55, 127
2, 20344, Note_on_c, 12, 71, 127
2, 20514, Note_off_c, 12, 71, 127
2, 20514, Note_off_c, 7, 55, 127
2, 20516, Note_on_c, 6, 54, 127
2, 20516, Note_on_c, 10, 69, 127
2, 20686, Note_off_c, 10, 69, 127
2, 20686, Note_off_c, 6, 54, 127
2, 20686, Note_off_c, 3, 75, 127
2, 20688, Note_on_c, 4, 52, 127
2, 20688, Note_on_c, 7, 67, 127
2, 20688, Note_on_c, 4, 76, 127
2, 20858, Note_off_c, 7, 67, 127
2, 20860, Note_on_c, 10, 69, 127
2, 21030, Note_off_c, 10, 69, 127
2, 21032, Note_on_c, 7, 67, 127
2, 21202, Note_off_c, 7, 67, 127
2, 21202, Note_off_c, 4, 52, 127
2, 21204, Note_on_c, 3, 51, 127
2, 21204, Note_on_c, 6, 66, 127
2, 21374, Note_off_c, 6, 66, 127
2, 21374, Note_off_c, 3, 51, 127
2, 21376, Note_on_c, 4, 52, 127
2, 21376, Note_on_c, 4, 64, 127
2, 21546, Note_off_c, 4, 64, 127
2, 21546, Note_off_c, 4, 52, 127
2, 21548, Note_off_c, 4, 76, 127
2, 21548, Note_on_c, 6, 54, 127
2, 21548, Note_on_c, 3, 63, 127
2, 21718, Note_off_c, 3, 63, 127
2, 21718, Note_off_c, 6, 54, 127
2, 21720, Note_on_c, 7, 55, 127
2, 21720, Note_on_c, 4, 64, 127
2, 21890, Note_off_c, 4, 64, 127
2, 21890, Note_off_c, 7, 55, 127
2, 21892, Note_on_c, 10, 57, 127
2, 21892, Note_on_c, 6, 66, 127
2, 22062, Note_off_c, 6, 66, 127
2, 22062, Note_off_c, 10, 57, 127
2, 22064, Note_on_c, 12, 59, 127
2, 22064, Note_on_c, 7, 67, 127
2, 22064, Note_on_c, 4, 76, 127
2, 22234, Note_off_c, 7, 67, 127
2, 22236, Note_on_c, 10, 69, 127
2, 22406, Note_off_c, 10, 69, 127
2, 22406, Note_off_c, 12, 59, 127
2, 22408, Note_on_c, 4, 52, 127
2, 22408, Note_on_c, 12, 71, 127
2, 22578, Note_off_c, 12, 71, 127
2, 22580, Note_on_c, 7, 67, 127
2, 22750, Note_off_c, 7, 67, 127
2, 22750, Note_off_c, 4, 52, 127
2, 22752, Note_on_c, 10, 57, 127
2, 22752, Note_on_c, 0, 72, 127
2, 22922, Note_off_c, 0, 72, 127
2, 22924, Note_on_c, 12, 71, 127
2, 23094, Note_off_c, 12, 71, 127
2, 23094, Note_off_c, 10, 57, 127
2, 23096, Note_on_c, 6, 54, 127
2, 23096, Note_on_c, 10, 69, 127
2, 23266, Note_off_c, 10, 69, 127
2, 23268, Note_on_c, 7, 67, 127
2, 23438, Note_off_c, 7, 67, 127
2, 23438, Note_off_c, 6, 54, 127
2, 23438, Note_off_c, 4, 76, 127
2, 23440, Note_on_c, 12, 59, 127
2, 23440, Note_on_c, 6, 66, 127
2, 23440, Note_on_c, 2, 74, 127
2, 23610, Note_off_c, 6, 66, 127
2, 23612, Note_on_c, 4, 64, 127
2, 23782, Note_off_c, 4, 64, 127
2, 23782, Note_off_c, 2, 74, 127
2, 23784, Note_on_c, 2, 62, 127
2, 23784, Note_on_c, 0, 72, 127
2, 23954, Note_off_c, 2, 62, 127
2, 23956, Note_on_c, 0, 60, 127
2, 24121, Note_off_c, 12, 59, 127
2, 24126, Note_off_c, 0, 60, 127
2, 24126, Note_off_c, 0, 72, 127
2, 24128, Note_on_c, 12, 59, 127
2, 24128, Note_on_c, 2, 74, 127
2, 24298, Note_off_c, 12, 59, 127
2, 24300, Note_on_c, 10, 69, 127
2, 24470, Note_off_c, 10, 69, 127
2, 24472, Note_on_c, 10, 57, 127
2, 24472, Note_on_c, 8, 68, 127
2, 24642, Note_off_c, 8, 68, 127
2, 24644, Note_on_c, 6, 66, 127
2, 24814, Note_off_c, 6, 66, 127
2, 24814, Note_off_c, 10, 57, 127
2, 24816, Note_on_c, 8, 56, 127
2, 24816, Note_on_c, 4, 64, 127
2, 24986, Note_off_c, 2, 74, 127
2, 24988, Note_on_c, 2, 74, 127
2, 25158, Note_off_c, 2, 74, 127
2, 25158, Note_off_c, 8, 56, 127
2, 25160, Note_on_c, 10, 57, 127
2, 25160, Note_on_c, 0, 72, 127
2, 25330, Note_off_c, 0, 72, 127
2, 25330, Note_off_c, 10, 57, 127
2, 25332, Note_on_c, 12, 59, 127
2, 25332, Note_on_c, 12, 71, 127
2, 25502, Note_off_c, 12, 71, 127
2, 25502, Note_off_c, 12, 59, 127
2, 25504, Note_on_c, 0, 60, 127
2, 25504, Note_on_c, 10, 69, 127
2, 25674, Note_off_c, 10, 69, 127
2, 25676, Note_on_c, 8, 68, 127
2, 25846, Note_off_c, 8, 68, 127
2, 25846, Note_off_c, 0, 60, 127
2, 25848, Note_on_c, 12, 59, 127
2, 25848, Note_on_c, 10, 69, 127
2, 26018, Note_off_c, 10, 69, 127
2, 26020, Note_on_c, 12, 71, 127
2, 26190, Note_off_c, 12, 71, 127
2, 26190, Note_off_c, 12, 59, 127
2, 26192, Note_on_c, 10, 57, 127
2, 26192, Note_on_c, 0, 72, 127
2, 26362, Note_off_c, 0, 72, 127
2, 26364, Note_on_c, 2, 74, 127
2, 26534, Note_off_c, 2, 74, 127
2, 26534, Note_off_c, 10, 57, 127
2, 26536, Note_on_c, 0, 60, 127
2, 26536, Note_on_c, 4, 76, 127
2, 26706, Note_off_c, 4, 76, 127
2, 26708, Note_on_c, 0, 72, 127
2, 26878, Note_off_c, 0, 72, 127
2, 26878, Note_off_c, 4, 64, 127
2, 26880, Note_on_c, 2, 62, 127
2, 26880, Note_on_c, 5, 77, 127
2, 27050, Note_off_c, 5, 77, 127
2, 27052, Note_on_c, 4, 76, 127
2, 27222, Note_off_c, 4, 76, 127
2, 27222, Note_off_c, 0, 60, 127
2, 27224, Note_on_c, 12, 59, 127
2, 27224, Note_on_c, 2, 74, 127
2, 27394, Note_off_c, 2, 74, 127
2, 27394, Note_off_c, 12, 59, 127
2, 27396, Note_on_c, 10, 57, 127
2, 27396, Note_on_c, 0, 72, 127
2, 27566, Note_off_c, 0, 72, 127
2, 27566, Note_off_c, 10, 57, 127
2, 27568, Note_on_c, 8, 56, 127
2, 27568, Note_on_c, 12, 71, 127
2, 27738, Note_off_c, 12, 71, 127
2, 27740, Note_on_c, 10, 69, 127
2, 27910, Note_off_c, 10, 69, 127
2, 27910, Note_off_c, 8, 56, 127
2, 27912, Note_on_c, 12, 59, 127
2, 27912, Note_on_c, 8, 68, 127
2, 28082, Note_off_c, 8, 68, 127
2, 28084, Note_on_c, 6, 66, 127
2, 28254, Note_off_c, 6, 66, 127
2, 28254, Note_off_c, 12, 59, 127
2, 28256, Note_on_c, 8, 56, 127
2, 28256, Note_on_c, 4, 64, 127
2, 28426, Note_off_c, 4, 64, 127
2, 28428, Note_on_c, 2, 74, 127
2, 28598, Note_off_c, 2, 74, 127
2, 28598, Note_off_c, 8, 56, 127
2, 28600, Note_on_c, 4, 52, 127
2, 28600, Note_on_c, 0, 72, 127
2, 28770, Note_off_c, 0, 72, 127
2, 28772, Note_on_c, 12, 71, 127
2, 28942, Note_off_c, 12, 71, 127
2, 28942, Note_off_c, 4, 52, 127
2, 28942, Note_off_c, 2, 62, 127
2, 28944, Note_on_c, 6, 54, 127
2, 28944, Note_on_c, 0, 60, 127
2, 28944, Note_on_c, 10, 69, 127
2, 29114, Note_off_c, 10, 69, 127
2, 29116, Note_on_c, 8, 68, 127
2, 29286, Note_off_c, 8, 68, 127
2, 29286, Note_off_c, 0, 60, 127
2, 29286, Note_off_c, 6, 54, 127
2, 29288, Note_on_c, 8, 56, 127
2, 29288, Note_on_c, 12, 59, 127
2, 29288, Note_on_c, 10, 69, 127
2, 29458, Note_off_c, 10, 69, 127
2, 29460, Note_on_c, 12, 71, 127
2, 29630, Note_off_c, 12, 71, 127
2, 29630, Note_off_c, 12, 59, 127
2, 29630, Note_off_c, 8, 56, 127
2, 29632, Note_on_c, 10, 57, 127
2, 29632, Note_on_c, 0, 72, 127
2, 29802, Note_off_c, 0, 72, 127
2, 29804, Note_on_c, 2, 74, 127
2, 29974, Note_off_c, 2, 74, 127
2, 29974, Note_off_c, 10, 57, 127
2, 29976, Note_on_c, 3, 51, 127
2, 29976, Note_on_c, 0, 60, 127
2, 29976, Note_on_c, 4, 76, 127
2, 30146, Note_off_c, 4, 76, 127
2, 30148, Note_on_c, 6, 78, 127
2, 30318, Note_off_c, 6, 78, 127
2, 30318, Note_off_c, 0, 60, 127
2, 30318, Note_off_c, 3, 51, 127
2, 30320, Note_on_c, 4, 52, 127
2, 30320, Note_on_c, 12, 59, 127
2, 30320, Note_on_c, 7, 79, 127
2, 30490, Note_off_c, 7, 79, 127
2, 30492, Note_on_c, 10, 81, 127
2, 30662, Note_off_c, 10, 81, 127
2, 30662, Note_off_c, 12, 59, 127
2, 30662, Note_off_c, 4, 52, 127
2, 30664, Note_on_c, 7, 55, 127
2, 30664, Note_on_c, 4, 64, 127
2, 30664, Note_on_c, 12, 83, 127
2, 30834, Note_off_c, 12, 83, 127
2, 30836, Note_on_c, 7, 79, 127
2, 31006, Note_off_c, 7, 79, 127
2, 31006, Note_off_c, 7, 55, 127
2, 31008, Note_on_c, 10, 57, 127
2, 31008, Note_on_c, 0, 84, 127
2, 31178, Note_off_c, 0, 84, 127
2, 31180, Note_on_c, 12, 83, 127
2, 31350, Note_off_c, 12, 83, 127
2, 31350, Note_off_c, 4, 64, 127
2, 31352, Note_on_c, 0, 60, 127
2, 31352, Note_on_c, 10, 81, 127
2, 31522, Note_off_c, 10, 81, 127
2, 31524, Note_on_c, 7, 79, 127
2, 31689, Note_off_c, 10, 57, 127
2, 31694, Note_off_c, 7, 79, 127
2, 31694, Note_off_c, 0, 60, 127
2, 31696, Note_on_c, 10, 57, 127
2, 31696, Note_on_c, 6, 78, 127
2, 31866, Note_off_c, 6, 78, 127
2, 31868, Note_on_c, 4, 76, 127
2, 32038, Note_off_c, 4, 76, 127
2, 32040, Note_on_c, 6, 54, 127
2, 32040, Note_on_c, 3, 75, 127
2, 32210, Note_off_c, 3, 75, 127
2, 32212, Note_on_c, 1, 73, 127
2, 32382, Note_off_c, 1, 73, 127
2, 32382, Note_off_c, 6, 54, 127
2, 32384, Note_on_c, 3, 63, 127
2, 32384, Note_on_c, 12, 71, 127
2, 32538, Note_off_c, 10, 57, 127
2, 32554, Note_off_c, 12, 71, 127
2, 32556, Note_on_c, 0, 60, 127
2, 32556, Note_on_c, 10, 81, 127
2, 32726, Note_off_c, 10, 81, 127
2, 32726, Note_off_c, 0, 60, 127
2, 32728, Note_on_c, 12, 59, 127
2, 32728, Note_on_c, 7, 79, 127
2, 32898, Note_off_c, 7, 79, 127
2, 32898, Note_off_c, 12, 59, 127
2, 32900, Note_on_c, 10, 57, 127
2, 32900, Note_on_c, 6, 78, 127
2, 33070, Note_off_c, 6, 78, 127
2, 33070, Note_off_c, 10, 57, 127
2, 33072, Note_on_c, 7, 55, 127
2, 33072, Note_on_c, 12, 83, 127
2, 33242, Note_off_c, 12, 83, 127
2, 33244, Note_on_c, 10, 81, 127
2, 33414, Note_off_c, 10, 81, 127
2, 33414, Note_off_c, 3, 63, 127
2, 33416, Note_on_c, 12, 59, 127
2, 33416, Note_on_c, 7, 79, 127
2, 33586, Note_off_c, 7, 79, 127
2, 33588, Note_on_c, 6, 78, 127
2, 33753, Note_off_c, 7, 55, 127
2, 33758, Note_off_c, 6, 78, 127
2, 33758, Note_off_c, 12, 59, 127
2, 33760, Note_on_c, 7, 55, 127
2, 33760, Note_on_c, 4, 76, 127
2, 33930, Note_off_c, 4, 76, 127
2, 33932, Note_on_c, 2, 74, 127
2, 34102, Note_off_c, 2, 74, 127
2, 34104, Note_on_c, 4, 52, 127
2, 34104, Note_on_c, 1, 73, 127
2, 34274, Note_off_c, 1, 73, 127
2, 34276, Note_on_c, 12, 71, 127
2, 34446, Note_off_c, 12, 71, 127
2, 34446, Note_off_c, 4, 52, 127
2, 34448, Note_on_c, 1, 61, 127
2, 34448, Note_on_c, 10, 69, 127
2, 34602, Note_off_c, 7, 55, 127
2, 34618, Note_off_c, 10, 69, 127
2, 34620, Note_on_c, 12, 59, 127
2, 34620, Note_on_c, 7, 79, 127
2, 34790, Note_off_c, 7, 79, 127
2, 34790, Note_off_c, 12, 59, 127
2, 34792, Note_on_c, 10, 57, 127
2, 34792, Note_on_c, 6, 78, 127
2, 34962, Note_off_c, 6, 78, 127
2, 34962, Note_off_c, 10, 57, 127
2, 34964, Note_on_c, 7, 55, 127
2, 34964, Note_on_c, 4, 76, 127
2, 35134, Note_off_c, 4, 76, 127
2, 35134, Note_off_c, 7, 55, 127
2, 35136, Note_on_c, 6, 54, 127
2, 35136, Note_on_c, 10, 81, 127
2, 35306, Note_off_c, 10, 81, 127
2, 35308, Note_on_c, 7, 79, 127
2, 35478, Note_off_c, 7, 79, 127
2, 35478, Note_off_c, 1, 61, 127
2, 35480, Note_on_c, 10, 57, 127
2, 35480, Note_on_c, 6, 78, 127
2, 35650, Note_off_c, 6, 78, 127
2, 35652, Note_on_c, 4, 76, 127
2, 35817, Note_off_c, 6, 54, 127
2, 35822, Note_off_c, 4, 76, 127
2, 35822, Note_off_c, 10, 57, 127
2, 35824, Note_on_c, 6, 54, 127
2, 35824, Note_on_c, 2, 74, 127
2, 35994, Note_off_c, 2, 74, 127
2, 35996, Note_on_c, 1, 73, 127
2, 36166, Note_off_c, 1, 73, 127
2, 36168, Note_on_c, 2, 50, 127
2, 36168, Note_on_c, 12, 71, 127
2, 36338, Note_off_c, 12, 71, 127
2, 36340, Note_on_c, 10, 69, 127
2, 36510, Note_off_c, 10, 69, 127
2, 36510, Note_off_c, 2, 50, 127
2, 36512, Note_on_c, 12, 59, 127
2, 36512, Note_on_c, 7, 67, 127
2, 36666, Note_off_c, 6, 54, 127
2, 36682, Note_off_c, 7, 67, 127
2, 36684, Note_on_c, 10, 57, 127
2, 36684, Note_on_c, 6, 78, 127
2, 36854, Note_off_c, 6, 78, 127
2, 36854, Note_off_c, 10, 57, 127
2, 36856, Note_on_c, 7, 55, 127
2, 36856, Note_on_c, 4, 76, 127
2, 37026, Note_off_c, 4, 76, 127
2, 37026, Note_off_c, 7, 55, 127
2, 37028, Note_on_c, 6, 54, 127
2, 37028, Note_on_c, 2, 74, 127
2, 37198, Note_off_c, 2, 74, 127
2, 37198, Note_off_c, 6, 54, 127
2, 37200, Note_on_c, 4, 52, 127
2, 37200, Note_on_c, 7, 79, 127
2, 37370, Note_off_c, 7, 79, 127
2, 37372, Note_on_c, 6, 78, 127
2, 37542, Note_off_c, 6, 78, 127
2, 37542, Note_off_c, 12, 59, 127
2, 37544, Note_on_c, 7, 55, 127
2, 37544, Note_on_c, 4, 76, 127
2, 37714, Note_off_c, 4, 76, 127
2, 37716, Note_on_c, 2, 74, 127
2, 37881, Note_off_c, 4, 52, 127
2, 37886, Note_off_c, 2, 74, 127
2, 37886, Note_off_c, 7, 55, 127
2, 37888, Note_on_c, 4, 52, 127
2, 37888, Note_on_c, 1, 73, 127
2, 38058, Note_off_c, 1, 73, 127
2, 38060, Note_on_c, 12, 71, 127
2, 38230, Note_off_c, 12, 71, 127
2, 38232, Note_on_c, 1, 49, 127
2, 38232, Note_on_c, 11, 70, 127
2, 38402, Note_off_c, 11, 70, 127
2, 38404, Note_on_c, 8, 68, 127
2, 38574, Note_off_c, 8, 68, 127
2, 38574, Note_off_c, 1, 49, 127
2, 38576, Note_on_c, 11, 58, 127
2, 38576, Note_on_c, 6, 66, 127
2, 38730, Note_off_c, 4, 52, 127
2, 38746, Note_off_c, 6, 66, 127
2, 38748, Note_on_c, 7, 55, 127
2, 38748, Note_on_c, 4, 76, 127
2, 38918, Note_off_c, 4, 76, 127
2, 38918, Note_off_c, 7, 55, 127
2, 38920, Note_on_c, 6, 54, 127
2, 38920, Note_on_c, 2, 74, 127
2, 39090, Note_off_c, 2, 74, 127
2, 39090, Note_off_c, 6, 54, 127
2, 39092, Note_on_c, 4, 52, 127
2, 39092, Note_on_c, 1, 73, 127
2, 39262, Note_off_c, 1, 73, 127
2, 39262, Note_off_c, 4, 52, 127
2, 39262, Note_off_c, 11, 58, 127
2, 39264, Note_on_c, 2, 50, 127
2, 39264, Note_on_c, 12, 59, 127
2, 39264, Note_on_c, 6, 78, 127
2, 39434, Note_off_c, 6, 78, 127
2, 39436, Note_on_c, 4, 76, 127
2, 39606, Note_off_c, 4, 76, 127
2, 39608, Note_on_c, 2, 74, 127
2, 39778, Note_off_c, 2, 74, 127
2, 39780, Note_on_c, 1, 73, 127
2, 39950, Note_off_c, 1, 73, 127
2, 39950, Note_off_c, 2, 50, 127
2, 39952, Note_on_c, 7, 55, 127
2, 39952, Note_on_c, 12, 71, 127
2, 40122, Note_off_c, 12, 59, 127
2, 40124, Note_on_c, 11, 58, 127
2, 40294, Note_off_c, 11, 58, 127
2, 40296, Note_on_c, 12, 59, 127
2, 40466, Note_off_c, 12, 59, 127
2, 40468, Note_on_c, 1, 61, 127
2, 40638, Note_off_c, 1, 61, 127
2, 40638, Note_off_c, 7, 55, 127
2, 40640, Note_on_c, 6, 54, 127
2, 40640, Note_on_c, 2, 62, 127
2, 40810, Note_off_c, 2, 62, 127
2, 40812, Note_on_c, 4, 64, 127
2, 40982, Note_off_c, 4, 64, 127
2, 40984, Note_on_c, 6, 66, 127
2, 41154, Note_off_c, 6, 66, 127
2, 41156, Note_on_c, 2, 62, 127
2, 41326, Note_off_c, 2, 62, 127
2, 41326, Note_off_c, 6, 54, 127
2, 41328, Note_on_c, 4, 52, 127
2, 41328, Note_on_c, 7, 67, 127
2, 41498, Note_off_c, 7, 67, 127
2, 41500, Note_on_c, 6, 66, 127
2, 41670, Note_off_c, 6, 66, 127
2, 41672, Note_on_c, 4, 64, 127
2, 41842, Note_off_c, 4, 64, 127
2, 41844, Note_on_c, 2, 62, 127
2, 42014, Note_off_c, 2, 62, 127
2, 42014, Note_off_c, 4, 52, 127
2, 42016, Note_on_c, 6, 54, 127
2, 42016, Note_on_c, 1, 61, 127
2, 42186, Note_off_c, 1, 61, 127
2, 42188, Note_on_c, 12, 59, 127
2, 42358, Note_off_c, 12, 59, 127
2, 42360, Note_on_c, 11, 58, 127
2, 42530, Note_off_c, 11, 58, 127
2, 42532, Note_on_c, 8, 56, 127
2, 42702, Note_off_c, 8, 56, 127
2, 42702, Note_off_c, 6, 54, 127
2, 42702, Note_off_c, 12, 71, 127
2, 42704, Note_on_c, 6, 42, 127
2, 42704, Note_on_c, 6, 54, 127
2, 42704, Note_on_c, 11, 70, 127
2, 42874, Note_off_c, 6, 54, 127
2, 42876, Note_on_c, 4, 64, 127
2, 43046, Note_off_c, 4, 64, 127
2, 43048, Note_on_c, 2, 62, 127
2, 43218, Note_off_c, 2, 62, 127
2, 43220, Note_on_c, 1, 61, 127
2, 43390, Note_off_c, 1, 61, 127
2, 43390, Note_off_c, 11, 70, 127
2, 43390, Note_off_c, 6, 42, 127
2, 43392, Note_on_c, 12, 47, 127
2, 43392, Note_on_c, 2, 62, 127
2, 43392, Note_on_c, 12, 71, 127
2, 43562, Note_off_c, 2, 62, 127
2, 43564, Note_on_c, 6, 66, 127
2, 43734, Note_off_c, 6, 66, 127
2, 43736, Note_on_c, 8, 68, 127
2, 43906, Note_off_c, 8, 68, 127
2, 43908, Note_on_c, 11, 70, 127
2, 44073, Note_off_c, 12, 71, 127
2, 44078, Note_off_c, 11, 70, 127
2, 44080, Note_on_c, 12, 71, 127
2, 44250, Note_off_c, 12, 47, 127
2, 44252, Note_on_c, 10, 45, 127
2, 44422, Note_off_c, 10, 45, 127
2, 44422, Note_off_c, 12, 71, 127
2, 44424, Note_on_c, 12, 47, 127
2, 44424, Note_on_c, 0, 72, 127
2, 44424, Note_on_c, 4, 76, 127
2, 44594, Note_off_c, 12, 47, 127
2, 44596, Note_on_c, 0, 48, 127
2, 44766, Note_off_c, 0, 48, 127
2, 44766, Note_off_c, 4, 76, 127
2, 44766, Note_off_c, 0, 72, 127
2, 44768, Note_on_c, 2, 50, 127
2, 44768, Note_on_c, 12, 71, 127
2, 44768, Note_on_c, 2, 74, 127
2, 44938, Note_off_c, 2, 50, 127
2, 44940, Note_on_c, 4, 52, 127
2, 45110, Note_off_c, 4, 52, 127
2, 45110, Note_off_c, 2, 74, 127
2, 45110, Note_off_c, 12, 71, 127
2, 45112, Note_on_c, 5, 53, 127
2, 45112, Note_on_c, 10, 69, 127
2, 45112, Note_on_c, 0, 72, 127
2, 45282, Note_off_c, 5, 53, 127
2, 45284, Note_on_c, 0, 48, 127
2, 45454, Note_off_c, 0, 48, 127
2, 45454, Note_off_c, 0, 72, 127
2, 45454, Note_off_c, 10, 69, 127
2, 45456, Note_on_c, 2, 50, 127
2, 45456, Note_on_c, 8, 68, 127
2, 45456, Note_on_c, 12, 71, 127
2, 45626, Note_off_c, 2, 50, 127
2, 45628, Note_on_c, 4, 52, 127
2, 45798, Note_off_c, 4, 52, 127
2, 45798, Note_off_c, 12, 71, 127
2, 45800, Note_on_c, 2, 50, 127
2, 45800, Note_on_c, 5, 77, 127
2, 45970, Note_off_c, 2, 50, 127
2, 45972, Note_on_c, 0, 48, 127
2, 46142, Note_off_c, 0, 48, 127
2, 46142, Note_off_c, 5, 77, 127
2, 46144, Note_on_c, 12, 47, 127
2, 46144, Note_on_c, 4, 76, 127
2, 46314, Note_off_c, 12, 47, 127
2, 46316, Note_on_c, 10, 45, 127
2, 46486, Note_off_c, 10, 45, 127
2, 46486, Note_off_c, 4, 76, 127
2, 46488, Note_on_c, 8, 44, 127
2, 46488, Note_on_c, 2, 74, 127
2, 46658, Note_off_c, 8, 44, 127
2, 46660, Note_on_c, 6, 42, 127
2, 46830, Note_off_c, 6, 42, 127
2, 46830, Note_off_c, 2, 74, 127
2, 46832, Note_on_c, 4, 40, 127
2, 46832, Note_on_c, 0, 72, 127
2, 47002, Note_off_c, 4, 40, 127
2, 47004, Note_on_c, 2, 50, 127
2, 47174, Note_off_c, 2, 50, 127
2, 47174, Note_off_c, 0, 72, 127
2, 47176, Note_on_c, 0, 48, 127
2, 47176, Note_on_c, 12, 71, 127
2, 47346, Note_off_c, 0, 48, 127
2, 47348, Note_on_c, 12, 47, 127
2, 47518, Note_off_c, 12, 47, 127
2, 47518, Note_off_c, 12, 71, 127
2, 47520, Note_on_c, 10, 45, 127
2, 47520, Note_on_c, 0, 72, 127
2, 47690, Note_off_c, 8, 68, 127
2, 47692, Note_on_c, 4, 64, 127
2, 47862, Note_off_c, 4, 64, 127
2, 47864, Note_on_c, 6, 66, 127
2, 48034, Note_off_c, 6, 66, 127
2, 48036, Note_on_c, 8, 68, 127
2, 48206, Note_off_c, 8, 68, 127
2, 48208, Note_on_c, 10, 69, 127
2, 48378, Note_off_c, 10, 45, 127
2, 48380, Note_on_c, 7, 43, 127
2, 48550, Note_off_c, 7, 43, 127
2, 48550, Note_off_c, 10, 69, 127
2, 48550, Note_off_c, 0, 72, 127
2, 48552, Note_on_c, 10, 45, 127
2, 48552, Note_on_c, 12, 71, 127
2, 48552, Note_on_c, 2, 74, 127
2, 48722, Note_off_c, 10, 45, 127
2, 48724, Note_on_c, 12, 47, 127
2, 48894, Note_off_c, 12, 47, 127
2, 48894, Note_off_c, 2, 74, 127
2, 48894, Note_off_c, 12, 71, 127
2, 48896, Note_on_c, 0, 48, 127
2, 48896, Note_on_c, 10, 69, 127
2, 48896, Note_on_c, 0, 72, 127
2, 49066, Note_off_c, 0, 48, 127
2, 49068, Note_on_c, 2, 50, 127
2, 49238, Note_off_c, 2, 50, 127
2, 49238, Note_off_c, 0, 72, 127
2, 49238, Note_off_c, 10, 69, 127
2, 49240, Note_on_c, 4, 52, 127
2, 49240, Note_on_c, 7, 67, 127
2, 49240, Note_on_c, 12, 71, 127
2, 49410, Note_off_c, 4, 52, 127
2, 49412, Note_on_c, 12, 47, 127
2, 49582, Note_off_c, 12, 47, 127
2, 49582, Note_off_c, 12, 71, 127
2, 49582, Note_off_c, 7, 67, 127
2, 49584, Note_on_c, 0, 48, 127
2, 49584, Note_on_c, 6, 66, 127
2, 49584, Note_on_c, 10, 69, 127
2, 49754, Note_off_c, 0, 48, 127
2, 49756, Note_on_c, 2, 50, 127
2, 49926, Note_off_c, 2, 50, 127
2, 49926, Note_off_c, 10, 69, 127
2, 49928, Note_on_c, 0, 48, 127
2, 49928, Note_on_c, 4, 76, 127
2, 50098, Note_off_c, 0, 48, 127
2, 50100, Note_on_c, 12, 47, 127
2, 50270, Note_off_c, 12, 47, 127
2, 50270, Note_off_c, 4, 76, 127
2, 50272, Note_on_c, 10, 45, 127
2, 50272, Note_on_c, 2, 74, 127
2, 50442, Note_off_c, 10, 45, 127
2, 50444, Note_on_c, 7, 43, 127
2, 50614, Note_off_c, 7, 43, 127
2, 50614, Note_off_c, 2, 74, 127
2, 50616, Note_on_c, 6, 42, 127
2, 50616, Note_on_c, 0, 72, 127
2, 50786, Note_off_c, 6, 42, 127
2, 50788, Note_on_c, 4, 40, 127
2, 50958, Note_off_c, 4, 40, 127
2, 50958, Note_off_c, 0, 72, 127
2, 50960, Note_on_c, 2, 38, 127
2, 50960, Note_on_c, 12, 71, 127
2, 51130, Note_off_c, 2, 38, 127
2, 51132, Note_on_c, 0, 48, 127
2, 51302, Note_off_c, 0, 48, 127
2, 51302, Note_off_c, 12, 71, 127
2, 51304, Note_on_c, 12, 47, 127
2, 51304, Note_on_c, 10, 69, 127
2, 51474, Note_off_c, 12, 47, 127
2, 51476, Note_on_c, 10, 45, 127
2, 51646, Note_off_c, 10, 45, 127
2, 51646, Note_off_c, 10, 69, 127
2, 51648, Note_on_c, 7, 43, 127
2, 51648, Note_on_c, 12, 71, 127
2, 51818, Note_off_c, 6, 66, 127
2, 51820, Note_on_c, 2, 62, 127
2, 51990, Note_off_c, 2, 62, 127
2, 51990, Note_off_c, 7, 43, 127
2, 51992, Note_on_c, 12, 47, 127
2, 51992, Note_on_c, 4, 64, 127
2, 52162, Note_off_c, 4, 64, 127
2, 52164, Note_on_c, 6, 66, 127
2, 52329, Note_off_c, 12, 71, 127
2, 52334, Note_off_c, 6, 66, 127
2, 52334, Note_off_c, 12, 47, 127
2, 52336, Note_on_c, 2, 50, 127
2, 52336, Note_on_c, 7, 67, 127
2, 52506, Note_off_c, 7, 67, 127
2, 52508, Note_on_c, 6, 66, 127
2, 52678, Note_off_c, 6, 66, 127
2, 52678, Note_off_c, 2, 50, 127
2, 52680, Note_on_c, 6, 54, 127
2, 52680, Note_on_c, 7, 67, 127
2, 52850, Note_off_c, 7, 67, 127
2, 52852, Note_on_c, 10, 69, 127
2, 53022, Note_off_c, 10, 69, 127
2, 53022, Note_off_c, 6, 54, 127
2, 53024, Note_on_c, 7, 55, 127
2, 53024, Note_on_c, 12, 71, 127
2, 53024, Note_on_c, 7, 79, 127
2, 53194, Note_off_c, 12, 71, 127
2, 53196, Note_on_c, 0, 72, 127
2, 53366, Note_off_c, 0, 72, 127
2, 53366, Note_off_c, 7, 55, 127
2, 53368, Note_on_c, 12, 59, 127
2, 53368, Note_on_c, 2, 74, 127
2, 53538, Note_off_c, 2, 74, 127
2, 53540, Note_on_c, 12, 71, 127
2, 53710, Note_off_c, 12, 71, 127
2, 53710, Note_off_c, 12, 59, 127
2, 53712, Note_on_c, 0, 60, 127
2, 53712, Note_on_c, 4, 76, 127
2, 53882, Note_off_c, 4, 76, 127
2, 53884, Note_on_c, 2, 74, 127
2, 54054, Note_off_c, 2, 74, 127
2, 54054, Note_off_c, 0, 60, 127
2, 54056, Note_on_c, 10, 57, 127
2, 54056, Note_on_c, 0, 72, 127
2, 54226, Note_off_c, 0, 72, 127
2, 54228, Note_on_c, 12, 71, 127
2, 54398, Note_off_c, 12, 71, 127
2, 54398, Note_off_c, 10, 57, 127
2, 54400, Note_on_c, 2, 62, 127
2, 54400, Note_on_c, 10, 69, 127
2, 54570, Note_off_c, 10, 69, 127
2, 54570, Note_off_c, 7, 79, 127
2, 54572, Note_on_c, 7, 67, 127
2, 54572, Note_on_c, 12, 83, 127
2, 54742, Note_off_c, 12, 83, 127
2, 54742, Note_off_c, 7, 67, 127
2, 54744, Note_on_c, 6, 66, 127
2, 54744, Note_on_c, 10, 81, 127
2, 54914, Note_off_c, 10, 81, 127
2, 54914, Note_off_c, 6, 66, 127
2, 54916, Note_on_c, 4, 64, 127
2, 54916, Note_on_c, 7, 79, 127
2, 55081, Note_off_c, 2, 62, 127
2, 55086, Note_off_c, 7, 79, 127
2, 55086, Note_off_c, 4, 64, 127
2, 55088, Note_on_c, 2, 62, 127
2, 55088, Note_on_c, 6, 78, 127
2, 55258, Note_off_c, 2, 62, 127
2, 55260, Note_on_c, 4, 64, 127
2, 55260, Note_on_c, 0, 72, 127
2, 55430, Note_off_c, 0, 72, 127
2, 55430, Note_off_c, 4, 64, 127
2, 55432, Note_on_c, 2, 62, 127
2, 55432, Note_on_c, 12, 71, 127
2, 55602, Note_off_c, 12, 71, 127
2, 55602, Note_off_c, 2, 62, 127
2, 55604, Note_on_c, 0, 60, 127
2, 55604, Note_on_c, 10, 69, 127
2, 55774, Note_off_c, 10, 69, 127
2, 55774, Note_off_c, 0, 60, 127
2, 55774, Note_off_c, 6, 78, 127
2, 55776, Note_on_c, 12, 59, 127
2, 55776, Note_on_c, 2, 74, 127
2, 55776, Note_on_c, 5, 77, 127
2, 55946, Note_off_c, 2, 74, 127
2, 55948, Note_on_c, 0, 72, 127
2, 56118, Note_off_c, 0, 72, 127
2, 56118, Note_off_c, 12, 59, 127
2, 56120, Note_on_c, 7, 55, 127
2, 56120, Note_on_c, 12, 71, 127
2, 56290, Note_off_c, 12, 71, 127
2, 56292, Note_on_c, 10, 69, 127
2, 56462, Note_off_c, 10, 69, 127
2, 56462, Note_off_c, 7, 55, 127
2, 56464, Note_on_c, 0, 60, 127
2, 56464, Note_on_c, 7, 67, 127
2, 56634, Note_off_c, 7, 67, 127
2, 56634, Note_off_c, 5, 77, 127
2, 56636, Note_on_c, 5, 65, 127
2, 56636, Note_on_c, 10, 81, 127
2, 56806, Note_off_c, 10, 81, 127
2, 56806, Note_off_c, 5, 65, 127
2, 56808, Note_on_c, 4, 64, 127
2, 56808, Note_on_c, 7, 79, 127
2, 56978, Note_off_c, 7, 79, 127
2, 56978, Note_off_c, 4, 64, 127
2, 56980, Note_on_c, 2, 62, 127
2, 56980, Note_on_c, 5, 77, 127
2, 57145, Note_off_c, 0, 60, 127
2, 57150, Note_off_c, 5, 77, 127
2, 57150, Note_off_c, 2, 62, 127
2, 57152, Note_on_c, 0, 60, 127
2, 57152, Note_on_c, 4, 76, 127
2, 57322, Note_off_c, 0, 60, 127
2, 57324, Note_on_c, 2, 62, 127
2, 57324, Note_on_c, 12, 71, 127
2, 57494, Note_off_c, 12, 71, 127
2, 57494, Note_off_c, 2, 62, 127
2, 57496, Note_on_c, 0, 60, 127
2, 57496, Note_on_c, 10, 69, 127
2, 57666, Note_off_c, 10, 69, 127
2, 57666, Note_off_c, 0, 60, 127
2, 57668, Note_on_c, 12, 59, 127
2, 57668, Note_on_c, 7, 67, 127
2, 57838, Note_off_c, 7, 67, 127
2, 57838, Note_off_c, 12, 59, 127
2, 57840, Note_on_c, 10, 57, 127
2, 57840, Note_on_c, 0, 72, 127
2, 58010, Note_off_c, 0, 72, 127
2, 58012, Note_on_c, 12, 71, 127
2, 58182, Note_off_c, 12, 71, 127
2, 58182, Note_off_c, 10, 57, 127
2, 58184, Note_on_c, 6, 54, 127
2, 58184, Note_on_c, 10, 69, 127
2, 58354, Note_off_c, 10, 69, 127
2, 58356, Note_on_c, 7, 67, 127
2, 58526, Note_off_c, 7, 67, 127
2, 58526, Note_off_c, 6, 54, 127
2, 58528, Note_on_c, 12, 59, 127
2, 58528, Note_on_c, 6, 66, 127
2, 58698, Note_off_c, 6, 66, 127
2, 58698, Note_off_c, 4, 76, 127
2, 58700, Note_on_c, 4, 64, 127
2, 58700, Note_on_c, 7, 79, 127
2, 58870, Note_off_c, 7, 79, 127
2, 58870, Note_off_c, 4, 64, 127
2, 58872, Note_on_c, 2, 62, 127
2, 58872, Note_on_c, 6, 78, 127
2, 59042, Note_off_c, 6, 78, 127
2, 59042, Note_off_c, 2, 62, 127
2, 59044, Note_on_c, 0, 60, 127
2, 59044, Note_on_c, 4, 76, 127
2, 59209, Note_off_c, 12, 59, 127
2, 59214, Note_off_c, 4, 76, 127
2, 59214, Note_off_c, 0, 60, 127
2, 59216, Note_on_c, 12, 59, 127
2, 59216, Note_on_c, 2, 74, 127
2, 59386, Note_off_c, 12, 59, 127
2, 59388, Note_on_c, 0, 60, 127
2, 59388, Note_on_c, 10, 69, 127
2, 59558, Note_off_c, 10, 69, 127
2, 59558, Note_off_c, 0, 60, 127
2, 59560, Note_on_c, 12, 59, 127
2, 59560, Note_on_c, 7, 67, 127
2, 59730, Note_off_c, 7, 67, 127
2, 59730, Note_off_c, 12, 59, 127
2, 59732, Note_on_c, 10, 57, 127
2, 59732, Note_on_c, 6, 66, 127
2, 59902, Note_off_c, 6, 66, 127
2, 59902, Note_off_c, 10, 57, 127
2, 59904, Note_on_c, 7, 55, 127
2, 59904, Note_on_c, 12, 71, 127
2, 60074, Note_off_c, 12, 71, 127
2, 60076, Note_on_c, 10, 69, 127
2, 60246, Note_off_c, 10, 69, 127
2, 60246, Note_off_c, 7, 55, 127
2, 60248, Note_on_c, 4, 52, 127
2, 60248, Note_on_c, 7, 67, 127
2, 60418, Note_off_c, 7, 67, 127
2, 60420, Note_on_c, 6, 66, 127
2, 60590, Note_off_c, 6, 66, 127
2, 60590, Note_off_c, 4, 52, 127
2, 60592, Note_on_c, 10, 57, 127
2, 60592, Note_on_c, 4, 64, 127
2, 60762, Note_off_c, 4, 64, 127
2, 60762, Note_off_c, 2, 74, 127
2, 60764, Note_on_c, 2, 62, 127
2, 60764, Note_on_c, 5, 77, 127
2, 60934, Note_off_c, 5, 77, 127
2, 60934, Note_off_c, 2, 62, 127
2, 60936, Note_on_c, 0, 60, 127
2, 60936, Note_on_c, 4, 76, 127
2, 61106, Note_off_c, 4, 76, 127
2, 61106, Note_off_c, 0, 60, 127
2, 61108, Note_on_c, 12, 59, 127
2, 61108, Note_on_c, 2, 74, 127
2, 61273, Note_off_c, 10, 57, 127
2, 61278, Note_off_c, 2, 74, 127
2, 61278, Note_off_c, 12, 59, 127
2, 61280, Note_on_c, 10, 57, 127
2, 61280, Note_on_c, 0, 72, 127
2, 61450, Note_off_c, 10, 57, 127
2, 61452, Note_on_c, 12, 59, 127
2, 61452, Note_on_c, 7, 67, 127
2, 61622, Note_off_c, 7, 67, 127
2, 61622, Note_off_c, 12, 59, 127
2, 61624, Note_on_c, 10, 57, 127
2, 61624, Note_on_c, 6, 66, 127
2, 61794, Note_off_c, 6, 66, 127
2, 61794, Note_off_c, 10, 57, 127
2, 61796, Note_on_c, 7, 55, 127
2, 61796, Note_on_c, 4, 64, 127
2, 61966, Note_off_c, 4, 64, 127
2, 61966, Note_off_c, 7, 55, 127
2, 61968, Note_on_c, 6, 54, 127
2, 61968, Note_on_c, 2, 62, 127
2, 62138, Note_off_c, 6, 54, 127
2, 62138, Note_off_c, 0, 72, 127
2, 62140, Note_on_c, 4, 52, 127
2, 62140, Note_on_c, 0, 72, 127
2, 62310, Note_off_c, 0, 72, 127
2, 62310, Note_off_c, 4, 52, 127
2, 62312, Note_on_c, 2, 50, 127
2, 62312, Note_on_c, 12, 71, 127
2, 62482, Note_off_c, 12, 71, 127
2, 62482, Note_off_c, 2, 50, 127
2, 62484, Note_on_c, 0, 48, 127
2, 62484, Note_on_c, 10, 69, 127
2, 62649, Note_off_c, 2, 62, 127
2, 62654, Note_off_c, 10, 69, 127
2, 62654, Note_off_c, 0, 48, 127
2, 62656, Note_on_c, 12, 47, 127
2, 62656, Note_on_c, 7, 67, 127
2, 62826, Note_off_c, 7, 67, 127
2, 62826, Note_off_c, 12, 47, 127
2, 62828, Note_on_c, 10, 45, 127
2, 62828, Note_on_c, 6, 66, 127
2, 62998, Note_off_c, 6, 66, 127
2, 62998, Note_off_c, 10, 45, 127
2, 63000, Note_on_c, 7, 43, 127
2, 63000, Note_on_c, 7, 67, 127
2, 63170, Note_off_c, 7, 67, 127
2, 63170, Note_off_c, 7, 43, 127
2, 63172, Note_on_c, 6, 42, 127
2, 63172, Note_on_c, 10, 69, 127
2, 63342, Note_off_c, 10, 69, 127
2, 63342, Note_off_c, 6, 42, 127
2, 63344, Note_on_c, 7, 43, 127
2, 63344, Note_on_c, 7, 67, 127
2, 63344, Note_on_c, 12, 71, 127
2, 63514, Note_off_c, 12, 71, 127
2, 63514, Note_off_c, 7, 43, 127
2, 63516, Note_on_c, 10, 45, 127
2, 63516, Note_on_c, 0, 72, 127
2, 63686, Note_off_c, 0, 72, 127
2, 63686, Note_off_c, 10, 45, 127
2, 63688, Note_on_c, 12, 47, 127
2, 63688, Note_on_c, 2, 74, 127
2, 63858, Note_off_c, 2, 74, 127
2, 63858, Note_off_c, 12, 47, 127
2, 63860, Note_on_c, 7, 43, 127
2, 63860, Note_on_c, 12, 71, 127
2, 64030, Note_off_c, 12, 71, 127
2, 64030, Note_off_c, 7, 43, 127
2, 64032, Note_on_c, 0, 48, 127
2, 64032, Note_on_c, 4, 76, 127
2, 64202, Note_off_c, 4, 76, 127
2, 64202, Note_off_c, 0, 48, 127
2, 64204, Note_on_c, 10, 45, 127
2, 64204, Note_on_c, 2, 74, 127
2, 64374, Note_off_c, 2, 74, 127
2, 64374, Note_off_c, 10, 45, 127
2, 64376, Note_on_c, 12, 47, 127
2, 64376, Note_on_c, 0, 72, 127
2, 64546, Note_off_c, 0, 72, 127
2, 64546, Note_off_c, 12, 47, 127
2, 64548, Note_on_c, 0, 48, 127
2, 64548, Note_on_c, 12, 71, 127
2, 64718, Note_off_c, 12, 71, 127
2, 64718, Note_off_c, 0, 48, 127
2, 64718, Note_off_c, 7, 67, 127
2, 64720, Note_on_c, 2, 50, 127
2, 64720, Note_on_c, 10, 69, 127
2, 64897, Note_on_c, 7, 67, 127
2, 65072, Note_off_c, 7, 67, 127
2, 65072, Note_off_c, 2, 50, 127
2, 65074, Note_on_c, 0, 48, 127
2, 65074, Note_on_c, 6, 66, 127
2, 65249, Note_off_c, 6, 66, 127
2, 65259, Note_on_c, 4, 64, 127
2, 65421, Note_off_c, 10, 69, 127
2, 65434, Note_off_c, 0, 48, 127
2, 65435, Note_off_c, 4, 64, 127
2, 65445, Note_on_c, 2, 62, 127
2, 65445, Note_on_c, 6, 66, 127
2, 65445, Note_on_c, 2, 50, 127
2, 65652, Note_off_c, 2, 62, 127
2, 65654, Note_on_c, 0, 72, 127
2, 65861, Note_off_c, 0, 72, 127
2, 65863, Note_on_c, 12, 71, 127
2, 65863, Note_on_c, 2, 38, 127
2, 66070, Note_off_c, 12, 71, 127
2, 66072, Note_on_c, 10, 69, 127
2, 66280, Note_off_c, 10, 69, 127
2, 66280, Note_off_c, 2, 38, 127
2, 66280, Note_off_c, 2, 50, 127
2, 66280, Note_off_c, 6, 66, 127
2, 66316, Note_on_c, 12, 71, 127
2, 66316, Note_on_c, 7, 43, 127
2, 66316, Note_on_c, 7, 67, 127
2, 68516, Note_off_c, 7, 67, 127
2, 68516, Note_off_c, 7, 43, 127
2, 68516, Note_off_c, 12, 71, 127
2, 73728, End_track
3, 0, Start_track
3, 0, Title_t, "MIDI"
3, 1536, End_track
0, 0, End_of_file
