0, 0, Header, 1, 3, 384
1, 0, Start_track
1, 0, Tempo, 500000
1, 0, Time_signature, 4, 2, 24, 8
1, 84480, End_track
2, 0, Start_track
2, 0, Text_t, "harpsichord: John Sankey"
2, 0, Program_c, 0, 6
2, 0, Pitch_bend_c, 0, 8192
2, 0, Program_c, 1, 6
2, 0, Pitch_bend_c, 1, 7792
2, 0, Program_c, 2, 6
2, 0, Pitch_bend_c, 2, 7876
2, 0, Program_c, 3, 6
2, 0, Pitch_bend_c, 3, 7952
2, 0, Program_c, 4, 6
2, 0, Pitch_bend_c, 4, 7792
2, 0, Program_c, 5, 6
2, 0, Pitch_bend_c, 5, 8112
2, 0, Program_c, 6, 6
2, 0, Pitch_bend_c, 6, 7712
2, 0, Program_c, 7, 6
2, 0, Pitch_bend_c, 7, 8037
2, 0, Program_c, 8, 6
2, 0, Pitch_bend_c, 8, 7872
2, 0, Program_c, 10, 6
2, 0, Pitch_bend_c, 10, 7712
2, 0, Program_c, 11, 6
2, 0, Pitch_bend_c, 11, 8032
2, 0, Program_c, 12, 6
2, 0, Pitch_bend_c, 12, 7872
2, 0, Title_t, "Track 1"
2, 48, Note_on_c, 7, 55, 127
2, 228, Note_on_c, 2, 74, 127
2, 406, Note_off_c, 2, 74, 127
2, 408, Note_on_c, 11, 70, 127
2, 586, Note_off_c, 11, 70, 127
2, 588, Note_on_c, 7, 67, 127
2, 766, Note_off_c, 7, 67, 127
2, 766, Note_off_c, 7, 55, 127
2, 768, Note_on_c, 3, 51, 127
2, 768, Note_on_c, 7, 79, 127
2, 1126, Note_off_c, 7, 79, 127
2, 1126, Note_off_c, 3, 51, 127
2, 1128, Note_on_c, 2, 50, 127
2, 1128, Note_on_c, 5, 77, 127
2, 1308, Note_on_c, 10, 69, 127
2, 1486, Note_off_c, 10, 69, 127
2, 1488, Note_on_c, 5, 65, 127
2, 1666, Note_off_c, 5, 65, 127
2, 1668, Note_on_c, 2, 62, 127
2, 1846, Note_off_c, 2, 62, 127
2, 1846, Note_off_c, 2, 50, 127
2, 1848, Note_on_c, 11, 58, 127
2, 1848, Note_on_c, 2, 74, 127
2, 2206, Note_off_c, 11, 58, 127
2, 2206, Note_off_c, 5, 77, 127
2, 2208, Note_on_c, 7, 55, 127
2, 2208, Note_on_c, 3, 75, 127
2, 2678, Note_off_c, 2, 74, 127
2, 2748, Note_on_c, 11, 70, 127
2, 2926, Note_off_c, 11, 70, 127
2, 2926, Note_off_c, 7, 55, 127
2, 2928, Note_on_c, 10, 57, 127
2, 2928, Note_on_c, 0, 72, 127
2, 3286, Note_off_c, 10, 57, 127
2, 3286, Note_off_c, 3, 75, 127
2, 3288, Note_on_c, 11, 58, 127
2, 3288, Note_on_c, 2, 74, 127
2, 3466, Note_off_c, 11, 58, 127
2, 3468, Note_on_c, 2, 62, 127
2, 3646, Note_off_c, 2, 62, 127
2, 3648, Note_on_c, 11, 58, 127
2, 3826, Note_off_c, 11, 58, 127
2, 3826, Note_off_c, 0, 72, 127
2, 3828, Note_on_c, 7, 55, 127
2, 3828, Note_on_c, 10, 69, 127
2, 4006, Note_off_c, 10, 69, 127
2, 4006, Note_off_c, 7, 55, 127
2, 4008, Note_on_c, 7, 67, 127
2, 4008, Note_on_c, 11, 70, 127
2, 4366, Note_off_c, 11, 70, 127
2, 4366, Note_off_c, 2, 74, 127
2, 4368, Note_on_c, 10, 69, 127
2, 4368, Note_on_c, 0, 72, 127
2, 4904, Note_off_c, 7, 67, 127
2, 4908, Note_on_c, 4, 64, 127
2, 5086, Note_off_c, 4, 64, 127
2, 5086, Note_off_c, 0, 72, 127
2, 5088, Note_on_c, 6, 66, 127
2, 5088, Note_on_c, 2, 74, 127
2, 5446, Note_off_c, 2, 74, 127
2, 5446, Note_off_c, 6, 66, 127
2, 5446, Note_off_c, 10, 69, 127
2, 5448, Note_on_c, 7, 67, 127
2, 5448, Note_on_c, 11, 70, 127
2, 5626, Note_off_c, 7, 67, 127
2, 5628, Note_on_c, 6, 66, 127
2, 5806, Note_off_c, 6, 66, 127
2, 5808, Note_on_c, 7, 67, 127
2, 5986, Note_off_c, 11, 70, 127
2, 5988, Note_on_c, 11, 70, 127
2, 6166, Note_off_c, 11, 70, 127
2, 6168, Note_on_c, 0, 60, 127
2, 6168, Note_on_c, 3, 75, 127
2, 6526, Note_off_c, 3, 75, 127
2, 6526, Note_off_c, 0, 60, 127
2, 6528, Note_on_c, 2, 62, 127
2, 6528, Note_on_c, 10, 69, 127
2, 7066, Note_off_c, 10, 69, 127
2, 7068, Note_on_c, 11, 70, 127
2, 7246, Note_off_c, 11, 70, 127
2, 7246, Note_off_c, 2, 62, 127
2, 7246, Note_off_c, 7, 67, 127
2, 7248, Note_on_c, 2, 50, 127
2, 7248, Note_on_c, 6, 66, 127
2, 7248, Note_on_c, 0, 72, 127
2, 7606, Note_off_c, 0, 72, 127
2, 7606, Note_off_c, 6, 66, 127
2, 7606, Note_off_c, 2, 50, 127
2, 7608, Note_on_c, 7, 55, 127
2, 7608, Note_on_c, 7, 67, 127
2, 7608, Note_on_c, 11, 70, 127
2, 7786, Note_off_c, 7, 55, 127
2, 7788, Note_on_c, 2, 50, 127
2, 7966, Note_off_c, 2, 50, 127
2, 7968, Note_on_c, 11, 46, 127
2, 8146, Note_off_c, 11, 46, 127
2, 8148, Note_on_c, 7, 43, 127
2, 8326, Note_off_c, 7, 43, 127
2, 8328, Note_on_c, 7, 55, 127
2, 8686, Note_off_c, 7, 55, 127
2, 8686, Note_off_c, 11, 70, 127
2, 8686, Note_off_c, 7, 67, 127
2, 8688, Note_on_c, 5, 53, 127
2, 8688, Note_on_c, 0, 72, 127
2, 8791, Note_off_c, 0, 72, 127
2, 8793, Note_on_c, 12, 71, 127
2, 8868, Note_on_c, 2, 62, 127
2, 8896, Note_off_c, 12, 71, 127
2, 8898, Note_on_c, 0, 72, 127
2, 9005, Note_off_c, 0, 72, 127
2, 9007, Note_on_c, 12, 71, 127
2, 9046, Note_off_c, 2, 62, 127
2, 9048, Note_on_c, 12, 59, 127
2, 9114, Note_off_c, 12, 71, 127
2, 9116, Note_on_c, 0, 72, 127
2, 9223, Note_off_c, 0, 72, 127
2, 9225, Note_on_c, 12, 71, 127
2, 9227, Note_off_c, 12, 59, 127
2, 9229, Note_on_c, 7, 55, 127
2, 9332, Note_off_c, 12, 71, 127
2, 9334, Note_on_c, 0, 72, 127
2, 9407, Note_off_c, 7, 55, 127
2, 9409, Note_on_c, 7, 67, 127
2, 9441, Note_off_c, 0, 72, 127
2, 9443, Note_on_c, 12, 71, 127
2, 9550, Note_off_c, 12, 71, 127
2, 9552, Note_on_c, 10, 69, 127
2, 9659, Note_off_c, 10, 69, 127
2, 9661, Note_on_c, 12, 71, 127
2, 9768, Note_off_c, 12, 71, 127
2, 9768, Note_off_c, 5, 53, 127
2, 9770, Note_on_c, 3, 51, 127
2, 9770, Note_on_c, 0, 72, 127
2, 9948, Note_off_c, 3, 51, 127
2, 9950, Note_on_c, 7, 55, 127
2, 10128, Note_off_c, 7, 55, 127
2, 10130, Note_on_c, 3, 51, 127
2, 10308, Note_off_c, 3, 51, 127
2, 10308, Note_off_c, 0, 72, 127
2, 10310, Note_on_c, 0, 48, 127
2, 10310, Note_on_c, 2, 74, 127
2, 10488, Note_off_c, 2, 74, 127
2, 10488, Note_off_c, 0, 48, 127
2, 10490, Note_on_c, 0, 60, 127
2, 10490, Note_on_c, 3, 75, 127
2, 10848, Note_off_c, 7, 67, 127
2, 10850, Note_on_c, 5, 65, 127
2, 11028, Note_off_c, 3, 75, 127
2, 11030, Note_on_c, 2, 74, 127
2, 11208, Note_off_c, 2, 74, 127
2, 11210, Note_on_c, 12, 71, 127
2, 11388, Note_off_c, 12, 71, 127
2, 11390, Note_on_c, 7, 67, 127
2, 11568, Note_off_c, 7, 67, 127
2, 11568, Note_off_c, 5, 65, 127
2, 11568, Note_off_c, 0, 60, 127
2, 11570, Note_on_c, 12, 59, 127
2, 11570, Note_on_c, 2, 62, 127
2, 11570, Note_on_c, 5, 77, 127
2, 11926, Note_off_c, 2, 62, 127
2, 11928, Note_off_c, 5, 77, 127
2, 11928, Note_off_c, 12, 59, 127
2, 11930, Note_on_c, 0, 60, 127
2, 11930, Note_on_c, 3, 75, 127
2, 12110, Note_on_c, 7, 67, 127
2, 12288, Note_off_c, 7, 67, 127
2, 12290, Note_on_c, 3, 63, 127
2, 12455, Note_off_c, 0, 60, 127
2, 12468, Note_off_c, 3, 63, 127
2, 12470, Note_on_c, 0, 60, 127
2, 12648, Note_off_c, 0, 60, 127
2, 12650, Note_on_c, 11, 70, 127
2, 13008, Note_off_c, 11, 70, 127
2, 13010, Note_on_c, 10, 69, 127
2, 13190, Note_on_c, 0, 60, 127
2, 13368, Note_off_c, 0, 60, 127
2, 13370, Note_on_c, 10, 57, 127
2, 13548, Note_off_c, 10, 57, 127
2, 13548, Note_off_c, 3, 75, 127
2, 13550, Note_on_c, 5, 53, 127
2, 13550, Note_on_c, 2, 74, 127
2, 13728, Note_off_c, 2, 74, 127
2, 13728, Note_off_c, 5, 53, 127
2, 13730, Note_on_c, 3, 63, 127
2, 13730, Note_on_c, 0, 72, 127
2, 14088, Note_off_c, 3, 63, 127
2, 14088, Note_off_c, 10, 69, 127
2, 14090, Note_on_c, 2, 62, 127
2, 14090, Note_on_c, 5, 65, 127
2, 14268, Note_off_c, 0, 72, 127
2, 14270, Note_on_c, 5, 77, 127
2, 14448, Note_off_c, 5, 77, 127
2, 14450, Note_on_c, 2, 74, 127
2, 14615, Note_off_c, 5, 65, 127
2, 14628, Note_off_c, 2, 74, 127
2, 14628, Note_off_c, 2, 62, 127
2, 14630, Note_on_c, 7, 67, 127
2, 14630, Note_on_c, 11, 70, 127
2, 14808, Note_off_c, 7, 67, 127
2, 14810, Note_on_c, 3, 63, 127
2, 14810, Note_on_c, 11, 82, 127
2, 15168, Note_off_c, 11, 82, 127
2, 15168, Note_off_c, 3, 63, 127
2, 15170, Note_on_c, 5, 65, 127
2, 15170, Note_on_c, 2, 74, 127
2, 15708, Note_off_c, 2, 74, 127
2, 15710, Note_on_c, 3, 75, 127
2, 15888, Note_off_c, 3, 75, 127
2, 15888, Note_off_c, 5, 65, 127
2, 15890, Note_on_c, 5, 53, 127
2, 15890, Note_on_c, 10, 69, 127
2, 15890, Note_on_c, 0, 72, 127
2, 15892, Note_off_c, 11, 70, 127
2, 16246, Note_off_c, 0, 72, 127
2, 16248, Note_off_c, 10, 69, 127
2, 16248, Note_off_c, 5, 53, 127
2, 16250, Note_on_c, 11, 58, 127
2, 16250, Note_on_c, 11, 70, 127
2, 16428, Note_off_c, 11, 58, 127
2, 16430, Note_on_c, 5, 53, 127
2, 16608, Note_off_c, 5, 53, 127
2, 16610, Note_on_c, 2, 50, 127
2, 16788, Note_off_c, 2, 50, 127
2, 16790, Note_on_c, 11, 46, 127
2, 16968, Note_off_c, 11, 46, 127
2, 16970, Note_on_c, 8, 56, 127
2, 17328, Note_off_c, 8, 56, 127
2, 17330, Note_on_c, 7, 55, 127
2, 17330, Note_on_c, 11, 82, 127
2, 17508, Note_off_c, 11, 70, 127
2, 17510, Note_on_c, 2, 62, 127
2, 17688, Note_off_c, 2, 62, 127
2, 17690, Note_on_c, 11, 58, 127
2, 17855, Note_off_c, 7, 55, 127
2, 17868, Note_off_c, 11, 58, 127
2, 17870, Note_on_c, 7, 55, 127
2, 18050, Note_on_c, 5, 65, 127
2, 18395, Note_off_c, 7, 55, 127
2, 18408, Note_off_c, 5, 65, 127
2, 18410, Note_on_c, 0, 60, 127
2, 18410, Note_on_c, 3, 63, 127
2, 18588, Note_off_c, 11, 82, 127
2, 18590, Note_on_c, 7, 79, 127
2, 18768, Note_off_c, 7, 79, 127
2, 18768, Note_off_c, 0, 60, 127
2, 18770, Note_on_c, 11, 58, 127
2, 18770, Note_on_c, 3, 75, 127
2, 18948, Note_off_c, 3, 75, 127
2, 18950, Note_on_c, 0, 72, 127
2, 19128, Note_off_c, 0, 72, 127
2, 19128, Note_off_c, 11, 58, 127
2, 19130, Note_on_c, 0, 60, 127
2, 19130, Note_on_c, 11, 82, 127
2, 19488, Note_off_c, 11, 82, 127
2, 19488, Note_off_c, 0, 60, 127
2, 19490, Note_on_c, 5, 53, 127
2, 19490, Note_on_c, 10, 81, 127
2, 19668, Note_off_c, 3, 63, 127
2, 19670, Note_on_c, 3, 63, 127
2, 19848, Note_off_c, 3, 63, 127
2, 19850, Note_on_c, 0, 60, 127
2, 20028, Note_off_c, 0, 60, 127
2, 20030, Note_on_c, 10, 57, 127
2, 20208, Note_off_c, 10, 57, 127
2, 20210, Note_on_c, 5, 65, 127
2, 20568, Note_off_c, 5, 65, 127
2, 20568, Note_off_c, 5, 53, 127
2, 20570, Note_on_c, 11, 58, 127
2, 20570, Note_on_c, 2, 62, 127
2, 20748, Note_off_c, 10, 81, 127
2, 20750, Note_on_c, 5, 77, 127
2, 20928, Note_off_c, 5, 77, 127
2, 20928, Note_off_c, 11, 58, 127
2, 20930, Note_on_c, 10, 57, 127
2, 20930, Note_on_c, 2, 74, 127
2, 21108, Note_off_c, 2, 74, 127
2, 21110, Note_on_c, 11, 70, 127
2, 21288, Note_off_c, 11, 70, 127
2, 21288, Note_off_c, 10, 57, 127
2, 21290, Note_on_c, 11, 58, 127
2, 21290, Note_on_c, 11, 82, 127
2, 21648, Note_off_c, 11, 82, 127
2, 21648, Note_off_c, 11, 58, 127
2, 21650, Note_on_c, 4, 52, 127
2, 21650, Note_on_c, 7, 79, 127
2, 21828, Note_off_c, 2, 62, 127
2, 21830, Note_on_c, 2, 62, 127
2, 22008, Note_off_c, 2, 62, 127
2, 22010, Note_on_c, 11, 58, 127
2, 22188, Note_off_c, 11, 58, 127
2, 22190, Note_on_c, 7, 55, 127
2, 22368, Note_off_c, 7, 55, 127
2, 22370, Note_on_c, 4, 64, 127
2, 22728, Note_off_c, 4, 64, 127
2, 22728, Note_off_c, 4, 52, 127
2, 22730, Note_on_c, 5, 53, 127
2, 22730, Note_on_c, 1, 61, 127
2, 22908, Note_off_c, 7, 79, 127
2, 22910, Note_on_c, 4, 76, 127
2, 23088, Note_off_c, 4, 76, 127
2, 23088, Note_off_c, 1, 61, 127
2, 23090, Note_on_c, 10, 57, 127
2, 23090, Note_on_c, 1, 73, 127
2, 23268, Note_off_c, 1, 73, 127
2, 23270, Note_on_c, 10, 69, 127
2, 23448, Note_off_c, 10, 69, 127
2, 23448, Note_off_c, 10, 57, 127
2, 23450, Note_on_c, 2, 62, 127
2, 23450, Note_on_c, 5, 77, 127
2, 23808, Note_off_c, 5, 53, 127
2, 23810, Note_on_c, 7, 55, 127
2, 23988, Note_off_c, 5, 77, 127
2, 23990, Note_on_c, 2, 74, 127
2, 24168, Note_off_c, 2, 74, 127
2, 24168, Note_off_c, 7, 55, 127
2, 24168, Note_off_c, 2, 62, 127
2, 24170, Note_on_c, 10, 57, 127
2, 24170, Note_on_c, 1, 61, 127
2, 24170, Note_on_c, 11, 70, 127
2, 24348, Note_off_c, 11, 70, 127
2, 24350, Note_on_c, 7, 67, 127
2, 24528, Note_off_c, 7, 67, 127
2, 24528, Note_off_c, 1, 61, 127
2, 24528, Note_off_c, 10, 57, 127
2, 24530, Note_on_c, 11, 58, 127
2, 24530, Note_on_c, 2, 62, 127
2, 24530, Note_on_c, 4, 76, 127
2, 24888, Note_off_c, 2, 62, 127
2, 24888, Note_off_c, 11, 58, 127
2, 24890, Note_on_c, 10, 57, 127
2, 24890, Note_on_c, 2, 62, 127
2, 24978, Note_off_c, 2, 62, 127
2, 24980, Note_on_c, 1, 61, 127
2, 25068, Note_off_c, 1, 61, 127
2, 25068, Note_off_c, 4, 76, 127
2, 25070, Note_on_c, 2, 62, 127
2, 25070, Note_on_c, 7, 67, 127
2, 25158, Note_off_c, 2, 62, 127
2, 25160, Note_on_c, 1, 61, 127
2, 25248, Note_off_c, 7, 67, 127
2, 25250, Note_on_c, 11, 70, 127
2, 25428, Note_off_c, 11, 70, 127
2, 25430, Note_on_c, 4, 76, 127
2, 25608, Note_off_c, 4, 76, 127
2, 25608, Note_off_c, 1, 61, 127
2, 25610, Note_on_c, 2, 62, 127
2, 25610, Note_on_c, 5, 65, 127
2, 25788, Note_off_c, 5, 65, 127
2, 25790, Note_on_c, 2, 74, 127
2, 25968, Note_off_c, 2, 62, 127
2, 25968, Note_off_c, 10, 57, 127
2, 25970, Note_on_c, 10, 57, 127
2, 25970, Note_on_c, 4, 64, 127
2, 26148, Note_off_c, 2, 74, 127
2, 26150, Note_on_c, 1, 73, 127
2, 26328, Note_off_c, 1, 73, 127
2, 26330, Note_on_c, 4, 76, 127
2, 26508, Note_off_c, 4, 76, 127
2, 26510, Note_on_c, 7, 79, 127
2, 26688, Note_off_c, 7, 79, 127
2, 26688, Note_off_c, 4, 64, 127
2, 26690, Note_on_c, 5, 65, 127
2, 26690, Note_on_c, 2, 74, 127
2, 26868, Note_off_c, 2, 74, 127
2, 26870, Note_on_c, 5, 77, 127
2, 27048, Note_off_c, 5, 65, 127
2, 27048, Note_off_c, 10, 57, 127
2, 27050, Note_on_c, 10, 57, 127
2, 27050, Note_on_c, 7, 67, 127
2, 27228, Note_off_c, 5, 77, 127
2, 27230, Note_on_c, 4, 76, 127
2, 27408, Note_off_c, 4, 76, 127
2, 27410, Note_on_c, 7, 79, 127
2, 27588, Note_off_c, 7, 79, 127
2, 27590, Note_on_c, 11, 82, 127
2, 27768, Note_off_c, 11, 82, 127
2, 27768, Note_off_c, 7, 67, 127
2, 27770, Note_on_c, 5, 65, 127
2, 27770, Note_on_c, 2, 74, 127
2, 27948, Note_off_c, 2, 74, 127
2, 27950, Note_on_c, 10, 81, 127
2, 28128, Note_off_c, 5, 65, 127
2, 28128, Note_off_c, 10, 57, 127
2, 28130, Note_on_c, 10, 57, 127
2, 28130, Note_on_c, 4, 64, 127
2, 28308, Note_off_c, 10, 81, 127
2, 28310, Note_on_c, 1, 73, 127
2, 28488, Note_off_c, 1, 73, 127
2, 28490, Note_on_c, 4, 76, 127
2, 28668, Note_off_c, 4, 76, 127
2, 28670, Note_on_c, 7, 79, 127
2, 28848, Note_off_c, 7, 79, 127
2, 28848, Note_off_c, 4, 64, 127
2, 28850, Note_on_c, 2, 62, 127
2, 28850, Note_on_c, 12, 71, 127
2, 29028, Note_off_c, 12, 71, 127
2, 29030, Note_on_c, 5, 77, 127
2, 29208, Note_off_c, 2, 62, 127
2, 29208, Note_off_c, 10, 57, 127
2, 29210, Note_on_c, 10, 57, 127
2, 29210, Note_on_c, 1, 61, 127
2, 29328, Note_off_c, 1, 61, 127
2, 29330, Note_on_c, 2, 62, 127
2, 29388, Note_off_c, 5, 77, 127
2, 29390, Note_on_c, 10, 69, 127
2, 29448, Note_off_c, 2, 62, 127
2, 29450, Note_on_c, 1, 61, 127
2, 29568, Note_off_c, 10, 69, 127
2, 29570, Note_on_c, 1, 73, 127
2, 29748, Note_off_c, 1, 73, 127
2, 29750, Note_on_c, 4, 76, 127
2, 29915, Note_off_c, 1, 61, 127
2, 29928, Note_off_c, 4, 76, 127
2, 29930, Note_on_c, 12, 59, 127
2, 29930, Note_on_c, 8, 68, 127
2, 30108, Note_off_c, 8, 68, 127
2, 30110, Note_on_c, 2, 74, 127
2, 30288, Note_off_c, 2, 74, 127
2, 30288, Note_off_c, 12, 59, 127
2, 30288, Note_off_c, 10, 57, 127
2, 30290, Note_on_c, 10, 57, 127
2, 30290, Note_on_c, 1, 73, 127
2, 30468, Note_off_c, 1, 73, 127
2, 30470, Note_on_c, 4, 76, 127
2, 30648, Note_off_c, 4, 76, 127
2, 30650, Note_on_c, 1, 73, 127
2, 30815, Note_off_c, 10, 57, 127
2, 30828, Note_off_c, 1, 73, 127
2, 30830, Note_on_c, 7, 55, 127
2, 30830, Note_on_c, 10, 69, 127
2, 31008, Note_off_c, 10, 69, 127
2, 31008, Note_off_c, 7, 55, 127
2, 31010, Note_on_c, 5, 53, 127
2, 31010, Note_on_c, 7, 79, 127
2, 31188, Note_off_c, 5, 53, 127
2, 31190, Note_on_c, 4, 52, 127
2, 31368, Note_off_c, 4, 52, 127
2, 31368, Note_off_c, 7, 79, 127
2, 31370, Note_on_c, 2, 50, 127
2, 31370, Note_on_c, 5, 77, 127
2, 31550, Note_on_c, 10, 69, 127
2, 31728, Note_off_c, 10, 69, 127
2, 31730, Note_on_c, 5, 65, 127
2, 31908, Note_off_c, 5, 65, 127
2, 31910, Note_on_c, 2, 62, 127
2, 32088, Note_off_c, 2, 62, 127
2, 32088, Note_off_c, 2, 50, 127
2, 32090, Note_on_c, 11, 46, 127
2, 32090, Note_on_c, 2, 74, 127
2, 32448, Note_off_c, 11, 46, 127
2, 32448, Note_off_c, 5, 77, 127
2, 32450, Note_on_c, 7, 43, 127
2, 32450, Note_on_c, 3, 75, 127
2, 32988, Note_off_c, 2, 74, 127
2, 32990, Note_on_c, 11, 70, 127
2, 33168, Note_off_c, 11, 70, 127
2, 33168, Note_off_c, 7, 43, 127
2, 33170, Note_on_c, 10, 45, 127
2, 33170, Note_on_c, 0, 72, 127
2, 33528, Note_off_c, 10, 45, 127
2, 33528, Note_off_c, 3, 75, 127
2, 33530, Note_on_c, 11, 46, 127
2, 33530, Note_on_c, 2, 74, 127
2, 33708, Note_off_c, 11, 46, 127
2, 33710, Note_on_c, 2, 50, 127
2, 33888, Note_off_c, 2, 50, 127
2, 33890, Note_on_c, 11, 46, 127
2, 34068, Note_off_c, 11, 46, 127
2, 34068, Note_off_c, 0, 72, 127
2, 34070, Note_on_c, 7, 43, 127
2, 34070, Note_on_c, 10, 69, 127
2, 34248, Note_off_c, 10, 69, 127
2, 34248, Note_off_c, 7, 43, 127
2, 34250, Note_on_c, 7, 55, 127
2, 34250, Note_on_c, 11, 70, 127
2, 34608, Note_off_c, 11, 70, 127
2, 34608, Note_off_c, 7, 55, 127
2, 34610, Note_on_c, 4, 52, 127
2, 34610, Note_on_c, 7, 67, 127
2, 34788, Note_off_c, 2, 74, 127
2, 34790, Note_on_c, 1, 73, 127
2, 34968, Note_off_c, 1, 73, 127
2, 34970, Note_on_c, 4, 76, 127
2, 35148, Note_off_c, 4, 76, 127
2, 35148, Note_off_c, 4, 52, 127
2, 35150, Note_on_c, 4, 64, 127
2, 35150, Note_on_c, 7, 79, 127
2, 35328, Note_off_c, 7, 79, 127
2, 35328, Note_off_c, 4, 64, 127
2, 35328, Note_off_c, 7, 67, 127
2, 35330, Note_on_c, 2, 62, 127
2, 35330, Note_on_c, 5, 65, 127
2, 35330, Note_on_c, 11, 82, 127
2, 35686, Note_off_c, 5, 65, 127
2, 35688, Note_off_c, 11, 82, 127
2, 35688, Note_off_c, 2, 62, 127
2, 35690, Note_on_c, 1, 61, 127
2, 35690, Note_on_c, 10, 81, 127
2, 35870, Note_on_c, 4, 64, 127
2, 36046, Note_off_c, 1, 61, 127
2, 36048, Note_off_c, 4, 64, 127
2, 36050, Note_on_c, 1, 61, 127
2, 36228, Note_off_c, 10, 81, 127
2, 36230, Note_on_c, 10, 57, 127
2, 36230, Note_on_c, 4, 76, 127
2, 36406, Note_off_c, 1, 61, 127
2, 36408, Note_off_c, 4, 76, 127
2, 36408, Note_off_c, 10, 57, 127
2, 36410, Note_on_c, 2, 62, 127
2, 36410, Note_on_c, 5, 77, 127
2, 36768, Note_off_c, 5, 77, 127
2, 36768, Note_off_c, 2, 62, 127
2, 36770, Note_on_c, 11, 58, 127
2, 36770, Note_on_c, 5, 65, 127
2, 36770, Note_on_c, 2, 74, 127
2, 37128, Note_off_c, 11, 58, 127
2, 37130, Note_on_c, 7, 55, 127
2, 37308, Note_off_c, 2, 74, 127
2, 37308, Note_off_c, 5, 65, 127
2, 37310, Note_on_c, 7, 67, 127
2, 37310, Note_on_c, 4, 76, 127
2, 37488, Note_off_c, 4, 76, 127
2, 37488, Note_off_c, 7, 67, 127
2, 37488, Note_off_c, 7, 55, 127
2, 37490, Note_on_c, 10, 57, 127
2, 37490, Note_on_c, 4, 64, 127
2, 37490, Note_on_c, 1, 73, 127
2, 37848, Note_off_c, 1, 73, 127
2, 37848, Note_off_c, 4, 64, 127
2, 37848, Note_off_c, 10, 57, 127
2, 37850, Note_on_c, 2, 50, 127
2, 37850, Note_on_c, 2, 62, 127
2, 37850, Note_on_c, 2, 74, 127
2, 38030, Note_on_c, 2, 38, 127
2, 38206, Note_off_c, 2, 50, 127
2, 38208, Note_off_c, 2, 38, 127
2, 38210, Note_on_c, 5, 41, 127
2, 38388, Note_off_c, 5, 41, 127
2, 38390, Note_on_c, 10, 45, 127
2, 38525, Note_off_c, 2, 62, 127
2, 38568, Note_off_c, 10, 45, 127
2, 38568, Note_off_c, 2, 74, 127
2, 38570, Note_on_c, 2, 50, 127
2, 38570, Note_on_c, 5, 77, 127
2, 38748, Note_off_c, 2, 50, 127
2, 38750, Note_on_c, 0, 48, 127
2, 38928, Note_off_c, 0, 48, 127
2, 38928, Note_off_c, 5, 77, 127
2, 38930, Note_on_c, 12, 47, 127
2, 38930, Note_on_c, 5, 77, 127
2, 39108, Note_off_c, 12, 47, 127
2, 39110, Note_on_c, 7, 43, 127
2, 39288, Note_off_c, 7, 43, 127
2, 39290, Note_on_c, 12, 47, 127
2, 39468, Note_off_c, 12, 47, 127
2, 39470, Note_on_c, 2, 50, 127
2, 39470, Note_on_c, 2, 74, 127
2, 39648, Note_off_c, 2, 74, 127
2, 39648, Note_off_c, 2, 50, 127
2, 39650, Note_on_c, 7, 55, 127
2, 39650, Note_on_c, 12, 71, 127
2, 39828, Note_off_c, 7, 55, 127
2, 39830, Note_on_c, 5, 53, 127
2, 40008, Note_off_c, 5, 53, 127
2, 40008, Note_off_c, 12, 71, 127
2, 40010, Note_on_c, 3, 51, 127
2, 40010, Note_on_c, 7, 67, 127
2, 40188, Note_off_c, 3, 51, 127
2, 40190, Note_on_c, 0, 48, 127
2, 40368, Note_off_c, 0, 48, 127
2, 40370, Note_on_c, 3, 51, 127
2, 40548, Note_off_c, 3, 51, 127
2, 40548, Note_off_c, 7, 67, 127
2, 40548, Note_off_c, 5, 77, 127
2, 40550, Note_on_c, 7, 55, 127
2, 40550, Note_on_c, 12, 71, 127
2, 40550, Note_on_c, 2, 74, 127
2, 40728, Note_off_c, 2, 74, 127
2, 40728, Note_off_c, 12, 71, 127
2, 40728, Note_off_c, 7, 55, 127
2, 40730, Note_on_c, 0, 60, 127
2, 40730, Note_on_c, 0, 72, 127
2, 40730, Note_on_c, 3, 75, 127
2, 40908, Note_off_c, 0, 60, 127
2, 40910, Note_on_c, 11, 58, 127
2, 41088, Note_off_c, 11, 58, 127
2, 41088, Note_off_c, 3, 75, 127
2, 41088, Note_off_c, 0, 72, 127
2, 41090, Note_on_c, 10, 57, 127
2, 41090, Note_on_c, 0, 72, 127
2, 41090, Note_on_c, 3, 75, 127
2, 41268, Note_off_c, 10, 57, 127
2, 41270, Note_on_c, 5, 53, 127
2, 41448, Note_off_c, 5, 53, 127
2, 41450, Note_on_c, 10, 57, 127
2, 41628, Note_off_c, 10, 57, 127
2, 41630, Note_on_c, 0, 60, 127
2, 41808, Note_off_c, 0, 60, 127
2, 41810, Note_on_c, 5, 65, 127
2, 41988, Note_off_c, 5, 65, 127
2, 41990, Note_on_c, 3, 63, 127
2, 42168, Note_off_c, 3, 63, 127
2, 42170, Note_on_c, 2, 62, 127
2, 42348, Note_off_c, 2, 62, 127
2, 42350, Note_on_c, 11, 58, 127
2, 42528, Note_off_c, 11, 58, 127
2, 42530, Note_on_c, 2, 62, 127
2, 42708, Note_off_c, 2, 62, 127
2, 42708, Note_off_c, 3, 75, 127
2, 42708, Note_off_c, 0, 72, 127
2, 42710, Note_on_c, 5, 65, 127
2, 42710, Note_on_c, 10, 69, 127
2, 42710, Note_on_c, 0, 72, 127
2, 42888, Note_off_c, 0, 72, 127
2, 42888, Note_off_c, 5, 65, 127
2, 42890, Note_on_c, 11, 70, 127
2, 42890, Note_on_c, 2, 74, 127
2, 42895, Note_off_c, 10, 69, 127
2, 43068, Note_off_c, 11, 70, 127
2, 43070, Note_on_c, 10, 69, 127
2, 43248, Note_off_c, 10, 69, 127
2, 43248, Note_off_c, 2, 74, 127
2, 43250, Note_on_c, 7, 67, 127
2, 43250, Note_on_c, 11, 70, 127
2, 43250, Note_on_c, 2, 74, 127
2, 43428, Note_off_c, 2, 74, 127
2, 43430, Note_on_c, 11, 82, 127
2, 43608, Note_off_c, 11, 82, 127
2, 43610, Note_on_c, 7, 79, 127
2, 43788, Note_off_c, 7, 79, 127
2, 43788, Note_off_c, 11, 70, 127
2, 43790, Note_on_c, 11, 70, 127
2, 43790, Note_on_c, 3, 75, 127
2, 43968, Note_off_c, 3, 75, 127
2, 43968, Note_off_c, 11, 70, 127
2, 43970, Note_on_c, 3, 75, 127
2, 43970, Note_on_c, 0, 84, 127
2, 44328, Note_off_c, 7, 67, 127
2, 44330, Note_on_c, 5, 65, 127
2, 44508, Note_off_c, 0, 84, 127
2, 44510, Note_on_c, 10, 81, 127
2, 44688, Note_off_c, 10, 81, 127
2, 44690, Note_on_c, 5, 77, 127
2, 44868, Note_off_c, 5, 77, 127
2, 44868, Note_off_c, 3, 75, 127
2, 44870, Note_on_c, 10, 69, 127
2, 44870, Note_on_c, 2, 74, 127
2, 45048, Note_off_c, 2, 74, 127
2, 45048, Note_off_c, 10, 69, 127
2, 45050, Note_on_c, 2, 74, 127
2, 45050, Note_on_c, 11, 82, 127
2, 45408, Note_off_c, 5, 65, 127
2, 45410, Note_on_c, 3, 63, 127
2, 45588, Note_off_c, 11, 82, 127
2, 45590, Note_on_c, 7, 79, 127
2, 45768, Note_off_c, 7, 79, 127
2, 45770, Note_on_c, 3, 75, 127
2, 45948, Note_off_c, 3, 75, 127
2, 45948, Note_off_c, 2, 74, 127
2, 45950, Note_on_c, 7, 67, 127
2, 45950, Note_on_c, 0, 72, 127
2, 46128, Note_off_c, 0, 72, 127
2, 46128, Note_off_c, 7, 67, 127
2, 46130, Note_on_c, 0, 72, 127
2, 46130, Note_on_c, 10, 81, 127
2, 46488, Note_off_c, 10, 81, 127
2, 46488, Note_off_c, 3, 63, 127
2, 46490, Note_on_c, 2, 62, 127
2, 46490, Note_on_c, 6, 78, 127
2, 46668, Note_off_c, 0, 72, 127
2, 46670, Note_on_c, 6, 66, 127
2, 46848, Note_off_c, 6, 66, 127
2, 46850, Note_on_c, 10, 69, 127
2, 47028, Note_off_c, 10, 69, 127
2, 47030, Note_on_c, 0, 72, 127
2, 47208, Note_off_c, 0, 72, 127
2, 47208, Note_off_c, 6, 78, 127
2, 47210, Note_on_c, 11, 70, 127
2, 47210, Note_on_c, 7, 79, 127
2, 47540, Note_off_c, 2, 62, 127
2, 47568, Note_off_c, 7, 79, 127
2, 47570, Note_on_c, 0, 60, 127
2, 47570, Note_on_c, 3, 75, 127
2, 47748, Note_off_c, 11, 70, 127
2, 47750, Note_on_c, 3, 63, 127
2, 47928, Note_off_c, 3, 63, 127
2, 47930, Note_on_c, 7, 67, 127
2, 48108, Note_off_c, 7, 67, 127
2, 48108, Note_off_c, 3, 75, 127
2, 48110, Note_on_c, 11, 70, 127
2, 48110, Note_on_c, 2, 74, 127
2, 48288, Note_off_c, 2, 74, 127
2, 48288, Note_off_c, 11, 70, 127
2, 48290, Note_on_c, 8, 68, 127
2, 48290, Note_on_c, 0, 72, 127
2, 48648, Note_off_c, 0, 72, 127
2, 48648, Note_off_c, 0, 60, 127
2, 48650, Note_on_c, 11, 58, 127
2, 48650, Note_on_c, 2, 74, 127
2, 48828, Note_off_c, 8, 68, 127
2, 48830, Note_on_c, 6, 66, 127
2, 49008, Note_off_c, 6, 66, 127
2, 49010, Note_on_c, 7, 67, 127
2, 49188, Note_off_c, 2, 74, 127
2, 49188, Note_off_c, 11, 58, 127
2, 49190, Note_on_c, 2, 62, 127
2, 49190, Note_on_c, 11, 70, 127
2, 49368, Note_off_c, 11, 70, 127
2, 49368, Note_off_c, 2, 62, 127
2, 49370, Note_on_c, 0, 60, 127
2, 49370, Note_on_c, 10, 69, 127
2, 49548, Note_off_c, 10, 69, 127
2, 49550, Note_on_c, 0, 72, 127
2, 49728, Note_off_c, 0, 72, 127
2, 49728, Note_off_c, 0, 60, 127
2, 49730, Note_on_c, 2, 62, 127
2, 49730, Note_on_c, 11, 70, 127
2, 49908, Note_off_c, 11, 70, 127
2, 49910, Note_on_c, 2, 74, 127
2, 50088, Note_off_c, 2, 74, 127
2, 50090, Note_on_c, 0, 72, 127
2, 50268, Note_off_c, 0, 72, 127
2, 50268, Note_off_c, 2, 62, 127
2, 50270, Note_on_c, 0, 60, 127
2, 50270, Note_on_c, 3, 75, 127
2, 50448, Note_off_c, 3, 75, 127
2, 50448, Note_off_c, 0, 60, 127
2, 50448, Note_off_c, 7, 67, 127
2, 50450, Note_on_c, 2, 62, 127
2, 50450, Note_on_c, 6, 66, 127
2, 50450, Note_on_c, 2, 74, 127
2, 50628, Note_off_c, 2, 74, 127
2, 50630, Note_on_c, 10, 81, 127
2, 50808, Note_off_c, 10, 81, 127
2, 50808, Note_off_c, 6, 66, 127
2, 50808, Note_off_c, 2, 62, 127
2, 50810, Note_on_c, 7, 55, 127
2, 50810, Note_on_c, 7, 67, 127
2, 50810, Note_on_c, 11, 70, 127
2, 50988, Note_off_c, 7, 55, 127
2, 50990, Note_on_c, 2, 50, 127
2, 51168, Note_off_c, 2, 50, 127
2, 51170, Note_on_c, 11, 46, 127
2, 51348, Note_off_c, 11, 46, 127
2, 51350, Note_on_c, 7, 43, 127
2, 51528, Note_off_c, 7, 43, 127
2, 51530, Note_on_c, 5, 53, 127
2, 51888, Note_off_c, 5, 53, 127
2, 51888, Note_off_c, 7, 67, 127
2, 51890, Note_on_c, 3, 51, 127
2, 51890, Note_on_c, 0, 60, 127
2, 52068, Note_off_c, 11, 70, 127
2, 52070, Note_on_c, 7, 67, 127
2, 52248, Note_off_c, 7, 67, 127
2, 52248, Note_off_c, 0, 60, 127
2, 52250, Note_on_c, 11, 58, 127
2, 52250, Note_on_c, 3, 63, 127
2, 52428, Note_off_c, 3, 63, 127
2, 52430, Note_on_c, 0, 60, 127
2, 52608, Note_off_c, 0, 60, 127
2, 52608, Note_off_c, 11, 58, 127
2, 52610, Note_on_c, 0, 60, 127
2, 52610, Note_on_c, 11, 70, 127
2, 52968, Note_off_c, 11, 70, 127
2, 52968, Note_off_c, 0, 60, 127
2, 52970, Note_on_c, 5, 65, 127
2, 52970, Note_on_c, 10, 69, 127
2, 53090, Note_off_c, 3, 51, 127
2, 53150, Note_on_c, 0, 48, 127
2, 53328, Note_off_c, 0, 48, 127
2, 53330, Note_on_c, 10, 45, 127
2, 53508, Note_off_c, 10, 45, 127
2, 53510, Note_on_c, 5, 41, 127
2, 53688, Note_off_c, 5, 41, 127
2, 53690, Note_on_c, 5, 53, 127
2, 54048, Note_off_c, 5, 53, 127
2, 54048, Note_off_c, 5, 65, 127
2, 54050, Note_on_c, 2, 50, 127
2, 54050, Note_on_c, 11, 58, 127
2, 54228, Note_off_c, 10, 69, 127
2, 54230, Note_on_c, 5, 65, 127
2, 54408, Note_off_c, 5, 65, 127
2, 54408, Note_off_c, 11, 58, 127
2, 54410, Note_on_c, 10, 57, 127
2, 54410, Note_on_c, 2, 62, 127
2, 54588, Note_off_c, 2, 62, 127
2, 54590, Note_on_c, 11, 58, 127
2, 54768, Note_off_c, 11, 58, 127
2, 54768, Note_off_c, 10, 57, 127
2, 54770, Note_on_c, 11, 58, 127
2, 54770, Note_on_c, 8, 68, 127
2, 55128, Note_off_c, 8, 68, 127
2, 55128, Note_off_c, 11, 58, 127
2, 55130, Note_on_c, 3, 63, 127
2, 55130, Note_on_c, 7, 67, 127
2, 55250, Note_off_c, 2, 50, 127
2, 55310, Note_on_c, 11, 46, 127
2, 55488, Note_off_c, 11, 46, 127
2, 55490, Note_on_c, 7, 43, 127
2, 55668, Note_off_c, 7, 43, 127
2, 55670, Note_on_c, 3, 39, 127
2, 55848, Note_off_c, 3, 39, 127
2, 55850, Note_on_c, 7, 43, 127
2, 56028, Note_off_c, 7, 43, 127
2, 56030, Note_on_c, 11, 46, 127
2, 56208, Note_off_c, 11, 46, 127
2, 56210, Note_on_c, 0, 48, 127
2, 56388, Note_off_c, 7, 67, 127
2, 56390, Note_on_c, 11, 70, 127
2, 56568, Note_off_c, 11, 70, 127
2, 56570, Note_on_c, 10, 69, 127
2, 56748, Note_off_c, 10, 69, 127
2, 56750, Note_on_c, 0, 72, 127
2, 56928, Note_off_c, 0, 72, 127
2, 56930, Note_on_c, 6, 66, 127
2, 57108, Note_off_c, 6, 66, 127
2, 57110, Note_on_c, 10, 69, 127
2, 57288, Note_off_c, 0, 48, 127
2, 57288, Note_off_c, 3, 63, 127
2, 57290, Note_on_c, 11, 46, 127
2, 57290, Note_on_c, 2, 62, 127
2, 57468, Note_off_c, 10, 69, 127
2, 57470, Note_on_c, 10, 69, 127
2, 57648, Note_off_c, 10, 69, 127
2, 57650, Note_on_c, 7, 67, 127
2, 57828, Note_off_c, 7, 67, 127
2, 57830, Note_on_c, 11, 70, 127
2, 58008, Note_off_c, 11, 70, 127
2, 58010, Note_on_c, 4, 64, 127
2, 58188, Note_off_c, 4, 64, 127
2, 58190, Note_on_c, 7, 67, 127
2, 58368, Note_off_c, 2, 62, 127
2, 58368, Note_off_c, 11, 46, 127
2, 58370, Note_on_c, 10, 45, 127
2, 58370, Note_on_c, 0, 60, 127
2, 58548, Note_off_c, 7, 67, 127
2, 58550, Note_on_c, 7, 67, 127
2, 58728, Note_off_c, 7, 67, 127
2, 58730, Note_on_c, 6, 66, 127
2, 58908, Note_off_c, 6, 66, 127
2, 58908, Note_off_c, 10, 45, 127
2, 58910, Note_on_c, 6, 42, 127
2, 58910, Note_on_c, 10, 69, 127
2, 59082, Note_off_c, 0, 60, 127
2, 59088, Note_off_c, 10, 69, 127
2, 59088, Note_off_c, 6, 42, 127
2, 59090, Note_on_c, 7, 43, 127
2, 59090, Note_on_c, 0, 72, 127
2, 59448, Note_off_c, 7, 43, 127
2, 59450, Note_on_c, 6, 42, 127
2, 59628, Note_off_c, 0, 72, 127
2, 59630, Note_on_c, 11, 70, 127
2, 59808, Note_off_c, 11, 70, 127
2, 59810, Note_on_c, 10, 69, 127
2, 59988, Note_off_c, 10, 69, 127
2, 59988, Note_off_c, 6, 42, 127
2, 59990, Note_on_c, 10, 45, 127
2, 59990, Note_on_c, 0, 72, 127
2, 60168, Note_off_c, 0, 72, 127
2, 60168, Note_off_c, 10, 45, 127
2, 60170, Note_on_c, 0, 48, 127
2, 60170, Note_on_c, 3, 75, 127
2, 60528, Note_off_c, 0, 48, 127
2, 60530, Note_on_c, 2, 38, 127
2, 60708, Note_off_c, 3, 75, 127
2, 60710, Note_on_c, 2, 74, 127
2, 60888, Note_off_c, 2, 74, 127
2, 60888, Note_off_c, 2, 38, 127
2, 60890, Note_on_c, 2, 50, 127
2, 60890, Note_on_c, 0, 72, 127
2, 61068, Note_off_c, 0, 72, 127
2, 61070, Note_on_c, 11, 70, 127
2, 61248, Note_off_c, 11, 70, 127
2, 61250, Note_on_c, 4, 52, 127
2, 61250, Note_on_c, 10, 69, 127
2, 61428, Note_off_c, 10, 69, 127
2, 61430, Note_on_c, 7, 67, 127
2, 61608, Note_off_c, 7, 67, 127
2, 61608, Note_off_c, 4, 52, 127
2, 61610, Note_on_c, 6, 54, 127
2, 61610, Note_on_c, 0, 72, 127
2, 61788, Note_off_c, 0, 72, 127
2, 61790, Note_on_c, 11, 70, 127
2, 61968, Note_off_c, 11, 70, 127
2, 61970, Note_on_c, 10, 69, 127
2, 62148, Note_off_c, 10, 69, 127
2, 62150, Note_on_c, 7, 67, 127
2, 62328, Note_off_c, 7, 67, 127
2, 62328, Note_off_c, 6, 54, 127
2, 62330, Note_on_c, 7, 55, 127
2, 62330, Note_on_c, 6, 66, 127
2, 62508, Note_off_c, 6, 66, 127
2, 62510, Note_on_c, 4, 64, 127
2, 62688, Note_off_c, 4, 64, 127
2, 62688, Note_off_c, 7, 55, 127
2, 62688, Note_off_c, 2, 50, 127
2, 62690, Note_on_c, 2, 50, 127
2, 62690, Note_on_c, 10, 57, 127
2, 62690, Note_on_c, 2, 62, 127
2, 62868, Note_off_c, 2, 62, 127
2, 62870, Note_on_c, 6, 66, 127
2, 63048, Note_off_c, 6, 66, 127
2, 63050, Note_on_c, 10, 69, 127
2, 63228, Note_off_c, 10, 69, 127
2, 63230, Note_on_c, 0, 72, 127
2, 63408, Note_off_c, 0, 72, 127
2, 63408, Note_off_c, 10, 57, 127
2, 63410, Note_on_c, 11, 58, 127
2, 63410, Note_on_c, 7, 67, 127
2, 63588, Note_off_c, 7, 67, 127
2, 63590, Note_on_c, 11, 70, 127
2, 63768, Note_off_c, 11, 58, 127
2, 63768, Note_off_c, 2, 50, 127
2, 63770, Note_on_c, 2, 50, 127
2, 63770, Note_on_c, 0, 60, 127
2, 63948, Note_off_c, 11, 70, 127
2, 63950, Note_on_c, 10, 69, 127
2, 64128, Note_off_c, 10, 69, 127
2, 64130, Note_on_c, 0, 72, 127
2, 64308, Note_off_c, 0, 72, 127
2, 64310, Note_on_c, 3, 75, 127
2, 64488, Note_off_c, 0, 60, 127
2, 64490, Note_on_c, 11, 58, 127
2, 64490, Note_on_c, 7, 67, 127
2, 64660, Note_off_c, 3, 75, 127
2, 64668, Note_off_c, 7, 67, 127
2, 64670, Note_on_c, 2, 74, 127
2, 64848, Note_off_c, 11, 58, 127
2, 64848, Note_off_c, 2, 50, 127
2, 64850, Note_on_c, 2, 50, 127
2, 64850, Note_on_c, 10, 57, 127
2, 65028, Note_off_c, 2, 74, 127
2, 65030, Note_on_c, 6, 66, 127
2, 65208, Note_off_c, 6, 66, 127
2, 65210, Note_on_c, 10, 69, 127
2, 65388, Note_off_c, 10, 69, 127
2, 65390, Note_on_c, 0, 72, 127
2, 65568, Note_off_c, 10, 57, 127
2, 65570, Note_on_c, 7, 55, 127
2, 65570, Note_on_c, 4, 64, 127
2, 65740, Note_off_c, 0, 72, 127
2, 65748, Note_off_c, 4, 64, 127
2, 65750, Note_on_c, 11, 70, 127
2, 65928, Note_off_c, 7, 55, 127
2, 65928, Note_off_c, 2, 50, 127
2, 65930, Note_on_c, 2, 50, 127
2, 65930, Note_on_c, 6, 54, 127
2, 66108, Note_off_c, 11, 70, 127
2, 66110, Note_on_c, 2, 62, 127
2, 66288, Note_off_c, 2, 62, 127
2, 66290, Note_on_c, 6, 66, 127
2, 66468, Note_off_c, 6, 66, 127
2, 66470, Note_on_c, 10, 69, 127
2, 66648, Note_off_c, 6, 54, 127
2, 66650, Note_on_c, 4, 52, 127
2, 66650, Note_on_c, 1, 61, 127
2, 66827, Note_off_c, 10, 69, 127
2, 66828, Note_off_c, 1, 61, 127
2, 66830, Note_on_c, 7, 67, 127
2, 67006, Note_off_c, 4, 52, 127
2, 67008, Note_off_c, 7, 67, 127
2, 67008, Note_off_c, 2, 50, 127
2, 67010, Note_on_c, 6, 66, 127
2, 67190, Note_on_c, 2, 50, 127
2, 67370, Note_on_c, 6, 54, 127
2, 67548, Note_off_c, 6, 54, 127
2, 67550, Note_on_c, 10, 57, 127
2, 67728, Note_off_c, 10, 57, 127
2, 67746, Note_on_c, 2, 62, 127
2, 67754, Note_off_c, 2, 50, 127
2, 67908, Note_off_c, 6, 66, 127
2, 67926, Note_on_c, 6, 66, 127
2, 68104, Note_off_c, 6, 66, 127
2, 68106, Note_on_c, 10, 69, 127
2, 68271, Note_off_c, 2, 62, 127
2, 68284, Note_off_c, 10, 69, 127
2, 68286, Note_on_c, 0, 72, 127
2, 68464, Note_off_c, 0, 72, 127
2, 68466, Note_on_c, 3, 75, 127
2, 68662, Note_on_c, 0, 60, 127
2, 68840, Note_off_c, 0, 60, 127
2, 68858, Note_on_c, 11, 58, 127
2, 68991, Note_off_c, 3, 75, 127
2, 69036, Note_off_c, 11, 58, 127
2, 69047, Note_on_c, 10, 57, 127
2, 69225, Note_off_c, 10, 57, 127
2, 69250, Note_on_c, 7, 55, 127
2, 69430, Note_on_c, 2, 74, 127
2, 69608, Note_off_c, 2, 74, 127
2, 69610, Note_on_c, 11, 70, 127
2, 69788, Note_off_c, 11, 70, 127
2, 69790, Note_on_c, 7, 67, 127
2, 69968, Note_off_c, 7, 67, 127
2, 69968, Note_off_c, 7, 55, 127
2, 69970, Note_on_c, 7, 79, 127
2, 69970, Note_on_c, 3, 51, 127
2, 70328, Note_off_c, 3, 51, 127
2, 70328, Note_off_c, 7, 79, 127
2, 70330, Note_on_c, 5, 77, 127
2, 70330, Note_on_c, 2, 50, 127
2, 70510, Note_on_c, 10, 69, 127
2, 70688, Note_off_c, 10, 69, 127
2, 70690, Note_on_c, 5, 65, 127
2, 70868, Note_off_c, 5, 65, 127
2, 70870, Note_on_c, 2, 62, 127
2, 71048, Note_off_c, 2, 62, 127
2, 71048, Note_off_c, 2, 50, 127
2, 71050, Note_on_c, 2, 74, 127
2, 71050, Note_on_c, 11, 58, 127
2, 71408, Note_off_c, 11, 58, 127
2, 71408, Note_off_c, 5, 77, 127
2, 71410, Note_on_c, 3, 75, 127
2, 71410, Note_on_c, 7, 55, 127
2, 71948, Note_off_c, 2, 74, 127
2, 71950, Note_on_c, 11, 70, 127
2, 72128, Note_off_c, 11, 70, 127
2, 72128, Note_off_c, 7, 55, 127
2, 72130, Note_on_c, 0, 72, 127
2, 72130, Note_on_c, 10, 57, 127
2, 72488, Note_off_c, 10, 57, 127
2, 72488, Note_off_c, 3, 75, 127
2, 72490, Note_on_c, 2, 74, 127
2, 72490, Note_on_c, 11, 58, 127
2, 72668, Note_off_c, 11, 58, 127
2, 72670, Note_on_c, 2, 62, 127
2, 72848, Note_off_c, 2, 62, 127
2, 72850, Note_on_c, 11, 58, 127
2, 73028, Note_off_c, 11, 58, 127
2, 73028, Note_off_c, 0, 72, 127
2, 73030, Note_on_c, 10, 69, 127
2, 73030, Note_on_c, 7, 55, 127
2, 73208, Note_off_c, 7, 55, 127
2, 73208, Note_off_c, 10, 69, 127
2, 73210, Note_on_c, 11, 70, 127
2, 73210, Note_on_c, 7, 67, 127
2, 73568, Note_off_c, 11, 70, 127
2, 73568, Note_off_c, 2, 74, 127
2, 73570, Note_on_c, 0, 72, 127
2, 73570, Note_on_c, 10, 69, 127
2, 74108, Note_off_c, 7, 67, 127
2, 74110, Note_on_c, 4, 64, 127
2, 74288, Note_off_c, 4, 64, 127
2, 74288, Note_off_c, 0, 72, 127
2, 74290, Note_on_c, 2, 74, 127
2, 74290, Note_on_c, 6, 66, 127
2, 74648, Note_off_c, 6, 66, 127
2, 74648, Note_off_c, 2, 74, 127
2, 74648, Note_off_c, 10, 69, 127
2, 74650, Note_on_c, 11, 70, 127
2, 74650, Note_on_c, 7, 67, 127
2, 74834, Note_off_c, 7, 67, 127
2, 74836, Note_on_c, 6, 66, 127
2, 75020, Note_off_c, 6, 66, 127
2, 75022, Note_on_c, 7, 67, 127
2, 75206, Note_off_c, 11, 70, 127
2, 75208, Note_on_c, 11, 70, 127
2, 75392, Note_off_c, 11, 70, 127
2, 75394, Note_on_c, 3, 75, 127
2, 75394, Note_on_c, 0, 60, 127
2, 75764, Note_off_c, 0, 60, 127
2, 75764, Note_off_c, 3, 75, 127
2, 75766, Note_on_c, 11, 70, 127
2, 75766, Note_on_c, 2, 62, 127
2, 76360, Note_off_c, 11, 70, 127
2, 76362, Note_on_c, 0, 72, 127
2, 76559, Note_off_c, 0, 72, 127
2, 76559, Note_off_c, 2, 62, 127
2, 76559, Note_off_c, 7, 67, 127
2, 76561, Note_on_c, 10, 69, 127
2, 76561, Note_on_c, 6, 66, 127
2, 76561, Note_on_c, 2, 50, 127
2, 76995, Note_off_c, 2, 50, 127
2, 76995, Note_off_c, 6, 66, 127
2, 76995, Note_off_c, 10, 69, 127
2, 77041, Note_on_c, 7, 67, 127
2, 77041, Note_on_c, 7, 43, 127
2, 79141, Note_off_c, 7, 43, 127
2, 79141, Note_off_c, 7, 67, 127
2, 84480, End_track
3, 0, Start_track
3, 0, Title_t, "MIDI"
3, 1536, End_track
0, 0, End_of_file
