0, 0, Header, 1, 3, 384
1, 0, Start_track
1, 0, Tempo, 500000
1, 0, Time_signature, 4, 2, 24, 8
1, 87552, End_track
2, 0, Start_track
2, 0, Text_t, "harpsichord: John Sankey"
2, 0, Program_c, 0, 6
2, 0, Pitch_bend_c, 0, 8192
2, 0, Program_c, 1, 6
2, 0, Pitch_bend_c, 1, 7792
2, 0, Program_c, 2, 6
2, 0, Pitch_bend_c, 2, 7876
2, 0, Program_c, 3, 6
2, 0, Pitch_bend_c, 3, 7952
2, 0, Program_c, 4, 6
2, 0, Pitch_bend_c, 4, 7792
2, 0, Program_c, 5, 6
2, 0, Pitch_bend_c, 5, 8112
2, 0, Program_c, 6, 6
2, 0, Pitch_bend_c, 6, 7712
2, 0, Program_c, 7, 6
2, 0, Pitch_bend_c, 7, 8037
2, 0, Program_c, 8, 6
2, 0, Pitch_bend_c, 8, 7872
2, 0, Program_c, 10, 6
2, 0, Pitch_bend_c, 10, 7712
2, 0, Program_c, 11, 6
2, 0, Pitch_bend_c, 11, 8032
2, 0, Program_c, 12, 6
2, 0, Pitch_bend_c, 12, 7872
2, 0, Title_t, "Track 1"
2, 48, Note_on_c, 2, 50, 127
2, 270, Note_on_c, 2, 74, 127
2, 482, Note_off_c, 2, 74, 127
2, 489, Note_off_c, 2, 50, 127
2, 491, Note_on_c, 4, 52, 127
2, 491, Note_on_c, 1, 73, 127
2, 703, Note_off_c, 1, 73, 127
2, 712, Note_on_c, 2, 74, 127
2, 924, Note_off_c, 2, 74, 127
2, 931, Note_off_c, 4, 52, 127
2, 933, Note_on_c, 5, 53, 127
2, 933, Note_on_c, 10, 69, 127
2, 1374, Note_off_c, 10, 69, 127
2, 1374, Note_off_c, 5, 53, 127
2, 1376, Note_on_c, 2, 50, 127
2, 1376, Note_on_c, 5, 77, 127
2, 1817, Note_off_c, 2, 50, 127
2, 1819, Note_on_c, 10, 57, 127
2, 2038, Note_off_c, 5, 77, 127
2, 2040, Note_on_c, 4, 76, 127
2, 2252, Note_off_c, 4, 76, 127
2, 2259, Note_off_c, 10, 57, 127
2, 2261, Note_on_c, 12, 59, 127
2, 2261, Note_on_c, 2, 74, 127
2, 2473, Note_off_c, 2, 74, 127
2, 2482, Note_on_c, 4, 76, 127
2, 2694, Note_off_c, 4, 76, 127
2, 2701, Note_off_c, 12, 59, 127
2, 2703, Note_on_c, 1, 61, 127
2, 2703, Note_on_c, 10, 69, 127
2, 3144, Note_off_c, 10, 69, 127
2, 3144, Note_off_c, 1, 61, 127
2, 3146, Note_on_c, 10, 57, 127
2, 3146, Note_on_c, 7, 79, 127
2, 3587, Note_off_c, 10, 57, 127
2, 3589, Note_on_c, 2, 62, 127
2, 3808, Note_off_c, 7, 79, 127
2, 3810, Note_on_c, 10, 69, 127
2, 3810, Note_on_c, 5, 77, 127
2, 4022, Note_off_c, 5, 77, 127
2, 4022, Note_off_c, 10, 69, 127
2, 4031, Note_on_c, 8, 68, 127
2, 4031, Note_on_c, 4, 76, 127
2, 4243, Note_off_c, 4, 76, 127
2, 4243, Note_off_c, 8, 68, 127
2, 4252, Note_on_c, 10, 69, 127
2, 4252, Note_on_c, 2, 74, 127
2, 4464, Note_off_c, 2, 74, 127
2, 4464, Note_off_c, 10, 69, 127
2, 4473, Note_on_c, 4, 64, 127
2, 4473, Note_on_c, 10, 81, 127
2, 4692, Note_off_c, 2, 62, 127
2, 4694, Note_on_c, 0, 60, 127
2, 4906, Note_off_c, 0, 60, 127
2, 4913, Note_off_c, 4, 64, 127
2, 4915, Note_on_c, 12, 59, 127
2, 4915, Note_on_c, 0, 72, 127
2, 5127, Note_off_c, 12, 59, 127
2, 5136, Note_on_c, 10, 57, 127
2, 5348, Note_off_c, 10, 57, 127
2, 5357, Note_on_c, 4, 64, 127
2, 5576, Note_off_c, 0, 72, 127
2, 5576, Note_off_c, 10, 81, 127
2, 5578, Note_on_c, 12, 71, 127
2, 5578, Note_on_c, 8, 80, 127
2, 5790, Note_off_c, 8, 80, 127
2, 5790, Note_off_c, 12, 71, 127
2, 5799, Note_on_c, 10, 69, 127
2, 5799, Note_on_c, 6, 78, 127
2, 6011, Note_off_c, 6, 78, 127
2, 6011, Note_off_c, 10, 69, 127
2, 6020, Note_on_c, 12, 71, 127
2, 6020, Note_on_c, 8, 80, 127
2, 6232, Note_off_c, 8, 80, 127
2, 6232, Note_off_c, 12, 71, 127
2, 6239, Note_off_c, 4, 64, 127
2, 6241, Note_on_c, 4, 52, 127
2, 6241, Note_on_c, 4, 64, 127
2, 6241, Note_on_c, 10, 81, 127
2, 6386, Note_off_c, 10, 81, 127
2, 6388, Note_on_c, 8, 80, 127
2, 6462, Note_on_c, 10, 81, 127
2, 6469, Note_off_c, 8, 80, 127
2, 6536, Note_on_c, 8, 80, 127
2, 6543, Note_off_c, 10, 81, 127
2, 6610, Note_on_c, 10, 81, 127
2, 6617, Note_off_c, 8, 80, 127
2, 6682, Note_off_c, 4, 64, 127
2, 6684, Note_on_c, 2, 74, 127
2, 6684, Note_on_c, 8, 80, 127
2, 6691, Note_off_c, 10, 81, 127
2, 6896, Note_off_c, 8, 80, 127
2, 6905, Note_on_c, 10, 81, 127
2, 7113, Note_off_c, 10, 81, 127
2, 7117, Note_off_c, 4, 52, 127
2, 7126, Note_on_c, 10, 45, 127
2, 7126, Note_on_c, 10, 81, 127
2, 7345, Note_off_c, 2, 74, 127
2, 7347, Note_on_c, 0, 72, 127
2, 7559, Note_off_c, 0, 72, 127
2, 7568, Note_on_c, 12, 71, 127
2, 7780, Note_off_c, 12, 71, 127
2, 7789, Note_on_c, 0, 72, 127
2, 8001, Note_off_c, 0, 72, 127
2, 8010, Note_on_c, 5, 77, 127
2, 8229, Note_off_c, 10, 81, 127
2, 8231, Note_on_c, 2, 74, 127
2, 8443, Note_off_c, 2, 74, 127
2, 8452, Note_on_c, 1, 73, 127
2, 8664, Note_off_c, 1, 73, 127
2, 8673, Note_on_c, 2, 74, 127
2, 8885, Note_off_c, 2, 74, 127
2, 8892, Note_off_c, 10, 45, 127
2, 8894, Note_on_c, 7, 79, 127
2, 9113, Note_off_c, 5, 77, 127
2, 9115, Note_on_c, 12, 71, 127
2, 9327, Note_off_c, 12, 71, 127
2, 9336, Note_on_c, 10, 69, 127
2, 9548, Note_off_c, 10, 69, 127
2, 9557, Note_on_c, 12, 71, 127
2, 9769, Note_off_c, 12, 71, 127
2, 9778, Note_on_c, 4, 76, 127
2, 10000, Note_on_c, 1, 73, 127
2, 10212, Note_off_c, 1, 73, 127
2, 10221, Note_on_c, 12, 71, 127
2, 10433, Note_off_c, 12, 71, 127
2, 10442, Note_on_c, 1, 73, 127
2, 10654, Note_off_c, 1, 73, 127
2, 10654, Note_off_c, 4, 76, 127
2, 10661, Note_off_c, 7, 79, 127
2, 10663, Note_on_c, 5, 77, 127
2, 10885, Note_on_c, 2, 50, 127
2, 11097, Note_off_c, 2, 50, 127
2, 11106, Note_on_c, 1, 49, 127
2, 11106, Note_on_c, 10, 69, 127
2, 11318, Note_off_c, 1, 49, 127
2, 11327, Note_on_c, 2, 50, 127
2, 11539, Note_off_c, 2, 50, 127
2, 11546, Note_off_c, 10, 69, 127
2, 11548, Note_on_c, 10, 45, 127
2, 11548, Note_on_c, 2, 74, 127
2, 11760, Note_off_c, 2, 74, 127
2, 11769, Note_on_c, 4, 76, 127
2, 11981, Note_off_c, 4, 76, 127
2, 11988, Note_off_c, 10, 45, 127
2, 11988, Note_off_c, 5, 77, 127
2, 11990, Note_on_c, 5, 53, 127
2, 11990, Note_on_c, 2, 74, 127
2, 11990, Note_on_c, 10, 81, 127
2, 12202, Note_off_c, 2, 74, 127
2, 12211, Note_on_c, 0, 72, 127
2, 12423, Note_off_c, 0, 72, 127
2, 12430, Note_off_c, 10, 81, 127
2, 12432, Note_on_c, 12, 71, 127
2, 12432, Note_on_c, 7, 79, 127
2, 12651, Note_off_c, 5, 53, 127
2, 12653, Note_on_c, 4, 52, 127
2, 12865, Note_off_c, 4, 52, 127
2, 12874, Note_on_c, 2, 50, 127
2, 13086, Note_off_c, 2, 50, 127
2, 13093, Note_off_c, 12, 71, 127
2, 13095, Note_on_c, 4, 52, 127
2, 13095, Note_on_c, 1, 73, 127
2, 13307, Note_off_c, 1, 73, 127
2, 13307, Note_off_c, 4, 52, 127
2, 13316, Note_on_c, 10, 45, 127
2, 13316, Note_on_c, 2, 74, 127
2, 13461, Note_off_c, 2, 74, 127
2, 13463, Note_on_c, 1, 73, 127
2, 13535, Note_off_c, 1, 73, 127
2, 13535, Note_off_c, 7, 79, 127
2, 13537, Note_on_c, 2, 74, 127
2, 13537, Note_on_c, 5, 77, 127
2, 13609, Note_off_c, 2, 74, 127
2, 13611, Note_on_c, 1, 73, 127
2, 13683, Note_off_c, 1, 73, 127
2, 13685, Note_on_c, 2, 74, 127
2, 13750, Note_off_c, 5, 77, 127
2, 13757, Note_off_c, 2, 74, 127
2, 13757, Note_off_c, 10, 45, 127
2, 13759, Note_on_c, 7, 55, 127
2, 13759, Note_on_c, 1, 73, 127
2, 13759, Note_on_c, 4, 76, 127
2, 13971, Note_off_c, 4, 76, 127
2, 13980, Note_on_c, 5, 77, 127
2, 14192, Note_off_c, 5, 77, 127
2, 14197, Note_off_c, 1, 73, 127
2, 14202, Note_on_c, 2, 74, 127
2, 14410, Note_off_c, 2, 74, 127
2, 14422, Note_off_c, 7, 55, 127
2, 14424, Note_on_c, 5, 53, 127
2, 14424, Note_on_c, 2, 74, 127
2, 14636, Note_off_c, 2, 74, 127
2, 14636, Note_off_c, 5, 53, 127
2, 14645, Note_on_c, 4, 52, 127
2, 14645, Note_on_c, 1, 73, 127
2, 14857, Note_off_c, 1, 73, 127
2, 14857, Note_off_c, 4, 52, 127
2, 14866, Note_on_c, 2, 50, 127
2, 14866, Note_on_c, 2, 74, 127
2, 15078, Note_off_c, 2, 74, 127
2, 15078, Note_off_c, 2, 50, 127
2, 15087, Note_on_c, 11, 58, 127
2, 15087, Note_on_c, 7, 67, 127
2, 15309, Note_on_c, 11, 82, 127
2, 15521, Note_off_c, 11, 82, 127
2, 15530, Note_on_c, 10, 81, 127
2, 15742, Note_off_c, 10, 81, 127
2, 15751, Note_on_c, 11, 82, 127
2, 15963, Note_off_c, 11, 82, 127
2, 15972, Note_on_c, 4, 76, 127
2, 16191, Note_off_c, 7, 67, 127
2, 16191, Note_off_c, 11, 58, 127
2, 16193, Note_on_c, 4, 52, 127
2, 16193, Note_on_c, 0, 72, 127
2, 16405, Note_off_c, 0, 72, 127
2, 16405, Note_off_c, 4, 52, 127
2, 16414, Note_on_c, 2, 50, 127
2, 16414, Note_on_c, 11, 70, 127
2, 16626, Note_off_c, 11, 70, 127
2, 16626, Note_off_c, 2, 50, 127
2, 16635, Note_on_c, 0, 48, 127
2, 16635, Note_on_c, 0, 72, 127
2, 16847, Note_off_c, 0, 72, 127
2, 16847, Note_off_c, 0, 48, 127
2, 16856, Note_on_c, 10, 57, 127
2, 16856, Note_on_c, 5, 65, 127
2, 17075, Note_off_c, 4, 76, 127
2, 17077, Note_on_c, 10, 81, 127
2, 17289, Note_off_c, 10, 81, 127
2, 17298, Note_on_c, 7, 79, 127
2, 17510, Note_off_c, 7, 79, 127
2, 17519, Note_on_c, 10, 81, 127
2, 17731, Note_off_c, 10, 81, 127
2, 17740, Note_on_c, 2, 74, 127
2, 17959, Note_off_c, 5, 65, 127
2, 17959, Note_off_c, 10, 57, 127
2, 17961, Note_on_c, 2, 50, 127
2, 17961, Note_on_c, 11, 70, 127
2, 18173, Note_off_c, 11, 70, 127
2, 18173, Note_off_c, 2, 50, 127
2, 18182, Note_on_c, 0, 48, 127
2, 18182, Note_on_c, 10, 69, 127
2, 18394, Note_off_c, 10, 69, 127
2, 18394, Note_off_c, 0, 48, 127
2, 18403, Note_on_c, 2, 50, 127
2, 18403, Note_on_c, 0, 72, 127
2, 18615, Note_off_c, 0, 72, 127
2, 18615, Note_off_c, 2, 50, 127
2, 18624, Note_on_c, 7, 43, 127
2, 18624, Note_on_c, 11, 70, 127
2, 18843, Note_off_c, 2, 74, 127
2, 18845, Note_on_c, 2, 74, 127
2, 19057, Note_off_c, 2, 74, 127
2, 19064, Note_off_c, 7, 43, 127
2, 19066, Note_on_c, 5, 53, 127
2, 19066, Note_on_c, 4, 76, 127
2, 19278, Note_off_c, 4, 76, 127
2, 19287, Note_on_c, 5, 77, 127
2, 19499, Note_off_c, 5, 77, 127
2, 19508, Note_on_c, 7, 79, 127
2, 19727, Note_off_c, 5, 53, 127
2, 19727, Note_off_c, 11, 70, 127
2, 19729, Note_on_c, 4, 52, 127
2, 19729, Note_on_c, 0, 72, 127
2, 19941, Note_off_c, 0, 72, 127
2, 19941, Note_off_c, 4, 52, 127
2, 19950, Note_on_c, 2, 50, 127
2, 19950, Note_on_c, 11, 70, 127
2, 20162, Note_off_c, 11, 70, 127
2, 20162, Note_off_c, 2, 50, 127
2, 20171, Note_on_c, 4, 52, 127
2, 20171, Note_on_c, 10, 69, 127
2, 20383, Note_off_c, 10, 69, 127
2, 20383, Note_off_c, 4, 52, 127
2, 20392, Note_on_c, 0, 48, 127
2, 20392, Note_on_c, 11, 70, 127
2, 20604, Note_off_c, 11, 70, 127
2, 20611, Note_off_c, 7, 79, 127
2, 20613, Note_on_c, 10, 69, 127
2, 20613, Note_on_c, 5, 77, 127
2, 20825, Note_off_c, 5, 77, 127
2, 20825, Note_off_c, 10, 69, 127
2, 20832, Note_off_c, 0, 48, 127
2, 20834, Note_on_c, 11, 58, 127
2, 20834, Note_on_c, 7, 67, 127
2, 20834, Note_on_c, 4, 76, 127
2, 21046, Note_off_c, 4, 76, 127
2, 21046, Note_off_c, 7, 67, 127
2, 21055, Note_on_c, 5, 65, 127
2, 21055, Note_on_c, 2, 74, 127
2, 21267, Note_off_c, 2, 74, 127
2, 21267, Note_off_c, 5, 65, 127
2, 21276, Note_on_c, 4, 64, 127
2, 21276, Note_on_c, 0, 72, 127
2, 21495, Note_off_c, 11, 58, 127
2, 21497, Note_on_c, 10, 57, 127
2, 21709, Note_off_c, 10, 57, 127
2, 21716, Note_off_c, 4, 64, 127
2, 21718, Note_on_c, 7, 55, 127
2, 21718, Note_on_c, 11, 70, 127
2, 21930, Note_off_c, 7, 55, 127
2, 21939, Note_on_c, 10, 57, 127
2, 22151, Note_off_c, 10, 57, 127
2, 22160, Note_on_c, 5, 53, 127
2, 22379, Note_off_c, 11, 70, 127
2, 22381, Note_on_c, 10, 69, 127
2, 22593, Note_off_c, 10, 69, 127
2, 22600, Note_off_c, 5, 53, 127
2, 22602, Note_on_c, 3, 63, 127
2, 22602, Note_on_c, 7, 67, 127
2, 22814, Note_off_c, 7, 67, 127
2, 22823, Note_on_c, 10, 69, 127
2, 23035, Note_off_c, 10, 69, 127
2, 23042, Note_off_c, 3, 63, 127
2, 23044, Note_on_c, 2, 62, 127
2, 23044, Note_on_c, 5, 65, 127
2, 23263, Note_off_c, 0, 72, 127
2, 23265, Note_on_c, 11, 70, 127
2, 23477, Note_off_c, 11, 70, 127
2, 23484, Note_off_c, 2, 62, 127
2, 23486, Note_on_c, 0, 60, 127
2, 23486, Note_on_c, 10, 69, 127
2, 23698, Note_off_c, 10, 69, 127
2, 23707, Note_on_c, 11, 70, 127
2, 23919, Note_off_c, 11, 70, 127
2, 23926, Note_off_c, 0, 60, 127
2, 23928, Note_on_c, 11, 58, 127
2, 23928, Note_on_c, 7, 67, 127
2, 24140, Note_off_c, 7, 67, 127
2, 24149, Note_on_c, 2, 74, 127
2, 24361, Note_off_c, 2, 74, 127
2, 24368, Note_off_c, 11, 58, 127
2, 24370, Note_on_c, 10, 57, 127
2, 24370, Note_on_c, 0, 72, 127
2, 24582, Note_off_c, 0, 72, 127
2, 24591, Note_on_c, 2, 74, 127
2, 24803, Note_off_c, 2, 74, 127
2, 24810, Note_off_c, 10, 57, 127
2, 24812, Note_on_c, 11, 58, 127
2, 24812, Note_on_c, 7, 67, 127
2, 25024, Note_off_c, 7, 67, 127
2, 25033, Note_on_c, 11, 70, 127
2, 25245, Note_off_c, 11, 70, 127
2, 25252, Note_off_c, 11, 58, 127
2, 25254, Note_on_c, 7, 55, 127
2, 25254, Note_on_c, 10, 69, 127
2, 25466, Note_off_c, 10, 69, 127
2, 25475, Note_on_c, 11, 70, 127
2, 25694, Note_off_c, 7, 55, 127
2, 25694, Note_off_c, 5, 65, 127
2, 25696, Note_on_c, 0, 60, 127
2, 25696, Note_on_c, 4, 64, 127
2, 25915, Note_off_c, 11, 70, 127
2, 25917, Note_on_c, 0, 72, 127
2, 26129, Note_off_c, 0, 72, 127
2, 26136, Note_off_c, 0, 60, 127
2, 26138, Note_on_c, 0, 48, 127
2, 26138, Note_on_c, 11, 70, 127
2, 26350, Note_off_c, 11, 70, 127
2, 26359, Note_on_c, 0, 72, 127
2, 26571, Note_off_c, 0, 72, 127
2, 26571, Note_off_c, 4, 64, 127
2, 26578, Note_off_c, 0, 48, 127
2, 26580, Note_on_c, 5, 41, 127
2, 26580, Note_on_c, 10, 69, 127
2, 26802, Note_on_c, 5, 65, 127
2, 27014, Note_off_c, 5, 65, 127
2, 27021, Note_off_c, 5, 41, 127
2, 27023, Note_on_c, 7, 43, 127
2, 27023, Note_on_c, 4, 64, 127
2, 27235, Note_off_c, 4, 64, 127
2, 27244, Note_on_c, 5, 65, 127
2, 27456, Note_off_c, 5, 65, 127
2, 27463, Note_off_c, 7, 43, 127
2, 27465, Note_on_c, 10, 45, 127
2, 27465, Note_on_c, 0, 60, 127
2, 27906, Note_off_c, 0, 60, 127
2, 27906, Note_off_c, 10, 45, 127
2, 27906, Note_off_c, 10, 69, 127
2, 27908, Note_on_c, 5, 41, 127
2, 27908, Note_on_c, 10, 69, 127
2, 27908, Note_on_c, 5, 77, 127
2, 28349, Note_off_c, 5, 41, 127
2, 28351, Note_on_c, 0, 48, 127
2, 28570, Note_off_c, 5, 77, 127
2, 28570, Note_off_c, 10, 69, 127
2, 28572, Note_on_c, 7, 67, 127
2, 28572, Note_on_c, 4, 76, 127
2, 28784, Note_off_c, 7, 67, 127
2, 28791, Note_off_c, 0, 48, 127
2, 28793, Note_on_c, 2, 50, 127
2, 28793, Note_on_c, 5, 65, 127
2, 29005, Note_off_c, 5, 65, 127
2, 29014, Note_on_c, 7, 67, 127
2, 29226, Note_off_c, 7, 67, 127
2, 29233, Note_off_c, 2, 50, 127
2, 29235, Note_on_c, 4, 52, 127
2, 29235, Note_on_c, 0, 60, 127
2, 29676, Note_off_c, 0, 60, 127
2, 29676, Note_off_c, 4, 52, 127
2, 29676, Note_off_c, 4, 76, 127
2, 29678, Note_on_c, 0, 48, 127
2, 29678, Note_on_c, 11, 70, 127
2, 29678, Note_on_c, 7, 79, 127
2, 30119, Note_off_c, 0, 48, 127
2, 30121, Note_on_c, 5, 53, 127
2, 30340, Note_off_c, 7, 79, 127
2, 30340, Note_off_c, 11, 70, 127
2, 30342, Note_on_c, 10, 69, 127
2, 30342, Note_on_c, 5, 77, 127
2, 30554, Note_off_c, 5, 77, 127
2, 30561, Note_off_c, 5, 53, 127
2, 30563, Note_on_c, 7, 55, 127
2, 30563, Note_on_c, 4, 76, 127
2, 30775, Note_off_c, 4, 76, 127
2, 30784, Note_on_c, 5, 77, 127
2, 30996, Note_off_c, 5, 77, 127
2, 31003, Note_off_c, 7, 55, 127
2, 31005, Note_on_c, 10, 57, 127
2, 31005, Note_on_c, 0, 72, 127
2, 31446, Note_off_c, 0, 72, 127
2, 31446, Note_off_c, 10, 57, 127
2, 31446, Note_off_c, 10, 69, 127
2, 31448, Note_on_c, 5, 53, 127
2, 31448, Note_on_c, 5, 77, 127
2, 31448, Note_on_c, 10, 81, 127
2, 31889, Note_off_c, 5, 53, 127
2, 31891, Note_on_c, 0, 60, 127
2, 32110, Note_off_c, 10, 81, 127
2, 32110, Note_off_c, 5, 77, 127
2, 32112, Note_on_c, 4, 76, 127
2, 32112, Note_on_c, 7, 79, 127
2, 32324, Note_off_c, 7, 79, 127
2, 32331, Note_off_c, 0, 60, 127
2, 32333, Note_on_c, 2, 62, 127
2, 32333, Note_on_c, 5, 77, 127
2, 32545, Note_off_c, 5, 77, 127
2, 32554, Note_on_c, 7, 79, 127
2, 32766, Note_off_c, 7, 79, 127
2, 32773, Note_off_c, 2, 62, 127
2, 32775, Note_on_c, 4, 64, 127
2, 32775, Note_on_c, 0, 72, 127
2, 33216, Note_off_c, 0, 72, 127
2, 33216, Note_off_c, 4, 64, 127
2, 33216, Note_off_c, 4, 76, 127
2, 33218, Note_on_c, 0, 60, 127
2, 33218, Note_on_c, 7, 79, 127
2, 33218, Note_on_c, 11, 82, 127
2, 33659, Note_off_c, 0, 60, 127
2, 33661, Note_on_c, 5, 65, 127
2, 33873, Note_off_c, 5, 65, 127
2, 33880, Note_off_c, 11, 82, 127
2, 33880, Note_off_c, 7, 79, 127
2, 33882, Note_on_c, 0, 60, 127
2, 33882, Note_on_c, 5, 77, 127
2, 33882, Note_on_c, 10, 81, 127
2, 34094, Note_off_c, 0, 60, 127
2, 34103, Note_on_c, 11, 58, 127
2, 34315, Note_off_c, 11, 58, 127
2, 34324, Note_on_c, 0, 60, 127
2, 34536, Note_off_c, 0, 60, 127
2, 34545, Note_on_c, 5, 53, 127
2, 34764, Note_off_c, 5, 77, 127
2, 34766, Note_on_c, 4, 76, 127
2, 34978, Note_off_c, 4, 76, 127
2, 34985, Note_off_c, 5, 53, 127
2, 34987, Note_on_c, 5, 65, 127
2, 34987, Note_on_c, 2, 74, 127
2, 35199, Note_off_c, 2, 74, 127
2, 35208, Note_on_c, 0, 72, 127
2, 35420, Note_off_c, 0, 72, 127
2, 35429, Note_on_c, 11, 70, 127
2, 35648, Note_off_c, 5, 65, 127
2, 35648, Note_off_c, 10, 81, 127
2, 35650, Note_on_c, 11, 58, 127
2, 35650, Note_on_c, 2, 74, 127
2, 35862, Note_off_c, 2, 74, 127
2, 35862, Note_off_c, 11, 58, 127
2, 35871, Note_on_c, 10, 57, 127
2, 35871, Note_on_c, 1, 73, 127
2, 36083, Note_off_c, 1, 73, 127
2, 36083, Note_off_c, 10, 57, 127
2, 36092, Note_on_c, 11, 58, 127
2, 36092, Note_on_c, 2, 74, 127
2, 36304, Note_off_c, 2, 74, 127
2, 36304, Note_off_c, 11, 58, 127
2, 36313, Note_on_c, 4, 52, 127
2, 36313, Note_on_c, 7, 79, 127
2, 36532, Note_off_c, 11, 70, 127
2, 36534, Note_on_c, 10, 69, 127
2, 36746, Note_off_c, 10, 69, 127
2, 36753, Note_off_c, 4, 52, 127
2, 36755, Note_on_c, 4, 64, 127
2, 36755, Note_on_c, 11, 70, 127
2, 36967, Note_off_c, 11, 70, 127
2, 36976, Note_on_c, 7, 67, 127
2, 37188, Note_off_c, 7, 67, 127
2, 37197, Note_on_c, 1, 73, 127
2, 37416, Note_off_c, 4, 64, 127
2, 37416, Note_off_c, 7, 79, 127
2, 37418, Note_on_c, 10, 57, 127
2, 37418, Note_on_c, 5, 77, 127
2, 37630, Note_off_c, 5, 77, 127
2, 37630, Note_off_c, 10, 57, 127
2, 37639, Note_on_c, 7, 55, 127
2, 37639, Note_on_c, 4, 76, 127
2, 37851, Note_off_c, 4, 76, 127
2, 37851, Note_off_c, 7, 55, 127
2, 37860, Note_on_c, 10, 57, 127
2, 37860, Note_on_c, 7, 79, 127
2, 38072, Note_off_c, 7, 79, 127
2, 38072, Note_off_c, 10, 57, 127
2, 38079, Note_off_c, 1, 73, 127
2, 38081, Note_on_c, 2, 50, 127
2, 38081, Note_on_c, 2, 74, 127
2, 38081, Note_on_c, 5, 77, 127
2, 38293, Note_off_c, 2, 74, 127
2, 38302, Note_on_c, 11, 70, 127
2, 38514, Note_off_c, 11, 70, 127
2, 38521, Note_off_c, 2, 50, 127
2, 38523, Note_on_c, 2, 62, 127
2, 38523, Note_on_c, 10, 69, 127
2, 38735, Note_off_c, 10, 69, 127
2, 38744, Note_on_c, 11, 70, 127
2, 38956, Note_off_c, 11, 70, 127
2, 38965, Note_on_c, 8, 68, 127
2, 39184, Note_off_c, 5, 77, 127
2, 39186, Note_on_c, 4, 76, 127
2, 39398, Note_off_c, 4, 76, 127
2, 39405, Note_off_c, 8, 68, 127
2, 39405, Note_off_c, 2, 62, 127
2, 39407, Note_on_c, 0, 60, 127
2, 39407, Note_on_c, 10, 69, 127
2, 39407, Note_on_c, 2, 74, 127
2, 39619, Note_off_c, 2, 74, 127
2, 39628, Note_on_c, 4, 76, 127
2, 39840, Note_off_c, 4, 76, 127
2, 39847, Note_off_c, 10, 69, 127
2, 39849, Note_on_c, 6, 66, 127
2, 39849, Note_on_c, 10, 69, 127
2, 40068, Note_off_c, 0, 60, 127
2, 40070, Note_on_c, 12, 59, 127
2, 40282, Note_off_c, 12, 59, 127
2, 40289, Note_off_c, 10, 69, 127
2, 40289, Note_off_c, 6, 66, 127
2, 40291, Note_on_c, 10, 57, 127
2, 40291, Note_on_c, 5, 65, 127
2, 40291, Note_on_c, 2, 74, 127
2, 40503, Note_off_c, 10, 57, 127
2, 40512, Note_on_c, 12, 59, 127
2, 40724, Note_off_c, 12, 59, 127
2, 40731, Note_off_c, 5, 65, 127
2, 40733, Note_on_c, 8, 56, 127
2, 40733, Note_on_c, 4, 64, 127
2, 40952, Note_off_c, 2, 74, 127
2, 40954, Note_on_c, 0, 72, 127
2, 41166, Note_off_c, 0, 72, 127
2, 41173, Note_off_c, 8, 56, 127
2, 41175, Note_on_c, 10, 57, 127
2, 41175, Note_on_c, 12, 71, 127
2, 41387, Note_off_c, 12, 71, 127
2, 41396, Note_on_c, 0, 72, 127
2, 41608, Note_off_c, 0, 72, 127
2, 41615, Note_off_c, 4, 64, 127
2, 41617, Note_on_c, 3, 63, 127
2, 41617, Note_on_c, 6, 66, 127
2, 41836, Note_off_c, 10, 57, 127
2, 41838, Note_on_c, 8, 56, 127
2, 42050, Note_off_c, 8, 56, 127
2, 42057, Note_off_c, 6, 66, 127
2, 42057, Note_off_c, 3, 63, 127
2, 42059, Note_on_c, 6, 54, 127
2, 42059, Note_on_c, 2, 62, 127
2, 42059, Note_on_c, 12, 71, 127
2, 42271, Note_off_c, 6, 54, 127
2, 42280, Note_on_c, 8, 56, 127
2, 42492, Note_off_c, 8, 56, 127
2, 42499, Note_off_c, 2, 62, 127
2, 42501, Note_on_c, 10, 57, 127
2, 42501, Note_on_c, 1, 61, 127
2, 42720, Note_off_c, 12, 71, 127
2, 42722, Note_on_c, 10, 69, 127
2, 42934, Note_off_c, 10, 69, 127
2, 42941, Note_off_c, 1, 61, 127
2, 42941, Note_off_c, 10, 57, 127
2, 42943, Note_on_c, 3, 51, 127
2, 42943, Note_on_c, 0, 60, 127
2, 42943, Note_on_c, 8, 68, 127
2, 43155, Note_off_c, 8, 68, 127
2, 43164, Note_on_c, 10, 69, 127
2, 43383, Note_off_c, 0, 60, 127
2, 43383, Note_off_c, 3, 51, 127
2, 43385, Note_on_c, 4, 52, 127
2, 43385, Note_on_c, 12, 59, 127
2, 43604, Note_off_c, 10, 69, 127
2, 43606, Note_on_c, 8, 68, 127
2, 43818, Note_off_c, 8, 68, 127
2, 43825, Note_off_c, 4, 52, 127
2, 43827, Note_on_c, 4, 40, 127
2, 43827, Note_on_c, 6, 66, 127
2, 44039, Note_off_c, 6, 66, 127
2, 44048, Note_on_c, 8, 68, 127
2, 44256, Note_off_c, 8, 68, 127
2, 44268, Note_off_c, 4, 40, 127
2, 44268, Note_off_c, 12, 59, 127
2, 44270, Note_on_c, 10, 45, 127
2, 44270, Note_on_c, 10, 57, 127
2, 44492, Note_on_c, 10, 69, 127
2, 44704, Note_off_c, 10, 69, 127
2, 44711, Note_off_c, 10, 45, 127
2, 44713, Note_on_c, 12, 47, 127
2, 44713, Note_on_c, 8, 68, 127
2, 44925, Note_off_c, 8, 68, 127
2, 44934, Note_on_c, 10, 69, 127
2, 45146, Note_off_c, 10, 69, 127
2, 45146, Note_off_c, 10, 57, 127
2, 45153, Note_off_c, 12, 47, 127
2, 45155, Note_on_c, 0, 48, 127
2, 45155, Note_on_c, 4, 64, 127
2, 45596, Note_off_c, 4, 64, 127
2, 45596, Note_off_c, 0, 48, 127
2, 45598, Note_on_c, 10, 45, 127
2, 45598, Note_on_c, 0, 72, 127
2, 46039, Note_off_c, 10, 45, 127
2, 46041, Note_on_c, 4, 52, 127
2, 46260, Note_off_c, 0, 72, 127
2, 46262, Note_on_c, 12, 71, 127
2, 46474, Note_off_c, 12, 71, 127
2, 46481, Note_off_c, 4, 52, 127
2, 46483, Note_on_c, 6, 54, 127
2, 46483, Note_on_c, 10, 69, 127
2, 46695, Note_off_c, 10, 69, 127
2, 46704, Note_on_c, 12, 71, 127
2, 46916, Note_off_c, 12, 71, 127
2, 46923, Note_off_c, 6, 54, 127
2, 46925, Note_on_c, 8, 56, 127
2, 46925, Note_on_c, 4, 64, 127
2, 47366, Note_off_c, 4, 64, 127
2, 47366, Note_off_c, 8, 56, 127
2, 47368, Note_on_c, 4, 52, 127
2, 47368, Note_on_c, 2, 74, 127
2, 47809, Note_off_c, 4, 52, 127
2, 47811, Note_on_c, 10, 57, 127
2, 48030, Note_off_c, 2, 74, 127
2, 48032, Note_on_c, 4, 64, 127
2, 48032, Note_on_c, 0, 72, 127
2, 48244, Note_off_c, 0, 72, 127
2, 48244, Note_off_c, 4, 64, 127
2, 48253, Note_on_c, 3, 63, 127
2, 48253, Note_on_c, 12, 71, 127
2, 48465, Note_off_c, 12, 71, 127
2, 48465, Note_off_c, 3, 63, 127
2, 48474, Note_on_c, 4, 64, 127
2, 48474, Note_on_c, 0, 72, 127
2, 48686, Note_off_c, 0, 72, 127
2, 48686, Note_off_c, 4, 64, 127
2, 48686, Note_off_c, 10, 57, 127
2, 48695, Note_on_c, 10, 57, 127
2, 48695, Note_on_c, 3, 75, 127
2, 48917, Note_on_c, 7, 55, 127
2, 49129, Note_off_c, 7, 55, 127
2, 49136, Note_off_c, 10, 57, 127
2, 49138, Note_on_c, 6, 54, 127
2, 49138, Note_on_c, 7, 67, 127
2, 49350, Note_off_c, 6, 54, 127
2, 49359, Note_on_c, 7, 55, 127
2, 49571, Note_off_c, 7, 55, 127
2, 49580, Note_on_c, 2, 50, 127
2, 49799, Note_off_c, 7, 67, 127
2, 49799, Note_off_c, 3, 75, 127
2, 49801, Note_on_c, 6, 66, 127
2, 49801, Note_on_c, 2, 74, 127
2, 50013, Note_off_c, 6, 66, 127
2, 50020, Note_off_c, 2, 50, 127
2, 50022, Note_on_c, 0, 48, 127
2, 50022, Note_on_c, 4, 64, 127
2, 50234, Note_off_c, 4, 64, 127
2, 50243, Note_on_c, 6, 66, 127
2, 50455, Note_off_c, 6, 66, 127
2, 50462, Note_off_c, 0, 48, 127
2, 50464, Note_on_c, 11, 46, 127
2, 50464, Note_on_c, 2, 62, 127
2, 50676, Note_off_c, 2, 74, 127
2, 50904, Note_off_c, 2, 62, 127
2, 50904, Note_off_c, 11, 46, 127
2, 50906, Note_on_c, 10, 45, 127
2, 50906, Note_on_c, 0, 72, 127
2, 50906, Note_on_c, 6, 78, 127
2, 51347, Note_off_c, 6, 78, 127
2, 51347, Note_off_c, 10, 45, 127
2, 51349, Note_on_c, 7, 43, 127
2, 51349, Note_on_c, 7, 79, 127
2, 51561, Note_off_c, 7, 43, 127
2, 51568, Note_off_c, 0, 72, 127
2, 51570, Note_on_c, 7, 55, 127
2, 51570, Note_on_c, 11, 70, 127
2, 51782, Note_off_c, 11, 70, 127
2, 51782, Note_off_c, 7, 55, 127
2, 51791, Note_on_c, 6, 54, 127
2, 51791, Note_on_c, 10, 69, 127
2, 52003, Note_off_c, 10, 69, 127
2, 52003, Note_off_c, 6, 54, 127
2, 52012, Note_on_c, 7, 55, 127
2, 52012, Note_on_c, 11, 70, 127
2, 52224, Note_off_c, 11, 70, 127
2, 52224, Note_off_c, 7, 55, 127
2, 52233, Note_on_c, 2, 50, 127
2, 52233, Note_on_c, 0, 72, 127
2, 52445, Note_off_c, 0, 72, 127
2, 52454, Note_on_c, 2, 74, 127
2, 52666, Note_off_c, 2, 74, 127
2, 52673, Note_off_c, 2, 50, 127
2, 52675, Note_on_c, 11, 58, 127
2, 52675, Note_on_c, 0, 72, 127
2, 52887, Note_off_c, 0, 72, 127
2, 52896, Note_on_c, 2, 74, 127
2, 53108, Note_off_c, 2, 74, 127
2, 53117, Note_on_c, 3, 75, 127
2, 53336, Note_off_c, 11, 58, 127
2, 53336, Note_off_c, 7, 79, 127
2, 53338, Note_on_c, 10, 57, 127
2, 53338, Note_on_c, 6, 78, 127
2, 53550, Note_off_c, 6, 78, 127
2, 53550, Note_off_c, 10, 57, 127
2, 53559, Note_on_c, 7, 55, 127
2, 53559, Note_on_c, 11, 82, 127
2, 53771, Note_off_c, 11, 82, 127
2, 53771, Note_off_c, 7, 55, 127
2, 53780, Note_on_c, 10, 57, 127
2, 53780, Note_on_c, 10, 81, 127
2, 53992, Note_off_c, 10, 81, 127
2, 53992, Note_off_c, 10, 57, 127
2, 54001, Note_on_c, 2, 50, 127
2, 54001, Note_on_c, 6, 78, 127
2, 54220, Note_off_c, 3, 75, 127
2, 54222, Note_on_c, 2, 74, 127
2, 54434, Note_off_c, 2, 74, 127
2, 54441, Note_off_c, 2, 50, 127
2, 54443, Note_on_c, 0, 60, 127
2, 54443, Note_on_c, 3, 75, 127
2, 54655, Note_off_c, 3, 75, 127
2, 54664, Note_on_c, 0, 72, 127
2, 54876, Note_off_c, 0, 72, 127
2, 54883, Note_off_c, 6, 78, 127
2, 54885, Note_on_c, 2, 74, 127
2, 54885, Note_on_c, 7, 79, 127
2, 55093, Note_off_c, 2, 74, 127
2, 55098, Note_off_c, 7, 79, 127
2, 55105, Note_off_c, 0, 60, 127
2, 55107, Note_on_c, 11, 58, 127
2, 55107, Note_on_c, 2, 74, 127
2, 55319, Note_off_c, 2, 74, 127
2, 55319, Note_off_c, 11, 58, 127
2, 55328, Note_on_c, 10, 57, 127
2, 55328, Note_on_c, 0, 72, 127
2, 55540, Note_off_c, 0, 72, 127
2, 55540, Note_off_c, 10, 57, 127
2, 55549, Note_on_c, 11, 58, 127
2, 55549, Note_on_c, 2, 74, 127
2, 55761, Note_off_c, 2, 74, 127
2, 55761, Note_off_c, 11, 58, 127
2, 55770, Note_on_c, 0, 60, 127
2, 55770, Note_on_c, 7, 67, 127
2, 55982, Note_off_c, 0, 60, 127
2, 55991, Note_on_c, 11, 58, 127
2, 56203, Note_off_c, 11, 58, 127
2, 56210, Note_off_c, 7, 67, 127
2, 56212, Note_on_c, 10, 57, 127
2, 56212, Note_on_c, 5, 77, 127
2, 56424, Note_off_c, 10, 57, 127
2, 56433, Note_on_c, 7, 55, 127
2, 56645, Note_off_c, 7, 55, 127
2, 56654, Note_on_c, 0, 60, 127
2, 56873, Note_off_c, 5, 77, 127
2, 56875, Note_on_c, 4, 76, 127
2, 57087, Note_off_c, 4, 76, 127
2, 57094, Note_off_c, 0, 60, 127
2, 57096, Note_on_c, 2, 62, 127
2, 57096, Note_on_c, 2, 74, 127
2, 57308, Note_off_c, 2, 74, 127
2, 57317, Note_on_c, 4, 76, 127
2, 57529, Note_off_c, 4, 76, 127
2, 57536, Note_off_c, 2, 62, 127
2, 57538, Note_on_c, 4, 64, 127
2, 57538, Note_on_c, 0, 72, 127
2, 57979, Note_off_c, 0, 72, 127
2, 57979, Note_off_c, 4, 64, 127
2, 57981, Note_on_c, 0, 60, 127
2, 57981, Note_on_c, 11, 82, 127
2, 58422, Note_off_c, 0, 60, 127
2, 58424, Note_on_c, 5, 53, 127
2, 58643, Note_off_c, 11, 82, 127
2, 58645, Note_on_c, 5, 65, 127
2, 58645, Note_on_c, 10, 81, 127
2, 58857, Note_off_c, 10, 81, 127
2, 58857, Note_off_c, 5, 65, 127
2, 58866, Note_on_c, 4, 64, 127
2, 58866, Note_on_c, 7, 79, 127
2, 59078, Note_off_c, 7, 79, 127
2, 59078, Note_off_c, 4, 64, 127
2, 59087, Note_on_c, 5, 65, 127
2, 59087, Note_on_c, 11, 82, 127
2, 59299, Note_off_c, 11, 82, 127
2, 59299, Note_off_c, 5, 65, 127
2, 59308, Note_on_c, 0, 60, 127
2, 59308, Note_on_c, 10, 81, 127
2, 59520, Note_off_c, 10, 81, 127
2, 59529, Note_on_c, 7, 79, 127
2, 59741, Note_off_c, 7, 79, 127
2, 59748, Note_off_c, 0, 60, 127
2, 59748, Note_off_c, 5, 53, 127
2, 59750, Note_on_c, 5, 53, 127
2, 59750, Note_on_c, 10, 69, 127
2, 59750, Note_on_c, 5, 77, 127
2, 59962, Note_off_c, 5, 77, 127
2, 59971, Note_on_c, 4, 76, 127
2, 60183, Note_off_c, 4, 76, 127
2, 60190, Note_off_c, 5, 53, 127
2, 60192, Note_on_c, 11, 58, 127
2, 60192, Note_on_c, 2, 74, 127
2, 60411, Note_off_c, 10, 69, 127
2, 60413, Note_on_c, 7, 67, 127
2, 60625, Note_off_c, 7, 67, 127
2, 60632, Note_off_c, 11, 58, 127
2, 60634, Note_on_c, 10, 57, 127
2, 60634, Note_on_c, 5, 65, 127
2, 60846, Note_off_c, 5, 65, 127
2, 60855, Note_on_c, 7, 67, 127
2, 61067, Note_off_c, 7, 67, 127
2, 61074, Note_off_c, 10, 57, 127
2, 61076, Note_on_c, 7, 55, 127
2, 61076, Note_on_c, 11, 58, 127
2, 61295, Note_off_c, 2, 74, 127
2, 61297, Note_on_c, 5, 77, 127
2, 61509, Note_off_c, 5, 77, 127
2, 61516, Note_off_c, 11, 58, 127
2, 61516, Note_off_c, 7, 55, 127
2, 61518, Note_on_c, 11, 58, 127
2, 61518, Note_on_c, 7, 67, 127
2, 61518, Note_on_c, 4, 76, 127
2, 61730, Note_off_c, 4, 76, 127
2, 61739, Note_on_c, 2, 74, 127
2, 61951, Note_off_c, 2, 74, 127
2, 61958, Note_off_c, 11, 58, 127
2, 61960, Note_on_c, 10, 57, 127
2, 61960, Note_on_c, 1, 73, 127
2, 62179, Note_off_c, 7, 67, 127
2, 62181, Note_on_c, 5, 65, 127
2, 62393, Note_off_c, 5, 65, 127
2, 62400, Note_off_c, 10, 57, 127
2, 62402, Note_on_c, 7, 55, 127
2, 62402, Note_on_c, 4, 64, 127
2, 62614, Note_off_c, 4, 64, 127
2, 62623, Note_on_c, 5, 65, 127
2, 62835, Note_off_c, 5, 65, 127
2, 62842, Note_off_c, 7, 55, 127
2, 62844, Note_on_c, 5, 53, 127
2, 62844, Note_on_c, 10, 57, 127
2, 63063, Note_off_c, 1, 73, 127
2, 63065, Note_on_c, 10, 69, 127
2, 63277, Note_off_c, 10, 69, 127
2, 63284, Note_off_c, 10, 57, 127
2, 63284, Note_off_c, 5, 53, 127
2, 63286, Note_on_c, 2, 50, 127
2, 63286, Note_on_c, 5, 65, 127
2, 63286, Note_on_c, 2, 74, 127
2, 63498, Note_off_c, 2, 74, 127
2, 63507, Note_on_c, 0, 72, 127
2, 63719, Note_off_c, 0, 72, 127
2, 63726, Note_off_c, 2, 50, 127
2, 63728, Note_on_c, 7, 55, 127
2, 63728, Note_on_c, 11, 70, 127
2, 63947, Note_off_c, 5, 65, 127
2, 63949, Note_on_c, 4, 64, 127
2, 64161, Note_off_c, 4, 64, 127
2, 64168, Note_off_c, 7, 55, 127
2, 64170, Note_on_c, 5, 53, 127
2, 64170, Note_on_c, 2, 62, 127
2, 64382, Note_off_c, 2, 62, 127
2, 64391, Note_on_c, 5, 65, 127
2, 64603, Note_off_c, 5, 65, 127
2, 64610, Note_off_c, 5, 53, 127
2, 64612, Note_on_c, 7, 55, 127
2, 64612, Note_on_c, 3, 63, 127
2, 64824, Note_off_c, 3, 63, 127
2, 64833, Note_on_c, 2, 62, 127
2, 65045, Note_off_c, 2, 62, 127
2, 65052, Note_off_c, 7, 55, 127
2, 65054, Note_on_c, 4, 52, 127
2, 65054, Note_on_c, 1, 61, 127
2, 65266, Note_off_c, 1, 61, 127
2, 65275, Note_on_c, 2, 62, 127
2, 65487, Note_off_c, 2, 62, 127
2, 65494, Note_off_c, 4, 52, 127
2, 65496, Note_on_c, 10, 57, 127
2, 65496, Note_on_c, 1, 61, 127
2, 65715, Note_off_c, 11, 70, 127
2, 65717, Note_on_c, 10, 69, 127
2, 65929, Note_off_c, 10, 69, 127
2, 65936, Note_off_c, 1, 61, 127
2, 65936, Note_off_c, 10, 57, 127
2, 65938, Note_on_c, 12, 59, 127
2, 65938, Note_on_c, 2, 62, 127
2, 65938, Note_on_c, 8, 68, 127
2, 66150, Note_off_c, 8, 68, 127
2, 66159, Note_on_c, 12, 71, 127
2, 66371, Note_off_c, 12, 71, 127
2, 66378, Note_off_c, 2, 62, 127
2, 66378, Note_off_c, 12, 59, 127
2, 66380, Note_on_c, 1, 61, 127
2, 66380, Note_on_c, 4, 64, 127
2, 66380, Note_on_c, 10, 69, 127
2, 66592, Note_off_c, 10, 69, 127
2, 66601, Note_on_c, 7, 67, 127
2, 66813, Note_off_c, 7, 67, 127
2, 66820, Note_off_c, 1, 61, 127
2, 66822, Note_on_c, 10, 57, 127
2, 66822, Note_on_c, 5, 65, 127
2, 67034, Note_off_c, 5, 65, 127
2, 67043, Note_on_c, 7, 67, 127
2, 67255, Note_off_c, 7, 67, 127
2, 67262, Note_off_c, 10, 57, 127
2, 67264, Note_on_c, 2, 62, 127
2, 67264, Note_on_c, 5, 65, 127
2, 67280, Note_off_c, 4, 64, 127
2, 67476, Note_off_c, 2, 62, 127
2, 67485, Note_on_c, 2, 50, 127
2, 67697, Note_off_c, 2, 50, 127
2, 67706, Note_on_c, 1, 49, 127
2, 67706, Note_on_c, 10, 57, 127
2, 67918, Note_off_c, 1, 49, 127
2, 67927, Note_on_c, 2, 50, 127
2, 68139, Note_off_c, 2, 50, 127
2, 68146, Note_off_c, 10, 57, 127
2, 68148, Note_on_c, 10, 45, 127
2, 68148, Note_on_c, 2, 62, 127
2, 68367, Note_off_c, 5, 65, 127
2, 68369, Note_on_c, 10, 69, 127
2, 68581, Note_off_c, 10, 69, 127
2, 68588, Note_off_c, 10, 45, 127
2, 68590, Note_on_c, 5, 53, 127
2, 68590, Note_on_c, 7, 67, 127
2, 68802, Note_off_c, 7, 67, 127
2, 68811, Note_on_c, 10, 69, 127
2, 69023, Note_off_c, 10, 69, 127
2, 69032, Note_on_c, 11, 70, 127
2, 69251, Note_off_c, 5, 53, 127
2, 69251, Note_off_c, 2, 62, 127
2, 69253, Note_on_c, 4, 52, 127
2, 69253, Note_on_c, 7, 67, 127
2, 69465, Note_off_c, 7, 67, 127
2, 69465, Note_off_c, 4, 52, 127
2, 69472, Note_off_c, 11, 70, 127
2, 69474, Note_on_c, 2, 50, 127
2, 69474, Note_on_c, 5, 65, 127
2, 69474, Note_on_c, 12, 71, 127
2, 69686, Note_off_c, 5, 65, 127
2, 69686, Note_off_c, 2, 50, 127
2, 69695, Note_on_c, 4, 52, 127
2, 69695, Note_on_c, 7, 67, 127
2, 69907, Note_off_c, 7, 67, 127
2, 69907, Note_off_c, 4, 52, 127
2, 69914, Note_off_c, 12, 71, 127
2, 69916, Note_on_c, 10, 45, 127
2, 69916, Note_on_c, 4, 64, 127
2, 69916, Note_on_c, 0, 72, 127
2, 70128, Note_off_c, 4, 64, 127
2, 70137, Note_on_c, 11, 70, 127
2, 70349, Note_off_c, 11, 70, 127
2, 70356, Note_off_c, 0, 72, 127
2, 70356, Note_off_c, 10, 45, 127
2, 70358, Note_on_c, 7, 55, 127
2, 70358, Note_on_c, 10, 69, 127
2, 70358, Note_on_c, 1, 73, 127
2, 70570, Note_off_c, 10, 69, 127
2, 70579, Note_on_c, 7, 67, 127
2, 70791, Note_off_c, 7, 67, 127
2, 70798, Note_off_c, 1, 73, 127
2, 70800, Note_on_c, 10, 69, 127
2, 70800, Note_on_c, 2, 74, 127
2, 71012, Note_off_c, 10, 69, 127
2, 71019, Note_off_c, 7, 55, 127
2, 71021, Note_on_c, 6, 54, 127
2, 71021, Note_on_c, 2, 62, 127
2, 71233, Note_off_c, 2, 62, 127
2, 71233, Note_off_c, 6, 54, 127
2, 71242, Note_on_c, 4, 52, 127
2, 71242, Note_on_c, 0, 72, 127
2, 71454, Note_off_c, 4, 52, 127
2, 71463, Note_on_c, 6, 54, 127
2, 71675, Note_off_c, 6, 54, 127
2, 71684, Note_on_c, 2, 50, 127
2, 71903, Note_off_c, 0, 72, 127
2, 71905, Note_on_c, 11, 70, 127
2, 72117, Note_off_c, 11, 70, 127
2, 72124, Note_off_c, 2, 50, 127
2, 72126, Note_on_c, 0, 60, 127
2, 72126, Note_on_c, 10, 69, 127
2, 72338, Note_off_c, 10, 69, 127
2, 72347, Note_on_c, 11, 70, 127
2, 72559, Note_off_c, 11, 70, 127
2, 72566, Note_off_c, 0, 60, 127
2, 72568, Note_on_c, 11, 58, 127
2, 72568, Note_on_c, 10, 69, 127
2, 72780, Note_off_c, 10, 69, 127
2, 72789, Note_on_c, 7, 67, 127
2, 73001, Note_off_c, 7, 67, 127
2, 73008, Note_off_c, 11, 58, 127
2, 73010, Note_on_c, 10, 57, 127
2, 73010, Note_on_c, 6, 66, 127
2, 73222, Note_off_c, 6, 66, 127
2, 73231, Note_on_c, 7, 67, 127
2, 73443, Note_off_c, 7, 67, 127
2, 73450, Note_off_c, 10, 57, 127
2, 73452, Note_on_c, 11, 58, 127
2, 73452, Note_on_c, 2, 62, 127
2, 73664, Note_off_c, 11, 58, 127
2, 73673, Note_on_c, 10, 57, 127
2, 73885, Note_off_c, 10, 57, 127
2, 73892, Note_off_c, 2, 62, 127
2, 73892, Note_off_c, 2, 74, 127
2, 73894, Note_on_c, 7, 55, 127
2, 73894, Note_on_c, 11, 70, 127
2, 73894, Note_on_c, 2, 74, 127
2, 74106, Note_off_c, 7, 55, 127
2, 74115, Note_on_c, 10, 57, 127
2, 74327, Note_off_c, 10, 57, 127
2, 74334, Note_off_c, 2, 74, 127
2, 74336, Note_on_c, 7, 55, 127
2, 74336, Note_on_c, 1, 73, 127
2, 74550, Note_off_c, 7, 55, 127
2, 74557, Note_off_c, 11, 70, 127
2, 74559, Note_on_c, 6, 54, 127
2, 74559, Note_on_c, 10, 69, 127
2, 74773, Note_off_c, 10, 69, 127
2, 74773, Note_off_c, 6, 54, 127
2, 74780, Note_off_c, 1, 73, 127
2, 74782, Note_on_c, 4, 52, 127
2, 74782, Note_on_c, 7, 67, 127
2, 74782, Note_on_c, 0, 72, 127
2, 74996, Note_off_c, 7, 67, 127
2, 74996, Note_off_c, 4, 52, 127
2, 75005, Note_on_c, 6, 54, 127
2, 75005, Note_on_c, 10, 69, 127
2, 75219, Note_off_c, 10, 69, 127
2, 75219, Note_off_c, 6, 54, 127
2, 75226, Note_off_c, 0, 72, 127
2, 75228, Note_on_c, 7, 55, 127
2, 75228, Note_on_c, 2, 62, 127
2, 75228, Note_on_c, 12, 71, 127
2, 75444, Note_off_c, 7, 55, 127
2, 75453, Note_on_c, 5, 53, 127
2, 75669, Note_off_c, 5, 53, 127
2, 75676, Note_off_c, 12, 71, 127
2, 75676, Note_off_c, 2, 62, 127
2, 75678, Note_on_c, 3, 51, 127
2, 75678, Note_on_c, 7, 67, 127
2, 75678, Note_on_c, 11, 70, 127
2, 75894, Note_off_c, 3, 51, 127
2, 75903, Note_on_c, 2, 50, 127
2, 76119, Note_off_c, 2, 50, 127
2, 76126, Note_off_c, 11, 70, 127
2, 76128, Note_on_c, 1, 49, 127
2, 76128, Note_on_c, 10, 69, 127
2, 76354, Note_off_c, 7, 67, 127
2, 76356, Note_on_c, 5, 65, 127
2, 76575, Note_off_c, 5, 65, 127
2, 76582, Note_off_c, 1, 49, 127
2, 76584, Note_on_c, 2, 50, 127
2, 76584, Note_on_c, 4, 64, 127
2, 76803, Note_off_c, 4, 64, 127
2, 76813, Note_on_c, 5, 65, 127
2, 77032, Note_off_c, 5, 65, 127
2, 77039, Note_off_c, 10, 69, 127
2, 77041, Note_on_c, 12, 59, 127
2, 77041, Note_on_c, 8, 68, 127
2, 77267, Note_off_c, 2, 50, 127
2, 77269, Note_on_c, 1, 49, 127
2, 77488, Note_off_c, 1, 49, 127
2, 77495, Note_off_c, 8, 68, 127
2, 77495, Note_off_c, 12, 59, 127
2, 77497, Note_on_c, 12, 47, 127
2, 77497, Note_on_c, 4, 64, 127
2, 77497, Note_on_c, 7, 67, 127
2, 77716, Note_off_c, 12, 47, 127
2, 77726, Note_on_c, 1, 49, 127
2, 77945, Note_off_c, 1, 49, 127
2, 77952, Note_off_c, 7, 67, 127
2, 77954, Note_on_c, 2, 50, 127
2, 77954, Note_on_c, 6, 66, 127
2, 78182, Note_off_c, 4, 64, 127
2, 78184, Note_on_c, 2, 62, 127
2, 78405, Note_off_c, 2, 62, 127
2, 78412, Note_off_c, 6, 66, 127
2, 78412, Note_off_c, 2, 50, 127
2, 78414, Note_on_c, 8, 44, 127
2, 78414, Note_on_c, 1, 61, 127
2, 78414, Note_on_c, 5, 65, 127
2, 78635, Note_off_c, 1, 61, 127
2, 78645, Note_on_c, 2, 62, 127
2, 78873, Note_off_c, 5, 65, 127
2, 78873, Note_off_c, 8, 44, 127
2, 78875, Note_on_c, 10, 45, 127
2, 78875, Note_on_c, 4, 64, 127
2, 79128, Note_off_c, 2, 62, 127
2, 79131, Note_on_c, 1, 61, 127
2, 79376, Note_off_c, 1, 61, 127
2, 79387, Note_on_c, 12, 59, 127
2, 79663, Note_off_c, 12, 59, 127
2, 79675, Note_on_c, 1, 61, 127
2, 79951, Note_off_c, 1, 61, 127
2, 79951, Note_off_c, 4, 64, 127
2, 79960, Note_off_c, 10, 45, 127
2, 79963, Note_on_c, 2, 38, 127
2, 79963, Note_on_c, 2, 62, 127
2, 82261, Note_off_c, 2, 62, 127
2, 82261, Note_off_c, 2, 38, 127
2, 87552, End_track
3, 0, Start_track
3, 0, Title_t, "MIDI"
3, 1536, End_track
0, 0, End_of_file
