0, 0, Header, 1, 3, 384
1, 0, Start_track
1, 0, Tempo, 500000
1, 0, Time_signature, 4, 2, 24, 8
1, 101376, End_track
2, 0, Start_track
2, 0, Text_t, "harpsichord: John Sankey"
2, 0, Program_c, 0, 6
2, 0, Pitch_bend_c, 0, 8192
2, 0, Program_c, 1, 6
2, 0, Pitch_bend_c, 1, 7792
2, 0, Program_c, 2, 6
2, 0, Pitch_bend_c, 2, 7876
2, 0, Program_c, 3, 6
2, 0, Pitch_bend_c, 3, 7952
2, 0, Program_c, 4, 6
2, 0, Pitch_bend_c, 4, 7792
2, 0, Program_c, 5, 6
2, 0, Pitch_bend_c, 5, 8112
2, 0, Program_c, 6, 6
2, 0, Pitch_bend_c, 6, 7712
2, 0, Program_c, 7, 6
2, 0, Pitch_bend_c, 7, 8037
2, 0, Program_c, 8, 6
2, 0, Pitch_bend_c, 8, 7872
2, 0, Program_c, 10, 6
2, 0, Pitch_bend_c, 10, 7712
2, 0, Program_c, 11, 6
2, 0, Pitch_bend_c, 11, 8032
2, 0, Program_c, 12, 6
2, 0, Pitch_bend_c, 12, 7872
2, 0, Title_t, "Track 1"
2, 48, Note_on_c, 4, 52, 127
2, 430, Note_on_c, 12, 71, 127
2, 430, Note_on_c, 4, 40, 127
2, 788, Note_off_c, 12, 71, 127
2, 796, Note_on_c, 4, 76, 127
2, 887, Note_off_c, 4, 52, 127
2, 1040, Note_off_c, 4, 40, 127
2, 1154, Note_off_c, 4, 76, 127
2, 1162, Note_on_c, 6, 78, 127
2, 1162, Note_on_c, 12, 59, 127
2, 1520, Note_off_c, 12, 59, 127
2, 1520, Note_off_c, 6, 78, 127
2, 1528, Note_on_c, 7, 79, 127
2, 1528, Note_on_c, 4, 64, 127
2, 1886, Note_off_c, 4, 64, 127
2, 1894, Note_on_c, 2, 62, 127
2, 2252, Note_off_c, 2, 62, 127
2, 2260, Note_on_c, 0, 60, 127
2, 2624, Note_off_c, 7, 79, 127
2, 2626, Note_on_c, 6, 78, 127
2, 2984, Note_off_c, 6, 78, 127
2, 2992, Note_on_c, 10, 81, 127
2, 3350, Note_off_c, 10, 81, 127
2, 3356, Note_off_c, 0, 60, 127
2, 3358, Note_on_c, 7, 79, 127
2, 3358, Note_on_c, 12, 59, 127
2, 3716, Note_off_c, 12, 59, 127
2, 3716, Note_off_c, 7, 79, 127
2, 3724, Note_on_c, 6, 78, 127
2, 3724, Note_on_c, 10, 57, 127
2, 4082, Note_off_c, 10, 57, 127
2, 4082, Note_off_c, 6, 78, 127
2, 4090, Note_on_c, 4, 76, 127
2, 4090, Note_on_c, 0, 60, 127
2, 4448, Note_off_c, 0, 60, 127
2, 4448, Note_off_c, 4, 76, 127
2, 4456, Note_on_c, 3, 75, 127
2, 4456, Note_on_c, 12, 59, 127
2, 4637, Note_off_c, 3, 75, 127
2, 4639, Note_on_c, 1, 73, 127
2, 4820, Note_off_c, 1, 73, 127
2, 4822, Note_on_c, 12, 71, 127
2, 4822, Note_on_c, 6, 66, 127
2, 5003, Note_off_c, 12, 71, 127
2, 5005, Note_on_c, 1, 73, 127
2, 5180, Note_off_c, 6, 66, 127
2, 5186, Note_off_c, 1, 73, 127
2, 5188, Note_on_c, 2, 74, 127
2, 5188, Note_on_c, 12, 71, 127
2, 5546, Note_off_c, 12, 71, 127
2, 5546, Note_off_c, 2, 74, 127
2, 5552, Note_off_c, 12, 59, 127
2, 5554, Note_on_c, 4, 76, 127
2, 5554, Note_on_c, 1, 73, 127
2, 5554, Note_on_c, 10, 57, 127
2, 5912, Note_off_c, 10, 57, 127
2, 5912, Note_off_c, 1, 73, 127
2, 5912, Note_off_c, 4, 76, 127
2, 5920, Note_on_c, 6, 78, 127
2, 5920, Note_on_c, 2, 74, 127
2, 5920, Note_on_c, 7, 55, 127
2, 6278, Note_off_c, 7, 55, 127
2, 6286, Note_on_c, 6, 54, 127
2, 6644, Note_off_c, 6, 54, 127
2, 6652, Note_on_c, 4, 52, 127
2, 7016, Note_off_c, 2, 74, 127
2, 7016, Note_off_c, 6, 78, 127
2, 7018, Note_on_c, 4, 76, 127
2, 7018, Note_on_c, 1, 73, 127
2, 7376, Note_off_c, 1, 73, 127
2, 7376, Note_off_c, 4, 76, 127
2, 7384, Note_on_c, 7, 79, 127
2, 7384, Note_on_c, 4, 76, 127
2, 7742, Note_off_c, 4, 76, 127
2, 7742, Note_off_c, 7, 79, 127
2, 7748, Note_off_c, 4, 52, 127
2, 7750, Note_on_c, 6, 78, 127
2, 7750, Note_on_c, 2, 74, 127
2, 7750, Note_on_c, 6, 54, 127
2, 8108, Note_off_c, 6, 54, 127
2, 8108, Note_off_c, 2, 74, 127
2, 8108, Note_off_c, 6, 78, 127
2, 8116, Note_on_c, 4, 76, 127
2, 8116, Note_on_c, 1, 73, 127
2, 8116, Note_on_c, 7, 55, 127
2, 8474, Note_off_c, 7, 55, 127
2, 8474, Note_off_c, 1, 73, 127
2, 8474, Note_off_c, 4, 76, 127
2, 8482, Note_on_c, 2, 74, 127
2, 8482, Note_on_c, 12, 71, 127
2, 8482, Note_on_c, 4, 52, 127
2, 8840, Note_off_c, 4, 52, 127
2, 8840, Note_off_c, 12, 71, 127
2, 8840, Note_off_c, 2, 74, 127
2, 8848, Note_on_c, 1, 73, 127
2, 8848, Note_on_c, 11, 70, 127
2, 8848, Note_on_c, 6, 54, 127
2, 9029, Note_off_c, 11, 70, 127
2, 9031, Note_on_c, 8, 68, 127
2, 9206, Note_off_c, 1, 73, 127
2, 9212, Note_off_c, 8, 68, 127
2, 9214, Note_on_c, 1, 73, 127
2, 9214, Note_on_c, 6, 66, 127
2, 9395, Note_off_c, 6, 66, 127
2, 9397, Note_on_c, 8, 68, 127
2, 9572, Note_off_c, 1, 73, 127
2, 9578, Note_off_c, 8, 68, 127
2, 9580, Note_on_c, 6, 78, 127
2, 9580, Note_on_c, 10, 69, 127
2, 9761, Note_off_c, 6, 54, 127
2, 9763, Note_on_c, 7, 55, 127
2, 9938, Note_off_c, 10, 69, 127
2, 9938, Note_off_c, 6, 78, 127
2, 9944, Note_off_c, 7, 55, 127
2, 9946, Note_on_c, 7, 79, 127
2, 9946, Note_on_c, 12, 71, 127
2, 9946, Note_on_c, 10, 57, 127
2, 10127, Note_off_c, 10, 57, 127
2, 10129, Note_on_c, 7, 55, 127
2, 10304, Note_off_c, 12, 71, 127
2, 10304, Note_off_c, 7, 79, 127
2, 10310, Note_off_c, 7, 55, 127
2, 10312, Note_on_c, 10, 81, 127
2, 10312, Note_on_c, 0, 72, 127
2, 10312, Note_on_c, 6, 54, 127
2, 10493, Note_off_c, 6, 54, 127
2, 10495, Note_on_c, 4, 52, 127
2, 10676, Note_off_c, 4, 52, 127
2, 10678, Note_on_c, 3, 51, 127
2, 10859, Note_off_c, 3, 51, 127
2, 10861, Note_on_c, 4, 52, 127
2, 11042, Note_off_c, 4, 52, 127
2, 11044, Note_on_c, 3, 51, 127
2, 11408, Note_off_c, 0, 72, 127
2, 11408, Note_off_c, 10, 81, 127
2, 11410, Note_on_c, 6, 78, 127
2, 11410, Note_on_c, 10, 69, 127
2, 11768, Note_off_c, 10, 69, 127
2, 11768, Note_off_c, 6, 78, 127
2, 11776, Note_on_c, 10, 81, 127
2, 11776, Note_on_c, 0, 72, 127
2, 11959, Note_off_c, 3, 51, 127
2, 12134, Note_off_c, 0, 72, 127
2, 12134, Note_off_c, 10, 81, 127
2, 12142, Note_on_c, 7, 79, 127
2, 12142, Note_on_c, 12, 71, 127
2, 12142, Note_on_c, 4, 52, 127
2, 12500, Note_off_c, 4, 52, 127
2, 12500, Note_off_c, 12, 71, 127
2, 12500, Note_off_c, 7, 79, 127
2, 12508, Note_on_c, 6, 78, 127
2, 12508, Note_on_c, 10, 69, 127
2, 12508, Note_on_c, 0, 48, 127
2, 12866, Note_off_c, 0, 48, 127
2, 12866, Note_off_c, 10, 69, 127
2, 12866, Note_off_c, 6, 78, 127
2, 12874, Note_on_c, 4, 76, 127
2, 12874, Note_on_c, 7, 67, 127
2, 12874, Note_on_c, 10, 45, 127
2, 13232, Note_off_c, 10, 45, 127
2, 13232, Note_off_c, 7, 67, 127
2, 13232, Note_off_c, 4, 76, 127
2, 13240, Note_on_c, 3, 75, 127
2, 13240, Note_on_c, 6, 66, 127
2, 13240, Note_on_c, 12, 47, 127
2, 13598, Note_off_c, 12, 47, 127
2, 13598, Note_off_c, 3, 75, 127
2, 13606, Note_on_c, 6, 78, 127
2, 13606, Note_on_c, 12, 59, 127
2, 13926, Note_off_c, 6, 66, 127
2, 13964, Note_off_c, 12, 59, 127
2, 13964, Note_off_c, 6, 78, 127
2, 13972, Note_on_c, 7, 79, 127
2, 13972, Note_on_c, 4, 64, 127
2, 14330, Note_off_c, 4, 64, 127
2, 14330, Note_off_c, 7, 79, 127
2, 14338, Note_on_c, 10, 81, 127
2, 14338, Note_on_c, 12, 71, 127
2, 14338, Note_on_c, 6, 66, 127
2, 14696, Note_off_c, 6, 66, 127
2, 14696, Note_off_c, 12, 71, 127
2, 14696, Note_off_c, 10, 81, 127
2, 14704, Note_on_c, 12, 83, 127
2, 14704, Note_on_c, 4, 76, 127
2, 14704, Note_on_c, 7, 67, 127
2, 15062, Note_off_c, 4, 76, 127
2, 15062, Note_off_c, 12, 83, 127
2, 15070, Note_on_c, 7, 79, 127
2, 15070, Note_on_c, 2, 74, 127
2, 15428, Note_off_c, 2, 74, 127
2, 15428, Note_off_c, 7, 79, 127
2, 15436, Note_on_c, 4, 76, 127
2, 15436, Note_on_c, 1, 73, 127
2, 15800, Note_off_c, 7, 67, 127
2, 15802, Note_on_c, 6, 66, 127
2, 16160, Note_off_c, 6, 66, 127
2, 16168, Note_on_c, 10, 69, 127
2, 16526, Note_off_c, 10, 69, 127
2, 16532, Note_off_c, 1, 73, 127
2, 16532, Note_off_c, 4, 76, 127
2, 16534, Note_on_c, 4, 76, 127
2, 16534, Note_on_c, 1, 73, 127
2, 16534, Note_on_c, 7, 67, 127
2, 16892, Note_off_c, 7, 67, 127
2, 16892, Note_off_c, 1, 73, 127
2, 16892, Note_off_c, 4, 76, 127
2, 16900, Note_on_c, 6, 78, 127
2, 16900, Note_on_c, 3, 75, 127
2, 16900, Note_on_c, 6, 66, 127
2, 17258, Note_off_c, 6, 66, 127
2, 17258, Note_off_c, 3, 75, 127
2, 17258, Note_off_c, 6, 78, 127
2, 17266, Note_on_c, 7, 79, 127
2, 17266, Note_on_c, 4, 76, 127
2, 17266, Note_on_c, 4, 64, 127
2, 17624, Note_off_c, 4, 64, 127
2, 17624, Note_off_c, 4, 76, 127
2, 17624, Note_off_c, 7, 79, 127
2, 17632, Note_on_c, 10, 81, 127
2, 17632, Note_on_c, 6, 78, 127
2, 17632, Note_on_c, 3, 63, 127
2, 17990, Note_off_c, 3, 63, 127
2, 17998, Note_on_c, 12, 59, 127
2, 18356, Note_off_c, 12, 59, 127
2, 18362, Note_off_c, 10, 81, 127
2, 18364, Note_on_c, 7, 79, 127
2, 18364, Note_on_c, 4, 64, 127
2, 18722, Note_off_c, 4, 64, 127
2, 18728, Note_off_c, 6, 78, 127
2, 18730, Note_on_c, 12, 71, 127
2, 18730, Note_on_c, 2, 62, 127
2, 19088, Note_off_c, 2, 62, 127
2, 19088, Note_off_c, 12, 71, 127
2, 19096, Note_on_c, 4, 76, 127
2, 19096, Note_on_c, 1, 61, 127
2, 19454, Note_off_c, 1, 61, 127
2, 19454, Note_off_c, 4, 76, 127
2, 19462, Note_on_c, 2, 74, 127
2, 19462, Note_on_c, 12, 59, 127
2, 19820, Note_off_c, 12, 59, 127
2, 19820, Note_off_c, 2, 74, 127
2, 19828, Note_on_c, 1, 73, 127
2, 19828, Note_on_c, 11, 58, 127
2, 20192, Note_off_c, 7, 79, 127
2, 20194, Note_on_c, 4, 76, 127
2, 20552, Note_off_c, 4, 76, 127
2, 20560, Note_on_c, 7, 79, 127
2, 20918, Note_off_c, 7, 79, 127
2, 20924, Note_off_c, 11, 58, 127
2, 20924, Note_off_c, 1, 73, 127
2, 20926, Note_on_c, 6, 78, 127
2, 20926, Note_on_c, 2, 74, 127
2, 20926, Note_on_c, 12, 59, 127
2, 21284, Note_off_c, 12, 59, 127
2, 21284, Note_off_c, 2, 74, 127
2, 21284, Note_off_c, 6, 78, 127
2, 21292, Note_on_c, 4, 76, 127
2, 21292, Note_on_c, 1, 73, 127
2, 21292, Note_on_c, 1, 61, 127
2, 21650, Note_off_c, 1, 61, 127
2, 21650, Note_off_c, 1, 73, 127
2, 21650, Note_off_c, 4, 76, 127
2, 21658, Note_on_c, 2, 74, 127
2, 21658, Note_on_c, 12, 71, 127
2, 21658, Note_on_c, 2, 62, 127
2, 22016, Note_off_c, 2, 62, 127
2, 22016, Note_off_c, 12, 71, 127
2, 22016, Note_off_c, 2, 74, 127
2, 22024, Note_on_c, 1, 73, 127
2, 22024, Note_on_c, 11, 70, 127
2, 22024, Note_on_c, 4, 64, 127
2, 22205, Note_off_c, 4, 64, 127
2, 22207, Note_on_c, 2, 62, 127
2, 22388, Note_off_c, 2, 62, 127
2, 22390, Note_on_c, 4, 64, 127
2, 22571, Note_off_c, 4, 64, 127
2, 22573, Note_on_c, 6, 66, 127
2, 22754, Note_off_c, 6, 66, 127
2, 22756, Note_on_c, 7, 67, 127
2, 23114, Note_off_c, 7, 67, 127
2, 23120, Note_off_c, 11, 70, 127
2, 23120, Note_off_c, 1, 73, 127
2, 23122, Note_on_c, 2, 74, 127
2, 23122, Note_on_c, 12, 71, 127
2, 23122, Note_on_c, 6, 66, 127
2, 23480, Note_off_c, 6, 66, 127
2, 23480, Note_off_c, 12, 71, 127
2, 23480, Note_off_c, 2, 74, 127
2, 23488, Note_on_c, 4, 76, 127
2, 23488, Note_on_c, 1, 73, 127
2, 23488, Note_on_c, 4, 64, 127
2, 23846, Note_off_c, 4, 64, 127
2, 23846, Note_off_c, 1, 73, 127
2, 23846, Note_off_c, 4, 76, 127
2, 23854, Note_on_c, 6, 78, 127
2, 23854, Note_on_c, 2, 74, 127
2, 23854, Note_on_c, 2, 62, 127
2, 24212, Note_off_c, 2, 62, 127
2, 24212, Note_off_c, 2, 74, 127
2, 24212, Note_off_c, 6, 78, 127
2, 24220, Note_on_c, 7, 79, 127
2, 24220, Note_on_c, 4, 76, 127
2, 24220, Note_on_c, 1, 61, 127
2, 24578, Note_off_c, 1, 61, 127
2, 24578, Note_off_c, 4, 76, 127
2, 24586, Note_on_c, 2, 74, 127
2, 24586, Note_on_c, 12, 59, 127
2, 24944, Note_off_c, 12, 59, 127
2, 24944, Note_off_c, 2, 74, 127
2, 24950, Note_off_c, 7, 79, 127
2, 24952, Note_on_c, 6, 78, 127
2, 24952, Note_on_c, 1, 73, 127
2, 24952, Note_on_c, 11, 58, 127
2, 25310, Note_off_c, 11, 58, 127
2, 25310, Note_off_c, 6, 78, 127
2, 25318, Note_on_c, 4, 76, 127
2, 25318, Note_on_c, 6, 54, 127
2, 25676, Note_off_c, 6, 54, 127
2, 25676, Note_off_c, 4, 76, 127
2, 25684, Note_on_c, 2, 74, 127
2, 25684, Note_on_c, 12, 59, 127
2, 26042, Note_off_c, 12, 59, 127
2, 26048, Note_off_c, 1, 73, 127
2, 26050, Note_on_c, 6, 66, 127
2, 26050, Note_on_c, 10, 57, 127
2, 26408, Note_off_c, 10, 57, 127
2, 26408, Note_off_c, 6, 66, 127
2, 26416, Note_on_c, 12, 71, 127
2, 26416, Note_on_c, 7, 55, 127
2, 26774, Note_off_c, 7, 55, 127
2, 26780, Note_off_c, 2, 74, 127
2, 26782, Note_on_c, 1, 73, 127
2, 26782, Note_on_c, 4, 52, 127
2, 27140, Note_off_c, 4, 52, 127
2, 27140, Note_off_c, 1, 73, 127
2, 27148, Note_on_c, 4, 76, 127
2, 27148, Note_on_c, 6, 54, 127
2, 27506, Note_off_c, 4, 76, 127
2, 27514, Note_on_c, 2, 74, 127
2, 27872, Note_off_c, 2, 74, 127
2, 27878, Note_off_c, 6, 54, 127
2, 27878, Note_off_c, 12, 71, 127
2, 27880, Note_on_c, 1, 73, 127
2, 27880, Note_on_c, 11, 70, 127
2, 27880, Note_on_c, 6, 42, 127
2, 28238, Note_off_c, 1, 73, 127
2, 28246, Note_on_c, 12, 71, 127
2, 28604, Note_off_c, 12, 71, 127
2, 28604, Note_off_c, 11, 70, 127
2, 28610, Note_off_c, 6, 42, 127
2, 28612, Note_on_c, 12, 71, 127
2, 28612, Note_on_c, 12, 47, 127
2, 28793, Note_off_c, 12, 47, 127
2, 28795, Note_on_c, 6, 54, 127
2, 28976, Note_off_c, 6, 54, 127
2, 28978, Note_on_c, 12, 59, 127
2, 29161, Note_on_c, 10, 57, 127
2, 29336, Note_off_c, 12, 59, 127
2, 29336, Note_off_c, 12, 71, 127
2, 29342, Note_off_c, 10, 57, 127
2, 29344, Note_on_c, 4, 64, 127
2, 29344, Note_on_c, 7, 55, 127
2, 29525, Note_off_c, 7, 55, 127
2, 29527, Note_on_c, 12, 59, 127
2, 29702, Note_off_c, 4, 64, 127
2, 29708, Note_off_c, 12, 59, 127
2, 29710, Note_on_c, 6, 66, 127
2, 29710, Note_on_c, 7, 55, 127
2, 29891, Note_off_c, 7, 55, 127
2, 29893, Note_on_c, 6, 54, 127
2, 30068, Note_off_c, 6, 66, 127
2, 30074, Note_off_c, 6, 54, 127
2, 30076, Note_on_c, 7, 67, 127
2, 30076, Note_on_c, 4, 52, 127
2, 30257, Note_off_c, 4, 52, 127
2, 30259, Note_on_c, 12, 59, 127
2, 30440, Note_off_c, 12, 59, 127
2, 30442, Note_on_c, 4, 52, 127
2, 30623, Note_off_c, 4, 52, 127
2, 30625, Note_on_c, 2, 50, 127
2, 30806, Note_off_c, 2, 50, 127
2, 30808, Note_on_c, 0, 48, 127
2, 30989, Note_off_c, 0, 48, 127
2, 30991, Note_on_c, 7, 55, 127
2, 31172, Note_off_c, 7, 55, 127
2, 31172, Note_off_c, 7, 67, 127
2, 31174, Note_on_c, 6, 66, 127
2, 31174, Note_on_c, 4, 52, 127
2, 31355, Note_off_c, 4, 52, 127
2, 31357, Note_on_c, 2, 50, 127
2, 31532, Note_off_c, 6, 66, 127
2, 31538, Note_off_c, 2, 50, 127
2, 31540, Note_on_c, 10, 69, 127
2, 31540, Note_on_c, 0, 48, 127
2, 31721, Note_off_c, 0, 48, 127
2, 31723, Note_on_c, 4, 52, 127
2, 31898, Note_off_c, 10, 69, 127
2, 31904, Note_off_c, 4, 52, 127
2, 31906, Note_on_c, 7, 67, 127
2, 31906, Note_on_c, 0, 48, 127
2, 32087, Note_off_c, 0, 48, 127
2, 32089, Note_on_c, 12, 47, 127
2, 32264, Note_off_c, 7, 67, 127
2, 32270, Note_off_c, 12, 47, 127
2, 32272, Note_on_c, 6, 66, 127
2, 32272, Note_on_c, 10, 45, 127
2, 32453, Note_off_c, 10, 45, 127
2, 32455, Note_on_c, 12, 47, 127
2, 32630, Note_off_c, 6, 66, 127
2, 32636, Note_off_c, 12, 47, 127
2, 32638, Note_on_c, 4, 64, 127
2, 32638, Note_on_c, 0, 48, 127
2, 32819, Note_off_c, 0, 48, 127
2, 32821, Note_on_c, 10, 45, 127
2, 32996, Note_off_c, 4, 64, 127
2, 33002, Note_off_c, 10, 45, 127
2, 33004, Note_on_c, 3, 63, 127
2, 33004, Note_on_c, 12, 47, 127
2, 33185, Note_off_c, 12, 47, 127
2, 33187, Note_on_c, 7, 55, 127
2, 33304, Note_off_c, 3, 63, 127
2, 33368, Note_off_c, 7, 55, 127
2, 33370, Note_on_c, 6, 66, 127
2, 33370, Note_on_c, 6, 54, 127
2, 33551, Note_off_c, 6, 54, 127
2, 33553, Note_on_c, 4, 52, 127
2, 33728, Note_off_c, 6, 66, 127
2, 33734, Note_off_c, 4, 52, 127
2, 33736, Note_on_c, 12, 71, 127
2, 33736, Note_on_c, 2, 50, 127
2, 33917, Note_off_c, 2, 50, 127
2, 33919, Note_on_c, 6, 54, 127
2, 34094, Note_off_c, 12, 71, 127
2, 34100, Note_off_c, 6, 54, 127
2, 34102, Note_on_c, 1, 73, 127
2, 34102, Note_on_c, 6, 66, 127
2, 34102, Note_on_c, 2, 50, 127
2, 34283, Note_off_c, 2, 50, 127
2, 34285, Note_on_c, 1, 49, 127
2, 34460, Note_off_c, 6, 66, 127
2, 34460, Note_off_c, 1, 73, 127
2, 34466, Note_off_c, 1, 49, 127
2, 34468, Note_on_c, 2, 74, 127
2, 34468, Note_on_c, 12, 71, 127
2, 34468, Note_on_c, 12, 47, 127
2, 34649, Note_off_c, 12, 47, 127
2, 34649, Note_off_c, 12, 71, 127
2, 34651, Note_on_c, 10, 69, 127
2, 34651, Note_on_c, 6, 54, 127
2, 34832, Note_off_c, 6, 54, 127
2, 34832, Note_off_c, 10, 69, 127
2, 34834, Note_on_c, 7, 67, 127
2, 34834, Note_on_c, 12, 47, 127
2, 35015, Note_off_c, 12, 47, 127
2, 35015, Note_off_c, 7, 67, 127
2, 35017, Note_on_c, 6, 66, 127
2, 35017, Note_on_c, 10, 45, 127
2, 35198, Note_off_c, 10, 45, 127
2, 35198, Note_off_c, 6, 66, 127
2, 35200, Note_on_c, 4, 64, 127
2, 35200, Note_on_c, 7, 43, 127
2, 35381, Note_off_c, 7, 43, 127
2, 35383, Note_on_c, 2, 50, 127
2, 35564, Note_off_c, 2, 50, 127
2, 35564, Note_off_c, 2, 74, 127
2, 35566, Note_on_c, 1, 73, 127
2, 35566, Note_on_c, 12, 47, 127
2, 35747, Note_off_c, 12, 47, 127
2, 35749, Note_on_c, 10, 45, 127
2, 35924, Note_off_c, 1, 73, 127
2, 35930, Note_off_c, 10, 45, 127
2, 35932, Note_on_c, 4, 76, 127
2, 35932, Note_on_c, 7, 43, 127
2, 36113, Note_off_c, 7, 43, 127
2, 36115, Note_on_c, 12, 47, 127
2, 36290, Note_off_c, 4, 76, 127
2, 36296, Note_off_c, 12, 47, 127
2, 36296, Note_off_c, 4, 64, 127
2, 36298, Note_on_c, 2, 74, 127
2, 36298, Note_on_c, 6, 66, 127
2, 36298, Note_on_c, 7, 43, 127
2, 36479, Note_off_c, 7, 43, 127
2, 36481, Note_on_c, 6, 42, 127
2, 36656, Note_off_c, 6, 66, 127
2, 36656, Note_off_c, 2, 74, 127
2, 36662, Note_off_c, 6, 42, 127
2, 36664, Note_on_c, 1, 73, 127
2, 36664, Note_on_c, 7, 67, 127
2, 36664, Note_on_c, 4, 40, 127
2, 36845, Note_off_c, 4, 40, 127
2, 36847, Note_on_c, 6, 42, 127
2, 37022, Note_off_c, 7, 67, 127
2, 37022, Note_off_c, 1, 73, 127
2, 37028, Note_off_c, 6, 42, 127
2, 37030, Note_on_c, 12, 71, 127
2, 37030, Note_on_c, 4, 64, 127
2, 37030, Note_on_c, 7, 43, 127
2, 37211, Note_off_c, 7, 43, 127
2, 37213, Note_on_c, 4, 40, 127
2, 37388, Note_off_c, 4, 64, 127
2, 37388, Note_off_c, 12, 71, 127
2, 37394, Note_off_c, 4, 40, 127
2, 37396, Note_on_c, 11, 70, 127
2, 37396, Note_on_c, 1, 61, 127
2, 37396, Note_on_c, 6, 42, 127
2, 37567, Note_off_c, 1, 61, 127
2, 37577, Note_off_c, 11, 70, 127
2, 37579, Note_on_c, 6, 78, 127
2, 37754, Note_off_c, 6, 42, 127
2, 37760, Note_off_c, 6, 78, 127
2, 37762, Note_on_c, 4, 76, 127
2, 37762, Note_on_c, 6, 54, 127
2, 37943, Note_off_c, 4, 76, 127
2, 37945, Note_on_c, 2, 74, 127
2, 38120, Note_off_c, 6, 54, 127
2, 38126, Note_off_c, 2, 74, 127
2, 38128, Note_on_c, 1, 73, 127
2, 38128, Note_on_c, 1, 61, 127
2, 38128, Note_on_c, 11, 58, 127
2, 38309, Note_off_c, 1, 73, 127
2, 38311, Note_on_c, 6, 78, 127
2, 38486, Note_off_c, 11, 58, 127
2, 38486, Note_off_c, 1, 61, 127
2, 38492, Note_off_c, 6, 78, 127
2, 38494, Note_on_c, 1, 73, 127
2, 38494, Note_on_c, 2, 62, 127
2, 38494, Note_on_c, 12, 59, 127
2, 38675, Note_off_c, 1, 73, 127
2, 38677, Note_on_c, 12, 71, 127
2, 38852, Note_off_c, 12, 59, 127
2, 38852, Note_off_c, 2, 62, 127
2, 38858, Note_off_c, 12, 71, 127
2, 38860, Note_on_c, 11, 70, 127
2, 38860, Note_on_c, 4, 64, 127
2, 38860, Note_on_c, 1, 61, 127
2, 39041, Note_off_c, 11, 70, 127
2, 39043, Note_on_c, 1, 73, 127
2, 39218, Note_off_c, 1, 61, 127
2, 39224, Note_off_c, 1, 73, 127
2, 39226, Note_on_c, 11, 70, 127
2, 39226, Note_on_c, 6, 54, 127
2, 39407, Note_off_c, 11, 70, 127
2, 39409, Note_on_c, 8, 68, 127
2, 39584, Note_off_c, 6, 54, 127
2, 39584, Note_off_c, 4, 64, 127
2, 39590, Note_off_c, 8, 68, 127
2, 39592, Note_on_c, 6, 66, 127
2, 39592, Note_on_c, 12, 59, 127
2, 39773, Note_off_c, 6, 66, 127
2, 39775, Note_on_c, 7, 67, 127
2, 39956, Note_off_c, 7, 67, 127
2, 39958, Note_on_c, 6, 66, 127
2, 40139, Note_off_c, 6, 66, 127
2, 40141, Note_on_c, 4, 64, 127
2, 40322, Note_off_c, 4, 64, 127
2, 40324, Note_on_c, 2, 62, 127
2, 40505, Note_off_c, 2, 62, 127
2, 40507, Note_on_c, 6, 66, 127
2, 40688, Note_off_c, 6, 66, 127
2, 40688, Note_off_c, 12, 59, 127
2, 40690, Note_on_c, 2, 62, 127
2, 40690, Note_on_c, 12, 47, 127
2, 40871, Note_off_c, 2, 62, 127
2, 40873, Note_on_c, 1, 61, 127
2, 41048, Note_off_c, 12, 47, 127
2, 41054, Note_off_c, 1, 61, 127
2, 41056, Note_on_c, 6, 78, 127
2, 41056, Note_on_c, 12, 59, 127
2, 41056, Note_on_c, 1, 49, 127
2, 41237, Note_off_c, 12, 59, 127
2, 41239, Note_on_c, 6, 66, 127
2, 41414, Note_off_c, 1, 49, 127
2, 41420, Note_off_c, 6, 66, 127
2, 41422, Note_on_c, 12, 59, 127
2, 41422, Note_on_c, 2, 50, 127
2, 41603, Note_off_c, 12, 59, 127
2, 41605, Note_on_c, 10, 57, 127
2, 41780, Note_off_c, 2, 50, 127
2, 41786, Note_off_c, 10, 57, 127
2, 41788, Note_on_c, 7, 55, 127
2, 41788, Note_on_c, 4, 52, 127
2, 41969, Note_off_c, 6, 78, 127
2, 41971, Note_on_c, 12, 83, 127
2, 42152, Note_off_c, 12, 83, 127
2, 42154, Note_on_c, 7, 79, 127
2, 42335, Note_off_c, 7, 79, 127
2, 42337, Note_on_c, 6, 78, 127
2, 42518, Note_off_c, 6, 78, 127
2, 42520, Note_on_c, 4, 76, 127
2, 42701, Note_off_c, 4, 76, 127
2, 42703, Note_off_c, 4, 52, 127
2, 42703, Note_off_c, 7, 55, 127
2, 42703, Note_on_c, 7, 79, 127
2, 42884, Note_off_c, 7, 79, 127
2, 42886, Note_on_c, 4, 76, 127
2, 42886, Note_on_c, 6, 54, 127
2, 43067, Note_off_c, 4, 76, 127
2, 43069, Note_on_c, 2, 74, 127
2, 43244, Note_off_c, 6, 54, 127
2, 43250, Note_off_c, 2, 74, 127
2, 43252, Note_on_c, 1, 73, 127
2, 43252, Note_on_c, 7, 67, 127
2, 43252, Note_on_c, 4, 52, 127
2, 43433, Note_off_c, 1, 73, 127
2, 43435, Note_on_c, 7, 79, 127
2, 43610, Note_off_c, 4, 52, 127
2, 43616, Note_off_c, 7, 79, 127
2, 43618, Note_on_c, 1, 73, 127
2, 43618, Note_on_c, 2, 50, 127
2, 43799, Note_off_c, 1, 73, 127
2, 43801, Note_on_c, 12, 71, 127
2, 43976, Note_off_c, 2, 50, 127
2, 43982, Note_off_c, 12, 71, 127
2, 43984, Note_on_c, 10, 69, 127
2, 43984, Note_on_c, 1, 49, 127
2, 44165, Note_off_c, 7, 67, 127
2, 44167, Note_on_c, 7, 67, 127
2, 44348, Note_off_c, 7, 67, 127
2, 44350, Note_on_c, 4, 64, 127
2, 44531, Note_off_c, 4, 64, 127
2, 44533, Note_on_c, 2, 62, 127
2, 44714, Note_off_c, 2, 62, 127
2, 44716, Note_on_c, 1, 61, 127
2, 44897, Note_off_c, 1, 61, 127
2, 44899, Note_off_c, 1, 49, 127
2, 44899, Note_off_c, 10, 69, 127
2, 44899, Note_on_c, 4, 64, 127
2, 45080, Note_off_c, 4, 64, 127
2, 45082, Note_on_c, 1, 61, 127
2, 45082, Note_on_c, 10, 45, 127
2, 45263, Note_off_c, 1, 61, 127
2, 45265, Note_on_c, 12, 59, 127
2, 45440, Note_off_c, 10, 45, 127
2, 45446, Note_off_c, 12, 59, 127
2, 45448, Note_on_c, 4, 76, 127
2, 45448, Note_on_c, 10, 57, 127
2, 45448, Note_on_c, 12, 47, 127
2, 45629, Note_off_c, 10, 57, 127
2, 45631, Note_on_c, 4, 64, 127
2, 45806, Note_off_c, 12, 47, 127
2, 45812, Note_off_c, 4, 64, 127
2, 45814, Note_on_c, 10, 57, 127
2, 45814, Note_on_c, 1, 49, 127
2, 45995, Note_off_c, 10, 57, 127
2, 45997, Note_on_c, 7, 55, 127
2, 46172, Note_off_c, 1, 49, 127
2, 46178, Note_off_c, 7, 55, 127
2, 46180, Note_on_c, 6, 54, 127
2, 46180, Note_on_c, 2, 50, 127
2, 46361, Note_off_c, 4, 76, 127
2, 46363, Note_on_c, 10, 81, 127
2, 46544, Note_off_c, 10, 81, 127
2, 46546, Note_on_c, 6, 78, 127
2, 46727, Note_off_c, 6, 78, 127
2, 46729, Note_on_c, 4, 76, 127
2, 46910, Note_off_c, 4, 76, 127
2, 46912, Note_on_c, 2, 74, 127
2, 47093, Note_off_c, 2, 74, 127
2, 47095, Note_off_c, 2, 50, 127
2, 47095, Note_off_c, 6, 54, 127
2, 47095, Note_on_c, 6, 78, 127
2, 47276, Note_off_c, 6, 78, 127
2, 47278, Note_on_c, 2, 74, 127
2, 47278, Note_on_c, 4, 52, 127
2, 47459, Note_off_c, 2, 74, 127
2, 47461, Note_on_c, 1, 73, 127
2, 47636, Note_off_c, 4, 52, 127
2, 47642, Note_off_c, 1, 73, 127
2, 47644, Note_on_c, 12, 71, 127
2, 47644, Note_on_c, 6, 66, 127
2, 47644, Note_on_c, 2, 50, 127
2, 47825, Note_off_c, 12, 71, 127
2, 47827, Note_on_c, 6, 78, 127
2, 48002, Note_off_c, 2, 50, 127
2, 48008, Note_off_c, 6, 78, 127
2, 48010, Note_on_c, 12, 71, 127
2, 48010, Note_on_c, 1, 49, 127
2, 48191, Note_off_c, 12, 71, 127
2, 48193, Note_on_c, 10, 69, 127
2, 48368, Note_off_c, 1, 49, 127
2, 48374, Note_off_c, 10, 69, 127
2, 48376, Note_on_c, 7, 67, 127
2, 48376, Note_on_c, 12, 47, 127
2, 48557, Note_off_c, 12, 47, 127
2, 48559, Note_on_c, 12, 59, 127
2, 48740, Note_off_c, 12, 59, 127
2, 48740, Note_off_c, 6, 66, 127
2, 48742, Note_on_c, 4, 64, 127
2, 48742, Note_on_c, 7, 55, 127
2, 48923, Note_off_c, 7, 55, 127
2, 48923, Note_off_c, 4, 64, 127
2, 48925, Note_on_c, 2, 62, 127
2, 48925, Note_on_c, 6, 54, 127
2, 49106, Note_off_c, 6, 54, 127
2, 49106, Note_off_c, 2, 62, 127
2, 49108, Note_on_c, 1, 61, 127
2, 49108, Note_on_c, 4, 52, 127
2, 49289, Note_off_c, 4, 52, 127
2, 49289, Note_off_c, 1, 61, 127
2, 49291, Note_on_c, 4, 64, 127
2, 49291, Note_on_c, 7, 55, 127
2, 49472, Note_off_c, 7, 55, 127
2, 49472, Note_off_c, 4, 64, 127
2, 49474, Note_on_c, 1, 61, 127
2, 49474, Note_on_c, 4, 52, 127
2, 49655, Note_off_c, 4, 52, 127
2, 49655, Note_off_c, 1, 61, 127
2, 49657, Note_on_c, 12, 59, 127
2, 49657, Note_on_c, 2, 50, 127
2, 49838, Note_off_c, 2, 50, 127
2, 49838, Note_off_c, 12, 59, 127
2, 49840, Note_on_c, 10, 57, 127
2, 49840, Note_on_c, 1, 49, 127
2, 50021, Note_off_c, 1, 49, 127
2, 50023, Note_on_c, 7, 55, 127
2, 50198, Note_off_c, 10, 57, 127
2, 50204, Note_off_c, 7, 55, 127
2, 50206, Note_on_c, 12, 59, 127
2, 50206, Note_on_c, 1, 49, 127
2, 50387, Note_off_c, 1, 49, 127
2, 50389, Note_on_c, 12, 47, 127
2, 50564, Note_off_c, 12, 59, 127
2, 50570, Note_off_c, 12, 47, 127
2, 50572, Note_on_c, 1, 61, 127
2, 50572, Note_on_c, 10, 45, 127
2, 50753, Note_off_c, 10, 45, 127
2, 50755, Note_on_c, 4, 52, 127
2, 50930, Note_off_c, 1, 61, 127
2, 50936, Note_off_c, 4, 52, 127
2, 50938, Note_on_c, 10, 57, 127
2, 50938, Note_on_c, 1, 49, 127
2, 51119, Note_off_c, 1, 49, 127
2, 51119, Note_off_c, 10, 57, 127
2, 51121, Note_on_c, 12, 59, 127
2, 51121, Note_on_c, 12, 47, 127
2, 51302, Note_off_c, 12, 47, 127
2, 51302, Note_off_c, 12, 59, 127
2, 51304, Note_on_c, 1, 61, 127
2, 51304, Note_on_c, 10, 45, 127
2, 51485, Note_off_c, 10, 45, 127
2, 51487, Note_on_c, 1, 49, 127
2, 51662, Note_off_c, 1, 61, 127
2, 51668, Note_off_c, 1, 49, 127
2, 51670, Note_on_c, 4, 64, 127
2, 51670, Note_on_c, 10, 45, 127
2, 51807, Note_off_c, 7, 67, 127
2, 51851, Note_off_c, 10, 45, 127
2, 51853, Note_on_c, 7, 43, 127
2, 52028, Note_off_c, 4, 64, 127
2, 52034, Note_off_c, 7, 43, 127
2, 52036, Note_on_c, 10, 57, 127
2, 52036, Note_on_c, 6, 42, 127
2, 52217, Note_off_c, 6, 42, 127
2, 52219, Note_on_c, 1, 49, 127
2, 52394, Note_off_c, 10, 57, 127
2, 52400, Note_off_c, 1, 49, 127
2, 52402, Note_on_c, 1, 61, 127
2, 52402, Note_on_c, 6, 42, 127
2, 52583, Note_off_c, 6, 42, 127
2, 52585, Note_on_c, 4, 40, 127
2, 52760, Note_off_c, 1, 61, 127
2, 52766, Note_off_c, 4, 40, 127
2, 52768, Note_on_c, 6, 66, 127
2, 52768, Note_on_c, 2, 62, 127
2, 52768, Note_on_c, 2, 38, 127
2, 53126, Note_off_c, 2, 62, 127
2, 53126, Note_off_c, 6, 66, 127
2, 53134, Note_on_c, 10, 69, 127
2, 53134, Note_on_c, 2, 50, 127
2, 53302, Note_off_c, 2, 38, 127
2, 53315, Note_off_c, 2, 50, 127
2, 53317, Note_on_c, 4, 52, 127
2, 53492, Note_off_c, 10, 69, 127
2, 53498, Note_off_c, 4, 52, 127
2, 53500, Note_on_c, 2, 74, 127
2, 53500, Note_on_c, 6, 54, 127
2, 53681, Note_off_c, 6, 54, 127
2, 53683, Note_on_c, 2, 50, 127
2, 53858, Note_off_c, 2, 74, 127
2, 53864, Note_off_c, 2, 50, 127
2, 53866, Note_on_c, 4, 76, 127
2, 53866, Note_on_c, 6, 54, 127
2, 54047, Note_off_c, 6, 54, 127
2, 54049, Note_on_c, 7, 55, 127
2, 54224, Note_off_c, 4, 76, 127
2, 54230, Note_off_c, 7, 55, 127
2, 54232, Note_on_c, 6, 78, 127
2, 54232, Note_on_c, 10, 57, 127
2, 54413, Note_off_c, 10, 57, 127
2, 54415, Note_on_c, 2, 50, 127
2, 54596, Note_off_c, 2, 50, 127
2, 54598, Note_on_c, 10, 57, 127
2, 54779, Note_off_c, 10, 57, 127
2, 54781, Note_on_c, 12, 59, 127
2, 54962, Note_off_c, 12, 59, 127
2, 54964, Note_on_c, 1, 61, 127
2, 55145, Note_off_c, 1, 61, 127
2, 55147, Note_on_c, 10, 57, 127
2, 55328, Note_off_c, 10, 57, 127
2, 55328, Note_off_c, 6, 78, 127
2, 55330, Note_on_c, 4, 76, 127
2, 55330, Note_on_c, 1, 61, 127
2, 55511, Note_off_c, 1, 61, 127
2, 55513, Note_on_c, 2, 62, 127
2, 55688, Note_off_c, 4, 76, 127
2, 55694, Note_off_c, 2, 62, 127
2, 55696, Note_on_c, 7, 79, 127
2, 55696, Note_on_c, 4, 64, 127
2, 55877, Note_off_c, 4, 64, 127
2, 55879, Note_on_c, 10, 57, 127
2, 56054, Note_off_c, 7, 79, 127
2, 56060, Note_off_c, 10, 57, 127
2, 56062, Note_on_c, 6, 78, 127
2, 56062, Note_on_c, 4, 64, 127
2, 56243, Note_off_c, 4, 64, 127
2, 56245, Note_on_c, 6, 66, 127
2, 56420, Note_off_c, 6, 78, 127
2, 56426, Note_off_c, 6, 66, 127
2, 56428, Note_on_c, 4, 76, 127
2, 56428, Note_on_c, 7, 67, 127
2, 56609, Note_off_c, 7, 67, 127
2, 56611, Note_on_c, 10, 69, 127
2, 56786, Note_off_c, 4, 76, 127
2, 56792, Note_off_c, 10, 69, 127
2, 56794, Note_on_c, 2, 74, 127
2, 56794, Note_on_c, 12, 71, 127
2, 56975, Note_off_c, 12, 71, 127
2, 56977, Note_on_c, 7, 67, 127
2, 57152, Note_off_c, 2, 74, 127
2, 57158, Note_off_c, 7, 67, 127
2, 57160, Note_on_c, 1, 73, 127
2, 57160, Note_on_c, 10, 69, 127
2, 57341, Note_off_c, 1, 73, 127
2, 57343, Note_on_c, 4, 76, 127
2, 57524, Note_off_c, 4, 76, 127
2, 57526, Note_on_c, 10, 81, 127
2, 57526, Note_on_c, 10, 45, 127
2, 57707, Note_off_c, 10, 81, 127
2, 57709, Note_on_c, 7, 79, 127
2, 57884, Note_off_c, 10, 45, 127
2, 57890, Note_off_c, 7, 79, 127
2, 57892, Note_on_c, 6, 78, 127
2, 57892, Note_on_c, 2, 50, 127
2, 58073, Note_off_c, 6, 78, 127
2, 58075, Note_on_c, 10, 81, 127
2, 58250, Note_off_c, 2, 50, 127
2, 58256, Note_off_c, 10, 81, 127
2, 58258, Note_on_c, 6, 78, 127
2, 58258, Note_on_c, 4, 52, 127
2, 58439, Note_off_c, 6, 78, 127
2, 58441, Note_on_c, 4, 76, 127
2, 58616, Note_off_c, 4, 52, 127
2, 58622, Note_off_c, 4, 76, 127
2, 58624, Note_on_c, 2, 74, 127
2, 58624, Note_on_c, 6, 54, 127
2, 58805, Note_off_c, 2, 74, 127
2, 58807, Note_on_c, 10, 81, 127
2, 58988, Note_off_c, 10, 81, 127
2, 58990, Note_on_c, 2, 74, 127
2, 59171, Note_off_c, 2, 74, 127
2, 59173, Note_on_c, 1, 73, 127
2, 59354, Note_off_c, 1, 73, 127
2, 59354, Note_off_c, 10, 69, 127
2, 59356, Note_on_c, 12, 71, 127
2, 59356, Note_on_c, 7, 67, 127
2, 59537, Note_off_c, 12, 71, 127
2, 59539, Note_on_c, 2, 74, 127
2, 59720, Note_off_c, 2, 74, 127
2, 59720, Note_off_c, 6, 54, 127
2, 59722, Note_on_c, 7, 79, 127
2, 59722, Note_on_c, 4, 52, 127
2, 59903, Note_off_c, 7, 79, 127
2, 59905, Note_on_c, 6, 78, 127
2, 60080, Note_off_c, 4, 52, 127
2, 60086, Note_off_c, 6, 78, 127
2, 60088, Note_on_c, 4, 76, 127
2, 60088, Note_on_c, 7, 55, 127
2, 60269, Note_off_c, 4, 76, 127
2, 60271, Note_on_c, 7, 79, 127
2, 60446, Note_off_c, 7, 55, 127
2, 60452, Note_off_c, 7, 79, 127
2, 60454, Note_on_c, 4, 76, 127
2, 60454, Note_on_c, 6, 54, 127
2, 60635, Note_off_c, 4, 76, 127
2, 60637, Note_on_c, 2, 74, 127
2, 60812, Note_off_c, 6, 54, 127
2, 60818, Note_off_c, 2, 74, 127
2, 60820, Note_on_c, 1, 73, 127
2, 60820, Note_on_c, 4, 52, 127
2, 61001, Note_off_c, 1, 73, 127
2, 61003, Note_on_c, 7, 79, 127
2, 61178, Note_off_c, 4, 52, 127
2, 61184, Note_off_c, 7, 79, 127
2, 61186, Note_on_c, 1, 73, 127
2, 61186, Note_on_c, 2, 50, 127
2, 61367, Note_off_c, 1, 73, 127
2, 61369, Note_on_c, 12, 71, 127
2, 61544, Note_off_c, 2, 50, 127
2, 61550, Note_off_c, 12, 71, 127
2, 61552, Note_on_c, 10, 69, 127
2, 61552, Note_on_c, 1, 49, 127
2, 61733, Note_off_c, 7, 67, 127
2, 61735, Note_on_c, 7, 67, 127
2, 61910, Note_off_c, 1, 49, 127
2, 61916, Note_off_c, 7, 67, 127
2, 61918, Note_on_c, 6, 66, 127
2, 61918, Note_on_c, 6, 42, 127
2, 62099, Note_off_c, 6, 66, 127
2, 62101, Note_on_c, 4, 64, 127
2, 62276, Note_off_c, 6, 42, 127
2, 62282, Note_off_c, 4, 64, 127
2, 62284, Note_on_c, 2, 62, 127
2, 62284, Note_on_c, 12, 47, 127
2, 62465, Note_off_c, 2, 62, 127
2, 62467, Note_on_c, 6, 66, 127
2, 62642, Note_off_c, 12, 47, 127
2, 62648, Note_off_c, 6, 66, 127
2, 62650, Note_on_c, 2, 62, 127
2, 62650, Note_on_c, 1, 49, 127
2, 62831, Note_off_c, 2, 62, 127
2, 62833, Note_on_c, 1, 61, 127
2, 63008, Note_off_c, 1, 49, 127
2, 63014, Note_off_c, 1, 61, 127
2, 63016, Note_on_c, 12, 59, 127
2, 63016, Note_on_c, 2, 50, 127
2, 63197, Note_off_c, 10, 69, 127
2, 63199, Note_on_c, 10, 69, 127
2, 63380, Note_off_c, 10, 69, 127
2, 63382, Note_on_c, 7, 67, 127
2, 63563, Note_off_c, 7, 67, 127
2, 63565, Note_on_c, 6, 66, 127
2, 63746, Note_off_c, 6, 66, 127
2, 63748, Note_on_c, 7, 67, 127
2, 63931, Note_off_c, 12, 59, 127
2, 63931, Note_on_c, 4, 64, 127
2, 63968, Note_off_c, 7, 67, 127
2, 64112, Note_off_c, 4, 64, 127
2, 64112, Note_off_c, 2, 50, 127
2, 64114, Note_on_c, 11, 70, 127
2, 64114, Note_on_c, 1, 49, 127
2, 64295, Note_off_c, 11, 70, 127
2, 64297, Note_on_c, 12, 71, 127
2, 64472, Note_off_c, 1, 49, 127
2, 64478, Note_off_c, 12, 71, 127
2, 64480, Note_on_c, 1, 73, 127
2, 64480, Note_on_c, 4, 52, 127
2, 64661, Note_off_c, 1, 73, 127
2, 64663, Note_on_c, 6, 66, 127
2, 64838, Note_off_c, 4, 52, 127
2, 64844, Note_off_c, 6, 66, 127
2, 64846, Note_on_c, 1, 73, 127
2, 64846, Note_on_c, 2, 50, 127
2, 65027, Note_off_c, 1, 73, 127
2, 65029, Note_on_c, 2, 74, 127
2, 65204, Note_off_c, 2, 50, 127
2, 65210, Note_off_c, 2, 74, 127
2, 65212, Note_on_c, 4, 76, 127
2, 65212, Note_on_c, 1, 49, 127
2, 65393, Note_off_c, 4, 76, 127
2, 65395, Note_on_c, 6, 78, 127
2, 65570, Note_off_c, 1, 49, 127
2, 65576, Note_off_c, 6, 78, 127
2, 65578, Note_on_c, 7, 79, 127
2, 65578, Note_on_c, 12, 47, 127
2, 65759, Note_off_c, 7, 79, 127
2, 65761, Note_on_c, 4, 76, 127
2, 65936, Note_off_c, 12, 47, 127
2, 65942, Note_off_c, 4, 76, 127
2, 65944, Note_on_c, 6, 78, 127
2, 65944, Note_on_c, 11, 46, 127
2, 66125, Note_off_c, 6, 78, 127
2, 66127, Note_on_c, 7, 79, 127
2, 66308, Note_off_c, 7, 79, 127
2, 66310, Note_on_c, 6, 78, 127
2, 66310, Note_on_c, 6, 54, 127
2, 66491, Note_off_c, 6, 78, 127
2, 66493, Note_on_c, 4, 76, 127
2, 66668, Note_off_c, 6, 54, 127
2, 66674, Note_off_c, 4, 76, 127
2, 66674, Note_off_c, 11, 46, 127
2, 66676, Note_on_c, 2, 74, 127
2, 66676, Note_on_c, 12, 59, 127
2, 66676, Note_on_c, 12, 47, 127
2, 66857, Note_off_c, 2, 74, 127
2, 66859, Note_on_c, 6, 78, 127
2, 67034, Note_off_c, 12, 59, 127
2, 67040, Note_off_c, 6, 78, 127
2, 67042, Note_on_c, 2, 74, 127
2, 67042, Note_on_c, 1, 61, 127
2, 67223, Note_off_c, 2, 74, 127
2, 67225, Note_on_c, 1, 73, 127
2, 67400, Note_off_c, 1, 61, 127
2, 67406, Note_off_c, 1, 73, 127
2, 67408, Note_on_c, 12, 71, 127
2, 67408, Note_on_c, 2, 62, 127
2, 67589, Note_off_c, 12, 71, 127
2, 67591, Note_off_c, 12, 47, 127
2, 67591, Note_on_c, 5, 77, 127
2, 67772, Note_off_c, 5, 77, 127
2, 67774, Note_on_c, 12, 71, 127
2, 67774, Note_on_c, 2, 50, 127
2, 67955, Note_off_c, 12, 71, 127
2, 67957, Note_on_c, 10, 69, 127
2, 68132, Note_off_c, 2, 50, 127
2, 68138, Note_off_c, 10, 69, 127
2, 68140, Note_on_c, 8, 68, 127
2, 68140, Note_on_c, 4, 52, 127
2, 68321, Note_off_c, 8, 68, 127
2, 68323, Note_on_c, 6, 66, 127
2, 68498, Note_off_c, 4, 52, 127
2, 68504, Note_off_c, 6, 66, 127
2, 68504, Note_off_c, 2, 62, 127
2, 68506, Note_on_c, 8, 68, 127
2, 68506, Note_on_c, 12, 59, 127
2, 68506, Note_on_c, 2, 50, 127
2, 68687, Note_off_c, 8, 68, 127
2, 68689, Note_on_c, 10, 69, 127
2, 68864, Note_off_c, 2, 50, 127
2, 68864, Note_off_c, 12, 59, 127
2, 68870, Note_off_c, 10, 69, 127
2, 68872, Note_on_c, 12, 71, 127
2, 68872, Note_on_c, 2, 62, 127
2, 68872, Note_on_c, 5, 53, 127
2, 69053, Note_off_c, 12, 71, 127
2, 69055, Note_on_c, 8, 68, 127
2, 69230, Note_off_c, 5, 53, 127
2, 69230, Note_off_c, 2, 62, 127
2, 69236, Note_off_c, 8, 68, 127
2, 69238, Note_on_c, 12, 71, 127
2, 69238, Note_on_c, 0, 60, 127
2, 69238, Note_on_c, 4, 52, 127
2, 69419, Note_off_c, 12, 71, 127
2, 69421, Note_on_c, 0, 72, 127
2, 69596, Note_off_c, 4, 52, 127
2, 69596, Note_off_c, 0, 60, 127
2, 69602, Note_off_c, 0, 72, 127
2, 69604, Note_on_c, 2, 74, 127
2, 69604, Note_on_c, 12, 59, 127
2, 69604, Note_on_c, 2, 50, 127
2, 69785, Note_off_c, 2, 74, 127
2, 69787, Note_on_c, 8, 68, 127
2, 69962, Note_off_c, 2, 50, 127
2, 69962, Note_off_c, 12, 59, 127
2, 69968, Note_off_c, 8, 68, 127
2, 69970, Note_on_c, 2, 74, 127
2, 69970, Note_on_c, 10, 57, 127
2, 69970, Note_on_c, 0, 48, 127
2, 70151, Note_off_c, 2, 74, 127
2, 70153, Note_on_c, 4, 76, 127
2, 70328, Note_off_c, 0, 48, 127
2, 70328, Note_off_c, 10, 57, 127
2, 70334, Note_off_c, 4, 76, 127
2, 70336, Note_on_c, 5, 77, 127
2, 70336, Note_on_c, 8, 56, 127
2, 70336, Note_on_c, 12, 47, 127
2, 70517, Note_off_c, 5, 77, 127
2, 70519, Note_on_c, 12, 83, 127
2, 70694, Note_off_c, 12, 47, 127
2, 70694, Note_off_c, 8, 56, 127
2, 70700, Note_off_c, 12, 83, 127
2, 70702, Note_on_c, 4, 76, 127
2, 70702, Note_on_c, 4, 52, 127
2, 70702, Note_on_c, 8, 44, 127
2, 70883, Note_off_c, 4, 76, 127
2, 70885, Note_on_c, 2, 74, 127
2, 71060, Note_off_c, 8, 44, 127
2, 71060, Note_off_c, 4, 52, 127
2, 71066, Note_off_c, 2, 74, 127
2, 71068, Note_on_c, 0, 72, 127
2, 71068, Note_on_c, 10, 57, 127
2, 71068, Note_on_c, 10, 45, 127
2, 71249, Note_off_c, 0, 72, 127
2, 71251, Note_on_c, 4, 76, 127
2, 71426, Note_off_c, 10, 57, 127
2, 71432, Note_off_c, 4, 76, 127
2, 71434, Note_on_c, 0, 72, 127
2, 71434, Note_on_c, 12, 59, 127
2, 71615, Note_off_c, 0, 72, 127
2, 71617, Note_on_c, 12, 71, 127
2, 71792, Note_off_c, 12, 59, 127
2, 71798, Note_off_c, 12, 71, 127
2, 71800, Note_on_c, 10, 69, 127
2, 71800, Note_on_c, 0, 60, 127
2, 71981, Note_off_c, 10, 69, 127
2, 71983, Note_off_c, 10, 45, 127
2, 71983, Note_on_c, 4, 76, 127
2, 72164, Note_off_c, 4, 76, 127
2, 72166, Note_on_c, 10, 69, 127
2, 72166, Note_on_c, 0, 48, 127
2, 72347, Note_off_c, 10, 69, 127
2, 72349, Note_on_c, 7, 67, 127
2, 72524, Note_off_c, 0, 48, 127
2, 72530, Note_off_c, 7, 67, 127
2, 72532, Note_on_c, 6, 66, 127
2, 72532, Note_on_c, 2, 50, 127
2, 72713, Note_off_c, 6, 66, 127
2, 72715, Note_on_c, 4, 64, 127
2, 72890, Note_off_c, 2, 50, 127
2, 72896, Note_off_c, 4, 64, 127
2, 72896, Note_off_c, 0, 60, 127
2, 72898, Note_on_c, 6, 66, 127
2, 72898, Note_on_c, 10, 57, 127
2, 72898, Note_on_c, 0, 48, 127
2, 73079, Note_off_c, 6, 66, 127
2, 73081, Note_on_c, 7, 67, 127
2, 73256, Note_off_c, 0, 48, 127
2, 73256, Note_off_c, 10, 57, 127
2, 73262, Note_off_c, 7, 67, 127
2, 73264, Note_on_c, 10, 69, 127
2, 73264, Note_on_c, 0, 60, 127
2, 73264, Note_on_c, 4, 52, 127
2, 73445, Note_off_c, 10, 69, 127
2, 73447, Note_on_c, 6, 66, 127
2, 73622, Note_off_c, 4, 52, 127
2, 73622, Note_off_c, 0, 60, 127
2, 73628, Note_off_c, 6, 66, 127
2, 73630, Note_on_c, 10, 69, 127
2, 73630, Note_on_c, 12, 59, 127
2, 73630, Note_on_c, 2, 50, 127
2, 73811, Note_off_c, 10, 69, 127
2, 73813, Note_on_c, 12, 71, 127
2, 73988, Note_off_c, 2, 50, 127
2, 73988, Note_off_c, 12, 59, 127
2, 73994, Note_off_c, 12, 71, 127
2, 73996, Note_on_c, 0, 72, 127
2, 73996, Note_on_c, 10, 57, 127
2, 73996, Note_on_c, 0, 48, 127
2, 74177, Note_off_c, 0, 72, 127
2, 74179, Note_on_c, 6, 66, 127
2, 74354, Note_off_c, 0, 48, 127
2, 74354, Note_off_c, 10, 57, 127
2, 74360, Note_off_c, 6, 66, 127
2, 74362, Note_on_c, 0, 72, 127
2, 74362, Note_on_c, 7, 55, 127
2, 74362, Note_on_c, 10, 45, 127
2, 74543, Note_off_c, 0, 72, 127
2, 74545, Note_on_c, 2, 74, 127
2, 74720, Note_off_c, 10, 45, 127
2, 74720, Note_off_c, 7, 55, 127
2, 74726, Note_off_c, 2, 74, 127
2, 74728, Note_on_c, 3, 75, 127
2, 74728, Note_on_c, 6, 54, 127
2, 74728, Note_on_c, 2, 50, 127
2, 74909, Note_off_c, 3, 75, 127
2, 74911, Note_on_c, 10, 81, 127
2, 75086, Note_off_c, 2, 50, 127
2, 75092, Note_off_c, 10, 81, 127
2, 75094, Note_on_c, 3, 75, 127
2, 75094, Note_on_c, 10, 45, 127
2, 75275, Note_off_c, 3, 75, 127
2, 75277, Note_on_c, 2, 74, 127
2, 75452, Note_off_c, 10, 45, 127
2, 75458, Note_off_c, 2, 74, 127
2, 75460, Note_on_c, 0, 72, 127
2, 75460, Note_on_c, 2, 50, 127
2, 75641, Note_off_c, 0, 72, 127
2, 75643, Note_off_c, 6, 54, 127
2, 75643, Note_on_c, 3, 75, 127
2, 75818, Note_off_c, 2, 50, 127
2, 75824, Note_off_c, 3, 75, 127
2, 75826, Note_on_c, 0, 72, 127
2, 75826, Note_on_c, 7, 55, 127
2, 75826, Note_on_c, 4, 52, 127
2, 76007, Note_off_c, 0, 72, 127
2, 76009, Note_on_c, 11, 70, 127
2, 76184, Note_off_c, 4, 52, 127
2, 76184, Note_off_c, 7, 55, 127
2, 76190, Note_off_c, 11, 70, 127
2, 76192, Note_on_c, 10, 69, 127
2, 76192, Note_on_c, 10, 57, 127
2, 76192, Note_on_c, 6, 54, 127
2, 76373, Note_off_c, 10, 69, 127
2, 76375, Note_on_c, 0, 72, 127
2, 76556, Note_off_c, 0, 72, 127
2, 76558, Note_on_c, 10, 69, 127
2, 76739, Note_off_c, 10, 69, 127
2, 76741, Note_on_c, 7, 67, 127
2, 76922, Note_off_c, 7, 67, 127
2, 76924, Note_on_c, 6, 66, 127
2, 77105, Note_off_c, 6, 66, 127
2, 77107, Note_on_c, 4, 64, 127
2, 77212, Note_off_c, 6, 54, 127
2, 77212, Note_off_c, 10, 57, 127
2, 77288, Note_off_c, 4, 64, 127
2, 77290, Note_on_c, 3, 63, 127
2, 77290, Note_on_c, 7, 55, 127
2, 77290, Note_on_c, 4, 52, 127
2, 77471, Note_off_c, 3, 63, 127
2, 77473, Note_on_c, 4, 64, 127
2, 77648, Note_off_c, 4, 52, 127
2, 77648, Note_off_c, 7, 55, 127
2, 77654, Note_off_c, 4, 64, 127
2, 77656, Note_on_c, 6, 66, 127
2, 77656, Note_on_c, 0, 60, 127
2, 77656, Note_on_c, 10, 57, 127
2, 77837, Note_off_c, 6, 66, 127
2, 77839, Note_on_c, 3, 63, 127
2, 78014, Note_off_c, 10, 57, 127
2, 78014, Note_off_c, 0, 60, 127
2, 78020, Note_off_c, 3, 63, 127
2, 78022, Note_on_c, 6, 66, 127
2, 78022, Note_on_c, 12, 59, 127
2, 78022, Note_on_c, 7, 55, 127
2, 78203, Note_off_c, 6, 66, 127
2, 78205, Note_on_c, 7, 67, 127
2, 78380, Note_off_c, 7, 55, 127
2, 78380, Note_off_c, 12, 59, 127
2, 78386, Note_off_c, 7, 67, 127
2, 78388, Note_on_c, 10, 69, 127
2, 78388, Note_on_c, 10, 57, 127
2, 78388, Note_on_c, 6, 54, 127
2, 78569, Note_off_c, 10, 69, 127
2, 78571, Note_on_c, 3, 63, 127
2, 78746, Note_off_c, 6, 54, 127
2, 78746, Note_off_c, 10, 57, 127
2, 78752, Note_off_c, 3, 63, 127
2, 78754, Note_on_c, 10, 69, 127
2, 78754, Note_on_c, 7, 55, 127
2, 78754, Note_on_c, 4, 52, 127
2, 78935, Note_off_c, 10, 69, 127
2, 78937, Note_on_c, 12, 71, 127
2, 79112, Note_off_c, 4, 52, 127
2, 79112, Note_off_c, 7, 55, 127
2, 79118, Note_off_c, 12, 71, 127
2, 79120, Note_on_c, 0, 72, 127
2, 79120, Note_on_c, 6, 54, 127
2, 79120, Note_on_c, 3, 51, 127
2, 79471, Note_off_c, 0, 72, 127
2, 79500, Note_off_c, 3, 51, 127
2, 79500, Note_off_c, 6, 54, 127
2, 79502, Note_on_c, 12, 71, 127
2, 79860, Note_off_c, 12, 71, 127
2, 79868, Note_on_c, 4, 76, 127
2, 80226, Note_off_c, 4, 76, 127
2, 80234, Note_on_c, 12, 47, 127
2, 80234, Note_on_c, 6, 78, 127
2, 80592, Note_off_c, 6, 78, 127
2, 80592, Note_off_c, 12, 47, 127
2, 80600, Note_on_c, 4, 52, 127
2, 80600, Note_on_c, 7, 79, 127
2, 80958, Note_off_c, 4, 52, 127
2, 80966, Note_on_c, 2, 50, 127
2, 80966, Note_on_c, 12, 71, 127
2, 81324, Note_off_c, 12, 71, 127
2, 81324, Note_off_c, 2, 50, 127
2, 81332, Note_on_c, 0, 48, 127
2, 81332, Note_on_c, 4, 76, 127
2, 81690, Note_off_c, 4, 76, 127
2, 81696, Note_off_c, 7, 79, 127
2, 81698, Note_on_c, 2, 74, 127
2, 81698, Note_on_c, 6, 78, 127
2, 82056, Note_off_c, 6, 78, 127
2, 82056, Note_off_c, 2, 74, 127
2, 82064, Note_on_c, 0, 72, 127
2, 82064, Note_on_c, 10, 81, 127
2, 82422, Note_off_c, 10, 81, 127
2, 82422, Note_off_c, 0, 72, 127
2, 82430, Note_on_c, 12, 71, 127
2, 82430, Note_on_c, 7, 79, 127
2, 82788, Note_off_c, 7, 79, 127
2, 82788, Note_off_c, 12, 71, 127
2, 82796, Note_on_c, 10, 69, 127
2, 82796, Note_on_c, 6, 78, 127
2, 83154, Note_off_c, 6, 78, 127
2, 83154, Note_off_c, 10, 69, 127
2, 83162, Note_on_c, 7, 67, 127
2, 83162, Note_on_c, 4, 76, 127
2, 83520, Note_off_c, 4, 76, 127
2, 83520, Note_off_c, 7, 67, 127
2, 83524, Note_off_c, 0, 48, 127
2, 83528, Note_on_c, 6, 66, 127
2, 83528, Note_on_c, 3, 75, 127
2, 83711, Note_on_c, 0, 60, 127
2, 83886, Note_off_c, 6, 66, 127
2, 83892, Note_off_c, 0, 60, 127
2, 83894, Note_on_c, 12, 59, 127
2, 83894, Note_on_c, 0, 72, 127
2, 84075, Note_off_c, 12, 59, 127
2, 84077, Note_on_c, 10, 57, 127
2, 84252, Note_off_c, 0, 72, 127
2, 84258, Note_off_c, 10, 57, 127
2, 84258, Note_off_c, 3, 75, 127
2, 84260, Note_on_c, 8, 56, 127
2, 84260, Note_on_c, 12, 71, 127
2, 84260, Note_on_c, 2, 74, 127
2, 84441, Note_off_c, 8, 56, 127
2, 84443, Note_on_c, 12, 59, 127
2, 84618, Note_off_c, 12, 71, 127
2, 84624, Note_off_c, 12, 59, 127
2, 84626, Note_on_c, 8, 56, 127
2, 84626, Note_on_c, 10, 69, 127
2, 84807, Note_off_c, 8, 56, 127
2, 84809, Note_on_c, 6, 54, 127
2, 84984, Note_off_c, 10, 69, 127
2, 84990, Note_off_c, 6, 54, 127
2, 84992, Note_on_c, 4, 52, 127
2, 84992, Note_on_c, 8, 68, 127
2, 85173, Note_off_c, 4, 52, 127
2, 85175, Note_on_c, 12, 59, 127
2, 85350, Note_off_c, 8, 68, 127
2, 85356, Note_off_c, 12, 59, 127
2, 85358, Note_on_c, 4, 52, 127
2, 85358, Note_on_c, 12, 71, 127
2, 85539, Note_off_c, 4, 52, 127
2, 85541, Note_on_c, 2, 50, 127
2, 85716, Note_off_c, 12, 71, 127
2, 85722, Note_off_c, 2, 50, 127
2, 85724, Note_on_c, 0, 48, 127
2, 85724, Note_on_c, 4, 64, 127
2, 85905, Note_off_c, 0, 48, 127
2, 85907, Note_on_c, 5, 53, 127
2, 86088, Note_off_c, 5, 53, 127
2, 86088, Note_off_c, 2, 74, 127
2, 86090, Note_on_c, 4, 52, 127
2, 86090, Note_on_c, 8, 68, 127
2, 86271, Note_off_c, 4, 52, 127
2, 86273, Note_on_c, 2, 50, 127
2, 86448, Note_off_c, 8, 68, 127
2, 86454, Note_off_c, 2, 50, 127
2, 86454, Note_off_c, 4, 64, 127
2, 86456, Note_on_c, 0, 48, 127
2, 86456, Note_on_c, 6, 66, 127
2, 86456, Note_on_c, 10, 69, 127
2, 86637, Note_off_c, 0, 48, 127
2, 86639, Note_on_c, 4, 52, 127
2, 86814, Note_off_c, 10, 69, 127
2, 86814, Note_off_c, 6, 66, 127
2, 86820, Note_off_c, 4, 52, 127
2, 86822, Note_on_c, 0, 48, 127
2, 86822, Note_on_c, 8, 68, 127
2, 86822, Note_on_c, 12, 71, 127
2, 87003, Note_off_c, 0, 48, 127
2, 87005, Note_on_c, 12, 47, 127
2, 87180, Note_off_c, 12, 71, 127
2, 87180, Note_off_c, 8, 68, 127
2, 87186, Note_off_c, 12, 47, 127
2, 87188, Note_on_c, 10, 45, 127
2, 87188, Note_on_c, 10, 69, 127
2, 87188, Note_on_c, 0, 72, 127
2, 87369, Note_off_c, 10, 45, 127
2, 87371, Note_on_c, 4, 52, 127
2, 87546, Note_off_c, 10, 69, 127
2, 87552, Note_off_c, 4, 52, 127
2, 87554, Note_on_c, 10, 45, 127
2, 87554, Note_on_c, 4, 64, 127
2, 87735, Note_off_c, 10, 45, 127
2, 87737, Note_on_c, 7, 43, 127
2, 87912, Note_off_c, 4, 64, 127
2, 87918, Note_off_c, 7, 43, 127
2, 87920, Note_on_c, 6, 42, 127
2, 87920, Note_on_c, 10, 69, 127
2, 88101, Note_off_c, 6, 42, 127
2, 88103, Note_on_c, 2, 50, 127
2, 88278, Note_off_c, 10, 69, 127
2, 88284, Note_off_c, 2, 50, 127
2, 88284, Note_off_c, 0, 72, 127
2, 88286, Note_on_c, 0, 48, 127
2, 88286, Note_on_c, 12, 71, 127
2, 88286, Note_on_c, 4, 76, 127
2, 88467, Note_off_c, 0, 48, 127
2, 88469, Note_on_c, 12, 47, 127
2, 88644, Note_off_c, 4, 76, 127
2, 88644, Note_off_c, 12, 71, 127
2, 88650, Note_off_c, 12, 47, 127
2, 88652, Note_on_c, 10, 45, 127
2, 88652, Note_on_c, 0, 72, 127
2, 88652, Note_on_c, 10, 81, 127
2, 88833, Note_off_c, 10, 45, 127
2, 88835, Note_on_c, 0, 48, 127
2, 89010, Note_off_c, 10, 81, 127
2, 89010, Note_off_c, 0, 72, 127
2, 89016, Note_off_c, 0, 48, 127
2, 89018, Note_on_c, 10, 45, 127
2, 89018, Note_on_c, 4, 76, 127
2, 89018, Note_on_c, 12, 83, 127
2, 89199, Note_off_c, 10, 45, 127
2, 89201, Note_on_c, 7, 43, 127
2, 89376, Note_off_c, 12, 83, 127
2, 89376, Note_off_c, 4, 76, 127
2, 89382, Note_off_c, 7, 43, 127
2, 89384, Note_on_c, 6, 42, 127
2, 89384, Note_on_c, 10, 81, 127
2, 89384, Note_on_c, 0, 84, 127
2, 89571, Note_off_c, 6, 42, 127
2, 89573, Note_on_c, 0, 48, 127
2, 89754, Note_off_c, 10, 81, 127
2, 89760, Note_off_c, 0, 48, 127
2, 89762, Note_on_c, 6, 42, 127
2, 89762, Note_on_c, 7, 79, 127
2, 89949, Note_off_c, 6, 42, 127
2, 89951, Note_on_c, 4, 40, 127
2, 90132, Note_off_c, 7, 79, 127
2, 90138, Note_off_c, 4, 40, 127
2, 90140, Note_on_c, 3, 39, 127
2, 90140, Note_on_c, 6, 78, 127
2, 90327, Note_off_c, 0, 84, 127
2, 90329, Note_on_c, 12, 83, 127
2, 90516, Note_off_c, 12, 83, 127
2, 90518, Note_on_c, 10, 81, 127
2, 90705, Note_off_c, 10, 81, 127
2, 90707, Note_on_c, 7, 79, 127
2, 90888, Note_off_c, 6, 78, 127
2, 90894, Note_off_c, 7, 79, 127
2, 90896, Note_on_c, 6, 78, 127
2, 91085, Note_on_c, 10, 81, 127
2, 91266, Note_off_c, 6, 78, 127
2, 91272, Note_off_c, 10, 81, 127
2, 91274, Note_on_c, 3, 75, 127
2, 91461, Note_off_c, 3, 75, 127
2, 91463, Note_on_c, 4, 76, 127
2, 91650, Note_off_c, 4, 76, 127
2, 91652, Note_on_c, 6, 78, 127
2, 91841, Note_on_c, 0, 72, 127
2, 92028, Note_off_c, 0, 72, 127
2, 92030, Note_on_c, 12, 71, 127
2, 92217, Note_off_c, 12, 71, 127
2, 92227, Note_on_c, 10, 69, 127
2, 92406, Note_off_c, 3, 39, 127
2, 92424, Note_off_c, 10, 69, 127
2, 92424, Note_on_c, 7, 67, 127
2, 92424, Note_on_c, 4, 40, 127
2, 92605, Note_off_c, 6, 78, 127
2, 92623, Note_on_c, 12, 83, 127
2, 92820, Note_off_c, 12, 83, 127
2, 92822, Note_on_c, 3, 75, 127
2, 93019, Note_off_c, 3, 75, 127
2, 93021, Note_on_c, 4, 76, 127
2, 93218, Note_off_c, 4, 76, 127
2, 93218, Note_off_c, 4, 40, 127
2, 93218, Note_off_c, 7, 67, 127
2, 93220, Note_on_c, 4, 76, 127
2, 93220, Note_on_c, 6, 66, 127
2, 93220, Note_on_c, 12, 47, 127
2, 93638, Note_off_c, 6, 66, 127
2, 93647, Note_on_c, 7, 67, 127
2, 94065, Note_off_c, 7, 67, 127
2, 94072, Note_off_c, 4, 76, 127
2, 94074, Note_on_c, 3, 75, 127
2, 94074, Note_on_c, 10, 69, 127
2, 94925, Note_off_c, 10, 69, 127
2, 94925, Note_off_c, 3, 75, 127
2, 94925, Note_off_c, 12, 47, 127
2, 94927, Note_on_c, 4, 76, 127
2, 94927, Note_on_c, 8, 68, 127
2, 94927, Note_on_c, 4, 40, 127
2, 97127, Note_off_c, 4, 40, 127
2, 97127, Note_off_c, 8, 68, 127
2, 97127, Note_off_c, 4, 76, 127
2, 101376, End_track
3, 0, Start_track
3, 0, Title_t, "MIDI"
3, 1536, End_track
0, 0, End_of_file
