0, 0, Header, 1, 3, 384
1, 0, Start_track
1, 0, Tempo, 500000
1, 0, Time_signature, 4, 2, 24, 8
1, 72192, End_track
2, 0, Start_track
2, 0, Text_t, "harpsichord: John Sankey"
2, 0, Program_c, 0, 6
2, 0, Pitch_bend_c, 0, 8192
2, 0, Program_c, 1, 6
2, 0, Pitch_bend_c, 1, 7792
2, 0, Program_c, 2, 6
2, 0, Pitch_bend_c, 2, 7876
2, 0, Program_c, 3, 6
2, 0, Pitch_bend_c, 3, 7952
2, 0, Program_c, 4, 6
2, 0, Pitch_bend_c, 4, 7792
2, 0, Program_c, 5, 6
2, 0, Pitch_bend_c, 5, 8112
2, 0, Program_c, 6, 6
2, 0, Pitch_bend_c, 6, 7712
2, 0, Program_c, 7, 6
2, 0, Pitch_bend_c, 7, 8037
2, 0, Program_c, 8, 6
2, 0, Pitch_bend_c, 8, 7872
2, 0, Program_c, 10, 6
2, 0, Pitch_bend_c, 10, 7712
2, 0, Program_c, 11, 6
2, 0, Pitch_bend_c, 11, 8032
2, 0, Program_c, 12, 6
2, 0, Pitch_bend_c, 12, 7872
2, 0, Title_t, "Track 1"
2, 96, Note_on_c, 4, 52, 127
2, 170, Note_off_c, 4, 52, 127
2, 174, Note_on_c, 3, 51, 127
2, 248, Note_off_c, 3, 51, 127
2, 252, Note_on_c, 4, 52, 127
2, 501, Note_on_c, 4, 40, 127
2, 501, Note_on_c, 12, 71, 127
2, 683, Note_off_c, 12, 71, 127
2, 687, Note_on_c, 10, 69, 127
2, 869, Note_off_c, 10, 69, 127
2, 873, Note_on_c, 7, 67, 127
2, 1055, Note_off_c, 7, 67, 127
2, 1059, Note_on_c, 6, 66, 127
2, 1082, Note_off_c, 4, 40, 127
2, 1124, Note_off_c, 4, 52, 127
2, 1241, Note_off_c, 6, 66, 127
2, 1245, Note_on_c, 7, 67, 127
2, 1427, Note_off_c, 7, 67, 127
2, 1431, Note_on_c, 4, 64, 127
2, 1613, Note_off_c, 4, 64, 127
2, 1617, Note_on_c, 12, 71, 127
2, 1706, Note_off_c, 12, 71, 127
2, 1710, Note_on_c, 10, 69, 127
2, 1799, Note_off_c, 10, 69, 127
2, 1803, Note_on_c, 12, 71, 127
2, 1989, Note_on_c, 12, 59, 127
2, 2171, Note_off_c, 12, 59, 127
2, 2171, Note_off_c, 12, 71, 127
2, 2175, Note_on_c, 10, 57, 127
2, 2175, Note_on_c, 12, 71, 127
2, 2357, Note_off_c, 12, 71, 127
2, 2357, Note_off_c, 10, 57, 127
2, 2361, Note_on_c, 7, 55, 127
2, 2361, Note_on_c, 4, 76, 127
2, 2450, Note_off_c, 4, 76, 127
2, 2454, Note_on_c, 3, 75, 127
2, 2543, Note_off_c, 3, 75, 127
2, 2543, Note_off_c, 7, 55, 127
2, 2547, Note_on_c, 6, 54, 127
2, 2547, Note_on_c, 4, 76, 127
2, 2729, Note_off_c, 6, 54, 127
2, 2733, Note_on_c, 7, 55, 127
2, 2915, Note_off_c, 7, 55, 127
2, 2915, Note_off_c, 4, 76, 127
2, 2919, Note_on_c, 4, 52, 127
2, 2919, Note_on_c, 6, 78, 127
2, 3101, Note_off_c, 6, 78, 127
2, 3101, Note_off_c, 4, 52, 127
2, 3105, Note_on_c, 12, 59, 127
2, 3105, Note_on_c, 3, 75, 127
2, 3473, Note_off_c, 3, 75, 127
2, 3477, Note_on_c, 12, 47, 127
2, 3477, Note_on_c, 6, 78, 127
2, 3659, Note_off_c, 6, 78, 127
2, 3663, Note_on_c, 4, 76, 127
2, 3845, Note_off_c, 4, 76, 127
2, 3849, Note_on_c, 3, 75, 127
2, 4019, Note_off_c, 12, 47, 127
2, 4031, Note_off_c, 3, 75, 127
2, 4035, Note_on_c, 1, 73, 127
2, 4054, Note_off_c, 12, 59, 127
2, 4217, Note_off_c, 1, 73, 127
2, 4221, Note_on_c, 3, 75, 127
2, 4403, Note_off_c, 3, 75, 127
2, 4407, Note_on_c, 12, 71, 127
2, 4589, Note_off_c, 12, 71, 127
2, 4593, Note_on_c, 12, 83, 127
2, 4961, Note_off_c, 12, 83, 127
2, 4965, Note_on_c, 6, 66, 127
2, 4965, Note_on_c, 10, 81, 127
2, 5147, Note_off_c, 10, 81, 127
2, 5147, Note_off_c, 6, 66, 127
2, 5151, Note_on_c, 4, 64, 127
2, 5151, Note_on_c, 7, 79, 127
2, 5333, Note_off_c, 7, 79, 127
2, 5333, Note_off_c, 4, 64, 127
2, 5337, Note_on_c, 3, 63, 127
2, 5337, Note_on_c, 7, 79, 127
2, 5426, Note_off_c, 7, 79, 127
2, 5430, Note_on_c, 6, 78, 127
2, 5519, Note_off_c, 6, 78, 127
2, 5519, Note_off_c, 3, 63, 127
2, 5523, Note_on_c, 1, 61, 127
2, 5523, Note_on_c, 7, 79, 127
2, 5612, Note_off_c, 7, 79, 127
2, 5616, Note_on_c, 6, 78, 127
2, 5705, Note_off_c, 6, 78, 127
2, 5705, Note_off_c, 1, 61, 127
2, 5709, Note_on_c, 3, 63, 127
2, 5709, Note_on_c, 7, 79, 127
2, 5798, Note_off_c, 7, 79, 127
2, 5802, Note_on_c, 6, 78, 127
2, 5891, Note_off_c, 6, 78, 127
2, 5891, Note_off_c, 3, 63, 127
2, 5895, Note_on_c, 12, 59, 127
2, 5895, Note_on_c, 4, 76, 127
2, 5984, Note_off_c, 4, 76, 127
2, 5988, Note_on_c, 6, 78, 127
2, 6077, Note_off_c, 6, 78, 127
2, 6077, Note_off_c, 12, 59, 127
2, 6081, Note_on_c, 4, 64, 127
2, 6081, Note_on_c, 7, 79, 127
2, 6449, Note_off_c, 7, 79, 127
2, 6453, Note_on_c, 4, 52, 127
2, 6453, Note_on_c, 12, 83, 127
2, 6635, Note_off_c, 12, 83, 127
2, 6639, Note_on_c, 10, 81, 127
2, 6821, Note_off_c, 10, 81, 127
2, 6825, Note_on_c, 7, 79, 127
2, 6995, Note_off_c, 4, 52, 127
2, 7007, Note_off_c, 7, 79, 127
2, 7011, Note_on_c, 6, 78, 127
2, 7050, Note_off_c, 4, 64, 127
2, 7193, Note_off_c, 6, 78, 127
2, 7197, Note_on_c, 7, 79, 127
2, 7379, Note_off_c, 7, 79, 127
2, 7383, Note_on_c, 4, 76, 127
2, 7565, Note_off_c, 4, 76, 127
2, 7569, Note_on_c, 0, 84, 127
2, 7658, Note_off_c, 0, 84, 127
2, 7662, Note_on_c, 12, 83, 127
2, 7751, Note_off_c, 12, 83, 127
2, 7755, Note_on_c, 0, 84, 127
2, 7941, Note_on_c, 4, 64, 127
2, 8123, Note_off_c, 4, 64, 127
2, 8123, Note_off_c, 0, 84, 127
2, 8127, Note_on_c, 2, 62, 127
2, 8127, Note_on_c, 12, 83, 127
2, 8309, Note_off_c, 12, 83, 127
2, 8309, Note_off_c, 2, 62, 127
2, 8313, Note_on_c, 0, 60, 127
2, 8313, Note_on_c, 10, 81, 127
2, 8495, Note_off_c, 10, 81, 127
2, 8495, Note_off_c, 0, 60, 127
2, 8499, Note_on_c, 12, 59, 127
2, 8499, Note_on_c, 7, 79, 127
2, 8681, Note_off_c, 7, 79, 127
2, 8681, Note_off_c, 12, 59, 127
2, 8685, Note_on_c, 0, 60, 127
2, 8685, Note_on_c, 6, 78, 127
2, 8867, Note_off_c, 6, 78, 127
2, 8867, Note_off_c, 0, 60, 127
2, 8871, Note_on_c, 10, 57, 127
2, 8871, Note_on_c, 4, 76, 127
2, 9053, Note_off_c, 4, 76, 127
2, 9053, Note_off_c, 10, 57, 127
2, 9057, Note_on_c, 2, 62, 127
2, 9057, Note_on_c, 6, 78, 127
2, 9146, Note_off_c, 2, 62, 127
2, 9150, Note_on_c, 0, 60, 127
2, 9239, Note_off_c, 0, 60, 127
2, 9243, Note_on_c, 2, 62, 127
2, 9425, Note_off_c, 6, 78, 127
2, 9429, Note_on_c, 2, 50, 127
2, 9429, Note_on_c, 10, 81, 127
2, 9611, Note_off_c, 10, 81, 127
2, 9615, Note_on_c, 7, 79, 127
2, 9797, Note_off_c, 7, 79, 127
2, 9801, Note_on_c, 6, 78, 127
2, 9983, Note_off_c, 6, 78, 127
2, 9987, Note_on_c, 4, 76, 127
2, 10165, Note_off_c, 2, 50, 127
2, 10169, Note_off_c, 4, 76, 127
2, 10173, Note_on_c, 6, 78, 127
2, 10212, Note_off_c, 2, 62, 127
2, 10355, Note_off_c, 6, 78, 127
2, 10359, Note_on_c, 2, 74, 127
2, 10541, Note_off_c, 2, 74, 127
2, 10545, Note_on_c, 12, 83, 127
2, 10634, Note_off_c, 12, 83, 127
2, 10638, Note_on_c, 10, 81, 127
2, 10727, Note_off_c, 10, 81, 127
2, 10731, Note_on_c, 12, 83, 127
2, 10917, Note_on_c, 2, 62, 127
2, 11099, Note_off_c, 2, 62, 127
2, 11099, Note_off_c, 12, 83, 127
2, 11103, Note_on_c, 0, 60, 127
2, 11103, Note_on_c, 10, 81, 127
2, 11285, Note_off_c, 10, 81, 127
2, 11285, Note_off_c, 0, 60, 127
2, 11289, Note_on_c, 12, 59, 127
2, 11289, Note_on_c, 7, 79, 127
2, 11471, Note_off_c, 7, 79, 127
2, 11471, Note_off_c, 12, 59, 127
2, 11475, Note_on_c, 10, 57, 127
2, 11475, Note_on_c, 6, 78, 127
2, 11657, Note_off_c, 6, 78, 127
2, 11657, Note_off_c, 10, 57, 127
2, 11661, Note_on_c, 12, 59, 127
2, 11661, Note_on_c, 4, 76, 127
2, 11843, Note_off_c, 4, 76, 127
2, 11843, Note_off_c, 12, 59, 127
2, 11847, Note_on_c, 7, 55, 127
2, 11847, Note_on_c, 2, 74, 127
2, 12029, Note_off_c, 2, 74, 127
2, 12029, Note_off_c, 7, 55, 127
2, 12033, Note_on_c, 0, 60, 127
2, 12033, Note_on_c, 4, 76, 127
2, 12122, Note_off_c, 0, 60, 127
2, 12126, Note_on_c, 12, 59, 127
2, 12215, Note_off_c, 12, 59, 127
2, 12215, Note_off_c, 4, 76, 127
2, 12219, Note_on_c, 0, 60, 127
2, 12219, Note_on_c, 6, 78, 127
2, 12401, Note_off_c, 6, 78, 127
2, 12405, Note_on_c, 4, 76, 127
2, 12587, Note_off_c, 4, 76, 127
2, 12587, Note_off_c, 0, 60, 127
2, 12591, Note_on_c, 12, 59, 127
2, 12591, Note_on_c, 2, 74, 127
2, 12773, Note_off_c, 2, 74, 127
2, 12773, Note_off_c, 12, 59, 127
2, 12777, Note_on_c, 10, 57, 127
2, 12777, Note_on_c, 0, 72, 127
2, 12959, Note_off_c, 0, 72, 127
2, 12959, Note_off_c, 10, 57, 127
2, 12963, Note_on_c, 7, 55, 127
2, 12963, Note_on_c, 12, 71, 127
2, 13145, Note_off_c, 12, 71, 127
2, 13145, Note_off_c, 7, 55, 127
2, 13149, Note_on_c, 6, 54, 127
2, 13149, Note_on_c, 10, 69, 127
2, 13331, Note_off_c, 10, 69, 127
2, 13331, Note_off_c, 6, 54, 127
2, 13335, Note_on_c, 4, 52, 127
2, 13335, Note_on_c, 7, 67, 127
2, 13517, Note_off_c, 7, 67, 127
2, 13517, Note_off_c, 4, 52, 127
2, 13521, Note_on_c, 10, 57, 127
2, 13521, Note_on_c, 0, 72, 127
2, 13610, Note_off_c, 10, 57, 127
2, 13614, Note_on_c, 7, 55, 127
2, 13703, Note_off_c, 7, 55, 127
2, 13703, Note_off_c, 0, 72, 127
2, 13707, Note_on_c, 10, 57, 127
2, 13707, Note_on_c, 12, 71, 127
2, 13889, Note_off_c, 12, 71, 127
2, 13893, Note_on_c, 10, 69, 127
2, 14075, Note_off_c, 10, 69, 127
2, 14075, Note_off_c, 10, 57, 127
2, 14079, Note_on_c, 7, 55, 127
2, 14079, Note_on_c, 12, 71, 127
2, 14261, Note_off_c, 12, 71, 127
2, 14261, Note_off_c, 7, 55, 127
2, 14265, Note_on_c, 6, 54, 127
2, 14265, Note_on_c, 0, 72, 127
2, 14447, Note_off_c, 0, 72, 127
2, 14447, Note_off_c, 6, 54, 127
2, 14451, Note_on_c, 4, 52, 127
2, 14451, Note_on_c, 2, 74, 127
2, 14633, Note_off_c, 2, 74, 127
2, 14633, Note_off_c, 4, 52, 127
2, 14637, Note_on_c, 2, 50, 127
2, 14637, Note_on_c, 4, 76, 127
2, 14819, Note_off_c, 4, 76, 127
2, 14819, Note_off_c, 2, 50, 127
2, 14823, Note_on_c, 0, 48, 127
2, 14823, Note_on_c, 6, 78, 127
2, 15005, Note_off_c, 6, 78, 127
2, 15005, Note_off_c, 0, 48, 127
2, 15009, Note_on_c, 12, 47, 127
2, 15009, Note_on_c, 7, 79, 127
2, 15191, Note_off_c, 7, 79, 127
2, 15195, Note_on_c, 6, 78, 127
2, 15377, Note_off_c, 6, 78, 127
2, 15381, Note_on_c, 4, 76, 127
2, 15547, Note_off_c, 12, 47, 127
2, 15562, Note_off_c, 4, 76, 127
2, 15566, Note_on_c, 0, 48, 127
2, 15566, Note_on_c, 2, 74, 127
2, 15748, Note_off_c, 2, 74, 127
2, 15748, Note_off_c, 0, 48, 127
2, 15752, Note_on_c, 12, 47, 127
2, 15752, Note_on_c, 7, 79, 127
2, 15841, Note_off_c, 7, 79, 127
2, 15845, Note_on_c, 6, 78, 127
2, 15934, Note_off_c, 6, 78, 127
2, 15934, Note_off_c, 12, 47, 127
2, 15938, Note_on_c, 10, 45, 127
2, 15938, Note_on_c, 7, 79, 127
2, 16120, Note_off_c, 10, 45, 127
2, 16124, Note_on_c, 7, 43, 127
2, 16306, Note_off_c, 7, 43, 127
2, 16306, Note_off_c, 7, 79, 127
2, 16310, Note_on_c, 6, 42, 127
2, 16310, Note_on_c, 7, 79, 127
2, 16492, Note_off_c, 7, 79, 127
2, 16492, Note_off_c, 6, 42, 127
2, 16496, Note_on_c, 4, 40, 127
2, 16496, Note_on_c, 7, 79, 127
2, 16678, Note_off_c, 7, 79, 127
2, 16682, Note_on_c, 6, 78, 127
2, 16864, Note_off_c, 6, 78, 127
2, 16864, Note_off_c, 4, 40, 127
2, 16868, Note_on_c, 0, 48, 127
2, 16868, Note_on_c, 4, 76, 127
2, 17050, Note_off_c, 4, 76, 127
2, 17054, Note_on_c, 6, 78, 127
2, 17236, Note_off_c, 6, 78, 127
2, 17236, Note_off_c, 0, 48, 127
2, 17240, Note_on_c, 2, 50, 127
2, 17240, Note_on_c, 7, 79, 127
2, 17362, Note_off_c, 7, 79, 127
2, 17364, Note_on_c, 6, 78, 127
2, 17426, Note_off_c, 6, 78, 127
2, 17426, Note_on_c, 7, 79, 127
2, 17488, Note_off_c, 7, 79, 127
2, 17488, Note_on_c, 6, 78, 127
2, 17550, Note_off_c, 6, 78, 127
2, 17550, Note_on_c, 7, 79, 127
2, 17612, Note_off_c, 7, 79, 127
2, 17612, Note_on_c, 2, 38, 127
2, 17612, Note_on_c, 6, 78, 127
2, 17796, Note_off_c, 6, 78, 127
2, 17798, Note_on_c, 7, 79, 127
2, 17976, Note_off_c, 2, 50, 127
2, 17980, Note_off_c, 7, 79, 127
2, 17980, Note_off_c, 2, 38, 127
2, 17984, Note_on_c, 7, 43, 127
2, 17984, Note_on_c, 7, 79, 127
2, 18352, Note_off_c, 7, 79, 127
2, 18356, Note_on_c, 2, 74, 127
2, 18538, Note_off_c, 2, 74, 127
2, 18542, Note_on_c, 0, 72, 127
2, 18724, Note_off_c, 0, 72, 127
2, 18728, Note_on_c, 12, 71, 127
2, 18910, Note_off_c, 12, 71, 127
2, 18914, Note_on_c, 10, 69, 127
2, 19096, Note_off_c, 10, 69, 127
2, 19100, Note_on_c, 12, 71, 127
2, 19282, Note_off_c, 12, 71, 127
2, 19286, Note_on_c, 7, 67, 127
2, 19468, Note_off_c, 7, 67, 127
2, 19470, Note_off_c, 7, 43, 127
2, 19472, Note_on_c, 4, 76, 127
2, 19540, Note_off_c, 4, 76, 127
2, 19542, Note_on_c, 2, 74, 127
2, 19610, Note_off_c, 2, 74, 127
2, 19614, Note_on_c, 4, 76, 127
2, 19682, Note_off_c, 4, 76, 127
2, 19684, Note_on_c, 2, 74, 127
2, 19752, Note_off_c, 2, 74, 127
2, 19756, Note_on_c, 4, 76, 127
2, 19824, Note_off_c, 4, 76, 127
2, 19828, Note_on_c, 2, 74, 127
2, 19845, Note_on_c, 7, 43, 127
2, 19895, Note_off_c, 2, 74, 127
2, 19897, Note_on_c, 4, 76, 127
2, 19965, Note_off_c, 4, 76, 127
2, 19969, Note_on_c, 2, 74, 127
2, 20027, Note_off_c, 7, 43, 127
2, 20031, Note_on_c, 10, 45, 127
2, 20037, Note_off_c, 2, 74, 127
2, 20041, Note_on_c, 4, 76, 127
2, 20109, Note_off_c, 4, 76, 127
2, 20111, Note_on_c, 2, 74, 127
2, 20179, Note_off_c, 2, 74, 127
2, 20183, Note_on_c, 4, 76, 127
2, 20214, Note_off_c, 10, 45, 127
2, 20218, Note_on_c, 12, 47, 127
2, 20251, Note_off_c, 4, 76, 127
2, 20255, Note_on_c, 2, 74, 127
2, 20323, Note_off_c, 2, 74, 127
2, 20325, Note_on_c, 4, 76, 127
2, 20393, Note_off_c, 4, 76, 127
2, 20397, Note_on_c, 2, 74, 127
2, 20401, Note_off_c, 12, 47, 127
2, 20405, Note_on_c, 10, 45, 127
2, 20465, Note_off_c, 2, 74, 127
2, 20467, Note_on_c, 4, 76, 127
2, 20535, Note_off_c, 4, 76, 127
2, 20539, Note_on_c, 2, 74, 127
2, 20587, Note_off_c, 10, 45, 127
2, 20591, Note_on_c, 12, 47, 127
2, 20606, Note_off_c, 2, 74, 127
2, 20610, Note_on_c, 4, 76, 127
2, 20678, Note_off_c, 4, 76, 127
2, 20680, Note_on_c, 2, 74, 127
2, 20748, Note_off_c, 2, 74, 127
2, 20752, Note_on_c, 4, 76, 127
2, 20773, Note_off_c, 12, 47, 127
2, 20777, Note_on_c, 7, 43, 127
2, 20820, Note_off_c, 4, 76, 127
2, 20824, Note_on_c, 2, 74, 127
2, 20892, Note_off_c, 2, 74, 127
2, 20894, Note_on_c, 4, 76, 127
2, 20960, Note_off_c, 7, 43, 127
2, 20962, Note_off_c, 4, 76, 127
2, 20964, Note_on_c, 2, 50, 127
2, 20966, Note_on_c, 2, 74, 127
2, 21034, Note_off_c, 2, 74, 127
2, 21038, Note_on_c, 4, 76, 127
2, 21106, Note_off_c, 4, 76, 127
2, 21108, Note_on_c, 2, 74, 127
2, 21147, Note_off_c, 2, 50, 127
2, 21151, Note_on_c, 1, 49, 127
2, 21176, Note_off_c, 2, 74, 127
2, 21180, Note_on_c, 4, 76, 127
2, 21248, Note_off_c, 4, 76, 127
2, 21252, Note_on_c, 2, 74, 127
2, 21320, Note_off_c, 2, 74, 127
2, 21322, Note_on_c, 4, 76, 127
2, 21334, Note_off_c, 1, 49, 127
2, 21338, Note_on_c, 2, 50, 127
2, 21390, Note_off_c, 4, 76, 127
2, 21394, Note_on_c, 2, 74, 127
2, 21462, Note_off_c, 2, 74, 127
2, 21464, Note_on_c, 4, 76, 127
2, 21520, Note_off_c, 2, 50, 127
2, 21524, Note_on_c, 4, 52, 127
2, 21532, Note_off_c, 4, 76, 127
2, 21536, Note_on_c, 2, 74, 127
2, 21604, Note_off_c, 2, 74, 127
2, 21608, Note_on_c, 4, 76, 127
2, 21676, Note_off_c, 4, 76, 127
2, 21678, Note_on_c, 2, 74, 127
2, 21707, Note_off_c, 4, 52, 127
2, 21711, Note_on_c, 6, 54, 127
2, 21746, Note_off_c, 2, 74, 127
2, 21750, Note_on_c, 4, 76, 127
2, 21818, Note_off_c, 4, 76, 127
2, 21822, Note_on_c, 2, 74, 127
2, 21890, Note_off_c, 2, 74, 127
2, 21892, Note_on_c, 4, 76, 127
2, 21894, Note_off_c, 6, 54, 127
2, 21898, Note_on_c, 4, 52, 127
2, 21960, Note_off_c, 4, 76, 127
2, 21964, Note_on_c, 2, 74, 127
2, 22032, Note_off_c, 2, 74, 127
2, 22036, Note_on_c, 4, 76, 127
2, 22081, Note_off_c, 4, 52, 127
2, 22085, Note_on_c, 6, 54, 127
2, 22104, Note_off_c, 4, 76, 127
2, 22106, Note_on_c, 2, 74, 127
2, 22174, Note_off_c, 2, 74, 127
2, 22178, Note_on_c, 4, 76, 127
2, 22246, Note_off_c, 4, 76, 127
2, 22250, Note_on_c, 2, 74, 127
2, 22267, Note_off_c, 6, 54, 127
2, 22271, Note_on_c, 2, 50, 127
2, 22317, Note_off_c, 2, 74, 127
2, 22319, Note_on_c, 4, 76, 127
2, 22387, Note_off_c, 4, 76, 127
2, 22391, Note_on_c, 2, 74, 127
2, 22453, Note_off_c, 2, 50, 127
2, 22457, Note_on_c, 7, 55, 127
2, 22459, Note_off_c, 2, 74, 127
2, 22461, Note_on_c, 4, 76, 127
2, 22529, Note_off_c, 4, 76, 127
2, 22533, Note_on_c, 2, 74, 127
2, 22601, Note_off_c, 2, 74, 127
2, 22605, Note_on_c, 4, 76, 127
2, 22640, Note_off_c, 7, 55, 127
2, 22644, Note_on_c, 6, 54, 127
2, 22673, Note_off_c, 4, 76, 127
2, 22675, Note_on_c, 2, 74, 127
2, 22743, Note_off_c, 2, 74, 127
2, 22747, Note_on_c, 4, 76, 127
2, 22815, Note_off_c, 4, 76, 127
2, 22819, Note_on_c, 2, 74, 127
2, 22827, Note_off_c, 6, 54, 127
2, 22831, Note_on_c, 7, 55, 127
2, 22887, Note_off_c, 2, 74, 127
2, 22889, Note_on_c, 4, 76, 127
2, 22957, Note_off_c, 4, 76, 127
2, 22961, Note_on_c, 2, 74, 127
2, 23013, Note_off_c, 7, 55, 127
2, 23017, Note_on_c, 10, 57, 127
2, 23029, Note_off_c, 2, 74, 127
2, 23033, Note_on_c, 4, 76, 127
2, 23101, Note_off_c, 4, 76, 127
2, 23103, Note_on_c, 2, 74, 127
2, 23171, Note_off_c, 2, 74, 127
2, 23175, Note_on_c, 4, 76, 127
2, 23200, Note_off_c, 10, 57, 127
2, 23204, Note_on_c, 12, 59, 127
2, 23243, Note_off_c, 4, 76, 127
2, 23245, Note_on_c, 2, 74, 127
2, 23313, Note_off_c, 2, 74, 127
2, 23317, Note_on_c, 4, 76, 127
2, 23387, Note_off_c, 12, 59, 127
2, 23387, Note_on_c, 2, 74, 127
2, 23391, Note_on_c, 10, 57, 127
2, 23455, Note_off_c, 2, 74, 127
2, 23455, Note_off_c, 4, 76, 127
2, 23459, Note_on_c, 4, 76, 127
2, 23527, Note_off_c, 4, 76, 127
2, 23531, Note_on_c, 2, 74, 127
2, 23574, Note_off_c, 10, 57, 127
2, 23578, Note_on_c, 12, 59, 127
2, 23599, Note_off_c, 2, 74, 127
2, 23601, Note_on_c, 4, 76, 127
2, 23669, Note_off_c, 4, 76, 127
2, 23673, Note_on_c, 2, 74, 127
2, 23741, Note_off_c, 2, 74, 127
2, 23745, Note_on_c, 4, 76, 127
2, 23760, Note_off_c, 12, 59, 127
2, 23764, Note_on_c, 6, 54, 127
2, 23812, Note_off_c, 4, 76, 127
2, 23814, Note_on_c, 2, 74, 127
2, 23882, Note_off_c, 2, 74, 127
2, 23886, Note_on_c, 4, 76, 127
2, 23946, Note_off_c, 6, 54, 127
2, 23950, Note_on_c, 7, 55, 127
2, 23954, Note_off_c, 4, 76, 127
2, 23956, Note_on_c, 2, 74, 127
2, 24132, Note_off_c, 7, 55, 127
2, 24136, Note_on_c, 6, 54, 127
2, 24318, Note_off_c, 6, 54, 127
2, 24322, Note_on_c, 7, 55, 127
2, 24469, Note_off_c, 2, 74, 127
2, 24504, Note_off_c, 7, 55, 127
2, 24508, Note_on_c, 4, 52, 127
2, 24508, Note_on_c, 4, 76, 127
2, 24690, Note_off_c, 4, 52, 127
2, 24692, Note_off_c, 4, 76, 127
2, 24694, Note_on_c, 10, 57, 127
2, 24694, Note_on_c, 2, 74, 127
2, 24816, Note_off_c, 2, 74, 127
2, 24818, Note_on_c, 1, 73, 127
2, 24880, Note_off_c, 1, 73, 127
2, 24880, Note_on_c, 2, 74, 127
2, 24942, Note_off_c, 2, 74, 127
2, 24942, Note_on_c, 1, 73, 127
2, 25004, Note_off_c, 1, 73, 127
2, 25004, Note_on_c, 2, 74, 127
2, 25062, Note_off_c, 10, 57, 127
2, 25066, Note_off_c, 2, 74, 127
2, 25066, Note_on_c, 10, 45, 127
2, 25066, Note_on_c, 1, 73, 127
2, 25250, Note_off_c, 1, 73, 127
2, 25252, Note_on_c, 2, 74, 127
2, 25434, Note_off_c, 2, 74, 127
2, 25434, Note_off_c, 10, 45, 127
2, 25438, Note_on_c, 2, 50, 127
2, 25438, Note_on_c, 2, 74, 127
2, 25806, Note_off_c, 2, 74, 127
2, 25810, Note_on_c, 2, 38, 127
2, 25810, Note_on_c, 10, 69, 127
2, 25992, Note_off_c, 10, 69, 127
2, 25996, Note_on_c, 7, 67, 127
2, 26178, Note_off_c, 7, 67, 127
2, 26182, Note_on_c, 6, 66, 127
2, 26352, Note_off_c, 2, 38, 127
2, 26364, Note_off_c, 6, 66, 127
2, 26368, Note_on_c, 4, 64, 127
2, 26407, Note_off_c, 2, 50, 127
2, 26550, Note_off_c, 4, 64, 127
2, 26554, Note_on_c, 6, 66, 127
2, 26736, Note_off_c, 6, 66, 127
2, 26740, Note_on_c, 2, 62, 127
2, 26918, Note_off_c, 2, 62, 127
2, 26926, Note_on_c, 0, 72, 127
2, 27015, Note_off_c, 0, 72, 127
2, 27019, Note_on_c, 12, 71, 127
2, 27108, Note_off_c, 12, 71, 127
2, 27112, Note_on_c, 0, 72, 127
2, 27298, Note_on_c, 10, 57, 127
2, 27480, Note_off_c, 10, 57, 127
2, 27480, Note_off_c, 0, 72, 127
2, 27484, Note_on_c, 7, 55, 127
2, 27484, Note_on_c, 12, 71, 127
2, 27666, Note_off_c, 12, 71, 127
2, 27666, Note_off_c, 7, 55, 127
2, 27670, Note_on_c, 6, 54, 127
2, 27670, Note_on_c, 0, 72, 127
2, 27852, Note_off_c, 6, 54, 127
2, 27856, Note_on_c, 4, 52, 127
2, 28038, Note_off_c, 4, 52, 127
2, 28042, Note_on_c, 6, 54, 127
2, 28224, Note_off_c, 6, 54, 127
2, 28224, Note_off_c, 0, 72, 127
2, 28228, Note_on_c, 2, 50, 127
2, 28228, Note_on_c, 2, 74, 127
2, 28410, Note_off_c, 2, 74, 127
2, 28410, Note_off_c, 2, 50, 127
2, 28414, Note_on_c, 7, 55, 127
2, 28414, Note_on_c, 0, 72, 127
2, 28476, Note_off_c, 0, 72, 127
2, 28476, Note_on_c, 12, 71, 127
2, 28538, Note_off_c, 12, 71, 127
2, 28538, Note_on_c, 0, 72, 127
2, 28596, Note_off_c, 7, 55, 127
2, 28600, Note_off_c, 0, 72, 127
2, 28600, Note_on_c, 10, 57, 127
2, 28600, Note_on_c, 12, 71, 127
2, 28782, Note_off_c, 10, 57, 127
2, 28786, Note_on_c, 7, 55, 127
2, 28949, Note_off_c, 12, 71, 127
2, 28968, Note_off_c, 7, 55, 127
2, 28972, Note_on_c, 6, 54, 127
2, 28972, Note_on_c, 12, 71, 127
2, 29154, Note_off_c, 12, 71, 127
2, 29154, Note_off_c, 6, 54, 127
2, 29158, Note_on_c, 4, 52, 127
2, 29158, Note_on_c, 4, 76, 127
2, 29247, Note_off_c, 4, 76, 127
2, 29251, Note_on_c, 2, 74, 127
2, 29340, Note_off_c, 2, 74, 127
2, 29340, Note_off_c, 4, 52, 127
2, 29344, Note_on_c, 2, 50, 127
2, 29344, Note_on_c, 4, 76, 127
2, 29526, Note_off_c, 2, 50, 127
2, 29530, Note_on_c, 4, 52, 127
2, 29712, Note_off_c, 4, 52, 127
2, 29712, Note_off_c, 4, 76, 127
2, 29716, Note_on_c, 1, 49, 127
2, 29716, Note_on_c, 4, 76, 127
2, 29898, Note_off_c, 4, 76, 127
2, 29898, Note_off_c, 1, 49, 127
2, 29902, Note_on_c, 6, 54, 127
2, 29902, Note_on_c, 4, 76, 127
2, 30084, Note_off_c, 4, 76, 127
2, 30088, Note_on_c, 7, 79, 127
2, 30270, Note_off_c, 7, 79, 127
2, 30270, Note_off_c, 6, 54, 127
2, 30274, Note_on_c, 11, 46, 127
2, 30274, Note_on_c, 6, 78, 127
2, 30456, Note_off_c, 6, 78, 127
2, 30460, Note_on_c, 4, 76, 127
2, 30642, Note_off_c, 4, 76, 127
2, 30642, Note_off_c, 11, 46, 127
2, 30646, Note_on_c, 12, 47, 127
2, 30646, Note_on_c, 2, 74, 127
2, 30828, Note_off_c, 2, 74, 127
2, 30832, Note_on_c, 1, 73, 127
2, 31014, Note_off_c, 1, 73, 127
2, 31014, Note_off_c, 12, 47, 127
2, 31018, Note_on_c, 7, 43, 127
2, 31018, Note_on_c, 2, 74, 127
2, 31200, Note_off_c, 2, 74, 127
2, 31204, Note_on_c, 12, 71, 127
2, 31386, Note_off_c, 12, 71, 127
2, 31386, Note_off_c, 7, 43, 127
2, 31390, Note_on_c, 6, 42, 127
2, 31390, Note_on_c, 11, 70, 127
2, 31738, Note_off_c, 6, 42, 127
2, 31748, Note_off_c, 11, 70, 127
2, 31762, Note_on_c, 6, 78, 127
2, 31944, Note_off_c, 6, 78, 127
2, 31948, Note_on_c, 4, 76, 127
2, 32130, Note_off_c, 4, 76, 127
2, 32134, Note_on_c, 2, 74, 127
2, 32316, Note_off_c, 2, 74, 127
2, 32320, Note_on_c, 1, 73, 127
2, 32502, Note_off_c, 1, 73, 127
2, 32506, Note_on_c, 12, 59, 127
2, 32506, Note_on_c, 2, 74, 127
2, 32688, Note_off_c, 2, 74, 127
2, 32688, Note_off_c, 12, 59, 127
2, 32692, Note_on_c, 10, 57, 127
2, 32692, Note_on_c, 12, 71, 127
2, 32874, Note_off_c, 12, 71, 127
2, 32874, Note_off_c, 10, 57, 127
2, 32878, Note_on_c, 7, 55, 127
2, 32878, Note_on_c, 4, 76, 127
2, 33060, Note_off_c, 7, 55, 127
2, 33064, Note_on_c, 6, 54, 127
2, 33246, Note_off_c, 6, 54, 127
2, 33246, Note_off_c, 4, 76, 127
2, 33250, Note_on_c, 7, 55, 127
2, 33250, Note_on_c, 12, 83, 127
2, 33432, Note_off_c, 12, 83, 127
2, 33432, Note_off_c, 7, 55, 127
2, 33436, Note_on_c, 4, 52, 127
2, 33436, Note_on_c, 10, 81, 127
2, 33618, Note_off_c, 10, 81, 127
2, 33618, Note_off_c, 4, 52, 127
2, 33622, Note_on_c, 2, 62, 127
2, 33622, Note_on_c, 7, 79, 127
2, 33713, Note_off_c, 2, 62, 127
2, 33715, Note_on_c, 1, 61, 127
2, 33804, Note_off_c, 7, 79, 127
2, 33806, Note_off_c, 1, 61, 127
2, 33808, Note_on_c, 2, 62, 127
2, 33808, Note_on_c, 6, 78, 127
2, 33990, Note_off_c, 6, 78, 127
2, 33994, Note_on_c, 7, 79, 127
2, 34176, Note_off_c, 7, 79, 127
2, 34176, Note_off_c, 2, 62, 127
2, 34180, Note_on_c, 4, 64, 127
2, 34180, Note_on_c, 4, 76, 127
2, 34362, Note_off_c, 4, 76, 127
2, 34362, Note_off_c, 4, 64, 127
2, 34366, Note_on_c, 1, 61, 127
2, 34366, Note_on_c, 11, 82, 127
2, 34734, Note_off_c, 11, 82, 127
2, 34734, Note_off_c, 1, 61, 127
2, 34738, Note_on_c, 7, 67, 127
2, 34738, Note_on_c, 1, 73, 127
2, 34920, Note_off_c, 7, 67, 127
2, 34924, Note_on_c, 6, 66, 127
2, 35106, Note_off_c, 6, 66, 127
2, 35106, Note_off_c, 1, 73, 127
2, 35110, Note_on_c, 4, 64, 127
2, 35110, Note_on_c, 6, 78, 127
2, 35292, Note_off_c, 4, 64, 127
2, 35296, Note_on_c, 2, 62, 127
2, 35478, Note_off_c, 2, 62, 127
2, 35478, Note_off_c, 6, 78, 127
2, 35482, Note_on_c, 4, 64, 127
2, 35482, Note_on_c, 11, 70, 127
2, 35664, Note_off_c, 4, 64, 127
2, 35668, Note_on_c, 1, 61, 127
2, 35850, Note_off_c, 1, 61, 127
2, 35850, Note_off_c, 11, 70, 127
2, 35854, Note_on_c, 2, 62, 127
2, 35854, Note_on_c, 12, 71, 127
2, 35943, Note_off_c, 12, 71, 127
2, 35947, Note_on_c, 11, 70, 127
2, 36036, Note_off_c, 11, 70, 127
2, 36036, Note_off_c, 2, 62, 127
2, 36040, Note_on_c, 1, 61, 127
2, 36040, Note_on_c, 12, 71, 127
2, 36222, Note_off_c, 1, 61, 127
2, 36226, Note_on_c, 2, 62, 127
2, 36408, Note_off_c, 2, 62, 127
2, 36408, Note_off_c, 12, 71, 127
2, 36412, Note_on_c, 12, 59, 127
2, 36412, Note_on_c, 1, 73, 127
2, 36594, Note_off_c, 1, 73, 127
2, 36594, Note_off_c, 12, 59, 127
2, 36598, Note_on_c, 6, 66, 127
2, 36598, Note_on_c, 2, 74, 127
2, 36720, Note_off_c, 2, 74, 127
2, 36722, Note_on_c, 1, 73, 127
2, 36784, Note_off_c, 1, 73, 127
2, 36784, Note_on_c, 2, 74, 127
2, 36846, Note_off_c, 2, 74, 127
2, 36846, Note_on_c, 1, 73, 127
2, 36908, Note_off_c, 1, 73, 127
2, 36908, Note_on_c, 2, 74, 127
2, 36966, Note_off_c, 6, 66, 127
2, 36970, Note_off_c, 2, 74, 127
2, 36970, Note_on_c, 6, 54, 127
2, 36970, Note_on_c, 1, 73, 127
2, 37154, Note_off_c, 1, 73, 127
2, 37156, Note_on_c, 12, 71, 127
2, 37338, Note_off_c, 12, 71, 127
2, 37338, Note_off_c, 6, 54, 127
2, 37342, Note_on_c, 12, 59, 127
2, 37342, Note_on_c, 12, 71, 127
2, 37524, Note_off_c, 12, 59, 127
2, 37528, Note_on_c, 0, 60, 127
2, 37700, Note_off_c, 12, 71, 127
2, 37710, Note_off_c, 0, 60, 127
2, 37714, Note_on_c, 12, 59, 127
2, 37714, Note_on_c, 2, 74, 127
2, 37896, Note_off_c, 12, 59, 127
2, 37900, Note_on_c, 10, 57, 127
2, 38072, Note_off_c, 2, 74, 127
2, 38082, Note_off_c, 10, 57, 127
2, 38086, Note_on_c, 8, 56, 127
2, 38086, Note_on_c, 4, 64, 127
2, 38268, Note_off_c, 8, 56, 127
2, 38272, Note_on_c, 6, 54, 127
2, 38444, Note_off_c, 4, 64, 127
2, 38454, Note_off_c, 6, 54, 127
2, 38458, Note_on_c, 8, 56, 127
2, 38458, Note_on_c, 2, 74, 127
2, 38640, Note_off_c, 8, 56, 127
2, 38644, Note_on_c, 4, 52, 127
2, 38816, Note_off_c, 2, 74, 127
2, 38826, Note_off_c, 4, 52, 127
2, 38830, Note_on_c, 10, 57, 127
2, 38830, Note_on_c, 0, 72, 127
2, 39012, Note_off_c, 10, 57, 127
2, 39016, Note_on_c, 12, 59, 127
2, 39188, Note_off_c, 0, 72, 127
2, 39198, Note_off_c, 12, 59, 127
2, 39202, Note_on_c, 10, 57, 127
2, 39202, Note_on_c, 10, 69, 127
2, 39384, Note_off_c, 10, 57, 127
2, 39388, Note_on_c, 7, 55, 127
2, 39560, Note_off_c, 10, 69, 127
2, 39570, Note_off_c, 7, 55, 127
2, 39574, Note_on_c, 6, 54, 127
2, 39574, Note_on_c, 2, 62, 127
2, 39756, Note_off_c, 6, 54, 127
2, 39760, Note_on_c, 4, 52, 127
2, 39932, Note_off_c, 2, 62, 127
2, 39942, Note_off_c, 4, 52, 127
2, 39946, Note_on_c, 6, 54, 127
2, 39946, Note_on_c, 0, 72, 127
2, 40128, Note_off_c, 6, 54, 127
2, 40132, Note_on_c, 2, 50, 127
2, 40304, Note_off_c, 0, 72, 127
2, 40314, Note_off_c, 2, 50, 127
2, 40318, Note_on_c, 7, 55, 127
2, 40318, Note_on_c, 12, 71, 127
2, 40500, Note_off_c, 7, 55, 127
2, 40504, Note_on_c, 10, 57, 127
2, 40676, Note_off_c, 12, 71, 127
2, 40686, Note_off_c, 10, 57, 127
2, 40690, Note_on_c, 7, 55, 127
2, 40690, Note_on_c, 2, 74, 127
2, 40872, Note_off_c, 7, 55, 127
2, 40876, Note_on_c, 6, 54, 127
2, 41048, Note_off_c, 2, 74, 127
2, 41058, Note_off_c, 6, 54, 127
2, 41062, Note_on_c, 4, 52, 127
2, 41062, Note_on_c, 7, 79, 127
2, 41244, Note_off_c, 4, 52, 127
2, 41248, Note_on_c, 2, 50, 127
2, 41420, Note_off_c, 7, 79, 127
2, 41430, Note_off_c, 2, 50, 127
2, 41434, Note_on_c, 4, 52, 127
2, 41434, Note_on_c, 12, 71, 127
2, 41616, Note_off_c, 4, 52, 127
2, 41620, Note_on_c, 1, 49, 127
2, 41792, Note_off_c, 12, 71, 127
2, 41802, Note_off_c, 1, 49, 127
2, 41806, Note_on_c, 3, 51, 127
2, 41806, Note_on_c, 10, 69, 127
2, 41988, Note_off_c, 3, 51, 127
2, 41992, Note_on_c, 1, 49, 127
2, 42164, Note_off_c, 10, 69, 127
2, 42174, Note_off_c, 1, 49, 127
2, 42178, Note_on_c, 3, 51, 127
2, 42178, Note_on_c, 6, 78, 127
2, 42360, Note_off_c, 3, 51, 127
2, 42364, Note_on_c, 12, 47, 127
2, 42536, Note_off_c, 6, 78, 127
2, 42546, Note_off_c, 12, 47, 127
2, 42550, Note_on_c, 4, 52, 127
2, 42550, Note_on_c, 7, 67, 127
2, 42732, Note_off_c, 4, 52, 127
2, 42736, Note_on_c, 3, 51, 127
2, 42908, Note_off_c, 7, 67, 127
2, 42918, Note_off_c, 3, 51, 127
2, 42922, Note_on_c, 4, 52, 127
2, 42922, Note_on_c, 4, 76, 127
2, 43104, Note_off_c, 4, 52, 127
2, 43108, Note_on_c, 4, 40, 127
2, 43280, Note_off_c, 4, 76, 127
2, 43290, Note_off_c, 4, 40, 127
2, 43294, Note_on_c, 0, 48, 127
2, 43294, Note_on_c, 3, 75, 127
2, 43366, Note_off_c, 0, 48, 127
2, 43366, Note_on_c, 12, 47, 127
2, 43438, Note_off_c, 12, 47, 127
2, 43440, Note_on_c, 0, 48, 127
2, 43512, Note_off_c, 0, 48, 127
2, 43512, Note_on_c, 12, 47, 127
2, 43584, Note_off_c, 12, 47, 127
2, 43586, Note_on_c, 0, 48, 127
2, 43658, Note_off_c, 0, 48, 127
2, 43658, Note_on_c, 12, 47, 127
2, 43664, Note_off_c, 3, 75, 127
2, 43668, Note_on_c, 6, 78, 127
2, 43730, Note_off_c, 12, 47, 127
2, 43732, Note_on_c, 0, 48, 127
2, 43804, Note_off_c, 0, 48, 127
2, 43804, Note_on_c, 12, 47, 127
2, 43850, Note_off_c, 6, 78, 127
2, 43854, Note_on_c, 4, 76, 127
2, 43875, Note_off_c, 12, 47, 127
2, 43877, Note_on_c, 0, 48, 127
2, 43949, Note_off_c, 0, 48, 127
2, 43949, Note_on_c, 12, 47, 127
2, 44021, Note_off_c, 12, 47, 127
2, 44023, Note_on_c, 0, 48, 127
2, 44037, Note_off_c, 4, 76, 127
2, 44041, Note_on_c, 3, 75, 127
2, 44095, Note_off_c, 0, 48, 127
2, 44095, Note_on_c, 12, 47, 127
2, 44167, Note_off_c, 12, 47, 127
2, 44169, Note_on_c, 0, 48, 127
2, 44223, Note_off_c, 3, 75, 127
2, 44227, Note_on_c, 1, 73, 127
2, 44241, Note_off_c, 0, 48, 127
2, 44241, Note_on_c, 12, 47, 127
2, 44313, Note_off_c, 12, 47, 127
2, 44315, Note_on_c, 0, 48, 127
2, 44387, Note_off_c, 0, 48, 127
2, 44387, Note_on_c, 12, 47, 127
2, 44410, Note_off_c, 1, 73, 127
2, 44414, Note_on_c, 12, 71, 127
2, 44459, Note_off_c, 12, 47, 127
2, 44461, Note_on_c, 0, 48, 127
2, 44533, Note_off_c, 0, 48, 127
2, 44533, Note_on_c, 12, 47, 127
2, 44597, Note_off_c, 12, 71, 127
2, 44601, Note_on_c, 10, 69, 127
2, 44605, Note_off_c, 12, 47, 127
2, 44607, Note_on_c, 0, 48, 127
2, 44679, Note_off_c, 0, 48, 127
2, 44679, Note_on_c, 12, 47, 127
2, 44751, Note_off_c, 12, 47, 127
2, 44753, Note_on_c, 0, 48, 127
2, 44784, Note_off_c, 10, 69, 127
2, 44788, Note_on_c, 7, 67, 127
2, 44825, Note_off_c, 0, 48, 127
2, 44825, Note_on_c, 12, 47, 127
2, 44897, Note_off_c, 12, 47, 127
2, 44899, Note_on_c, 0, 48, 127
2, 44971, Note_off_c, 0, 48, 127
2, 44971, Note_off_c, 7, 67, 127
2, 44971, Note_on_c, 12, 47, 127
2, 44975, Note_on_c, 6, 66, 127
2, 45043, Note_off_c, 12, 47, 127
2, 45045, Note_on_c, 0, 48, 127
2, 45117, Note_off_c, 0, 48, 127
2, 45117, Note_on_c, 12, 47, 127
2, 45158, Note_off_c, 6, 66, 127
2, 45162, Note_on_c, 7, 67, 127
2, 45189, Note_off_c, 12, 47, 127
2, 45191, Note_on_c, 0, 48, 127
2, 45263, Note_off_c, 0, 48, 127
2, 45263, Note_on_c, 12, 47, 127
2, 45335, Note_off_c, 12, 47, 127
2, 45337, Note_on_c, 0, 48, 127
2, 45345, Note_off_c, 7, 67, 127
2, 45349, Note_on_c, 12, 71, 127
2, 45409, Note_off_c, 0, 48, 127
2, 45409, Note_on_c, 12, 47, 127
2, 45481, Note_off_c, 12, 47, 127
2, 45483, Note_on_c, 0, 48, 127
2, 45531, Note_off_c, 12, 71, 127
2, 45535, Note_on_c, 4, 76, 127
2, 45554, Note_off_c, 0, 48, 127
2, 45554, Note_on_c, 12, 47, 127
2, 45626, Note_off_c, 12, 47, 127
2, 45628, Note_on_c, 0, 48, 127
2, 45700, Note_off_c, 0, 48, 127
2, 45700, Note_on_c, 12, 47, 127
2, 45721, Note_on_c, 12, 71, 127
2, 45748, Note_off_c, 4, 76, 127
2, 45771, Note_off_c, 12, 47, 127
2, 45773, Note_on_c, 0, 48, 127
2, 45845, Note_off_c, 0, 48, 127
2, 45845, Note_on_c, 12, 47, 127
2, 45903, Note_off_c, 12, 71, 127
2, 45907, Note_on_c, 10, 69, 127
2, 45917, Note_off_c, 12, 47, 127
2, 45919, Note_on_c, 0, 48, 127
2, 45991, Note_off_c, 0, 48, 127
2, 45991, Note_on_c, 12, 47, 127
2, 46063, Note_off_c, 12, 47, 127
2, 46065, Note_on_c, 0, 48, 127
2, 46090, Note_off_c, 10, 69, 127
2, 46094, Note_on_c, 7, 67, 127
2, 46137, Note_off_c, 0, 48, 127
2, 46137, Note_on_c, 12, 47, 127
2, 46209, Note_off_c, 12, 47, 127
2, 46211, Note_on_c, 0, 48, 127
2, 46277, Note_off_c, 7, 67, 127
2, 46281, Note_on_c, 6, 66, 127
2, 46283, Note_off_c, 0, 48, 127
2, 46283, Note_on_c, 12, 47, 127
2, 46355, Note_off_c, 12, 47, 127
2, 46357, Note_on_c, 0, 48, 127
2, 46429, Note_off_c, 0, 48, 127
2, 46429, Note_on_c, 12, 47, 127
2, 46464, Note_off_c, 6, 66, 127
2, 46468, Note_on_c, 4, 64, 127
2, 46501, Note_off_c, 12, 47, 127
2, 46503, Note_on_c, 0, 48, 127
2, 46575, Note_off_c, 0, 48, 127
2, 46575, Note_on_c, 12, 47, 127
2, 46647, Note_off_c, 12, 47, 127
2, 46649, Note_on_c, 0, 48, 127
2, 46651, Note_off_c, 4, 64, 127
2, 46655, Note_on_c, 6, 66, 127
2, 46721, Note_off_c, 0, 48, 127
2, 46721, Note_on_c, 12, 47, 127
2, 46793, Note_off_c, 12, 47, 127
2, 46795, Note_on_c, 0, 48, 127
2, 46838, Note_off_c, 6, 66, 127
2, 46842, Note_on_c, 10, 69, 127
2, 46867, Note_off_c, 0, 48, 127
2, 46867, Note_on_c, 12, 47, 127
2, 46939, Note_off_c, 12, 47, 127
2, 46941, Note_on_c, 0, 48, 127
2, 47013, Note_off_c, 0, 48, 127
2, 47013, Note_on_c, 12, 47, 127
2, 47025, Note_off_c, 10, 69, 127
2, 47029, Note_on_c, 2, 74, 127
2, 47085, Note_off_c, 12, 47, 127
2, 47087, Note_on_c, 0, 48, 127
2, 47159, Note_off_c, 0, 48, 127
2, 47159, Note_on_c, 12, 47, 127
2, 47215, Note_on_c, 10, 69, 127
2, 47230, Note_off_c, 12, 47, 127
2, 47232, Note_on_c, 0, 48, 127
2, 47242, Note_off_c, 2, 74, 127
2, 47304, Note_off_c, 0, 48, 127
2, 47304, Note_on_c, 12, 47, 127
2, 47376, Note_off_c, 12, 47, 127
2, 47378, Note_on_c, 0, 48, 127
2, 47397, Note_off_c, 10, 69, 127
2, 47401, Note_on_c, 7, 67, 127
2, 47449, Note_off_c, 0, 48, 127
2, 47449, Note_on_c, 12, 47, 127
2, 47521, Note_off_c, 12, 47, 127
2, 47523, Note_on_c, 0, 48, 127
2, 47583, Note_off_c, 7, 67, 127
2, 47587, Note_on_c, 6, 66, 127
2, 47595, Note_off_c, 0, 48, 127
2, 47595, Note_on_c, 12, 47, 127
2, 47667, Note_off_c, 12, 47, 127
2, 47669, Note_on_c, 0, 48, 127
2, 47741, Note_off_c, 0, 48, 127
2, 47741, Note_on_c, 12, 47, 127
2, 47770, Note_off_c, 6, 66, 127
2, 47774, Note_on_c, 4, 64, 127
2, 47813, Note_off_c, 12, 47, 127
2, 47815, Note_on_c, 0, 48, 127
2, 47887, Note_off_c, 0, 48, 127
2, 47887, Note_on_c, 12, 47, 127
2, 47957, Note_off_c, 4, 64, 127
2, 47959, Note_off_c, 12, 47, 127
2, 47961, Note_on_c, 0, 48, 127
2, 47961, Note_on_c, 3, 63, 127
2, 48033, Note_off_c, 0, 48, 127
2, 48033, Note_on_c, 12, 47, 127
2, 48105, Note_off_c, 12, 47, 127
2, 48107, Note_on_c, 0, 48, 127
2, 48144, Note_off_c, 3, 63, 127
2, 48148, Note_on_c, 4, 64, 127
2, 48179, Note_off_c, 0, 48, 127
2, 48179, Note_on_c, 12, 47, 127
2, 48251, Note_off_c, 12, 47, 127
2, 48253, Note_on_c, 0, 48, 127
2, 48325, Note_off_c, 0, 48, 127
2, 48325, Note_on_c, 12, 47, 127
2, 48331, Note_off_c, 4, 64, 127
2, 48335, Note_on_c, 7, 67, 127
2, 48397, Note_off_c, 12, 47, 127
2, 48399, Note_on_c, 0, 48, 127
2, 48471, Note_off_c, 0, 48, 127
2, 48471, Note_on_c, 12, 47, 127
2, 48517, Note_off_c, 7, 67, 127
2, 48521, Note_on_c, 0, 72, 127
2, 48542, Note_off_c, 12, 47, 127
2, 48542, Note_on_c, 0, 48, 127
2, 48614, Note_off_c, 0, 48, 127
2, 48620, Note_on_c, 12, 47, 127
2, 48692, Note_off_c, 12, 47, 127
2, 48694, Note_on_c, 0, 48, 127
2, 48708, Note_on_c, 7, 67, 127
2, 48735, Note_off_c, 0, 72, 127
2, 48766, Note_off_c, 0, 48, 127
2, 48766, Note_on_c, 12, 47, 127
2, 48838, Note_off_c, 12, 47, 127
2, 48840, Note_on_c, 0, 48, 127
2, 48890, Note_off_c, 7, 67, 127
2, 48894, Note_on_c, 6, 66, 127
2, 48911, Note_off_c, 0, 48, 127
2, 48911, Note_on_c, 12, 47, 127
2, 48983, Note_off_c, 12, 47, 127
2, 48985, Note_on_c, 0, 48, 127
2, 49057, Note_off_c, 0, 48, 127
2, 49057, Note_on_c, 12, 47, 127
2, 49076, Note_off_c, 6, 66, 127
2, 49080, Note_on_c, 4, 64, 127
2, 49128, Note_off_c, 12, 47, 127
2, 49136, Note_on_c, 0, 48, 127
2, 49208, Note_off_c, 0, 48, 127
2, 49216, Note_on_c, 12, 47, 127
2, 49262, Note_off_c, 4, 64, 127
2, 49266, Note_on_c, 3, 63, 127
2, 49448, Note_off_c, 3, 63, 127
2, 49452, Note_on_c, 1, 61, 127
2, 49634, Note_off_c, 1, 61, 127
2, 49638, Note_on_c, 3, 63, 127
2, 49789, Note_off_c, 12, 47, 127
2, 49820, Note_off_c, 3, 63, 127
2, 49824, Note_on_c, 6, 66, 127
2, 50006, Note_off_c, 6, 66, 127
2, 50010, Note_on_c, 12, 71, 127
2, 50099, Note_off_c, 12, 71, 127
2, 50103, Note_on_c, 10, 69, 127
2, 50192, Note_off_c, 10, 69, 127
2, 50196, Note_on_c, 0, 60, 127
2, 50196, Note_on_c, 12, 71, 127
2, 50378, Note_off_c, 0, 60, 127
2, 50382, Note_on_c, 12, 59, 127
2, 50564, Note_off_c, 12, 59, 127
2, 50564, Note_off_c, 12, 71, 127
2, 50568, Note_on_c, 10, 57, 127
2, 50568, Note_on_c, 12, 71, 127
2, 50750, Note_off_c, 12, 71, 127
2, 50750, Note_off_c, 10, 57, 127
2, 50754, Note_on_c, 7, 55, 127
2, 50754, Note_on_c, 12, 71, 127
2, 50843, Note_off_c, 12, 71, 127
2, 50847, Note_on_c, 10, 69, 127
2, 50936, Note_off_c, 10, 69, 127
2, 50936, Note_off_c, 7, 55, 127
2, 50940, Note_on_c, 6, 54, 127
2, 50940, Note_on_c, 12, 71, 127
2, 51122, Note_off_c, 6, 54, 127
2, 51126, Note_on_c, 7, 55, 127
2, 51308, Note_off_c, 7, 55, 127
2, 51312, Note_on_c, 12, 59, 127
2, 51494, Note_off_c, 12, 59, 127
2, 51498, Note_on_c, 4, 64, 127
2, 51599, Note_off_c, 12, 71, 127
2, 51680, Note_off_c, 4, 64, 127
2, 51684, Note_on_c, 12, 59, 127
2, 51684, Note_on_c, 3, 75, 127
2, 51866, Note_off_c, 3, 75, 127
2, 51866, Note_off_c, 12, 59, 127
2, 51870, Note_on_c, 10, 57, 127
2, 51870, Note_on_c, 4, 76, 127
2, 52052, Note_off_c, 4, 76, 127
2, 52052, Note_off_c, 10, 57, 127
2, 52056, Note_on_c, 7, 55, 127
2, 52056, Note_on_c, 7, 79, 127
2, 52238, Note_off_c, 7, 79, 127
2, 52238, Note_off_c, 7, 55, 127
2, 52242, Note_on_c, 6, 54, 127
2, 52242, Note_on_c, 10, 69, 127
2, 52331, Note_off_c, 10, 69, 127
2, 52337, Note_on_c, 7, 67, 127
2, 52424, Note_off_c, 6, 54, 127
2, 52426, Note_off_c, 7, 67, 127
2, 52428, Note_on_c, 4, 52, 127
2, 52432, Note_on_c, 10, 69, 127
2, 52610, Note_off_c, 4, 52, 127
2, 52614, Note_on_c, 6, 54, 127
2, 52796, Note_off_c, 6, 54, 127
2, 52800, Note_on_c, 10, 57, 127
2, 52982, Note_off_c, 10, 57, 127
2, 52986, Note_on_c, 3, 63, 127
2, 53091, Note_off_c, 10, 69, 127
2, 53168, Note_off_c, 3, 63, 127
2, 53172, Note_on_c, 10, 57, 127
2, 53172, Note_on_c, 1, 73, 127
2, 53354, Note_off_c, 1, 73, 127
2, 53354, Note_off_c, 10, 57, 127
2, 53358, Note_on_c, 7, 55, 127
2, 53358, Note_on_c, 3, 75, 127
2, 53540, Note_off_c, 3, 75, 127
2, 53540, Note_off_c, 7, 55, 127
2, 53544, Note_on_c, 6, 54, 127
2, 53544, Note_on_c, 6, 78, 127
2, 53726, Note_off_c, 6, 78, 127
2, 53726, Note_off_c, 6, 54, 127
2, 53730, Note_on_c, 4, 52, 127
2, 53730, Note_on_c, 7, 67, 127
2, 53908, Note_off_c, 7, 67, 127
2, 53912, Note_off_c, 4, 52, 127
2, 53916, Note_on_c, 3, 51, 127
2, 53916, Note_on_c, 6, 66, 127
2, 54094, Note_off_c, 6, 66, 127
2, 54098, Note_off_c, 3, 51, 127
2, 54102, Note_on_c, 4, 52, 127
2, 54102, Note_on_c, 7, 67, 127
2, 54284, Note_off_c, 4, 52, 127
2, 54288, Note_on_c, 7, 55, 127
2, 54470, Note_off_c, 7, 55, 127
2, 54474, Note_on_c, 0, 60, 127
2, 54637, Note_off_c, 7, 67, 127
2, 54656, Note_off_c, 0, 60, 127
2, 54660, Note_on_c, 7, 55, 127
2, 54660, Note_on_c, 12, 71, 127
2, 54842, Note_off_c, 12, 71, 127
2, 54842, Note_off_c, 7, 55, 127
2, 54846, Note_on_c, 6, 54, 127
2, 54846, Note_on_c, 3, 75, 127
2, 55028, Note_off_c, 3, 75, 127
2, 55028, Note_off_c, 6, 54, 127
2, 55032, Note_on_c, 4, 52, 127
2, 55032, Note_on_c, 4, 76, 127
2, 55214, Note_off_c, 4, 76, 127
2, 55214, Note_off_c, 4, 52, 127
2, 55218, Note_on_c, 3, 51, 127
2, 55218, Note_on_c, 6, 66, 127
2, 55400, Note_off_c, 6, 66, 127
2, 55404, Note_on_c, 10, 69, 127
2, 55567, Note_off_c, 3, 51, 127
2, 55586, Note_off_c, 10, 69, 127
2, 55590, Note_on_c, 12, 47, 127
2, 55590, Note_on_c, 12, 71, 127
2, 55772, Note_off_c, 12, 71, 127
2, 55776, Note_on_c, 0, 72, 127
2, 55958, Note_off_c, 0, 72, 127
2, 55962, Note_on_c, 3, 63, 127
2, 56132, Note_off_c, 12, 47, 127
2, 56144, Note_off_c, 3, 63, 127
2, 56148, Note_on_c, 6, 66, 127
2, 56330, Note_off_c, 6, 66, 127
2, 56334, Note_on_c, 7, 67, 127
2, 56516, Note_off_c, 7, 67, 127
2, 56520, Note_on_c, 10, 69, 127
2, 56702, Note_off_c, 10, 69, 127
2, 56706, Note_on_c, 12, 59, 127
2, 56892, Note_on_c, 7, 55, 127
2, 57047, Note_off_c, 12, 59, 127
2, 57074, Note_off_c, 7, 55, 127
2, 57078, Note_on_c, 6, 54, 127
2, 57078, Note_on_c, 10, 69, 127
2, 57167, Note_off_c, 10, 69, 127
2, 57171, Note_on_c, 7, 67, 127
2, 57260, Note_off_c, 7, 67, 127
2, 57260, Note_off_c, 6, 54, 127
2, 57264, Note_on_c, 4, 52, 127
2, 57264, Note_on_c, 10, 69, 127
2, 57446, Note_off_c, 4, 52, 127
2, 57450, Note_on_c, 3, 51, 127
2, 57632, Note_off_c, 3, 51, 127
2, 57632, Note_off_c, 10, 69, 127
2, 57636, Note_on_c, 1, 49, 127
2, 57636, Note_on_c, 6, 66, 127
2, 57818, Note_off_c, 6, 66, 127
2, 57818, Note_off_c, 1, 49, 127
2, 57822, Note_on_c, 3, 51, 127
2, 57822, Note_on_c, 12, 71, 127
2, 58004, Note_off_c, 12, 71, 127
2, 58004, Note_off_c, 3, 51, 127
2, 58008, Note_on_c, 12, 47, 127
2, 58008, Note_on_c, 6, 66, 127
2, 58190, Note_off_c, 6, 66, 127
2, 58190, Note_off_c, 12, 47, 127
2, 58194, Note_on_c, 4, 52, 127
2, 58194, Note_on_c, 7, 67, 127
2, 58376, Note_off_c, 4, 52, 127
2, 58380, Note_on_c, 2, 50, 127
2, 58562, Note_off_c, 2, 50, 127
2, 58562, Note_off_c, 7, 67, 127
2, 58566, Note_on_c, 0, 48, 127
2, 58566, Note_on_c, 4, 64, 127
2, 58748, Note_off_c, 0, 48, 127
2, 58752, Note_on_c, 12, 47, 127
2, 58907, Note_off_c, 4, 64, 127
2, 58934, Note_off_c, 12, 47, 127
2, 58938, Note_on_c, 10, 45, 127
2, 58938, Note_on_c, 0, 72, 127
2, 59027, Note_off_c, 0, 72, 127
2, 59031, Note_on_c, 12, 71, 127
2, 59120, Note_off_c, 12, 71, 127
2, 59120, Note_off_c, 10, 45, 127
2, 59124, Note_on_c, 7, 43, 127
2, 59124, Note_on_c, 0, 72, 127
2, 59306, Note_off_c, 7, 43, 127
2, 59310, Note_on_c, 10, 45, 127
2, 59492, Note_off_c, 10, 45, 127
2, 59492, Note_off_c, 0, 72, 127
2, 59496, Note_on_c, 6, 42, 127
2, 59496, Note_on_c, 0, 72, 127
2, 59678, Note_off_c, 0, 72, 127
2, 59678, Note_off_c, 6, 42, 127
2, 59682, Note_on_c, 7, 43, 127
2, 59682, Note_on_c, 2, 74, 127
2, 59744, Note_off_c, 2, 74, 127
2, 59744, Note_on_c, 0, 72, 127
2, 59806, Note_off_c, 0, 72, 127
2, 59806, Note_on_c, 2, 74, 127
2, 59864, Note_off_c, 7, 43, 127
2, 59868, Note_off_c, 2, 74, 127
2, 59868, Note_on_c, 10, 45, 127
2, 59868, Note_on_c, 0, 72, 127
2, 60050, Note_off_c, 10, 45, 127
2, 60052, Note_off_c, 0, 72, 127
2, 60054, Note_on_c, 7, 43, 127
2, 60054, Note_on_c, 12, 71, 127
2, 60236, Note_off_c, 7, 43, 127
2, 60240, Note_on_c, 6, 42, 127
2, 60383, Note_off_c, 12, 71, 127
2, 60422, Note_off_c, 6, 42, 127
2, 60426, Note_on_c, 4, 40, 127
2, 60426, Note_on_c, 7, 79, 127
2, 60517, Note_off_c, 7, 79, 127
2, 60519, Note_on_c, 6, 78, 127
2, 60608, Note_off_c, 4, 40, 127
2, 60610, Note_off_c, 6, 78, 127
2, 60612, Note_on_c, 2, 38, 127
2, 60612, Note_on_c, 7, 79, 127
2, 60794, Note_off_c, 2, 38, 127
2, 60798, Note_on_c, 4, 40, 127
2, 60941, Note_off_c, 7, 79, 127
2, 60980, Note_off_c, 4, 40, 127
2, 60984, Note_on_c, 0, 36, 127
2, 60984, Note_on_c, 7, 79, 127
2, 61166, Note_off_c, 7, 79, 127
2, 61166, Note_off_c, 0, 36, 127
2, 61170, Note_on_c, 10, 45, 127
2, 61170, Note_on_c, 7, 79, 127
2, 61352, Note_off_c, 7, 79, 127
2, 61352, Note_off_c, 10, 45, 127
2, 61356, Note_on_c, 7, 43, 127
2, 61356, Note_on_c, 10, 81, 127
2, 61538, Note_off_c, 10, 81, 127
2, 61538, Note_off_c, 7, 43, 127
2, 61542, Note_on_c, 10, 45, 127
2, 61542, Note_on_c, 7, 79, 127
2, 61724, Note_off_c, 7, 79, 127
2, 61724, Note_off_c, 10, 45, 127
2, 61728, Note_on_c, 6, 42, 127
2, 61728, Note_on_c, 6, 78, 127
2, 61910, Note_off_c, 6, 78, 127
2, 61910, Note_off_c, 6, 42, 127
2, 61914, Note_on_c, 12, 47, 127
2, 61914, Note_on_c, 7, 79, 127
2, 62036, Note_off_c, 7, 79, 127
2, 62038, Note_on_c, 6, 78, 127
2, 62096, Note_off_c, 12, 47, 127
2, 62100, Note_off_c, 6, 78, 127
2, 62100, Note_on_c, 10, 45, 127
2, 62100, Note_on_c, 7, 79, 127
2, 62162, Note_off_c, 7, 79, 127
2, 62162, Note_on_c, 6, 78, 127
2, 62224, Note_off_c, 6, 78, 127
2, 62224, Note_on_c, 7, 79, 127
2, 62282, Note_off_c, 10, 45, 127
2, 62286, Note_off_c, 7, 79, 127
2, 62286, Note_on_c, 12, 47, 127
2, 62286, Note_on_c, 6, 78, 127
2, 62468, Note_off_c, 12, 47, 127
2, 62470, Note_off_c, 6, 78, 127
2, 62472, Note_on_c, 7, 43, 127
2, 62472, Note_on_c, 4, 76, 127
2, 62654, Note_off_c, 4, 76, 127
2, 62654, Note_off_c, 7, 43, 127
2, 62658, Note_on_c, 0, 48, 127
2, 62658, Note_on_c, 4, 76, 127
2, 62748, Note_off_c, 0, 48, 127
2, 62752, Note_on_c, 12, 47, 127
2, 62842, Note_off_c, 12, 47, 127
2, 62842, Note_off_c, 4, 76, 127
2, 62846, Note_on_c, 0, 48, 127
2, 62846, Note_on_c, 2, 74, 127
2, 63031, Note_off_c, 2, 74, 127
2, 63035, Note_on_c, 0, 72, 127
2, 63220, Note_off_c, 0, 72, 127
2, 63224, Note_on_c, 12, 71, 127
2, 63409, Note_off_c, 12, 71, 127
2, 63413, Note_on_c, 10, 69, 127
2, 63598, Note_off_c, 10, 69, 127
2, 63602, Note_on_c, 7, 67, 127
2, 63787, Note_off_c, 7, 67, 127
2, 63791, Note_on_c, 10, 69, 127
2, 63979, Note_off_c, 10, 69, 127
2, 63981, Note_off_c, 0, 48, 127
2, 63983, Note_on_c, 6, 66, 127
2, 64171, Note_off_c, 6, 66, 127
2, 64175, Note_on_c, 3, 75, 127
2, 64367, Note_on_c, 0, 60, 127
2, 64525, Note_off_c, 3, 75, 127
2, 64555, Note_off_c, 0, 60, 127
2, 64559, Note_on_c, 12, 59, 127
2, 64559, Note_on_c, 6, 66, 127
2, 64747, Note_off_c, 12, 59, 127
2, 64751, Note_on_c, 10, 57, 127
2, 64909, Note_off_c, 6, 66, 127
2, 64939, Note_off_c, 10, 57, 127
2, 64943, Note_on_c, 7, 55, 127
2, 64943, Note_on_c, 12, 71, 127
2, 65037, Note_off_c, 12, 71, 127
2, 65041, Note_on_c, 10, 69, 127
2, 65135, Note_off_c, 10, 69, 127
2, 65135, Note_off_c, 7, 55, 127
2, 65139, Note_on_c, 6, 54, 127
2, 65139, Note_on_c, 12, 71, 127
2, 65330, Note_off_c, 6, 54, 127
2, 65334, Note_on_c, 7, 55, 127
2, 65525, Note_off_c, 7, 55, 127
2, 65525, Note_off_c, 12, 71, 127
2, 65529, Note_on_c, 4, 52, 127
2, 65529, Note_on_c, 0, 72, 127
2, 65720, Note_off_c, 0, 72, 127
2, 65720, Note_off_c, 4, 52, 127
2, 65724, Note_on_c, 3, 51, 127
2, 65724, Note_on_c, 12, 71, 127
2, 65857, Note_off_c, 12, 71, 127
2, 65859, Note_on_c, 10, 69, 127
2, 65926, Note_off_c, 10, 69, 127
2, 65926, Note_on_c, 12, 71, 127
2, 65993, Note_off_c, 12, 71, 127
2, 65993, Note_on_c, 10, 69, 127
2, 66060, Note_off_c, 10, 69, 127
2, 66060, Note_on_c, 12, 71, 127
2, 66123, Note_off_c, 3, 51, 127
2, 66127, Note_off_c, 12, 71, 127
2, 66127, Note_on_c, 4, 52, 127
2, 66127, Note_on_c, 10, 69, 127
2, 66327, Note_off_c, 10, 69, 127
2, 66329, Note_on_c, 7, 67, 127
2, 66527, Note_off_c, 7, 67, 127
2, 66527, Note_off_c, 4, 52, 127
2, 66531, Note_on_c, 12, 59, 127
2, 66531, Note_on_c, 7, 67, 127
2, 66682, Note_off_c, 7, 67, 127
2, 66684, Note_on_c, 6, 66, 127
2, 66761, Note_off_c, 6, 66, 127
2, 66761, Note_on_c, 7, 67, 127
2, 66838, Note_off_c, 7, 67, 127
2, 66838, Note_on_c, 6, 66, 127
2, 66915, Note_off_c, 6, 66, 127
2, 66915, Note_on_c, 7, 67, 127
2, 66987, Note_off_c, 12, 59, 127
2, 66992, Note_off_c, 7, 67, 127
2, 66992, Note_on_c, 12, 47, 127
2, 66992, Note_on_c, 6, 66, 127
2, 67220, Note_off_c, 6, 66, 127
2, 67222, Note_on_c, 4, 64, 127
2, 67448, Note_off_c, 4, 64, 127
2, 67448, Note_off_c, 12, 47, 127
2, 67469, Note_on_c, 4, 64, 127
2, 67469, Note_on_c, 4, 40, 127
2, 69307, Note_off_c, 4, 40, 127
2, 69307, Note_off_c, 4, 64, 127
2, 72192, End_track
3, 0, Start_track
3, 0, Title_t, "MIDI"
3, 1536, End_track
0, 0, End_of_file
