0, 0, Header, 1, 3, 384
1, 0, Start_track
1, 0, Tempo, 500000
1, 0, Time_signature, 4, 2, 24, 8
1, 77608, End_track
2, 0, Start_track
2, 0, Text_t, "harpsichord: John Sankey"
2, 0, Program_c, 0, 6
2, 0, Pitch_bend_c, 0, 8192
2, 0, Program_c, 1, 6
2, 0, Pitch_bend_c, 1, 7792
2, 0, Program_c, 2, 6
2, 0, Pitch_bend_c, 2, 7876
2, 0, Program_c, 3, 6
2, 0, Pitch_bend_c, 3, 7952
2, 0, Program_c, 4, 6
2, 0, Pitch_bend_c, 4, 7792
2, 0, Program_c, 5, 6
2, 0, Pitch_bend_c, 5, 8112
2, 0, Program_c, 6, 6
2, 0, Pitch_bend_c, 6, 7712
2, 0, Program_c, 7, 6
2, 0, Pitch_bend_c, 7, 8037
2, 0, Program_c, 8, 6
2, 0, Pitch_bend_c, 8, 7872
2, 0, Program_c, 10, 6
2, 0, Pitch_bend_c, 10, 7712
2, 0, Program_c, 11, 6
2, 0, Pitch_bend_c, 11, 8032
2, 0, Program_c, 12, 6
2, 0, Pitch_bend_c, 12, 7872
2, 0, Title_t, "Track 1"
2, 84, Note_on_c, 10, 45, 127
2, 271, Note_on_c, 4, 64, 127
2, 410, Note_off_c, 10, 45, 127
2, 440, Note_off_c, 4, 64, 127
2, 445, Note_on_c, 10, 57, 127
2, 445, Note_on_c, 10, 69, 127
2, 614, Note_off_c, 10, 69, 127
2, 619, Note_on_c, 0, 72, 127
2, 788, Note_off_c, 0, 72, 127
2, 793, Note_on_c, 12, 71, 127
2, 962, Note_off_c, 12, 71, 127
2, 967, Note_on_c, 4, 64, 127
2, 1136, Note_off_c, 4, 64, 127
2, 1136, Note_off_c, 10, 57, 127
2, 1141, Note_on_c, 8, 56, 127
2, 1141, Note_on_c, 12, 71, 127
2, 1310, Note_off_c, 12, 71, 127
2, 1315, Note_on_c, 2, 74, 127
2, 1484, Note_off_c, 2, 74, 127
2, 1484, Note_off_c, 8, 56, 127
2, 1489, Note_on_c, 10, 57, 127
2, 1489, Note_on_c, 0, 72, 127
2, 1658, Note_off_c, 10, 57, 127
2, 1663, Note_on_c, 4, 52, 127
2, 1779, Note_off_c, 0, 72, 127
2, 1832, Note_off_c, 4, 52, 127
2, 1837, Note_on_c, 10, 57, 127
2, 1837, Note_on_c, 4, 76, 127
2, 2006, Note_off_c, 10, 57, 127
2, 2011, Note_on_c, 0, 60, 127
2, 2127, Note_off_c, 4, 76, 127
2, 2180, Note_off_c, 0, 60, 127
2, 2185, Note_on_c, 12, 59, 127
2, 2185, Note_on_c, 8, 68, 127
2, 2354, Note_off_c, 12, 59, 127
2, 2359, Note_on_c, 4, 52, 127
2, 2475, Note_off_c, 8, 68, 127
2, 2528, Note_off_c, 4, 52, 127
2, 2533, Note_on_c, 12, 59, 127
2, 2533, Note_on_c, 4, 76, 127
2, 2702, Note_off_c, 12, 59, 127
2, 2707, Note_on_c, 2, 62, 127
2, 2823, Note_off_c, 4, 76, 127
2, 2876, Note_off_c, 2, 62, 127
2, 2881, Note_on_c, 0, 60, 127
2, 2881, Note_on_c, 10, 69, 127
2, 3050, Note_off_c, 10, 69, 127
2, 3055, Note_on_c, 4, 64, 127
2, 3208, Note_off_c, 0, 60, 127
2, 3224, Note_off_c, 4, 64, 127
2, 3229, Note_on_c, 10, 57, 127
2, 3229, Note_on_c, 10, 69, 127
2, 3398, Note_off_c, 10, 69, 127
2, 3403, Note_on_c, 0, 72, 127
2, 3556, Note_off_c, 10, 57, 127
2, 3572, Note_off_c, 0, 72, 127
2, 3577, Note_on_c, 8, 56, 127
2, 3577, Note_on_c, 12, 71, 127
2, 3746, Note_off_c, 12, 71, 127
2, 3751, Note_on_c, 4, 64, 127
2, 3904, Note_off_c, 8, 56, 127
2, 3920, Note_off_c, 4, 64, 127
2, 3925, Note_on_c, 4, 52, 127
2, 3925, Note_on_c, 12, 71, 127
2, 4094, Note_off_c, 12, 71, 127
2, 4099, Note_on_c, 2, 74, 127
2, 4252, Note_off_c, 4, 52, 127
2, 4268, Note_off_c, 2, 74, 127
2, 4273, Note_on_c, 10, 57, 127
2, 4273, Note_on_c, 0, 72, 127
2, 4442, Note_off_c, 10, 57, 127
2, 4447, Note_on_c, 4, 52, 127
2, 4616, Note_off_c, 4, 52, 127
2, 4616, Note_off_c, 0, 72, 127
2, 4621, Note_on_c, 10, 57, 127
2, 4621, Note_on_c, 10, 69, 127
2, 4790, Note_off_c, 10, 57, 127
2, 4795, Note_on_c, 0, 60, 127
2, 4964, Note_off_c, 0, 60, 127
2, 4969, Note_on_c, 12, 59, 127
2, 5056, Note_off_c, 10, 69, 127
2, 5138, Note_off_c, 12, 59, 127
2, 5143, Note_on_c, 4, 52, 127
2, 5312, Note_off_c, 4, 52, 127
2, 5317, Note_on_c, 12, 59, 127
2, 5486, Note_off_c, 12, 59, 127
2, 5491, Note_on_c, 2, 62, 127
2, 5660, Note_off_c, 2, 62, 127
2, 5665, Note_on_c, 0, 60, 127
2, 5840, Note_on_c, 4, 76, 127
2, 6009, Note_off_c, 4, 76, 127
2, 6009, Note_off_c, 0, 60, 127
2, 6014, Note_on_c, 10, 57, 127
2, 6014, Note_on_c, 0, 72, 127
2, 6183, Note_off_c, 0, 72, 127
2, 6188, Note_on_c, 4, 76, 127
2, 6341, Note_off_c, 10, 57, 127
2, 6357, Note_off_c, 4, 76, 127
2, 6362, Note_on_c, 0, 60, 127
2, 6362, Note_on_c, 10, 69, 127
2, 6531, Note_off_c, 10, 69, 127
2, 6536, Note_on_c, 0, 72, 127
2, 6689, Note_off_c, 0, 60, 127
2, 6705, Note_off_c, 0, 72, 127
2, 6710, Note_on_c, 10, 57, 127
2, 6710, Note_on_c, 4, 64, 127
2, 6879, Note_off_c, 4, 64, 127
2, 6884, Note_on_c, 7, 67, 127
2, 7037, Note_off_c, 10, 57, 127
2, 7053, Note_off_c, 7, 67, 127
2, 7058, Note_on_c, 2, 62, 127
2, 7058, Note_on_c, 5, 65, 127
2, 7227, Note_off_c, 2, 62, 127
2, 7232, Note_on_c, 10, 57, 127
2, 7348, Note_off_c, 5, 65, 127
2, 7401, Note_off_c, 10, 57, 127
2, 7406, Note_on_c, 5, 53, 127
2, 7406, Note_on_c, 10, 69, 127
2, 7575, Note_off_c, 5, 53, 127
2, 7580, Note_on_c, 10, 57, 127
2, 7696, Note_off_c, 10, 69, 127
2, 7749, Note_off_c, 10, 57, 127
2, 7754, Note_on_c, 2, 50, 127
2, 7754, Note_on_c, 2, 74, 127
2, 7923, Note_off_c, 2, 50, 127
2, 7928, Note_on_c, 5, 53, 127
2, 8044, Note_off_c, 2, 74, 127
2, 8097, Note_off_c, 5, 53, 127
2, 8102, Note_on_c, 10, 45, 127
2, 8102, Note_on_c, 5, 77, 127
2, 8271, Note_off_c, 10, 45, 127
2, 8276, Note_on_c, 0, 48, 127
2, 8445, Note_off_c, 0, 48, 127
2, 8450, Note_on_c, 12, 47, 127
2, 8619, Note_off_c, 5, 77, 127
2, 8624, Note_on_c, 2, 74, 127
2, 8793, Note_off_c, 2, 74, 127
2, 8793, Note_off_c, 12, 47, 127
2, 8798, Note_on_c, 2, 50, 127
2, 8798, Note_on_c, 12, 71, 127
2, 8967, Note_off_c, 12, 71, 127
2, 8972, Note_on_c, 2, 74, 127
2, 9125, Note_off_c, 2, 50, 127
2, 9141, Note_off_c, 2, 74, 127
2, 9146, Note_on_c, 7, 55, 127
2, 9146, Note_on_c, 7, 67, 127
2, 9315, Note_off_c, 7, 67, 127
2, 9320, Note_on_c, 12, 71, 127
2, 9473, Note_off_c, 7, 55, 127
2, 9489, Note_off_c, 12, 71, 127
2, 9494, Note_on_c, 12, 59, 127
2, 9494, Note_on_c, 2, 62, 127
2, 9663, Note_off_c, 2, 62, 127
2, 9668, Note_on_c, 5, 65, 127
2, 9837, Note_off_c, 5, 65, 127
2, 9842, Note_on_c, 4, 64, 127
2, 9995, Note_off_c, 12, 59, 127
2, 10017, Note_on_c, 7, 55, 127
2, 10133, Note_off_c, 4, 64, 127
2, 10186, Note_off_c, 7, 55, 127
2, 10191, Note_on_c, 4, 52, 127
2, 10191, Note_on_c, 7, 67, 127
2, 10360, Note_off_c, 4, 52, 127
2, 10365, Note_on_c, 7, 55, 127
2, 10481, Note_off_c, 7, 67, 127
2, 10534, Note_off_c, 7, 55, 127
2, 10539, Note_on_c, 0, 48, 127
2, 10539, Note_on_c, 0, 72, 127
2, 10708, Note_off_c, 0, 48, 127
2, 10713, Note_on_c, 4, 52, 127
2, 10829, Note_off_c, 0, 72, 127
2, 10882, Note_off_c, 4, 52, 127
2, 10887, Note_on_c, 7, 43, 127
2, 10887, Note_on_c, 4, 76, 127
2, 11056, Note_off_c, 7, 43, 127
2, 11061, Note_on_c, 12, 47, 127
2, 11230, Note_off_c, 12, 47, 127
2, 11235, Note_on_c, 10, 45, 127
2, 11404, Note_off_c, 4, 76, 127
2, 11409, Note_on_c, 0, 72, 127
2, 11562, Note_off_c, 10, 45, 127
2, 11578, Note_off_c, 0, 72, 127
2, 11583, Note_on_c, 0, 48, 127
2, 11583, Note_on_c, 10, 69, 127
2, 11752, Note_off_c, 10, 69, 127
2, 11757, Note_on_c, 0, 72, 127
2, 11910, Note_off_c, 0, 48, 127
2, 11926, Note_off_c, 0, 72, 127
2, 11931, Note_on_c, 2, 50, 127
2, 11931, Note_on_c, 5, 65, 127
2, 12100, Note_off_c, 2, 50, 127
2, 12105, Note_on_c, 5, 53, 127
2, 12221, Note_off_c, 5, 65, 127
2, 12274, Note_off_c, 5, 53, 127
2, 12279, Note_on_c, 12, 47, 127
2, 12279, Note_on_c, 2, 74, 127
2, 12361, Note_off_c, 2, 74, 127
2, 12366, Note_on_c, 0, 72, 127
2, 12448, Note_off_c, 0, 72, 127
2, 12448, Note_off_c, 12, 47, 127
2, 12453, Note_on_c, 2, 50, 127
2, 12453, Note_on_c, 2, 74, 127
2, 12622, Note_off_c, 2, 50, 127
2, 12627, Note_on_c, 7, 43, 127
2, 12796, Note_off_c, 2, 74, 127
2, 12801, Note_on_c, 12, 71, 127
2, 12954, Note_off_c, 7, 43, 127
2, 12970, Note_off_c, 12, 71, 127
2, 12975, Note_on_c, 12, 47, 127
2, 12975, Note_on_c, 7, 67, 127
2, 13144, Note_off_c, 7, 67, 127
2, 13149, Note_on_c, 12, 71, 127
2, 13302, Note_off_c, 12, 47, 127
2, 13318, Note_off_c, 12, 71, 127
2, 13323, Note_on_c, 0, 48, 127
2, 13323, Note_on_c, 4, 64, 127
2, 13492, Note_off_c, 0, 48, 127
2, 13497, Note_on_c, 4, 52, 127
2, 13613, Note_off_c, 4, 64, 127
2, 13666, Note_off_c, 4, 52, 127
2, 13671, Note_on_c, 10, 45, 127
2, 13671, Note_on_c, 0, 72, 127
2, 13753, Note_off_c, 0, 72, 127
2, 13758, Note_on_c, 12, 71, 127
2, 13840, Note_off_c, 12, 71, 127
2, 13840, Note_off_c, 10, 45, 127
2, 13845, Note_on_c, 0, 48, 127
2, 13845, Note_on_c, 0, 72, 127
2, 14014, Note_off_c, 0, 48, 127
2, 14019, Note_on_c, 5, 41, 127
2, 14135, Note_off_c, 0, 72, 127
2, 14193, Note_on_c, 10, 69, 127
2, 14346, Note_off_c, 5, 41, 127
2, 14362, Note_off_c, 10, 69, 127
2, 14367, Note_on_c, 2, 38, 127
2, 14367, Note_on_c, 5, 65, 127
2, 14536, Note_off_c, 5, 65, 127
2, 14541, Note_on_c, 10, 69, 127
2, 14694, Note_off_c, 2, 38, 127
2, 14710, Note_off_c, 10, 69, 127
2, 14715, Note_on_c, 7, 43, 127
2, 14715, Note_on_c, 2, 62, 127
2, 14884, Note_off_c, 7, 43, 127
2, 14889, Note_on_c, 7, 55, 127
2, 15018, Note_off_c, 2, 62, 127
2, 15058, Note_off_c, 7, 55, 127
2, 15063, Note_on_c, 5, 53, 127
2, 15063, Note_on_c, 0, 72, 127
2, 15145, Note_off_c, 0, 72, 127
2, 15150, Note_on_c, 12, 71, 127
2, 15232, Note_off_c, 12, 71, 127
2, 15232, Note_off_c, 5, 53, 127
2, 15237, Note_on_c, 7, 55, 127
2, 15237, Note_on_c, 10, 69, 127
2, 15319, Note_off_c, 10, 69, 127
2, 15324, Note_on_c, 12, 71, 127
2, 15406, Note_off_c, 12, 71, 127
2, 15406, Note_off_c, 7, 55, 127
2, 15411, Note_on_c, 0, 48, 127
2, 15411, Note_on_c, 0, 72, 127
2, 15580, Note_off_c, 0, 48, 127
2, 15585, Note_on_c, 7, 55, 127
2, 15754, Note_off_c, 7, 55, 127
2, 15759, Note_on_c, 0, 60, 127
2, 15919, Note_off_c, 0, 72, 127
2, 15928, Note_off_c, 0, 60, 127
2, 15933, Note_on_c, 4, 64, 127
2, 16102, Note_off_c, 4, 64, 127
2, 16107, Note_on_c, 2, 62, 127
2, 16276, Note_off_c, 2, 62, 127
2, 16281, Note_on_c, 7, 55, 127
2, 16450, Note_off_c, 7, 55, 127
2, 16455, Note_on_c, 2, 62, 127
2, 16624, Note_off_c, 2, 62, 127
2, 16629, Note_on_c, 5, 65, 127
2, 16798, Note_off_c, 5, 65, 127
2, 16803, Note_on_c, 4, 64, 127
2, 16978, Note_on_c, 7, 67, 127
2, 17147, Note_off_c, 7, 67, 127
2, 17147, Note_off_c, 4, 64, 127
2, 17152, Note_on_c, 0, 60, 127
2, 17152, Note_on_c, 0, 72, 127
2, 17321, Note_off_c, 0, 72, 127
2, 17326, Note_on_c, 4, 76, 127
2, 17479, Note_off_c, 0, 60, 127
2, 17495, Note_off_c, 4, 76, 127
2, 17500, Note_on_c, 12, 59, 127
2, 17500, Note_on_c, 2, 74, 127
2, 17669, Note_off_c, 2, 74, 127
2, 17674, Note_on_c, 7, 67, 127
2, 17827, Note_off_c, 12, 59, 127
2, 17843, Note_off_c, 7, 67, 127
2, 17848, Note_on_c, 7, 55, 127
2, 17848, Note_on_c, 2, 74, 127
2, 18017, Note_off_c, 2, 74, 127
2, 18022, Note_on_c, 5, 77, 127
2, 18175, Note_off_c, 7, 55, 127
2, 18191, Note_off_c, 5, 77, 127
2, 18196, Note_on_c, 0, 60, 127
2, 18196, Note_on_c, 4, 76, 127
2, 18365, Note_off_c, 0, 60, 127
2, 18370, Note_on_c, 7, 55, 127
2, 18486, Note_off_c, 4, 76, 127
2, 18539, Note_off_c, 7, 55, 127
2, 18544, Note_on_c, 0, 60, 127
2, 18544, Note_on_c, 7, 79, 127
2, 18713, Note_off_c, 0, 60, 127
2, 18718, Note_on_c, 4, 64, 127
2, 18834, Note_off_c, 7, 79, 127
2, 18887, Note_off_c, 4, 64, 127
2, 18892, Note_on_c, 2, 62, 127
2, 18892, Note_on_c, 12, 71, 127
2, 19061, Note_off_c, 2, 62, 127
2, 19066, Note_on_c, 7, 55, 127
2, 19182, Note_off_c, 12, 71, 127
2, 19235, Note_off_c, 7, 55, 127
2, 19240, Note_on_c, 2, 62, 127
2, 19240, Note_on_c, 7, 79, 127
2, 19409, Note_off_c, 2, 62, 127
2, 19414, Note_on_c, 5, 65, 127
2, 19530, Note_off_c, 7, 79, 127
2, 19583, Note_off_c, 5, 65, 127
2, 19588, Note_on_c, 4, 64, 127
2, 19588, Note_on_c, 0, 72, 127
2, 19757, Note_off_c, 0, 72, 127
2, 19762, Note_on_c, 7, 67, 127
2, 19915, Note_off_c, 4, 64, 127
2, 19931, Note_off_c, 7, 67, 127
2, 19936, Note_on_c, 0, 60, 127
2, 19936, Note_on_c, 0, 72, 127
2, 20105, Note_off_c, 0, 72, 127
2, 20110, Note_on_c, 4, 76, 127
2, 20263, Note_off_c, 0, 60, 127
2, 20279, Note_off_c, 4, 76, 127
2, 20284, Note_on_c, 2, 74, 127
2, 20453, Note_off_c, 2, 74, 127
2, 20458, Note_on_c, 7, 67, 127
2, 20627, Note_off_c, 7, 67, 127
2, 20632, Note_on_c, 2, 74, 127
2, 20801, Note_off_c, 2, 74, 127
2, 20806, Note_on_c, 5, 77, 127
2, 20975, Note_off_c, 5, 77, 127
2, 20980, Note_on_c, 4, 76, 127
2, 21155, Note_on_c, 7, 67, 127
2, 21271, Note_off_c, 4, 76, 127
2, 21324, Note_off_c, 7, 67, 127
2, 21329, Note_on_c, 4, 64, 127
2, 21329, Note_on_c, 0, 72, 127
2, 21498, Note_off_c, 4, 64, 127
2, 21503, Note_on_c, 7, 67, 127
2, 21619, Note_off_c, 0, 72, 127
2, 21672, Note_off_c, 7, 67, 127
2, 21677, Note_on_c, 0, 60, 127
2, 21677, Note_on_c, 7, 79, 127
2, 21846, Note_off_c, 0, 60, 127
2, 21851, Note_on_c, 4, 64, 127
2, 21967, Note_off_c, 7, 79, 127
2, 22020, Note_off_c, 4, 64, 127
2, 22025, Note_on_c, 7, 55, 127
2, 22025, Note_on_c, 4, 76, 127
2, 22194, Note_off_c, 7, 55, 127
2, 22199, Note_on_c, 12, 59, 127
2, 22315, Note_off_c, 4, 76, 127
2, 22368, Note_off_c, 12, 59, 127
2, 22373, Note_on_c, 10, 57, 127
2, 22373, Note_on_c, 0, 84, 127
2, 22542, Note_off_c, 0, 84, 127
2, 22547, Note_on_c, 10, 81, 127
2, 22716, Note_off_c, 10, 81, 127
2, 22716, Note_off_c, 10, 57, 127
2, 22721, Note_on_c, 0, 60, 127
2, 22721, Note_on_c, 4, 76, 127
2, 22890, Note_off_c, 4, 76, 127
2, 22895, Note_on_c, 10, 81, 127
2, 23048, Note_off_c, 0, 60, 127
2, 23064, Note_off_c, 10, 81, 127
2, 23069, Note_on_c, 4, 64, 127
2, 23069, Note_on_c, 0, 72, 127
2, 23238, Note_off_c, 0, 72, 127
2, 23243, Note_on_c, 4, 76, 127
2, 23396, Note_off_c, 4, 64, 127
2, 23412, Note_off_c, 4, 76, 127
2, 23417, Note_on_c, 7, 67, 127
2, 23417, Note_on_c, 10, 69, 127
2, 23586, Note_off_c, 10, 69, 127
2, 23591, Note_on_c, 0, 72, 127
2, 23744, Note_off_c, 7, 67, 127
2, 23760, Note_off_c, 0, 72, 127
2, 23765, Note_on_c, 6, 66, 127
2, 23765, Note_on_c, 2, 74, 127
2, 23934, Note_off_c, 6, 66, 127
2, 23939, Note_on_c, 10, 69, 127
2, 24055, Note_off_c, 2, 74, 127
2, 24108, Note_off_c, 10, 69, 127
2, 24113, Note_on_c, 2, 62, 127
2, 24113, Note_on_c, 6, 78, 127
2, 24282, Note_off_c, 2, 62, 127
2, 24287, Note_on_c, 6, 66, 127
2, 24403, Note_off_c, 6, 78, 127
2, 24456, Note_off_c, 6, 66, 127
2, 24461, Note_on_c, 10, 57, 127
2, 24461, Note_on_c, 10, 81, 127
2, 24630, Note_off_c, 10, 57, 127
2, 24635, Note_on_c, 2, 62, 127
2, 24751, Note_off_c, 10, 81, 127
2, 24804, Note_off_c, 2, 62, 127
2, 24809, Note_on_c, 6, 54, 127
2, 24809, Note_on_c, 0, 84, 127
2, 24978, Note_off_c, 6, 54, 127
2, 24983, Note_on_c, 10, 57, 127
2, 25099, Note_off_c, 0, 84, 127
2, 25152, Note_off_c, 10, 57, 127
2, 25157, Note_on_c, 7, 55, 127
2, 25157, Note_on_c, 12, 83, 127
2, 25326, Note_off_c, 12, 83, 127
2, 25331, Note_on_c, 7, 79, 127
2, 25500, Note_off_c, 7, 79, 127
2, 25500, Note_off_c, 7, 55, 127
2, 25505, Note_on_c, 12, 59, 127
2, 25505, Note_on_c, 2, 74, 127
2, 25674, Note_off_c, 2, 74, 127
2, 25679, Note_on_c, 7, 79, 127
2, 25832, Note_off_c, 12, 59, 127
2, 25848, Note_off_c, 7, 79, 127
2, 25853, Note_on_c, 2, 62, 127
2, 25853, Note_on_c, 12, 71, 127
2, 26022, Note_off_c, 12, 71, 127
2, 26027, Note_on_c, 2, 74, 127
2, 26180, Note_off_c, 2, 62, 127
2, 26196, Note_off_c, 2, 74, 127
2, 26201, Note_on_c, 6, 66, 127
2, 26201, Note_on_c, 7, 67, 127
2, 26370, Note_off_c, 7, 67, 127
2, 26375, Note_on_c, 12, 71, 127
2, 26528, Note_off_c, 6, 66, 127
2, 26544, Note_off_c, 12, 71, 127
2, 26549, Note_on_c, 4, 64, 127
2, 26549, Note_on_c, 0, 72, 127
2, 26718, Note_off_c, 4, 64, 127
2, 26723, Note_on_c, 7, 67, 127
2, 26839, Note_off_c, 0, 72, 127
2, 26892, Note_off_c, 7, 67, 127
2, 26897, Note_on_c, 0, 60, 127
2, 26897, Note_on_c, 4, 76, 127
2, 27066, Note_off_c, 0, 60, 127
2, 27071, Note_on_c, 4, 64, 127
2, 27187, Note_off_c, 4, 76, 127
2, 27240, Note_off_c, 4, 64, 127
2, 27245, Note_on_c, 7, 55, 127
2, 27245, Note_on_c, 7, 79, 127
2, 27414, Note_off_c, 7, 55, 127
2, 27419, Note_on_c, 0, 60, 127
2, 27535, Note_off_c, 7, 79, 127
2, 27588, Note_off_c, 0, 60, 127
2, 27593, Note_on_c, 4, 52, 127
2, 27593, Note_on_c, 12, 83, 127
2, 27762, Note_off_c, 4, 52, 127
2, 27767, Note_on_c, 7, 55, 127
2, 27883, Note_off_c, 12, 83, 127
2, 27936, Note_off_c, 7, 55, 127
2, 27941, Note_on_c, 6, 54, 127
2, 27941, Note_on_c, 10, 81, 127
2, 28110, Note_off_c, 10, 81, 127
2, 28115, Note_on_c, 6, 78, 127
2, 28284, Note_off_c, 6, 78, 127
2, 28284, Note_off_c, 6, 54, 127
2, 28289, Note_on_c, 10, 57, 127
2, 28289, Note_on_c, 3, 75, 127
2, 28458, Note_off_c, 3, 75, 127
2, 28463, Note_on_c, 6, 78, 127
2, 28616, Note_off_c, 10, 57, 127
2, 28632, Note_off_c, 6, 78, 127
2, 28637, Note_on_c, 12, 59, 127
2, 28637, Note_on_c, 12, 71, 127
2, 28806, Note_off_c, 12, 71, 127
2, 28811, Note_on_c, 3, 75, 127
2, 28964, Note_off_c, 12, 59, 127
2, 28980, Note_off_c, 3, 75, 127
2, 28985, Note_on_c, 3, 63, 127
2, 28985, Note_on_c, 6, 66, 127
2, 29154, Note_off_c, 6, 66, 127
2, 29159, Note_on_c, 10, 69, 127
2, 29312, Note_off_c, 3, 63, 127
2, 29328, Note_off_c, 10, 69, 127
2, 29333, Note_on_c, 7, 67, 127
2, 29508, Note_on_c, 4, 64, 127
2, 29624, Note_off_c, 7, 67, 127
2, 29677, Note_off_c, 4, 64, 127
2, 29682, Note_on_c, 0, 60, 127
2, 29682, Note_on_c, 7, 79, 127
2, 29851, Note_off_c, 0, 60, 127
2, 29856, Note_on_c, 4, 64, 127
2, 30025, Note_off_c, 4, 64, 127
2, 30030, Note_on_c, 10, 57, 127
2, 30199, Note_off_c, 10, 57, 127
2, 30199, Note_off_c, 7, 79, 127
2, 30204, Note_on_c, 0, 60, 127
2, 30204, Note_on_c, 4, 76, 127
2, 30373, Note_off_c, 4, 76, 127
2, 30373, Note_off_c, 0, 60, 127
2, 30378, Note_on_c, 4, 64, 127
2, 30378, Note_on_c, 0, 72, 127
2, 30547, Note_off_c, 0, 72, 127
2, 30547, Note_off_c, 4, 64, 127
2, 30552, Note_on_c, 7, 67, 127
2, 30552, Note_on_c, 4, 76, 127
2, 30721, Note_off_c, 4, 76, 127
2, 30721, Note_off_c, 7, 67, 127
2, 30726, Note_on_c, 6, 66, 127
2, 30726, Note_on_c, 10, 69, 127
2, 30808, Note_off_c, 10, 69, 127
2, 30813, Note_on_c, 7, 67, 127
2, 30895, Note_off_c, 7, 67, 127
2, 30895, Note_off_c, 6, 66, 127
2, 30900, Note_on_c, 2, 62, 127
2, 30900, Note_on_c, 10, 69, 127
2, 31053, Note_off_c, 10, 69, 127
2, 31069, Note_off_c, 2, 62, 127
2, 31074, Note_on_c, 12, 59, 127
2, 31074, Note_on_c, 6, 78, 127
2, 31243, Note_off_c, 12, 59, 127
2, 31248, Note_on_c, 2, 62, 127
2, 31417, Note_off_c, 2, 62, 127
2, 31422, Note_on_c, 7, 55, 127
2, 31591, Note_off_c, 7, 55, 127
2, 31591, Note_off_c, 6, 78, 127
2, 31596, Note_on_c, 12, 59, 127
2, 31596, Note_on_c, 2, 74, 127
2, 31765, Note_off_c, 2, 74, 127
2, 31765, Note_off_c, 12, 59, 127
2, 31770, Note_on_c, 2, 62, 127
2, 31770, Note_on_c, 12, 71, 127
2, 31939, Note_off_c, 12, 71, 127
2, 31939, Note_off_c, 2, 62, 127
2, 31944, Note_on_c, 6, 66, 127
2, 31944, Note_on_c, 2, 74, 127
2, 32113, Note_off_c, 2, 74, 127
2, 32113, Note_off_c, 6, 66, 127
2, 32118, Note_on_c, 4, 64, 127
2, 32118, Note_on_c, 7, 67, 127
2, 32200, Note_off_c, 7, 67, 127
2, 32205, Note_on_c, 6, 66, 127
2, 32287, Note_off_c, 6, 66, 127
2, 32287, Note_off_c, 4, 64, 127
2, 32292, Note_on_c, 0, 60, 127
2, 32292, Note_on_c, 7, 67, 127
2, 32447, Note_off_c, 7, 67, 127
2, 32462, Note_off_c, 0, 60, 127
2, 32467, Note_on_c, 10, 57, 127
2, 32467, Note_on_c, 4, 76, 127
2, 32636, Note_off_c, 10, 57, 127
2, 32641, Note_on_c, 0, 60, 127
2, 32810, Note_off_c, 0, 60, 127
2, 32815, Note_on_c, 6, 54, 127
2, 32984, Note_off_c, 6, 54, 127
2, 32984, Note_off_c, 4, 76, 127
2, 32989, Note_on_c, 10, 57, 127
2, 32989, Note_on_c, 0, 72, 127
2, 33158, Note_off_c, 0, 72, 127
2, 33158, Note_off_c, 10, 57, 127
2, 33163, Note_on_c, 0, 60, 127
2, 33163, Note_on_c, 10, 69, 127
2, 33332, Note_off_c, 10, 69, 127
2, 33337, Note_on_c, 0, 72, 127
2, 33506, Note_off_c, 0, 72, 127
2, 33511, Note_on_c, 6, 66, 127
2, 33680, Note_off_c, 6, 66, 127
2, 33680, Note_off_c, 0, 60, 127
2, 33685, Note_on_c, 12, 59, 127
2, 33685, Note_on_c, 7, 79, 127
2, 33854, Note_off_c, 7, 79, 127
2, 33854, Note_off_c, 12, 59, 127
2, 33859, Note_on_c, 0, 60, 127
2, 33859, Note_on_c, 6, 78, 127
2, 34028, Note_off_c, 6, 78, 127
2, 34028, Note_off_c, 0, 60, 127
2, 34033, Note_on_c, 10, 57, 127
2, 34033, Note_on_c, 4, 76, 127
2, 34202, Note_off_c, 4, 76, 127
2, 34202, Note_off_c, 10, 57, 127
2, 34207, Note_on_c, 12, 59, 127
2, 34207, Note_on_c, 3, 75, 127
2, 34376, Note_off_c, 3, 75, 127
2, 34381, Note_on_c, 6, 78, 127
2, 34550, Note_off_c, 6, 78, 127
2, 34555, Note_on_c, 12, 47, 127
2, 34555, Note_on_c, 12, 71, 127
2, 34715, Note_off_c, 12, 59, 127
2, 34724, Note_off_c, 12, 71, 127
2, 34729, Note_on_c, 3, 75, 127
2, 34898, Note_off_c, 3, 75, 127
2, 34898, Note_off_c, 12, 47, 127
2, 34903, Note_on_c, 4, 52, 127
2, 34903, Note_on_c, 4, 76, 127
2, 35078, Note_on_c, 4, 64, 127
2, 35247, Note_off_c, 4, 64, 127
2, 35249, Note_off_c, 4, 52, 127
2, 35253, Note_on_c, 12, 59, 127
2, 35422, Note_off_c, 12, 59, 127
2, 35427, Note_on_c, 7, 55, 127
2, 35594, Note_off_c, 4, 76, 127
2, 35596, Note_off_c, 7, 55, 127
2, 35601, Note_on_c, 4, 52, 127
2, 35770, Note_off_c, 4, 52, 127
2, 35775, Note_on_c, 12, 47, 127
2, 35935, Note_off_c, 12, 47, 127
2, 35950, Note_on_c, 7, 43, 127
2, 36110, Note_off_c, 7, 43, 127
2, 36125, Note_on_c, 12, 47, 127
2, 36285, Note_off_c, 12, 47, 127
2, 36300, Note_on_c, 4, 40, 127
2, 36475, Note_on_c, 7, 79, 127
2, 36644, Note_off_c, 7, 79, 127
2, 36644, Note_off_c, 4, 40, 127
2, 36649, Note_on_c, 4, 52, 127
2, 36649, Note_on_c, 11, 82, 127
2, 36818, Note_off_c, 11, 82, 127
2, 36823, Note_on_c, 7, 79, 127
2, 36976, Note_off_c, 4, 52, 127
2, 36992, Note_off_c, 7, 79, 127
2, 36997, Note_on_c, 7, 55, 127
2, 36997, Note_on_c, 4, 76, 127
2, 37166, Note_off_c, 4, 76, 127
2, 37171, Note_on_c, 7, 79, 127
2, 37324, Note_off_c, 7, 55, 127
2, 37340, Note_off_c, 7, 79, 127
2, 37345, Note_on_c, 11, 58, 127
2, 37345, Note_on_c, 1, 73, 127
2, 37514, Note_off_c, 1, 73, 127
2, 37519, Note_on_c, 4, 76, 127
2, 37672, Note_off_c, 11, 58, 127
2, 37688, Note_off_c, 4, 76, 127
2, 37693, Note_on_c, 1, 49, 127
2, 37693, Note_on_c, 7, 79, 127
2, 37862, Note_off_c, 7, 79, 127
2, 37867, Note_on_c, 4, 76, 127
2, 38036, Note_off_c, 4, 76, 127
2, 38041, Note_on_c, 1, 73, 127
2, 38201, Note_off_c, 1, 49, 127
2, 38210, Note_off_c, 1, 73, 127
2, 38215, Note_on_c, 4, 76, 127
2, 38384, Note_off_c, 4, 76, 127
2, 38389, Note_on_c, 10, 69, 127
2, 38558, Note_off_c, 10, 69, 127
2, 38563, Note_on_c, 7, 67, 127
2, 38732, Note_off_c, 7, 67, 127
2, 38737, Note_on_c, 5, 65, 127
2, 38906, Note_off_c, 5, 65, 127
2, 38911, Note_on_c, 4, 64, 127
2, 39080, Note_off_c, 4, 64, 127
2, 39085, Note_on_c, 2, 62, 127
2, 39260, Note_on_c, 5, 77, 127
2, 39429, Note_off_c, 5, 77, 127
2, 39429, Note_off_c, 2, 62, 127
2, 39434, Note_on_c, 2, 50, 127
2, 39434, Note_on_c, 10, 81, 127
2, 39603, Note_off_c, 10, 81, 127
2, 39608, Note_on_c, 5, 77, 127
2, 39761, Note_off_c, 2, 50, 127
2, 39777, Note_off_c, 5, 77, 127
2, 39782, Note_on_c, 5, 53, 127
2, 39782, Note_on_c, 2, 74, 127
2, 39951, Note_off_c, 2, 74, 127
2, 39956, Note_on_c, 5, 77, 127
2, 40109, Note_off_c, 5, 53, 127
2, 40125, Note_off_c, 5, 77, 127
2, 40130, Note_on_c, 8, 56, 127
2, 40130, Note_on_c, 12, 71, 127
2, 40299, Note_off_c, 12, 71, 127
2, 40304, Note_on_c, 2, 74, 127
2, 40457, Note_off_c, 8, 56, 127
2, 40473, Note_off_c, 2, 74, 127
2, 40478, Note_on_c, 12, 47, 127
2, 40478, Note_on_c, 5, 77, 127
2, 40647, Note_off_c, 5, 77, 127
2, 40652, Note_on_c, 2, 74, 127
2, 40821, Note_off_c, 2, 74, 127
2, 40826, Note_on_c, 12, 71, 127
2, 40986, Note_off_c, 12, 47, 127
2, 40995, Note_off_c, 12, 71, 127
2, 41000, Note_on_c, 2, 74, 127
2, 41169, Note_off_c, 2, 74, 127
2, 41174, Note_on_c, 7, 67, 127
2, 41343, Note_off_c, 7, 67, 127
2, 41348, Note_on_c, 5, 65, 127
2, 41517, Note_off_c, 5, 65, 127
2, 41522, Note_on_c, 4, 64, 127
2, 41691, Note_off_c, 4, 64, 127
2, 41696, Note_on_c, 2, 62, 127
2, 41865, Note_off_c, 2, 62, 127
2, 41870, Note_on_c, 0, 60, 127
2, 42045, Note_on_c, 4, 76, 127
2, 42214, Note_off_c, 4, 76, 127
2, 42214, Note_off_c, 0, 60, 127
2, 42219, Note_on_c, 0, 48, 127
2, 42219, Note_on_c, 7, 79, 127
2, 42388, Note_off_c, 7, 79, 127
2, 42393, Note_on_c, 4, 76, 127
2, 42546, Note_off_c, 0, 48, 127
2, 42562, Note_off_c, 4, 76, 127
2, 42567, Note_on_c, 4, 52, 127
2, 42567, Note_on_c, 0, 72, 127
2, 42736, Note_off_c, 0, 72, 127
2, 42741, Note_on_c, 4, 76, 127
2, 42894, Note_off_c, 4, 52, 127
2, 42910, Note_off_c, 4, 76, 127
2, 42915, Note_on_c, 6, 54, 127
2, 42915, Note_on_c, 10, 69, 127
2, 43084, Note_off_c, 10, 69, 127
2, 43089, Note_on_c, 0, 72, 127
2, 43242, Note_off_c, 6, 54, 127
2, 43258, Note_off_c, 0, 72, 127
2, 43263, Note_on_c, 10, 45, 127
2, 43263, Note_on_c, 3, 75, 127
2, 43432, Note_off_c, 3, 75, 127
2, 43437, Note_on_c, 0, 72, 127
2, 43606, Note_off_c, 0, 72, 127
2, 43611, Note_on_c, 10, 69, 127
2, 43771, Note_off_c, 10, 45, 127
2, 43780, Note_off_c, 10, 69, 127
2, 43785, Note_on_c, 0, 72, 127
2, 43954, Note_off_c, 0, 72, 127
2, 43959, Note_on_c, 6, 66, 127
2, 44128, Note_off_c, 6, 66, 127
2, 44133, Note_on_c, 4, 64, 127
2, 44302, Note_off_c, 4, 64, 127
2, 44307, Note_on_c, 3, 63, 127
2, 44476, Note_off_c, 3, 63, 127
2, 44481, Note_on_c, 1, 61, 127
2, 44650, Note_off_c, 1, 61, 127
2, 44655, Note_on_c, 12, 59, 127
2, 44830, Note_on_c, 2, 74, 127
2, 44999, Note_off_c, 2, 74, 127
2, 44999, Note_off_c, 12, 59, 127
2, 45004, Note_on_c, 12, 47, 127
2, 45004, Note_on_c, 5, 77, 127
2, 45173, Note_off_c, 5, 77, 127
2, 45178, Note_on_c, 2, 74, 127
2, 45331, Note_off_c, 12, 47, 127
2, 45347, Note_off_c, 2, 74, 127
2, 45352, Note_on_c, 2, 50, 127
2, 45352, Note_on_c, 12, 71, 127
2, 45521, Note_off_c, 12, 71, 127
2, 45526, Note_on_c, 2, 74, 127
2, 45679, Note_off_c, 2, 50, 127
2, 45695, Note_off_c, 2, 74, 127
2, 45700, Note_on_c, 5, 53, 127
2, 45700, Note_on_c, 8, 68, 127
2, 45869, Note_off_c, 8, 68, 127
2, 45874, Note_on_c, 12, 71, 127
2, 46027, Note_off_c, 5, 53, 127
2, 46043, Note_off_c, 12, 71, 127
2, 46048, Note_on_c, 8, 44, 127
2, 46048, Note_on_c, 2, 74, 127
2, 46217, Note_off_c, 2, 74, 127
2, 46222, Note_on_c, 12, 71, 127
2, 46391, Note_off_c, 12, 71, 127
2, 46396, Note_on_c, 8, 68, 127
2, 46565, Note_off_c, 8, 68, 127
2, 46570, Note_on_c, 12, 71, 127
2, 46737, Note_off_c, 8, 44, 127
2, 46739, Note_off_c, 12, 71, 127
2, 46744, Note_on_c, 4, 64, 127
2, 46919, Note_on_c, 2, 62, 127
2, 47088, Note_off_c, 2, 62, 127
2, 47093, Note_on_c, 0, 60, 127
2, 47262, Note_off_c, 0, 60, 127
2, 47267, Note_on_c, 12, 59, 127
2, 47436, Note_off_c, 12, 59, 127
2, 47441, Note_on_c, 0, 60, 127
2, 47581, Note_off_c, 4, 64, 127
2, 47616, Note_on_c, 4, 64, 127
2, 47785, Note_off_c, 4, 64, 127
2, 47785, Note_off_c, 0, 60, 127
2, 47790, Note_on_c, 10, 57, 127
2, 47790, Note_on_c, 10, 69, 127
2, 47959, Note_off_c, 10, 69, 127
2, 47964, Note_on_c, 0, 72, 127
2, 48133, Note_off_c, 0, 72, 127
2, 48133, Note_off_c, 10, 57, 127
2, 48138, Note_on_c, 8, 56, 127
2, 48138, Note_on_c, 12, 71, 127
2, 48307, Note_off_c, 12, 71, 127
2, 48312, Note_on_c, 4, 64, 127
2, 48481, Note_off_c, 4, 64, 127
2, 48481, Note_off_c, 8, 56, 127
2, 48486, Note_on_c, 4, 52, 127
2, 48486, Note_on_c, 12, 71, 127
2, 48655, Note_off_c, 12, 71, 127
2, 48660, Note_on_c, 2, 74, 127
2, 48829, Note_off_c, 2, 74, 127
2, 48829, Note_off_c, 4, 52, 127
2, 48834, Note_on_c, 10, 57, 127
2, 48834, Note_on_c, 0, 72, 127
2, 49003, Note_off_c, 10, 57, 127
2, 49008, Note_on_c, 4, 52, 127
2, 49177, Note_off_c, 4, 52, 127
2, 49177, Note_off_c, 0, 72, 127
2, 49182, Note_on_c, 10, 57, 127
2, 49182, Note_on_c, 10, 69, 127
2, 49351, Note_off_c, 10, 57, 127
2, 49356, Note_on_c, 0, 60, 127
2, 49500, Note_off_c, 10, 69, 127
2, 49525, Note_off_c, 0, 60, 127
2, 49530, Note_on_c, 12, 59, 127
2, 49530, Note_on_c, 8, 68, 127
2, 49699, Note_off_c, 12, 59, 127
2, 49704, Note_on_c, 4, 52, 127
2, 49873, Note_off_c, 4, 52, 127
2, 49873, Note_off_c, 8, 68, 127
2, 49878, Note_on_c, 12, 59, 127
2, 49878, Note_on_c, 4, 64, 127
2, 50047, Note_off_c, 12, 59, 127
2, 50052, Note_on_c, 2, 62, 127
2, 50196, Note_off_c, 4, 64, 127
2, 50221, Note_off_c, 2, 62, 127
2, 50226, Note_on_c, 0, 60, 127
2, 50226, Note_on_c, 10, 69, 127
2, 50395, Note_off_c, 0, 60, 127
2, 50400, Note_on_c, 4, 64, 127
2, 50400, Note_on_c, 0, 72, 127
2, 50416, Note_off_c, 10, 69, 127
2, 50569, Note_off_c, 0, 72, 127
2, 50569, Note_off_c, 4, 64, 127
2, 50574, Note_on_c, 10, 69, 127
2, 50574, Note_on_c, 4, 76, 127
2, 50743, Note_off_c, 4, 76, 127
2, 50743, Note_off_c, 10, 69, 127
2, 50748, Note_on_c, 4, 64, 127
2, 50748, Note_on_c, 0, 72, 127
2, 50917, Note_off_c, 0, 72, 127
2, 50917, Note_off_c, 4, 64, 127
2, 50922, Note_on_c, 0, 60, 127
2, 50922, Note_on_c, 10, 69, 127
2, 51091, Note_off_c, 0, 60, 127
2, 51096, Note_on_c, 4, 64, 127
2, 51096, Note_on_c, 0, 72, 127
2, 51112, Note_off_c, 10, 69, 127
2, 51265, Note_off_c, 0, 72, 127
2, 51265, Note_off_c, 4, 64, 127
2, 51270, Note_on_c, 10, 57, 127
2, 51270, Note_on_c, 6, 66, 127
2, 51439, Note_off_c, 10, 57, 127
2, 51444, Note_on_c, 0, 60, 127
2, 51444, Note_on_c, 10, 69, 127
2, 51460, Note_off_c, 6, 66, 127
2, 51613, Note_off_c, 10, 69, 127
2, 51613, Note_off_c, 0, 60, 127
2, 51618, Note_on_c, 6, 54, 127
2, 51618, Note_on_c, 0, 72, 127
2, 51787, Note_off_c, 6, 54, 127
2, 51792, Note_on_c, 10, 57, 127
2, 51792, Note_on_c, 10, 69, 127
2, 51808, Note_off_c, 0, 72, 127
2, 51961, Note_off_c, 10, 69, 127
2, 51961, Note_off_c, 10, 57, 127
2, 51966, Note_on_c, 0, 60, 127
2, 51966, Note_on_c, 6, 66, 127
2, 52135, Note_off_c, 6, 66, 127
2, 52135, Note_off_c, 0, 60, 127
2, 52140, Note_on_c, 10, 57, 127
2, 52140, Note_on_c, 10, 69, 127
2, 52309, Note_off_c, 10, 69, 127
2, 52309, Note_off_c, 10, 57, 127
2, 52314, Note_on_c, 6, 54, 127
2, 52314, Note_on_c, 3, 63, 127
2, 52483, Note_off_c, 6, 54, 127
2, 52488, Note_on_c, 10, 57, 127
2, 52488, Note_on_c, 0, 72, 127
2, 52504, Note_off_c, 3, 63, 127
2, 52657, Note_off_c, 0, 72, 127
2, 52657, Note_off_c, 10, 57, 127
2, 52662, Note_on_c, 3, 51, 127
2, 52662, Note_on_c, 12, 71, 127
2, 52831, Note_off_c, 12, 71, 127
2, 52831, Note_off_c, 3, 51, 127
2, 52836, Note_on_c, 6, 54, 127
2, 52836, Note_on_c, 10, 69, 127
2, 53005, Note_off_c, 10, 69, 127
2, 53005, Note_off_c, 6, 54, 127
2, 53010, Note_on_c, 4, 52, 127
2, 53010, Note_on_c, 8, 68, 127
2, 53185, Note_on_c, 12, 71, 127
2, 53201, Note_off_c, 8, 68, 127
2, 53354, Note_off_c, 12, 71, 127
2, 53354, Note_off_c, 4, 52, 127
2, 53359, Note_on_c, 8, 56, 127
2, 53359, Note_on_c, 2, 74, 127
2, 53528, Note_off_c, 2, 74, 127
2, 53533, Note_on_c, 12, 71, 127
2, 53702, Note_off_c, 12, 71, 127
2, 53702, Note_off_c, 8, 56, 127
2, 53707, Note_on_c, 12, 59, 127
2, 53707, Note_on_c, 8, 68, 127
2, 53882, Note_on_c, 12, 71, 127
2, 53898, Note_off_c, 8, 68, 127
2, 54051, Note_off_c, 12, 71, 127
2, 54051, Note_off_c, 12, 59, 127
2, 54056, Note_on_c, 8, 56, 127
2, 54056, Note_on_c, 2, 62, 127
2, 54231, Note_on_c, 5, 65, 127
2, 54247, Note_off_c, 2, 62, 127
2, 54400, Note_off_c, 5, 65, 127
2, 54400, Note_off_c, 8, 56, 127
2, 54405, Note_on_c, 4, 52, 127
2, 54405, Note_on_c, 8, 68, 127
2, 54580, Note_on_c, 5, 65, 127
2, 54596, Note_off_c, 8, 68, 127
2, 54749, Note_off_c, 5, 65, 127
2, 54749, Note_off_c, 4, 52, 127
2, 54754, Note_on_c, 12, 47, 127
2, 54754, Note_on_c, 2, 62, 127
2, 54923, Note_off_c, 2, 62, 127
2, 54928, Note_on_c, 5, 65, 127
2, 55097, Note_off_c, 5, 65, 127
2, 55097, Note_off_c, 12, 47, 127
2, 55102, Note_on_c, 8, 44, 127
2, 55102, Note_on_c, 12, 59, 127
2, 55277, Note_on_c, 5, 65, 127
2, 55293, Note_off_c, 12, 59, 127
2, 55446, Note_off_c, 5, 65, 127
2, 55446, Note_off_c, 8, 44, 127
2, 55451, Note_on_c, 4, 40, 127
2, 55451, Note_on_c, 4, 64, 127
2, 55620, Note_off_c, 4, 64, 127
2, 55625, Note_on_c, 2, 62, 127
2, 55794, Note_off_c, 2, 62, 127
2, 55794, Note_off_c, 4, 40, 127
2, 55799, Note_on_c, 10, 45, 127
2, 55799, Note_on_c, 0, 60, 127
2, 55974, Note_on_c, 4, 64, 127
2, 55990, Note_off_c, 0, 60, 127
2, 56143, Note_off_c, 4, 64, 127
2, 56143, Note_off_c, 10, 45, 127
2, 56148, Note_on_c, 0, 48, 127
2, 56148, Note_on_c, 10, 69, 127
2, 56323, Note_on_c, 4, 64, 127
2, 56339, Note_off_c, 10, 69, 127
2, 56492, Note_off_c, 4, 64, 127
2, 56492, Note_off_c, 0, 48, 127
2, 56497, Note_on_c, 4, 52, 127
2, 56497, Note_on_c, 0, 60, 127
2, 56672, Note_on_c, 4, 64, 127
2, 56688, Note_off_c, 0, 60, 127
2, 56841, Note_off_c, 4, 64, 127
2, 56841, Note_off_c, 4, 52, 127
2, 56846, Note_on_c, 0, 48, 127
2, 56846, Note_on_c, 10, 57, 127
2, 57021, Note_on_c, 0, 60, 127
2, 57037, Note_off_c, 10, 57, 127
2, 57190, Note_off_c, 0, 60, 127
2, 57190, Note_off_c, 0, 48, 127
2, 57195, Note_on_c, 10, 45, 127
2, 57195, Note_on_c, 3, 63, 127
2, 57370, Note_on_c, 0, 60, 127
2, 57386, Note_off_c, 3, 63, 127
2, 57539, Note_off_c, 0, 60, 127
2, 57539, Note_off_c, 10, 45, 127
2, 57544, Note_on_c, 0, 48, 127
2, 57544, Note_on_c, 10, 57, 127
2, 57719, Note_on_c, 0, 60, 127
2, 57735, Note_off_c, 10, 57, 127
2, 57888, Note_off_c, 0, 60, 127
2, 57888, Note_off_c, 0, 48, 127
2, 57893, Note_on_c, 3, 39, 127
2, 57893, Note_on_c, 6, 54, 127
2, 58068, Note_on_c, 0, 60, 127
2, 58084, Note_off_c, 6, 54, 127
2, 58237, Note_off_c, 0, 60, 127
2, 58239, Note_off_c, 3, 39, 127
2, 58243, Note_on_c, 12, 59, 127
2, 58412, Note_off_c, 12, 59, 127
2, 58417, Note_on_c, 10, 57, 127
2, 58586, Note_off_c, 10, 57, 127
2, 58591, Note_on_c, 8, 56, 127
2, 58766, Note_on_c, 12, 59, 127
2, 58935, Note_off_c, 12, 59, 127
2, 58935, Note_off_c, 8, 56, 127
2, 58940, Note_on_c, 8, 56, 127
2, 58940, Note_on_c, 12, 71, 127
2, 59109, Note_off_c, 8, 56, 127
2, 59114, Note_on_c, 4, 52, 127
2, 59267, Note_off_c, 12, 71, 127
2, 59283, Note_off_c, 4, 52, 127
2, 59288, Note_on_c, 2, 50, 127
2, 59288, Note_on_c, 8, 68, 127
2, 59457, Note_off_c, 2, 50, 127
2, 59462, Note_on_c, 12, 59, 127
2, 59615, Note_off_c, 8, 68, 127
2, 59631, Note_off_c, 12, 59, 127
2, 59636, Note_on_c, 8, 56, 127
2, 59636, Note_on_c, 4, 64, 127
2, 59805, Note_off_c, 8, 56, 127
2, 59810, Note_on_c, 2, 50, 127
2, 59963, Note_off_c, 4, 64, 127
2, 59979, Note_off_c, 2, 50, 127
2, 59984, Note_on_c, 0, 48, 127
2, 60159, Note_on_c, 4, 64, 127
2, 60328, Note_off_c, 4, 64, 127
2, 60328, Note_off_c, 0, 48, 127
2, 60333, Note_on_c, 4, 52, 127
2, 60333, Note_on_c, 10, 69, 127
2, 60502, Note_off_c, 10, 69, 127
2, 60507, Note_on_c, 0, 72, 127
2, 60676, Note_off_c, 0, 72, 127
2, 60676, Note_off_c, 4, 52, 127
2, 60681, Note_on_c, 8, 44, 127
2, 60681, Note_on_c, 12, 71, 127
2, 60850, Note_off_c, 12, 71, 127
2, 60855, Note_on_c, 4, 64, 127
2, 61024, Note_off_c, 4, 64, 127
2, 61024, Note_off_c, 8, 44, 127
2, 61029, Note_on_c, 4, 52, 127
2, 61029, Note_on_c, 12, 71, 127
2, 61198, Note_off_c, 12, 71, 127
2, 61203, Note_on_c, 2, 74, 127
2, 61372, Note_off_c, 2, 74, 127
2, 61372, Note_off_c, 4, 52, 127
2, 61377, Note_on_c, 10, 45, 127
2, 61377, Note_on_c, 0, 72, 127
2, 61546, Note_off_c, 0, 72, 127
2, 61551, Note_on_c, 10, 69, 127
2, 61720, Note_off_c, 10, 69, 127
2, 61720, Note_off_c, 10, 45, 127
2, 61725, Note_on_c, 6, 54, 127
2, 61725, Note_on_c, 0, 72, 127
2, 61894, Note_off_c, 0, 72, 127
2, 61899, Note_on_c, 4, 76, 127
2, 62068, Note_off_c, 4, 76, 127
2, 62068, Note_off_c, 6, 54, 127
2, 62073, Note_on_c, 12, 47, 127
2, 62073, Note_on_c, 2, 74, 127
2, 62242, Note_off_c, 2, 74, 127
2, 62247, Note_on_c, 12, 71, 127
2, 62416, Note_off_c, 12, 71, 127
2, 62416, Note_off_c, 12, 47, 127
2, 62421, Note_on_c, 8, 56, 127
2, 62421, Note_on_c, 2, 74, 127
2, 62590, Note_off_c, 2, 74, 127
2, 62595, Note_on_c, 5, 77, 127
2, 62764, Note_off_c, 5, 77, 127
2, 62764, Note_off_c, 8, 56, 127
2, 62769, Note_on_c, 0, 48, 127
2, 62769, Note_on_c, 4, 76, 127
2, 62938, Note_off_c, 4, 76, 127
2, 62943, Note_on_c, 0, 72, 127
2, 63112, Note_off_c, 0, 72, 127
2, 63112, Note_off_c, 0, 48, 127
2, 63117, Note_on_c, 10, 57, 127
2, 63117, Note_on_c, 4, 76, 127
2, 63286, Note_off_c, 4, 76, 127
2, 63291, Note_on_c, 7, 79, 127
2, 63460, Note_off_c, 7, 79, 127
2, 63460, Note_off_c, 10, 57, 127
2, 63465, Note_on_c, 2, 50, 127
2, 63465, Note_on_c, 5, 77, 127
2, 63634, Note_off_c, 5, 77, 127
2, 63639, Note_on_c, 4, 76, 127
2, 63808, Note_off_c, 4, 76, 127
2, 63808, Note_off_c, 2, 50, 127
2, 63813, Note_on_c, 11, 58, 127
2, 63813, Note_on_c, 2, 74, 127
2, 63982, Note_off_c, 2, 74, 127
2, 63987, Note_on_c, 0, 72, 127
2, 64140, Note_off_c, 11, 58, 127
2, 64156, Note_off_c, 0, 72, 127
2, 64168, Note_on_c, 12, 71, 127
2, 64168, Note_on_c, 8, 56, 127
2, 64337, Note_off_c, 12, 71, 127
2, 64351, Note_on_c, 0, 72, 127
2, 64511, Note_off_c, 8, 56, 127
2, 64520, Note_off_c, 0, 72, 127
2, 64525, Note_on_c, 2, 74, 127
2, 64525, Note_on_c, 5, 53, 127
2, 64694, Note_off_c, 2, 74, 127
2, 64699, Note_on_c, 4, 76, 127
2, 64868, Note_off_c, 4, 76, 127
2, 64868, Note_off_c, 5, 53, 127
2, 64873, Note_on_c, 5, 77, 127
2, 64873, Note_on_c, 2, 50, 127
2, 65048, Note_on_c, 2, 74, 127
2, 65073, Note_off_c, 5, 77, 127
2, 65217, Note_off_c, 2, 50, 127
2, 65222, Note_on_c, 8, 80, 127
2, 65222, Note_on_c, 12, 47, 127
2, 65257, Note_off_c, 2, 74, 127
2, 65397, Note_on_c, 2, 74, 127
2, 65441, Note_off_c, 8, 80, 127
2, 65566, Note_off_c, 12, 47, 127
2, 65571, Note_on_c, 12, 83, 127
2, 65571, Note_on_c, 8, 44, 127
2, 65624, Note_off_c, 2, 74, 127
2, 65746, Note_on_c, 2, 74, 127
2, 65833, Note_off_c, 12, 83, 127
2, 65915, Note_off_c, 2, 74, 127
2, 65915, Note_off_c, 8, 44, 127
2, 65920, Note_on_c, 0, 72, 127
2, 65920, Note_on_c, 10, 45, 127
2, 66089, Note_off_c, 0, 72, 127
2, 66094, Note_on_c, 10, 81, 127
2, 66263, Note_off_c, 10, 81, 127
2, 66263, Note_off_c, 10, 45, 127
2, 66268, Note_on_c, 5, 77, 127
2, 66268, Note_on_c, 2, 38, 127
2, 66447, Note_on_c, 2, 74, 127
2, 66536, Note_off_c, 5, 77, 127
2, 66620, Note_off_c, 2, 74, 127
2, 66620, Note_off_c, 2, 38, 127
2, 66626, Note_on_c, 12, 71, 127
2, 66626, Note_on_c, 4, 40, 127
2, 66799, Note_off_c, 12, 71, 127
2, 66805, Note_on_c, 2, 74, 127
2, 66978, Note_off_c, 2, 74, 127
2, 66978, Note_off_c, 4, 40, 127
2, 66984, Note_on_c, 8, 68, 127
2, 66984, Note_on_c, 5, 41, 127
2, 67166, Note_on_c, 12, 71, 127
2, 67257, Note_off_c, 8, 68, 127
2, 67342, Note_off_c, 12, 71, 127
2, 67342, Note_off_c, 5, 41, 127
2, 67348, Note_on_c, 0, 72, 127
2, 67348, Note_on_c, 3, 39, 127
2, 67530, Note_on_c, 10, 69, 127
2, 67706, Note_off_c, 10, 69, 127
2, 67706, Note_off_c, 3, 39, 127
2, 67712, Note_on_c, 4, 64, 127
2, 67712, Note_on_c, 4, 40, 127
2, 67894, Note_off_c, 0, 72, 127
2, 67911, Note_on_c, 10, 69, 127
2, 68103, Note_off_c, 10, 69, 127
2, 68103, Note_off_c, 4, 40, 127
2, 68105, Note_off_c, 4, 64, 127
2, 68109, Note_on_c, 12, 71, 127
2, 68109, Note_on_c, 4, 52, 127
2, 68308, Note_on_c, 8, 68, 127
2, 68500, Note_off_c, 8, 68, 127
2, 68500, Note_off_c, 4, 52, 127
2, 68502, Note_off_c, 12, 71, 127
2, 68506, Note_on_c, 10, 69, 127
2, 68506, Note_on_c, 10, 45, 127
2, 68736, Note_on_c, 4, 64, 127
2, 68959, Note_off_c, 4, 64, 127
2, 68966, Note_on_c, 0, 60, 127
2, 69177, Note_off_c, 10, 69, 127
2, 69189, Note_off_c, 0, 60, 127
2, 69196, Note_on_c, 4, 64, 127
2, 69417, Note_off_c, 10, 45, 127
2, 69419, Note_off_c, 4, 64, 127
2, 69426, Note_on_c, 10, 57, 127
2, 71586, Note_off_c, 10, 57, 127
2, 77608, End_track
3, 0, Start_track
3, 0, Title_t, "MIDI"
3, 1536, End_track
0, 0, End_of_file
