0, 0, Header, 1, 3, 384
1, 0, Start_track
1, 0, Tempo, 500000
1, 0, Time_signature, 4, 2, 24, 8
1, 73728, End_track
2, 0, Start_track
2, 0, Text_t, "harpsichord: John Sankey"
2, 0, Program_c, 0, 6
2, 0, Pitch_bend_c, 0, 8192
2, 0, Program_c, 1, 6
2, 0, Pitch_bend_c, 1, 7792
2, 0, Program_c, 2, 6
2, 0, Pitch_bend_c, 2, 7876
2, 0, Program_c, 3, 6
2, 0, Pitch_bend_c, 3, 7952
2, 0, Program_c, 4, 6
2, 0, Pitch_bend_c, 4, 7792
2, 0, Program_c, 5, 6
2, 0, Pitch_bend_c, 5, 8112
2, 0, Program_c, 6, 6
2, 0, Pitch_bend_c, 6, 7712
2, 0, Program_c, 7, 6
2, 0, Pitch_bend_c, 7, 8037
2, 0, Program_c, 8, 6
2, 0, Pitch_bend_c, 8, 7872
2, 0, Program_c, 10, 6
2, 0, Pitch_bend_c, 10, 7712
2, 0, Program_c, 11, 6
2, 0, Pitch_bend_c, 11, 8032
2, 0, Program_c, 12, 6
2, 0, Pitch_bend_c, 12, 7872
2, 0, Title_t, "Track 1"
2, 96, Note_on_c, 10, 57, 127
2, 96, Note_on_c, 10, 69, 127
2, 162, Note_off_c, 10, 69, 127
2, 165, Note_on_c, 8, 68, 127
2, 228, Note_off_c, 10, 57, 127
2, 231, Note_off_c, 8, 68, 127
2, 234, Note_on_c, 12, 59, 127
2, 234, Note_on_c, 10, 69, 127
2, 365, Note_off_c, 12, 59, 127
2, 371, Note_on_c, 1, 61, 127
2, 502, Note_off_c, 1, 61, 127
2, 508, Note_on_c, 12, 59, 127
2, 639, Note_off_c, 12, 59, 127
2, 642, Note_off_c, 10, 69, 127
2, 645, Note_on_c, 10, 57, 127
2, 645, Note_on_c, 10, 69, 127
2, 776, Note_off_c, 10, 57, 127
2, 782, Note_on_c, 8, 56, 127
2, 888, Note_off_c, 10, 69, 127
2, 914, Note_off_c, 8, 56, 127
2, 920, Note_on_c, 6, 54, 127
2, 920, Note_on_c, 10, 69, 127
2, 986, Note_off_c, 10, 69, 127
2, 989, Note_on_c, 8, 68, 127
2, 1052, Note_off_c, 6, 54, 127
2, 1055, Note_off_c, 8, 68, 127
2, 1058, Note_on_c, 8, 56, 127
2, 1058, Note_on_c, 10, 69, 127
2, 1189, Note_off_c, 8, 56, 127
2, 1195, Note_on_c, 10, 57, 127
2, 1326, Note_off_c, 10, 57, 127
2, 1332, Note_on_c, 8, 56, 127
2, 1463, Note_off_c, 8, 56, 127
2, 1466, Note_off_c, 10, 69, 127
2, 1469, Note_on_c, 6, 54, 127
2, 1469, Note_on_c, 10, 69, 127
2, 1600, Note_off_c, 6, 54, 127
2, 1606, Note_on_c, 4, 52, 127
2, 1712, Note_off_c, 10, 69, 127
2, 1738, Note_off_c, 4, 52, 127
2, 1744, Note_on_c, 2, 50, 127
2, 1744, Note_on_c, 10, 69, 127
2, 1804, Note_off_c, 10, 69, 127
2, 1811, Note_on_c, 12, 71, 127
2, 1871, Note_off_c, 12, 71, 127
2, 1874, Note_on_c, 1, 73, 127
2, 1875, Note_off_c, 2, 50, 127
2, 1881, Note_on_c, 6, 54, 127
2, 1928, Note_on_c, 12, 71, 127
2, 1929, Note_off_c, 1, 73, 127
2, 1982, Note_on_c, 1, 73, 127
2, 1983, Note_off_c, 12, 71, 127
2, 2012, Note_off_c, 6, 54, 127
2, 2018, Note_on_c, 10, 57, 127
2, 2035, Note_on_c, 12, 71, 127
2, 2038, Note_off_c, 1, 73, 127
2, 2089, Note_on_c, 1, 73, 127
2, 2090, Note_off_c, 12, 71, 127
2, 2143, Note_on_c, 12, 71, 127
2, 2144, Note_off_c, 1, 73, 127
2, 2148, Note_off_c, 10, 57, 127
2, 2154, Note_on_c, 6, 54, 127
2, 2197, Note_on_c, 1, 73, 127
2, 2198, Note_off_c, 12, 71, 127
2, 2251, Note_on_c, 12, 71, 127
2, 2252, Note_off_c, 1, 73, 127
2, 2285, Note_off_c, 6, 54, 127
2, 2291, Note_on_c, 2, 50, 127
2, 2304, Note_on_c, 1, 73, 127
2, 2307, Note_off_c, 12, 71, 127
2, 2358, Note_on_c, 12, 71, 127
2, 2359, Note_off_c, 1, 73, 127
2, 2412, Note_on_c, 1, 73, 127
2, 2413, Note_off_c, 12, 71, 127
2, 2422, Note_off_c, 2, 50, 127
2, 2428, Note_on_c, 6, 54, 127
2, 2467, Note_on_c, 12, 71, 127
2, 2468, Note_off_c, 1, 73, 127
2, 2521, Note_on_c, 1, 73, 127
2, 2522, Note_off_c, 12, 71, 127
2, 2559, Note_off_c, 6, 54, 127
2, 2565, Note_on_c, 12, 47, 127
2, 2574, Note_on_c, 12, 71, 127
2, 2577, Note_off_c, 1, 73, 127
2, 2628, Note_on_c, 1, 73, 127
2, 2629, Note_off_c, 12, 71, 127
2, 2682, Note_on_c, 12, 71, 127
2, 2683, Note_off_c, 1, 73, 127
2, 2696, Note_off_c, 12, 47, 127
2, 2702, Note_on_c, 2, 50, 127
2, 2736, Note_on_c, 1, 73, 127
2, 2737, Note_off_c, 12, 71, 127
2, 2790, Note_on_c, 12, 71, 127
2, 2791, Note_off_c, 1, 73, 127
2, 2832, Note_off_c, 2, 50, 127
2, 2838, Note_on_c, 6, 54, 127
2, 2842, Note_on_c, 1, 73, 127
2, 2845, Note_off_c, 12, 71, 127
2, 2896, Note_on_c, 12, 71, 127
2, 2897, Note_off_c, 1, 73, 127
2, 2950, Note_on_c, 1, 73, 127
2, 2951, Note_off_c, 12, 71, 127
2, 2968, Note_off_c, 6, 54, 127
2, 2974, Note_on_c, 2, 50, 127
2, 3004, Note_on_c, 12, 71, 127
2, 3005, Note_off_c, 1, 73, 127
2, 3055, Note_on_c, 1, 73, 127
2, 3059, Note_off_c, 12, 71, 127
2, 3105, Note_off_c, 2, 50, 127
2, 3109, Note_on_c, 12, 71, 127
2, 3110, Note_off_c, 1, 73, 127
2, 3110, Note_on_c, 12, 47, 127
2, 3163, Note_on_c, 1, 73, 127
2, 3164, Note_off_c, 12, 71, 127
2, 3217, Note_on_c, 12, 71, 127
2, 3218, Note_off_c, 1, 73, 127
2, 3241, Note_off_c, 12, 47, 127
2, 3247, Note_on_c, 2, 50, 127
2, 3270, Note_on_c, 1, 73, 127
2, 3273, Note_off_c, 12, 71, 127
2, 3326, Note_off_c, 1, 73, 127
2, 3330, Note_on_c, 12, 71, 127
2, 3379, Note_off_c, 2, 50, 127
2, 3385, Note_on_c, 8, 44, 127
2, 3522, Note_off_c, 12, 71, 127
2, 3522, Note_on_c, 10, 69, 127
2, 3653, Note_off_c, 10, 69, 127
2, 3656, Note_off_c, 8, 44, 127
2, 3659, Note_on_c, 12, 47, 127
2, 3659, Note_on_c, 8, 68, 127
2, 3790, Note_off_c, 8, 68, 127
2, 3796, Note_on_c, 10, 69, 127
2, 3927, Note_off_c, 10, 69, 127
2, 3930, Note_off_c, 12, 47, 127
2, 3933, Note_on_c, 8, 44, 127
2, 3933, Note_on_c, 12, 71, 127
2, 4064, Note_off_c, 12, 71, 127
2, 4070, Note_on_c, 1, 73, 127
2, 4201, Note_off_c, 1, 73, 127
2, 4204, Note_off_c, 8, 44, 127
2, 4207, Note_on_c, 4, 40, 127
2, 4207, Note_on_c, 2, 74, 127
2, 4338, Note_off_c, 2, 74, 127
2, 4344, Note_on_c, 1, 73, 127
2, 4475, Note_off_c, 1, 73, 127
2, 4478, Note_off_c, 4, 40, 127
2, 4481, Note_on_c, 6, 42, 127
2, 4481, Note_on_c, 2, 74, 127
2, 4612, Note_off_c, 2, 74, 127
2, 4618, Note_on_c, 6, 78, 127
2, 4749, Note_off_c, 6, 78, 127
2, 4752, Note_off_c, 6, 42, 127
2, 4755, Note_on_c, 8, 44, 127
2, 4755, Note_on_c, 4, 76, 127
2, 4886, Note_off_c, 4, 76, 127
2, 4892, Note_on_c, 2, 74, 127
2, 5023, Note_off_c, 2, 74, 127
2, 5026, Note_off_c, 8, 44, 127
2, 5029, Note_on_c, 10, 45, 127
2, 5029, Note_on_c, 1, 73, 127
2, 5160, Note_off_c, 1, 73, 127
2, 5166, Note_on_c, 10, 69, 127
2, 5297, Note_off_c, 10, 69, 127
2, 5303, Note_on_c, 1, 73, 127
2, 5434, Note_off_c, 1, 73, 127
2, 5440, Note_on_c, 4, 76, 127
2, 5571, Note_off_c, 4, 76, 127
2, 5571, Note_off_c, 10, 45, 127
2, 5577, Note_on_c, 10, 81, 127
2, 5708, Note_off_c, 10, 81, 127
2, 5714, Note_on_c, 6, 78, 127
2, 5845, Note_off_c, 6, 78, 127
2, 5851, Note_on_c, 3, 75, 127
2, 5982, Note_off_c, 3, 75, 127
2, 5988, Note_on_c, 12, 71, 127
2, 6119, Note_off_c, 12, 71, 127
2, 6125, Note_on_c, 3, 75, 127
2, 6256, Note_off_c, 3, 75, 127
2, 6262, Note_on_c, 6, 78, 127
2, 6393, Note_off_c, 6, 78, 127
2, 6399, Note_on_c, 10, 81, 127
2, 6530, Note_off_c, 10, 81, 127
2, 6536, Note_on_c, 6, 78, 127
2, 6667, Note_off_c, 6, 78, 127
2, 6673, Note_on_c, 4, 52, 127
2, 6673, Note_on_c, 8, 80, 127
2, 6739, Note_off_c, 4, 52, 127
2, 6742, Note_on_c, 3, 51, 127
2, 6805, Note_off_c, 8, 80, 127
2, 6808, Note_off_c, 3, 51, 127
2, 6811, Note_on_c, 4, 52, 127
2, 6811, Note_on_c, 10, 81, 127
2, 6942, Note_off_c, 10, 81, 127
2, 6948, Note_on_c, 8, 80, 127
2, 7079, Note_off_c, 8, 80, 127
2, 7085, Note_on_c, 6, 78, 127
2, 7216, Note_off_c, 6, 78, 127
2, 7219, Note_off_c, 4, 52, 127
2, 7222, Note_on_c, 4, 52, 127
2, 7222, Note_on_c, 4, 76, 127
2, 7353, Note_off_c, 4, 76, 127
2, 7359, Note_on_c, 3, 75, 127
2, 7490, Note_off_c, 3, 75, 127
2, 7493, Note_off_c, 4, 52, 127
2, 7496, Note_on_c, 4, 52, 127
2, 7496, Note_on_c, 1, 73, 127
2, 7562, Note_off_c, 4, 52, 127
2, 7565, Note_on_c, 3, 51, 127
2, 7628, Note_off_c, 1, 73, 127
2, 7631, Note_off_c, 3, 51, 127
2, 7634, Note_on_c, 4, 52, 127
2, 7634, Note_on_c, 3, 75, 127
2, 7765, Note_off_c, 3, 75, 127
2, 7771, Note_on_c, 4, 76, 127
2, 7902, Note_off_c, 4, 76, 127
2, 7908, Note_on_c, 3, 75, 127
2, 8039, Note_off_c, 3, 75, 127
2, 8042, Note_off_c, 4, 52, 127
2, 8045, Note_on_c, 4, 52, 127
2, 8045, Note_on_c, 1, 73, 127
2, 8176, Note_off_c, 1, 73, 127
2, 8182, Note_on_c, 12, 71, 127
2, 8313, Note_off_c, 12, 71, 127
2, 8316, Note_off_c, 4, 52, 127
2, 8319, Note_on_c, 4, 52, 127
2, 8319, Note_on_c, 10, 69, 127
2, 8376, Note_off_c, 4, 52, 127
2, 8376, Note_on_c, 6, 54, 127
2, 8433, Note_off_c, 6, 54, 127
2, 8433, Note_on_c, 8, 56, 127
2, 8450, Note_off_c, 10, 69, 127
2, 8456, Note_on_c, 1, 73, 127
2, 8492, Note_off_c, 8, 56, 127
2, 8492, Note_on_c, 6, 54, 127
2, 8549, Note_off_c, 6, 54, 127
2, 8549, Note_on_c, 8, 56, 127
2, 8588, Note_off_c, 1, 73, 127
2, 8594, Note_on_c, 4, 76, 127
2, 8607, Note_off_c, 8, 56, 127
2, 8607, Note_on_c, 6, 54, 127
2, 8666, Note_off_c, 6, 54, 127
2, 8666, Note_on_c, 8, 56, 127
2, 8723, Note_off_c, 8, 56, 127
2, 8723, Note_on_c, 6, 54, 127
2, 8726, Note_off_c, 4, 76, 127
2, 8732, Note_on_c, 1, 73, 127
2, 8781, Note_off_c, 6, 54, 127
2, 8781, Note_on_c, 8, 56, 127
2, 8840, Note_off_c, 8, 56, 127
2, 8840, Note_on_c, 6, 54, 127
2, 8864, Note_off_c, 1, 73, 127
2, 8870, Note_on_c, 10, 69, 127
2, 8897, Note_off_c, 6, 54, 127
2, 8897, Note_on_c, 8, 56, 127
2, 8954, Note_off_c, 8, 56, 127
2, 8954, Note_on_c, 6, 54, 127
2, 9001, Note_off_c, 10, 69, 127
2, 9007, Note_on_c, 1, 73, 127
2, 9013, Note_off_c, 6, 54, 127
2, 9013, Note_on_c, 8, 56, 127
2, 9070, Note_off_c, 8, 56, 127
2, 9070, Note_on_c, 6, 54, 127
2, 9127, Note_off_c, 6, 54, 127
2, 9127, Note_on_c, 8, 56, 127
2, 9138, Note_off_c, 1, 73, 127
2, 9144, Note_on_c, 6, 66, 127
2, 9185, Note_off_c, 8, 56, 127
2, 9185, Note_on_c, 6, 54, 127
2, 9242, Note_off_c, 6, 54, 127
2, 9242, Note_on_c, 8, 56, 127
2, 9275, Note_off_c, 6, 66, 127
2, 9281, Note_on_c, 10, 69, 127
2, 9300, Note_off_c, 8, 56, 127
2, 9300, Note_on_c, 6, 54, 127
2, 9359, Note_off_c, 6, 54, 127
2, 9359, Note_on_c, 8, 56, 127
2, 9413, Note_off_c, 10, 69, 127
2, 9416, Note_off_c, 8, 56, 127
2, 9416, Note_on_c, 6, 54, 127
2, 9419, Note_on_c, 1, 73, 127
2, 9473, Note_off_c, 6, 54, 127
2, 9473, Note_on_c, 8, 56, 127
2, 9532, Note_off_c, 8, 56, 127
2, 9532, Note_on_c, 6, 54, 127
2, 9551, Note_off_c, 1, 73, 127
2, 9557, Note_on_c, 10, 69, 127
2, 9591, Note_off_c, 6, 54, 127
2, 9605, Note_on_c, 8, 56, 127
2, 9662, Note_off_c, 8, 56, 127
2, 9662, Note_on_c, 6, 54, 127
2, 9688, Note_off_c, 10, 69, 127
2, 9694, Note_on_c, 6, 66, 127
2, 9720, Note_off_c, 6, 54, 127
2, 9720, Note_on_c, 8, 56, 127
2, 9779, Note_off_c, 8, 56, 127
2, 9779, Note_on_c, 6, 54, 127
2, 9826, Note_off_c, 6, 66, 127
2, 9832, Note_on_c, 10, 69, 127
2, 9836, Note_off_c, 6, 54, 127
2, 9836, Note_on_c, 8, 56, 127
2, 9893, Note_off_c, 8, 56, 127
2, 9900, Note_on_c, 6, 54, 127
2, 9963, Note_off_c, 10, 69, 127
2, 9969, Note_on_c, 3, 63, 127
2, 10069, Note_off_c, 6, 54, 127
2, 10107, Note_on_c, 4, 52, 127
2, 10238, Note_off_c, 4, 52, 127
2, 10241, Note_off_c, 3, 63, 127
2, 10244, Note_on_c, 3, 51, 127
2, 10244, Note_on_c, 6, 66, 127
2, 10375, Note_off_c, 3, 51, 127
2, 10381, Note_on_c, 4, 52, 127
2, 10512, Note_off_c, 4, 52, 127
2, 10515, Note_off_c, 6, 66, 127
2, 10518, Note_on_c, 6, 54, 127
2, 10518, Note_on_c, 3, 63, 127
2, 10649, Note_off_c, 6, 54, 127
2, 10655, Note_on_c, 8, 56, 127
2, 10786, Note_off_c, 8, 56, 127
2, 10789, Note_off_c, 3, 63, 127
2, 10792, Note_on_c, 10, 57, 127
2, 10792, Note_on_c, 12, 59, 127
2, 10923, Note_off_c, 12, 59, 127
2, 10923, Note_off_c, 10, 57, 127
2, 10929, Note_on_c, 8, 56, 127
2, 10929, Note_on_c, 3, 63, 127
2, 11060, Note_off_c, 3, 63, 127
2, 11060, Note_off_c, 8, 56, 127
2, 11066, Note_on_c, 10, 57, 127
2, 11066, Note_on_c, 6, 66, 127
2, 11197, Note_off_c, 6, 66, 127
2, 11197, Note_off_c, 10, 57, 127
2, 11203, Note_on_c, 1, 61, 127
2, 11203, Note_on_c, 10, 69, 127
2, 11334, Note_off_c, 10, 69, 127
2, 11334, Note_off_c, 1, 61, 127
2, 11340, Note_on_c, 12, 59, 127
2, 11340, Note_on_c, 8, 68, 127
2, 11471, Note_off_c, 8, 68, 127
2, 11471, Note_off_c, 12, 59, 127
2, 11477, Note_on_c, 10, 57, 127
2, 11477, Note_on_c, 6, 66, 127
2, 11608, Note_off_c, 6, 66, 127
2, 11608, Note_off_c, 10, 57, 127
2, 11614, Note_on_c, 8, 56, 127
2, 11614, Note_on_c, 4, 64, 127
2, 11745, Note_off_c, 4, 64, 127
2, 11745, Note_off_c, 8, 56, 127
2, 11751, Note_on_c, 4, 52, 127
2, 11751, Note_on_c, 8, 68, 127
2, 11882, Note_off_c, 8, 68, 127
2, 11882, Note_off_c, 4, 52, 127
2, 11888, Note_on_c, 8, 56, 127
2, 11888, Note_on_c, 12, 71, 127
2, 12019, Note_off_c, 12, 71, 127
2, 12019, Note_off_c, 8, 56, 127
2, 12025, Note_on_c, 12, 59, 127
2, 12025, Note_on_c, 4, 76, 127
2, 12156, Note_off_c, 4, 76, 127
2, 12156, Note_off_c, 12, 59, 127
2, 12162, Note_on_c, 4, 64, 127
2, 12162, Note_on_c, 12, 71, 127
2, 12293, Note_off_c, 12, 71, 127
2, 12293, Note_off_c, 4, 64, 127
2, 12299, Note_on_c, 12, 59, 127
2, 12299, Note_on_c, 8, 68, 127
2, 12430, Note_off_c, 8, 68, 127
2, 12430, Note_off_c, 12, 59, 127
2, 12436, Note_on_c, 8, 56, 127
2, 12436, Note_on_c, 4, 64, 127
2, 12567, Note_off_c, 8, 56, 127
2, 12573, Note_on_c, 4, 52, 127
2, 12704, Note_off_c, 4, 52, 127
2, 12710, Note_on_c, 8, 56, 127
2, 12841, Note_off_c, 8, 56, 127
2, 12847, Note_on_c, 12, 59, 127
2, 12978, Note_off_c, 12, 59, 127
2, 12978, Note_off_c, 4, 64, 127
2, 12984, Note_on_c, 2, 62, 127
2, 13121, Note_on_c, 12, 59, 127
2, 13184, Note_off_c, 2, 62, 127
2, 13253, Note_off_c, 12, 59, 127
2, 13259, Note_on_c, 1, 61, 127
2, 13259, Note_on_c, 4, 76, 127
2, 13325, Note_off_c, 4, 76, 127
2, 13328, Note_on_c, 2, 74, 127
2, 13391, Note_off_c, 1, 61, 127
2, 13394, Note_off_c, 2, 74, 127
2, 13397, Note_on_c, 2, 62, 127
2, 13397, Note_on_c, 4, 76, 127
2, 13528, Note_off_c, 2, 62, 127
2, 13534, Note_on_c, 4, 64, 127
2, 13665, Note_off_c, 4, 64, 127
2, 13671, Note_on_c, 2, 62, 127
2, 13802, Note_off_c, 2, 62, 127
2, 13805, Note_off_c, 4, 76, 127
2, 13808, Note_on_c, 1, 61, 127
2, 13808, Note_on_c, 4, 76, 127
2, 13939, Note_off_c, 1, 61, 127
2, 13945, Note_on_c, 12, 59, 127
2, 14036, Note_off_c, 4, 76, 127
2, 14076, Note_off_c, 12, 59, 127
2, 14082, Note_on_c, 10, 57, 127
2, 14082, Note_on_c, 4, 76, 127
2, 14148, Note_off_c, 4, 76, 127
2, 14151, Note_on_c, 2, 74, 127
2, 14214, Note_off_c, 10, 57, 127
2, 14217, Note_off_c, 2, 74, 127
2, 14220, Note_on_c, 12, 59, 127
2, 14220, Note_on_c, 4, 76, 127
2, 14351, Note_off_c, 12, 59, 127
2, 14357, Note_on_c, 1, 61, 127
2, 14488, Note_off_c, 1, 61, 127
2, 14494, Note_on_c, 12, 59, 127
2, 14625, Note_off_c, 12, 59, 127
2, 14628, Note_off_c, 4, 76, 127
2, 14631, Note_on_c, 10, 57, 127
2, 14631, Note_on_c, 4, 76, 127
2, 14762, Note_off_c, 10, 57, 127
2, 14768, Note_on_c, 8, 56, 127
2, 14899, Note_off_c, 8, 56, 127
2, 14905, Note_on_c, 6, 54, 127
2, 15039, Note_off_c, 4, 76, 127
2, 15042, Note_on_c, 10, 81, 127
2, 15173, Note_off_c, 10, 81, 127
2, 15176, Note_off_c, 6, 54, 127
2, 15179, Note_on_c, 6, 66, 127
2, 15179, Note_on_c, 4, 76, 127
2, 15310, Note_off_c, 4, 76, 127
2, 15316, Note_on_c, 1, 73, 127
2, 15447, Note_off_c, 1, 73, 127
2, 15450, Note_off_c, 6, 66, 127
2, 15453, Note_on_c, 1, 61, 127
2, 15453, Note_on_c, 10, 69, 127
2, 15584, Note_off_c, 10, 69, 127
2, 15590, Note_on_c, 1, 73, 127
2, 15721, Note_off_c, 1, 73, 127
2, 15724, Note_off_c, 1, 61, 127
2, 15727, Note_on_c, 10, 57, 127
2, 15727, Note_on_c, 4, 76, 127
2, 15858, Note_off_c, 4, 76, 127
2, 15864, Note_on_c, 10, 81, 127
2, 15995, Note_off_c, 10, 81, 127
2, 15998, Note_off_c, 10, 57, 127
2, 16001, Note_on_c, 6, 54, 127
2, 16001, Note_on_c, 4, 76, 127
2, 16132, Note_off_c, 4, 76, 127
2, 16138, Note_on_c, 1, 73, 127
2, 16269, Note_off_c, 1, 73, 127
2, 16272, Note_off_c, 6, 54, 127
2, 16275, Note_on_c, 10, 57, 127
2, 16275, Note_on_c, 10, 69, 127
2, 16406, Note_off_c, 10, 69, 127
2, 16412, Note_on_c, 1, 73, 127
2, 16543, Note_off_c, 1, 73, 127
2, 16546, Note_off_c, 10, 57, 127
2, 16549, Note_on_c, 12, 59, 127
2, 16549, Note_on_c, 2, 74, 127
2, 16615, Note_off_c, 2, 74, 127
2, 16618, Note_on_c, 1, 73, 127
2, 16681, Note_off_c, 12, 59, 127
2, 16684, Note_off_c, 1, 73, 127
2, 16687, Note_on_c, 1, 61, 127
2, 16687, Note_on_c, 2, 74, 127
2, 16818, Note_off_c, 1, 61, 127
2, 16824, Note_on_c, 2, 62, 127
2, 16955, Note_off_c, 2, 62, 127
2, 16961, Note_on_c, 1, 61, 127
2, 17092, Note_off_c, 1, 61, 127
2, 17095, Note_off_c, 2, 74, 127
2, 17098, Note_on_c, 12, 59, 127
2, 17098, Note_on_c, 2, 74, 127
2, 17229, Note_off_c, 12, 59, 127
2, 17235, Note_on_c, 10, 57, 127
2, 17326, Note_off_c, 2, 74, 127
2, 17366, Note_off_c, 10, 57, 127
2, 17372, Note_on_c, 8, 56, 127
2, 17372, Note_on_c, 2, 74, 127
2, 17438, Note_off_c, 2, 74, 127
2, 17441, Note_on_c, 1, 73, 127
2, 17504, Note_off_c, 8, 56, 127
2, 17507, Note_off_c, 1, 73, 127
2, 17510, Note_on_c, 10, 57, 127
2, 17510, Note_on_c, 2, 74, 127
2, 17641, Note_off_c, 10, 57, 127
2, 17647, Note_on_c, 12, 59, 127
2, 17778, Note_off_c, 12, 59, 127
2, 17784, Note_on_c, 10, 57, 127
2, 17915, Note_off_c, 10, 57, 127
2, 17918, Note_off_c, 2, 74, 127
2, 17921, Note_on_c, 8, 56, 127
2, 17921, Note_on_c, 2, 74, 127
2, 18052, Note_off_c, 8, 56, 127
2, 18058, Note_on_c, 6, 54, 127
2, 18189, Note_off_c, 6, 54, 127
2, 18195, Note_on_c, 4, 52, 127
2, 18329, Note_off_c, 2, 74, 127
2, 18332, Note_on_c, 12, 83, 127
2, 18463, Note_off_c, 12, 83, 127
2, 18466, Note_off_c, 4, 52, 127
2, 18469, Note_on_c, 12, 47, 127
2, 18469, Note_on_c, 8, 80, 127
2, 18600, Note_off_c, 8, 80, 127
2, 18606, Note_on_c, 2, 74, 127
2, 18737, Note_off_c, 2, 74, 127
2, 18740, Note_off_c, 12, 47, 127
2, 18743, Note_on_c, 8, 44, 127
2, 18743, Note_on_c, 12, 71, 127
2, 18874, Note_off_c, 12, 71, 127
2, 18880, Note_on_c, 2, 74, 127
2, 19011, Note_off_c, 2, 74, 127
2, 19014, Note_off_c, 8, 44, 127
2, 19017, Note_on_c, 4, 40, 127
2, 19017, Note_on_c, 8, 80, 127
2, 19148, Note_off_c, 8, 80, 127
2, 19154, Note_on_c, 12, 83, 127
2, 19285, Note_off_c, 12, 83, 127
2, 19291, Note_on_c, 8, 80, 127
2, 19422, Note_off_c, 8, 80, 127
2, 19428, Note_on_c, 2, 74, 127
2, 19559, Note_off_c, 2, 74, 127
2, 19565, Note_on_c, 12, 71, 127
2, 19696, Note_off_c, 12, 71, 127
2, 19702, Note_off_c, 4, 40, 127
2, 19702, Note_on_c, 2, 74, 127
2, 19833, Note_off_c, 2, 74, 127
2, 19839, Note_on_c, 1, 73, 127
2, 19905, Note_off_c, 1, 73, 127
2, 19908, Note_on_c, 12, 71, 127
2, 19974, Note_off_c, 12, 71, 127
2, 19977, Note_on_c, 10, 57, 127
2, 19977, Note_on_c, 1, 73, 127
2, 20108, Note_off_c, 10, 57, 127
2, 20114, Note_on_c, 1, 61, 127
2, 20245, Note_off_c, 1, 61, 127
2, 20251, Note_on_c, 4, 64, 127
2, 20382, Note_off_c, 4, 64, 127
2, 20388, Note_on_c, 10, 69, 127
2, 20519, Note_off_c, 10, 69, 127
2, 20525, Note_on_c, 8, 68, 127
2, 20656, Note_off_c, 8, 68, 127
2, 20662, Note_on_c, 6, 66, 127
2, 20796, Note_off_c, 1, 73, 127
2, 20799, Note_on_c, 2, 62, 127
2, 20930, Note_off_c, 2, 62, 127
2, 20933, Note_off_c, 6, 66, 127
2, 20936, Note_on_c, 6, 66, 127
2, 21067, Note_off_c, 6, 66, 127
2, 21073, Note_on_c, 10, 69, 127
2, 21204, Note_off_c, 10, 69, 127
2, 21210, Note_on_c, 2, 74, 127
2, 21341, Note_off_c, 2, 74, 127
2, 21347, Note_on_c, 1, 73, 127
2, 21478, Note_off_c, 1, 73, 127
2, 21484, Note_on_c, 12, 71, 127
2, 21550, Note_off_c, 12, 71, 127
2, 21553, Note_on_c, 10, 69, 127
2, 21619, Note_off_c, 10, 69, 127
2, 21622, Note_on_c, 8, 56, 127
2, 21622, Note_on_c, 12, 71, 127
2, 21753, Note_off_c, 8, 56, 127
2, 21759, Note_on_c, 12, 59, 127
2, 21890, Note_off_c, 12, 59, 127
2, 21896, Note_on_c, 3, 63, 127
2, 22027, Note_off_c, 3, 63, 127
2, 22033, Note_on_c, 8, 68, 127
2, 22164, Note_off_c, 8, 68, 127
2, 22170, Note_on_c, 6, 66, 127
2, 22301, Note_off_c, 6, 66, 127
2, 22307, Note_on_c, 5, 65, 127
2, 22441, Note_off_c, 12, 71, 127
2, 22444, Note_on_c, 1, 61, 127
2, 22575, Note_off_c, 1, 61, 127
2, 22578, Note_off_c, 5, 65, 127
2, 22581, Note_on_c, 5, 65, 127
2, 22712, Note_off_c, 5, 65, 127
2, 22718, Note_on_c, 8, 68, 127
2, 22849, Note_off_c, 8, 68, 127
2, 22855, Note_on_c, 1, 73, 127
2, 22986, Note_off_c, 1, 73, 127
2, 22992, Note_on_c, 12, 71, 127
2, 23123, Note_off_c, 12, 71, 127
2, 23129, Note_on_c, 10, 69, 127
2, 23195, Note_off_c, 10, 69, 127
2, 23198, Note_on_c, 8, 68, 127
2, 23264, Note_off_c, 8, 68, 127
2, 23267, Note_on_c, 6, 54, 127
2, 23267, Note_on_c, 10, 69, 127
2, 23398, Note_off_c, 6, 54, 127
2, 23404, Note_on_c, 10, 57, 127
2, 23535, Note_off_c, 10, 57, 127
2, 23541, Note_on_c, 1, 61, 127
2, 23672, Note_off_c, 1, 61, 127
2, 23678, Note_on_c, 6, 66, 127
2, 23809, Note_off_c, 6, 66, 127
2, 23815, Note_on_c, 4, 64, 127
2, 23946, Note_off_c, 4, 64, 127
2, 23952, Note_on_c, 2, 62, 127
2, 24086, Note_off_c, 10, 69, 127
2, 24089, Note_on_c, 12, 59, 127
2, 24220, Note_off_c, 12, 59, 127
2, 24223, Note_off_c, 2, 62, 127
2, 24226, Note_on_c, 2, 62, 127
2, 24357, Note_off_c, 2, 62, 127
2, 24363, Note_on_c, 6, 66, 127
2, 24494, Note_off_c, 6, 66, 127
2, 24500, Note_on_c, 12, 71, 127
2, 24631, Note_off_c, 12, 71, 127
2, 24637, Note_on_c, 10, 69, 127
2, 24768, Note_off_c, 10, 69, 127
2, 24774, Note_on_c, 8, 68, 127
2, 24905, Note_off_c, 8, 68, 127
2, 24911, Note_on_c, 12, 47, 127
2, 24911, Note_on_c, 6, 66, 127
2, 25042, Note_off_c, 6, 66, 127
2, 25042, Note_off_c, 12, 47, 127
2, 25048, Note_on_c, 2, 50, 127
2, 25048, Note_on_c, 12, 71, 127
2, 25179, Note_off_c, 12, 71, 127
2, 25179, Note_off_c, 2, 50, 127
2, 25185, Note_on_c, 6, 54, 127
2, 25185, Note_on_c, 10, 69, 127
2, 25316, Note_off_c, 10, 69, 127
2, 25316, Note_off_c, 6, 54, 127
2, 25322, Note_on_c, 12, 59, 127
2, 25322, Note_on_c, 8, 68, 127
2, 25453, Note_off_c, 8, 68, 127
2, 25453, Note_off_c, 12, 59, 127
2, 25459, Note_on_c, 10, 57, 127
2, 25459, Note_on_c, 6, 66, 127
2, 25590, Note_off_c, 6, 66, 127
2, 25590, Note_off_c, 10, 57, 127
2, 25596, Note_on_c, 8, 56, 127
2, 25596, Note_on_c, 5, 65, 127
2, 25727, Note_off_c, 5, 65, 127
2, 25727, Note_off_c, 8, 56, 127
2, 25733, Note_on_c, 1, 49, 127
2, 25733, Note_on_c, 8, 68, 127
2, 25864, Note_off_c, 8, 68, 127
2, 25864, Note_off_c, 1, 49, 127
2, 25870, Note_on_c, 5, 53, 127
2, 25870, Note_on_c, 1, 73, 127
2, 26001, Note_off_c, 1, 73, 127
2, 26001, Note_off_c, 5, 53, 127
2, 26007, Note_on_c, 8, 56, 127
2, 26007, Note_on_c, 12, 71, 127
2, 26138, Note_off_c, 12, 71, 127
2, 26138, Note_off_c, 8, 56, 127
2, 26144, Note_on_c, 1, 61, 127
2, 26144, Note_on_c, 10, 69, 127
2, 26275, Note_off_c, 10, 69, 127
2, 26275, Note_off_c, 1, 61, 127
2, 26281, Note_on_c, 12, 59, 127
2, 26281, Note_on_c, 8, 68, 127
2, 26412, Note_off_c, 8, 68, 127
2, 26412, Note_off_c, 12, 59, 127
2, 26418, Note_on_c, 10, 57, 127
2, 26418, Note_on_c, 6, 66, 127
2, 26549, Note_off_c, 10, 57, 127
2, 26555, Note_on_c, 12, 59, 127
2, 26686, Note_off_c, 12, 59, 127
2, 26692, Note_on_c, 10, 57, 127
2, 26692, Note_on_c, 6, 78, 127
2, 26761, Note_off_c, 6, 66, 127
2, 26824, Note_off_c, 10, 57, 127
2, 26830, Note_on_c, 8, 56, 127
2, 26961, Note_off_c, 8, 56, 127
2, 26967, Note_on_c, 6, 54, 127
2, 26967, Note_on_c, 6, 66, 127
2, 27098, Note_off_c, 6, 54, 127
2, 27104, Note_on_c, 4, 52, 127
2, 27235, Note_off_c, 4, 52, 127
2, 27235, Note_off_c, 6, 78, 127
2, 27238, Note_off_c, 6, 66, 127
2, 27241, Note_on_c, 2, 50, 127
2, 27241, Note_on_c, 6, 66, 127
2, 27372, Note_off_c, 2, 50, 127
2, 27378, Note_on_c, 4, 52, 127
2, 27509, Note_off_c, 4, 52, 127
2, 27515, Note_on_c, 6, 54, 127
2, 27515, Note_on_c, 1, 61, 127
2, 27646, Note_off_c, 6, 54, 127
2, 27652, Note_on_c, 4, 52, 127
2, 27783, Note_off_c, 4, 52, 127
2, 27783, Note_off_c, 6, 66, 127
2, 27786, Note_off_c, 1, 61, 127
2, 27789, Note_on_c, 2, 50, 127
2, 27789, Note_on_c, 6, 66, 127
2, 27920, Note_off_c, 2, 50, 127
2, 27926, Note_on_c, 1, 49, 127
2, 28057, Note_off_c, 1, 49, 127
2, 28060, Note_off_c, 6, 66, 127
2, 28063, Note_on_c, 12, 47, 127
2, 28063, Note_on_c, 6, 66, 127
2, 28119, Note_off_c, 6, 66, 127
2, 28119, Note_on_c, 8, 68, 127
2, 28175, Note_off_c, 8, 68, 127
2, 28175, Note_on_c, 10, 69, 127
2, 28195, Note_off_c, 12, 47, 127
2, 28201, Note_on_c, 2, 50, 127
2, 28232, Note_off_c, 10, 69, 127
2, 28232, Note_on_c, 8, 68, 127
2, 28288, Note_off_c, 8, 68, 127
2, 28288, Note_on_c, 10, 69, 127
2, 28332, Note_off_c, 2, 50, 127
2, 28338, Note_on_c, 6, 54, 127
2, 28344, Note_off_c, 10, 69, 127
2, 28344, Note_on_c, 8, 68, 127
2, 28401, Note_off_c, 8, 68, 127
2, 28401, Note_on_c, 10, 69, 127
2, 28457, Note_off_c, 10, 69, 127
2, 28457, Note_on_c, 8, 68, 127
2, 28470, Note_off_c, 6, 54, 127
2, 28476, Note_on_c, 2, 50, 127
2, 28513, Note_off_c, 8, 68, 127
2, 28513, Note_on_c, 10, 69, 127
2, 28570, Note_off_c, 10, 69, 127
2, 28570, Note_on_c, 8, 68, 127
2, 28607, Note_off_c, 2, 50, 127
2, 28613, Note_on_c, 12, 47, 127
2, 28626, Note_off_c, 8, 68, 127
2, 28626, Note_on_c, 10, 69, 127
2, 28682, Note_off_c, 10, 69, 127
2, 28682, Note_on_c, 8, 68, 127
2, 28739, Note_off_c, 8, 68, 127
2, 28739, Note_on_c, 10, 69, 127
2, 28745, Note_off_c, 12, 47, 127
2, 28751, Note_on_c, 2, 50, 127
2, 28795, Note_off_c, 10, 69, 127
2, 28795, Note_on_c, 8, 68, 127
2, 28851, Note_off_c, 8, 68, 127
2, 28851, Note_on_c, 10, 69, 127
2, 28882, Note_off_c, 2, 50, 127
2, 28888, Note_on_c, 8, 44, 127
2, 28908, Note_off_c, 10, 69, 127
2, 28908, Note_on_c, 8, 68, 127
2, 28964, Note_off_c, 8, 68, 127
2, 28964, Note_on_c, 10, 69, 127
2, 29020, Note_off_c, 10, 69, 127
2, 29020, Note_off_c, 8, 44, 127
2, 29020, Note_on_c, 8, 68, 127
2, 29026, Note_on_c, 12, 47, 127
2, 29077, Note_off_c, 8, 68, 127
2, 29077, Note_on_c, 10, 69, 127
2, 29133, Note_off_c, 10, 69, 127
2, 29133, Note_on_c, 8, 68, 127
2, 29157, Note_off_c, 12, 47, 127
2, 29163, Note_on_c, 2, 50, 127
2, 29189, Note_off_c, 8, 68, 127
2, 29189, Note_on_c, 10, 69, 127
2, 29246, Note_off_c, 10, 69, 127
2, 29246, Note_on_c, 8, 68, 127
2, 29295, Note_off_c, 2, 50, 127
2, 29301, Note_on_c, 12, 47, 127
2, 29302, Note_off_c, 8, 68, 127
2, 29302, Note_on_c, 10, 69, 127
2, 29358, Note_off_c, 10, 69, 127
2, 29358, Note_on_c, 8, 68, 127
2, 29414, Note_off_c, 8, 68, 127
2, 29415, Note_on_c, 10, 69, 127
2, 29432, Note_off_c, 12, 47, 127
2, 29438, Note_on_c, 8, 44, 127
2, 29471, Note_off_c, 10, 69, 127
2, 29471, Note_on_c, 8, 68, 127
2, 29528, Note_off_c, 8, 68, 127
2, 29528, Note_on_c, 10, 69, 127
2, 29569, Note_off_c, 8, 44, 127
2, 29575, Note_on_c, 12, 47, 127
2, 29584, Note_off_c, 10, 69, 127
2, 29584, Note_on_c, 8, 68, 127
2, 29640, Note_off_c, 8, 68, 127
2, 29640, Note_on_c, 10, 69, 127
2, 29697, Note_off_c, 10, 69, 127
2, 29697, Note_on_c, 8, 68, 127
2, 29707, Note_off_c, 12, 47, 127
2, 29713, Note_on_c, 5, 41, 127
2, 29829, Note_off_c, 8, 68, 127
2, 29850, Note_on_c, 6, 66, 127
2, 29981, Note_off_c, 6, 66, 127
2, 29984, Note_off_c, 5, 41, 127
2, 29987, Note_on_c, 8, 44, 127
2, 29987, Note_on_c, 5, 65, 127
2, 30118, Note_off_c, 5, 65, 127
2, 30124, Note_on_c, 6, 66, 127
2, 30255, Note_off_c, 6, 66, 127
2, 30258, Note_off_c, 8, 44, 127
2, 30261, Note_on_c, 5, 41, 127
2, 30261, Note_on_c, 8, 68, 127
2, 30392, Note_off_c, 8, 68, 127
2, 30398, Note_on_c, 10, 69, 127
2, 30529, Note_off_c, 10, 69, 127
2, 30532, Note_off_c, 5, 41, 127
2, 30535, Note_on_c, 1, 37, 127
2, 30535, Note_on_c, 12, 71, 127
2, 30666, Note_off_c, 12, 71, 127
2, 30672, Note_on_c, 10, 69, 127
2, 30803, Note_off_c, 10, 69, 127
2, 30806, Note_off_c, 1, 37, 127
2, 30809, Note_on_c, 3, 39, 127
2, 30809, Note_on_c, 12, 71, 127
2, 30940, Note_off_c, 12, 71, 127
2, 30946, Note_on_c, 2, 74, 127
2, 31077, Note_off_c, 2, 74, 127
2, 31080, Note_off_c, 3, 39, 127
2, 31083, Note_on_c, 5, 41, 127
2, 31083, Note_on_c, 1, 73, 127
2, 31214, Note_off_c, 1, 73, 127
2, 31220, Note_on_c, 12, 71, 127
2, 31351, Note_off_c, 12, 71, 127
2, 31354, Note_off_c, 5, 41, 127
2, 31357, Note_on_c, 6, 42, 127
2, 31357, Note_on_c, 10, 69, 127
2, 31488, Note_off_c, 10, 69, 127
2, 31494, Note_on_c, 6, 66, 127
2, 31625, Note_off_c, 6, 66, 127
2, 31628, Note_off_c, 6, 42, 127
2, 31631, Note_on_c, 6, 54, 127
2, 31631, Note_on_c, 10, 69, 127
2, 31762, Note_off_c, 10, 69, 127
2, 31768, Note_on_c, 1, 73, 127
2, 31899, Note_off_c, 1, 73, 127
2, 31902, Note_off_c, 6, 54, 127
2, 31905, Note_on_c, 3, 51, 127
2, 31905, Note_on_c, 6, 78, 127
2, 32036, Note_off_c, 6, 78, 127
2, 32042, Note_on_c, 3, 75, 127
2, 32173, Note_off_c, 3, 75, 127
2, 32176, Note_off_c, 3, 51, 127
2, 32179, Note_on_c, 8, 56, 127
2, 32179, Note_on_c, 0, 72, 127
2, 32310, Note_off_c, 0, 72, 127
2, 32316, Note_on_c, 8, 68, 127
2, 32447, Note_off_c, 8, 68, 127
2, 32450, Note_off_c, 8, 56, 127
2, 32453, Note_on_c, 6, 54, 127
2, 32453, Note_on_c, 0, 72, 127
2, 32584, Note_off_c, 0, 72, 127
2, 32590, Note_on_c, 3, 75, 127
2, 32721, Note_off_c, 3, 75, 127
2, 32724, Note_off_c, 6, 54, 127
2, 32727, Note_on_c, 8, 56, 127
2, 32727, Note_on_c, 6, 78, 127
2, 32858, Note_off_c, 6, 78, 127
2, 32864, Note_on_c, 3, 75, 127
2, 32995, Note_off_c, 3, 75, 127
2, 32998, Note_off_c, 8, 56, 127
2, 33001, Note_on_c, 1, 49, 127
2, 33001, Note_on_c, 4, 76, 127
2, 33067, Note_off_c, 1, 49, 127
2, 33070, Note_on_c, 0, 48, 127
2, 33133, Note_off_c, 4, 76, 127
2, 33136, Note_off_c, 0, 48, 127
2, 33139, Note_on_c, 1, 49, 127
2, 33139, Note_on_c, 6, 78, 127
2, 33270, Note_off_c, 6, 78, 127
2, 33276, Note_on_c, 4, 76, 127
2, 33407, Note_off_c, 4, 76, 127
2, 33413, Note_on_c, 3, 75, 127
2, 33544, Note_off_c, 3, 75, 127
2, 33547, Note_off_c, 1, 49, 127
2, 33550, Note_on_c, 1, 49, 127
2, 33550, Note_on_c, 1, 73, 127
2, 33681, Note_off_c, 1, 73, 127
2, 33687, Note_on_c, 12, 71, 127
2, 33818, Note_off_c, 12, 71, 127
2, 33821, Note_off_c, 1, 49, 127
2, 33824, Note_on_c, 1, 49, 127
2, 33824, Note_on_c, 10, 69, 127
2, 33890, Note_off_c, 1, 49, 127
2, 33893, Note_on_c, 0, 48, 127
2, 33956, Note_off_c, 10, 69, 127
2, 33959, Note_off_c, 0, 48, 127
2, 33962, Note_on_c, 1, 49, 127
2, 33962, Note_on_c, 12, 71, 127
2, 34093, Note_off_c, 12, 71, 127
2, 34099, Note_on_c, 1, 73, 127
2, 34230, Note_off_c, 1, 73, 127
2, 34236, Note_on_c, 12, 71, 127
2, 34367, Note_off_c, 12, 71, 127
2, 34370, Note_off_c, 1, 49, 127
2, 34373, Note_on_c, 1, 49, 127
2, 34373, Note_on_c, 10, 69, 127
2, 34504, Note_off_c, 10, 69, 127
2, 34510, Note_on_c, 8, 68, 127
2, 34641, Note_off_c, 8, 68, 127
2, 34644, Note_off_c, 1, 49, 127
2, 34647, Note_on_c, 1, 49, 127
2, 34647, Note_on_c, 6, 66, 127
2, 34704, Note_off_c, 1, 49, 127
2, 34704, Note_on_c, 3, 51, 127
2, 34763, Note_off_c, 3, 51, 127
2, 34763, Note_on_c, 4, 52, 127
2, 34779, Note_off_c, 6, 66, 127
2, 34785, Note_on_c, 10, 69, 127
2, 34822, Note_off_c, 4, 52, 127
2, 34822, Note_on_c, 3, 51, 127
2, 34879, Note_off_c, 3, 51, 127
2, 34879, Note_on_c, 4, 52, 127
2, 34916, Note_off_c, 10, 69, 127
2, 34922, Note_on_c, 1, 73, 127
2, 34938, Note_off_c, 4, 52, 127
2, 34938, Note_on_c, 3, 51, 127
2, 34997, Note_off_c, 3, 51, 127
2, 34997, Note_on_c, 4, 52, 127
2, 35054, Note_off_c, 4, 52, 127
2, 35054, Note_off_c, 1, 73, 127
2, 35054, Note_on_c, 3, 51, 127
2, 35060, Note_on_c, 10, 69, 127
2, 35113, Note_off_c, 3, 51, 127
2, 35113, Note_on_c, 4, 52, 127
2, 35172, Note_off_c, 4, 52, 127
2, 35172, Note_on_c, 3, 51, 127
2, 35192, Note_off_c, 10, 69, 127
2, 35198, Note_on_c, 6, 66, 127
2, 35229, Note_off_c, 3, 51, 127
2, 35229, Note_on_c, 4, 52, 127
2, 35288, Note_off_c, 4, 52, 127
2, 35288, Note_on_c, 3, 51, 127
2, 35329, Note_off_c, 6, 66, 127
2, 35335, Note_on_c, 10, 69, 127
2, 35346, Note_off_c, 3, 51, 127
2, 35346, Note_on_c, 4, 52, 127
2, 35403, Note_off_c, 4, 52, 127
2, 35403, Note_on_c, 3, 51, 127
2, 35462, Note_off_c, 3, 51, 127
2, 35462, Note_on_c, 4, 52, 127
2, 35466, Note_off_c, 10, 69, 127
2, 35472, Note_on_c, 3, 63, 127
2, 35521, Note_off_c, 4, 52, 127
2, 35521, Note_on_c, 3, 51, 127
2, 35578, Note_off_c, 3, 51, 127
2, 35578, Note_on_c, 4, 52, 127
2, 35604, Note_off_c, 3, 63, 127
2, 35610, Note_on_c, 6, 66, 127
2, 35637, Note_off_c, 4, 52, 127
2, 35637, Note_on_c, 3, 51, 127
2, 35696, Note_off_c, 3, 51, 127
2, 35696, Note_on_c, 4, 52, 127
2, 35742, Note_off_c, 6, 66, 127
2, 35748, Note_on_c, 10, 69, 127
2, 35754, Note_off_c, 4, 52, 127
2, 35754, Note_on_c, 3, 51, 127
2, 35813, Note_off_c, 3, 51, 127
2, 35813, Note_on_c, 4, 52, 127
2, 35872, Note_off_c, 4, 52, 127
2, 35872, Note_on_c, 3, 51, 127
2, 35881, Note_off_c, 10, 69, 127
2, 35887, Note_on_c, 6, 66, 127
2, 35930, Note_off_c, 3, 51, 127
2, 35930, Note_on_c, 4, 52, 127
2, 35989, Note_off_c, 4, 52, 127
2, 35989, Note_on_c, 3, 51, 127
2, 36019, Note_off_c, 6, 66, 127
2, 36025, Note_on_c, 3, 63, 127
2, 36048, Note_off_c, 3, 51, 127
2, 36051, Note_on_c, 4, 52, 127
2, 36110, Note_off_c, 4, 52, 127
2, 36110, Note_on_c, 3, 51, 127
2, 36157, Note_off_c, 3, 63, 127
2, 36163, Note_on_c, 6, 66, 127
2, 36169, Note_off_c, 3, 51, 127
2, 36169, Note_on_c, 4, 52, 127
2, 36226, Note_off_c, 4, 52, 127
2, 36226, Note_on_c, 3, 51, 127
2, 36295, Note_off_c, 6, 66, 127
2, 36301, Note_on_c, 0, 60, 127
2, 36404, Note_off_c, 3, 51, 127
2, 36438, Note_on_c, 1, 49, 127
2, 36569, Note_off_c, 1, 49, 127
2, 36572, Note_off_c, 0, 60, 127
2, 36575, Note_on_c, 0, 48, 127
2, 36575, Note_on_c, 3, 63, 127
2, 36706, Note_off_c, 0, 48, 127
2, 36712, Note_on_c, 1, 49, 127
2, 36843, Note_off_c, 1, 49, 127
2, 36846, Note_off_c, 3, 63, 127
2, 36849, Note_on_c, 3, 51, 127
2, 36849, Note_on_c, 6, 66, 127
2, 36980, Note_off_c, 3, 51, 127
2, 36986, Note_on_c, 4, 52, 127
2, 37117, Note_off_c, 4, 52, 127
2, 37120, Note_off_c, 6, 66, 127
2, 37123, Note_on_c, 6, 54, 127
2, 37123, Note_on_c, 10, 69, 127
2, 37254, Note_off_c, 6, 54, 127
2, 37260, Note_on_c, 4, 52, 127
2, 37391, Note_off_c, 4, 52, 127
2, 37394, Note_off_c, 10, 69, 127
2, 37397, Note_on_c, 6, 54, 127
2, 37397, Note_on_c, 8, 68, 127
2, 37528, Note_off_c, 6, 54, 127
2, 37534, Note_on_c, 10, 57, 127
2, 37665, Note_off_c, 10, 57, 127
2, 37668, Note_off_c, 8, 68, 127
2, 37671, Note_on_c, 8, 56, 127
2, 37671, Note_on_c, 0, 72, 127
2, 37802, Note_off_c, 8, 56, 127
2, 37808, Note_on_c, 6, 54, 127
2, 37939, Note_off_c, 6, 54, 127
2, 37942, Note_off_c, 0, 72, 127
2, 37945, Note_on_c, 4, 52, 127
2, 37945, Note_on_c, 1, 73, 127
2, 38076, Note_off_c, 4, 52, 127
2, 38082, Note_on_c, 1, 49, 127
2, 38082, Note_on_c, 4, 76, 127
2, 38213, Note_off_c, 4, 76, 127
2, 38213, Note_off_c, 1, 49, 127
2, 38219, Note_on_c, 4, 52, 127
2, 38219, Note_on_c, 8, 80, 127
2, 38350, Note_off_c, 8, 80, 127
2, 38350, Note_off_c, 4, 52, 127
2, 38356, Note_on_c, 8, 56, 127
2, 38356, Note_on_c, 4, 76, 127
2, 38487, Note_off_c, 4, 76, 127
2, 38487, Note_off_c, 8, 56, 127
2, 38487, Note_off_c, 1, 73, 127
2, 38493, Note_on_c, 1, 61, 127
2, 38493, Note_on_c, 1, 73, 127
2, 38624, Note_off_c, 1, 61, 127
2, 38630, Note_on_c, 8, 56, 127
2, 38630, Note_on_c, 4, 76, 127
2, 38761, Note_off_c, 4, 76, 127
2, 38761, Note_off_c, 8, 56, 127
2, 38767, Note_on_c, 4, 52, 127
2, 38767, Note_on_c, 8, 80, 127
2, 38898, Note_off_c, 8, 80, 127
2, 38898, Note_off_c, 4, 52, 127
2, 38904, Note_on_c, 1, 49, 127
2, 38904, Note_on_c, 4, 76, 127
2, 39035, Note_off_c, 4, 76, 127
2, 39035, Note_off_c, 1, 49, 127
2, 39035, Note_off_c, 1, 73, 127
2, 39041, Note_on_c, 4, 52, 127
2, 39041, Note_on_c, 1, 73, 127
2, 39172, Note_off_c, 1, 73, 127
2, 39172, Note_off_c, 4, 52, 127
2, 39178, Note_on_c, 8, 56, 127
2, 39178, Note_on_c, 4, 76, 127
2, 39309, Note_off_c, 4, 76, 127
2, 39309, Note_off_c, 8, 56, 127
2, 39315, Note_on_c, 1, 61, 127
2, 39315, Note_on_c, 8, 80, 127
2, 39446, Note_off_c, 8, 80, 127
2, 39446, Note_off_c, 1, 61, 127
2, 39452, Note_on_c, 12, 59, 127
2, 39452, Note_on_c, 4, 76, 127
2, 39583, Note_off_c, 4, 76, 127
2, 39583, Note_off_c, 12, 59, 127
2, 39589, Note_on_c, 11, 58, 127
2, 39589, Note_on_c, 1, 73, 127
2, 39720, Note_off_c, 11, 58, 127
2, 39726, Note_on_c, 6, 54, 127
2, 39726, Note_on_c, 4, 76, 127
2, 39857, Note_off_c, 4, 76, 127
2, 39857, Note_off_c, 6, 54, 127
2, 39863, Note_on_c, 11, 58, 127
2, 39863, Note_on_c, 6, 78, 127
2, 39994, Note_off_c, 6, 78, 127
2, 39994, Note_off_c, 11, 58, 127
2, 40000, Note_on_c, 1, 61, 127
2, 40000, Note_on_c, 4, 76, 127
2, 40131, Note_off_c, 4, 76, 127
2, 40131, Note_off_c, 1, 61, 127
2, 40131, Note_off_c, 1, 73, 127
2, 40137, Note_on_c, 6, 66, 127
2, 40137, Note_on_c, 1, 73, 127
2, 40268, Note_off_c, 6, 66, 127
2, 40274, Note_on_c, 1, 61, 127
2, 40274, Note_on_c, 4, 76, 127
2, 40405, Note_off_c, 4, 76, 127
2, 40405, Note_off_c, 1, 61, 127
2, 40411, Note_on_c, 11, 58, 127
2, 40411, Note_on_c, 6, 78, 127
2, 40542, Note_off_c, 6, 78, 127
2, 40542, Note_off_c, 11, 58, 127
2, 40548, Note_on_c, 6, 54, 127
2, 40548, Note_on_c, 4, 76, 127
2, 40679, Note_off_c, 4, 76, 127
2, 40679, Note_off_c, 6, 54, 127
2, 40679, Note_off_c, 1, 73, 127
2, 40685, Note_on_c, 11, 58, 127
2, 40685, Note_on_c, 1, 73, 127
2, 40816, Note_off_c, 1, 73, 127
2, 40816, Note_off_c, 11, 58, 127
2, 40822, Note_on_c, 1, 61, 127
2, 40822, Note_on_c, 4, 76, 127
2, 40953, Note_off_c, 4, 76, 127
2, 40953, Note_off_c, 1, 61, 127
2, 40959, Note_on_c, 6, 66, 127
2, 40959, Note_on_c, 6, 78, 127
2, 41090, Note_off_c, 6, 78, 127
2, 41090, Note_off_c, 6, 66, 127
2, 41096, Note_on_c, 4, 64, 127
2, 41096, Note_on_c, 11, 70, 127
2, 41227, Note_off_c, 11, 70, 127
2, 41227, Note_off_c, 4, 64, 127
2, 41233, Note_on_c, 2, 62, 127
2, 41233, Note_on_c, 12, 71, 127
2, 41364, Note_off_c, 2, 62, 127
2, 41370, Note_on_c, 12, 47, 127
2, 41370, Note_on_c, 2, 74, 127
2, 41501, Note_off_c, 2, 74, 127
2, 41501, Note_off_c, 12, 47, 127
2, 41507, Note_on_c, 2, 50, 127
2, 41507, Note_on_c, 6, 78, 127
2, 41633, Note_off_c, 12, 71, 127
2, 41639, Note_off_c, 6, 78, 127
2, 41639, Note_off_c, 2, 50, 127
2, 41645, Note_on_c, 6, 54, 127
2, 41645, Note_on_c, 2, 74, 127
2, 41776, Note_off_c, 2, 74, 127
2, 41776, Note_off_c, 6, 54, 127
2, 41782, Note_on_c, 12, 59, 127
2, 41782, Note_on_c, 12, 71, 127
2, 41913, Note_off_c, 12, 59, 127
2, 41919, Note_on_c, 6, 54, 127
2, 41919, Note_on_c, 2, 74, 127
2, 42050, Note_off_c, 2, 74, 127
2, 42050, Note_off_c, 6, 54, 127
2, 42056, Note_on_c, 2, 50, 127
2, 42056, Note_on_c, 6, 78, 127
2, 42182, Note_off_c, 12, 71, 127
2, 42188, Note_off_c, 6, 78, 127
2, 42188, Note_off_c, 2, 50, 127
2, 42194, Note_on_c, 12, 47, 127
2, 42194, Note_on_c, 2, 74, 127
2, 42325, Note_off_c, 2, 74, 127
2, 42325, Note_off_c, 12, 47, 127
2, 42331, Note_on_c, 2, 50, 127
2, 42331, Note_on_c, 12, 71, 127
2, 42462, Note_off_c, 12, 71, 127
2, 42462, Note_off_c, 2, 50, 127
2, 42468, Note_on_c, 6, 54, 127
2, 42468, Note_on_c, 2, 74, 127
2, 42599, Note_off_c, 2, 74, 127
2, 42599, Note_off_c, 6, 54, 127
2, 42605, Note_on_c, 12, 59, 127
2, 42605, Note_on_c, 6, 78, 127
2, 42736, Note_off_c, 6, 78, 127
2, 42736, Note_off_c, 12, 59, 127
2, 42742, Note_on_c, 10, 57, 127
2, 42742, Note_on_c, 2, 74, 127
2, 42873, Note_off_c, 2, 74, 127
2, 42873, Note_off_c, 10, 57, 127
2, 42879, Note_on_c, 8, 56, 127
2, 42879, Note_on_c, 12, 71, 127
2, 43010, Note_off_c, 8, 56, 127
2, 43016, Note_on_c, 4, 52, 127
2, 43016, Note_on_c, 2, 74, 127
2, 43147, Note_off_c, 2, 74, 127
2, 43147, Note_off_c, 4, 52, 127
2, 43150, Note_off_c, 12, 71, 127
2, 43153, Note_on_c, 8, 56, 127
2, 43153, Note_on_c, 4, 76, 127
2, 43284, Note_off_c, 4, 76, 127
2, 43284, Note_off_c, 8, 56, 127
2, 43290, Note_on_c, 12, 59, 127
2, 43290, Note_on_c, 2, 74, 127
2, 43421, Note_off_c, 2, 74, 127
2, 43421, Note_off_c, 12, 59, 127
2, 43427, Note_on_c, 4, 64, 127
2, 43427, Note_on_c, 12, 71, 127
2, 43558, Note_off_c, 4, 64, 127
2, 43564, Note_on_c, 12, 59, 127
2, 43564, Note_on_c, 2, 74, 127
2, 43695, Note_off_c, 2, 74, 127
2, 43695, Note_off_c, 12, 59, 127
2, 43698, Note_off_c, 12, 71, 127
2, 43701, Note_on_c, 8, 56, 127
2, 43701, Note_on_c, 4, 76, 127
2, 43832, Note_off_c, 4, 76, 127
2, 43832, Note_off_c, 8, 56, 127
2, 43838, Note_on_c, 4, 52, 127
2, 43838, Note_on_c, 2, 74, 127
2, 43969, Note_off_c, 2, 74, 127
2, 43969, Note_off_c, 4, 52, 127
2, 43975, Note_on_c, 8, 56, 127
2, 43975, Note_on_c, 12, 71, 127
2, 44106, Note_off_c, 12, 71, 127
2, 44106, Note_off_c, 8, 56, 127
2, 44112, Note_on_c, 12, 59, 127
2, 44112, Note_on_c, 2, 74, 127
2, 44243, Note_off_c, 2, 74, 127
2, 44243, Note_off_c, 12, 59, 127
2, 44249, Note_on_c, 4, 64, 127
2, 44249, Note_on_c, 4, 76, 127
2, 44370, Note_off_c, 4, 76, 127
2, 44380, Note_off_c, 4, 64, 127
2, 44386, Note_on_c, 2, 62, 127
2, 44386, Note_on_c, 8, 68, 127
2, 44507, Note_off_c, 8, 68, 127
2, 44517, Note_off_c, 2, 62, 127
2, 44523, Note_on_c, 1, 61, 127
2, 44523, Note_on_c, 10, 69, 127
2, 44589, Note_off_c, 10, 69, 127
2, 44592, Note_on_c, 8, 68, 127
2, 44655, Note_off_c, 1, 61, 127
2, 44658, Note_off_c, 8, 68, 127
2, 44661, Note_on_c, 2, 62, 127
2, 44661, Note_on_c, 10, 69, 127
2, 44792, Note_off_c, 2, 62, 127
2, 44798, Note_on_c, 4, 64, 127
2, 44929, Note_off_c, 4, 64, 127
2, 44935, Note_on_c, 2, 62, 127
2, 45066, Note_off_c, 2, 62, 127
2, 45069, Note_off_c, 10, 69, 127
2, 45072, Note_on_c, 1, 61, 127
2, 45072, Note_on_c, 10, 69, 127
2, 45203, Note_off_c, 1, 61, 127
2, 45209, Note_on_c, 12, 59, 127
2, 45286, Note_off_c, 10, 69, 127
2, 45340, Note_off_c, 12, 59, 127
2, 45346, Note_on_c, 10, 57, 127
2, 45346, Note_on_c, 10, 69, 127
2, 45412, Note_off_c, 10, 69, 127
2, 45415, Note_on_c, 8, 68, 127
2, 45478, Note_off_c, 10, 57, 127
2, 45481, Note_off_c, 8, 68, 127
2, 45484, Note_on_c, 12, 59, 127
2, 45484, Note_on_c, 10, 69, 127
2, 45615, Note_off_c, 12, 59, 127
2, 45621, Note_on_c, 1, 61, 127
2, 45752, Note_off_c, 1, 61, 127
2, 45758, Note_on_c, 12, 59, 127
2, 45889, Note_off_c, 12, 59, 127
2, 45892, Note_off_c, 10, 69, 127
2, 45895, Note_on_c, 10, 57, 127
2, 45895, Note_on_c, 10, 69, 127
2, 46026, Note_off_c, 10, 57, 127
2, 46032, Note_on_c, 8, 56, 127
2, 46163, Note_off_c, 8, 56, 127
2, 46169, Note_on_c, 6, 54, 127
2, 46303, Note_off_c, 10, 69, 127
2, 46306, Note_on_c, 3, 75, 127
2, 46437, Note_off_c, 3, 75, 127
2, 46440, Note_off_c, 6, 54, 127
2, 46443, Note_on_c, 10, 57, 127
2, 46443, Note_on_c, 12, 71, 127
2, 46574, Note_off_c, 12, 71, 127
2, 46580, Note_on_c, 10, 69, 127
2, 46711, Note_off_c, 10, 69, 127
2, 46714, Note_off_c, 10, 57, 127
2, 46717, Note_on_c, 3, 63, 127
2, 46717, Note_on_c, 6, 66, 127
2, 46848, Note_off_c, 6, 66, 127
2, 46854, Note_on_c, 10, 69, 127
2, 46985, Note_off_c, 10, 69, 127
2, 46991, Note_on_c, 12, 71, 127
2, 47122, Note_off_c, 12, 71, 127
2, 47128, Note_on_c, 3, 75, 127
2, 47259, Note_off_c, 3, 75, 127
2, 47262, Note_off_c, 3, 63, 127
2, 47265, Note_on_c, 1, 61, 127
2, 47265, Note_on_c, 12, 71, 127
2, 47396, Note_off_c, 12, 71, 127
2, 47402, Note_on_c, 10, 69, 127
2, 47533, Note_off_c, 10, 69, 127
2, 47536, Note_off_c, 1, 61, 127
2, 47539, Note_on_c, 12, 59, 127
2, 47539, Note_on_c, 6, 66, 127
2, 47670, Note_off_c, 6, 66, 127
2, 47676, Note_on_c, 10, 69, 127
2, 47803, Note_off_c, 10, 69, 127
2, 47810, Note_off_c, 12, 59, 127
2, 47813, Note_on_c, 4, 64, 127
2, 47813, Note_on_c, 7, 67, 127
2, 47879, Note_off_c, 7, 67, 127
2, 47882, Note_on_c, 6, 66, 127
2, 47945, Note_off_c, 4, 64, 127
2, 47948, Note_off_c, 6, 66, 127
2, 47951, Note_on_c, 6, 66, 127
2, 47951, Note_on_c, 7, 67, 127
2, 48082, Note_off_c, 7, 67, 127
2, 48082, Note_off_c, 6, 66, 127
2, 48088, Note_on_c, 7, 67, 127
2, 48225, Note_on_c, 6, 66, 127
2, 48356, Note_off_c, 6, 66, 127
2, 48359, Note_off_c, 7, 67, 127
2, 48362, Note_on_c, 4, 64, 127
2, 48362, Note_on_c, 7, 67, 127
2, 48493, Note_off_c, 4, 64, 127
2, 48499, Note_on_c, 2, 62, 127
2, 48590, Note_off_c, 7, 67, 127
2, 48630, Note_off_c, 2, 62, 127
2, 48636, Note_on_c, 1, 61, 127
2, 48636, Note_on_c, 7, 67, 127
2, 48702, Note_off_c, 7, 67, 127
2, 48705, Note_on_c, 6, 66, 127
2, 48768, Note_off_c, 1, 61, 127
2, 48771, Note_off_c, 6, 66, 127
2, 48774, Note_on_c, 2, 62, 127
2, 48774, Note_on_c, 7, 67, 127
2, 48905, Note_off_c, 2, 62, 127
2, 48911, Note_on_c, 4, 64, 127
2, 49042, Note_off_c, 4, 64, 127
2, 49048, Note_on_c, 2, 62, 127
2, 49179, Note_off_c, 2, 62, 127
2, 49182, Note_off_c, 7, 67, 127
2, 49185, Note_on_c, 1, 61, 127
2, 49185, Note_on_c, 7, 67, 127
2, 49316, Note_off_c, 1, 61, 127
2, 49322, Note_on_c, 12, 59, 127
2, 49453, Note_off_c, 12, 59, 127
2, 49459, Note_on_c, 10, 57, 127
2, 49593, Note_off_c, 7, 67, 127
2, 49596, Note_on_c, 4, 76, 127
2, 49727, Note_off_c, 4, 76, 127
2, 49730, Note_off_c, 10, 57, 127
2, 49733, Note_on_c, 4, 52, 127
2, 49733, Note_on_c, 1, 73, 127
2, 49864, Note_off_c, 1, 73, 127
2, 49870, Note_on_c, 7, 67, 127
2, 50001, Note_off_c, 7, 67, 127
2, 50004, Note_off_c, 4, 52, 127
2, 50007, Note_on_c, 1, 49, 127
2, 50007, Note_on_c, 4, 64, 127
2, 50138, Note_off_c, 4, 64, 127
2, 50144, Note_on_c, 7, 67, 127
2, 50275, Note_off_c, 7, 67, 127
2, 50278, Note_off_c, 1, 49, 127
2, 50281, Note_on_c, 10, 45, 127
2, 50281, Note_on_c, 1, 73, 127
2, 50412, Note_off_c, 1, 73, 127
2, 50418, Note_on_c, 4, 76, 127
2, 50549, Note_off_c, 4, 76, 127
2, 50555, Note_on_c, 1, 73, 127
2, 50686, Note_off_c, 1, 73, 127
2, 50692, Note_on_c, 7, 67, 127
2, 50823, Note_off_c, 7, 67, 127
2, 50823, Note_off_c, 10, 45, 127
2, 50829, Note_on_c, 4, 64, 127
2, 50960, Note_off_c, 4, 64, 127
2, 50966, Note_on_c, 7, 67, 127
2, 51097, Note_off_c, 7, 67, 127
2, 51103, Note_on_c, 6, 66, 127
2, 51240, Note_on_c, 2, 50, 127
2, 51371, Note_off_c, 2, 50, 127
2, 51377, Note_on_c, 6, 54, 127
2, 51508, Note_off_c, 6, 54, 127
2, 51514, Note_on_c, 10, 57, 127
2, 51645, Note_off_c, 10, 57, 127
2, 51651, Note_on_c, 2, 62, 127
2, 51782, Note_off_c, 2, 62, 127
2, 51788, Note_on_c, 1, 61, 127
2, 51919, Note_off_c, 1, 61, 127
2, 51925, Note_on_c, 12, 59, 127
2, 52059, Note_off_c, 6, 66, 127
2, 52062, Note_on_c, 8, 56, 127
2, 52193, Note_off_c, 8, 56, 127
2, 52196, Note_off_c, 12, 59, 127
2, 52199, Note_on_c, 12, 59, 127
2, 52330, Note_off_c, 12, 59, 127
2, 52336, Note_on_c, 3, 63, 127
2, 52467, Note_off_c, 3, 63, 127
2, 52473, Note_on_c, 8, 68, 127
2, 52604, Note_off_c, 8, 68, 127
2, 52610, Note_on_c, 6, 66, 127
2, 52741, Note_off_c, 6, 66, 127
2, 52747, Note_on_c, 4, 64, 127
2, 52813, Note_off_c, 4, 64, 127
2, 52816, Note_on_c, 2, 62, 127
2, 52882, Note_off_c, 2, 62, 127
2, 52885, Note_on_c, 1, 49, 127
2, 52885, Note_on_c, 4, 64, 127
2, 53016, Note_off_c, 1, 49, 127
2, 53022, Note_on_c, 4, 52, 127
2, 53153, Note_off_c, 4, 52, 127
2, 53159, Note_on_c, 8, 56, 127
2, 53290, Note_off_c, 8, 56, 127
2, 53296, Note_on_c, 1, 61, 127
2, 53427, Note_off_c, 1, 61, 127
2, 53433, Note_on_c, 12, 59, 127
2, 53564, Note_off_c, 12, 59, 127
2, 53570, Note_on_c, 10, 57, 127
2, 53704, Note_off_c, 4, 64, 127
2, 53707, Note_on_c, 6, 54, 127
2, 53838, Note_off_c, 6, 54, 127
2, 53841, Note_off_c, 10, 57, 127
2, 53844, Note_on_c, 10, 57, 127
2, 53975, Note_off_c, 10, 57, 127
2, 53981, Note_on_c, 1, 61, 127
2, 54112, Note_off_c, 1, 61, 127
2, 54118, Note_on_c, 6, 66, 127
2, 54249, Note_off_c, 6, 66, 127
2, 54255, Note_on_c, 4, 64, 127
2, 54386, Note_off_c, 4, 64, 127
2, 54392, Note_on_c, 2, 62, 127
2, 54458, Note_off_c, 2, 62, 127
2, 54461, Note_on_c, 1, 61, 127
2, 54527, Note_off_c, 1, 61, 127
2, 54530, Note_on_c, 12, 47, 127
2, 54530, Note_on_c, 2, 62, 127
2, 54661, Note_off_c, 12, 47, 127
2, 54667, Note_on_c, 2, 50, 127
2, 54798, Note_off_c, 2, 50, 127
2, 54804, Note_on_c, 6, 54, 127
2, 54935, Note_off_c, 6, 54, 127
2, 54941, Note_on_c, 12, 59, 127
2, 55072, Note_off_c, 12, 59, 127
2, 55078, Note_on_c, 10, 57, 127
2, 55209, Note_off_c, 10, 57, 127
2, 55215, Note_on_c, 8, 56, 127
2, 55349, Note_off_c, 2, 62, 127
2, 55352, Note_on_c, 4, 52, 127
2, 55483, Note_off_c, 4, 52, 127
2, 55486, Note_off_c, 8, 56, 127
2, 55489, Note_on_c, 8, 56, 127
2, 55620, Note_off_c, 8, 56, 127
2, 55626, Note_on_c, 12, 59, 127
2, 55757, Note_off_c, 12, 59, 127
2, 55763, Note_on_c, 4, 64, 127
2, 55894, Note_off_c, 4, 64, 127
2, 55900, Note_on_c, 2, 62, 127
2, 56031, Note_off_c, 2, 62, 127
2, 56037, Note_on_c, 10, 45, 127
2, 56037, Note_on_c, 1, 61, 127
2, 56103, Note_off_c, 10, 45, 127
2, 56106, Note_on_c, 8, 44, 127
2, 56169, Note_off_c, 1, 61, 127
2, 56172, Note_off_c, 8, 44, 127
2, 56175, Note_on_c, 10, 45, 127
2, 56175, Note_on_c, 10, 57, 127
2, 56306, Note_off_c, 10, 57, 127
2, 56312, Note_on_c, 1, 61, 127
2, 56443, Note_off_c, 1, 61, 127
2, 56449, Note_on_c, 4, 64, 127
2, 56580, Note_off_c, 4, 64, 127
2, 56583, Note_off_c, 10, 45, 127
2, 56586, Note_on_c, 10, 45, 127
2, 56586, Note_on_c, 10, 69, 127
2, 56717, Note_off_c, 10, 69, 127
2, 56723, Note_on_c, 4, 64, 127
2, 56854, Note_off_c, 4, 64, 127
2, 56857, Note_off_c, 10, 45, 127
2, 56860, Note_on_c, 10, 45, 127
2, 56860, Note_on_c, 1, 73, 127
2, 56926, Note_off_c, 10, 45, 127
2, 56929, Note_on_c, 8, 44, 127
2, 56992, Note_off_c, 1, 73, 127
2, 56995, Note_off_c, 8, 44, 127
2, 56998, Note_on_c, 10, 45, 127
2, 56998, Note_on_c, 10, 69, 127
2, 57129, Note_off_c, 10, 69, 127
2, 57135, Note_on_c, 1, 73, 127
2, 57266, Note_off_c, 1, 73, 127
2, 57272, Note_on_c, 4, 76, 127
2, 57403, Note_off_c, 4, 76, 127
2, 57406, Note_off_c, 10, 45, 127
2, 57409, Note_on_c, 10, 45, 127
2, 57409, Note_on_c, 10, 81, 127
2, 57540, Note_off_c, 10, 81, 127
2, 57546, Note_on_c, 6, 78, 127
2, 57677, Note_off_c, 6, 78, 127
2, 57680, Note_off_c, 10, 45, 127
2, 57683, Note_on_c, 2, 74, 127
2, 57683, Note_on_c, 10, 45, 127
2, 57743, Note_off_c, 10, 45, 127
2, 57744, Note_on_c, 12, 47, 127
2, 57804, Note_off_c, 12, 47, 127
2, 57805, Note_on_c, 1, 49, 127
2, 57814, Note_off_c, 2, 74, 127
2, 57820, Note_on_c, 6, 78, 127
2, 57866, Note_off_c, 1, 49, 127
2, 57867, Note_on_c, 12, 47, 127
2, 57927, Note_off_c, 12, 47, 127
2, 57930, Note_on_c, 1, 49, 127
2, 57951, Note_off_c, 6, 78, 127
2, 57957, Note_on_c, 10, 81, 127
2, 57990, Note_off_c, 1, 49, 127
2, 57991, Note_on_c, 12, 47, 127
2, 58051, Note_off_c, 12, 47, 127
2, 58052, Note_on_c, 1, 49, 127
2, 58088, Note_off_c, 10, 81, 127
2, 58094, Note_on_c, 6, 78, 127
2, 58113, Note_off_c, 1, 49, 127
2, 58114, Note_on_c, 12, 47, 127
2, 58174, Note_off_c, 12, 47, 127
2, 58175, Note_on_c, 1, 49, 127
2, 58225, Note_off_c, 6, 78, 127
2, 58231, Note_on_c, 2, 74, 127
2, 58235, Note_off_c, 1, 49, 127
2, 58238, Note_on_c, 12, 47, 127
2, 58298, Note_off_c, 12, 47, 127
2, 58301, Note_on_c, 1, 49, 127
2, 58361, Note_off_c, 1, 49, 127
2, 58362, Note_off_c, 2, 74, 127
2, 58362, Note_on_c, 12, 47, 127
2, 58368, Note_on_c, 6, 78, 127
2, 58422, Note_off_c, 12, 47, 127
2, 58425, Note_on_c, 1, 49, 127
2, 58485, Note_off_c, 1, 49, 127
2, 58486, Note_on_c, 12, 47, 127
2, 58499, Note_off_c, 6, 78, 127
2, 58505, Note_on_c, 12, 71, 127
2, 58546, Note_off_c, 12, 47, 127
2, 58547, Note_on_c, 1, 49, 127
2, 58607, Note_off_c, 1, 49, 127
2, 58608, Note_on_c, 12, 47, 127
2, 58635, Note_off_c, 12, 71, 127
2, 58641, Note_on_c, 2, 74, 127
2, 58668, Note_off_c, 12, 47, 127
2, 58671, Note_on_c, 1, 49, 127
2, 58731, Note_off_c, 1, 49, 127
2, 58732, Note_on_c, 12, 47, 127
2, 58772, Note_off_c, 2, 74, 127
2, 58778, Note_on_c, 6, 78, 127
2, 58792, Note_off_c, 12, 47, 127
2, 58796, Note_on_c, 1, 49, 127
2, 58856, Note_off_c, 1, 49, 127
2, 58857, Note_on_c, 12, 47, 127
2, 58908, Note_off_c, 6, 78, 127
2, 58914, Note_on_c, 2, 74, 127
2, 58917, Note_off_c, 12, 47, 127
2, 58918, Note_on_c, 1, 49, 127
2, 58978, Note_off_c, 1, 49, 127
2, 58979, Note_on_c, 12, 47, 127
2, 59039, Note_off_c, 12, 47, 127
2, 59040, Note_on_c, 1, 49, 127
2, 59044, Note_off_c, 2, 74, 127
2, 59050, Note_on_c, 12, 71, 127
2, 59100, Note_off_c, 1, 49, 127
2, 59103, Note_on_c, 12, 47, 127
2, 59163, Note_off_c, 12, 47, 127
2, 59173, Note_on_c, 1, 49, 127
2, 59181, Note_off_c, 12, 71, 127
2, 59187, Note_on_c, 2, 74, 127
2, 59233, Note_off_c, 1, 49, 127
2, 59249, Note_on_c, 12, 47, 127
2, 59318, Note_off_c, 2, 74, 127
2, 59324, Note_on_c, 8, 68, 127
2, 59418, Note_off_c, 12, 47, 127
2, 59461, Note_on_c, 10, 45, 127
2, 59592, Note_off_c, 10, 45, 127
2, 59595, Note_off_c, 8, 68, 127
2, 59598, Note_on_c, 8, 44, 127
2, 59598, Note_on_c, 12, 71, 127
2, 59729, Note_off_c, 8, 44, 127
2, 59735, Note_on_c, 10, 45, 127
2, 59866, Note_off_c, 10, 45, 127
2, 59869, Note_off_c, 12, 71, 127
2, 59872, Note_on_c, 12, 47, 127
2, 59872, Note_on_c, 2, 74, 127
2, 60003, Note_off_c, 12, 47, 127
2, 60009, Note_on_c, 1, 49, 127
2, 60140, Note_off_c, 1, 49, 127
2, 60143, Note_off_c, 2, 74, 127
2, 60146, Note_on_c, 2, 50, 127
2, 60146, Note_on_c, 6, 78, 127
2, 60277, Note_off_c, 2, 50, 127
2, 60283, Note_on_c, 1, 49, 127
2, 60414, Note_off_c, 1, 49, 127
2, 60417, Note_off_c, 6, 78, 127
2, 60420, Note_on_c, 2, 50, 127
2, 60420, Note_on_c, 4, 76, 127
2, 60551, Note_off_c, 2, 50, 127
2, 60557, Note_on_c, 6, 54, 127
2, 60684, Note_off_c, 4, 76, 127
2, 60688, Note_off_c, 6, 54, 127
2, 60694, Note_on_c, 4, 52, 127
2, 60694, Note_on_c, 12, 71, 127
2, 60825, Note_off_c, 4, 52, 127
2, 60831, Note_on_c, 2, 50, 127
2, 60958, Note_off_c, 12, 71, 127
2, 60962, Note_off_c, 2, 50, 127
2, 60968, Note_on_c, 1, 49, 127
2, 60968, Note_on_c, 6, 78, 127
2, 61099, Note_off_c, 1, 49, 127
2, 61105, Note_on_c, 12, 47, 127
2, 61236, Note_off_c, 12, 47, 127
2, 61239, Note_off_c, 6, 78, 127
2, 61242, Note_on_c, 1, 49, 127
2, 61242, Note_on_c, 4, 76, 127
2, 61373, Note_off_c, 1, 49, 127
2, 61379, Note_on_c, 4, 52, 127
2, 61506, Note_off_c, 4, 76, 127
2, 61510, Note_off_c, 4, 52, 127
2, 61516, Note_on_c, 2, 50, 127
2, 61516, Note_on_c, 10, 69, 127
2, 61647, Note_off_c, 2, 50, 127
2, 61653, Note_on_c, 1, 49, 127
2, 61780, Note_off_c, 10, 69, 127
2, 61784, Note_off_c, 1, 49, 127
2, 61790, Note_on_c, 12, 47, 127
2, 61790, Note_on_c, 6, 78, 127
2, 61921, Note_off_c, 12, 47, 127
2, 61927, Note_on_c, 10, 45, 127
2, 62058, Note_off_c, 10, 45, 127
2, 62061, Note_off_c, 6, 78, 127
2, 62064, Note_on_c, 12, 47, 127
2, 62064, Note_on_c, 4, 76, 127
2, 62195, Note_off_c, 12, 47, 127
2, 62201, Note_on_c, 2, 50, 127
2, 62328, Note_off_c, 4, 76, 127
2, 62332, Note_off_c, 2, 50, 127
2, 62338, Note_on_c, 1, 49, 127
2, 62338, Note_on_c, 8, 68, 127
2, 62469, Note_off_c, 1, 49, 127
2, 62475, Note_on_c, 12, 47, 127
2, 62602, Note_off_c, 8, 68, 127
2, 62606, Note_off_c, 12, 47, 127
2, 62612, Note_on_c, 10, 45, 127
2, 62612, Note_on_c, 2, 74, 127
2, 62743, Note_off_c, 10, 45, 127
2, 62749, Note_on_c, 8, 44, 127
2, 62880, Note_off_c, 8, 44, 127
2, 62883, Note_off_c, 2, 74, 127
2, 62886, Note_on_c, 10, 45, 127
2, 62886, Note_on_c, 1, 73, 127
2, 63017, Note_off_c, 10, 45, 127
2, 63023, Note_on_c, 12, 47, 127
2, 63150, Note_off_c, 1, 73, 127
2, 63154, Note_off_c, 12, 47, 127
2, 63160, Note_on_c, 1, 49, 127
2, 63160, Note_on_c, 4, 64, 127
2, 63291, Note_off_c, 1, 49, 127
2, 63297, Note_on_c, 10, 45, 127
2, 63424, Note_off_c, 4, 64, 127
2, 63428, Note_off_c, 10, 45, 127
2, 63434, Note_on_c, 2, 50, 127
2, 63434, Note_on_c, 6, 66, 127
2, 63500, Note_off_c, 2, 50, 127
2, 63503, Note_on_c, 1, 49, 127
2, 63566, Note_off_c, 6, 66, 127
2, 63569, Note_off_c, 1, 49, 127
2, 63572, Note_on_c, 2, 50, 127
2, 63572, Note_on_c, 8, 68, 127
2, 63703, Note_off_c, 8, 68, 127
2, 63709, Note_on_c, 10, 69, 127
2, 63840, Note_off_c, 10, 69, 127
2, 63846, Note_on_c, 12, 71, 127
2, 63977, Note_off_c, 12, 71, 127
2, 63980, Note_off_c, 2, 50, 127
2, 63983, Note_on_c, 2, 50, 127
2, 63983, Note_on_c, 1, 73, 127
2, 64114, Note_off_c, 1, 73, 127
2, 64120, Note_on_c, 2, 74, 127
2, 64251, Note_off_c, 2, 74, 127
2, 64254, Note_off_c, 2, 50, 127
2, 64257, Note_on_c, 1, 49, 127
2, 64257, Note_on_c, 8, 68, 127
2, 64323, Note_off_c, 1, 49, 127
2, 64326, Note_on_c, 2, 50, 127
2, 64389, Note_off_c, 8, 68, 127
2, 64392, Note_off_c, 2, 50, 127
2, 64395, Note_on_c, 4, 52, 127
2, 64395, Note_on_c, 4, 64, 127
2, 64461, Note_off_c, 4, 52, 127
2, 64464, Note_on_c, 2, 50, 127
2, 64527, Note_off_c, 4, 64, 127
2, 64530, Note_off_c, 2, 50, 127
2, 64533, Note_on_c, 4, 52, 127
2, 64533, Note_on_c, 8, 68, 127
2, 64599, Note_off_c, 4, 52, 127
2, 64602, Note_on_c, 2, 50, 127
2, 64665, Note_off_c, 8, 68, 127
2, 64668, Note_off_c, 2, 50, 127
2, 64671, Note_on_c, 4, 52, 127
2, 64671, Note_on_c, 12, 71, 127
2, 64737, Note_off_c, 4, 52, 127
2, 64740, Note_on_c, 2, 50, 127
2, 64803, Note_off_c, 12, 71, 127
2, 64806, Note_off_c, 2, 50, 127
2, 64809, Note_on_c, 4, 52, 127
2, 64809, Note_on_c, 4, 76, 127
2, 64875, Note_off_c, 4, 52, 127
2, 64878, Note_on_c, 2, 50, 127
2, 64941, Note_off_c, 4, 76, 127
2, 64944, Note_off_c, 2, 50, 127
2, 64947, Note_on_c, 4, 52, 127
2, 64947, Note_on_c, 12, 71, 127
2, 65013, Note_off_c, 4, 52, 127
2, 65016, Note_on_c, 2, 50, 127
2, 65079, Note_off_c, 12, 71, 127
2, 65082, Note_off_c, 2, 50, 127
2, 65085, Note_on_c, 4, 52, 127
2, 65085, Note_on_c, 8, 80, 127
2, 65151, Note_off_c, 4, 52, 127
2, 65154, Note_on_c, 2, 50, 127
2, 65217, Note_off_c, 8, 80, 127
2, 65220, Note_off_c, 2, 50, 127
2, 65223, Note_on_c, 4, 52, 127
2, 65223, Note_on_c, 4, 76, 127
2, 65289, Note_off_c, 4, 52, 127
2, 65292, Note_on_c, 2, 50, 127
2, 65355, Note_off_c, 4, 76, 127
2, 65358, Note_off_c, 2, 50, 127
2, 65361, Note_on_c, 4, 52, 127
2, 65361, Note_on_c, 12, 83, 127
2, 65427, Note_off_c, 4, 52, 127
2, 65430, Note_on_c, 2, 50, 127
2, 65493, Note_off_c, 12, 83, 127
2, 65496, Note_off_c, 2, 50, 127
2, 65499, Note_on_c, 4, 52, 127
2, 65499, Note_on_c, 8, 80, 127
2, 65565, Note_off_c, 4, 52, 127
2, 65568, Note_on_c, 2, 50, 127
2, 65631, Note_off_c, 8, 80, 127
2, 65634, Note_off_c, 2, 50, 127
2, 65637, Note_on_c, 4, 52, 127
2, 65637, Note_on_c, 4, 76, 127
2, 65703, Note_off_c, 4, 52, 127
2, 65706, Note_on_c, 2, 50, 127
2, 65769, Note_off_c, 4, 76, 127
2, 65772, Note_off_c, 2, 50, 127
2, 65775, Note_on_c, 1, 49, 127
2, 65775, Note_on_c, 8, 80, 127
2, 65841, Note_off_c, 1, 49, 127
2, 65844, Note_on_c, 2, 50, 127
2, 65907, Note_off_c, 8, 80, 127
2, 65910, Note_off_c, 2, 50, 127
2, 65913, Note_on_c, 1, 49, 127
2, 65913, Note_on_c, 10, 81, 127
2, 66046, Note_off_c, 1, 49, 127
2, 66052, Note_on_c, 2, 50, 127
2, 66185, Note_off_c, 2, 50, 127
2, 66188, Note_off_c, 10, 81, 127
2, 66191, Note_on_c, 1, 49, 127
2, 66191, Note_on_c, 4, 76, 127
2, 66326, Note_off_c, 1, 49, 127
2, 66332, Note_on_c, 12, 47, 127
2, 66467, Note_off_c, 12, 47, 127
2, 66470, Note_off_c, 4, 76, 127
2, 66473, Note_on_c, 10, 45, 127
2, 66473, Note_on_c, 1, 73, 127
2, 66609, Note_off_c, 10, 45, 127
2, 66615, Note_on_c, 8, 44, 127
2, 66751, Note_off_c, 8, 44, 127
2, 66754, Note_off_c, 1, 73, 127
2, 66757, Note_on_c, 6, 42, 127
2, 66757, Note_on_c, 10, 69, 127
2, 66899, Note_off_c, 10, 69, 127
2, 66899, Note_off_c, 6, 42, 127
2, 66905, Note_on_c, 6, 54, 127
2, 66905, Note_on_c, 2, 74, 127
2, 67047, Note_off_c, 2, 74, 127
2, 67047, Note_off_c, 6, 54, 127
2, 67053, Note_on_c, 4, 52, 127
2, 67053, Note_on_c, 1, 73, 127
2, 67200, Note_off_c, 1, 73, 127
2, 67200, Note_off_c, 4, 52, 127
2, 67206, Note_on_c, 2, 50, 127
2, 67206, Note_on_c, 12, 71, 127
2, 67353, Note_off_c, 12, 71, 127
2, 67353, Note_off_c, 2, 50, 127
2, 67359, Note_on_c, 1, 49, 127
2, 67359, Note_on_c, 4, 76, 127
2, 67435, Note_off_c, 4, 76, 127
2, 67438, Note_on_c, 2, 74, 127
2, 67510, Note_off_c, 1, 49, 127
2, 67513, Note_off_c, 2, 74, 127
2, 67516, Note_on_c, 12, 47, 127
2, 67516, Note_on_c, 4, 76, 127
2, 67667, Note_off_c, 12, 47, 127
2, 67674, Note_on_c, 1, 49, 127
2, 67829, Note_off_c, 1, 49, 127
2, 67832, Note_off_c, 4, 76, 127
2, 67835, Note_on_c, 2, 50, 127
2, 67835, Note_on_c, 6, 78, 127
2, 67990, Note_off_c, 6, 78, 127
2, 67990, Note_off_c, 2, 50, 127
2, 67997, Note_on_c, 4, 52, 127
2, 67997, Note_on_c, 1, 73, 127
2, 68089, Note_off_c, 1, 73, 127
2, 68093, Note_on_c, 12, 71, 127
2, 68165, Note_on_c, 1, 73, 127
2, 68185, Note_off_c, 12, 71, 127
2, 68237, Note_on_c, 12, 71, 127
2, 68243, Note_off_c, 1, 73, 127
2, 68309, Note_on_c, 1, 73, 127
2, 68315, Note_off_c, 12, 71, 127
2, 68381, Note_on_c, 4, 40, 127
2, 68381, Note_on_c, 12, 71, 127
2, 68387, Note_off_c, 1, 73, 127
2, 68571, Note_off_c, 12, 71, 127
2, 68573, Note_on_c, 10, 69, 127
2, 68757, Note_off_c, 10, 69, 127
2, 68757, Note_off_c, 4, 52, 127
2, 68761, Note_off_c, 4, 40, 127
2, 68785, Note_on_c, 10, 45, 127
2, 68785, Note_on_c, 10, 69, 127
2, 70585, Note_off_c, 10, 69, 127
2, 70585, Note_off_c, 10, 45, 127
2, 73728, End_track
3, 0, Start_track
3, 0, Title_t, "MIDI"
3, 1536, End_track
0, 0, End_of_file
