0, 0, Header, 1, 3, 384
1, 0, Start_track
1, 0, Tempo, 500000
1, 0, Time_signature, 4, 2, 24, 8
1, 129024, End_track
2, 0, Start_track
2, 0, Text_t, "harpsichord: John Sankey"
2, 0, Program_c, 0, 6
2, 0, Pitch_bend_c, 0, 8192
2, 0, Program_c, 1, 6
2, 0, Pitch_bend_c, 1, 7792
2, 0, Program_c, 2, 6
2, 0, Pitch_bend_c, 2, 7876
2, 0, Program_c, 3, 6
2, 0, Pitch_bend_c, 3, 7952
2, 0, Program_c, 4, 6
2, 0, Pitch_bend_c, 4, 7792
2, 0, Program_c, 5, 6
2, 0, Pitch_bend_c, 5, 8112
2, 0, Program_c, 6, 6
2, 0, Pitch_bend_c, 6, 7712
2, 0, Program_c, 7, 6
2, 0, Pitch_bend_c, 7, 8037
2, 0, Program_c, 8, 6
2, 0, Pitch_bend_c, 8, 7872
2, 0, Program_c, 10, 6
2, 0, Pitch_bend_c, 10, 7712
2, 0, Program_c, 11, 6
2, 0, Pitch_bend_c, 11, 8032
2, 0, Program_c, 12, 6
2, 0, Pitch_bend_c, 12, 7872
2, 0, Title_t, "Track 1"
2, 48, Note_on_c, 5, 41, 127
2, 491, Note_on_c, 5, 65, 127
2, 932, Note_off_c, 5, 65, 127
2, 932, Note_off_c, 5, 41, 127
2, 934, Note_on_c, 5, 53, 127
2, 934, Note_on_c, 8, 68, 127
2, 1375, Note_off_c, 8, 68, 127
2, 1377, Note_on_c, 7, 67, 127
2, 1818, Note_off_c, 5, 53, 127
2, 1820, Note_on_c, 4, 52, 127
2, 2023, Note_off_c, 7, 67, 127
2, 2263, Note_on_c, 7, 67, 127
2, 2704, Note_off_c, 7, 67, 127
2, 2704, Note_off_c, 4, 52, 127
2, 2706, Note_on_c, 3, 51, 127
2, 2706, Note_on_c, 11, 70, 127
2, 3147, Note_off_c, 11, 70, 127
2, 3149, Note_on_c, 10, 69, 127
2, 3590, Note_off_c, 3, 51, 127
2, 3592, Note_on_c, 2, 50, 127
2, 3795, Note_off_c, 10, 69, 127
2, 4035, Note_on_c, 11, 70, 127
2, 4476, Note_off_c, 11, 70, 127
2, 4476, Note_off_c, 2, 50, 127
2, 4478, Note_on_c, 1, 49, 127
2, 4478, Note_on_c, 4, 76, 127
2, 4919, Note_off_c, 4, 76, 127
2, 4921, Note_on_c, 5, 77, 127
2, 5362, Note_off_c, 1, 49, 127
2, 5364, Note_on_c, 0, 48, 127
2, 5805, Note_off_c, 0, 48, 127
2, 5805, Note_off_c, 5, 77, 127
2, 5807, Note_on_c, 11, 46, 127
2, 5807, Note_on_c, 3, 75, 127
2, 6026, Note_off_c, 3, 75, 127
2, 6028, Note_on_c, 1, 73, 127
2, 6247, Note_off_c, 1, 73, 127
2, 6247, Note_off_c, 11, 46, 127
2, 6249, Note_on_c, 0, 48, 127
2, 6249, Note_on_c, 0, 72, 127
2, 6690, Note_off_c, 0, 72, 127
2, 6690, Note_off_c, 0, 48, 127
2, 6692, Note_on_c, 0, 36, 127
2, 6692, Note_on_c, 11, 70, 127
2, 7133, Note_off_c, 11, 70, 127
2, 7133, Note_off_c, 0, 36, 127
2, 7135, Note_on_c, 5, 41, 127
2, 7135, Note_on_c, 8, 68, 127
2, 7578, Note_on_c, 0, 72, 127
2, 8019, Note_off_c, 0, 72, 127
2, 8019, Note_off_c, 8, 68, 127
2, 8021, Note_on_c, 0, 72, 127
2, 8021, Note_on_c, 3, 75, 127
2, 8243, Note_off_c, 5, 41, 127
2, 8462, Note_off_c, 3, 75, 127
2, 8464, Note_on_c, 5, 53, 127
2, 8464, Note_on_c, 2, 74, 127
2, 8683, Note_off_c, 5, 53, 127
2, 8685, Note_on_c, 7, 55, 127
2, 8793, Note_off_c, 7, 55, 127
2, 8795, Note_on_c, 8, 56, 127
2, 8903, Note_off_c, 8, 56, 127
2, 8903, Note_off_c, 0, 72, 127
2, 8905, Note_on_c, 8, 56, 127
2, 8905, Note_on_c, 12, 71, 127
2, 9108, Note_off_c, 2, 74, 127
2, 9124, Note_off_c, 8, 56, 127
2, 9126, Note_on_c, 6, 54, 127
2, 9345, Note_off_c, 6, 54, 127
2, 9347, Note_on_c, 7, 55, 127
2, 9347, Note_on_c, 2, 74, 127
2, 9788, Note_off_c, 2, 74, 127
2, 9788, Note_off_c, 12, 71, 127
2, 9790, Note_on_c, 11, 70, 127
2, 9790, Note_on_c, 5, 77, 127
2, 9993, Note_off_c, 7, 55, 127
2, 10231, Note_off_c, 5, 77, 127
2, 10233, Note_on_c, 7, 67, 127
2, 10233, Note_on_c, 4, 76, 127
2, 10452, Note_off_c, 7, 67, 127
2, 10454, Note_on_c, 4, 64, 127
2, 10673, Note_off_c, 4, 64, 127
2, 10673, Note_off_c, 11, 70, 127
2, 10675, Note_on_c, 1, 61, 127
2, 10675, Note_on_c, 10, 69, 127
2, 10878, Note_off_c, 4, 76, 127
2, 10894, Note_off_c, 1, 61, 127
2, 10896, Note_on_c, 12, 59, 127
2, 11115, Note_off_c, 12, 59, 127
2, 11117, Note_on_c, 0, 60, 127
2, 11117, Note_on_c, 5, 77, 127
2, 11558, Note_off_c, 5, 77, 127
2, 11558, Note_off_c, 10, 69, 127
2, 11560, Note_on_c, 8, 68, 127
2, 11560, Note_on_c, 12, 83, 127
2, 11763, Note_off_c, 0, 60, 127
2, 12001, Note_off_c, 12, 83, 127
2, 12003, Note_on_c, 2, 62, 127
2, 12003, Note_on_c, 0, 84, 127
2, 12222, Note_off_c, 2, 62, 127
2, 12224, Note_on_c, 3, 63, 127
2, 12332, Note_off_c, 3, 63, 127
2, 12334, Note_on_c, 5, 65, 127
2, 12442, Note_off_c, 5, 65, 127
2, 12442, Note_off_c, 8, 68, 127
2, 12444, Note_on_c, 3, 63, 127
2, 12444, Note_on_c, 7, 67, 127
2, 12885, Note_off_c, 7, 67, 127
2, 12885, Note_off_c, 3, 63, 127
2, 12885, Note_off_c, 0, 84, 127
2, 12887, Note_on_c, 5, 65, 127
2, 12887, Note_on_c, 0, 72, 127
2, 12887, Note_on_c, 11, 82, 127
2, 13106, Note_off_c, 11, 82, 127
2, 13108, Note_on_c, 8, 80, 127
2, 13327, Note_off_c, 8, 80, 127
2, 13327, Note_off_c, 5, 65, 127
2, 13329, Note_on_c, 7, 67, 127
2, 13329, Note_on_c, 7, 79, 127
2, 13770, Note_off_c, 7, 79, 127
2, 13770, Note_off_c, 7, 67, 127
2, 13770, Note_off_c, 0, 72, 127
2, 13772, Note_on_c, 7, 55, 127
2, 13772, Note_on_c, 12, 71, 127
2, 13772, Note_on_c, 5, 77, 127
2, 14213, Note_off_c, 5, 77, 127
2, 14213, Note_off_c, 12, 71, 127
2, 14213, Note_off_c, 7, 55, 127
2, 14215, Note_on_c, 0, 60, 127
2, 14215, Note_on_c, 0, 72, 127
2, 14215, Note_on_c, 3, 75, 127
2, 14656, Note_off_c, 3, 75, 127
2, 14658, Note_on_c, 7, 79, 127
2, 15092, Note_off_c, 0, 72, 127
2, 15099, Note_off_c, 7, 79, 127
2, 15101, Note_on_c, 8, 80, 127
2, 15323, Note_off_c, 0, 60, 127
2, 15542, Note_off_c, 8, 80, 127
2, 15544, Note_on_c, 0, 72, 127
2, 15544, Note_on_c, 7, 79, 127
2, 15985, Note_off_c, 7, 79, 127
2, 15985, Note_off_c, 0, 72, 127
2, 15987, Note_on_c, 1, 73, 127
2, 15987, Note_on_c, 5, 77, 127
2, 16428, Note_off_c, 1, 73, 127
2, 16430, Note_on_c, 0, 72, 127
2, 16871, Note_off_c, 0, 72, 127
2, 16873, Note_on_c, 11, 70, 127
2, 17092, Note_off_c, 5, 77, 127
2, 17094, Note_on_c, 6, 78, 127
2, 17313, Note_off_c, 6, 78, 127
2, 17315, Note_on_c, 4, 76, 127
2, 17534, Note_off_c, 4, 76, 127
2, 17536, Note_on_c, 5, 77, 127
2, 17755, Note_off_c, 5, 77, 127
2, 17757, Note_on_c, 4, 76, 127
2, 17923, Note_off_c, 11, 70, 127
2, 17978, Note_on_c, 0, 72, 127
2, 18197, Note_off_c, 0, 72, 127
2, 18199, Note_on_c, 10, 69, 127
2, 18418, Note_off_c, 10, 69, 127
2, 18420, Note_on_c, 11, 70, 127
2, 18632, Note_off_c, 4, 76, 127
2, 18639, Note_off_c, 11, 70, 127
2, 18641, Note_on_c, 10, 69, 127
2, 18863, Note_on_c, 0, 84, 127
2, 19082, Note_off_c, 0, 84, 127
2, 19084, Note_on_c, 5, 77, 127
2, 19303, Note_off_c, 5, 77, 127
2, 19305, Note_on_c, 3, 75, 127
2, 19524, Note_off_c, 3, 75, 127
2, 19524, Note_off_c, 10, 69, 127
2, 19526, Note_on_c, 11, 70, 127
2, 19526, Note_on_c, 1, 73, 127
2, 19745, Note_off_c, 11, 70, 127
2, 19747, Note_on_c, 6, 66, 127
2, 19966, Note_off_c, 6, 66, 127
2, 19968, Note_on_c, 4, 64, 127
2, 20187, Note_off_c, 4, 64, 127
2, 20189, Note_on_c, 5, 65, 127
2, 20408, Note_off_c, 5, 65, 127
2, 20410, Note_on_c, 4, 64, 127
2, 20629, Note_off_c, 1, 73, 127
2, 20631, Note_on_c, 7, 79, 127
2, 20850, Note_off_c, 7, 79, 127
2, 20852, Note_on_c, 0, 72, 127
2, 21071, Note_off_c, 0, 72, 127
2, 21073, Note_on_c, 11, 70, 127
2, 21262, Note_off_c, 4, 64, 127
2, 21292, Note_off_c, 11, 70, 127
2, 21294, Note_on_c, 5, 65, 127
2, 21294, Note_on_c, 8, 68, 127
2, 21737, Note_on_c, 5, 53, 127
2, 22171, Note_off_c, 5, 65, 127
2, 22178, Note_off_c, 5, 53, 127
2, 22178, Note_off_c, 8, 68, 127
2, 22180, Note_on_c, 8, 56, 127
2, 22180, Note_on_c, 5, 77, 127
2, 22621, Note_off_c, 8, 56, 127
2, 22623, Note_on_c, 7, 55, 127
2, 22623, Note_on_c, 11, 70, 127
2, 22842, Note_off_c, 11, 70, 127
2, 22844, Note_on_c, 0, 72, 127
2, 22952, Note_off_c, 0, 72, 127
2, 22954, Note_on_c, 1, 73, 127
2, 23062, Note_off_c, 1, 73, 127
2, 23062, Note_off_c, 5, 77, 127
2, 23064, Note_on_c, 1, 73, 127
2, 23064, Note_on_c, 4, 76, 127
2, 23267, Note_off_c, 7, 55, 127
2, 23283, Note_off_c, 1, 73, 127
2, 23285, Note_on_c, 12, 71, 127
2, 23504, Note_off_c, 12, 71, 127
2, 23506, Note_on_c, 7, 55, 127
2, 23506, Note_on_c, 0, 72, 127
2, 23947, Note_off_c, 7, 55, 127
2, 23947, Note_off_c, 4, 76, 127
2, 23949, Note_on_c, 11, 58, 127
2, 23949, Note_on_c, 3, 75, 127
2, 24152, Note_off_c, 0, 72, 127
2, 24390, Note_off_c, 11, 58, 127
2, 24392, Note_on_c, 10, 57, 127
2, 24392, Note_on_c, 0, 72, 127
2, 24611, Note_off_c, 0, 72, 127
2, 24613, Note_on_c, 10, 69, 127
2, 24832, Note_off_c, 10, 69, 127
2, 24832, Note_off_c, 3, 75, 127
2, 24834, Note_on_c, 6, 66, 127
2, 24834, Note_on_c, 2, 74, 127
2, 25037, Note_off_c, 10, 57, 127
2, 25053, Note_off_c, 6, 66, 127
2, 25055, Note_on_c, 4, 64, 127
2, 25274, Note_off_c, 4, 64, 127
2, 25276, Note_on_c, 11, 58, 127
2, 25276, Note_on_c, 5, 65, 127
2, 25714, Note_off_c, 5, 65, 127
2, 25716, Note_off_c, 11, 58, 127
2, 25716, Note_off_c, 2, 74, 127
2, 25718, Note_on_c, 4, 64, 127
2, 25718, Note_on_c, 1, 73, 127
2, 26159, Note_off_c, 4, 64, 127
2, 26161, Note_on_c, 5, 65, 127
2, 26161, Note_on_c, 7, 67, 127
2, 26380, Note_off_c, 7, 67, 127
2, 26382, Note_on_c, 8, 68, 127
2, 26490, Note_off_c, 8, 68, 127
2, 26492, Note_on_c, 11, 70, 127
2, 26600, Note_off_c, 11, 70, 127
2, 26600, Note_off_c, 1, 73, 127
2, 26602, Note_on_c, 8, 68, 127
2, 26602, Note_on_c, 0, 72, 127
2, 27043, Note_off_c, 0, 72, 127
2, 27043, Note_off_c, 5, 65, 127
2, 27045, Note_on_c, 3, 63, 127
2, 27045, Note_on_c, 5, 77, 127
2, 27264, Note_off_c, 3, 63, 127
2, 27264, Note_off_c, 8, 68, 127
2, 27266, Note_on_c, 1, 61, 127
2, 27266, Note_on_c, 11, 70, 127
2, 27485, Note_off_c, 11, 70, 127
2, 27485, Note_off_c, 1, 61, 127
2, 27487, Note_on_c, 0, 60, 127
2, 27487, Note_on_c, 8, 68, 127
2, 27928, Note_off_c, 8, 68, 127
2, 27928, Note_off_c, 0, 60, 127
2, 27928, Note_off_c, 5, 77, 127
2, 27930, Note_on_c, 11, 58, 127
2, 27930, Note_on_c, 7, 67, 127
2, 27930, Note_on_c, 4, 76, 127
2, 28371, Note_off_c, 4, 76, 127
2, 28371, Note_off_c, 7, 67, 127
2, 28371, Note_off_c, 11, 58, 127
2, 28373, Note_on_c, 8, 56, 127
2, 28373, Note_on_c, 5, 65, 127
2, 28373, Note_on_c, 5, 77, 127
2, 28814, Note_off_c, 5, 77, 127
2, 28814, Note_off_c, 5, 65, 127
2, 28816, Note_on_c, 0, 60, 127
2, 28816, Note_on_c, 3, 75, 127
2, 29257, Note_off_c, 0, 60, 127
2, 29257, Note_off_c, 8, 56, 127
2, 29259, Note_on_c, 10, 57, 127
2, 29259, Note_on_c, 6, 66, 127
2, 29700, Note_off_c, 6, 66, 127
2, 29700, Note_off_c, 3, 75, 127
2, 29702, Note_on_c, 5, 65, 127
2, 29702, Note_on_c, 1, 73, 127
2, 29921, Note_off_c, 1, 73, 127
2, 29923, Note_on_c, 0, 72, 127
2, 30142, Note_off_c, 0, 72, 127
2, 30142, Note_off_c, 10, 57, 127
2, 30144, Note_on_c, 11, 58, 127
2, 30144, Note_on_c, 1, 73, 127
2, 30347, Note_off_c, 5, 65, 127
2, 30585, Note_off_c, 11, 58, 127
2, 30587, Note_on_c, 8, 56, 127
2, 30587, Note_on_c, 5, 65, 127
2, 31028, Note_off_c, 5, 65, 127
2, 31028, Note_off_c, 1, 73, 127
2, 31030, Note_on_c, 12, 71, 127
2, 31030, Note_on_c, 2, 74, 127
2, 31471, Note_off_c, 12, 71, 127
2, 31471, Note_off_c, 8, 56, 127
2, 31473, Note_on_c, 7, 55, 127
2, 31473, Note_on_c, 11, 70, 127
2, 31692, Note_off_c, 7, 55, 127
2, 31694, Note_on_c, 5, 53, 127
2, 31913, Note_off_c, 5, 53, 127
2, 31913, Note_off_c, 2, 74, 127
2, 31915, Note_on_c, 7, 55, 127
2, 31915, Note_on_c, 3, 75, 127
2, 32356, Note_off_c, 3, 75, 127
2, 32356, Note_off_c, 7, 55, 127
2, 32356, Note_off_c, 11, 70, 127
2, 32358, Note_on_c, 0, 60, 127
2, 32358, Note_on_c, 8, 68, 127
2, 32358, Note_on_c, 3, 75, 127
2, 32799, Note_off_c, 3, 75, 127
2, 32799, Note_off_c, 0, 60, 127
2, 32801, Note_on_c, 2, 62, 127
2, 32801, Note_on_c, 12, 83, 127
2, 33242, Note_off_c, 12, 83, 127
2, 33242, Note_off_c, 8, 68, 127
2, 33244, Note_on_c, 6, 66, 127
2, 33244, Note_on_c, 11, 82, 127
2, 33463, Note_off_c, 6, 66, 127
2, 33465, Note_on_c, 5, 65, 127
2, 33684, Note_off_c, 5, 65, 127
2, 33684, Note_off_c, 2, 62, 127
2, 33686, Note_on_c, 3, 63, 127
2, 33686, Note_on_c, 6, 66, 127
2, 33889, Note_off_c, 11, 82, 127
2, 34127, Note_off_c, 3, 63, 127
2, 34129, Note_on_c, 1, 61, 127
2, 34129, Note_on_c, 11, 70, 127
2, 34570, Note_off_c, 11, 70, 127
2, 34570, Note_off_c, 6, 66, 127
2, 34572, Note_on_c, 7, 67, 127
2, 34572, Note_on_c, 4, 76, 127
2, 35013, Note_off_c, 4, 76, 127
2, 35013, Note_off_c, 1, 61, 127
2, 35015, Note_on_c, 0, 60, 127
2, 35015, Note_on_c, 3, 75, 127
2, 35234, Note_off_c, 0, 60, 127
2, 35236, Note_on_c, 11, 58, 127
2, 35455, Note_off_c, 11, 58, 127
2, 35455, Note_off_c, 7, 67, 127
2, 35457, Note_on_c, 0, 60, 127
2, 35457, Note_on_c, 8, 68, 127
2, 35676, Note_off_c, 3, 75, 127
2, 35678, Note_on_c, 11, 70, 127
2, 35897, Note_off_c, 11, 70, 127
2, 35899, Note_on_c, 0, 72, 127
2, 36102, Note_off_c, 8, 68, 127
2, 36118, Note_off_c, 0, 72, 127
2, 36120, Note_on_c, 8, 68, 127
2, 36339, Note_off_c, 8, 68, 127
2, 36339, Note_off_c, 0, 60, 127
2, 36341, Note_on_c, 8, 56, 127
2, 36341, Note_on_c, 0, 60, 127
2, 36341, Note_on_c, 5, 65, 127
2, 36782, Note_off_c, 5, 65, 127
2, 36782, Note_off_c, 0, 60, 127
2, 36784, Note_on_c, 11, 58, 127
2, 36784, Note_on_c, 2, 74, 127
2, 37003, Note_off_c, 2, 74, 127
2, 37005, Note_on_c, 3, 75, 127
2, 37113, Note_off_c, 3, 75, 127
2, 37115, Note_on_c, 5, 77, 127
2, 37223, Note_off_c, 5, 77, 127
2, 37223, Note_off_c, 8, 56, 127
2, 37225, Note_on_c, 7, 55, 127
2, 37225, Note_on_c, 5, 77, 127
2, 37428, Note_off_c, 11, 58, 127
2, 37444, Note_off_c, 5, 77, 127
2, 37446, Note_on_c, 2, 74, 127
2, 37665, Note_off_c, 2, 74, 127
2, 37667, Note_on_c, 7, 67, 127
2, 37667, Note_on_c, 3, 75, 127
2, 38108, Note_off_c, 7, 67, 127
2, 38108, Note_off_c, 7, 55, 127
2, 38110, Note_on_c, 6, 54, 127
2, 38110, Note_on_c, 1, 61, 127
2, 38313, Note_off_c, 3, 75, 127
2, 38551, Note_off_c, 1, 61, 127
2, 38553, Note_on_c, 0, 60, 127
2, 38553, Note_on_c, 3, 75, 127
2, 38772, Note_off_c, 3, 75, 127
2, 38774, Note_on_c, 0, 72, 127
2, 38993, Note_off_c, 0, 72, 127
2, 38993, Note_off_c, 6, 54, 127
2, 38995, Note_on_c, 5, 53, 127
2, 38995, Note_on_c, 10, 69, 127
2, 39198, Note_off_c, 0, 60, 127
2, 39214, Note_off_c, 10, 69, 127
2, 39216, Note_on_c, 7, 67, 127
2, 39435, Note_off_c, 7, 67, 127
2, 39437, Note_on_c, 1, 61, 127
2, 39437, Note_on_c, 8, 68, 127
2, 39875, Note_off_c, 8, 68, 127
2, 39877, Note_off_c, 1, 61, 127
2, 39877, Note_off_c, 5, 53, 127
2, 39879, Note_on_c, 4, 52, 127
2, 39879, Note_on_c, 7, 67, 127
2, 40320, Note_off_c, 7, 67, 127
2, 40322, Note_on_c, 8, 68, 127
2, 40322, Note_on_c, 11, 70, 127
2, 40541, Note_off_c, 11, 70, 127
2, 40543, Note_on_c, 0, 72, 127
2, 40651, Note_off_c, 0, 72, 127
2, 40653, Note_on_c, 1, 73, 127
2, 40761, Note_off_c, 1, 73, 127
2, 40761, Note_off_c, 4, 52, 127
2, 40763, Note_on_c, 3, 51, 127
2, 40763, Note_on_c, 0, 72, 127
2, 41204, Note_off_c, 0, 72, 127
2, 41204, Note_off_c, 3, 51, 127
2, 41204, Note_off_c, 8, 68, 127
2, 41206, Note_on_c, 1, 49, 127
2, 41206, Note_on_c, 7, 67, 127
2, 41206, Note_on_c, 11, 70, 127
2, 41425, Note_off_c, 7, 67, 127
2, 41427, Note_on_c, 5, 65, 127
2, 41646, Note_off_c, 5, 65, 127
2, 41646, Note_off_c, 11, 70, 127
2, 41646, Note_off_c, 1, 49, 127
2, 41648, Note_on_c, 3, 51, 127
2, 41648, Note_on_c, 3, 63, 127
2, 41648, Note_on_c, 8, 68, 127
2, 41793, Note_off_c, 8, 68, 127
2, 41795, Note_on_c, 15, 67, 127
2, 41869, Note_on_c, 15, 68, 127
2, 41874, Note_off_c, 15, 67, 127
2, 41943, Note_on_c, 15, 67, 127
2, 41948, Note_off_c, 15, 68, 127
2, 42017, Note_on_c, 15, 68, 127
2, 42022, Note_off_c, 15, 67, 127
2, 42089, Note_off_c, 3, 63, 127
2, 42089, Note_off_c, 3, 51, 127
2, 42091, Note_on_c, 3, 39, 127
2, 42091, Note_on_c, 1, 61, 127
2, 42091, Note_on_c, 15, 67, 127
2, 42096, Note_off_c, 15, 68, 127
2, 42311, Note_off_c, 15, 67, 127
2, 42313, Note_on_c, 15, 68, 127
2, 42532, Note_off_c, 15, 68, 127
2, 42532, Note_off_c, 1, 61, 127
2, 42532, Note_off_c, 3, 39, 127
2, 42534, Note_on_c, 8, 44, 127
2, 42534, Note_on_c, 0, 60, 127
2, 42534, Note_on_c, 8, 68, 127
2, 42973, Note_off_c, 0, 60, 127
2, 42994, Note_on_c, 3, 63, 127
2, 43001, Note_off_c, 8, 68, 127
2, 43412, Note_off_c, 8, 44, 127
2, 43435, Note_off_c, 3, 63, 127
2, 43437, Note_on_c, 7, 67, 127
2, 43437, Note_on_c, 15, 63, 127
2, 43878, Note_off_c, 7, 67, 127
2, 43880, Note_on_c, 5, 65, 127
2, 43880, Note_on_c, 10, 57, 127
2, 44099, Note_off_c, 10, 57, 127
2, 44101, Note_on_c, 11, 58, 127
2, 44209, Note_off_c, 11, 58, 127
2, 44211, Note_on_c, 0, 60, 127
2, 44319, Note_off_c, 0, 60, 127
2, 44319, Note_off_c, 15, 63, 127
2, 44321, Note_on_c, 2, 62, 127
2, 44321, Note_on_c, 0, 60, 127
2, 44524, Note_off_c, 5, 65, 127
2, 44540, Note_off_c, 0, 60, 127
2, 44542, Note_on_c, 10, 57, 127
2, 44761, Note_off_c, 10, 57, 127
2, 44763, Note_on_c, 5, 65, 127
2, 44763, Note_on_c, 11, 58, 127
2, 45204, Note_off_c, 5, 65, 127
2, 45204, Note_off_c, 2, 62, 127
2, 45206, Note_on_c, 8, 68, 127
2, 45206, Note_on_c, 1, 61, 127
2, 45409, Note_off_c, 11, 58, 127
2, 45647, Note_off_c, 8, 68, 127
2, 45649, Note_on_c, 7, 67, 127
2, 45649, Note_on_c, 11, 58, 127
2, 45868, Note_off_c, 11, 58, 127
2, 45870, Note_on_c, 7, 55, 127
2, 46089, Note_off_c, 7, 55, 127
2, 46089, Note_off_c, 1, 61, 127
2, 46091, Note_on_c, 0, 60, 127
2, 46091, Note_on_c, 4, 52, 127
2, 46294, Note_off_c, 7, 67, 127
2, 46310, Note_off_c, 4, 52, 127
2, 46312, Note_on_c, 2, 50, 127
2, 46531, Note_off_c, 2, 50, 127
2, 46533, Note_on_c, 8, 68, 127
2, 46533, Note_on_c, 3, 51, 127
2, 46974, Note_off_c, 8, 68, 127
2, 46974, Note_off_c, 0, 60, 127
2, 46976, Note_on_c, 2, 74, 127
2, 46976, Note_on_c, 12, 59, 127
2, 47179, Note_off_c, 3, 51, 127
2, 47417, Note_off_c, 2, 74, 127
2, 47419, Note_on_c, 3, 75, 127
2, 47419, Note_on_c, 5, 53, 127
2, 47638, Note_off_c, 5, 53, 127
2, 47640, Note_on_c, 7, 55, 127
2, 47748, Note_off_c, 7, 55, 127
2, 47750, Note_on_c, 8, 56, 127
2, 47858, Note_off_c, 8, 56, 127
2, 47858, Note_off_c, 12, 59, 127
2, 47860, Note_on_c, 11, 58, 127
2, 47860, Note_on_c, 7, 55, 127
2, 48301, Note_off_c, 7, 55, 127
2, 48301, Note_off_c, 11, 58, 127
2, 48301, Note_off_c, 3, 75, 127
2, 48303, Note_on_c, 2, 74, 127
2, 48303, Note_on_c, 3, 63, 127
2, 48303, Note_on_c, 8, 56, 127
2, 48522, Note_off_c, 2, 74, 127
2, 48524, Note_on_c, 0, 72, 127
2, 48743, Note_off_c, 0, 72, 127
2, 48743, Note_off_c, 8, 56, 127
2, 48745, Note_on_c, 11, 70, 127
2, 48745, Note_on_c, 11, 58, 127
2, 49186, Note_off_c, 11, 58, 127
2, 49186, Note_off_c, 11, 70, 127
2, 49186, Note_off_c, 3, 63, 127
2, 49188, Note_on_c, 8, 68, 127
2, 49188, Note_on_c, 2, 62, 127
2, 49188, Note_on_c, 11, 46, 127
2, 49629, Note_off_c, 11, 46, 127
2, 49629, Note_off_c, 2, 62, 127
2, 49629, Note_off_c, 8, 68, 127
2, 49631, Note_on_c, 7, 67, 127
2, 49631, Note_on_c, 3, 63, 127
2, 49631, Note_on_c, 3, 51, 127
2, 50072, Note_off_c, 7, 67, 127
2, 50074, Note_on_c, 11, 70, 127
2, 50515, Note_off_c, 11, 70, 127
2, 50515, Note_off_c, 3, 63, 127
2, 50517, Note_on_c, 1, 73, 127
2, 50517, Note_on_c, 7, 67, 127
2, 50739, Note_off_c, 3, 51, 127
2, 50958, Note_off_c, 1, 73, 127
2, 50960, Note_on_c, 0, 72, 127
2, 50960, Note_on_c, 3, 51, 127
2, 51401, Note_off_c, 3, 51, 127
2, 51401, Note_off_c, 7, 67, 127
2, 51403, Note_on_c, 10, 69, 127
2, 51403, Note_on_c, 6, 54, 127
2, 51606, Note_off_c, 0, 72, 127
2, 51844, Note_off_c, 6, 54, 127
2, 51846, Note_on_c, 0, 72, 127
2, 51846, Note_on_c, 5, 53, 127
2, 52287, Note_off_c, 0, 72, 127
2, 52287, Note_off_c, 10, 69, 127
2, 52289, Note_on_c, 3, 75, 127
2, 52289, Note_on_c, 0, 72, 127
2, 52492, Note_off_c, 5, 53, 127
2, 52730, Note_off_c, 3, 75, 127
2, 52732, Note_on_c, 2, 74, 127
2, 52732, Note_on_c, 5, 53, 127
2, 53173, Note_off_c, 5, 53, 127
2, 53173, Note_off_c, 0, 72, 127
2, 53175, Note_on_c, 11, 70, 127
2, 53175, Note_on_c, 8, 56, 127
2, 53378, Note_off_c, 2, 74, 127
2, 53616, Note_off_c, 8, 56, 127
2, 53618, Note_on_c, 2, 74, 127
2, 53618, Note_on_c, 7, 55, 127
2, 54059, Note_off_c, 2, 74, 127
2, 54059, Note_off_c, 11, 70, 127
2, 54061, Note_on_c, 5, 77, 127
2, 54061, Note_on_c, 1, 73, 127
2, 54264, Note_off_c, 7, 55, 127
2, 54502, Note_off_c, 5, 77, 127
2, 54504, Note_on_c, 4, 76, 127
2, 54504, Note_on_c, 7, 55, 127
2, 54945, Note_off_c, 7, 55, 127
2, 54945, Note_off_c, 1, 73, 127
2, 54947, Note_on_c, 0, 72, 127
2, 54947, Note_on_c, 11, 58, 127
2, 55388, Note_off_c, 11, 58, 127
2, 55388, Note_off_c, 0, 72, 127
2, 55388, Note_off_c, 4, 76, 127
2, 55390, Note_on_c, 0, 72, 127
2, 55390, Note_on_c, 5, 65, 127
2, 55390, Note_on_c, 8, 56, 127
2, 55831, Note_off_c, 5, 65, 127
2, 55831, Note_off_c, 0, 72, 127
2, 55833, Note_on_c, 5, 77, 127
2, 55833, Note_on_c, 8, 68, 127
2, 56036, Note_off_c, 8, 56, 127
2, 56274, Note_off_c, 8, 68, 127
2, 56276, Note_on_c, 7, 67, 127
2, 56276, Note_on_c, 11, 58, 127
2, 56717, Note_off_c, 11, 58, 127
2, 56717, Note_off_c, 5, 77, 127
2, 56719, Note_on_c, 4, 76, 127
2, 56719, Note_on_c, 1, 49, 127
2, 56922, Note_off_c, 7, 67, 127
2, 57160, Note_off_c, 1, 49, 127
2, 57162, Note_on_c, 7, 67, 127
2, 57162, Note_on_c, 0, 48, 127
2, 57603, Note_off_c, 7, 67, 127
2, 57603, Note_off_c, 4, 76, 127
2, 57605, Note_on_c, 7, 79, 127
2, 57605, Note_on_c, 11, 70, 127
2, 57808, Note_off_c, 0, 48, 127
2, 58046, Note_off_c, 11, 70, 127
2, 58048, Note_on_c, 10, 69, 127
2, 58048, Note_on_c, 0, 60, 127
2, 58489, Note_off_c, 0, 60, 127
2, 58489, Note_off_c, 7, 79, 127
2, 58491, Note_on_c, 5, 77, 127
2, 58491, Note_on_c, 3, 51, 127
2, 58694, Note_off_c, 10, 69, 127
2, 58932, Note_off_c, 3, 51, 127
2, 58934, Note_on_c, 10, 69, 127
2, 58934, Note_on_c, 2, 50, 127
2, 59375, Note_off_c, 10, 69, 127
2, 59375, Note_off_c, 5, 77, 127
2, 59377, Note_on_c, 8, 80, 127
2, 59377, Note_on_c, 0, 72, 127
2, 59580, Note_off_c, 2, 50, 127
2, 59818, Note_off_c, 0, 72, 127
2, 59820, Note_on_c, 12, 71, 127
2, 59820, Note_on_c, 2, 62, 127
2, 60261, Note_off_c, 2, 62, 127
2, 60261, Note_off_c, 8, 80, 127
2, 60263, Note_on_c, 7, 79, 127
2, 60263, Note_on_c, 5, 53, 127
2, 60466, Note_off_c, 12, 71, 127
2, 60704, Note_off_c, 5, 53, 127
2, 60706, Note_on_c, 0, 60, 127
2, 60706, Note_on_c, 3, 51, 127
2, 61147, Note_off_c, 0, 60, 127
2, 61147, Note_off_c, 7, 79, 127
2, 61149, Note_on_c, 0, 72, 127
2, 61149, Note_on_c, 3, 63, 127
2, 61352, Note_off_c, 3, 51, 127
2, 61590, Note_off_c, 3, 63, 127
2, 61592, Note_on_c, 2, 62, 127
2, 61592, Note_on_c, 5, 41, 127
2, 61811, Note_off_c, 5, 41, 127
2, 61813, Note_on_c, 7, 43, 127
2, 61921, Note_off_c, 7, 43, 127
2, 61923, Note_on_c, 8, 44, 127
2, 62031, Note_off_c, 8, 44, 127
2, 62031, Note_off_c, 0, 72, 127
2, 62033, Note_on_c, 12, 71, 127
2, 62033, Note_on_c, 8, 44, 127
2, 62236, Note_off_c, 2, 62, 127
2, 62252, Note_off_c, 8, 44, 127
2, 62254, Note_on_c, 6, 42, 127
2, 62473, Note_off_c, 6, 42, 127
2, 62475, Note_on_c, 2, 62, 127
2, 62475, Note_on_c, 7, 43, 127
2, 62916, Note_off_c, 2, 62, 127
2, 62916, Note_off_c, 12, 71, 127
2, 62918, Note_on_c, 11, 70, 127
2, 62918, Note_on_c, 5, 65, 127
2, 63121, Note_off_c, 7, 43, 127
2, 63359, Note_off_c, 5, 65, 127
2, 63361, Note_on_c, 4, 64, 127
2, 63361, Note_on_c, 7, 55, 127
2, 63580, Note_off_c, 7, 55, 127
2, 63582, Note_on_c, 4, 52, 127
2, 63801, Note_off_c, 4, 52, 127
2, 63801, Note_off_c, 11, 70, 127
2, 63803, Note_on_c, 10, 69, 127
2, 63803, Note_on_c, 1, 49, 127
2, 64006, Note_off_c, 4, 64, 127
2, 64022, Note_off_c, 1, 49, 127
2, 64024, Note_on_c, 12, 47, 127
2, 64243, Note_off_c, 12, 47, 127
2, 64245, Note_on_c, 5, 65, 127
2, 64245, Note_on_c, 0, 48, 127
2, 64686, Note_off_c, 5, 65, 127
2, 64686, Note_off_c, 10, 69, 127
2, 64688, Note_on_c, 8, 68, 127
2, 64688, Note_on_c, 12, 71, 127
2, 64891, Note_off_c, 0, 48, 127
2, 65129, Note_off_c, 12, 71, 127
2, 65131, Note_on_c, 0, 72, 127
2, 65131, Note_on_c, 2, 50, 127
2, 65350, Note_off_c, 2, 50, 127
2, 65352, Note_on_c, 3, 51, 127
2, 65460, Note_off_c, 3, 51, 127
2, 65462, Note_on_c, 5, 53, 127
2, 65570, Note_off_c, 5, 53, 127
2, 65570, Note_off_c, 8, 68, 127
2, 65572, Note_on_c, 7, 67, 127
2, 65572, Note_on_c, 3, 51, 127
2, 66013, Note_off_c, 3, 51, 127
2, 66013, Note_off_c, 7, 67, 127
2, 66013, Note_off_c, 0, 72, 127
2, 66015, Note_on_c, 0, 72, 127
2, 66015, Note_on_c, 11, 70, 127
2, 66015, Note_on_c, 5, 53, 127
2, 66234, Note_off_c, 11, 70, 127
2, 66236, Note_on_c, 8, 68, 127
2, 66455, Note_off_c, 8, 68, 127
2, 66455, Note_off_c, 5, 53, 127
2, 66457, Note_on_c, 7, 67, 127
2, 66457, Note_on_c, 7, 55, 127
2, 66898, Note_off_c, 7, 55, 127
2, 66898, Note_off_c, 7, 67, 127
2, 66898, Note_off_c, 0, 72, 127
2, 66900, Note_on_c, 12, 71, 127
2, 66900, Note_on_c, 5, 65, 127
2, 66900, Note_on_c, 7, 43, 127
2, 67341, Note_off_c, 7, 43, 127
2, 67341, Note_off_c, 5, 65, 127
2, 67341, Note_off_c, 12, 71, 127
2, 67343, Note_on_c, 0, 72, 127
2, 67343, Note_on_c, 3, 63, 127
2, 67343, Note_on_c, 0, 48, 127
2, 67784, Note_off_c, 0, 48, 127
2, 67784, Note_off_c, 0, 72, 127
2, 67786, Note_on_c, 11, 70, 127
2, 67786, Note_on_c, 0, 36, 127
2, 68227, Note_off_c, 0, 36, 127
2, 68227, Note_off_c, 3, 63, 127
2, 68229, Note_on_c, 4, 64, 127
2, 68229, Note_on_c, 1, 49, 127
2, 68670, Note_off_c, 1, 49, 127
2, 68670, Note_off_c, 11, 70, 127
2, 68672, Note_on_c, 8, 68, 127
2, 68672, Note_on_c, 0, 48, 127
2, 68891, Note_off_c, 8, 68, 127
2, 68893, Note_on_c, 7, 67, 127
2, 69112, Note_off_c, 7, 67, 127
2, 69112, Note_off_c, 4, 64, 127
2, 69114, Note_on_c, 8, 68, 127
2, 69114, Note_on_c, 5, 65, 127
2, 69317, Note_off_c, 0, 48, 127
2, 69555, Note_off_c, 5, 65, 127
2, 69557, Note_on_c, 3, 63, 127
2, 69557, Note_on_c, 0, 48, 127
2, 69998, Note_off_c, 0, 48, 127
2, 69998, Note_off_c, 8, 68, 127
2, 70000, Note_on_c, 10, 69, 127
2, 70000, Note_on_c, 6, 54, 127
2, 70441, Note_off_c, 6, 54, 127
2, 70441, Note_off_c, 3, 63, 127
2, 70443, Note_on_c, 2, 62, 127
2, 70443, Note_on_c, 5, 53, 127
2, 70662, Note_off_c, 2, 62, 127
2, 70664, Note_on_c, 0, 60, 127
2, 70883, Note_off_c, 0, 60, 127
2, 70883, Note_off_c, 10, 69, 127
2, 70885, Note_on_c, 11, 70, 127
2, 70885, Note_on_c, 2, 62, 127
2, 71326, Note_off_c, 2, 62, 127
2, 71326, Note_off_c, 11, 70, 127
2, 71326, Note_off_c, 5, 53, 127
2, 71328, Note_on_c, 11, 70, 127
2, 71328, Note_on_c, 7, 67, 127
2, 71328, Note_on_c, 3, 51, 127
2, 71769, Note_off_c, 7, 67, 127
2, 71769, Note_off_c, 11, 70, 127
2, 71771, Note_on_c, 6, 78, 127
2, 71771, Note_on_c, 10, 69, 127
2, 72212, Note_off_c, 6, 78, 127
2, 72212, Note_off_c, 3, 51, 127
2, 72214, Note_on_c, 5, 77, 127
2, 72214, Note_on_c, 1, 49, 127
2, 72433, Note_off_c, 1, 49, 127
2, 72435, Note_on_c, 0, 48, 127
2, 72654, Note_off_c, 0, 48, 127
2, 72654, Note_off_c, 10, 69, 127
2, 72656, Note_on_c, 11, 70, 127
2, 72656, Note_on_c, 1, 49, 127
2, 72859, Note_off_c, 5, 77, 127
2, 73097, Note_off_c, 11, 70, 127
2, 73099, Note_on_c, 5, 65, 127
2, 73099, Note_on_c, 8, 68, 127
2, 73540, Note_off_c, 5, 65, 127
2, 73540, Note_off_c, 1, 49, 127
2, 73542, Note_on_c, 12, 71, 127
2, 73542, Note_on_c, 2, 50, 127
2, 73983, Note_off_c, 12, 71, 127
2, 73983, Note_off_c, 8, 68, 127
2, 73985, Note_on_c, 11, 70, 127
2, 73985, Note_on_c, 7, 67, 127
2, 74204, Note_off_c, 7, 67, 127
2, 74206, Note_on_c, 5, 65, 127
2, 74425, Note_off_c, 5, 65, 127
2, 74425, Note_off_c, 2, 50, 127
2, 74427, Note_on_c, 7, 67, 127
2, 74427, Note_on_c, 3, 51, 127
2, 74868, Note_off_c, 3, 51, 127
2, 74868, Note_off_c, 7, 67, 127
2, 74868, Note_off_c, 11, 70, 127
2, 74870, Note_on_c, 8, 68, 127
2, 74870, Note_on_c, 5, 65, 127
2, 74870, Note_on_c, 11, 46, 127
2, 75089, Note_off_c, 5, 65, 127
2, 75091, Note_on_c, 3, 63, 127
2, 75310, Note_off_c, 3, 63, 127
2, 75310, Note_off_c, 11, 46, 127
2, 75312, Note_on_c, 2, 62, 127
2, 75312, Note_on_c, 12, 59, 127
2, 75753, Note_off_c, 12, 59, 127
2, 75753, Note_off_c, 8, 68, 127
2, 75755, Note_on_c, 6, 66, 127
2, 75755, Note_on_c, 11, 58, 127
2, 75974, Note_off_c, 6, 66, 127
2, 75976, Note_on_c, 5, 65, 127
2, 76195, Note_off_c, 5, 65, 127
2, 76195, Note_off_c, 2, 62, 127
2, 76197, Note_on_c, 6, 66, 127
2, 76197, Note_on_c, 3, 63, 127
2, 76400, Note_off_c, 11, 58, 127
2, 76638, Note_off_c, 3, 63, 127
2, 76640, Note_on_c, 1, 61, 127
2, 76640, Note_on_c, 11, 46, 127
2, 77081, Note_off_c, 11, 46, 127
2, 77081, Note_off_c, 6, 66, 127
2, 77083, Note_on_c, 7, 67, 127
2, 77083, Note_on_c, 4, 52, 127
2, 77524, Note_off_c, 4, 52, 127
2, 77524, Note_off_c, 1, 61, 127
2, 77526, Note_on_c, 0, 60, 127
2, 77526, Note_on_c, 3, 51, 127
2, 77745, Note_off_c, 0, 60, 127
2, 77747, Note_on_c, 11, 58, 127
2, 77966, Note_off_c, 11, 58, 127
2, 77966, Note_off_c, 7, 67, 127
2, 77968, Note_on_c, 8, 68, 127
2, 77968, Note_on_c, 0, 60, 127
2, 78409, Note_off_c, 0, 60, 127
2, 78409, Note_off_c, 8, 68, 127
2, 78409, Note_off_c, 3, 51, 127
2, 78411, Note_on_c, 8, 68, 127
2, 78411, Note_on_c, 5, 65, 127
2, 78411, Note_on_c, 1, 49, 127
2, 78850, Note_off_c, 5, 65, 127
2, 78850, Note_off_c, 8, 68, 127
2, 78854, Note_on_c, 4, 76, 127
2, 78854, Note_on_c, 7, 67, 127
2, 79295, Note_off_c, 4, 76, 127
2, 79295, Note_off_c, 1, 49, 127
2, 79297, Note_on_c, 3, 75, 127
2, 79297, Note_on_c, 12, 47, 127
2, 79516, Note_off_c, 12, 47, 127
2, 79518, Note_on_c, 11, 46, 127
2, 79737, Note_off_c, 11, 46, 127
2, 79737, Note_off_c, 7, 67, 127
2, 79739, Note_on_c, 8, 68, 127
2, 79739, Note_on_c, 12, 47, 127
2, 79942, Note_off_c, 3, 75, 127
2, 80180, Note_off_c, 8, 68, 127
2, 80182, Note_on_c, 3, 63, 127
2, 80182, Note_on_c, 6, 66, 127
2, 80623, Note_off_c, 3, 63, 127
2, 80623, Note_off_c, 12, 47, 127
2, 80625, Note_on_c, 10, 69, 127
2, 80625, Note_on_c, 0, 48, 127
2, 81066, Note_off_c, 10, 69, 127
2, 81066, Note_off_c, 6, 66, 127
2, 81068, Note_on_c, 8, 68, 127
2, 81068, Note_on_c, 5, 65, 127
2, 81287, Note_off_c, 5, 65, 127
2, 81289, Note_on_c, 3, 63, 127
2, 81508, Note_off_c, 3, 63, 127
2, 81508, Note_off_c, 0, 48, 127
2, 81510, Note_on_c, 5, 65, 127
2, 81510, Note_on_c, 1, 49, 127
2, 81951, Note_off_c, 1, 49, 127
2, 81951, Note_off_c, 8, 68, 127
2, 81953, Note_on_c, 8, 68, 127
2, 81953, Note_on_c, 1, 49, 127
2, 82394, Note_off_c, 1, 49, 127
2, 82394, Note_off_c, 8, 68, 127
2, 82396, Note_on_c, 1, 73, 127
2, 82396, Note_on_c, 5, 53, 127
2, 82618, Note_off_c, 5, 65, 127
2, 82837, Note_off_c, 5, 53, 127
2, 82839, Note_on_c, 7, 67, 127
2, 82839, Note_on_c, 3, 51, 127
2, 83058, Note_off_c, 7, 67, 127
2, 83060, Note_on_c, 8, 68, 127
2, 83168, Note_off_c, 8, 68, 127
2, 83170, Note_on_c, 11, 70, 127
2, 83278, Note_off_c, 11, 70, 127
2, 83278, Note_off_c, 1, 73, 127
2, 83280, Note_on_c, 0, 72, 127
2, 83280, Note_on_c, 11, 70, 127
2, 83483, Note_off_c, 3, 51, 127
2, 83499, Note_off_c, 11, 70, 127
2, 83501, Note_on_c, 7, 67, 127
2, 83720, Note_off_c, 7, 67, 127
2, 83722, Note_on_c, 8, 68, 127
2, 83722, Note_on_c, 3, 51, 127
2, 84163, Note_off_c, 3, 51, 127
2, 84163, Note_off_c, 0, 72, 127
2, 84165, Note_on_c, 12, 71, 127
2, 84165, Note_on_c, 6, 54, 127
2, 84368, Note_off_c, 8, 68, 127
2, 84606, Note_off_c, 6, 54, 127
2, 84608, Note_on_c, 8, 68, 127
2, 84608, Note_on_c, 5, 53, 127
2, 84827, Note_off_c, 8, 68, 127
2, 84829, Note_on_c, 5, 65, 127
2, 85048, Note_off_c, 5, 65, 127
2, 85048, Note_off_c, 12, 71, 127
2, 85050, Note_on_c, 11, 70, 127
2, 85050, Note_on_c, 2, 62, 127
2, 85253, Note_off_c, 5, 53, 127
2, 85269, Note_off_c, 2, 62, 127
2, 85271, Note_on_c, 0, 60, 127
2, 85490, Note_off_c, 0, 60, 127
2, 85492, Note_on_c, 1, 61, 127
2, 85492, Note_on_c, 6, 54, 127
2, 85930, Note_off_c, 1, 61, 127
2, 85932, Note_off_c, 6, 54, 127
2, 85932, Note_off_c, 11, 70, 127
2, 85934, Note_on_c, 10, 69, 127
2, 85934, Note_on_c, 0, 60, 127
2, 86375, Note_off_c, 0, 60, 127
2, 86377, Note_on_c, 3, 63, 127
2, 86377, Note_on_c, 1, 61, 127
2, 86596, Note_off_c, 3, 63, 127
2, 86598, Note_on_c, 5, 65, 127
2, 86706, Note_off_c, 5, 65, 127
2, 86708, Note_on_c, 6, 66, 127
2, 86816, Note_off_c, 6, 66, 127
2, 86816, Note_off_c, 10, 69, 127
2, 86818, Note_on_c, 8, 68, 127
2, 86818, Note_on_c, 5, 65, 127
2, 87259, Note_off_c, 8, 68, 127
2, 87259, Note_off_c, 1, 61, 127
2, 87261, Note_on_c, 1, 73, 127
2, 87261, Note_on_c, 0, 60, 127
2, 87480, Note_off_c, 0, 60, 127
2, 87480, Note_off_c, 5, 65, 127
2, 87482, Note_on_c, 6, 66, 127
2, 87482, Note_on_c, 11, 58, 127
2, 87701, Note_off_c, 11, 58, 127
2, 87701, Note_off_c, 6, 66, 127
2, 87703, Note_on_c, 5, 65, 127
2, 87703, Note_on_c, 8, 56, 127
2, 88144, Note_off_c, 8, 56, 127
2, 88144, Note_off_c, 5, 65, 127
2, 88144, Note_off_c, 1, 73, 127
2, 88146, Note_on_c, 0, 72, 127
2, 88146, Note_on_c, 3, 63, 127
2, 88146, Note_on_c, 6, 54, 127
2, 88587, Note_off_c, 6, 54, 127
2, 88587, Note_off_c, 3, 63, 127
2, 88587, Note_off_c, 0, 72, 127
2, 88589, Note_on_c, 1, 73, 127
2, 88589, Note_on_c, 1, 61, 127
2, 88589, Note_on_c, 5, 53, 127
2, 89030, Note_off_c, 1, 73, 127
2, 89032, Note_on_c, 8, 68, 127
2, 89420, Note_off_c, 5, 53, 127
2, 89473, Note_off_c, 8, 68, 127
2, 89473, Note_off_c, 1, 61, 127
2, 89475, Note_on_c, 0, 72, 127
2, 89475, Note_on_c, 8, 68, 127
2, 89916, Note_off_c, 0, 72, 127
2, 89918, Note_on_c, 11, 70, 127
2, 89918, Note_on_c, 2, 50, 127
2, 90137, Note_off_c, 2, 50, 127
2, 90139, Note_on_c, 3, 51, 127
2, 90247, Note_off_c, 3, 51, 127
2, 90249, Note_on_c, 5, 53, 127
2, 90357, Note_off_c, 5, 53, 127
2, 90357, Note_off_c, 8, 68, 127
2, 90359, Note_on_c, 7, 67, 127
2, 90359, Note_on_c, 5, 53, 127
2, 90562, Note_off_c, 11, 70, 127
2, 90578, Note_off_c, 5, 53, 127
2, 90580, Note_on_c, 2, 50, 127
2, 90799, Note_off_c, 2, 50, 127
2, 90801, Note_on_c, 11, 70, 127
2, 90801, Note_on_c, 3, 51, 127
2, 91242, Note_off_c, 11, 70, 127
2, 91242, Note_off_c, 7, 67, 127
2, 91244, Note_on_c, 1, 73, 127
2, 91244, Note_on_c, 6, 66, 127
2, 91447, Note_off_c, 3, 51, 127
2, 91685, Note_off_c, 1, 73, 127
2, 91687, Note_on_c, 0, 72, 127
2, 91687, Note_on_c, 3, 51, 127
2, 91906, Note_off_c, 3, 51, 127
2, 91908, Note_on_c, 0, 48, 127
2, 92127, Note_off_c, 0, 48, 127
2, 92127, Note_off_c, 6, 66, 127
2, 92129, Note_on_c, 5, 65, 127
2, 92129, Note_on_c, 10, 45, 127
2, 92332, Note_off_c, 0, 72, 127
2, 92348, Note_off_c, 10, 45, 127
2, 92350, Note_on_c, 7, 43, 127
2, 92569, Note_off_c, 7, 43, 127
2, 92571, Note_on_c, 1, 73, 127
2, 92571, Note_on_c, 8, 44, 127
2, 92986, Note_off_c, 8, 44, 127
2, 93011, Note_off_c, 1, 73, 127
2, 93011, Note_off_c, 5, 65, 127
2, 93013, Note_on_c, 7, 79, 127
2, 93013, Note_on_c, 4, 64, 127
2, 93454, Note_off_c, 7, 79, 127
2, 93456, Note_on_c, 8, 80, 127
2, 93456, Note_on_c, 11, 58, 127
2, 93675, Note_off_c, 11, 58, 127
2, 93677, Note_on_c, 0, 60, 127
2, 93785, Note_off_c, 0, 60, 127
2, 93787, Note_on_c, 1, 61, 127
2, 93895, Note_off_c, 1, 61, 127
2, 93895, Note_off_c, 4, 64, 127
2, 93897, Note_on_c, 3, 63, 127
2, 93897, Note_on_c, 0, 60, 127
2, 94338, Note_off_c, 0, 60, 127
2, 94338, Note_off_c, 3, 63, 127
2, 94338, Note_off_c, 8, 80, 127
2, 94340, Note_on_c, 7, 79, 127
2, 94340, Note_on_c, 8, 68, 127
2, 94340, Note_on_c, 1, 61, 127
2, 94559, Note_off_c, 7, 79, 127
2, 94561, Note_on_c, 5, 77, 127
2, 94780, Note_off_c, 5, 77, 127
2, 94780, Note_off_c, 1, 61, 127
2, 94782, Note_on_c, 3, 75, 127
2, 94782, Note_on_c, 3, 63, 127
2, 95223, Note_off_c, 3, 63, 127
2, 95223, Note_off_c, 3, 75, 127
2, 95223, Note_off_c, 8, 68, 127
2, 95225, Note_on_c, 1, 73, 127
2, 95225, Note_on_c, 7, 67, 127
2, 95225, Note_on_c, 3, 51, 127
2, 95666, Note_off_c, 3, 51, 127
2, 95666, Note_off_c, 7, 67, 127
2, 95666, Note_off_c, 1, 73, 127
2, 95668, Note_on_c, 0, 72, 127
2, 95668, Note_on_c, 8, 68, 127
2, 95668, Note_on_c, 8, 56, 127
2, 96109, Note_off_c, 8, 68, 127
2, 96111, Note_on_c, 3, 63, 127
2, 96552, Note_off_c, 3, 63, 127
2, 96552, Note_off_c, 0, 72, 127
2, 96554, Note_on_c, 3, 75, 127
2, 96554, Note_on_c, 6, 66, 127
2, 96776, Note_off_c, 8, 56, 127
2, 96995, Note_off_c, 6, 66, 127
2, 96997, Note_on_c, 5, 65, 127
2, 96997, Note_on_c, 8, 56, 127
2, 97438, Note_off_c, 8, 56, 127
2, 97438, Note_off_c, 3, 75, 127
2, 97440, Note_on_c, 2, 74, 127
2, 97440, Note_on_c, 12, 59, 127
2, 97643, Note_off_c, 5, 65, 127
2, 97881, Note_off_c, 12, 59, 127
2, 97883, Note_on_c, 5, 65, 127
2, 97883, Note_on_c, 11, 58, 127
2, 98324, Note_off_c, 5, 65, 127
2, 98324, Note_off_c, 2, 74, 127
2, 98326, Note_on_c, 5, 77, 127
2, 98326, Note_on_c, 8, 68, 127
2, 98529, Note_off_c, 11, 58, 127
2, 98767, Note_off_c, 8, 68, 127
2, 98769, Note_on_c, 7, 67, 127
2, 98769, Note_on_c, 11, 58, 127
2, 99210, Note_off_c, 11, 58, 127
2, 99210, Note_off_c, 5, 77, 127
2, 99212, Note_on_c, 3, 75, 127
2, 99212, Note_on_c, 1, 61, 127
2, 99415, Note_off_c, 7, 67, 127
2, 99653, Note_off_c, 1, 61, 127
2, 99655, Note_on_c, 7, 67, 127
2, 99655, Note_on_c, 0, 60, 127
2, 100096, Note_off_c, 7, 67, 127
2, 100096, Note_off_c, 3, 75, 127
2, 100098, Note_on_c, 6, 78, 127
2, 100098, Note_on_c, 11, 70, 127
2, 100301, Note_off_c, 0, 60, 127
2, 100539, Note_off_c, 11, 70, 127
2, 100541, Note_on_c, 10, 69, 127
2, 100541, Note_on_c, 0, 60, 127
2, 100982, Note_off_c, 0, 60, 127
2, 100982, Note_off_c, 6, 78, 127
2, 100984, Note_on_c, 5, 77, 127
2, 100984, Note_on_c, 3, 63, 127
2, 101425, Note_off_c, 3, 63, 127
2, 101425, Note_off_c, 5, 77, 127
2, 101425, Note_off_c, 10, 69, 127
2, 101427, Note_on_c, 11, 70, 127
2, 101427, Note_on_c, 5, 65, 127
2, 101427, Note_on_c, 1, 61, 127
2, 101868, Note_off_c, 5, 65, 127
2, 101868, Note_off_c, 11, 70, 127
2, 101870, Note_on_c, 1, 73, 127
2, 101870, Note_on_c, 11, 70, 127
2, 102073, Note_off_c, 1, 61, 127
2, 102311, Note_off_c, 1, 73, 127
2, 102313, Note_on_c, 0, 72, 127
2, 102313, Note_on_c, 3, 63, 127
2, 102754, Note_off_c, 3, 63, 127
2, 102754, Note_off_c, 11, 70, 127
2, 102756, Note_on_c, 10, 69, 127
2, 102756, Note_on_c, 6, 54, 127
2, 102959, Note_off_c, 0, 72, 127
2, 103197, Note_off_c, 6, 54, 127
2, 103199, Note_on_c, 0, 72, 127
2, 103199, Note_on_c, 5, 53, 127
2, 103640, Note_off_c, 0, 72, 127
2, 103640, Note_off_c, 10, 69, 127
2, 103642, Note_on_c, 3, 75, 127
2, 103642, Note_on_c, 0, 72, 127
2, 103845, Note_off_c, 5, 53, 127
2, 104083, Note_off_c, 3, 75, 127
2, 104085, Note_on_c, 2, 74, 127
2, 104085, Note_on_c, 5, 65, 127
2, 104526, Note_off_c, 5, 65, 127
2, 104526, Note_off_c, 0, 72, 127
2, 104528, Note_on_c, 11, 70, 127
2, 104528, Note_on_c, 8, 56, 127
2, 104731, Note_off_c, 2, 74, 127
2, 104969, Note_off_c, 8, 56, 127
2, 104971, Note_on_c, 2, 74, 127
2, 104971, Note_on_c, 7, 55, 127
2, 105412, Note_off_c, 2, 74, 127
2, 105412, Note_off_c, 11, 70, 127
2, 105414, Note_on_c, 5, 77, 127
2, 105414, Note_on_c, 1, 73, 127
2, 105617, Note_off_c, 7, 55, 127
2, 105855, Note_off_c, 5, 77, 127
2, 105857, Note_on_c, 4, 76, 127
2, 105857, Note_on_c, 7, 67, 127
2, 106298, Note_off_c, 7, 67, 127
2, 106298, Note_off_c, 1, 73, 127
2, 106300, Note_on_c, 0, 72, 127
2, 106300, Note_on_c, 11, 58, 127
2, 106503, Note_off_c, 4, 76, 127
2, 106741, Note_off_c, 11, 58, 127
2, 106743, Note_on_c, 5, 65, 127
2, 106743, Note_on_c, 8, 56, 127
2, 107184, Note_off_c, 5, 65, 127
2, 107184, Note_off_c, 0, 72, 127
2, 107186, Note_on_c, 8, 68, 127
2, 107186, Note_on_c, 5, 65, 127
2, 107389, Note_off_c, 8, 56, 127
2, 107627, Note_off_c, 8, 68, 127
2, 107629, Note_on_c, 7, 67, 127
2, 107629, Note_on_c, 11, 58, 127
2, 107848, Note_off_c, 11, 58, 127
2, 107850, Note_on_c, 0, 60, 127
2, 107958, Note_off_c, 0, 60, 127
2, 107960, Note_on_c, 1, 61, 127
2, 108068, Note_off_c, 1, 61, 127
2, 108068, Note_off_c, 5, 65, 127
2, 108070, Note_on_c, 4, 64, 127
2, 108070, Note_on_c, 1, 61, 127
2, 108273, Note_off_c, 7, 67, 127
2, 108289, Note_off_c, 1, 61, 127
2, 108291, Note_on_c, 12, 59, 127
2, 108510, Note_off_c, 12, 59, 127
2, 108512, Note_on_c, 7, 67, 127
2, 108512, Note_on_c, 0, 60, 127
2, 108953, Note_off_c, 7, 67, 127
2, 108953, Note_off_c, 4, 64, 127
2, 108955, Note_on_c, 11, 70, 127
2, 108955, Note_on_c, 3, 63, 127
2, 109158, Note_off_c, 0, 60, 127
2, 109396, Note_off_c, 11, 70, 127
2, 109398, Note_on_c, 10, 69, 127
2, 109398, Note_on_c, 0, 60, 127
2, 109617, Note_off_c, 0, 60, 127
2, 109619, Note_on_c, 10, 57, 127
2, 109838, Note_off_c, 10, 57, 127
2, 109838, Note_off_c, 3, 63, 127
2, 109840, Note_on_c, 2, 62, 127
2, 109840, Note_on_c, 6, 54, 127
2, 110043, Note_off_c, 10, 69, 127
2, 110059, Note_off_c, 6, 54, 127
2, 110061, Note_on_c, 4, 52, 127
2, 110280, Note_off_c, 4, 52, 127
2, 110282, Note_on_c, 11, 70, 127
2, 110282, Note_on_c, 5, 53, 127
2, 110723, Note_off_c, 11, 70, 127
2, 110723, Note_off_c, 2, 62, 127
2, 110725, Note_on_c, 4, 76, 127
2, 110725, Note_on_c, 1, 61, 127
2, 110928, Note_off_c, 5, 53, 127
2, 111166, Note_off_c, 4, 76, 127
2, 111168, Note_on_c, 5, 77, 127
2, 111168, Note_on_c, 7, 55, 127
2, 111387, Note_off_c, 7, 55, 127
2, 111389, Note_on_c, 8, 56, 127
2, 111497, Note_off_c, 8, 56, 127
2, 111499, Note_on_c, 11, 58, 127
2, 111607, Note_off_c, 11, 58, 127
2, 111607, Note_off_c, 1, 61, 127
2, 111609, Note_on_c, 0, 60, 127
2, 111609, Note_on_c, 8, 56, 127
2, 112050, Note_off_c, 8, 56, 127
2, 112050, Note_off_c, 0, 60, 127
2, 112050, Note_off_c, 5, 77, 127
2, 112052, Note_on_c, 3, 75, 127
2, 112052, Note_on_c, 5, 65, 127
2, 112052, Note_on_c, 11, 58, 127
2, 112271, Note_off_c, 3, 75, 127
2, 112273, Note_on_c, 1, 73, 127
2, 112492, Note_off_c, 1, 73, 127
2, 112492, Note_off_c, 11, 58, 127
2, 112494, Note_on_c, 0, 72, 127
2, 112494, Note_on_c, 0, 60, 127
2, 112935, Note_off_c, 0, 60, 127
2, 112935, Note_off_c, 0, 72, 127
2, 112935, Note_off_c, 5, 65, 127
2, 112937, Note_on_c, 11, 70, 127
2, 112937, Note_on_c, 4, 64, 127
2, 112937, Note_on_c, 0, 48, 127
2, 113378, Note_off_c, 0, 48, 127
2, 113378, Note_off_c, 4, 64, 127
2, 113378, Note_off_c, 11, 70, 127
2, 113380, Note_on_c, 8, 68, 127
2, 113380, Note_on_c, 5, 65, 127
2, 113380, Note_on_c, 5, 41, 127
2, 113829, Note_off_c, 5, 65, 127
2, 113831, Note_on_c, 5, 53, 127
2, 114280, Note_off_c, 5, 53, 127
2, 114280, Note_off_c, 5, 41, 127
2, 114282, Note_on_c, 8, 56, 127
2, 114282, Note_on_c, 5, 53, 127
2, 114508, Note_off_c, 8, 68, 127
2, 114732, Note_off_c, 8, 56, 127
2, 114734, Note_on_c, 11, 70, 127
2, 114734, Note_on_c, 7, 55, 127
2, 114958, Note_off_c, 11, 70, 127
2, 114960, Note_on_c, 0, 72, 127
2, 115071, Note_off_c, 0, 72, 127
2, 115073, Note_on_c, 1, 73, 127
2, 115184, Note_off_c, 1, 73, 127
2, 115184, Note_off_c, 5, 53, 127
2, 115186, Note_on_c, 1, 73, 127
2, 115186, Note_on_c, 4, 52, 127
2, 115393, Note_off_c, 7, 55, 127
2, 115409, Note_off_c, 1, 73, 127
2, 115411, Note_on_c, 12, 71, 127
2, 115635, Note_off_c, 12, 71, 127
2, 115637, Note_on_c, 0, 72, 127
2, 115637, Note_on_c, 7, 55, 127
2, 116086, Note_off_c, 7, 55, 127
2, 116086, Note_off_c, 4, 52, 127
2, 116088, Note_on_c, 11, 58, 127
2, 116088, Note_on_c, 3, 51, 127
2, 116295, Note_off_c, 0, 72, 127
2, 116537, Note_off_c, 11, 58, 127
2, 116539, Note_on_c, 0, 84, 127
2, 116539, Note_on_c, 10, 57, 127
2, 116763, Note_off_c, 0, 84, 127
2, 116765, Note_on_c, 10, 81, 127
2, 116989, Note_off_c, 10, 81, 127
2, 116989, Note_off_c, 3, 51, 127
2, 116991, Note_on_c, 6, 78, 127
2, 116991, Note_on_c, 2, 50, 127
2, 117198, Note_off_c, 10, 57, 127
2, 117214, Note_off_c, 6, 78, 127
2, 117216, Note_on_c, 4, 76, 127
2, 117440, Note_off_c, 4, 76, 127
2, 117442, Note_on_c, 5, 77, 127
2, 117442, Note_on_c, 11, 58, 127
2, 117891, Note_off_c, 11, 58, 127
2, 117891, Note_off_c, 2, 50, 127
2, 117893, Note_on_c, 4, 64, 127
2, 117893, Note_on_c, 1, 49, 127
2, 118351, Note_off_c, 4, 64, 127
2, 118351, Note_off_c, 5, 77, 127
2, 118353, Note_on_c, 7, 67, 127
2, 118353, Note_on_c, 5, 65, 127
2, 118581, Note_off_c, 7, 67, 127
2, 118583, Note_on_c, 8, 68, 127
2, 118696, Note_off_c, 8, 68, 127
2, 118698, Note_on_c, 11, 70, 127
2, 118811, Note_off_c, 11, 70, 127
2, 118811, Note_off_c, 1, 49, 127
2, 118813, Note_on_c, 8, 68, 127
2, 118813, Note_on_c, 0, 48, 127
2, 119271, Note_off_c, 0, 48, 127
2, 119271, Note_off_c, 5, 65, 127
2, 119273, Note_on_c, 3, 63, 127
2, 119273, Note_on_c, 11, 46, 127
2, 119501, Note_off_c, 3, 63, 127
2, 119501, Note_off_c, 8, 68, 127
2, 119503, Note_on_c, 7, 67, 127
2, 119503, Note_on_c, 1, 61, 127
2, 119731, Note_off_c, 1, 61, 127
2, 119731, Note_off_c, 7, 67, 127
2, 119731, Note_off_c, 11, 46, 127
2, 119733, Note_on_c, 5, 65, 127
2, 119733, Note_on_c, 0, 60, 127
2, 119733, Note_on_c, 0, 48, 127
2, 119905, Note_off_c, 5, 65, 127
2, 119908, Note_on_c, 4, 64, 127
2, 119993, Note_off_c, 4, 64, 127
2, 119996, Note_on_c, 5, 65, 127
2, 120081, Note_off_c, 5, 65, 127
2, 120084, Note_on_c, 4, 64, 127
2, 120169, Note_off_c, 4, 64, 127
2, 120172, Note_on_c, 5, 65, 127
2, 120257, Note_off_c, 5, 65, 127
2, 120257, Note_off_c, 0, 48, 127
2, 120257, Note_off_c, 0, 60, 127
2, 120260, Note_on_c, 4, 64, 127
2, 120260, Note_on_c, 11, 58, 127
2, 120260, Note_on_c, 0, 36, 127
2, 120519, Note_off_c, 4, 64, 127
2, 120522, Note_on_c, 5, 65, 127
2, 120781, Note_off_c, 0, 36, 127
2, 120781, Note_off_c, 11, 58, 127
2, 120795, Note_off_c, 5, 65, 127
2, 120817, Note_on_c, 5, 65, 127
2, 120817, Note_on_c, 10, 57, 127
2, 120817, Note_on_c, 5, 41, 127
2, 123926, Note_off_c, 5, 41, 127
2, 123926, Note_off_c, 10, 57, 127
2, 123926, Note_off_c, 5, 65, 127
2, 129024, End_track
3, 0, Start_track
3, 0, Title_t, "MIDI"
3, 1536, End_track
0, 0, End_of_file
