0, 0, Header, 1, 3, 384
1, 0, Start_track
1, 0, Tempo, 500000
1, 0, Time_signature, 4, 2, 24, 8
1, 72192, End_track
2, 0, Start_track
2, 0, Text_t, "harpsichord: John Sankey"
2, 0, Program_c, 0, 6
2, 0, Pitch_bend_c, 0, 8192
2, 0, Program_c, 1, 6
2, 0, Pitch_bend_c, 1, 7792
2, 0, Program_c, 2, 6
2, 0, Pitch_bend_c, 2, 7876
2, 0, Program_c, 3, 6
2, 0, Pitch_bend_c, 3, 7952
2, 0, Program_c, 4, 6
2, 0, Pitch_bend_c, 4, 7792
2, 0, Program_c, 5, 6
2, 0, Pitch_bend_c, 5, 8112
2, 0, Program_c, 6, 6
2, 0, Pitch_bend_c, 6, 7712
2, 0, Program_c, 7, 6
2, 0, Pitch_bend_c, 7, 8037
2, 0, Program_c, 8, 6
2, 0, Pitch_bend_c, 8, 7872
2, 0, Program_c, 10, 6
2, 0, Pitch_bend_c, 10, 7712
2, 0, Program_c, 11, 6
2, 0, Pitch_bend_c, 11, 8032
2, 0, Program_c, 12, 6
2, 0, Pitch_bend_c, 12, 7872
2, 0, Title_t, "Track 1"
2, 48, Note_on_c, 2, 62, 127
2, 377, Note_on_c, 6, 78, 127
2, 540, Note_off_c, 6, 78, 127
2, 542, Note_on_c, 7, 79, 127
2, 705, Note_off_c, 7, 79, 127
2, 707, Note_on_c, 10, 81, 127
2, 872, Note_off_c, 2, 62, 127
2, 1035, Note_off_c, 10, 81, 127
2, 1037, Note_on_c, 6, 54, 127
2, 1037, Note_on_c, 0, 72, 127
2, 1364, Note_off_c, 0, 72, 127
2, 1364, Note_off_c, 6, 54, 127
2, 1366, Note_on_c, 7, 55, 127
2, 1366, Note_on_c, 12, 71, 127
2, 1693, Note_off_c, 12, 71, 127
2, 1695, Note_on_c, 4, 76, 127
2, 1858, Note_off_c, 4, 76, 127
2, 1860, Note_on_c, 6, 78, 127
2, 2023, Note_off_c, 6, 78, 127
2, 2025, Note_on_c, 7, 79, 127
2, 2190, Note_off_c, 7, 55, 127
2, 2353, Note_off_c, 7, 79, 127
2, 2355, Note_on_c, 4, 52, 127
2, 2355, Note_on_c, 12, 71, 127
2, 2682, Note_off_c, 12, 71, 127
2, 2682, Note_off_c, 4, 52, 127
2, 2684, Note_on_c, 6, 54, 127
2, 2684, Note_on_c, 10, 69, 127
2, 3011, Note_off_c, 10, 69, 127
2, 3013, Note_on_c, 2, 74, 127
2, 3176, Note_off_c, 2, 74, 127
2, 3178, Note_on_c, 4, 76, 127
2, 3341, Note_off_c, 4, 76, 127
2, 3343, Note_on_c, 6, 78, 127
2, 3508, Note_off_c, 6, 54, 127
2, 3671, Note_off_c, 6, 78, 127
2, 3673, Note_on_c, 2, 50, 127
2, 3673, Note_on_c, 10, 69, 127
2, 3992, Note_off_c, 10, 69, 127
2, 4000, Note_off_c, 2, 50, 127
2, 4002, Note_on_c, 12, 59, 127
2, 4002, Note_on_c, 7, 67, 127
2, 4165, Note_off_c, 7, 67, 127
2, 4167, Note_on_c, 6, 78, 127
2, 4330, Note_off_c, 6, 78, 127
2, 4330, Note_off_c, 12, 59, 127
2, 4332, Note_on_c, 7, 55, 127
2, 4332, Note_on_c, 4, 76, 127
2, 4495, Note_off_c, 4, 76, 127
2, 4497, Note_on_c, 2, 74, 127
2, 4660, Note_off_c, 2, 74, 127
2, 4660, Note_off_c, 7, 55, 127
2, 4662, Note_on_c, 10, 57, 127
2, 4662, Note_on_c, 1, 73, 127
2, 4825, Note_off_c, 1, 73, 127
2, 4827, Note_on_c, 12, 83, 127
2, 4990, Note_off_c, 12, 83, 127
2, 4990, Note_off_c, 10, 57, 127
2, 4992, Note_on_c, 10, 45, 127
2, 4992, Note_on_c, 10, 81, 127
2, 5155, Note_off_c, 10, 81, 127
2, 5157, Note_on_c, 7, 79, 127
2, 5320, Note_off_c, 7, 79, 127
2, 5320, Note_off_c, 10, 45, 127
2, 5322, Note_on_c, 2, 50, 127
2, 5322, Note_on_c, 6, 78, 127
2, 5485, Note_off_c, 6, 78, 127
2, 5487, Note_on_c, 4, 76, 127
2, 5650, Note_off_c, 4, 76, 127
2, 5650, Note_off_c, 2, 50, 127
2, 5652, Note_on_c, 2, 62, 127
2, 5652, Note_on_c, 2, 74, 127
2, 5815, Note_off_c, 2, 74, 127
2, 5817, Note_on_c, 4, 76, 127
2, 5980, Note_off_c, 4, 76, 127
2, 5980, Note_off_c, 2, 62, 127
2, 5982, Note_on_c, 1, 61, 127
2, 5982, Note_on_c, 6, 78, 127
2, 6145, Note_off_c, 6, 78, 127
2, 6147, Note_on_c, 4, 76, 127
2, 6310, Note_off_c, 4, 76, 127
2, 6310, Note_off_c, 1, 61, 127
2, 6312, Note_on_c, 12, 59, 127
2, 6312, Note_on_c, 6, 78, 127
2, 6475, Note_off_c, 6, 78, 127
2, 6477, Note_on_c, 8, 80, 127
2, 6640, Note_off_c, 8, 80, 127
2, 6640, Note_off_c, 12, 59, 127
2, 6642, Note_on_c, 10, 57, 127
2, 6642, Note_on_c, 10, 81, 127
2, 6805, Note_off_c, 10, 57, 127
2, 6807, Note_on_c, 8, 56, 127
2, 6970, Note_off_c, 8, 56, 127
2, 6972, Note_on_c, 10, 57, 127
2, 6972, Note_on_c, 1, 73, 127
2, 7135, Note_off_c, 1, 73, 127
2, 7135, Note_off_c, 10, 57, 127
2, 7137, Note_on_c, 12, 59, 127
2, 7137, Note_on_c, 2, 74, 127
2, 7295, Note_off_c, 10, 81, 127
2, 7300, Note_off_c, 2, 74, 127
2, 7300, Note_off_c, 12, 59, 127
2, 7302, Note_on_c, 1, 61, 127
2, 7302, Note_on_c, 4, 76, 127
2, 7465, Note_off_c, 1, 61, 127
2, 7467, Note_on_c, 2, 62, 127
2, 7630, Note_off_c, 2, 62, 127
2, 7632, Note_on_c, 1, 61, 127
2, 7632, Note_on_c, 7, 67, 127
2, 7795, Note_off_c, 1, 61, 127
2, 7797, Note_on_c, 12, 59, 127
2, 7960, Note_off_c, 12, 59, 127
2, 7960, Note_off_c, 7, 67, 127
2, 7962, Note_on_c, 11, 58, 127
2, 7962, Note_on_c, 6, 66, 127
2, 8125, Note_off_c, 11, 58, 127
2, 8127, Note_on_c, 6, 54, 127
2, 8290, Note_off_c, 6, 54, 127
2, 8290, Note_off_c, 6, 66, 127
2, 8292, Note_on_c, 8, 56, 127
2, 8292, Note_on_c, 12, 71, 127
2, 8455, Note_off_c, 12, 71, 127
2, 8455, Note_off_c, 8, 56, 127
2, 8457, Note_on_c, 11, 58, 127
2, 8457, Note_on_c, 1, 73, 127
2, 8620, Note_off_c, 1, 73, 127
2, 8620, Note_off_c, 11, 58, 127
2, 8620, Note_off_c, 4, 76, 127
2, 8622, Note_on_c, 12, 59, 127
2, 8622, Note_on_c, 2, 74, 127
2, 8785, Note_off_c, 12, 59, 127
2, 8787, Note_on_c, 1, 61, 127
2, 8950, Note_off_c, 1, 61, 127
2, 8952, Note_on_c, 12, 59, 127
2, 8952, Note_on_c, 6, 66, 127
2, 9115, Note_off_c, 12, 59, 127
2, 9117, Note_on_c, 10, 57, 127
2, 9280, Note_off_c, 10, 57, 127
2, 9280, Note_off_c, 6, 66, 127
2, 9282, Note_on_c, 8, 56, 127
2, 9282, Note_on_c, 4, 64, 127
2, 9445, Note_off_c, 8, 56, 127
2, 9447, Note_on_c, 4, 52, 127
2, 9610, Note_off_c, 4, 52, 127
2, 9610, Note_off_c, 4, 64, 127
2, 9612, Note_on_c, 6, 54, 127
2, 9612, Note_on_c, 10, 69, 127
2, 9775, Note_off_c, 10, 69, 127
2, 9775, Note_off_c, 6, 54, 127
2, 9777, Note_on_c, 8, 56, 127
2, 9777, Note_on_c, 12, 71, 127
2, 9940, Note_off_c, 12, 71, 127
2, 9940, Note_off_c, 8, 56, 127
2, 9940, Note_off_c, 2, 74, 127
2, 9942, Note_on_c, 10, 57, 127
2, 9942, Note_on_c, 1, 73, 127
2, 10105, Note_off_c, 10, 57, 127
2, 10107, Note_on_c, 12, 59, 127
2, 10270, Note_off_c, 12, 59, 127
2, 10272, Note_on_c, 10, 57, 127
2, 10272, Note_on_c, 4, 64, 127
2, 10435, Note_off_c, 10, 57, 127
2, 10437, Note_on_c, 7, 55, 127
2, 10600, Note_off_c, 7, 55, 127
2, 10600, Note_off_c, 4, 64, 127
2, 10602, Note_on_c, 6, 54, 127
2, 10602, Note_on_c, 2, 62, 127
2, 10765, Note_off_c, 2, 62, 127
2, 10767, Note_off_c, 1, 73, 127
2, 10767, Note_on_c, 1, 73, 127
2, 10767, Note_on_c, 4, 76, 127
2, 10930, Note_off_c, 4, 76, 127
2, 10930, Note_off_c, 1, 73, 127
2, 10930, Note_off_c, 6, 54, 127
2, 10932, Note_on_c, 2, 50, 127
2, 10932, Note_on_c, 12, 71, 127
2, 10932, Note_on_c, 2, 74, 127
2, 11095, Note_off_c, 2, 74, 127
2, 11095, Note_off_c, 12, 71, 127
2, 11097, Note_on_c, 10, 69, 127
2, 11097, Note_on_c, 1, 73, 127
2, 11260, Note_off_c, 1, 73, 127
2, 11260, Note_off_c, 10, 69, 127
2, 11260, Note_off_c, 2, 50, 127
2, 11262, Note_on_c, 4, 52, 127
2, 11262, Note_on_c, 8, 68, 127
2, 11262, Note_on_c, 12, 71, 127
2, 11425, Note_off_c, 8, 68, 127
2, 11427, Note_on_c, 6, 78, 127
2, 11590, Note_off_c, 6, 78, 127
2, 11590, Note_off_c, 12, 71, 127
2, 11590, Note_off_c, 4, 52, 127
2, 11592, Note_on_c, 4, 40, 127
2, 11592, Note_on_c, 4, 76, 127
2, 11592, Note_on_c, 8, 80, 127
2, 11755, Note_off_c, 4, 76, 127
2, 11757, Note_on_c, 2, 74, 127
2, 11920, Note_off_c, 2, 74, 127
2, 11920, Note_off_c, 8, 80, 127
2, 11920, Note_off_c, 4, 40, 127
2, 11922, Note_on_c, 10, 45, 127
2, 11922, Note_on_c, 1, 73, 127
2, 11922, Note_on_c, 10, 81, 127
2, 12085, Note_off_c, 1, 73, 127
2, 12085, Note_off_c, 10, 45, 127
2, 12087, Note_on_c, 12, 47, 127
2, 12087, Note_on_c, 12, 71, 127
2, 12250, Note_off_c, 12, 71, 127
2, 12250, Note_off_c, 12, 47, 127
2, 12252, Note_on_c, 1, 49, 127
2, 12252, Note_on_c, 10, 69, 127
2, 12415, Note_off_c, 10, 69, 127
2, 12415, Note_off_c, 1, 49, 127
2, 12417, Note_on_c, 2, 50, 127
2, 12417, Note_on_c, 12, 71, 127
2, 12580, Note_off_c, 12, 71, 127
2, 12580, Note_off_c, 2, 50, 127
2, 12582, Note_on_c, 4, 52, 127
2, 12582, Note_on_c, 1, 73, 127
2, 12745, Note_off_c, 1, 73, 127
2, 12745, Note_off_c, 4, 52, 127
2, 12747, Note_on_c, 6, 54, 127
2, 12747, Note_on_c, 10, 69, 127
2, 12910, Note_off_c, 10, 69, 127
2, 12910, Note_off_c, 6, 54, 127
2, 12912, Note_on_c, 7, 55, 127
2, 12912, Note_on_c, 12, 71, 127
2, 13075, Note_off_c, 12, 71, 127
2, 13075, Note_off_c, 7, 55, 127
2, 13077, Note_on_c, 4, 52, 127
2, 13077, Note_on_c, 1, 73, 127
2, 13240, Note_off_c, 1, 73, 127
2, 13240, Note_off_c, 4, 52, 127
2, 13242, Note_on_c, 6, 54, 127
2, 13242, Note_on_c, 2, 74, 127
2, 13405, Note_off_c, 6, 54, 127
2, 13405, Note_off_c, 10, 81, 127
2, 13407, Note_on_c, 4, 52, 127
2, 13407, Note_on_c, 1, 73, 127
2, 13568, Note_off_c, 2, 74, 127
2, 13570, Note_off_c, 1, 73, 127
2, 13570, Note_off_c, 4, 52, 127
2, 13572, Note_on_c, 6, 54, 127
2, 13572, Note_on_c, 2, 74, 127
2, 13735, Note_off_c, 2, 74, 127
2, 13735, Note_off_c, 6, 54, 127
2, 13737, Note_on_c, 7, 55, 127
2, 13737, Note_on_c, 4, 76, 127
2, 13900, Note_off_c, 4, 76, 127
2, 13900, Note_off_c, 7, 55, 127
2, 13902, Note_on_c, 10, 57, 127
2, 13902, Note_on_c, 10, 69, 127
2, 13902, Note_on_c, 6, 78, 127
2, 14065, Note_off_c, 6, 78, 127
2, 14067, Note_on_c, 7, 79, 127
2, 14230, Note_off_c, 7, 79, 127
2, 14230, Note_off_c, 10, 57, 127
2, 14232, Note_on_c, 0, 48, 127
2, 14232, Note_on_c, 6, 78, 127
2, 14395, Note_off_c, 6, 78, 127
2, 14397, Note_on_c, 4, 76, 127
2, 14560, Note_off_c, 4, 76, 127
2, 14560, Note_off_c, 0, 48, 127
2, 14562, Note_on_c, 12, 47, 127
2, 14562, Note_on_c, 3, 75, 127
2, 14725, Note_off_c, 3, 75, 127
2, 14727, Note_on_c, 12, 71, 127
2, 14890, Note_off_c, 12, 71, 127
2, 14890, Note_off_c, 12, 47, 127
2, 14892, Note_on_c, 4, 52, 127
2, 14892, Note_on_c, 1, 73, 127
2, 15055, Note_off_c, 1, 73, 127
2, 15055, Note_off_c, 4, 52, 127
2, 15057, Note_on_c, 6, 54, 127
2, 15057, Note_on_c, 3, 75, 127
2, 15220, Note_off_c, 3, 75, 127
2, 15220, Note_off_c, 6, 54, 127
2, 15220, Note_off_c, 10, 69, 127
2, 15222, Note_on_c, 7, 55, 127
2, 15222, Note_on_c, 7, 67, 127
2, 15222, Note_on_c, 4, 76, 127
2, 15385, Note_off_c, 4, 76, 127
2, 15387, Note_on_c, 6, 78, 127
2, 15550, Note_off_c, 6, 78, 127
2, 15550, Note_off_c, 7, 55, 127
2, 15552, Note_on_c, 12, 47, 127
2, 15552, Note_on_c, 4, 76, 127
2, 15715, Note_off_c, 4, 76, 127
2, 15717, Note_on_c, 2, 74, 127
2, 15880, Note_off_c, 2, 74, 127
2, 15880, Note_off_c, 12, 47, 127
2, 15882, Note_on_c, 10, 45, 127
2, 15882, Note_on_c, 1, 73, 127
2, 16045, Note_off_c, 1, 73, 127
2, 16047, Note_on_c, 10, 69, 127
2, 16210, Note_off_c, 10, 69, 127
2, 16210, Note_off_c, 10, 45, 127
2, 16212, Note_on_c, 2, 50, 127
2, 16212, Note_on_c, 12, 71, 127
2, 16375, Note_off_c, 12, 71, 127
2, 16375, Note_off_c, 2, 50, 127
2, 16377, Note_on_c, 4, 52, 127
2, 16377, Note_on_c, 1, 73, 127
2, 16540, Note_off_c, 1, 73, 127
2, 16540, Note_off_c, 4, 52, 127
2, 16540, Note_off_c, 7, 67, 127
2, 16542, Note_on_c, 6, 54, 127
2, 16542, Note_on_c, 6, 66, 127
2, 16542, Note_on_c, 2, 74, 127
2, 16705, Note_off_c, 2, 74, 127
2, 16707, Note_on_c, 4, 76, 127
2, 16870, Note_off_c, 4, 76, 127
2, 16870, Note_off_c, 6, 54, 127
2, 16872, Note_on_c, 10, 45, 127
2, 16872, Note_on_c, 2, 74, 127
2, 17035, Note_off_c, 2, 74, 127
2, 17037, Note_on_c, 1, 73, 127
2, 17200, Note_off_c, 1, 73, 127
2, 17200, Note_off_c, 10, 45, 127
2, 17202, Note_on_c, 7, 43, 127
2, 17202, Note_on_c, 12, 71, 127
2, 17365, Note_off_c, 7, 43, 127
2, 17365, Note_off_c, 6, 66, 127
2, 17367, Note_on_c, 6, 54, 127
2, 17367, Note_on_c, 10, 69, 127
2, 17530, Note_off_c, 10, 69, 127
2, 17530, Note_off_c, 6, 54, 127
2, 17532, Note_on_c, 4, 52, 127
2, 17532, Note_on_c, 7, 67, 127
2, 17695, Note_off_c, 7, 67, 127
2, 17695, Note_off_c, 4, 52, 127
2, 17697, Note_on_c, 2, 50, 127
2, 17697, Note_on_c, 6, 66, 127
2, 17802, Note_off_c, 12, 71, 127
2, 17860, Note_off_c, 6, 66, 127
2, 17860, Note_off_c, 2, 50, 127
2, 17862, Note_on_c, 1, 49, 127
2, 17862, Note_on_c, 4, 64, 127
2, 17862, Note_on_c, 4, 76, 127
2, 18025, Note_off_c, 4, 64, 127
2, 18025, Note_off_c, 1, 49, 127
2, 18027, Note_on_c, 12, 59, 127
2, 18027, Note_on_c, 2, 74, 127
2, 18190, Note_off_c, 2, 74, 127
2, 18190, Note_off_c, 12, 59, 127
2, 18192, Note_on_c, 10, 57, 127
2, 18192, Note_on_c, 1, 73, 127
2, 18355, Note_off_c, 1, 73, 127
2, 18355, Note_off_c, 10, 57, 127
2, 18357, Note_on_c, 7, 55, 127
2, 18357, Note_on_c, 12, 71, 127
2, 18520, Note_off_c, 12, 71, 127
2, 18520, Note_off_c, 7, 55, 127
2, 18522, Note_on_c, 6, 54, 127
2, 18522, Note_on_c, 10, 69, 127
2, 18685, Note_off_c, 10, 69, 127
2, 18685, Note_off_c, 6, 54, 127
2, 18687, Note_on_c, 4, 52, 127
2, 18687, Note_on_c, 7, 67, 127
2, 18850, Note_off_c, 7, 67, 127
2, 18850, Note_off_c, 4, 52, 127
2, 18850, Note_off_c, 4, 76, 127
2, 18852, Note_on_c, 2, 50, 127
2, 18852, Note_on_c, 6, 66, 127
2, 18852, Note_on_c, 10, 69, 127
2, 19015, Note_off_c, 6, 66, 127
2, 19015, Note_off_c, 2, 50, 127
2, 19017, Note_on_c, 4, 52, 127
2, 19017, Note_on_c, 7, 67, 127
2, 19180, Note_off_c, 7, 67, 127
2, 19180, Note_off_c, 4, 52, 127
2, 19180, Note_off_c, 10, 69, 127
2, 19182, Note_on_c, 6, 54, 127
2, 19182, Note_on_c, 10, 69, 127
2, 19182, Note_on_c, 2, 74, 127
2, 19345, Note_off_c, 10, 69, 127
2, 19345, Note_off_c, 6, 54, 127
2, 19347, Note_on_c, 4, 52, 127
2, 19347, Note_on_c, 8, 68, 127
2, 19510, Note_off_c, 8, 68, 127
2, 19510, Note_off_c, 4, 52, 127
2, 19512, Note_on_c, 6, 54, 127
2, 19512, Note_on_c, 10, 69, 127
2, 19675, Note_off_c, 10, 69, 127
2, 19675, Note_off_c, 6, 54, 127
2, 19675, Note_off_c, 2, 74, 127
2, 19677, Note_on_c, 8, 56, 127
2, 19677, Note_on_c, 12, 71, 127
2, 19677, Note_on_c, 4, 76, 127
2, 19840, Note_off_c, 4, 76, 127
2, 19840, Note_off_c, 12, 71, 127
2, 19840, Note_off_c, 8, 56, 127
2, 19842, Note_on_c, 10, 57, 127
2, 19842, Note_on_c, 4, 64, 127
2, 19842, Note_on_c, 1, 73, 127
2, 20005, Note_off_c, 1, 73, 127
2, 20007, Note_on_c, 12, 71, 127
2, 20170, Note_off_c, 12, 71, 127
2, 20170, Note_off_c, 10, 57, 127
2, 20172, Note_on_c, 4, 52, 127
2, 20172, Note_on_c, 10, 69, 127
2, 20335, Note_off_c, 10, 69, 127
2, 20337, Note_on_c, 12, 71, 127
2, 20500, Note_off_c, 12, 71, 127
2, 20500, Note_off_c, 4, 52, 127
2, 20502, Note_on_c, 10, 57, 127
2, 20502, Note_on_c, 1, 73, 127
2, 20583, Note_off_c, 10, 57, 127
2, 20585, Note_on_c, 8, 56, 127
2, 20666, Note_off_c, 8, 56, 127
2, 20666, Note_off_c, 1, 73, 127
2, 20668, Note_on_c, 10, 57, 127
2, 20668, Note_on_c, 12, 71, 127
2, 20831, Note_off_c, 12, 71, 127
2, 20833, Note_on_c, 1, 73, 127
2, 20996, Note_off_c, 1, 73, 127
2, 20996, Note_off_c, 10, 57, 127
2, 20998, Note_on_c, 12, 59, 127
2, 20998, Note_on_c, 3, 75, 127
2, 21161, Note_off_c, 3, 75, 127
2, 21161, Note_off_c, 12, 59, 127
2, 21163, Note_on_c, 7, 55, 127
2, 21163, Note_on_c, 4, 76, 127
2, 21326, Note_off_c, 7, 55, 127
2, 21328, Note_on_c, 6, 54, 127
2, 21491, Note_off_c, 6, 54, 127
2, 21491, Note_off_c, 4, 76, 127
2, 21491, Note_off_c, 4, 64, 127
2, 21493, Note_on_c, 4, 52, 127
2, 21493, Note_on_c, 7, 67, 127
2, 21493, Note_on_c, 12, 71, 127
2, 21656, Note_off_c, 7, 67, 127
2, 21656, Note_off_c, 4, 52, 127
2, 21658, Note_on_c, 6, 54, 127
2, 21658, Note_on_c, 10, 69, 127
2, 21821, Note_off_c, 10, 69, 127
2, 21821, Note_off_c, 6, 54, 127
2, 21821, Note_off_c, 12, 71, 127
2, 21823, Note_on_c, 7, 55, 127
2, 21823, Note_on_c, 12, 71, 127
2, 21823, Note_on_c, 4, 76, 127
2, 21986, Note_off_c, 12, 71, 127
2, 21986, Note_off_c, 7, 55, 127
2, 21988, Note_on_c, 6, 54, 127
2, 21988, Note_on_c, 10, 69, 127
2, 22151, Note_off_c, 10, 69, 127
2, 22151, Note_off_c, 6, 54, 127
2, 22153, Note_on_c, 7, 55, 127
2, 22153, Note_on_c, 12, 71, 127
2, 22316, Note_off_c, 12, 71, 127
2, 22316, Note_off_c, 7, 55, 127
2, 22316, Note_off_c, 4, 76, 127
2, 22318, Note_on_c, 10, 57, 127
2, 22318, Note_on_c, 1, 73, 127
2, 22318, Note_on_c, 6, 78, 127
2, 22481, Note_off_c, 6, 78, 127
2, 22481, Note_off_c, 1, 73, 127
2, 22481, Note_off_c, 10, 57, 127
2, 22483, Note_on_c, 12, 59, 127
2, 22483, Note_on_c, 6, 66, 127
2, 22483, Note_on_c, 2, 74, 127
2, 22646, Note_off_c, 2, 74, 127
2, 22648, Note_on_c, 1, 73, 127
2, 22811, Note_off_c, 1, 73, 127
2, 22811, Note_off_c, 12, 59, 127
2, 22813, Note_on_c, 10, 57, 127
2, 22813, Note_on_c, 12, 71, 127
2, 22976, Note_off_c, 12, 71, 127
2, 22978, Note_on_c, 1, 73, 127
2, 23141, Note_off_c, 1, 73, 127
2, 23141, Note_off_c, 10, 57, 127
2, 23141, Note_off_c, 6, 66, 127
2, 23143, Note_on_c, 7, 55, 127
2, 23143, Note_on_c, 12, 59, 127
2, 23143, Note_on_c, 2, 74, 127
2, 23306, Note_off_c, 2, 74, 127
2, 23308, Note_on_c, 1, 73, 127
2, 23471, Note_off_c, 1, 73, 127
2, 23473, Note_on_c, 2, 74, 127
2, 23636, Note_off_c, 2, 74, 127
2, 23638, Note_on_c, 4, 76, 127
2, 23801, Note_off_c, 4, 76, 127
2, 23801, Note_off_c, 7, 55, 127
2, 23803, Note_on_c, 6, 54, 127
2, 23803, Note_on_c, 6, 78, 127
2, 23966, Note_off_c, 6, 78, 127
2, 23966, Note_off_c, 12, 59, 127
2, 23968, Note_on_c, 11, 58, 127
2, 23968, Note_on_c, 4, 76, 127
2, 24131, Note_off_c, 4, 76, 127
2, 24131, Note_off_c, 11, 58, 127
2, 24133, Note_on_c, 12, 59, 127
2, 24133, Note_on_c, 2, 74, 127
2, 24296, Note_off_c, 2, 74, 127
2, 24296, Note_off_c, 12, 59, 127
2, 24298, Note_on_c, 1, 61, 127
2, 24298, Note_on_c, 4, 76, 127
2, 24461, Note_off_c, 4, 76, 127
2, 24461, Note_off_c, 1, 61, 127
2, 24463, Note_on_c, 2, 62, 127
2, 24463, Note_on_c, 6, 78, 127
2, 24626, Note_off_c, 2, 62, 127
2, 24628, Note_on_c, 4, 64, 127
2, 24791, Note_off_c, 4, 64, 127
2, 24793, Note_on_c, 2, 62, 127
2, 24793, Note_on_c, 10, 69, 127
2, 24843, Note_off_c, 6, 78, 127
2, 24956, Note_off_c, 2, 62, 127
2, 24958, Note_on_c, 1, 61, 127
2, 25121, Note_off_c, 1, 61, 127
2, 25121, Note_off_c, 10, 69, 127
2, 25123, Note_on_c, 12, 59, 127
2, 25123, Note_on_c, 8, 68, 127
2, 25286, Note_off_c, 12, 59, 127
2, 25288, Note_on_c, 8, 56, 127
2, 25451, Note_off_c, 8, 56, 127
2, 25451, Note_off_c, 8, 68, 127
2, 25453, Note_on_c, 11, 58, 127
2, 25453, Note_on_c, 1, 73, 127
2, 25616, Note_off_c, 1, 73, 127
2, 25616, Note_off_c, 11, 58, 127
2, 25618, Note_on_c, 12, 59, 127
2, 25618, Note_on_c, 2, 74, 127
2, 25781, Note_off_c, 2, 74, 127
2, 25781, Note_off_c, 12, 59, 127
2, 25781, Note_off_c, 6, 54, 127
2, 25783, Note_on_c, 4, 52, 127
2, 25783, Note_on_c, 1, 61, 127
2, 25783, Note_on_c, 4, 76, 127
2, 25946, Note_off_c, 1, 61, 127
2, 25948, Note_on_c, 2, 62, 127
2, 26111, Note_off_c, 2, 62, 127
2, 26113, Note_on_c, 1, 61, 127
2, 26113, Note_on_c, 7, 67, 127
2, 26153, Note_off_c, 4, 76, 127
2, 26276, Note_off_c, 1, 61, 127
2, 26278, Note_on_c, 12, 59, 127
2, 26441, Note_off_c, 12, 59, 127
2, 26441, Note_off_c, 7, 67, 127
2, 26443, Note_on_c, 11, 58, 127
2, 26443, Note_on_c, 6, 66, 127
2, 26606, Note_off_c, 11, 58, 127
2, 26608, Note_on_c, 6, 54, 127
2, 26771, Note_off_c, 6, 54, 127
2, 26771, Note_off_c, 6, 66, 127
2, 26773, Note_on_c, 8, 56, 127
2, 26773, Note_on_c, 12, 71, 127
2, 26936, Note_off_c, 12, 71, 127
2, 26936, Note_off_c, 8, 56, 127
2, 26938, Note_on_c, 11, 58, 127
2, 26938, Note_on_c, 1, 73, 127
2, 27101, Note_off_c, 1, 73, 127
2, 27101, Note_off_c, 11, 58, 127
2, 27101, Note_off_c, 4, 52, 127
2, 27103, Note_on_c, 12, 59, 127
2, 27103, Note_on_c, 2, 74, 127
2, 27268, Note_on_c, 2, 50, 127
2, 27431, Note_off_c, 2, 50, 127
2, 27431, Note_off_c, 2, 74, 127
2, 27433, Note_on_c, 4, 52, 127
2, 27433, Note_on_c, 6, 66, 127
2, 27596, Note_off_c, 4, 52, 127
2, 27598, Note_on_c, 6, 54, 127
2, 27761, Note_off_c, 6, 54, 127
2, 27761, Note_off_c, 6, 66, 127
2, 27763, Note_on_c, 7, 55, 127
2, 27763, Note_on_c, 4, 64, 127
2, 27926, Note_off_c, 4, 64, 127
2, 27926, Note_off_c, 12, 59, 127
2, 27928, Note_on_c, 12, 59, 127
2, 27928, Note_on_c, 2, 74, 127
2, 28091, Note_off_c, 2, 74, 127
2, 28091, Note_off_c, 12, 59, 127
2, 28093, Note_on_c, 1, 61, 127
2, 28093, Note_on_c, 1, 73, 127
2, 28256, Note_off_c, 1, 73, 127
2, 28256, Note_off_c, 1, 61, 127
2, 28258, Note_on_c, 2, 62, 127
2, 28258, Note_on_c, 12, 71, 127
2, 28421, Note_off_c, 12, 71, 127
2, 28421, Note_off_c, 2, 62, 127
2, 28421, Note_off_c, 7, 55, 127
2, 28423, Note_on_c, 6, 54, 127
2, 28423, Note_on_c, 4, 64, 127
2, 28423, Note_on_c, 11, 70, 127
2, 28586, Note_off_c, 11, 70, 127
2, 28588, Note_on_c, 7, 79, 127
2, 28751, Note_off_c, 7, 79, 127
2, 28751, Note_off_c, 4, 64, 127
2, 28753, Note_on_c, 11, 58, 127
2, 28753, Note_on_c, 6, 78, 127
2, 28916, Note_off_c, 6, 78, 127
2, 28918, Note_on_c, 4, 76, 127
2, 29081, Note_off_c, 4, 76, 127
2, 29081, Note_off_c, 11, 58, 127
2, 29081, Note_off_c, 6, 54, 127
2, 29083, Note_on_c, 12, 47, 127
2, 29083, Note_on_c, 12, 59, 127
2, 29083, Note_on_c, 2, 74, 127
2, 29246, Note_off_c, 2, 74, 127
2, 29248, Note_on_c, 1, 73, 127
2, 29411, Note_off_c, 1, 73, 127
2, 29411, Note_off_c, 12, 59, 127
2, 29413, Note_on_c, 10, 57, 127
2, 29413, Note_on_c, 12, 71, 127
2, 29576, Note_off_c, 12, 71, 127
2, 29578, Note_on_c, 1, 73, 127
2, 29741, Note_off_c, 1, 73, 127
2, 29741, Note_off_c, 10, 57, 127
2, 29743, Note_on_c, 8, 56, 127
2, 29743, Note_on_c, 2, 74, 127
2, 29906, Note_off_c, 2, 74, 127
2, 29908, Note_on_c, 12, 71, 127
2, 30071, Note_off_c, 12, 71, 127
2, 30071, Note_off_c, 8, 56, 127
2, 30073, Note_on_c, 6, 54, 127
2, 30073, Note_on_c, 1, 73, 127
2, 30236, Note_off_c, 1, 73, 127
2, 30238, Note_on_c, 2, 74, 127
2, 30401, Note_off_c, 2, 74, 127
2, 30401, Note_off_c, 6, 54, 127
2, 30403, Note_on_c, 8, 56, 127
2, 30403, Note_on_c, 5, 65, 127
2, 30566, Note_off_c, 5, 65, 127
2, 30568, Note_on_c, 8, 68, 127
2, 30731, Note_off_c, 8, 68, 127
2, 30733, Note_on_c, 10, 69, 127
2, 30896, Note_off_c, 10, 69, 127
2, 30898, Note_on_c, 12, 71, 127
2, 31061, Note_off_c, 12, 71, 127
2, 31061, Note_off_c, 12, 47, 127
2, 31063, Note_on_c, 10, 45, 127
2, 31063, Note_on_c, 1, 73, 127
2, 31226, Note_off_c, 8, 56, 127
2, 31228, Note_on_c, 8, 68, 127
2, 31391, Note_off_c, 8, 68, 127
2, 31393, Note_on_c, 6, 66, 127
2, 31556, Note_off_c, 6, 66, 127
2, 31558, Note_on_c, 4, 64, 127
2, 31721, Note_off_c, 4, 64, 127
2, 31723, Note_on_c, 3, 63, 127
2, 31886, Note_off_c, 1, 73, 127
2, 31888, Note_on_c, 6, 66, 127
2, 32051, Note_off_c, 6, 66, 127
2, 32053, Note_on_c, 8, 68, 127
2, 32216, Note_off_c, 8, 68, 127
2, 32218, Note_on_c, 10, 69, 127
2, 32381, Note_off_c, 10, 69, 127
2, 32383, Note_on_c, 12, 71, 127
2, 32546, Note_off_c, 3, 63, 127
2, 32546, Note_off_c, 10, 45, 127
2, 32548, Note_on_c, 10, 57, 127
2, 32548, Note_on_c, 6, 66, 127
2, 32711, Note_off_c, 6, 66, 127
2, 32711, Note_off_c, 10, 57, 127
2, 32713, Note_on_c, 8, 56, 127
2, 32713, Note_on_c, 4, 64, 127
2, 32876, Note_off_c, 4, 64, 127
2, 32876, Note_off_c, 8, 56, 127
2, 32878, Note_on_c, 6, 54, 127
2, 32878, Note_on_c, 2, 62, 127
2, 33041, Note_off_c, 2, 62, 127
2, 33041, Note_off_c, 6, 54, 127
2, 33043, Note_on_c, 5, 53, 127
2, 33043, Note_on_c, 1, 61, 127
2, 33206, Note_off_c, 5, 53, 127
2, 33206, Note_off_c, 12, 71, 127
2, 33208, Note_on_c, 1, 49, 127
2, 33208, Note_on_c, 5, 65, 127
2, 33371, Note_off_c, 5, 65, 127
2, 33371, Note_off_c, 1, 49, 127
2, 33373, Note_on_c, 3, 51, 127
2, 33373, Note_on_c, 6, 66, 127
2, 33536, Note_off_c, 6, 66, 127
2, 33536, Note_off_c, 3, 51, 127
2, 33538, Note_on_c, 5, 53, 127
2, 33538, Note_on_c, 8, 68, 127
2, 33701, Note_off_c, 8, 68, 127
2, 33701, Note_off_c, 5, 53, 127
2, 33703, Note_on_c, 6, 54, 127
2, 33703, Note_on_c, 10, 69, 127
2, 33866, Note_off_c, 1, 61, 127
2, 33868, Note_on_c, 4, 64, 127
2, 34031, Note_off_c, 4, 64, 127
2, 34031, Note_off_c, 6, 54, 127
2, 34033, Note_on_c, 12, 47, 127
2, 34033, Note_on_c, 2, 62, 127
2, 34196, Note_off_c, 2, 62, 127
2, 34196, Note_off_c, 12, 47, 127
2, 34198, Note_on_c, 1, 49, 127
2, 34198, Note_on_c, 1, 61, 127
2, 34361, Note_off_c, 1, 61, 127
2, 34361, Note_off_c, 1, 49, 127
2, 34363, Note_on_c, 2, 50, 127
2, 34363, Note_on_c, 12, 59, 127
2, 34526, Note_off_c, 10, 69, 127
2, 34528, Note_on_c, 10, 69, 127
2, 34691, Note_off_c, 10, 69, 127
2, 34691, Note_off_c, 2, 50, 127
2, 34693, Note_on_c, 12, 47, 127
2, 34693, Note_on_c, 8, 68, 127
2, 34856, Note_off_c, 8, 68, 127
2, 34858, Note_on_c, 6, 66, 127
2, 35014, Note_off_c, 6, 66, 127
2, 35021, Note_off_c, 12, 47, 127
2, 35023, Note_on_c, 1, 49, 127
2, 35023, Note_on_c, 6, 66, 127
2, 35079, Note_on_c, 5, 65, 127
2, 35081, Note_off_c, 6, 66, 127
2, 35135, Note_on_c, 6, 66, 127
2, 35137, Note_off_c, 5, 65, 127
2, 35186, Note_off_c, 12, 59, 127
2, 35188, Note_on_c, 2, 62, 127
2, 35191, Note_on_c, 5, 65, 127
2, 35193, Note_off_c, 6, 66, 127
2, 35351, Note_off_c, 2, 62, 127
2, 35351, Note_off_c, 1, 49, 127
2, 35353, Note_on_c, 1, 37, 127
2, 35353, Note_on_c, 1, 61, 127
2, 35516, Note_off_c, 1, 61, 127
2, 35518, Note_on_c, 12, 59, 127
2, 35681, Note_off_c, 12, 59, 127
2, 35681, Note_off_c, 1, 37, 127
2, 35683, Note_on_c, 6, 42, 127
2, 35683, Note_on_c, 10, 57, 127
2, 35683, Note_on_c, 6, 66, 127
2, 35684, Note_off_c, 5, 65, 127
2, 36009, Note_off_c, 10, 57, 127
2, 36011, Note_off_c, 6, 66, 127
2, 36013, Note_on_c, 6, 78, 127
2, 36164, Note_off_c, 6, 42, 127
2, 36176, Note_off_c, 6, 78, 127
2, 36178, Note_on_c, 7, 79, 127
2, 36341, Note_off_c, 7, 79, 127
2, 36343, Note_on_c, 10, 81, 127
2, 36670, Note_off_c, 10, 81, 127
2, 36672, Note_on_c, 6, 54, 127
2, 36672, Note_on_c, 0, 72, 127
2, 36835, Note_off_c, 6, 54, 127
2, 36837, Note_on_c, 7, 55, 127
2, 37000, Note_off_c, 7, 55, 127
2, 37000, Note_off_c, 0, 72, 127
2, 37002, Note_on_c, 10, 57, 127
2, 37002, Note_on_c, 12, 71, 127
2, 37165, Note_off_c, 10, 57, 127
2, 37167, Note_on_c, 7, 55, 127
2, 37330, Note_off_c, 7, 55, 127
2, 37332, Note_on_c, 10, 57, 127
2, 37332, Note_on_c, 6, 66, 127
2, 37495, Note_off_c, 6, 66, 127
2, 37495, Note_off_c, 10, 57, 127
2, 37497, Note_on_c, 12, 59, 127
2, 37497, Note_on_c, 7, 67, 127
2, 37660, Note_off_c, 7, 67, 127
2, 37660, Note_off_c, 12, 59, 127
2, 37660, Note_off_c, 12, 71, 127
2, 37662, Note_on_c, 0, 60, 127
2, 37662, Note_on_c, 10, 69, 127
2, 37662, Note_on_c, 6, 78, 127
2, 37825, Note_off_c, 0, 60, 127
2, 37827, Note_on_c, 6, 54, 127
2, 37990, Note_off_c, 6, 54, 127
2, 37990, Note_off_c, 10, 69, 127
2, 37992, Note_on_c, 7, 55, 127
2, 37992, Note_on_c, 0, 60, 127
2, 38155, Note_off_c, 7, 55, 127
2, 38157, Note_on_c, 10, 57, 127
2, 38320, Note_off_c, 10, 57, 127
2, 38320, Note_off_c, 0, 60, 127
2, 38322, Note_on_c, 3, 51, 127
2, 38322, Note_on_c, 12, 59, 127
2, 38485, Note_off_c, 6, 78, 127
2, 38487, Note_on_c, 7, 79, 127
2, 38650, Note_off_c, 7, 79, 127
2, 38650, Note_off_c, 3, 51, 127
2, 38652, Note_on_c, 6, 54, 127
2, 38652, Note_on_c, 6, 78, 127
2, 38815, Note_off_c, 6, 78, 127
2, 38815, Note_off_c, 6, 54, 127
2, 38817, Note_on_c, 7, 55, 127
2, 38817, Note_on_c, 4, 76, 127
2, 38980, Note_off_c, 4, 76, 127
2, 38980, Note_off_c, 7, 55, 127
2, 38982, Note_on_c, 10, 57, 127
2, 38982, Note_on_c, 3, 75, 127
2, 39145, Note_off_c, 3, 75, 127
2, 39147, Note_on_c, 0, 84, 127
2, 39310, Note_off_c, 0, 84, 127
2, 39310, Note_off_c, 10, 57, 127
2, 39312, Note_on_c, 3, 51, 127
2, 39312, Note_on_c, 12, 83, 127
2, 39475, Note_off_c, 12, 83, 127
2, 39477, Note_on_c, 10, 81, 127
2, 39640, Note_off_c, 10, 81, 127
2, 39640, Note_off_c, 3, 51, 127
2, 39642, Note_on_c, 4, 52, 127
2, 39642, Note_on_c, 7, 79, 127
2, 39805, Note_off_c, 7, 79, 127
2, 39807, Note_on_c, 10, 81, 127
2, 39970, Note_off_c, 10, 81, 127
2, 39970, Note_off_c, 12, 59, 127
2, 39972, Note_on_c, 4, 64, 127
2, 39972, Note_on_c, 7, 79, 127
2, 40135, Note_off_c, 7, 79, 127
2, 40135, Note_off_c, 4, 64, 127
2, 40137, Note_on_c, 6, 66, 127
2, 40137, Note_on_c, 6, 78, 127
2, 40295, Note_off_c, 4, 52, 127
2, 40300, Note_off_c, 6, 78, 127
2, 40300, Note_off_c, 6, 66, 127
2, 40302, Note_on_c, 7, 67, 127
2, 40302, Note_on_c, 4, 76, 127
2, 40465, Note_off_c, 4, 76, 127
2, 40467, Note_on_c, 6, 78, 127
2, 40630, Note_off_c, 6, 78, 127
2, 40630, Note_off_c, 7, 67, 127
2, 40632, Note_on_c, 4, 52, 127
2, 40632, Note_on_c, 12, 59, 127
2, 40632, Note_on_c, 4, 76, 127
2, 40795, Note_off_c, 4, 76, 127
2, 40795, Note_off_c, 4, 52, 127
2, 40797, Note_on_c, 6, 54, 127
2, 40797, Note_on_c, 2, 74, 127
2, 40960, Note_off_c, 2, 74, 127
2, 40960, Note_off_c, 6, 54, 127
2, 40960, Note_off_c, 12, 59, 127
2, 40962, Note_on_c, 7, 55, 127
2, 40962, Note_on_c, 10, 57, 127
2, 40962, Note_on_c, 1, 73, 127
2, 41125, Note_off_c, 7, 55, 127
2, 41127, Note_on_c, 6, 54, 127
2, 41290, Note_off_c, 6, 54, 127
2, 41290, Note_off_c, 1, 73, 127
2, 41292, Note_on_c, 7, 55, 127
2, 41292, Note_on_c, 4, 76, 127
2, 41431, Note_off_c, 10, 57, 127
2, 41455, Note_off_c, 4, 76, 127
2, 41455, Note_off_c, 7, 55, 127
2, 41457, Note_on_c, 10, 57, 127
2, 41457, Note_on_c, 6, 78, 127
2, 41620, Note_off_c, 6, 78, 127
2, 41620, Note_off_c, 10, 57, 127
2, 41622, Note_on_c, 12, 59, 127
2, 41622, Note_on_c, 4, 64, 127
2, 41622, Note_on_c, 7, 79, 127
2, 41785, Note_off_c, 12, 59, 127
2, 41787, Note_on_c, 4, 52, 127
2, 41950, Note_off_c, 4, 52, 127
2, 41950, Note_off_c, 7, 79, 127
2, 41952, Note_on_c, 6, 54, 127
2, 41952, Note_on_c, 12, 71, 127
2, 42115, Note_off_c, 6, 54, 127
2, 42117, Note_on_c, 7, 55, 127
2, 42280, Note_off_c, 7, 55, 127
2, 42280, Note_off_c, 12, 71, 127
2, 42282, Note_on_c, 1, 49, 127
2, 42282, Note_on_c, 10, 69, 127
2, 42445, Note_off_c, 4, 64, 127
2, 42447, Note_on_c, 6, 66, 127
2, 42610, Note_off_c, 6, 66, 127
2, 42610, Note_off_c, 1, 49, 127
2, 42612, Note_on_c, 4, 52, 127
2, 42612, Note_on_c, 4, 64, 127
2, 42775, Note_off_c, 4, 64, 127
2, 42775, Note_off_c, 4, 52, 127
2, 42777, Note_on_c, 6, 54, 127
2, 42777, Note_on_c, 2, 62, 127
2, 42940, Note_off_c, 2, 62, 127
2, 42940, Note_off_c, 6, 54, 127
2, 42942, Note_on_c, 7, 55, 127
2, 42942, Note_on_c, 1, 61, 127
2, 43105, Note_off_c, 1, 61, 127
2, 43107, Note_off_c, 10, 69, 127
2, 43107, Note_on_c, 12, 71, 127
2, 43270, Note_off_c, 12, 71, 127
2, 43270, Note_off_c, 7, 55, 127
2, 43272, Note_on_c, 1, 49, 127
2, 43272, Note_on_c, 10, 69, 127
2, 43435, Note_off_c, 10, 69, 127
2, 43437, Note_on_c, 7, 67, 127
2, 43600, Note_off_c, 7, 67, 127
2, 43600, Note_off_c, 1, 49, 127
2, 43602, Note_on_c, 2, 50, 127
2, 43602, Note_on_c, 6, 66, 127
2, 43767, Note_on_c, 7, 67, 127
2, 43928, Note_off_c, 6, 66, 127
2, 43930, Note_off_c, 7, 67, 127
2, 43930, Note_off_c, 2, 50, 127
2, 43932, Note_on_c, 10, 45, 127
2, 43932, Note_on_c, 6, 66, 127
2, 44095, Note_off_c, 6, 66, 127
2, 44095, Note_off_c, 10, 45, 127
2, 44097, Note_on_c, 12, 47, 127
2, 44097, Note_on_c, 7, 67, 127
2, 44260, Note_off_c, 7, 67, 127
2, 44260, Note_off_c, 12, 47, 127
2, 44262, Note_on_c, 0, 48, 127
2, 44262, Note_on_c, 10, 69, 127
2, 44425, Note_off_c, 10, 69, 127
2, 44427, Note_on_c, 7, 67, 127
2, 44590, Note_off_c, 7, 67, 127
2, 44590, Note_off_c, 0, 48, 127
2, 44592, Note_on_c, 4, 40, 127
2, 44592, Note_on_c, 10, 69, 127
2, 44755, Note_off_c, 10, 69, 127
2, 44757, Note_on_c, 12, 71, 127
2, 44920, Note_off_c, 12, 71, 127
2, 44920, Note_off_c, 4, 40, 127
2, 44922, Note_on_c, 2, 38, 127
2, 44922, Note_on_c, 0, 72, 127
2, 45085, Note_off_c, 0, 72, 127
2, 45087, Note_on_c, 12, 71, 127
2, 45250, Note_off_c, 12, 71, 127
2, 45252, Note_on_c, 10, 69, 127
2, 45252, Note_on_c, 0, 72, 127
2, 45415, Note_off_c, 0, 72, 127
2, 45415, Note_off_c, 10, 69, 127
2, 45417, Note_on_c, 12, 71, 127
2, 45417, Note_on_c, 2, 74, 127
2, 45580, Note_off_c, 2, 74, 127
2, 45580, Note_off_c, 12, 71, 127
2, 45582, Note_on_c, 0, 72, 127
2, 45582, Note_on_c, 4, 76, 127
2, 45745, Note_off_c, 4, 76, 127
2, 45747, Note_on_c, 2, 74, 127
2, 45910, Note_off_c, 2, 74, 127
2, 45910, Note_off_c, 0, 72, 127
2, 45912, Note_on_c, 4, 64, 127
2, 45912, Note_on_c, 0, 72, 127
2, 46075, Note_off_c, 0, 72, 127
2, 46077, Note_on_c, 12, 71, 127
2, 46240, Note_off_c, 12, 71, 127
2, 46240, Note_off_c, 4, 64, 127
2, 46242, Note_on_c, 6, 66, 127
2, 46242, Note_on_c, 10, 69, 127
2, 46405, Note_off_c, 10, 69, 127
2, 46407, Note_on_c, 7, 67, 127
2, 46570, Note_off_c, 7, 67, 127
2, 46572, Note_on_c, 10, 69, 127
2, 46735, Note_off_c, 10, 69, 127
2, 46737, Note_on_c, 12, 71, 127
2, 46900, Note_off_c, 12, 71, 127
2, 46902, Note_on_c, 0, 72, 127
2, 47065, Note_off_c, 0, 72, 127
2, 47067, Note_on_c, 12, 71, 127
2, 47230, Note_off_c, 12, 71, 127
2, 47230, Note_off_c, 6, 66, 127
2, 47232, Note_on_c, 6, 66, 127
2, 47232, Note_on_c, 0, 72, 127
2, 47395, Note_off_c, 0, 72, 127
2, 47397, Note_on_c, 2, 74, 127
2, 47560, Note_off_c, 2, 74, 127
2, 47560, Note_off_c, 6, 66, 127
2, 47560, Note_off_c, 2, 38, 127
2, 47562, Note_on_c, 7, 43, 127
2, 47562, Note_on_c, 7, 67, 127
2, 47562, Note_on_c, 12, 71, 127
2, 47725, Note_off_c, 12, 71, 127
2, 47727, Note_on_c, 10, 69, 127
2, 47888, Note_off_c, 7, 67, 127
2, 47890, Note_off_c, 10, 69, 127
2, 47890, Note_off_c, 7, 43, 127
2, 47892, Note_on_c, 12, 59, 127
2, 47892, Note_on_c, 7, 67, 127
2, 48055, Note_off_c, 7, 67, 127
2, 48055, Note_off_c, 12, 59, 127
2, 48057, Note_on_c, 0, 60, 127
2, 48057, Note_on_c, 10, 69, 127
2, 48220, Note_off_c, 10, 69, 127
2, 48220, Note_off_c, 0, 60, 127
2, 48222, Note_on_c, 2, 62, 127
2, 48222, Note_on_c, 12, 71, 127
2, 48385, Note_off_c, 12, 71, 127
2, 48387, Note_on_c, 0, 72, 127
2, 48550, Note_off_c, 0, 72, 127
2, 48550, Note_off_c, 2, 62, 127
2, 48552, Note_on_c, 5, 53, 127
2, 48552, Note_on_c, 12, 71, 127
2, 48552, Note_on_c, 2, 74, 127
2, 48715, Note_off_c, 12, 71, 127
2, 48717, Note_on_c, 10, 69, 127
2, 48880, Note_off_c, 10, 69, 127
2, 48880, Note_off_c, 5, 53, 127
2, 48882, Note_on_c, 4, 52, 127
2, 48882, Note_on_c, 8, 68, 127
2, 49045, Note_off_c, 8, 68, 127
2, 49047, Note_on_c, 4, 64, 127
2, 49210, Note_off_c, 4, 64, 127
2, 49210, Note_off_c, 4, 52, 127
2, 49212, Note_on_c, 10, 57, 127
2, 49212, Note_on_c, 6, 66, 127
2, 49375, Note_off_c, 6, 66, 127
2, 49375, Note_off_c, 10, 57, 127
2, 49377, Note_on_c, 12, 59, 127
2, 49377, Note_on_c, 8, 68, 127
2, 49540, Note_off_c, 8, 68, 127
2, 49540, Note_off_c, 12, 59, 127
2, 49540, Note_off_c, 2, 74, 127
2, 49542, Note_on_c, 0, 60, 127
2, 49542, Note_on_c, 10, 69, 127
2, 49542, Note_on_c, 0, 72, 127
2, 49705, Note_off_c, 10, 69, 127
2, 49707, Note_on_c, 12, 71, 127
2, 49870, Note_off_c, 12, 71, 127
2, 49870, Note_off_c, 0, 60, 127
2, 49872, Note_on_c, 4, 52, 127
2, 49872, Note_on_c, 10, 69, 127
2, 50035, Note_off_c, 10, 69, 127
2, 50037, Note_on_c, 7, 67, 127
2, 50200, Note_off_c, 7, 67, 127
2, 50200, Note_off_c, 4, 52, 127
2, 50202, Note_on_c, 2, 50, 127
2, 50202, Note_on_c, 6, 66, 127
2, 50365, Note_off_c, 6, 66, 127
2, 50367, Note_on_c, 2, 62, 127
2, 50530, Note_off_c, 2, 62, 127
2, 50530, Note_off_c, 2, 50, 127
2, 50532, Note_on_c, 7, 55, 127
2, 50532, Note_on_c, 4, 64, 127
2, 50695, Note_off_c, 4, 64, 127
2, 50695, Note_off_c, 7, 55, 127
2, 50697, Note_on_c, 10, 57, 127
2, 50697, Note_on_c, 6, 66, 127
2, 50860, Note_off_c, 6, 66, 127
2, 50860, Note_off_c, 10, 57, 127
2, 50860, Note_off_c, 0, 72, 127
2, 50862, Note_on_c, 12, 59, 127
2, 50862, Note_on_c, 7, 67, 127
2, 50862, Note_on_c, 12, 71, 127
2, 51025, Note_off_c, 7, 67, 127
2, 51027, Note_on_c, 10, 69, 127
2, 51190, Note_off_c, 10, 69, 127
2, 51190, Note_off_c, 12, 59, 127
2, 51192, Note_on_c, 2, 50, 127
2, 51192, Note_on_c, 7, 67, 127
2, 51355, Note_off_c, 7, 67, 127
2, 51357, Note_on_c, 6, 66, 127
2, 51520, Note_off_c, 6, 66, 127
2, 51520, Note_off_c, 2, 50, 127
2, 51522, Note_on_c, 0, 48, 127
2, 51522, Note_on_c, 4, 64, 127
2, 51685, Note_off_c, 0, 48, 127
2, 51687, Note_on_c, 12, 59, 127
2, 51848, Note_off_c, 4, 64, 127
2, 51850, Note_off_c, 12, 59, 127
2, 51850, Note_off_c, 12, 71, 127
2, 51852, Note_on_c, 10, 57, 127
2, 51852, Note_on_c, 7, 79, 127
2, 52015, Note_off_c, 10, 57, 127
2, 52017, Note_on_c, 7, 55, 127
2, 52180, Note_off_c, 7, 55, 127
2, 52180, Note_off_c, 7, 79, 127
2, 52182, Note_on_c, 6, 54, 127
2, 52182, Note_on_c, 10, 69, 127
2, 52345, Note_off_c, 6, 54, 127
2, 52347, Note_on_c, 4, 64, 127
2, 52510, Note_off_c, 4, 64, 127
2, 52510, Note_off_c, 10, 69, 127
2, 52512, Note_on_c, 2, 62, 127
2, 52512, Note_on_c, 7, 79, 127
2, 52593, Note_off_c, 7, 79, 127
2, 52595, Note_on_c, 6, 78, 127
2, 52676, Note_off_c, 6, 78, 127
2, 52676, Note_off_c, 2, 62, 127
2, 52678, Note_on_c, 0, 60, 127
2, 52678, Note_on_c, 4, 76, 127
2, 52759, Note_off_c, 4, 76, 127
2, 52761, Note_on_c, 6, 78, 127
2, 52842, Note_off_c, 6, 78, 127
2, 52842, Note_off_c, 0, 60, 127
2, 52844, Note_on_c, 12, 59, 127
2, 52844, Note_on_c, 7, 79, 127
2, 53007, Note_off_c, 7, 79, 127
2, 53007, Note_off_c, 12, 59, 127
2, 53009, Note_on_c, 10, 57, 127
2, 53009, Note_on_c, 2, 74, 127
2, 53172, Note_off_c, 2, 74, 127
2, 53172, Note_off_c, 10, 57, 127
2, 53174, Note_on_c, 7, 55, 127
2, 53174, Note_on_c, 4, 76, 127
2, 53337, Note_off_c, 4, 76, 127
2, 53337, Note_off_c, 7, 55, 127
2, 53339, Note_on_c, 10, 57, 127
2, 53339, Note_on_c, 6, 78, 127
2, 53502, Note_off_c, 6, 78, 127
2, 53502, Note_off_c, 10, 57, 127
2, 53504, Note_on_c, 12, 59, 127
2, 53504, Note_on_c, 7, 79, 127
2, 53667, Note_off_c, 7, 79, 127
2, 53667, Note_off_c, 12, 59, 127
2, 53669, Note_on_c, 10, 57, 127
2, 53669, Note_on_c, 12, 83, 127
2, 53832, Note_off_c, 12, 83, 127
2, 53832, Note_off_c, 10, 57, 127
2, 53834, Note_on_c, 12, 59, 127
2, 53834, Note_on_c, 10, 81, 127
2, 53997, Note_off_c, 10, 81, 127
2, 53997, Note_off_c, 12, 59, 127
2, 53999, Note_on_c, 1, 61, 127
2, 53999, Note_on_c, 7, 79, 127
2, 54162, Note_off_c, 7, 79, 127
2, 54162, Note_off_c, 1, 61, 127
2, 54164, Note_on_c, 2, 62, 127
2, 54164, Note_on_c, 6, 78, 127
2, 54327, Note_off_c, 6, 78, 127
2, 54329, Note_on_c, 4, 76, 127
2, 54492, Note_off_c, 4, 76, 127
2, 54494, Note_on_c, 6, 66, 127
2, 54494, Note_on_c, 2, 74, 127
2, 54657, Note_off_c, 2, 74, 127
2, 54657, Note_off_c, 6, 66, 127
2, 54659, Note_on_c, 7, 67, 127
2, 54659, Note_on_c, 4, 76, 127
2, 54822, Note_off_c, 4, 76, 127
2, 54822, Note_off_c, 7, 67, 127
2, 54822, Note_off_c, 2, 62, 127
2, 54824, Note_on_c, 10, 57, 127
2, 54824, Note_on_c, 10, 69, 127
2, 54824, Note_on_c, 6, 78, 127
2, 54987, Note_off_c, 6, 78, 127
2, 54989, Note_on_c, 7, 79, 127
2, 55152, Note_off_c, 7, 79, 127
2, 55152, Note_off_c, 10, 69, 127
2, 55154, Note_on_c, 0, 60, 127
2, 55154, Note_on_c, 6, 78, 127
2, 55317, Note_off_c, 6, 78, 127
2, 55319, Note_on_c, 4, 76, 127
2, 55482, Note_off_c, 4, 76, 127
2, 55482, Note_off_c, 0, 60, 127
2, 55484, Note_on_c, 12, 59, 127
2, 55484, Note_on_c, 3, 75, 127
2, 55647, Note_off_c, 3, 75, 127
2, 55649, Note_on_c, 12, 71, 127
2, 55812, Note_off_c, 12, 71, 127
2, 55812, Note_off_c, 12, 59, 127
2, 55814, Note_on_c, 4, 64, 127
2, 55814, Note_on_c, 1, 73, 127
2, 55977, Note_off_c, 1, 73, 127
2, 55977, Note_off_c, 4, 64, 127
2, 55979, Note_on_c, 6, 66, 127
2, 55979, Note_on_c, 3, 75, 127
2, 56142, Note_off_c, 3, 75, 127
2, 56142, Note_off_c, 6, 66, 127
2, 56142, Note_off_c, 10, 57, 127
2, 56144, Note_on_c, 7, 55, 127
2, 56144, Note_on_c, 7, 67, 127
2, 56144, Note_on_c, 4, 76, 127
2, 56307, Note_off_c, 4, 76, 127
2, 56309, Note_on_c, 6, 78, 127
2, 56472, Note_off_c, 6, 78, 127
2, 56472, Note_off_c, 7, 67, 127
2, 56474, Note_on_c, 12, 59, 127
2, 56474, Note_on_c, 4, 76, 127
2, 56637, Note_off_c, 4, 76, 127
2, 56639, Note_on_c, 2, 74, 127
2, 56802, Note_off_c, 2, 74, 127
2, 56802, Note_off_c, 12, 59, 127
2, 56804, Note_on_c, 10, 57, 127
2, 56804, Note_on_c, 1, 73, 127
2, 56967, Note_off_c, 1, 73, 127
2, 56969, Note_on_c, 10, 69, 127
2, 57132, Note_off_c, 10, 69, 127
2, 57132, Note_off_c, 10, 57, 127
2, 57134, Note_on_c, 2, 62, 127
2, 57134, Note_on_c, 12, 71, 127
2, 57297, Note_off_c, 12, 71, 127
2, 57297, Note_off_c, 2, 62, 127
2, 57299, Note_on_c, 4, 64, 127
2, 57299, Note_on_c, 1, 73, 127
2, 57462, Note_off_c, 1, 73, 127
2, 57462, Note_off_c, 4, 64, 127
2, 57462, Note_off_c, 7, 55, 127
2, 57464, Note_on_c, 6, 54, 127
2, 57464, Note_on_c, 6, 66, 127
2, 57464, Note_on_c, 2, 74, 127
2, 57627, Note_off_c, 2, 74, 127
2, 57629, Note_on_c, 4, 76, 127
2, 57792, Note_off_c, 4, 76, 127
2, 57792, Note_off_c, 6, 66, 127
2, 57794, Note_on_c, 10, 57, 127
2, 57794, Note_on_c, 2, 74, 127
2, 57957, Note_off_c, 2, 74, 127
2, 57959, Note_on_c, 1, 73, 127
2, 58122, Note_off_c, 1, 73, 127
2, 58122, Note_off_c, 10, 57, 127
2, 58124, Note_on_c, 7, 55, 127
2, 58124, Note_on_c, 12, 71, 127
2, 58287, Note_off_c, 12, 71, 127
2, 58287, Note_off_c, 7, 55, 127
2, 58287, Note_off_c, 6, 54, 127
2, 58289, Note_on_c, 4, 52, 127
2, 58289, Note_on_c, 6, 66, 127
2, 58289, Note_on_c, 10, 69, 127
2, 58452, Note_off_c, 10, 69, 127
2, 58452, Note_off_c, 6, 66, 127
2, 58452, Note_off_c, 4, 52, 127
2, 58454, Note_on_c, 6, 54, 127
2, 58454, Note_on_c, 4, 64, 127
2, 58454, Note_on_c, 7, 67, 127
2, 58617, Note_off_c, 7, 67, 127
2, 58617, Note_off_c, 4, 64, 127
2, 58617, Note_off_c, 6, 54, 127
2, 58619, Note_on_c, 7, 55, 127
2, 58619, Note_on_c, 2, 62, 127
2, 58619, Note_on_c, 6, 66, 127
2, 58782, Note_off_c, 6, 66, 127
2, 58782, Note_off_c, 2, 62, 127
2, 58782, Note_off_c, 7, 55, 127
2, 58784, Note_on_c, 10, 57, 127
2, 58784, Note_on_c, 1, 61, 127
2, 58784, Note_on_c, 4, 64, 127
2, 58947, Note_off_c, 1, 61, 127
2, 58947, Note_off_c, 10, 57, 127
2, 58949, Note_on_c, 7, 55, 127
2, 58949, Note_on_c, 12, 71, 127
2, 59112, Note_off_c, 12, 71, 127
2, 59112, Note_off_c, 7, 55, 127
2, 59112, Note_off_c, 4, 64, 127
2, 59114, Note_on_c, 6, 54, 127
2, 59114, Note_on_c, 10, 69, 127
2, 59114, Note_on_c, 1, 73, 127
2, 59277, Note_off_c, 10, 69, 127
2, 59277, Note_off_c, 6, 54, 127
2, 59279, Note_on_c, 4, 52, 127
2, 59279, Note_on_c, 7, 67, 127
2, 59442, Note_off_c, 7, 67, 127
2, 59442, Note_off_c, 4, 52, 127
2, 59442, Note_off_c, 1, 73, 127
2, 59444, Note_on_c, 2, 50, 127
2, 59444, Note_on_c, 6, 66, 127
2, 59444, Note_on_c, 2, 74, 127
2, 59615, Note_off_c, 2, 50, 127
2, 59620, Note_on_c, 1, 49, 127
2, 59776, Note_off_c, 2, 74, 127
2, 59776, Note_off_c, 6, 66, 127
2, 59793, Note_off_c, 1, 49, 127
2, 59794, Note_on_c, 6, 78, 127
2, 59794, Note_on_c, 10, 69, 127
2, 59794, Note_on_c, 2, 50, 127
2, 59959, Note_off_c, 2, 50, 127
2, 59959, Note_off_c, 6, 78, 127
2, 59961, Note_on_c, 7, 79, 127
2, 59961, Note_on_c, 4, 52, 127
2, 60126, Note_off_c, 4, 52, 127
2, 60126, Note_off_c, 7, 79, 127
2, 60128, Note_on_c, 10, 81, 127
2, 60128, Note_on_c, 6, 54, 127
2, 60293, Note_off_c, 6, 54, 127
2, 60295, Note_on_c, 7, 55, 127
2, 60460, Note_off_c, 7, 55, 127
2, 60460, Note_off_c, 10, 81, 127
2, 60462, Note_on_c, 0, 72, 127
2, 60462, Note_on_c, 6, 54, 127
2, 60627, Note_off_c, 6, 54, 127
2, 60629, Note_on_c, 4, 52, 127
2, 60794, Note_off_c, 4, 52, 127
2, 60794, Note_off_c, 0, 72, 127
2, 60796, Note_on_c, 12, 71, 127
2, 60796, Note_on_c, 3, 51, 127
2, 60964, Note_off_c, 3, 51, 127
2, 60966, Note_on_c, 12, 47, 127
2, 61134, Note_off_c, 12, 47, 127
2, 61134, Note_off_c, 12, 71, 127
2, 61136, Note_on_c, 4, 76, 127
2, 61136, Note_on_c, 1, 49, 127
2, 61304, Note_off_c, 1, 49, 127
2, 61304, Note_off_c, 4, 76, 127
2, 61306, Note_on_c, 6, 78, 127
2, 61306, Note_on_c, 3, 51, 127
2, 61474, Note_off_c, 3, 51, 127
2, 61474, Note_off_c, 6, 78, 127
2, 61474, Note_off_c, 10, 69, 127
2, 61476, Note_on_c, 7, 79, 127
2, 61476, Note_on_c, 7, 67, 127
2, 61476, Note_on_c, 4, 52, 127
2, 61644, Note_off_c, 4, 52, 127
2, 61646, Note_on_c, 6, 54, 127
2, 61814, Note_off_c, 6, 54, 127
2, 61814, Note_off_c, 7, 79, 127
2, 61816, Note_on_c, 12, 71, 127
2, 61816, Note_on_c, 4, 52, 127
2, 61984, Note_off_c, 4, 52, 127
2, 61986, Note_on_c, 2, 50, 127
2, 62154, Note_off_c, 2, 50, 127
2, 62154, Note_off_c, 12, 71, 127
2, 62156, Note_on_c, 10, 69, 127
2, 62156, Note_on_c, 1, 49, 127
2, 62326, Note_off_c, 1, 49, 127
2, 62328, Note_on_c, 10, 45, 127
2, 62498, Note_off_c, 10, 45, 127
2, 62498, Note_off_c, 10, 69, 127
2, 62500, Note_on_c, 2, 74, 127
2, 62500, Note_on_c, 12, 47, 127
2, 62670, Note_off_c, 12, 47, 127
2, 62670, Note_off_c, 2, 74, 127
2, 62672, Note_on_c, 4, 76, 127
2, 62672, Note_on_c, 1, 49, 127
2, 62842, Note_off_c, 1, 49, 127
2, 62842, Note_off_c, 4, 76, 127
2, 62842, Note_off_c, 7, 67, 127
2, 62844, Note_on_c, 6, 78, 127
2, 62844, Note_on_c, 6, 66, 127
2, 62844, Note_on_c, 2, 50, 127
2, 63014, Note_off_c, 2, 50, 127
2, 63016, Note_on_c, 4, 52, 127
2, 63186, Note_off_c, 4, 52, 127
2, 63186, Note_off_c, 6, 78, 127
2, 63188, Note_on_c, 10, 69, 127
2, 63188, Note_on_c, 2, 50, 127
2, 63358, Note_off_c, 2, 50, 127
2, 63360, Note_on_c, 1, 49, 127
2, 63530, Note_off_c, 1, 49, 127
2, 63530, Note_off_c, 10, 69, 127
2, 63532, Note_on_c, 7, 67, 127
2, 63532, Note_on_c, 12, 47, 127
2, 63710, Note_off_c, 7, 67, 127
2, 63710, Note_off_c, 6, 66, 127
2, 63712, Note_on_c, 6, 78, 127
2, 63712, Note_on_c, 10, 69, 127
2, 63890, Note_off_c, 10, 69, 127
2, 63890, Note_off_c, 6, 78, 127
2, 63890, Note_off_c, 12, 47, 127
2, 63892, Note_on_c, 4, 76, 127
2, 63892, Note_on_c, 7, 67, 127
2, 63892, Note_on_c, 7, 55, 127
2, 64070, Note_off_c, 7, 67, 127
2, 64070, Note_off_c, 4, 76, 127
2, 64072, Note_on_c, 2, 74, 127
2, 64072, Note_on_c, 6, 66, 127
2, 64250, Note_off_c, 6, 66, 127
2, 64250, Note_off_c, 2, 74, 127
2, 64250, Note_off_c, 7, 55, 127
2, 64252, Note_on_c, 1, 73, 127
2, 64252, Note_on_c, 4, 64, 127
2, 64252, Note_on_c, 10, 57, 127
2, 64449, Note_off_c, 4, 64, 127
2, 64451, Note_on_c, 12, 71, 127
2, 64648, Note_off_c, 12, 71, 127
2, 64648, Note_off_c, 10, 57, 127
2, 64650, Note_on_c, 10, 69, 127
2, 64650, Note_on_c, 10, 45, 127
2, 64847, Note_off_c, 10, 69, 127
2, 64849, Note_on_c, 7, 67, 127
2, 65046, Note_off_c, 7, 67, 127
2, 65046, Note_off_c, 10, 45, 127
2, 65046, Note_off_c, 1, 73, 127
2, 65080, Note_on_c, 2, 74, 127
2, 65080, Note_on_c, 6, 66, 127
2, 65080, Note_on_c, 2, 38, 127
2, 66780, Note_off_c, 2, 38, 127
2, 66780, Note_off_c, 6, 66, 127
2, 66780, Note_off_c, 2, 74, 127
2, 72192, End_track
3, 0, Start_track
3, 0, Title_t, "MIDI"
3, 1536, End_track
0, 0, End_of_file
