0, 0, Header, 1, 3, 384
1, 0, Start_track
1, 0, Tempo, 500000
1, 0, Time_signature, 4, 2, 24, 8
1, 89088, End_track
2, 0, Start_track
2, 0, Text_t, "harpsichord: John Sankey"
2, 0, Program_c, 0, 6
2, 0, Pitch_bend_c, 0, 8192
2, 0, Program_c, 1, 6
2, 0, Pitch_bend_c, 1, 7792
2, 0, Program_c, 2, 6
2, 0, Pitch_bend_c, 2, 7876
2, 0, Program_c, 3, 6
2, 0, Pitch_bend_c, 3, 7952
2, 0, Program_c, 4, 6
2, 0, Pitch_bend_c, 4, 7792
2, 0, Program_c, 5, 6
2, 0, Pitch_bend_c, 5, 8112
2, 0, Program_c, 6, 6
2, 0, Pitch_bend_c, 6, 7712
2, 0, Program_c, 7, 6
2, 0, Pitch_bend_c, 7, 8037
2, 0, Program_c, 8, 6
2, 0, Pitch_bend_c, 8, 7872
2, 0, Program_c, 10, 6
2, 0, Pitch_bend_c, 10, 7712
2, 0, Program_c, 11, 6
2, 0, Pitch_bend_c, 11, 8032
2, 0, Program_c, 12, 6
2, 0, Pitch_bend_c, 12, 7872
2, 0, Title_t, "Track 1"
2, 48, Note_on_c, 0, 48, 127
2, 48, Note_on_c, 0, 72, 127
2, 264, Note_off_c, 0, 72, 127
2, 265, Note_on_c, 7, 67, 127
2, 481, Note_off_c, 7, 67, 127
2, 482, Note_on_c, 3, 75, 127
2, 698, Note_off_c, 3, 75, 127
2, 698, Note_off_c, 0, 48, 127
2, 699, Note_on_c, 0, 60, 127
2, 699, Note_on_c, 3, 75, 127
2, 915, Note_off_c, 3, 75, 127
2, 916, Note_on_c, 0, 72, 127
2, 1132, Note_off_c, 0, 72, 127
2, 1133, Note_on_c, 7, 79, 127
2, 1349, Note_off_c, 7, 79, 127
2, 1349, Note_off_c, 0, 60, 127
2, 1350, Note_on_c, 12, 59, 127
2, 1350, Note_on_c, 7, 79, 127
2, 1458, Note_off_c, 7, 79, 127
2, 1459, Note_on_c, 5, 77, 127
2, 1567, Note_off_c, 5, 77, 127
2, 1567, Note_off_c, 12, 59, 127
2, 1568, Note_on_c, 10, 57, 127
2, 1568, Note_on_c, 7, 79, 127
2, 1784, Note_off_c, 10, 57, 127
2, 1785, Note_on_c, 7, 55, 127
2, 2001, Note_off_c, 7, 55, 127
2, 2002, Note_on_c, 5, 65, 127
2, 2002, Note_on_c, 7, 67, 127
2, 2068, Note_off_c, 7, 79, 127
2, 2218, Note_off_c, 5, 65, 127
2, 2219, Note_on_c, 3, 63, 127
2, 2435, Note_off_c, 3, 63, 127
2, 2436, Note_on_c, 2, 62, 127
2, 2552, Note_off_c, 7, 67, 127
2, 2652, Note_off_c, 2, 62, 127
2, 2653, Note_on_c, 3, 63, 127
2, 2653, Note_on_c, 0, 72, 127
2, 2869, Note_off_c, 0, 72, 127
2, 2870, Note_on_c, 2, 74, 127
2, 3086, Note_off_c, 2, 74, 127
2, 3086, Note_off_c, 3, 63, 127
2, 3087, Note_on_c, 0, 60, 127
2, 3087, Note_on_c, 3, 75, 127
2, 3303, Note_off_c, 3, 75, 127
2, 3303, Note_off_c, 0, 60, 127
2, 3304, Note_on_c, 8, 56, 127
2, 3304, Note_on_c, 5, 77, 127
2, 3520, Note_off_c, 5, 77, 127
2, 3521, Note_on_c, 7, 79, 127
2, 3737, Note_off_c, 7, 79, 127
2, 3737, Note_off_c, 8, 56, 127
2, 3738, Note_on_c, 5, 53, 127
2, 3738, Note_on_c, 8, 80, 127
2, 3954, Note_off_c, 8, 80, 127
2, 3954, Note_off_c, 5, 53, 127
2, 3955, Note_on_c, 7, 55, 127
2, 3955, Note_on_c, 12, 71, 127
2, 4171, Note_off_c, 12, 71, 127
2, 4172, Note_on_c, 8, 80, 127
2, 4388, Note_off_c, 8, 80, 127
2, 4388, Note_off_c, 7, 55, 127
2, 4389, Note_on_c, 10, 57, 127
2, 4389, Note_on_c, 7, 79, 127
2, 4605, Note_off_c, 7, 79, 127
2, 4605, Note_off_c, 10, 57, 127
2, 4606, Note_on_c, 12, 59, 127
2, 4606, Note_on_c, 5, 77, 127
2, 4822, Note_off_c, 5, 77, 127
2, 4823, Note_on_c, 3, 75, 127
2, 5039, Note_off_c, 3, 75, 127
2, 5039, Note_off_c, 12, 59, 127
2, 5040, Note_on_c, 7, 55, 127
2, 5040, Note_on_c, 2, 74, 127
2, 5255, Note_off_c, 7, 55, 127
2, 5256, Note_off_c, 2, 74, 127
2, 5257, Note_on_c, 0, 60, 127
2, 5257, Note_on_c, 3, 75, 127
2, 5365, Note_off_c, 3, 75, 127
2, 5366, Note_on_c, 2, 74, 127
2, 5474, Note_off_c, 2, 74, 127
2, 5474, Note_off_c, 0, 60, 127
2, 5475, Note_on_c, 7, 55, 127
2, 5475, Note_on_c, 3, 75, 127
2, 5691, Note_off_c, 7, 55, 127
2, 5692, Note_on_c, 3, 63, 127
2, 5908, Note_off_c, 3, 63, 127
2, 5908, Note_off_c, 3, 75, 127
2, 5909, Note_on_c, 3, 63, 127
2, 5909, Note_on_c, 0, 72, 127
2, 6125, Note_off_c, 3, 63, 127
2, 6126, Note_on_c, 0, 60, 127
2, 6342, Note_off_c, 0, 60, 127
2, 6343, Note_on_c, 7, 67, 127
2, 6559, Note_off_c, 7, 67, 127
2, 6560, Note_on_c, 7, 67, 127
2, 6668, Note_off_c, 7, 67, 127
2, 6669, Note_on_c, 5, 65, 127
2, 6777, Note_off_c, 5, 65, 127
2, 6777, Note_off_c, 0, 72, 127
2, 6778, Note_on_c, 7, 67, 127
2, 6778, Note_on_c, 12, 71, 127
2, 6994, Note_off_c, 12, 71, 127
2, 6995, Note_on_c, 0, 72, 127
2, 7211, Note_off_c, 0, 72, 127
2, 7211, Note_off_c, 7, 67, 127
2, 7212, Note_on_c, 7, 55, 127
2, 7212, Note_on_c, 2, 74, 127
2, 7428, Note_off_c, 2, 74, 127
2, 7429, Note_on_c, 3, 75, 127
2, 7645, Note_off_c, 3, 75, 127
2, 7646, Note_on_c, 5, 77, 127
2, 7862, Note_off_c, 5, 77, 127
2, 7862, Note_off_c, 7, 55, 127
2, 7863, Note_on_c, 0, 60, 127
2, 7863, Note_on_c, 3, 75, 127
2, 8079, Note_off_c, 3, 75, 127
2, 8079, Note_off_c, 0, 60, 127
2, 8080, Note_on_c, 2, 62, 127
2, 8080, Note_on_c, 5, 77, 127
2, 8296, Note_off_c, 5, 77, 127
2, 8296, Note_off_c, 2, 62, 127
2, 8297, Note_on_c, 3, 63, 127
2, 8297, Note_on_c, 3, 75, 127
2, 8513, Note_off_c, 3, 75, 127
2, 8513, Note_off_c, 3, 63, 127
2, 8514, Note_on_c, 5, 65, 127
2, 8514, Note_on_c, 2, 74, 127
2, 8730, Note_off_c, 2, 74, 127
2, 8730, Note_off_c, 5, 65, 127
2, 8731, Note_on_c, 7, 67, 127
2, 8731, Note_on_c, 3, 75, 127
2, 8947, Note_off_c, 3, 75, 127
2, 8947, Note_off_c, 7, 67, 127
2, 8948, Note_on_c, 8, 68, 127
2, 8948, Note_on_c, 0, 72, 127
2, 9164, Note_off_c, 0, 72, 127
2, 9164, Note_off_c, 8, 68, 127
2, 9165, Note_on_c, 12, 59, 127
2, 9165, Note_on_c, 7, 79, 127
2, 9273, Note_off_c, 7, 79, 127
2, 9274, Note_on_c, 5, 77, 127
2, 9382, Note_off_c, 5, 77, 127
2, 9382, Note_off_c, 12, 59, 127
2, 9383, Note_on_c, 8, 68, 127
2, 9383, Note_on_c, 7, 79, 127
2, 9599, Note_off_c, 8, 68, 127
2, 9600, Note_on_c, 7, 67, 127
2, 9816, Note_off_c, 7, 67, 127
2, 9817, Note_on_c, 5, 65, 127
2, 10033, Note_off_c, 5, 65, 127
2, 10034, Note_on_c, 3, 63, 127
2, 10250, Note_off_c, 3, 63, 127
2, 10251, Note_on_c, 2, 62, 127
2, 10467, Note_off_c, 2, 62, 127
2, 10468, Note_on_c, 0, 60, 127
2, 10468, Note_on_c, 3, 63, 127
2, 10684, Note_off_c, 0, 60, 127
2, 10685, Note_on_c, 7, 55, 127
2, 10898, Note_off_c, 3, 63, 127
2, 10901, Note_off_c, 7, 55, 127
2, 10901, Note_off_c, 7, 79, 127
2, 10902, Note_on_c, 3, 63, 127
2, 10902, Note_on_c, 7, 79, 127
2, 11118, Note_off_c, 7, 79, 127
2, 11118, Note_off_c, 3, 63, 127
2, 11119, Note_on_c, 3, 63, 127
2, 11119, Note_on_c, 0, 72, 127
2, 11227, Note_off_c, 0, 72, 127
2, 11228, Note_on_c, 12, 71, 127
2, 11336, Note_off_c, 12, 71, 127
2, 11336, Note_off_c, 3, 63, 127
2, 11337, Note_on_c, 0, 60, 127
2, 11337, Note_on_c, 0, 72, 127
2, 11553, Note_off_c, 0, 72, 127
2, 11553, Note_off_c, 0, 60, 127
2, 11554, Note_on_c, 7, 67, 127
2, 11554, Note_on_c, 3, 75, 127
2, 11770, Note_off_c, 3, 75, 127
2, 11770, Note_off_c, 7, 67, 127
2, 11771, Note_on_c, 8, 56, 127
2, 11771, Note_on_c, 5, 65, 127
2, 11880, Note_on_c, 0, 60, 127
2, 11988, Note_off_c, 0, 60, 127
2, 11989, Note_on_c, 2, 62, 127
2, 12097, Note_off_c, 2, 62, 127
2, 12098, Note_on_c, 3, 63, 127
2, 12157, Note_off_c, 5, 65, 127
2, 12206, Note_off_c, 3, 63, 127
2, 12207, Note_on_c, 5, 65, 127
2, 12315, Note_off_c, 5, 65, 127
2, 12316, Note_on_c, 7, 67, 127
2, 12424, Note_off_c, 7, 67, 127
2, 12425, Note_on_c, 8, 68, 127
2, 12533, Note_off_c, 8, 68, 127
2, 12534, Note_on_c, 11, 70, 127
2, 12642, Note_off_c, 11, 70, 127
2, 12643, Note_on_c, 8, 68, 127
2, 12751, Note_off_c, 8, 68, 127
2, 12752, Note_on_c, 7, 67, 127
2, 12860, Note_off_c, 7, 67, 127
2, 12861, Note_on_c, 5, 65, 127
2, 12969, Note_off_c, 5, 65, 127
2, 12970, Note_on_c, 3, 63, 127
2, 12971, Note_off_c, 8, 56, 127
2, 13078, Note_off_c, 3, 63, 127
2, 13079, Note_on_c, 11, 58, 127
2, 13079, Note_on_c, 2, 62, 127
2, 13294, Note_off_c, 2, 62, 127
2, 13295, Note_off_c, 11, 58, 127
2, 13296, Note_on_c, 5, 53, 127
2, 13512, Note_off_c, 5, 53, 127
2, 13513, Note_on_c, 2, 62, 127
2, 13513, Note_on_c, 5, 77, 127
2, 13729, Note_off_c, 5, 77, 127
2, 13729, Note_off_c, 2, 62, 127
2, 13730, Note_on_c, 2, 62, 127
2, 13730, Note_on_c, 11, 70, 127
2, 13946, Note_off_c, 2, 62, 127
2, 13947, Note_on_c, 11, 58, 127
2, 14163, Note_off_c, 11, 58, 127
2, 14163, Note_off_c, 11, 70, 127
2, 14164, Note_on_c, 5, 65, 127
2, 14164, Note_on_c, 2, 74, 127
2, 14380, Note_off_c, 2, 74, 127
2, 14380, Note_off_c, 5, 65, 127
2, 14381, Note_on_c, 7, 55, 127
2, 14381, Note_on_c, 3, 63, 127
2, 14490, Note_on_c, 11, 58, 127
2, 14598, Note_off_c, 11, 58, 127
2, 14599, Note_on_c, 0, 60, 127
2, 14707, Note_off_c, 0, 60, 127
2, 14708, Note_on_c, 2, 62, 127
2, 14767, Note_off_c, 3, 63, 127
2, 14816, Note_off_c, 2, 62, 127
2, 14817, Note_on_c, 3, 63, 127
2, 14925, Note_off_c, 3, 63, 127
2, 14926, Note_on_c, 5, 65, 127
2, 15034, Note_off_c, 5, 65, 127
2, 15035, Note_on_c, 7, 67, 127
2, 15143, Note_off_c, 7, 67, 127
2, 15144, Note_on_c, 8, 68, 127
2, 15252, Note_off_c, 8, 68, 127
2, 15253, Note_on_c, 7, 67, 127
2, 15361, Note_off_c, 7, 67, 127
2, 15362, Note_on_c, 5, 65, 127
2, 15470, Note_off_c, 5, 65, 127
2, 15471, Note_on_c, 3, 63, 127
2, 15579, Note_off_c, 3, 63, 127
2, 15580, Note_on_c, 2, 62, 127
2, 15581, Note_off_c, 7, 55, 127
2, 15688, Note_off_c, 2, 62, 127
2, 15689, Note_on_c, 8, 56, 127
2, 15689, Note_on_c, 0, 60, 127
2, 15689, Note_on_c, 5, 77, 127
2, 15760, Note_off_c, 5, 77, 127
2, 15761, Note_on_c, 3, 75, 127
2, 15832, Note_off_c, 3, 75, 127
2, 15833, Note_on_c, 5, 77, 127
2, 15904, Note_off_c, 5, 77, 127
2, 15904, Note_off_c, 8, 56, 127
2, 15905, Note_on_c, 3, 51, 127
2, 15905, Note_on_c, 3, 75, 127
2, 15976, Note_off_c, 3, 75, 127
2, 15977, Note_on_c, 5, 77, 127
2, 16048, Note_off_c, 5, 77, 127
2, 16049, Note_on_c, 3, 75, 127
2, 16117, Note_off_c, 0, 60, 127
2, 16120, Note_off_c, 3, 75, 127
2, 16120, Note_off_c, 3, 51, 127
2, 16121, Note_on_c, 0, 60, 127
2, 16121, Note_on_c, 5, 77, 127
2, 16192, Note_off_c, 5, 77, 127
2, 16193, Note_on_c, 3, 75, 127
2, 16264, Note_off_c, 3, 75, 127
2, 16265, Note_on_c, 5, 77, 127
2, 16336, Note_off_c, 5, 77, 127
2, 16336, Note_off_c, 0, 60, 127
2, 16337, Note_on_c, 0, 60, 127
2, 16337, Note_on_c, 3, 75, 127
2, 16408, Note_off_c, 3, 75, 127
2, 16409, Note_on_c, 5, 77, 127
2, 16480, Note_off_c, 5, 77, 127
2, 16481, Note_on_c, 3, 75, 127
2, 16552, Note_off_c, 3, 75, 127
2, 16552, Note_off_c, 0, 60, 127
2, 16553, Note_on_c, 8, 56, 127
2, 16553, Note_on_c, 5, 77, 127
2, 16624, Note_off_c, 5, 77, 127
2, 16625, Note_on_c, 3, 75, 127
2, 16696, Note_off_c, 3, 75, 127
2, 16697, Note_on_c, 5, 77, 127
2, 16768, Note_off_c, 5, 77, 127
2, 16768, Note_off_c, 8, 56, 127
2, 16769, Note_on_c, 3, 63, 127
2, 16769, Note_on_c, 0, 72, 127
2, 16769, Note_on_c, 3, 75, 127
2, 16840, Note_off_c, 3, 75, 127
2, 16841, Note_on_c, 5, 77, 127
2, 16912, Note_off_c, 5, 77, 127
2, 16913, Note_on_c, 3, 75, 127
2, 16984, Note_off_c, 3, 75, 127
2, 16984, Note_off_c, 0, 72, 127
2, 16984, Note_off_c, 3, 63, 127
2, 16985, Note_on_c, 7, 55, 127
2, 16985, Note_on_c, 11, 70, 127
2, 16985, Note_on_c, 5, 77, 127
2, 17056, Note_off_c, 5, 77, 127
2, 17057, Note_on_c, 3, 75, 127
2, 17128, Note_off_c, 3, 75, 127
2, 17129, Note_on_c, 5, 77, 127
2, 17200, Note_off_c, 5, 77, 127
2, 17200, Note_off_c, 7, 55, 127
2, 17201, Note_on_c, 3, 51, 127
2, 17201, Note_on_c, 3, 75, 127
2, 17272, Note_off_c, 3, 75, 127
2, 17273, Note_on_c, 5, 77, 127
2, 17344, Note_off_c, 5, 77, 127
2, 17345, Note_on_c, 3, 75, 127
2, 17416, Note_off_c, 3, 75, 127
2, 17416, Note_off_c, 3, 51, 127
2, 17417, Note_on_c, 11, 58, 127
2, 17417, Note_on_c, 5, 77, 127
2, 17488, Note_off_c, 5, 77, 127
2, 17489, Note_on_c, 3, 75, 127
2, 17560, Note_off_c, 3, 75, 127
2, 17561, Note_on_c, 5, 77, 127
2, 17632, Note_off_c, 5, 77, 127
2, 17632, Note_off_c, 11, 58, 127
2, 17633, Note_on_c, 11, 58, 127
2, 17633, Note_on_c, 3, 75, 127
2, 17704, Note_off_c, 3, 75, 127
2, 17705, Note_on_c, 5, 77, 127
2, 17776, Note_off_c, 5, 77, 127
2, 17777, Note_on_c, 3, 75, 127
2, 17848, Note_off_c, 3, 75, 127
2, 17848, Note_off_c, 11, 58, 127
2, 17849, Note_on_c, 7, 55, 127
2, 17849, Note_on_c, 5, 77, 127
2, 17920, Note_off_c, 5, 77, 127
2, 17921, Note_on_c, 3, 75, 127
2, 17992, Note_off_c, 3, 75, 127
2, 17993, Note_on_c, 5, 77, 127
2, 18064, Note_off_c, 5, 77, 127
2, 18064, Note_off_c, 7, 55, 127
2, 18064, Note_off_c, 11, 70, 127
2, 18065, Note_on_c, 3, 63, 127
2, 18065, Note_on_c, 0, 72, 127
2, 18065, Note_on_c, 3, 75, 127
2, 18136, Note_off_c, 3, 75, 127
2, 18137, Note_on_c, 5, 77, 127
2, 18208, Note_off_c, 5, 77, 127
2, 18220, Note_on_c, 3, 75, 127
2, 18280, Note_off_c, 0, 72, 127
2, 18280, Note_off_c, 3, 63, 127
2, 18281, Note_on_c, 5, 53, 127
2, 18281, Note_on_c, 8, 68, 127
2, 18497, Note_off_c, 5, 53, 127
2, 18498, Note_on_c, 7, 55, 127
2, 18688, Note_off_c, 3, 75, 127
2, 18714, Note_off_c, 7, 55, 127
2, 18715, Note_on_c, 8, 56, 127
2, 18715, Note_on_c, 5, 77, 127
2, 18931, Note_off_c, 5, 77, 127
2, 18931, Note_off_c, 8, 56, 127
2, 18932, Note_on_c, 11, 58, 127
2, 18932, Note_on_c, 2, 74, 127
2, 19148, Note_off_c, 11, 58, 127
2, 19149, Note_on_c, 0, 60, 127
2, 19365, Note_off_c, 0, 60, 127
2, 19365, Note_off_c, 8, 68, 127
2, 19366, Note_on_c, 2, 62, 127
2, 19366, Note_on_c, 11, 70, 127
2, 19582, Note_off_c, 11, 70, 127
2, 19582, Note_off_c, 2, 62, 127
2, 19583, Note_on_c, 3, 51, 127
2, 19583, Note_on_c, 7, 67, 127
2, 19799, Note_off_c, 2, 74, 127
2, 19800, Note_on_c, 7, 79, 127
2, 19908, Note_off_c, 7, 79, 127
2, 19909, Note_on_c, 5, 77, 127
2, 20017, Note_off_c, 5, 77, 127
2, 20018, Note_on_c, 3, 75, 127
2, 20126, Note_off_c, 3, 75, 127
2, 20127, Note_on_c, 2, 74, 127
2, 20235, Note_off_c, 2, 74, 127
2, 20235, Note_off_c, 7, 67, 127
2, 20235, Note_off_c, 3, 51, 127
2, 20236, Note_on_c, 3, 63, 127
2, 20236, Note_on_c, 0, 72, 127
2, 20344, Note_off_c, 0, 72, 127
2, 20344, Note_off_c, 3, 63, 127
2, 20345, Note_on_c, 2, 62, 127
2, 20345, Note_on_c, 2, 74, 127
2, 20453, Note_off_c, 2, 74, 127
2, 20453, Note_off_c, 2, 62, 127
2, 20454, Note_on_c, 3, 63, 127
2, 20454, Note_on_c, 0, 72, 127
2, 20562, Note_off_c, 0, 72, 127
2, 20563, Note_on_c, 11, 70, 127
2, 20671, Note_off_c, 11, 70, 127
2, 20672, Note_on_c, 10, 69, 127
2, 20780, Note_off_c, 10, 69, 127
2, 20781, Note_on_c, 7, 67, 127
2, 20889, Note_off_c, 7, 67, 127
2, 20889, Note_off_c, 3, 63, 127
2, 20890, Note_on_c, 2, 62, 127
2, 20890, Note_on_c, 6, 66, 127
2, 21106, Note_off_c, 6, 66, 127
2, 21107, Note_on_c, 10, 81, 127
2, 21215, Note_off_c, 10, 81, 127
2, 21216, Note_on_c, 7, 79, 127
2, 21324, Note_off_c, 7, 79, 127
2, 21325, Note_on_c, 6, 78, 127
2, 21433, Note_off_c, 6, 78, 127
2, 21434, Note_on_c, 4, 76, 127
2, 21542, Note_off_c, 4, 76, 127
2, 21542, Note_off_c, 2, 62, 127
2, 21543, Note_on_c, 6, 54, 127
2, 21543, Note_on_c, 2, 74, 127
2, 21651, Note_off_c, 2, 74, 127
2, 21652, Note_on_c, 3, 75, 127
2, 21760, Note_off_c, 3, 75, 127
2, 21761, Note_on_c, 2, 74, 127
2, 21869, Note_off_c, 2, 74, 127
2, 21870, Note_on_c, 0, 72, 127
2, 21978, Note_off_c, 0, 72, 127
2, 21979, Note_on_c, 11, 70, 127
2, 22087, Note_off_c, 11, 70, 127
2, 22088, Note_on_c, 10, 69, 127
2, 22196, Note_off_c, 10, 69, 127
2, 22196, Note_off_c, 6, 54, 127
2, 22197, Note_on_c, 7, 55, 127
2, 22197, Note_on_c, 11, 70, 127
2, 22413, Note_off_c, 7, 55, 127
2, 22414, Note_on_c, 2, 50, 127
2, 22630, Note_off_c, 2, 50, 127
2, 22631, Note_on_c, 11, 58, 127
2, 22847, Note_off_c, 11, 58, 127
2, 22848, Note_on_c, 11, 58, 127
2, 22848, Note_on_c, 7, 67, 127
2, 23064, Note_off_c, 11, 58, 127
2, 23065, Note_on_c, 7, 55, 127
2, 23281, Note_off_c, 7, 55, 127
2, 23282, Note_on_c, 2, 62, 127
2, 23498, Note_off_c, 2, 62, 127
2, 23498, Note_off_c, 7, 67, 127
2, 23498, Note_off_c, 11, 70, 127
2, 23499, Note_on_c, 2, 62, 127
2, 23499, Note_on_c, 6, 66, 127
2, 23499, Note_on_c, 10, 69, 127
2, 23715, Note_off_c, 6, 66, 127
2, 23716, Note_on_c, 4, 64, 127
2, 23929, Note_off_c, 2, 62, 127
2, 23932, Note_off_c, 4, 64, 127
2, 23933, Note_on_c, 2, 62, 127
2, 24149, Note_off_c, 10, 69, 127
2, 24150, Note_on_c, 2, 50, 127
2, 24150, Note_on_c, 0, 72, 127
2, 24150, Note_on_c, 6, 78, 127
2, 24366, Note_off_c, 0, 72, 127
2, 24367, Note_on_c, 11, 70, 127
2, 24583, Note_off_c, 11, 70, 127
2, 24583, Note_off_c, 2, 62, 127
2, 24584, Note_on_c, 10, 69, 127
2, 24800, Note_off_c, 10, 69, 127
2, 24800, Note_off_c, 6, 78, 127
2, 24800, Note_off_c, 2, 50, 127
2, 24801, Note_on_c, 7, 55, 127
2, 24801, Note_on_c, 11, 70, 127
2, 24801, Note_on_c, 7, 79, 127
2, 25017, Note_off_c, 11, 70, 127
2, 25017, Note_off_c, 7, 55, 127
2, 25018, Note_on_c, 10, 57, 127
2, 25018, Note_on_c, 0, 72, 127
2, 25234, Note_off_c, 0, 72, 127
2, 25234, Note_off_c, 10, 57, 127
2, 25235, Note_on_c, 11, 58, 127
2, 25235, Note_on_c, 11, 70, 127
2, 25451, Note_off_c, 11, 70, 127
2, 25451, Note_off_c, 11, 58, 127
2, 25452, Note_on_c, 0, 60, 127
2, 25452, Note_on_c, 10, 69, 127
2, 25668, Note_off_c, 10, 69, 127
2, 25668, Note_off_c, 0, 60, 127
2, 25668, Note_off_c, 7, 79, 127
2, 25669, Note_on_c, 2, 62, 127
2, 25669, Note_on_c, 11, 70, 127
2, 25885, Note_off_c, 11, 70, 127
2, 25885, Note_off_c, 2, 62, 127
2, 25886, Note_on_c, 3, 63, 127
2, 25886, Note_on_c, 7, 67, 127
2, 26102, Note_off_c, 7, 67, 127
2, 26102, Note_off_c, 3, 63, 127
2, 26103, Note_on_c, 6, 54, 127
2, 26103, Note_on_c, 2, 74, 127
2, 26319, Note_off_c, 6, 54, 127
2, 26320, Note_on_c, 3, 63, 127
2, 26320, Note_on_c, 0, 72, 127
2, 26343, Note_off_c, 2, 74, 127
2, 26536, Note_off_c, 0, 72, 127
2, 26536, Note_off_c, 3, 63, 127
2, 26537, Note_on_c, 2, 62, 127
2, 26537, Note_on_c, 11, 70, 127
2, 26753, Note_off_c, 11, 70, 127
2, 26753, Note_off_c, 2, 62, 127
2, 26754, Note_on_c, 0, 60, 127
2, 26754, Note_on_c, 10, 69, 127
2, 26970, Note_off_c, 10, 69, 127
2, 26970, Note_off_c, 0, 60, 127
2, 26971, Note_on_c, 11, 58, 127
2, 26971, Note_on_c, 7, 67, 127
2, 27187, Note_off_c, 7, 67, 127
2, 27187, Note_off_c, 11, 58, 127
2, 27188, Note_on_c, 10, 57, 127
2, 27188, Note_on_c, 6, 66, 127
2, 27403, Note_off_c, 6, 66, 127
2, 27404, Note_off_c, 10, 57, 127
2, 27405, Note_on_c, 11, 58, 127
2, 27405, Note_on_c, 7, 67, 127
2, 27621, Note_off_c, 7, 67, 127
2, 27622, Note_on_c, 2, 62, 127
2, 27838, Note_off_c, 2, 62, 127
2, 27839, Note_on_c, 11, 70, 127
2, 28055, Note_off_c, 11, 70, 127
2, 28055, Note_off_c, 11, 58, 127
2, 28056, Note_on_c, 7, 55, 127
2, 28056, Note_on_c, 2, 62, 127
2, 28056, Note_on_c, 11, 70, 127
2, 28272, Note_off_c, 11, 70, 127
2, 28273, Note_on_c, 7, 67, 127
2, 28489, Note_off_c, 7, 67, 127
2, 28490, Note_on_c, 2, 74, 127
2, 28706, Note_off_c, 2, 74, 127
2, 28706, Note_off_c, 2, 62, 127
2, 28707, Note_on_c, 10, 69, 127
2, 28707, Note_on_c, 2, 74, 127
2, 28923, Note_off_c, 7, 55, 127
2, 28924, Note_on_c, 6, 54, 127
2, 29140, Note_off_c, 6, 54, 127
2, 29141, Note_on_c, 7, 55, 127
2, 29357, Note_off_c, 7, 55, 127
2, 29357, Note_off_c, 2, 74, 127
2, 29357, Note_off_c, 10, 69, 127
2, 29358, Note_on_c, 10, 57, 127
2, 29358, Note_on_c, 6, 66, 127
2, 29358, Note_on_c, 2, 62, 127
2, 29574, Note_off_c, 10, 57, 127
2, 29575, Note_on_c, 11, 58, 127
2, 29791, Note_off_c, 11, 58, 127
2, 29792, Note_on_c, 0, 60, 127
2, 29958, Note_off_c, 6, 66, 127
2, 30008, Note_off_c, 0, 60, 127
2, 30008, Note_off_c, 2, 62, 127
2, 30009, Note_on_c, 11, 58, 127
2, 30009, Note_on_c, 7, 67, 127
2, 30225, Note_off_c, 11, 58, 127
2, 30226, Note_on_c, 0, 60, 127
2, 30226, Note_on_c, 10, 69, 127
2, 30439, Note_off_c, 7, 67, 127
2, 30442, Note_off_c, 10, 69, 127
2, 30442, Note_off_c, 0, 60, 127
2, 30443, Note_on_c, 11, 58, 127
2, 30443, Note_on_c, 11, 70, 127
2, 30659, Note_off_c, 11, 70, 127
2, 30659, Note_off_c, 11, 58, 127
2, 30660, Note_on_c, 10, 57, 127
2, 30660, Note_on_c, 0, 72, 127
2, 30876, Note_off_c, 0, 72, 127
2, 30876, Note_off_c, 10, 57, 127
2, 30877, Note_on_c, 11, 58, 127
2, 30877, Note_on_c, 2, 74, 127
2, 31093, Note_off_c, 2, 74, 127
2, 31093, Note_off_c, 11, 58, 127
2, 31094, Note_on_c, 7, 55, 127
2, 31094, Note_on_c, 3, 75, 127
2, 31310, Note_off_c, 3, 75, 127
2, 31310, Note_off_c, 7, 55, 127
2, 31311, Note_on_c, 2, 62, 127
2, 31311, Note_on_c, 6, 66, 127
2, 31527, Note_off_c, 6, 66, 127
2, 31527, Note_off_c, 2, 62, 127
2, 31528, Note_on_c, 0, 60, 127
2, 31528, Note_on_c, 3, 75, 127
2, 31744, Note_off_c, 3, 75, 127
2, 31744, Note_off_c, 0, 60, 127
2, 31745, Note_on_c, 11, 58, 127
2, 31745, Note_on_c, 2, 74, 127
2, 31961, Note_off_c, 2, 74, 127
2, 31961, Note_off_c, 11, 58, 127
2, 31962, Note_on_c, 10, 57, 127
2, 31962, Note_on_c, 0, 72, 127
2, 32178, Note_off_c, 0, 72, 127
2, 32178, Note_off_c, 10, 57, 127
2, 32179, Note_on_c, 7, 55, 127
2, 32179, Note_on_c, 11, 70, 127
2, 32395, Note_off_c, 11, 70, 127
2, 32395, Note_off_c, 7, 55, 127
2, 32396, Note_on_c, 6, 54, 127
2, 32396, Note_on_c, 10, 69, 127
2, 32612, Note_off_c, 10, 69, 127
2, 32612, Note_off_c, 6, 54, 127
2, 32613, Note_on_c, 7, 55, 127
2, 32613, Note_on_c, 7, 67, 127
2, 32613, Note_on_c, 11, 70, 127
2, 32829, Note_off_c, 7, 67, 127
2, 32830, Note_on_c, 2, 62, 127
2, 33043, Note_off_c, 11, 70, 127
2, 33046, Note_off_c, 2, 62, 127
2, 33046, Note_off_c, 7, 55, 127
2, 33047, Note_on_c, 2, 62, 127
2, 33047, Note_on_c, 11, 70, 127
2, 33263, Note_off_c, 11, 70, 127
2, 33263, Note_off_c, 2, 62, 127
2, 33264, Note_on_c, 7, 55, 127
2, 33264, Note_on_c, 11, 70, 127
2, 33480, Note_off_c, 11, 70, 127
2, 33481, Note_on_c, 7, 67, 127
2, 33697, Note_off_c, 7, 67, 127
2, 33697, Note_off_c, 7, 55, 127
2, 33698, Note_on_c, 11, 58, 127
2, 33698, Note_on_c, 2, 74, 127
2, 33914, Note_off_c, 2, 74, 127
2, 33914, Note_off_c, 11, 58, 127
2, 33915, Note_on_c, 0, 48, 127
2, 33915, Note_on_c, 3, 63, 127
2, 34024, Note_on_c, 7, 67, 127
2, 34132, Note_off_c, 7, 67, 127
2, 34133, Note_on_c, 10, 69, 127
2, 34241, Note_off_c, 10, 69, 127
2, 34242, Note_on_c, 11, 70, 127
2, 34350, Note_off_c, 11, 70, 127
2, 34351, Note_on_c, 0, 72, 127
2, 34459, Note_off_c, 0, 72, 127
2, 34460, Note_on_c, 2, 74, 127
2, 34568, Note_off_c, 2, 74, 127
2, 34569, Note_on_c, 3, 75, 127
2, 34677, Note_off_c, 3, 75, 127
2, 34678, Note_on_c, 5, 77, 127
2, 34786, Note_off_c, 5, 77, 127
2, 34786, Note_off_c, 3, 63, 127
2, 34786, Note_off_c, 0, 48, 127
2, 34787, Note_on_c, 3, 75, 127
2, 34895, Note_off_c, 3, 75, 127
2, 34896, Note_on_c, 2, 74, 127
2, 35004, Note_off_c, 2, 74, 127
2, 35005, Note_on_c, 0, 72, 127
2, 35113, Note_off_c, 0, 72, 127
2, 35114, Note_on_c, 11, 70, 127
2, 35222, Note_off_c, 11, 70, 127
2, 35223, Note_on_c, 5, 65, 127
2, 35223, Note_on_c, 10, 69, 127
2, 35439, Note_off_c, 5, 65, 127
2, 35440, Note_on_c, 0, 60, 127
2, 35653, Note_off_c, 10, 69, 127
2, 35656, Note_off_c, 0, 60, 127
2, 35657, Note_on_c, 0, 60, 127
2, 35657, Note_on_c, 10, 69, 127
2, 35873, Note_off_c, 10, 69, 127
2, 35873, Note_off_c, 0, 60, 127
2, 35874, Note_on_c, 5, 53, 127
2, 35874, Note_on_c, 10, 69, 127
2, 36090, Note_off_c, 10, 69, 127
2, 36091, Note_on_c, 5, 65, 127
2, 36307, Note_off_c, 5, 65, 127
2, 36307, Note_off_c, 5, 53, 127
2, 36308, Note_on_c, 10, 57, 127
2, 36308, Note_on_c, 0, 72, 127
2, 36524, Note_off_c, 0, 72, 127
2, 36524, Note_off_c, 10, 57, 127
2, 36525, Note_on_c, 11, 46, 127
2, 36525, Note_on_c, 2, 62, 127
2, 36634, Note_on_c, 5, 65, 127
2, 36742, Note_off_c, 5, 65, 127
2, 36743, Note_on_c, 7, 67, 127
2, 36851, Note_off_c, 7, 67, 127
2, 36852, Note_on_c, 10, 69, 127
2, 36960, Note_off_c, 10, 69, 127
2, 36961, Note_on_c, 11, 70, 127
2, 37069, Note_off_c, 11, 70, 127
2, 37070, Note_on_c, 0, 72, 127
2, 37178, Note_off_c, 0, 72, 127
2, 37178, Note_off_c, 2, 62, 127
2, 37179, Note_on_c, 2, 74, 127
2, 37287, Note_off_c, 2, 74, 127
2, 37288, Note_on_c, 3, 75, 127
2, 37396, Note_off_c, 3, 75, 127
2, 37397, Note_on_c, 2, 74, 127
2, 37505, Note_off_c, 2, 74, 127
2, 37506, Note_on_c, 0, 72, 127
2, 37614, Note_off_c, 0, 72, 127
2, 37615, Note_on_c, 11, 70, 127
2, 37723, Note_off_c, 11, 70, 127
2, 37724, Note_on_c, 10, 69, 127
2, 37832, Note_off_c, 10, 69, 127
2, 37832, Note_off_c, 11, 46, 127
2, 37833, Note_on_c, 0, 48, 127
2, 37833, Note_on_c, 3, 63, 127
2, 37833, Note_on_c, 7, 67, 127
2, 37904, Note_off_c, 0, 48, 127
2, 37905, Note_on_c, 11, 46, 127
2, 37976, Note_off_c, 11, 46, 127
2, 37977, Note_on_c, 0, 48, 127
2, 38048, Note_off_c, 0, 48, 127
2, 38048, Note_off_c, 3, 63, 127
2, 38049, Note_on_c, 11, 46, 127
2, 38049, Note_on_c, 11, 58, 127
2, 38120, Note_off_c, 11, 46, 127
2, 38121, Note_on_c, 0, 48, 127
2, 38192, Note_off_c, 0, 48, 127
2, 38193, Note_on_c, 11, 46, 127
2, 38261, Note_off_c, 7, 67, 127
2, 38264, Note_off_c, 11, 46, 127
2, 38264, Note_off_c, 11, 58, 127
2, 38265, Note_on_c, 0, 48, 127
2, 38265, Note_on_c, 7, 67, 127
2, 38336, Note_off_c, 0, 48, 127
2, 38337, Note_on_c, 11, 46, 127
2, 38408, Note_off_c, 11, 46, 127
2, 38409, Note_on_c, 0, 48, 127
2, 38480, Note_off_c, 0, 48, 127
2, 38480, Note_off_c, 7, 67, 127
2, 38481, Note_on_c, 11, 46, 127
2, 38481, Note_on_c, 7, 67, 127
2, 38552, Note_off_c, 11, 46, 127
2, 38553, Note_on_c, 0, 48, 127
2, 38624, Note_off_c, 0, 48, 127
2, 38625, Note_on_c, 11, 46, 127
2, 38696, Note_off_c, 11, 46, 127
2, 38696, Note_off_c, 7, 67, 127
2, 38697, Note_on_c, 0, 48, 127
2, 38697, Note_on_c, 3, 63, 127
2, 38768, Note_off_c, 0, 48, 127
2, 38769, Note_on_c, 11, 46, 127
2, 38840, Note_off_c, 11, 46, 127
2, 38841, Note_on_c, 0, 48, 127
2, 38912, Note_off_c, 0, 48, 127
2, 38912, Note_off_c, 3, 63, 127
2, 38913, Note_on_c, 11, 46, 127
2, 38913, Note_on_c, 11, 70, 127
2, 38913, Note_on_c, 7, 67, 127
2, 38984, Note_off_c, 11, 46, 127
2, 38985, Note_on_c, 0, 48, 127
2, 39056, Note_off_c, 0, 48, 127
2, 39057, Note_on_c, 11, 46, 127
2, 39128, Note_off_c, 11, 46, 127
2, 39128, Note_off_c, 7, 67, 127
2, 39128, Note_off_c, 11, 70, 127
2, 39129, Note_on_c, 0, 48, 127
2, 39129, Note_on_c, 2, 62, 127
2, 39129, Note_on_c, 5, 65, 127
2, 39200, Note_off_c, 0, 48, 127
2, 39201, Note_on_c, 11, 46, 127
2, 39272, Note_off_c, 11, 46, 127
2, 39273, Note_on_c, 0, 48, 127
2, 39344, Note_off_c, 0, 48, 127
2, 39344, Note_off_c, 2, 62, 127
2, 39345, Note_on_c, 11, 46, 127
2, 39345, Note_on_c, 11, 58, 127
2, 39416, Note_off_c, 11, 46, 127
2, 39417, Note_on_c, 0, 48, 127
2, 39488, Note_off_c, 0, 48, 127
2, 39489, Note_on_c, 11, 46, 127
2, 39557, Note_off_c, 5, 65, 127
2, 39560, Note_off_c, 11, 46, 127
2, 39560, Note_off_c, 11, 58, 127
2, 39561, Note_on_c, 0, 48, 127
2, 39561, Note_on_c, 5, 65, 127
2, 39632, Note_off_c, 0, 48, 127
2, 39633, Note_on_c, 11, 46, 127
2, 39704, Note_off_c, 11, 46, 127
2, 39705, Note_on_c, 0, 48, 127
2, 39776, Note_off_c, 0, 48, 127
2, 39776, Note_off_c, 5, 65, 127
2, 39777, Note_on_c, 11, 46, 127
2, 39777, Note_on_c, 5, 65, 127
2, 39848, Note_off_c, 11, 46, 127
2, 39849, Note_on_c, 0, 48, 127
2, 39920, Note_off_c, 0, 48, 127
2, 39921, Note_on_c, 11, 46, 127
2, 39992, Note_off_c, 11, 46, 127
2, 39992, Note_off_c, 5, 65, 127
2, 39993, Note_on_c, 0, 48, 127
2, 39993, Note_on_c, 2, 62, 127
2, 40064, Note_off_c, 0, 48, 127
2, 40065, Note_on_c, 11, 46, 127
2, 40136, Note_off_c, 11, 46, 127
2, 40137, Note_on_c, 0, 48, 127
2, 40208, Note_off_c, 0, 48, 127
2, 40208, Note_off_c, 2, 62, 127
2, 40209, Note_on_c, 11, 46, 127
2, 40209, Note_on_c, 11, 70, 127
2, 40209, Note_on_c, 7, 67, 127
2, 40280, Note_off_c, 11, 46, 127
2, 40281, Note_on_c, 0, 48, 127
2, 40352, Note_off_c, 0, 48, 127
2, 40353, Note_on_c, 11, 46, 127
2, 40424, Note_off_c, 11, 46, 127
2, 40424, Note_off_c, 7, 67, 127
2, 40424, Note_off_c, 11, 70, 127
2, 40425, Note_on_c, 11, 46, 127
2, 40425, Note_on_c, 0, 60, 127
2, 40425, Note_on_c, 3, 63, 127
2, 40640, Note_off_c, 3, 63, 127
2, 40641, Note_off_c, 0, 60, 127
2, 40642, Note_on_c, 2, 62, 127
2, 40858, Note_off_c, 2, 62, 127
2, 40859, Note_on_c, 3, 63, 127
2, 41075, Note_off_c, 3, 63, 127
2, 41075, Note_off_c, 11, 46, 127
2, 41076, Note_on_c, 10, 45, 127
2, 41076, Note_on_c, 5, 65, 127
2, 41292, Note_off_c, 5, 65, 127
2, 41293, Note_on_c, 7, 67, 127
2, 41509, Note_off_c, 7, 67, 127
2, 41510, Note_on_c, 10, 69, 127
2, 41510, Note_on_c, 5, 65, 127
2, 41726, Note_off_c, 5, 65, 127
2, 41726, Note_off_c, 10, 69, 127
2, 41726, Note_off_c, 10, 45, 127
2, 41727, Note_on_c, 11, 58, 127
2, 41727, Note_on_c, 2, 62, 127
2, 41944, Note_on_c, 2, 50, 127
2, 42052, Note_off_c, 2, 50, 127
2, 42053, Note_on_c, 0, 48, 127
2, 42157, Note_off_c, 11, 58, 127
2, 42160, Note_off_c, 0, 48, 127
2, 42160, Note_off_c, 2, 62, 127
2, 42161, Note_on_c, 11, 46, 127
2, 42161, Note_on_c, 2, 74, 127
2, 42269, Note_off_c, 11, 46, 127
2, 42270, Note_on_c, 10, 45, 127
2, 42378, Note_off_c, 10, 45, 127
2, 42378, Note_off_c, 2, 74, 127
2, 42379, Note_on_c, 7, 43, 127
2, 42379, Note_on_c, 11, 70, 127
2, 42487, Note_off_c, 7, 43, 127
2, 42488, Note_on_c, 10, 45, 127
2, 42596, Note_off_c, 10, 45, 127
2, 42597, Note_on_c, 7, 43, 127
2, 42705, Note_off_c, 7, 43, 127
2, 42706, Note_on_c, 5, 41, 127
2, 42814, Note_off_c, 5, 41, 127
2, 42815, Note_on_c, 3, 39, 127
2, 42815, Note_on_c, 7, 67, 127
2, 42923, Note_off_c, 3, 39, 127
2, 42924, Note_on_c, 2, 38, 127
2, 43032, Note_off_c, 2, 38, 127
2, 43032, Note_off_c, 7, 67, 127
2, 43033, Note_on_c, 0, 36, 127
2, 43033, Note_on_c, 3, 63, 127
2, 43249, Note_off_c, 0, 36, 127
2, 43250, Note_on_c, 3, 51, 127
2, 43358, Note_off_c, 3, 51, 127
2, 43359, Note_on_c, 2, 50, 127
2, 43467, Note_off_c, 2, 50, 127
2, 43467, Note_off_c, 11, 70, 127
2, 43468, Note_on_c, 0, 48, 127
2, 43468, Note_on_c, 3, 75, 127
2, 43576, Note_off_c, 0, 48, 127
2, 43577, Note_on_c, 11, 46, 127
2, 43685, Note_off_c, 11, 46, 127
2, 43685, Note_off_c, 3, 75, 127
2, 43686, Note_on_c, 10, 45, 127
2, 43686, Note_on_c, 0, 72, 127
2, 43794, Note_off_c, 10, 45, 127
2, 43795, Note_on_c, 11, 46, 127
2, 43903, Note_off_c, 11, 46, 127
2, 43904, Note_on_c, 10, 45, 127
2, 44012, Note_off_c, 10, 45, 127
2, 44013, Note_on_c, 7, 43, 127
2, 44121, Note_off_c, 7, 43, 127
2, 44121, Note_off_c, 3, 63, 127
2, 44122, Note_on_c, 6, 42, 127
2, 44122, Note_on_c, 10, 69, 127
2, 44230, Note_off_c, 6, 42, 127
2, 44231, Note_on_c, 4, 40, 127
2, 44339, Note_off_c, 4, 40, 127
2, 44339, Note_off_c, 10, 69, 127
2, 44340, Note_on_c, 2, 38, 127
2, 44340, Note_on_c, 6, 66, 127
2, 44556, Note_off_c, 0, 72, 127
2, 44557, Note_on_c, 2, 74, 127
2, 44665, Note_off_c, 2, 74, 127
2, 44666, Note_on_c, 0, 72, 127
2, 44774, Note_off_c, 0, 72, 127
2, 44775, Note_on_c, 11, 70, 127
2, 44883, Note_off_c, 11, 70, 127
2, 44884, Note_on_c, 10, 69, 127
2, 44992, Note_off_c, 10, 69, 127
2, 44992, Note_off_c, 6, 66, 127
2, 44993, Note_on_c, 7, 67, 127
2, 44993, Note_on_c, 11, 70, 127
2, 45101, Note_off_c, 7, 67, 127
2, 45102, Note_on_c, 10, 69, 127
2, 45210, Note_off_c, 10, 69, 127
2, 45211, Note_on_c, 7, 67, 127
2, 45319, Note_off_c, 7, 67, 127
2, 45319, Note_off_c, 2, 38, 127
2, 45320, Note_on_c, 7, 43, 127
2, 45320, Note_on_c, 5, 65, 127
2, 45428, Note_off_c, 5, 65, 127
2, 45428, Note_off_c, 7, 43, 127
2, 45429, Note_on_c, 10, 45, 127
2, 45429, Note_on_c, 3, 63, 127
2, 45537, Note_off_c, 3, 63, 127
2, 45537, Note_off_c, 10, 45, 127
2, 45538, Note_on_c, 11, 46, 127
2, 45538, Note_on_c, 2, 62, 127
2, 45646, Note_off_c, 2, 62, 127
2, 45646, Note_off_c, 11, 46, 127
2, 45647, Note_on_c, 0, 48, 127
2, 45647, Note_on_c, 3, 63, 127
2, 45755, Note_off_c, 0, 48, 127
2, 45756, Note_on_c, 11, 46, 127
2, 45864, Note_off_c, 11, 46, 127
2, 45864, Note_off_c, 11, 70, 127
2, 45865, Note_on_c, 0, 48, 127
2, 45865, Note_on_c, 10, 69, 127
2, 45973, Note_off_c, 0, 48, 127
2, 45974, Note_on_c, 2, 50, 127
2, 46082, Note_off_c, 2, 50, 127
2, 46082, Note_off_c, 10, 69, 127
2, 46083, Note_on_c, 3, 51, 127
2, 46083, Note_on_c, 7, 67, 127
2, 46191, Note_off_c, 3, 51, 127
2, 46192, Note_on_c, 0, 48, 127
2, 46300, Note_off_c, 0, 48, 127
2, 46300, Note_off_c, 7, 67, 127
2, 46301, Note_on_c, 2, 50, 127
2, 46301, Note_on_c, 6, 66, 127
2, 46409, Note_off_c, 2, 50, 127
2, 46410, Note_on_c, 3, 51, 127
2, 46518, Note_off_c, 3, 51, 127
2, 46518, Note_off_c, 3, 63, 127
2, 46519, Note_on_c, 2, 50, 127
2, 46519, Note_on_c, 10, 57, 127
2, 46627, Note_off_c, 2, 50, 127
2, 46628, Note_on_c, 0, 48, 127
2, 46736, Note_off_c, 0, 48, 127
2, 46736, Note_off_c, 10, 57, 127
2, 46737, Note_on_c, 11, 46, 127
2, 46737, Note_on_c, 0, 60, 127
2, 46845, Note_off_c, 11, 46, 127
2, 46846, Note_on_c, 10, 45, 127
2, 46954, Note_off_c, 10, 45, 127
2, 46954, Note_off_c, 0, 60, 127
2, 46954, Note_off_c, 6, 66, 127
2, 46955, Note_on_c, 7, 43, 127
2, 46955, Note_on_c, 11, 58, 127
2, 46955, Note_on_c, 7, 67, 127
2, 47171, Note_off_c, 7, 67, 127
2, 47172, Note_on_c, 2, 62, 127
2, 47385, Note_off_c, 11, 58, 127
2, 47388, Note_off_c, 2, 62, 127
2, 47389, Note_on_c, 11, 70, 127
2, 47605, Note_off_c, 11, 70, 127
2, 47606, Note_on_c, 11, 70, 127
2, 47822, Note_off_c, 11, 70, 127
2, 47822, Note_off_c, 7, 43, 127
2, 47823, Note_on_c, 7, 67, 127
2, 48039, Note_off_c, 7, 67, 127
2, 48040, Note_on_c, 1, 73, 127
2, 48256, Note_off_c, 1, 73, 127
2, 48257, Note_on_c, 1, 73, 127
2, 48474, Note_on_c, 11, 58, 127
2, 48582, Note_off_c, 11, 58, 127
2, 48583, Note_on_c, 8, 56, 127
2, 48691, Note_off_c, 8, 56, 127
2, 48692, Note_on_c, 7, 55, 127
2, 48692, Note_on_c, 11, 70, 127
2, 48800, Note_off_c, 7, 55, 127
2, 48801, Note_on_c, 5, 53, 127
2, 48909, Note_off_c, 5, 53, 127
2, 48909, Note_off_c, 11, 70, 127
2, 48910, Note_on_c, 4, 52, 127
2, 48910, Note_on_c, 7, 67, 127
2, 49018, Note_off_c, 4, 52, 127
2, 49019, Note_on_c, 5, 53, 127
2, 49127, Note_off_c, 5, 53, 127
2, 49128, Note_on_c, 4, 52, 127
2, 49236, Note_off_c, 4, 52, 127
2, 49237, Note_on_c, 2, 50, 127
2, 49345, Note_off_c, 2, 50, 127
2, 49345, Note_off_c, 7, 67, 127
2, 49346, Note_on_c, 0, 48, 127
2, 49346, Note_on_c, 11, 70, 127
2, 49454, Note_off_c, 0, 48, 127
2, 49455, Note_on_c, 11, 46, 127
2, 49563, Note_off_c, 11, 46, 127
2, 49563, Note_off_c, 11, 70, 127
2, 49564, Note_on_c, 8, 44, 127
2, 49564, Note_on_c, 4, 64, 127
2, 49672, Note_off_c, 8, 44, 127
2, 49673, Note_on_c, 5, 53, 127
2, 49781, Note_off_c, 5, 53, 127
2, 49781, Note_off_c, 1, 73, 127
2, 49782, Note_on_c, 4, 52, 127
2, 49782, Note_on_c, 11, 70, 127
2, 49890, Note_off_c, 4, 52, 127
2, 49891, Note_on_c, 2, 50, 127
2, 49995, Note_off_c, 4, 64, 127
2, 49998, Note_off_c, 2, 50, 127
2, 49998, Note_off_c, 11, 70, 127
2, 49999, Note_on_c, 0, 48, 127
2, 49999, Note_on_c, 4, 76, 127
2, 50107, Note_off_c, 0, 48, 127
2, 50108, Note_on_c, 11, 46, 127
2, 50216, Note_off_c, 11, 46, 127
2, 50216, Note_off_c, 4, 76, 127
2, 50217, Note_on_c, 8, 44, 127
2, 50217, Note_on_c, 4, 76, 127
2, 50325, Note_off_c, 8, 44, 127
2, 50326, Note_on_c, 11, 46, 127
2, 50434, Note_off_c, 11, 46, 127
2, 50434, Note_off_c, 4, 76, 127
2, 50435, Note_on_c, 8, 44, 127
2, 50435, Note_on_c, 0, 72, 127
2, 50543, Note_off_c, 8, 44, 127
2, 50544, Note_on_c, 7, 43, 127
2, 50652, Note_off_c, 7, 43, 127
2, 50652, Note_off_c, 0, 72, 127
2, 50653, Note_on_c, 5, 41, 127
2, 50653, Note_on_c, 7, 79, 127
2, 50761, Note_off_c, 5, 41, 127
2, 50762, Note_on_c, 4, 40, 127
2, 50870, Note_off_c, 4, 40, 127
2, 50870, Note_off_c, 7, 79, 127
2, 50871, Note_on_c, 5, 41, 127
2, 50871, Note_on_c, 8, 80, 127
2, 50980, Note_on_c, 5, 77, 127
2, 51088, Note_off_c, 5, 77, 127
2, 51089, Note_on_c, 3, 75, 127
2, 51197, Note_off_c, 3, 75, 127
2, 51198, Note_on_c, 1, 73, 127
2, 51306, Note_off_c, 1, 73, 127
2, 51307, Note_on_c, 0, 72, 127
2, 51415, Note_off_c, 0, 72, 127
2, 51416, Note_off_c, 5, 41, 127
2, 51416, Note_on_c, 11, 70, 127
2, 51524, Note_off_c, 11, 70, 127
2, 51525, Note_on_c, 8, 68, 127
2, 51633, Note_off_c, 8, 68, 127
2, 51634, Note_on_c, 11, 70, 127
2, 51742, Note_off_c, 11, 70, 127
2, 51743, Note_on_c, 8, 68, 127
2, 51851, Note_off_c, 8, 68, 127
2, 51852, Note_on_c, 7, 67, 127
2, 51960, Note_off_c, 7, 67, 127
2, 51961, Note_on_c, 5, 65, 127
2, 52069, Note_off_c, 5, 65, 127
2, 52070, Note_on_c, 3, 63, 127
2, 52178, Note_off_c, 3, 63, 127
2, 52179, Note_on_c, 2, 62, 127
2, 52395, Note_off_c, 2, 62, 127
2, 52396, Note_on_c, 11, 58, 127
2, 52612, Note_off_c, 11, 58, 127
2, 52613, Note_on_c, 5, 65, 127
2, 52829, Note_off_c, 5, 65, 127
2, 52830, Note_on_c, 5, 65, 127
2, 52938, Note_off_c, 8, 80, 127
2, 52939, Note_on_c, 11, 82, 127
2, 53047, Note_off_c, 11, 82, 127
2, 53047, Note_off_c, 5, 65, 127
2, 53048, Note_on_c, 2, 62, 127
2, 53048, Note_on_c, 8, 80, 127
2, 53156, Note_off_c, 8, 80, 127
2, 53157, Note_on_c, 7, 79, 127
2, 53265, Note_off_c, 7, 79, 127
2, 53265, Note_off_c, 2, 62, 127
2, 53266, Note_on_c, 8, 68, 127
2, 53266, Note_on_c, 5, 77, 127
2, 53374, Note_off_c, 5, 77, 127
2, 53375, Note_on_c, 3, 75, 127
2, 53483, Note_off_c, 3, 75, 127
2, 53483, Note_off_c, 8, 68, 127
2, 53484, Note_on_c, 8, 68, 127
2, 53484, Note_on_c, 2, 74, 127
2, 53592, Note_off_c, 2, 74, 127
2, 53593, Note_on_c, 3, 75, 127
2, 53701, Note_off_c, 3, 75, 127
2, 53702, Note_on_c, 2, 74, 127
2, 53810, Note_off_c, 2, 74, 127
2, 53811, Note_on_c, 0, 72, 127
2, 53919, Note_off_c, 0, 72, 127
2, 53920, Note_on_c, 7, 67, 127
2, 53920, Note_on_c, 11, 70, 127
2, 54028, Note_off_c, 11, 70, 127
2, 54029, Note_on_c, 0, 72, 127
2, 54137, Note_off_c, 0, 72, 127
2, 54137, Note_off_c, 7, 67, 127
2, 54138, Note_on_c, 5, 65, 127
2, 54138, Note_on_c, 2, 74, 127
2, 54246, Note_off_c, 2, 74, 127
2, 54247, Note_on_c, 3, 75, 127
2, 54355, Note_off_c, 3, 75, 127
2, 54356, Note_on_c, 5, 77, 127
2, 54464, Note_off_c, 5, 77, 127
2, 54465, Note_on_c, 7, 79, 127
2, 54573, Note_off_c, 7, 79, 127
2, 54573, Note_off_c, 5, 65, 127
2, 54574, Note_on_c, 3, 63, 127
2, 54574, Note_on_c, 8, 80, 127
2, 54682, Note_off_c, 8, 80, 127
2, 54683, Note_on_c, 11, 82, 127
2, 54791, Note_off_c, 11, 82, 127
2, 54791, Note_off_c, 3, 63, 127
2, 54792, Note_on_c, 2, 62, 127
2, 54792, Note_on_c, 0, 84, 127
2, 54900, Note_off_c, 0, 84, 127
2, 54901, Note_on_c, 11, 82, 127
2, 55009, Note_off_c, 11, 82, 127
2, 55009, Note_off_c, 8, 68, 127
2, 55010, Note_on_c, 5, 65, 127
2, 55010, Note_on_c, 8, 80, 127
2, 55118, Note_off_c, 8, 80, 127
2, 55119, Note_on_c, 7, 79, 127
2, 55227, Note_off_c, 7, 79, 127
2, 55227, Note_off_c, 5, 65, 127
2, 55227, Note_off_c, 2, 62, 127
2, 55228, Note_on_c, 8, 68, 127
2, 55228, Note_on_c, 2, 74, 127
2, 55228, Note_on_c, 5, 77, 127
2, 55336, Note_off_c, 5, 77, 127
2, 55337, Note_on_c, 3, 75, 127
2, 55445, Note_off_c, 3, 75, 127
2, 55445, Note_off_c, 2, 74, 127
2, 55445, Note_off_c, 8, 68, 127
2, 55446, Note_on_c, 7, 67, 127
2, 55446, Note_on_c, 2, 74, 127
2, 55446, Note_on_c, 5, 77, 127
2, 55554, Note_off_c, 5, 77, 127
2, 55555, Note_on_c, 7, 79, 127
2, 55663, Note_off_c, 7, 79, 127
2, 55663, Note_off_c, 2, 74, 127
2, 55664, Note_on_c, 11, 70, 127
2, 55664, Note_on_c, 8, 80, 127
2, 55772, Note_off_c, 8, 80, 127
2, 55773, Note_on_c, 0, 84, 127
2, 55881, Note_off_c, 0, 84, 127
2, 55881, Note_off_c, 11, 70, 127
2, 55881, Note_off_c, 7, 67, 127
2, 55882, Note_on_c, 5, 65, 127
2, 55882, Note_on_c, 2, 74, 127
2, 55882, Note_on_c, 11, 82, 127
2, 55990, Note_off_c, 11, 82, 127
2, 55991, Note_on_c, 8, 80, 127
2, 56099, Note_off_c, 8, 80, 127
2, 56099, Note_off_c, 2, 74, 127
2, 56099, Note_off_c, 5, 65, 127
2, 56100, Note_on_c, 3, 63, 127
2, 56100, Note_on_c, 3, 75, 127
2, 56100, Note_on_c, 7, 79, 127
2, 56208, Note_off_c, 3, 63, 127
2, 56209, Note_on_c, 7, 55, 127
2, 56317, Note_off_c, 7, 55, 127
2, 56318, Note_on_c, 8, 56, 127
2, 56426, Note_off_c, 8, 56, 127
2, 56427, Note_on_c, 11, 58, 127
2, 56535, Note_off_c, 11, 58, 127
2, 56536, Note_on_c, 0, 60, 127
2, 56644, Note_off_c, 0, 60, 127
2, 56645, Note_on_c, 2, 62, 127
2, 56753, Note_off_c, 2, 62, 127
2, 56754, Note_on_c, 3, 63, 127
2, 56862, Note_off_c, 3, 63, 127
2, 56863, Note_on_c, 5, 65, 127
2, 56971, Note_off_c, 5, 65, 127
2, 56972, Note_on_c, 3, 63, 127
2, 57080, Note_off_c, 3, 63, 127
2, 57081, Note_on_c, 2, 62, 127
2, 57189, Note_off_c, 2, 62, 127
2, 57190, Note_on_c, 0, 60, 127
2, 57298, Note_off_c, 0, 60, 127
2, 57299, Note_on_c, 11, 58, 127
2, 57407, Note_off_c, 11, 58, 127
2, 57408, Note_on_c, 8, 56, 127
2, 57624, Note_off_c, 3, 75, 127
2, 57625, Note_on_c, 0, 72, 127
2, 57841, Note_off_c, 7, 79, 127
2, 57842, Note_on_c, 7, 79, 127
2, 58058, Note_off_c, 7, 79, 127
2, 58059, Note_on_c, 7, 79, 127
2, 58275, Note_off_c, 7, 79, 127
2, 58276, Note_on_c, 3, 75, 127
2, 58492, Note_off_c, 3, 75, 127
2, 58492, Note_off_c, 0, 72, 127
2, 58493, Note_on_c, 3, 75, 127
2, 58493, Note_on_c, 0, 84, 127
2, 58709, Note_off_c, 0, 84, 127
2, 58709, Note_off_c, 3, 75, 127
2, 58710, Note_on_c, 2, 74, 127
2, 58710, Note_on_c, 5, 77, 127
2, 58818, Note_off_c, 8, 56, 127
2, 58819, Note_on_c, 5, 53, 127
2, 58927, Note_off_c, 5, 53, 127
2, 58928, Note_on_c, 7, 55, 127
2, 59036, Note_off_c, 7, 55, 127
2, 59037, Note_on_c, 10, 57, 127
2, 59145, Note_off_c, 10, 57, 127
2, 59146, Note_on_c, 12, 59, 127
2, 59254, Note_off_c, 12, 59, 127
2, 59255, Note_on_c, 0, 60, 127
2, 59363, Note_off_c, 0, 60, 127
2, 59364, Note_on_c, 2, 62, 127
2, 59472, Note_off_c, 2, 62, 127
2, 59473, Note_on_c, 3, 63, 127
2, 59581, Note_off_c, 3, 63, 127
2, 59582, Note_on_c, 2, 62, 127
2, 59690, Note_off_c, 2, 62, 127
2, 59691, Note_on_c, 0, 60, 127
2, 59799, Note_off_c, 0, 60, 127
2, 59800, Note_on_c, 12, 59, 127
2, 59908, Note_off_c, 12, 59, 127
2, 59909, Note_on_c, 10, 57, 127
2, 60017, Note_off_c, 10, 57, 127
2, 60018, Note_on_c, 7, 55, 127
2, 60234, Note_off_c, 2, 74, 127
2, 60235, Note_on_c, 12, 71, 127
2, 60451, Note_off_c, 5, 77, 127
2, 60452, Note_on_c, 5, 77, 127
2, 60668, Note_off_c, 5, 77, 127
2, 60669, Note_on_c, 5, 77, 127
2, 60885, Note_off_c, 5, 77, 127
2, 60886, Note_on_c, 2, 74, 127
2, 61102, Note_off_c, 2, 74, 127
2, 61102, Note_off_c, 12, 71, 127
2, 61103, Note_on_c, 2, 74, 127
2, 61103, Note_on_c, 12, 83, 127
2, 61319, Note_off_c, 12, 83, 127
2, 61319, Note_off_c, 2, 74, 127
2, 61320, Note_on_c, 0, 72, 127
2, 61320, Note_on_c, 3, 75, 127
2, 61428, Note_off_c, 7, 55, 127
2, 61429, Note_on_c, 3, 51, 127
2, 61537, Note_off_c, 3, 51, 127
2, 61538, Note_on_c, 5, 53, 127
2, 61646, Note_off_c, 5, 53, 127
2, 61647, Note_on_c, 7, 55, 127
2, 61755, Note_off_c, 7, 55, 127
2, 61756, Note_on_c, 10, 57, 127
2, 61864, Note_off_c, 10, 57, 127
2, 61865, Note_on_c, 12, 59, 127
2, 61973, Note_off_c, 12, 59, 127
2, 61974, Note_on_c, 0, 60, 127
2, 62082, Note_off_c, 0, 60, 127
2, 62083, Note_on_c, 2, 62, 127
2, 62191, Note_off_c, 2, 62, 127
2, 62192, Note_on_c, 0, 60, 127
2, 62300, Note_off_c, 0, 60, 127
2, 62301, Note_on_c, 11, 58, 127
2, 62409, Note_off_c, 11, 58, 127
2, 62410, Note_on_c, 8, 56, 127
2, 62518, Note_off_c, 8, 56, 127
2, 62519, Note_on_c, 7, 55, 127
2, 62627, Note_off_c, 7, 55, 127
2, 62628, Note_on_c, 5, 53, 127
2, 62844, Note_off_c, 3, 75, 127
2, 62845, Note_on_c, 8, 80, 127
2, 62953, Note_off_c, 8, 80, 127
2, 62954, Note_on_c, 7, 79, 127
2, 63056, Note_off_c, 0, 72, 127
2, 63062, Note_off_c, 7, 79, 127
2, 63063, Note_on_c, 5, 77, 127
2, 63171, Note_off_c, 5, 77, 127
2, 63172, Note_on_c, 3, 75, 127
2, 63280, Note_off_c, 3, 75, 127
2, 63281, Note_on_c, 2, 74, 127
2, 63390, Note_on_c, 3, 75, 127
2, 63411, Note_off_c, 2, 74, 127
2, 63498, Note_off_c, 3, 75, 127
2, 63499, Note_on_c, 2, 74, 127
2, 63607, Note_off_c, 2, 74, 127
2, 63608, Note_on_c, 0, 72, 127
2, 63716, Note_off_c, 0, 72, 127
2, 63717, Note_on_c, 12, 71, 127
2, 63825, Note_off_c, 12, 71, 127
2, 63826, Note_on_c, 10, 69, 127
2, 63934, Note_off_c, 10, 69, 127
2, 63935, Note_on_c, 12, 71, 127
2, 64152, Note_on_c, 7, 67, 127
2, 64260, Note_off_c, 7, 67, 127
2, 64261, Note_on_c, 5, 65, 127
2, 64369, Note_off_c, 5, 65, 127
2, 64370, Note_on_c, 3, 63, 127
2, 64478, Note_off_c, 3, 63, 127
2, 64479, Note_on_c, 2, 62, 127
2, 64587, Note_off_c, 2, 62, 127
2, 64587, Note_off_c, 12, 71, 127
2, 64587, Note_off_c, 5, 53, 127
2, 64588, Note_on_c, 3, 51, 127
2, 64588, Note_on_c, 0, 60, 127
2, 64588, Note_on_c, 0, 72, 127
2, 64696, Note_off_c, 0, 60, 127
2, 64697, Note_on_c, 2, 62, 127
2, 64805, Note_off_c, 2, 62, 127
2, 64806, Note_on_c, 0, 60, 127
2, 64914, Note_off_c, 0, 60, 127
2, 64915, Note_on_c, 11, 58, 127
2, 65023, Note_off_c, 11, 58, 127
2, 65024, Note_on_c, 8, 56, 127
2, 65132, Note_off_c, 8, 56, 127
2, 65133, Note_on_c, 7, 55, 127
2, 65241, Note_off_c, 7, 55, 127
2, 65241, Note_off_c, 0, 72, 127
2, 65242, Note_on_c, 8, 56, 127
2, 65242, Note_on_c, 5, 77, 127
2, 65350, Note_off_c, 3, 51, 127
2, 65351, Note_on_c, 7, 55, 127
2, 65459, Note_off_c, 7, 55, 127
2, 65460, Note_on_c, 5, 53, 127
2, 65568, Note_off_c, 5, 53, 127
2, 65569, Note_on_c, 3, 51, 127
2, 65677, Note_off_c, 3, 51, 127
2, 65677, Note_off_c, 8, 56, 127
2, 65678, Note_on_c, 2, 50, 127
2, 65678, Note_on_c, 8, 68, 127
2, 65786, Note_off_c, 2, 50, 127
2, 65787, Note_on_c, 0, 48, 127
2, 65895, Note_off_c, 0, 48, 127
2, 65896, Note_on_c, 12, 47, 127
2, 66004, Note_off_c, 12, 47, 127
2, 66005, Note_on_c, 0, 48, 127
2, 66113, Note_off_c, 0, 48, 127
2, 66113, Note_off_c, 8, 68, 127
2, 66114, Note_on_c, 12, 47, 127
2, 66114, Note_on_c, 5, 65, 127
2, 66222, Note_off_c, 12, 47, 127
2, 66223, Note_on_c, 10, 45, 127
2, 66331, Note_off_c, 10, 45, 127
2, 66331, Note_off_c, 5, 65, 127
2, 66332, Note_on_c, 7, 43, 127
2, 66332, Note_on_c, 12, 71, 127
2, 66440, Note_off_c, 7, 43, 127
2, 66441, Note_on_c, 5, 41, 127
2, 66549, Note_off_c, 5, 41, 127
2, 66550, Note_on_c, 3, 39, 127
2, 66732, Note_off_c, 12, 71, 127
2, 66767, Note_on_c, 7, 67, 127
2, 66983, Note_off_c, 7, 67, 127
2, 66983, Note_off_c, 5, 77, 127
2, 66984, Note_on_c, 0, 72, 127
2, 66984, Note_on_c, 3, 75, 127
2, 67200, Note_off_c, 0, 72, 127
2, 67200, Note_off_c, 3, 39, 127
2, 67201, Note_on_c, 5, 41, 127
2, 67201, Note_on_c, 8, 68, 127
2, 67417, Note_off_c, 3, 75, 127
2, 67418, Note_on_c, 2, 74, 127
2, 67634, Note_off_c, 2, 74, 127
2, 67635, Note_on_c, 5, 77, 127
2, 67851, Note_off_c, 5, 77, 127
2, 67851, Note_off_c, 5, 41, 127
2, 67852, Note_on_c, 7, 43, 127
2, 67852, Note_on_c, 12, 71, 127
2, 68068, Note_off_c, 8, 68, 127
2, 68069, Note_on_c, 7, 67, 127
2, 68285, Note_off_c, 7, 67, 127
2, 68286, Note_on_c, 5, 65, 127
2, 68502, Note_off_c, 5, 65, 127
2, 68502, Note_off_c, 12, 71, 127
2, 68502, Note_off_c, 7, 43, 127
2, 68503, Note_on_c, 10, 45, 127
2, 68503, Note_on_c, 3, 63, 127
2, 68503, Note_on_c, 0, 72, 127
2, 68719, Note_off_c, 3, 63, 127
2, 68720, Note_on_c, 2, 62, 127
2, 68936, Note_off_c, 2, 62, 127
2, 68937, Note_on_c, 0, 60, 127
2, 69153, Note_off_c, 0, 60, 127
2, 69153, Note_off_c, 0, 72, 127
2, 69153, Note_off_c, 10, 45, 127
2, 69154, Note_on_c, 12, 47, 127
2, 69154, Note_on_c, 5, 65, 127
2, 69154, Note_on_c, 2, 74, 127
2, 69370, Note_off_c, 12, 47, 127
2, 69371, Note_on_c, 7, 43, 127
2, 69587, Note_off_c, 7, 43, 127
2, 69587, Note_off_c, 2, 74, 127
2, 69587, Note_off_c, 5, 65, 127
2, 69588, Note_on_c, 0, 48, 127
2, 69588, Note_on_c, 3, 63, 127
2, 69588, Note_on_c, 0, 72, 127
2, 69804, Note_off_c, 3, 63, 127
2, 69804, Note_off_c, 0, 48, 127
2, 69805, Note_on_c, 8, 44, 127
2, 69805, Note_on_c, 2, 62, 127
2, 70021, Note_off_c, 8, 44, 127
2, 70022, Note_on_c, 5, 41, 127
2, 70238, Note_off_c, 5, 41, 127
2, 70238, Note_off_c, 0, 72, 127
2, 70239, Note_on_c, 7, 43, 127
2, 70239, Note_on_c, 12, 71, 127
2, 70455, Note_off_c, 12, 71, 127
2, 70455, Note_off_c, 7, 43, 127
2, 70455, Note_off_c, 2, 62, 127
2, 70456, Note_on_c, 0, 48, 127
2, 70456, Note_on_c, 3, 63, 127
2, 70456, Note_on_c, 0, 72, 127
2, 70672, Note_off_c, 0, 48, 127
2, 70673, Note_on_c, 7, 43, 127
2, 70886, Note_off_c, 3, 63, 127
2, 70889, Note_off_c, 7, 43, 127
2, 70889, Note_off_c, 0, 72, 127
2, 70890, Note_on_c, 3, 51, 127
2, 70890, Note_on_c, 7, 79, 127
2, 71106, Note_off_c, 7, 79, 127
2, 71106, Note_off_c, 3, 51, 127
2, 71107, Note_on_c, 3, 51, 127
2, 71107, Note_on_c, 0, 72, 127
2, 71323, Note_off_c, 3, 51, 127
2, 71324, Note_on_c, 0, 48, 127
2, 71540, Note_off_c, 0, 48, 127
2, 71540, Note_off_c, 0, 72, 127
2, 71541, Note_on_c, 7, 55, 127
2, 71541, Note_on_c, 3, 75, 127
2, 71757, Note_off_c, 3, 75, 127
2, 71757, Note_off_c, 7, 55, 127
2, 71758, Note_on_c, 5, 53, 127
2, 71758, Note_on_c, 8, 68, 127
2, 71867, Note_on_c, 0, 60, 127
2, 71975, Note_off_c, 0, 60, 127
2, 71975, Note_off_c, 5, 53, 127
2, 71976, Note_on_c, 0, 48, 127
2, 71976, Note_on_c, 2, 62, 127
2, 72084, Note_off_c, 2, 62, 127
2, 72085, Note_on_c, 3, 63, 127
2, 72193, Note_off_c, 3, 63, 127
2, 72193, Note_off_c, 0, 48, 127
2, 72194, Note_on_c, 8, 56, 127
2, 72194, Note_on_c, 5, 65, 127
2, 72302, Note_off_c, 5, 65, 127
2, 72303, Note_off_c, 8, 68, 127
2, 72303, Note_on_c, 7, 67, 127
2, 72411, Note_off_c, 7, 67, 127
2, 72411, Note_off_c, 8, 56, 127
2, 72412, Note_on_c, 8, 56, 127
2, 72412, Note_on_c, 8, 68, 127
2, 72520, Note_off_c, 8, 68, 127
2, 72521, Note_on_c, 11, 70, 127
2, 72629, Note_off_c, 11, 70, 127
2, 72629, Note_off_c, 8, 56, 127
2, 72630, Note_on_c, 5, 53, 127
2, 72630, Note_on_c, 8, 68, 127
2, 72738, Note_off_c, 8, 68, 127
2, 72739, Note_on_c, 7, 67, 127
2, 72847, Note_off_c, 7, 67, 127
2, 72847, Note_off_c, 5, 53, 127
2, 72848, Note_on_c, 0, 60, 127
2, 72848, Note_on_c, 5, 65, 127
2, 72956, Note_off_c, 5, 65, 127
2, 72957, Note_on_c, 3, 63, 127
2, 73065, Note_off_c, 3, 63, 127
2, 73065, Note_off_c, 0, 60, 127
2, 73066, Note_on_c, 11, 58, 127
2, 73066, Note_on_c, 2, 62, 127
2, 73282, Note_off_c, 2, 62, 127
2, 73283, Note_on_c, 5, 53, 127
2, 73499, Note_off_c, 5, 53, 127
2, 73500, Note_on_c, 2, 62, 127
2, 73500, Note_on_c, 5, 77, 127
2, 73716, Note_off_c, 5, 77, 127
2, 73716, Note_off_c, 2, 62, 127
2, 73716, Note_off_c, 11, 58, 127
2, 73717, Note_on_c, 2, 62, 127
2, 73717, Note_on_c, 11, 70, 127
2, 73933, Note_off_c, 2, 62, 127
2, 73934, Note_on_c, 11, 58, 127
2, 74150, Note_off_c, 11, 58, 127
2, 74150, Note_off_c, 11, 70, 127
2, 74151, Note_on_c, 5, 65, 127
2, 74151, Note_on_c, 2, 74, 127
2, 74367, Note_off_c, 2, 74, 127
2, 74367, Note_off_c, 5, 65, 127
2, 74368, Note_on_c, 3, 63, 127
2, 74368, Note_on_c, 7, 67, 127
2, 74476, Note_off_c, 7, 67, 127
2, 74477, Note_on_c, 11, 70, 127
2, 74585, Note_off_c, 11, 70, 127
2, 74585, Note_off_c, 3, 63, 127
2, 74586, Note_on_c, 11, 58, 127
2, 74586, Note_on_c, 0, 72, 127
2, 74694, Note_off_c, 0, 72, 127
2, 74695, Note_on_c, 2, 74, 127
2, 74803, Note_off_c, 2, 74, 127
2, 74803, Note_off_c, 11, 58, 127
2, 74804, Note_on_c, 7, 67, 127
2, 74804, Note_on_c, 3, 75, 127
2, 74912, Note_off_c, 3, 75, 127
2, 74913, Note_on_c, 5, 77, 127
2, 75021, Note_off_c, 5, 77, 127
2, 75021, Note_off_c, 7, 67, 127
2, 75022, Note_on_c, 7, 67, 127
2, 75022, Note_on_c, 7, 79, 127
2, 75130, Note_off_c, 7, 79, 127
2, 75131, Note_on_c, 8, 80, 127
2, 75239, Note_off_c, 8, 80, 127
2, 75239, Note_off_c, 7, 67, 127
2, 75240, Note_on_c, 3, 63, 127
2, 75240, Note_on_c, 7, 79, 127
2, 75348, Note_off_c, 7, 79, 127
2, 75349, Note_on_c, 5, 77, 127
2, 75457, Note_off_c, 5, 77, 127
2, 75457, Note_off_c, 3, 63, 127
2, 75458, Note_on_c, 11, 70, 127
2, 75458, Note_on_c, 3, 75, 127
2, 75566, Note_off_c, 3, 75, 127
2, 75567, Note_on_c, 2, 74, 127
2, 75675, Note_off_c, 2, 74, 127
2, 75675, Note_off_c, 11, 70, 127
2, 75676, Note_on_c, 5, 53, 127
2, 75676, Note_on_c, 8, 68, 127
2, 75676, Note_on_c, 2, 74, 127
2, 75747, Note_off_c, 2, 74, 127
2, 75748, Note_on_c, 0, 72, 127
2, 75819, Note_off_c, 0, 72, 127
2, 75820, Note_on_c, 2, 74, 127
2, 75891, Note_off_c, 2, 74, 127
2, 75891, Note_off_c, 5, 53, 127
2, 75892, Note_on_c, 0, 48, 127
2, 75892, Note_on_c, 0, 72, 127
2, 75963, Note_off_c, 0, 72, 127
2, 75964, Note_on_c, 2, 74, 127
2, 76035, Note_off_c, 2, 74, 127
2, 76036, Note_on_c, 0, 72, 127
2, 76107, Note_off_c, 0, 72, 127
2, 76107, Note_off_c, 0, 48, 127
2, 76108, Note_on_c, 8, 56, 127
2, 76108, Note_on_c, 2, 74, 127
2, 76179, Note_off_c, 2, 74, 127
2, 76180, Note_on_c, 0, 72, 127
2, 76251, Note_off_c, 0, 72, 127
2, 76252, Note_on_c, 2, 74, 127
2, 76323, Note_off_c, 2, 74, 127
2, 76323, Note_off_c, 8, 56, 127
2, 76324, Note_on_c, 8, 56, 127
2, 76324, Note_on_c, 0, 72, 127
2, 76395, Note_off_c, 0, 72, 127
2, 76396, Note_on_c, 2, 74, 127
2, 76467, Note_off_c, 2, 74, 127
2, 76468, Note_on_c, 0, 72, 127
2, 76539, Note_off_c, 0, 72, 127
2, 76539, Note_off_c, 8, 56, 127
2, 76540, Note_on_c, 5, 53, 127
2, 76540, Note_on_c, 2, 74, 127
2, 76611, Note_off_c, 2, 74, 127
2, 76612, Note_on_c, 0, 72, 127
2, 76683, Note_off_c, 0, 72, 127
2, 76684, Note_on_c, 2, 74, 127
2, 76755, Note_off_c, 2, 74, 127
2, 76755, Note_off_c, 5, 53, 127
2, 76755, Note_off_c, 8, 68, 127
2, 76756, Note_on_c, 0, 60, 127
2, 76756, Note_on_c, 8, 68, 127
2, 76756, Note_on_c, 0, 72, 127
2, 76827, Note_off_c, 0, 72, 127
2, 76828, Note_on_c, 2, 74, 127
2, 76899, Note_off_c, 2, 74, 127
2, 76900, Note_on_c, 0, 72, 127
2, 76971, Note_off_c, 0, 72, 127
2, 76971, Note_off_c, 8, 68, 127
2, 76971, Note_off_c, 0, 60, 127
2, 76972, Note_on_c, 3, 51, 127
2, 76972, Note_on_c, 7, 67, 127
2, 76972, Note_on_c, 2, 74, 127
2, 77043, Note_off_c, 2, 74, 127
2, 77044, Note_on_c, 0, 72, 127
2, 77115, Note_off_c, 0, 72, 127
2, 77116, Note_on_c, 2, 74, 127
2, 77187, Note_off_c, 2, 74, 127
2, 77187, Note_off_c, 3, 51, 127
2, 77188, Note_on_c, 0, 48, 127
2, 77188, Note_on_c, 0, 72, 127
2, 77259, Note_off_c, 0, 72, 127
2, 77260, Note_on_c, 2, 74, 127
2, 77331, Note_off_c, 2, 74, 127
2, 77332, Note_on_c, 0, 72, 127
2, 77403, Note_off_c, 0, 72, 127
2, 77403, Note_off_c, 0, 48, 127
2, 77404, Note_on_c, 7, 55, 127
2, 77404, Note_on_c, 2, 74, 127
2, 77475, Note_off_c, 2, 74, 127
2, 77476, Note_on_c, 0, 72, 127
2, 77547, Note_off_c, 0, 72, 127
2, 77548, Note_on_c, 2, 74, 127
2, 77619, Note_off_c, 2, 74, 127
2, 77619, Note_off_c, 7, 55, 127
2, 77620, Note_on_c, 7, 55, 127
2, 77620, Note_on_c, 0, 72, 127
2, 77691, Note_off_c, 0, 72, 127
2, 77692, Note_on_c, 2, 74, 127
2, 77763, Note_off_c, 2, 74, 127
2, 77764, Note_on_c, 0, 72, 127
2, 77835, Note_off_c, 0, 72, 127
2, 77835, Note_off_c, 7, 55, 127
2, 77836, Note_on_c, 3, 51, 127
2, 77836, Note_on_c, 2, 74, 127
2, 77907, Note_off_c, 2, 74, 127
2, 77908, Note_on_c, 0, 72, 127
2, 77979, Note_off_c, 0, 72, 127
2, 77980, Note_on_c, 2, 74, 127
2, 78051, Note_off_c, 2, 74, 127
2, 78051, Note_off_c, 3, 51, 127
2, 78051, Note_off_c, 7, 67, 127
2, 78052, Note_on_c, 0, 60, 127
2, 78052, Note_on_c, 8, 68, 127
2, 78052, Note_on_c, 0, 72, 127
2, 78123, Note_off_c, 0, 72, 127
2, 78124, Note_on_c, 2, 74, 127
2, 78195, Note_off_c, 2, 74, 127
2, 78196, Note_on_c, 0, 72, 127
2, 78267, Note_off_c, 8, 68, 127
2, 78267, Note_off_c, 0, 60, 127
2, 78268, Note_on_c, 2, 50, 127
2, 78268, Note_on_c, 5, 65, 127
2, 78484, Note_off_c, 2, 50, 127
2, 78485, Note_on_c, 3, 51, 127
2, 78701, Note_off_c, 3, 51, 127
2, 78702, Note_on_c, 5, 53, 127
2, 78918, Note_off_c, 5, 53, 127
2, 78918, Note_off_c, 0, 72, 127
2, 78930, Note_on_c, 7, 55, 127
2, 78930, Note_on_c, 12, 71, 127
2, 79146, Note_off_c, 12, 71, 127
2, 79146, Note_off_c, 7, 55, 127
2, 79152, Note_on_c, 0, 72, 127
2, 79152, Note_on_c, 10, 57, 127
2, 79368, Note_off_c, 10, 57, 127
2, 79368, Note_off_c, 0, 72, 127
2, 79369, Note_on_c, 2, 74, 127
2, 79369, Note_on_c, 12, 59, 127
2, 79585, Note_off_c, 12, 59, 127
2, 79585, Note_off_c, 2, 74, 127
2, 79586, Note_on_c, 7, 67, 127
2, 79586, Note_on_c, 3, 51, 127
2, 79680, Note_off_c, 5, 65, 127
2, 79697, Note_on_c, 7, 55, 127
2, 79807, Note_off_c, 7, 55, 127
2, 79808, Note_on_c, 10, 57, 127
2, 79918, Note_off_c, 10, 57, 127
2, 79919, Note_on_c, 12, 59, 127
2, 80029, Note_off_c, 12, 59, 127
2, 80030, Note_on_c, 0, 60, 127
2, 80140, Note_off_c, 0, 60, 127
2, 80141, Note_on_c, 2, 62, 127
2, 80251, Note_off_c, 2, 62, 127
2, 80252, Note_on_c, 3, 63, 127
2, 80362, Note_off_c, 3, 63, 127
2, 80363, Note_on_c, 2, 62, 127
2, 80473, Note_off_c, 2, 62, 127
2, 80474, Note_on_c, 0, 60, 127
2, 80584, Note_off_c, 0, 60, 127
2, 80585, Note_on_c, 2, 62, 127
2, 80695, Note_off_c, 2, 62, 127
2, 80696, Note_on_c, 3, 63, 127
2, 80806, Note_off_c, 3, 63, 127
2, 80807, Note_on_c, 5, 65, 127
2, 80858, Note_off_c, 7, 67, 127
2, 80917, Note_off_c, 5, 65, 127
2, 80918, Note_on_c, 7, 67, 127
2, 81028, Note_off_c, 3, 51, 127
2, 81029, Note_on_c, 12, 71, 127
2, 81029, Note_on_c, 7, 55, 127
2, 81139, Note_off_c, 7, 55, 127
2, 81139, Note_off_c, 12, 71, 127
2, 81140, Note_on_c, 0, 72, 127
2, 81140, Note_on_c, 5, 53, 127
2, 81250, Note_off_c, 5, 53, 127
2, 81250, Note_off_c, 0, 72, 127
2, 81251, Note_on_c, 2, 74, 127
2, 81251, Note_on_c, 3, 51, 127
2, 81361, Note_off_c, 3, 51, 127
2, 81361, Note_off_c, 2, 74, 127
2, 81362, Note_on_c, 3, 75, 127
2, 81362, Note_on_c, 2, 50, 127
2, 81472, Note_off_c, 2, 50, 127
2, 81472, Note_off_c, 3, 75, 127
2, 81473, Note_on_c, 5, 77, 127
2, 81473, Note_on_c, 0, 48, 127
2, 81583, Note_off_c, 0, 48, 127
2, 81583, Note_off_c, 5, 77, 127
2, 81604, Note_on_c, 7, 55, 127
2, 81604, Note_on_c, 7, 79, 127
2, 81951, Note_off_c, 7, 67, 127
2, 81967, Note_on_c, 3, 63, 127
2, 81967, Note_on_c, 0, 72, 127
2, 81970, Note_off_c, 7, 79, 127
2, 82309, Note_off_c, 0, 72, 127
2, 82309, Note_off_c, 3, 63, 127
2, 82332, Note_on_c, 7, 43, 127
2, 82332, Note_on_c, 2, 62, 127
2, 82332, Note_on_c, 12, 71, 127
2, 82573, Note_off_c, 7, 55, 127
2, 82711, Note_off_c, 12, 71, 127
2, 82711, Note_off_c, 2, 62, 127
2, 82711, Note_off_c, 7, 43, 127
2, 82817, Note_on_c, 0, 72, 127
2, 82817, Note_on_c, 4, 64, 127
2, 82817, Note_on_c, 0, 36, 127
2, 84838, Note_off_c, 0, 36, 127
2, 84838, Note_off_c, 4, 64, 127
2, 84838, Note_off_c, 0, 72, 127
2, 89088, End_track
3, 0, Start_track
3, 0, Title_t, "MIDI"
3, 1536, End_track
0, 0, End_of_file
