0, 0, Header, 1, 3, 384
1, 0, Start_track
1, 0, Tempo, 500000
1, 0, Time_signature, 4, 2, 24, 8
1, 69120, End_track
2, 0, Start_track
2, 0, Text_t, "harpsichord: John Sankey"
2, 0, Program_c, 0, 6
2, 0, Pitch_bend_c, 0, 8192
2, 0, Program_c, 1, 6
2, 0, Pitch_bend_c, 1, 7792
2, 0, Program_c, 2, 6
2, 0, Pitch_bend_c, 2, 7876
2, 0, Program_c, 3, 6
2, 0, Pitch_bend_c, 3, 7952
2, 0, Program_c, 4, 6
2, 0, Pitch_bend_c, 4, 7792
2, 0, Program_c, 5, 6
2, 0, Pitch_bend_c, 5, 8112
2, 0, Program_c, 6, 6
2, 0, Pitch_bend_c, 6, 7712
2, 0, Program_c, 7, 6
2, 0, Pitch_bend_c, 7, 8037
2, 0, Program_c, 8, 6
2, 0, Pitch_bend_c, 8, 7872
2, 0, Program_c, 10, 6
2, 0, Pitch_bend_c, 10, 7712
2, 0, Program_c, 11, 6
2, 0, Pitch_bend_c, 11, 8032
2, 0, Program_c, 12, 6
2, 0, Pitch_bend_c, 12, 7872
2, 0, Title_t, "Track 1"
2, 88, Note_on_c, 7, 43, 127
2, 265, Note_on_c, 2, 62, 127
2, 438, Note_off_c, 2, 62, 127
2, 443, Note_on_c, 4, 64, 127
2, 616, Note_off_c, 4, 64, 127
2, 620, Note_on_c, 6, 66, 127
2, 793, Note_off_c, 6, 66, 127
2, 798, Note_on_c, 7, 67, 127
2, 971, Note_off_c, 7, 67, 127
2, 975, Note_off_c, 7, 43, 127
2, 976, Note_on_c, 10, 69, 127
2, 1149, Note_off_c, 10, 69, 127
2, 1153, Note_on_c, 7, 55, 127
2, 1153, Note_on_c, 11, 70, 127
2, 1326, Note_off_c, 11, 70, 127
2, 1331, Note_on_c, 7, 67, 127
2, 1503, Note_off_c, 7, 55, 127
2, 1504, Note_off_c, 7, 67, 127
2, 1508, Note_on_c, 6, 54, 127
2, 1508, Note_on_c, 10, 69, 127
2, 1681, Note_off_c, 10, 69, 127
2, 1681, Note_off_c, 6, 54, 127
2, 1685, Note_on_c, 7, 55, 127
2, 1685, Note_on_c, 7, 67, 127
2, 1858, Note_off_c, 7, 67, 127
2, 1858, Note_off_c, 7, 55, 127
2, 1863, Note_on_c, 10, 57, 127
2, 1863, Note_on_c, 6, 66, 127
2, 2036, Note_off_c, 6, 66, 127
2, 2036, Note_off_c, 10, 57, 127
2, 2040, Note_on_c, 7, 55, 127
2, 2040, Note_on_c, 4, 64, 127
2, 2213, Note_off_c, 4, 64, 127
2, 2213, Note_off_c, 7, 55, 127
2, 2219, Note_on_c, 6, 54, 127
2, 2219, Note_on_c, 2, 62, 127
2, 2392, Note_off_c, 2, 62, 127
2, 2396, Note_on_c, 0, 72, 127
2, 2533, Note_off_c, 6, 54, 127
2, 2569, Note_off_c, 0, 72, 127
2, 2573, Note_on_c, 5, 53, 127
2, 2573, Note_on_c, 11, 70, 127
2, 2746, Note_off_c, 11, 70, 127
2, 2751, Note_on_c, 10, 69, 127
2, 2887, Note_off_c, 5, 53, 127
2, 2924, Note_off_c, 10, 69, 127
2, 2928, Note_on_c, 4, 52, 127
2, 2928, Note_on_c, 7, 67, 127
2, 3101, Note_off_c, 7, 67, 127
2, 3101, Note_off_c, 4, 52, 127
2, 3106, Note_on_c, 5, 53, 127
2, 3106, Note_on_c, 5, 65, 127
2, 3279, Note_off_c, 5, 65, 127
2, 3279, Note_off_c, 5, 53, 127
2, 3283, Note_on_c, 7, 55, 127
2, 3283, Note_on_c, 4, 64, 127
2, 3456, Note_off_c, 4, 64, 127
2, 3456, Note_off_c, 7, 55, 127
2, 3460, Note_on_c, 5, 53, 127
2, 3460, Note_on_c, 2, 62, 127
2, 3633, Note_off_c, 2, 62, 127
2, 3633, Note_off_c, 5, 53, 127
2, 3639, Note_on_c, 4, 52, 127
2, 3639, Note_on_c, 0, 60, 127
2, 3812, Note_off_c, 0, 60, 127
2, 3816, Note_on_c, 11, 70, 127
2, 3953, Note_off_c, 4, 52, 127
2, 3989, Note_off_c, 11, 70, 127
2, 3994, Note_on_c, 3, 51, 127
2, 3994, Note_on_c, 10, 69, 127
2, 4167, Note_off_c, 10, 69, 127
2, 4171, Note_on_c, 7, 67, 127
2, 4308, Note_off_c, 3, 51, 127
2, 4344, Note_off_c, 7, 67, 127
2, 4348, Note_on_c, 2, 50, 127
2, 4348, Note_on_c, 2, 74, 127
2, 4521, Note_off_c, 2, 74, 127
2, 4526, Note_on_c, 0, 72, 127
2, 4670, Note_off_c, 2, 50, 127
2, 4699, Note_off_c, 0, 72, 127
2, 4703, Note_on_c, 7, 55, 127
2, 4703, Note_on_c, 11, 70, 127
2, 4787, Note_off_c, 7, 55, 127
2, 4793, Note_on_c, 6, 54, 127
2, 4876, Note_off_c, 11, 70, 127
2, 4877, Note_off_c, 6, 54, 127
2, 4881, Note_on_c, 7, 55, 127
2, 4881, Note_on_c, 2, 74, 127
2, 5054, Note_off_c, 2, 74, 127
2, 5059, Note_on_c, 0, 72, 127
2, 5232, Note_off_c, 0, 72, 127
2, 5237, Note_on_c, 11, 70, 127
2, 5409, Note_off_c, 7, 55, 127
2, 5410, Note_off_c, 11, 70, 127
2, 5414, Note_on_c, 6, 54, 127
2, 5414, Note_on_c, 10, 69, 127
2, 5587, Note_off_c, 10, 69, 127
2, 5591, Note_on_c, 0, 72, 127
2, 5764, Note_off_c, 0, 72, 127
2, 5764, Note_off_c, 6, 54, 127
2, 5769, Note_on_c, 7, 55, 127
2, 5769, Note_on_c, 11, 70, 127
2, 5942, Note_off_c, 11, 70, 127
2, 5942, Note_off_c, 7, 55, 127
2, 5946, Note_on_c, 2, 50, 127
2, 5946, Note_on_c, 10, 69, 127
2, 6119, Note_off_c, 10, 69, 127
2, 6119, Note_off_c, 2, 50, 127
2, 6124, Note_on_c, 4, 52, 127
2, 6124, Note_on_c, 7, 67, 127
2, 6297, Note_off_c, 7, 67, 127
2, 6297, Note_off_c, 4, 52, 127
2, 6301, Note_on_c, 6, 54, 127
2, 6301, Note_on_c, 10, 69, 127
2, 6474, Note_off_c, 10, 69, 127
2, 6474, Note_off_c, 6, 54, 127
2, 6479, Note_on_c, 7, 55, 127
2, 6479, Note_on_c, 11, 70, 127
2, 6652, Note_off_c, 11, 70, 127
2, 6652, Note_off_c, 7, 55, 127
2, 6657, Note_on_c, 10, 57, 127
2, 6657, Note_on_c, 0, 72, 127
2, 6830, Note_off_c, 0, 72, 127
2, 6830, Note_off_c, 10, 57, 127
2, 6834, Note_on_c, 11, 58, 127
2, 6834, Note_on_c, 2, 74, 127
2, 7007, Note_off_c, 2, 74, 127
2, 7007, Note_off_c, 11, 58, 127
2, 7012, Note_on_c, 7, 55, 127
2, 7012, Note_on_c, 4, 76, 127
2, 7185, Note_off_c, 4, 76, 127
2, 7185, Note_off_c, 7, 55, 127
2, 7189, Note_on_c, 10, 57, 127
2, 7189, Note_on_c, 5, 77, 127
2, 7263, Note_on_c, 4, 76, 127
2, 7273, Note_off_c, 5, 77, 127
2, 7337, Note_on_c, 5, 77, 127
2, 7347, Note_off_c, 4, 76, 127
2, 7362, Note_off_c, 10, 57, 127
2, 7366, Note_on_c, 7, 55, 127
2, 7500, Note_off_c, 5, 77, 127
2, 7539, Note_off_c, 7, 55, 127
2, 7544, Note_on_c, 5, 53, 127
2, 7544, Note_on_c, 2, 74, 127
2, 7717, Note_off_c, 5, 53, 127
2, 7721, Note_on_c, 4, 52, 127
2, 7876, Note_off_c, 2, 74, 127
2, 7894, Note_off_c, 4, 52, 127
2, 7900, Note_on_c, 2, 50, 127
2, 8073, Note_off_c, 2, 50, 127
2, 8077, Note_on_c, 0, 60, 127
2, 8250, Note_off_c, 0, 60, 127
2, 8254, Note_on_c, 11, 58, 127
2, 8254, Note_on_c, 2, 74, 127
2, 8427, Note_off_c, 11, 58, 127
2, 8432, Note_on_c, 10, 57, 127
2, 8595, Note_off_c, 2, 74, 127
2, 8605, Note_off_c, 10, 57, 127
2, 8609, Note_on_c, 7, 55, 127
2, 8609, Note_on_c, 3, 75, 127
2, 8782, Note_off_c, 3, 75, 127
2, 8782, Note_off_c, 7, 55, 127
2, 8787, Note_on_c, 5, 53, 127
2, 8787, Note_on_c, 2, 74, 127
2, 8960, Note_off_c, 2, 74, 127
2, 8960, Note_off_c, 5, 53, 127
2, 8964, Note_on_c, 3, 51, 127
2, 8964, Note_on_c, 0, 72, 127
2, 9137, Note_off_c, 0, 72, 127
2, 9137, Note_off_c, 3, 51, 127
2, 9142, Note_on_c, 2, 50, 127
2, 9142, Note_on_c, 2, 74, 127
2, 9315, Note_off_c, 2, 74, 127
2, 9315, Note_off_c, 2, 50, 127
2, 9320, Note_on_c, 0, 48, 127
2, 9320, Note_on_c, 3, 75, 127
2, 9493, Note_off_c, 0, 48, 127
2, 9497, Note_on_c, 11, 58, 127
2, 9597, Note_off_c, 3, 75, 127
2, 9670, Note_off_c, 11, 58, 127
2, 9675, Note_on_c, 10, 57, 127
2, 9675, Note_on_c, 4, 76, 127
2, 9848, Note_off_c, 10, 57, 127
2, 9852, Note_on_c, 7, 55, 127
2, 9952, Note_off_c, 4, 76, 127
2, 10025, Note_off_c, 7, 55, 127
2, 10030, Note_on_c, 2, 62, 127
2, 10030, Note_on_c, 5, 77, 127
2, 10203, Note_off_c, 5, 77, 127
2, 10203, Note_off_c, 2, 62, 127
2, 10207, Note_on_c, 0, 60, 127
2, 10207, Note_on_c, 4, 76, 127
2, 10380, Note_off_c, 4, 76, 127
2, 10380, Note_off_c, 0, 60, 127
2, 10384, Note_on_c, 11, 58, 127
2, 10384, Note_on_c, 2, 74, 127
2, 10557, Note_off_c, 2, 74, 127
2, 10557, Note_off_c, 11, 58, 127
2, 10562, Note_on_c, 2, 62, 127
2, 10562, Note_on_c, 4, 76, 127
2, 10735, Note_off_c, 4, 76, 127
2, 10735, Note_off_c, 2, 62, 127
2, 10740, Note_on_c, 0, 60, 127
2, 10740, Note_on_c, 5, 77, 127
2, 10913, Note_off_c, 0, 60, 127
2, 10918, Note_on_c, 11, 58, 127
2, 11017, Note_off_c, 5, 77, 127
2, 11091, Note_off_c, 11, 58, 127
2, 11095, Note_on_c, 10, 57, 127
2, 11095, Note_on_c, 6, 78, 127
2, 11268, Note_off_c, 10, 57, 127
2, 11272, Note_on_c, 0, 60, 127
2, 11372, Note_off_c, 6, 78, 127
2, 11445, Note_off_c, 0, 60, 127
2, 11450, Note_on_c, 11, 58, 127
2, 11450, Note_on_c, 7, 79, 127
2, 11623, Note_off_c, 11, 58, 127
2, 11627, Note_on_c, 10, 57, 127
2, 11800, Note_off_c, 10, 57, 127
2, 11800, Note_off_c, 7, 79, 127
2, 11805, Note_on_c, 7, 55, 127
2, 11805, Note_on_c, 2, 74, 127
2, 11978, Note_off_c, 2, 74, 127
2, 11978, Note_off_c, 7, 55, 127
2, 11982, Note_on_c, 10, 57, 127
2, 11982, Note_on_c, 0, 72, 127
2, 12155, Note_off_c, 0, 72, 127
2, 12155, Note_off_c, 10, 57, 127
2, 12160, Note_on_c, 11, 58, 127
2, 12160, Note_on_c, 2, 74, 127
2, 12333, Note_off_c, 2, 74, 127
2, 12333, Note_off_c, 11, 58, 127
2, 12338, Note_on_c, 0, 60, 127
2, 12338, Note_on_c, 3, 75, 127
2, 12511, Note_off_c, 3, 75, 127
2, 12511, Note_off_c, 0, 60, 127
2, 12515, Note_on_c, 2, 62, 127
2, 12515, Note_on_c, 5, 77, 127
2, 12688, Note_off_c, 5, 77, 127
2, 12688, Note_off_c, 2, 62, 127
2, 12693, Note_on_c, 11, 58, 127
2, 12693, Note_on_c, 2, 74, 127
2, 12866, Note_off_c, 2, 74, 127
2, 12866, Note_off_c, 11, 58, 127
2, 12870, Note_on_c, 0, 60, 127
2, 12870, Note_on_c, 3, 75, 127
2, 13043, Note_off_c, 3, 75, 127
2, 13047, Note_on_c, 2, 74, 127
2, 13202, Note_off_c, 0, 60, 127
2, 13220, Note_off_c, 2, 74, 127
2, 13225, Note_on_c, 3, 51, 127
2, 13225, Note_on_c, 0, 72, 127
2, 13398, Note_off_c, 0, 72, 127
2, 13402, Note_on_c, 11, 70, 127
2, 13557, Note_off_c, 3, 51, 127
2, 13575, Note_off_c, 11, 70, 127
2, 13580, Note_on_c, 5, 53, 127
2, 13580, Note_on_c, 10, 69, 127
2, 13664, Note_off_c, 5, 53, 127
2, 13669, Note_on_c, 3, 51, 127
2, 13753, Note_off_c, 3, 51, 127
2, 13753, Note_off_c, 10, 69, 127
2, 13758, Note_on_c, 5, 53, 127
2, 13758, Note_on_c, 7, 79, 127
2, 13931, Note_off_c, 7, 79, 127
2, 13931, Note_off_c, 5, 53, 127
2, 13936, Note_on_c, 5, 41, 127
2, 13936, Note_on_c, 5, 77, 127
2, 14109, Note_off_c, 5, 77, 127
2, 14113, Note_on_c, 3, 75, 127
2, 14268, Note_off_c, 5, 41, 127
2, 14286, Note_off_c, 3, 75, 127
2, 14290, Note_on_c, 11, 46, 127
2, 14290, Note_on_c, 2, 74, 127
2, 14463, Note_off_c, 2, 74, 127
2, 14468, Note_on_c, 0, 72, 127
2, 14640, Note_off_c, 11, 46, 127
2, 14641, Note_off_c, 0, 72, 127
2, 14645, Note_on_c, 11, 58, 127
2, 14645, Note_on_c, 2, 74, 127
2, 14818, Note_off_c, 2, 74, 127
2, 14823, Note_on_c, 4, 76, 127
2, 14995, Note_off_c, 11, 58, 127
2, 14996, Note_off_c, 4, 76, 127
2, 15000, Note_on_c, 10, 57, 127
2, 15000, Note_on_c, 5, 77, 127
2, 15173, Note_off_c, 5, 77, 127
2, 15178, Note_on_c, 7, 79, 127
2, 15332, Note_off_c, 10, 57, 127
2, 15351, Note_off_c, 7, 79, 127
2, 15356, Note_on_c, 2, 62, 127
2, 15356, Note_on_c, 10, 81, 127
2, 15529, Note_off_c, 10, 81, 127
2, 15533, Note_on_c, 5, 77, 127
2, 15688, Note_off_c, 2, 62, 127
2, 15706, Note_off_c, 5, 77, 127
2, 15711, Note_on_c, 11, 58, 127
2, 15711, Note_on_c, 7, 79, 127
2, 15884, Note_off_c, 7, 79, 127
2, 15888, Note_on_c, 5, 77, 127
2, 16061, Note_off_c, 5, 77, 127
2, 16061, Note_off_c, 11, 58, 127
2, 16065, Note_on_c, 7, 55, 127
2, 16065, Note_on_c, 4, 76, 127
2, 16238, Note_off_c, 4, 76, 127
2, 16243, Note_on_c, 2, 74, 127
2, 16397, Note_off_c, 7, 55, 127
2, 16416, Note_off_c, 2, 74, 127
2, 16420, Note_on_c, 10, 57, 127
2, 16420, Note_on_c, 1, 73, 127
2, 16504, Note_off_c, 10, 57, 127
2, 16509, Note_on_c, 7, 55, 127
2, 16593, Note_off_c, 7, 55, 127
2, 16593, Note_off_c, 1, 73, 127
2, 16599, Note_on_c, 10, 57, 127
2, 16599, Note_on_c, 11, 82, 127
2, 16772, Note_off_c, 11, 82, 127
2, 16772, Note_off_c, 10, 57, 127
2, 16776, Note_on_c, 10, 45, 127
2, 16776, Note_on_c, 10, 81, 127
2, 16949, Note_off_c, 10, 81, 127
2, 16953, Note_on_c, 7, 79, 127
2, 17108, Note_off_c, 10, 45, 127
2, 17126, Note_off_c, 7, 79, 127
2, 17131, Note_on_c, 2, 38, 127
2, 17131, Note_on_c, 5, 77, 127
2, 17215, Note_off_c, 5, 77, 127
2, 17220, Note_on_c, 4, 76, 127
2, 17304, Note_off_c, 4, 76, 127
2, 17304, Note_off_c, 2, 38, 127
2, 17308, Note_on_c, 10, 45, 127
2, 17308, Note_on_c, 5, 77, 127
2, 17481, Note_off_c, 10, 45, 127
2, 17486, Note_on_c, 12, 47, 127
2, 17659, Note_off_c, 12, 47, 127
2, 17663, Note_on_c, 1, 49, 127
2, 17836, Note_off_c, 1, 49, 127
2, 17840, Note_on_c, 2, 50, 127
2, 17936, Note_off_c, 5, 77, 127
2, 18013, Note_off_c, 2, 50, 127
2, 18019, Note_on_c, 4, 52, 127
2, 18019, Note_on_c, 7, 79, 127
2, 18192, Note_off_c, 7, 79, 127
2, 18192, Note_off_c, 4, 52, 127
2, 18196, Note_on_c, 5, 53, 127
2, 18196, Note_on_c, 10, 81, 127
2, 18369, Note_off_c, 10, 81, 127
2, 18369, Note_off_c, 5, 53, 127
2, 18374, Note_on_c, 2, 50, 127
2, 18374, Note_on_c, 11, 82, 127
2, 18547, Note_off_c, 11, 82, 127
2, 18547, Note_off_c, 2, 50, 127
2, 18551, Note_on_c, 4, 52, 127
2, 18551, Note_on_c, 1, 73, 127
2, 18724, Note_off_c, 1, 73, 127
2, 18724, Note_off_c, 4, 52, 127
2, 18729, Note_on_c, 2, 50, 127
2, 18729, Note_on_c, 2, 74, 127
2, 18902, Note_off_c, 2, 74, 127
2, 18902, Note_off_c, 2, 50, 127
2, 18906, Note_on_c, 1, 49, 127
2, 18906, Note_on_c, 4, 76, 127
2, 19079, Note_off_c, 4, 76, 127
2, 19079, Note_off_c, 1, 49, 127
2, 19083, Note_on_c, 12, 47, 127
2, 19083, Note_on_c, 2, 74, 127
2, 19256, Note_off_c, 2, 74, 127
2, 19256, Note_off_c, 12, 47, 127
2, 19261, Note_on_c, 10, 45, 127
2, 19261, Note_on_c, 1, 73, 127
2, 19434, Note_off_c, 10, 45, 127
2, 19439, Note_on_c, 7, 55, 127
2, 19556, Note_off_c, 1, 73, 127
2, 19612, Note_off_c, 7, 55, 127
2, 19617, Note_on_c, 5, 53, 127
2, 19617, Note_on_c, 0, 72, 127
2, 19790, Note_off_c, 5, 53, 127
2, 19794, Note_on_c, 4, 52, 127
2, 19912, Note_off_c, 0, 72, 127
2, 19967, Note_off_c, 4, 52, 127
2, 19971, Note_on_c, 2, 50, 127
2, 19971, Note_on_c, 12, 71, 127
2, 20144, Note_off_c, 12, 71, 127
2, 20144, Note_off_c, 2, 50, 127
2, 20149, Note_on_c, 0, 48, 127
2, 20149, Note_on_c, 0, 72, 127
2, 20322, Note_off_c, 0, 72, 127
2, 20322, Note_off_c, 0, 48, 127
2, 20326, Note_on_c, 12, 47, 127
2, 20326, Note_on_c, 2, 74, 127
2, 20499, Note_off_c, 2, 74, 127
2, 20499, Note_off_c, 12, 47, 127
2, 20504, Note_on_c, 10, 45, 127
2, 20504, Note_on_c, 0, 72, 127
2, 20677, Note_off_c, 0, 72, 127
2, 20677, Note_off_c, 10, 45, 127
2, 20681, Note_on_c, 7, 43, 127
2, 20681, Note_on_c, 12, 71, 127
2, 20854, Note_off_c, 7, 43, 127
2, 20859, Note_on_c, 5, 53, 127
2, 20976, Note_off_c, 12, 71, 127
2, 21032, Note_off_c, 5, 53, 127
2, 21037, Note_on_c, 4, 52, 127
2, 21037, Note_on_c, 11, 70, 127
2, 21210, Note_off_c, 4, 52, 127
2, 21214, Note_on_c, 2, 50, 127
2, 21332, Note_off_c, 11, 70, 127
2, 21387, Note_off_c, 2, 50, 127
2, 21392, Note_on_c, 10, 57, 127
2, 21392, Note_on_c, 10, 69, 127
2, 21565, Note_off_c, 10, 57, 127
2, 21569, Note_on_c, 7, 55, 127
2, 21733, Note_off_c, 10, 69, 127
2, 21742, Note_off_c, 7, 55, 127
2, 21746, Note_on_c, 5, 53, 127
2, 21746, Note_on_c, 2, 74, 127
2, 21830, Note_off_c, 2, 74, 127
2, 21836, Note_on_c, 1, 73, 127
2, 21919, Note_off_c, 5, 53, 127
2, 21920, Note_off_c, 1, 73, 127
2, 21924, Note_on_c, 10, 57, 127
2, 21924, Note_on_c, 2, 74, 127
2, 22097, Note_off_c, 10, 57, 127
2, 22101, Note_on_c, 7, 55, 127
2, 22274, Note_off_c, 7, 55, 127
2, 22280, Note_on_c, 5, 53, 127
2, 22452, Note_off_c, 2, 74, 127
2, 22453, Note_off_c, 5, 53, 127
2, 22457, Note_on_c, 4, 52, 127
2, 22457, Note_on_c, 1, 73, 127
2, 22630, Note_off_c, 4, 52, 127
2, 22634, Note_on_c, 7, 55, 127
2, 22771, Note_off_c, 1, 73, 127
2, 22807, Note_off_c, 7, 55, 127
2, 22812, Note_on_c, 5, 53, 127
2, 22812, Note_on_c, 10, 69, 127
2, 22985, Note_off_c, 5, 53, 127
2, 22989, Note_on_c, 4, 52, 127
2, 23157, Note_off_c, 10, 69, 127
2, 23162, Note_off_c, 4, 52, 127
2, 23167, Note_on_c, 2, 50, 127
2, 23167, Note_on_c, 5, 77, 127
2, 23251, Note_off_c, 5, 77, 127
2, 23256, Note_on_c, 4, 76, 127
2, 23340, Note_off_c, 4, 76, 127
2, 23340, Note_off_c, 2, 50, 127
2, 23344, Note_on_c, 5, 53, 127
2, 23344, Note_on_c, 5, 77, 127
2, 23517, Note_off_c, 5, 53, 127
2, 23522, Note_on_c, 4, 52, 127
2, 23695, Note_off_c, 4, 52, 127
2, 23700, Note_on_c, 2, 50, 127
2, 23872, Note_off_c, 5, 77, 127
2, 23873, Note_off_c, 2, 50, 127
2, 23877, Note_on_c, 1, 49, 127
2, 23877, Note_on_c, 4, 76, 127
2, 24050, Note_off_c, 1, 49, 127
2, 24055, Note_on_c, 4, 52, 127
2, 24191, Note_off_c, 4, 76, 127
2, 24228, Note_off_c, 4, 52, 127
2, 24232, Note_on_c, 2, 50, 127
2, 24232, Note_on_c, 10, 69, 127
2, 24405, Note_off_c, 2, 50, 127
2, 24410, Note_on_c, 4, 52, 127
2, 24564, Note_off_c, 10, 69, 127
2, 24583, Note_off_c, 4, 52, 127
2, 24587, Note_on_c, 5, 53, 127
2, 24587, Note_on_c, 10, 81, 127
2, 24671, Note_off_c, 10, 81, 127
2, 24676, Note_on_c, 7, 79, 127
2, 24760, Note_off_c, 7, 79, 127
2, 24760, Note_off_c, 5, 53, 127
2, 24764, Note_on_c, 2, 50, 127
2, 24764, Note_on_c, 10, 81, 127
2, 24937, Note_off_c, 2, 50, 127
2, 24942, Note_on_c, 7, 55, 127
2, 25115, Note_off_c, 7, 55, 127
2, 25120, Note_on_c, 10, 57, 127
2, 25266, Note_off_c, 10, 81, 127
2, 25293, Note_off_c, 10, 57, 127
2, 25298, Note_on_c, 11, 58, 127
2, 25298, Note_on_c, 7, 79, 127
2, 25471, Note_off_c, 11, 58, 127
2, 25475, Note_on_c, 7, 55, 127
2, 25648, Note_off_c, 7, 55, 127
2, 25652, Note_on_c, 1, 61, 127
2, 25825, Note_off_c, 1, 61, 127
2, 25830, Note_on_c, 10, 57, 127
2, 26003, Note_off_c, 10, 57, 127
2, 26003, Note_off_c, 7, 79, 127
2, 26007, Note_on_c, 12, 59, 127
2, 26007, Note_on_c, 5, 77, 127
2, 26180, Note_off_c, 5, 77, 127
2, 26180, Note_off_c, 12, 59, 127
2, 26185, Note_on_c, 1, 61, 127
2, 26185, Note_on_c, 4, 76, 127
2, 26358, Note_off_c, 4, 76, 127
2, 26358, Note_off_c, 1, 61, 127
2, 26362, Note_on_c, 2, 62, 127
2, 26362, Note_on_c, 5, 77, 127
2, 26535, Note_off_c, 5, 77, 127
2, 26535, Note_off_c, 2, 62, 127
2, 26540, Note_on_c, 5, 53, 127
2, 26540, Note_on_c, 2, 74, 127
2, 26713, Note_off_c, 2, 74, 127
2, 26713, Note_off_c, 5, 53, 127
2, 26718, Note_on_c, 7, 55, 127
2, 26718, Note_on_c, 4, 76, 127
2, 26891, Note_off_c, 4, 76, 127
2, 26891, Note_off_c, 7, 55, 127
2, 26895, Note_on_c, 10, 57, 127
2, 26895, Note_on_c, 1, 73, 127
2, 27068, Note_off_c, 1, 73, 127
2, 27068, Note_off_c, 10, 57, 127
2, 27073, Note_on_c, 11, 58, 127
2, 27073, Note_on_c, 2, 74, 127
2, 27246, Note_off_c, 11, 58, 127
2, 27250, Note_on_c, 4, 52, 127
2, 27324, Note_off_c, 2, 74, 127
2, 27339, Note_on_c, 4, 76, 127
2, 27423, Note_off_c, 4, 76, 127
2, 27423, Note_off_c, 4, 52, 127
2, 27428, Note_on_c, 5, 53, 127
2, 27428, Note_on_c, 2, 74, 127
2, 27512, Note_off_c, 2, 74, 127
2, 27517, Note_on_c, 1, 73, 127
2, 27601, Note_off_c, 1, 73, 127
2, 27601, Note_off_c, 5, 53, 127
2, 27605, Note_on_c, 7, 55, 127
2, 27605, Note_on_c, 2, 74, 127
2, 27689, Note_off_c, 2, 74, 127
2, 27694, Note_on_c, 4, 76, 127
2, 27778, Note_off_c, 4, 76, 127
2, 27778, Note_off_c, 7, 55, 127
2, 27782, Note_on_c, 10, 57, 127
2, 27782, Note_on_c, 5, 77, 127
2, 27898, Note_off_c, 5, 77, 127
2, 27901, Note_on_c, 4, 76, 127
2, 27960, Note_off_c, 4, 76, 127
2, 27960, Note_on_c, 5, 77, 127
2, 28019, Note_off_c, 5, 77, 127
2, 28020, Note_on_c, 4, 76, 127
2, 28079, Note_off_c, 4, 76, 127
2, 28079, Note_on_c, 5, 77, 127
2, 28138, Note_off_c, 5, 77, 127
2, 28138, Note_on_c, 10, 45, 127
2, 28138, Note_on_c, 4, 76, 127
2, 28299, Note_off_c, 10, 57, 127
2, 28313, Note_off_c, 4, 76, 127
2, 28316, Note_on_c, 2, 74, 127
2, 28488, Note_off_c, 10, 45, 127
2, 28489, Note_off_c, 2, 74, 127
2, 28493, Note_on_c, 2, 50, 127
2, 28493, Note_on_c, 2, 74, 127
2, 28843, Note_off_c, 2, 74, 127
2, 28848, Note_on_c, 0, 72, 127
2, 29021, Note_off_c, 0, 72, 127
2, 29025, Note_on_c, 11, 70, 127
2, 29198, Note_off_c, 11, 70, 127
2, 29203, Note_on_c, 10, 69, 127
2, 29324, Note_off_c, 2, 50, 127
2, 29376, Note_off_c, 10, 69, 127
2, 29380, Note_on_c, 2, 50, 127
2, 29380, Note_on_c, 11, 70, 127
2, 29553, Note_off_c, 11, 70, 127
2, 29553, Note_off_c, 2, 50, 127
2, 29558, Note_on_c, 4, 52, 127
2, 29558, Note_on_c, 0, 72, 127
2, 29731, Note_off_c, 0, 72, 127
2, 29731, Note_off_c, 4, 52, 127
2, 29736, Note_on_c, 5, 53, 127
2, 29736, Note_on_c, 10, 69, 127
2, 29909, Note_off_c, 10, 69, 127
2, 29909, Note_off_c, 5, 53, 127
2, 29913, Note_on_c, 7, 55, 127
2, 29913, Note_on_c, 11, 70, 127
2, 30086, Note_off_c, 11, 70, 127
2, 30086, Note_off_c, 7, 55, 127
2, 30091, Note_on_c, 10, 57, 127
2, 30091, Note_on_c, 10, 69, 127
2, 30264, Note_off_c, 10, 69, 127
2, 30264, Note_off_c, 10, 57, 127
2, 30268, Note_on_c, 11, 58, 127
2, 30268, Note_on_c, 7, 67, 127
2, 30441, Note_off_c, 7, 67, 127
2, 30441, Note_off_c, 11, 58, 127
2, 30445, Note_on_c, 7, 55, 127
2, 30445, Note_on_c, 5, 65, 127
2, 30618, Note_off_c, 5, 65, 127
2, 30618, Note_off_c, 7, 55, 127
2, 30623, Note_on_c, 0, 60, 127
2, 30623, Note_on_c, 4, 64, 127
2, 30707, Note_off_c, 0, 60, 127
2, 30712, Note_on_c, 11, 58, 127
2, 30796, Note_off_c, 11, 58, 127
2, 30796, Note_off_c, 4, 64, 127
2, 30800, Note_on_c, 0, 60, 127
2, 30800, Note_on_c, 2, 74, 127
2, 30973, Note_off_c, 2, 74, 127
2, 30973, Note_off_c, 0, 60, 127
2, 30979, Note_on_c, 0, 48, 127
2, 30979, Note_on_c, 0, 72, 127
2, 31152, Note_off_c, 0, 72, 127
2, 31156, Note_on_c, 11, 70, 127
2, 31311, Note_off_c, 0, 48, 127
2, 31329, Note_off_c, 11, 70, 127
2, 31333, Note_on_c, 5, 53, 127
2, 31333, Note_on_c, 10, 69, 127
2, 31506, Note_off_c, 10, 69, 127
2, 31511, Note_on_c, 7, 67, 127
2, 31683, Note_off_c, 5, 53, 127
2, 31684, Note_off_c, 7, 67, 127
2, 31688, Note_on_c, 3, 51, 127
2, 31688, Note_on_c, 10, 69, 127
2, 31861, Note_off_c, 10, 69, 127
2, 31861, Note_off_c, 3, 51, 127
2, 31866, Note_on_c, 2, 50, 127
2, 31866, Note_on_c, 12, 71, 127
2, 32039, Note_off_c, 12, 71, 127
2, 32039, Note_off_c, 2, 50, 127
2, 32043, Note_on_c, 3, 51, 127
2, 32043, Note_on_c, 0, 72, 127
2, 32127, Note_off_c, 0, 72, 127
2, 32132, Note_on_c, 12, 71, 127
2, 32216, Note_off_c, 12, 71, 127
2, 32216, Note_off_c, 3, 51, 127
2, 32221, Note_on_c, 5, 53, 127
2, 32221, Note_on_c, 0, 72, 127
2, 32394, Note_off_c, 5, 53, 127
2, 32399, Note_on_c, 7, 55, 127
2, 32572, Note_off_c, 7, 55, 127
2, 32576, Note_on_c, 3, 51, 127
2, 32749, Note_off_c, 3, 51, 127
2, 32754, Note_on_c, 5, 53, 127
2, 32849, Note_off_c, 0, 72, 127
2, 32927, Note_off_c, 5, 53, 127
2, 32931, Note_on_c, 3, 51, 127
2, 32931, Note_on_c, 10, 69, 127
2, 33104, Note_off_c, 10, 69, 127
2, 33104, Note_off_c, 3, 51, 127
2, 33109, Note_on_c, 2, 50, 127
2, 33109, Note_on_c, 12, 71, 127
2, 33282, Note_off_c, 12, 71, 127
2, 33282, Note_off_c, 2, 50, 127
2, 33286, Note_on_c, 0, 48, 127
2, 33286, Note_on_c, 0, 72, 127
2, 33459, Note_off_c, 0, 72, 127
2, 33459, Note_off_c, 0, 48, 127
2, 33463, Note_on_c, 12, 47, 127
2, 33463, Note_on_c, 2, 74, 127
2, 33547, Note_off_c, 2, 74, 127
2, 33553, Note_on_c, 0, 72, 127
2, 33636, Note_off_c, 12, 47, 127
2, 33637, Note_off_c, 0, 72, 127
2, 33641, Note_on_c, 8, 56, 127
2, 33641, Note_on_c, 2, 74, 127
2, 33814, Note_off_c, 8, 56, 127
2, 33819, Note_on_c, 7, 55, 127
2, 33992, Note_off_c, 7, 55, 127
2, 33997, Note_on_c, 5, 53, 127
2, 34170, Note_off_c, 5, 53, 127
2, 34174, Note_on_c, 3, 51, 127
2, 34269, Note_off_c, 2, 74, 127
2, 34347, Note_off_c, 3, 51, 127
2, 34351, Note_on_c, 2, 50, 127
2, 34351, Note_on_c, 7, 67, 127
2, 34524, Note_off_c, 7, 67, 127
2, 34524, Note_off_c, 2, 50, 127
2, 34529, Note_on_c, 0, 48, 127
2, 34529, Note_on_c, 10, 69, 127
2, 34702, Note_off_c, 10, 69, 127
2, 34702, Note_off_c, 0, 48, 127
2, 34706, Note_on_c, 2, 50, 127
2, 34706, Note_on_c, 12, 71, 127
2, 34879, Note_off_c, 12, 71, 127
2, 34879, Note_off_c, 2, 50, 127
2, 34884, Note_on_c, 3, 51, 127
2, 34884, Note_on_c, 0, 72, 127
2, 35057, Note_off_c, 0, 72, 127
2, 35057, Note_off_c, 3, 51, 127
2, 35061, Note_on_c, 5, 53, 127
2, 35061, Note_on_c, 2, 74, 127
2, 35234, Note_off_c, 2, 74, 127
2, 35234, Note_off_c, 5, 53, 127
2, 35239, Note_on_c, 7, 55, 127
2, 35239, Note_on_c, 3, 75, 127
2, 35412, Note_off_c, 3, 75, 127
2, 35412, Note_off_c, 7, 55, 127
2, 35417, Note_on_c, 8, 56, 127
2, 35417, Note_on_c, 0, 72, 127
2, 35590, Note_off_c, 0, 72, 127
2, 35590, Note_off_c, 8, 56, 127
2, 35594, Note_on_c, 12, 47, 127
2, 35594, Note_on_c, 2, 74, 127
2, 35678, Note_off_c, 12, 47, 127
2, 35682, Note_on_c, 10, 45, 127
2, 35766, Note_off_c, 10, 45, 127
2, 35767, Note_off_c, 2, 74, 127
2, 35772, Note_on_c, 12, 47, 127
2, 35772, Note_on_c, 0, 72, 127
2, 35943, Note_off_c, 12, 47, 127
2, 35945, Note_off_c, 0, 72, 127
2, 35949, Note_on_c, 7, 43, 127
2, 35949, Note_on_c, 12, 71, 127
2, 36122, Note_off_c, 12, 71, 127
2, 36126, Note_on_c, 10, 69, 127
2, 36299, Note_off_c, 10, 69, 127
2, 36299, Note_off_c, 7, 43, 127
2, 36304, Note_on_c, 7, 67, 127
2, 36477, Note_off_c, 7, 67, 127
2, 36481, Note_on_c, 5, 77, 127
2, 36654, Note_off_c, 5, 77, 127
2, 36660, Note_on_c, 7, 43, 127
2, 36660, Note_on_c, 3, 75, 127
2, 36833, Note_off_c, 3, 75, 127
2, 36837, Note_on_c, 2, 74, 127
2, 37010, Note_off_c, 2, 74, 127
2, 37010, Note_off_c, 7, 43, 127
2, 37015, Note_on_c, 8, 44, 127
2, 37015, Note_on_c, 0, 72, 127
2, 37188, Note_off_c, 0, 72, 127
2, 37188, Note_off_c, 8, 44, 127
2, 37192, Note_on_c, 7, 43, 127
2, 37192, Note_on_c, 11, 70, 127
2, 37365, Note_off_c, 11, 70, 127
2, 37365, Note_off_c, 7, 43, 127
2, 37369, Note_on_c, 5, 41, 127
2, 37369, Note_on_c, 8, 68, 127
2, 37542, Note_off_c, 8, 68, 127
2, 37542, Note_off_c, 5, 41, 127
2, 37547, Note_on_c, 7, 43, 127
2, 37547, Note_on_c, 7, 67, 127
2, 37720, Note_off_c, 7, 67, 127
2, 37720, Note_off_c, 7, 43, 127
2, 37724, Note_on_c, 8, 44, 127
2, 37724, Note_on_c, 5, 65, 127
2, 37897, Note_off_c, 5, 65, 127
2, 37902, Note_on_c, 3, 75, 127
2, 38046, Note_off_c, 8, 44, 127
2, 38075, Note_off_c, 3, 75, 127
2, 38080, Note_on_c, 10, 45, 127
2, 38080, Note_on_c, 2, 74, 127
2, 38253, Note_off_c, 2, 74, 127
2, 38257, Note_on_c, 0, 72, 127
2, 38402, Note_off_c, 10, 45, 127
2, 38430, Note_off_c, 0, 72, 127
2, 38435, Note_on_c, 11, 46, 127
2, 38435, Note_on_c, 7, 79, 127
2, 38608, Note_off_c, 7, 79, 127
2, 38608, Note_off_c, 11, 46, 127
2, 38612, Note_on_c, 10, 45, 127
2, 38612, Note_on_c, 5, 77, 127
2, 38785, Note_off_c, 5, 77, 127
2, 38785, Note_off_c, 10, 45, 127
2, 38790, Note_on_c, 7, 43, 127
2, 38790, Note_on_c, 3, 75, 127
2, 38963, Note_off_c, 3, 75, 127
2, 38963, Note_off_c, 7, 43, 127
2, 38967, Note_on_c, 10, 45, 127
2, 38967, Note_on_c, 7, 79, 127
2, 39140, Note_off_c, 7, 79, 127
2, 39140, Note_off_c, 10, 45, 127
2, 39144, Note_on_c, 11, 46, 127
2, 39144, Note_on_c, 5, 77, 127
2, 39317, Note_off_c, 5, 77, 127
2, 39322, Note_on_c, 3, 75, 127
2, 39466, Note_off_c, 11, 46, 127
2, 39495, Note_off_c, 3, 75, 127
2, 39500, Note_on_c, 12, 47, 127
2, 39500, Note_on_c, 2, 74, 127
2, 39673, Note_off_c, 2, 74, 127
2, 39678, Note_on_c, 5, 77, 127
2, 39822, Note_off_c, 12, 47, 127
2, 39851, Note_off_c, 5, 77, 127
2, 39855, Note_on_c, 0, 48, 127
2, 39855, Note_on_c, 3, 75, 127
2, 40028, Note_off_c, 3, 75, 127
2, 40028, Note_off_c, 0, 48, 127
2, 40032, Note_on_c, 7, 43, 127
2, 40032, Note_on_c, 2, 74, 127
2, 40205, Note_off_c, 2, 74, 127
2, 40205, Note_off_c, 7, 43, 127
2, 40210, Note_on_c, 10, 45, 127
2, 40210, Note_on_c, 0, 72, 127
2, 40383, Note_off_c, 0, 72, 127
2, 40383, Note_off_c, 10, 45, 127
2, 40387, Note_on_c, 12, 47, 127
2, 40387, Note_on_c, 2, 74, 127
2, 40560, Note_off_c, 2, 74, 127
2, 40560, Note_off_c, 12, 47, 127
2, 40565, Note_on_c, 0, 48, 127
2, 40565, Note_on_c, 3, 75, 127
2, 40738, Note_off_c, 3, 75, 127
2, 40738, Note_off_c, 0, 48, 127
2, 40742, Note_on_c, 2, 50, 127
2, 40742, Note_on_c, 5, 77, 127
2, 40915, Note_off_c, 5, 77, 127
2, 40915, Note_off_c, 2, 50, 127
2, 40920, Note_on_c, 3, 51, 127
2, 40920, Note_on_c, 7, 79, 127
2, 41093, Note_off_c, 7, 79, 127
2, 41093, Note_off_c, 3, 51, 127
2, 41098, Note_on_c, 0, 48, 127
2, 41098, Note_on_c, 8, 80, 127
2, 41271, Note_off_c, 8, 80, 127
2, 41271, Note_off_c, 0, 48, 127
2, 41275, Note_on_c, 2, 50, 127
2, 41275, Note_on_c, 12, 71, 127
2, 41349, Note_on_c, 10, 69, 127
2, 41359, Note_off_c, 12, 71, 127
2, 41423, Note_on_c, 12, 71, 127
2, 41433, Note_off_c, 10, 69, 127
2, 41448, Note_off_c, 2, 50, 127
2, 41453, Note_on_c, 0, 48, 127
2, 41596, Note_off_c, 12, 71, 127
2, 41626, Note_off_c, 0, 48, 127
2, 41630, Note_on_c, 12, 47, 127
2, 41630, Note_on_c, 2, 74, 127
2, 41803, Note_off_c, 12, 47, 127
2, 41808, Note_on_c, 10, 45, 127
2, 41944, Note_off_c, 2, 74, 127
2, 41981, Note_off_c, 10, 45, 127
2, 41985, Note_on_c, 7, 43, 127
2, 42158, Note_off_c, 7, 43, 127
2, 42162, Note_on_c, 5, 53, 127
2, 42335, Note_off_c, 5, 53, 127
2, 42340, Note_on_c, 3, 51, 127
2, 42340, Note_on_c, 5, 65, 127
2, 42513, Note_off_c, 3, 51, 127
2, 42518, Note_on_c, 2, 50, 127
2, 42690, Note_off_c, 5, 65, 127
2, 42691, Note_off_c, 2, 50, 127
2, 42696, Note_on_c, 0, 48, 127
2, 42696, Note_on_c, 3, 63, 127
2, 42869, Note_off_c, 0, 48, 127
2, 42873, Note_on_c, 11, 46, 127
2, 43046, Note_off_c, 11, 46, 127
2, 43046, Note_off_c, 3, 63, 127
2, 43050, Note_on_c, 8, 44, 127
2, 43050, Note_on_c, 0, 72, 127
2, 43223, Note_off_c, 8, 44, 127
2, 43228, Note_on_c, 7, 43, 127
2, 43400, Note_off_c, 0, 72, 127
2, 43401, Note_off_c, 7, 43, 127
2, 43405, Note_on_c, 5, 41, 127
2, 43405, Note_on_c, 2, 62, 127
2, 43578, Note_off_c, 5, 41, 127
2, 43583, Note_on_c, 3, 39, 127
2, 43755, Note_off_c, 2, 62, 127
2, 43756, Note_off_c, 3, 39, 127
2, 43760, Note_on_c, 5, 41, 127
2, 43760, Note_on_c, 0, 72, 127
2, 43844, Note_off_c, 0, 72, 127
2, 43849, Note_on_c, 12, 71, 127
2, 43933, Note_off_c, 12, 71, 127
2, 43933, Note_off_c, 5, 41, 127
2, 43938, Note_on_c, 7, 43, 127
2, 43938, Note_on_c, 10, 69, 127
2, 44022, Note_off_c, 10, 69, 127
2, 44027, Note_on_c, 12, 71, 127
2, 44111, Note_off_c, 12, 71, 127
2, 44111, Note_off_c, 7, 43, 127
2, 44116, Note_on_c, 0, 36, 127
2, 44116, Note_on_c, 0, 72, 127
2, 44277, Note_off_c, 0, 36, 127
2, 44289, Note_off_c, 0, 72, 127
2, 44293, Note_on_c, 2, 50, 127
2, 44293, Note_on_c, 7, 67, 127
2, 44466, Note_off_c, 7, 67, 127
2, 44466, Note_off_c, 2, 50, 127
2, 44471, Note_on_c, 3, 51, 127
2, 44471, Note_on_c, 0, 72, 127
2, 44644, Note_off_c, 0, 72, 127
2, 44644, Note_off_c, 3, 51, 127
2, 44648, Note_on_c, 5, 53, 127
2, 44648, Note_on_c, 2, 74, 127
2, 44821, Note_off_c, 2, 74, 127
2, 44821, Note_off_c, 5, 53, 127
2, 44825, Note_on_c, 7, 55, 127
2, 44825, Note_on_c, 3, 75, 127
2, 44909, Note_off_c, 3, 75, 127
2, 44915, Note_on_c, 2, 74, 127
2, 44998, Note_off_c, 7, 55, 127
2, 44999, Note_off_c, 2, 74, 127
2, 45003, Note_on_c, 8, 56, 127
2, 45003, Note_on_c, 3, 75, 127
2, 45176, Note_off_c, 8, 56, 127
2, 45180, Note_on_c, 11, 58, 127
2, 45353, Note_off_c, 11, 58, 127
2, 45359, Note_on_c, 7, 55, 127
2, 45532, Note_off_c, 7, 55, 127
2, 45536, Note_on_c, 8, 56, 127
2, 45631, Note_off_c, 3, 75, 127
2, 45709, Note_off_c, 8, 56, 127
2, 45714, Note_on_c, 7, 55, 127
2, 45714, Note_on_c, 0, 72, 127
2, 45887, Note_off_c, 0, 72, 127
2, 45887, Note_off_c, 7, 55, 127
2, 45891, Note_on_c, 5, 53, 127
2, 45891, Note_on_c, 2, 74, 127
2, 46064, Note_off_c, 2, 74, 127
2, 46064, Note_off_c, 5, 53, 127
2, 46068, Note_on_c, 3, 51, 127
2, 46068, Note_on_c, 3, 75, 127
2, 46241, Note_off_c, 3, 75, 127
2, 46241, Note_off_c, 3, 51, 127
2, 46246, Note_on_c, 2, 50, 127
2, 46246, Note_on_c, 5, 77, 127
2, 46330, Note_off_c, 5, 77, 127
2, 46335, Note_on_c, 3, 75, 127
2, 46419, Note_off_c, 3, 75, 127
2, 46419, Note_off_c, 2, 50, 127
2, 46423, Note_on_c, 0, 60, 127
2, 46423, Note_on_c, 5, 77, 127
2, 46596, Note_off_c, 0, 60, 127
2, 46601, Note_on_c, 11, 58, 127
2, 46774, Note_off_c, 11, 58, 127
2, 46779, Note_on_c, 8, 56, 127
2, 46952, Note_off_c, 8, 56, 127
2, 46956, Note_on_c, 7, 55, 127
2, 47129, Note_off_c, 7, 55, 127
2, 47134, Note_on_c, 5, 53, 127
2, 47306, Note_off_c, 5, 77, 127
2, 47307, Note_off_c, 5, 53, 127
2, 47311, Note_on_c, 7, 55, 127
2, 47311, Note_on_c, 3, 75, 127
2, 47484, Note_off_c, 3, 75, 127
2, 47484, Note_off_c, 7, 55, 127
2, 47489, Note_on_c, 10, 57, 127
2, 47489, Note_on_c, 2, 74, 127
2, 47662, Note_off_c, 2, 74, 127
2, 47662, Note_off_c, 10, 57, 127
2, 47666, Note_on_c, 11, 58, 127
2, 47666, Note_on_c, 7, 79, 127
2, 47750, Note_off_c, 7, 79, 127
2, 47755, Note_on_c, 5, 77, 127
2, 47839, Note_off_c, 5, 77, 127
2, 47839, Note_off_c, 11, 58, 127
2, 47843, Note_on_c, 0, 60, 127
2, 47843, Note_on_c, 7, 79, 127
2, 48016, Note_off_c, 0, 60, 127
2, 48021, Note_on_c, 2, 62, 127
2, 48193, Note_off_c, 7, 79, 127
2, 48194, Note_off_c, 2, 62, 127
2, 48199, Note_on_c, 11, 58, 127
2, 48199, Note_on_c, 5, 77, 127
2, 48372, Note_off_c, 5, 77, 127
2, 48372, Note_off_c, 11, 58, 127
2, 48377, Note_on_c, 0, 60, 127
2, 48377, Note_on_c, 3, 75, 127
2, 48550, Note_off_c, 3, 75, 127
2, 48550, Note_off_c, 0, 60, 127
2, 48554, Note_on_c, 11, 58, 127
2, 48554, Note_on_c, 2, 74, 127
2, 48727, Note_off_c, 2, 74, 127
2, 48727, Note_off_c, 11, 58, 127
2, 48731, Note_on_c, 10, 57, 127
2, 48731, Note_on_c, 0, 72, 127
2, 48904, Note_off_c, 0, 72, 127
2, 48904, Note_off_c, 10, 57, 127
2, 48909, Note_on_c, 7, 55, 127
2, 48909, Note_on_c, 11, 70, 127
2, 49082, Note_off_c, 11, 70, 127
2, 49082, Note_off_c, 7, 55, 127
2, 49086, Note_on_c, 6, 54, 127
2, 49086, Note_on_c, 10, 69, 127
2, 49259, Note_off_c, 10, 69, 127
2, 49259, Note_off_c, 6, 54, 127
2, 49264, Note_on_c, 3, 63, 127
2, 49264, Note_on_c, 7, 67, 127
2, 49437, Note_off_c, 7, 67, 127
2, 49437, Note_off_c, 3, 63, 127
2, 49441, Note_on_c, 2, 62, 127
2, 49441, Note_on_c, 6, 66, 127
2, 49614, Note_off_c, 6, 66, 127
2, 49614, Note_off_c, 2, 62, 127
2, 49619, Note_on_c, 0, 60, 127
2, 49619, Note_on_c, 10, 69, 127
2, 49792, Note_off_c, 10, 69, 127
2, 49792, Note_off_c, 0, 60, 127
2, 49797, Note_on_c, 11, 58, 127
2, 49797, Note_on_c, 3, 63, 127
2, 49970, Note_off_c, 3, 63, 127
2, 49974, Note_on_c, 2, 62, 127
2, 50147, Note_off_c, 2, 62, 127
2, 50152, Note_on_c, 4, 64, 127
2, 50325, Note_off_c, 4, 64, 127
2, 50329, Note_on_c, 6, 66, 127
2, 50498, Note_off_c, 11, 58, 127
2, 50502, Note_off_c, 6, 66, 127
2, 50507, Note_on_c, 7, 67, 127
2, 50680, Note_off_c, 7, 67, 127
2, 50684, Note_on_c, 0, 60, 127
2, 50684, Note_on_c, 10, 69, 127
2, 50857, Note_off_c, 10, 69, 127
2, 50857, Note_off_c, 0, 60, 127
2, 50861, Note_on_c, 2, 62, 127
2, 50861, Note_on_c, 11, 70, 127
2, 51034, Note_off_c, 11, 70, 127
2, 51034, Note_off_c, 2, 62, 127
2, 51040, Note_on_c, 3, 63, 127
2, 51040, Note_on_c, 7, 67, 127
2, 51213, Note_off_c, 7, 67, 127
2, 51213, Note_off_c, 3, 63, 127
2, 51217, Note_on_c, 6, 54, 127
2, 51217, Note_on_c, 10, 69, 127
2, 51390, Note_off_c, 10, 69, 127
2, 51390, Note_off_c, 6, 54, 127
2, 51395, Note_on_c, 7, 55, 127
2, 51395, Note_on_c, 7, 67, 127
2, 51568, Note_off_c, 7, 67, 127
2, 51568, Note_off_c, 7, 55, 127
2, 51572, Note_on_c, 10, 57, 127
2, 51572, Note_on_c, 6, 66, 127
2, 51745, Note_off_c, 6, 66, 127
2, 51745, Note_off_c, 10, 57, 127
2, 51749, Note_on_c, 7, 55, 127
2, 51749, Note_on_c, 4, 64, 127
2, 51922, Note_off_c, 4, 64, 127
2, 51922, Note_off_c, 7, 55, 127
2, 51927, Note_on_c, 6, 54, 127
2, 51927, Note_on_c, 2, 62, 127
2, 52100, Note_off_c, 2, 62, 127
2, 52104, Note_on_c, 0, 72, 127
2, 52249, Note_off_c, 6, 54, 127
2, 52277, Note_off_c, 0, 72, 127
2, 52282, Note_on_c, 5, 53, 127
2, 52282, Note_on_c, 11, 70, 127
2, 52455, Note_off_c, 11, 70, 127
2, 52460, Note_on_c, 10, 69, 127
2, 52604, Note_off_c, 5, 53, 127
2, 52633, Note_off_c, 10, 69, 127
2, 52637, Note_on_c, 4, 52, 127
2, 52637, Note_on_c, 7, 67, 127
2, 52810, Note_off_c, 7, 67, 127
2, 52810, Note_off_c, 4, 52, 127
2, 52815, Note_on_c, 5, 53, 127
2, 52815, Note_on_c, 5, 65, 127
2, 52988, Note_off_c, 5, 65, 127
2, 52988, Note_off_c, 5, 53, 127
2, 52992, Note_on_c, 7, 55, 127
2, 52992, Note_on_c, 4, 64, 127
2, 53165, Note_off_c, 4, 64, 127
2, 53165, Note_off_c, 7, 55, 127
2, 53170, Note_on_c, 5, 53, 127
2, 53170, Note_on_c, 2, 62, 127
2, 53343, Note_off_c, 2, 62, 127
2, 53343, Note_off_c, 5, 53, 127
2, 53347, Note_on_c, 4, 52, 127
2, 53347, Note_on_c, 0, 60, 127
2, 53520, Note_off_c, 0, 60, 127
2, 53524, Note_on_c, 11, 70, 127
2, 53669, Note_off_c, 4, 52, 127
2, 53697, Note_off_c, 11, 70, 127
2, 53702, Note_on_c, 3, 51, 127
2, 53702, Note_on_c, 10, 69, 127
2, 53875, Note_off_c, 10, 69, 127
2, 53880, Note_on_c, 7, 67, 127
2, 54024, Note_off_c, 3, 51, 127
2, 54053, Note_off_c, 7, 67, 127
2, 54058, Note_on_c, 2, 50, 127
2, 54058, Note_on_c, 2, 74, 127
2, 54231, Note_off_c, 2, 74, 127
2, 54235, Note_on_c, 0, 72, 127
2, 54390, Note_off_c, 2, 50, 127
2, 54408, Note_off_c, 0, 72, 127
2, 54412, Note_on_c, 7, 55, 127
2, 54412, Note_on_c, 11, 70, 127
2, 54496, Note_off_c, 7, 55, 127
2, 54501, Note_on_c, 6, 54, 127
2, 54585, Note_off_c, 6, 54, 127
2, 54585, Note_off_c, 11, 70, 127
2, 54590, Note_on_c, 7, 55, 127
2, 54590, Note_on_c, 2, 74, 127
2, 54763, Note_off_c, 2, 74, 127
2, 54767, Note_on_c, 0, 72, 127
2, 54940, Note_off_c, 0, 72, 127
2, 54945, Note_on_c, 11, 70, 127
2, 55118, Note_off_c, 11, 70, 127
2, 55118, Note_off_c, 7, 55, 127
2, 55122, Note_on_c, 6, 54, 127
2, 55122, Note_on_c, 10, 69, 127
2, 55295, Note_off_c, 10, 69, 127
2, 55300, Note_on_c, 0, 72, 127
2, 55444, Note_off_c, 6, 54, 127
2, 55473, Note_off_c, 0, 72, 127
2, 55478, Note_on_c, 2, 50, 127
2, 55478, Note_on_c, 11, 70, 127
2, 55651, Note_off_c, 11, 70, 127
2, 55655, Note_on_c, 10, 69, 127
2, 55828, Note_off_c, 10, 69, 127
2, 55828, Note_off_c, 2, 50, 127
2, 55833, Note_on_c, 11, 58, 127
2, 55833, Note_on_c, 7, 67, 127
2, 55917, Note_off_c, 11, 58, 127
2, 55921, Note_on_c, 10, 57, 127
2, 56005, Note_off_c, 10, 57, 127
2, 56006, Note_off_c, 7, 67, 127
2, 56010, Note_on_c, 11, 58, 127
2, 56010, Note_on_c, 11, 70, 127
2, 56183, Note_off_c, 11, 70, 127
2, 56188, Note_on_c, 10, 69, 127
2, 56361, Note_off_c, 10, 69, 127
2, 56365, Note_on_c, 7, 67, 127
2, 56538, Note_off_c, 7, 67, 127
2, 56538, Note_off_c, 11, 58, 127
2, 56542, Note_on_c, 10, 57, 127
2, 56542, Note_on_c, 6, 66, 127
2, 56715, Note_off_c, 6, 66, 127
2, 56720, Note_on_c, 10, 69, 127
2, 56874, Note_off_c, 10, 57, 127
2, 56893, Note_off_c, 10, 69, 127
2, 56898, Note_on_c, 2, 50, 127
2, 56898, Note_on_c, 7, 67, 127
2, 57071, Note_off_c, 7, 67, 127
2, 57076, Note_on_c, 10, 69, 127
2, 57248, Note_off_c, 2, 50, 127
2, 57249, Note_off_c, 10, 69, 127
2, 57253, Note_on_c, 2, 62, 127
2, 57253, Note_on_c, 11, 70, 127
2, 57337, Note_off_c, 2, 62, 127
2, 57341, Note_on_c, 0, 60, 127
2, 57425, Note_off_c, 0, 60, 127
2, 57426, Note_off_c, 11, 70, 127
2, 57430, Note_on_c, 2, 62, 127
2, 57430, Note_on_c, 0, 72, 127
2, 57603, Note_off_c, 0, 72, 127
2, 57608, Note_on_c, 2, 74, 127
2, 57781, Note_off_c, 2, 74, 127
2, 57785, Note_on_c, 4, 76, 127
2, 57934, Note_off_c, 2, 62, 127
2, 57958, Note_off_c, 4, 76, 127
2, 57963, Note_on_c, 0, 60, 127
2, 57963, Note_on_c, 6, 78, 127
2, 58136, Note_off_c, 6, 78, 127
2, 58140, Note_on_c, 7, 79, 127
2, 58313, Note_off_c, 7, 79, 127
2, 58318, Note_on_c, 10, 81, 127
2, 58482, Note_off_c, 0, 60, 127
2, 58491, Note_off_c, 10, 81, 127
2, 58496, Note_on_c, 3, 63, 127
2, 58496, Note_on_c, 6, 78, 127
2, 58669, Note_off_c, 6, 78, 127
2, 58669, Note_off_c, 3, 63, 127
2, 58673, Note_on_c, 2, 62, 127
2, 58673, Note_on_c, 7, 79, 127
2, 58846, Note_off_c, 7, 79, 127
2, 58846, Note_off_c, 2, 62, 127
2, 58851, Note_on_c, 0, 60, 127
2, 58851, Note_on_c, 10, 81, 127
2, 59024, Note_off_c, 10, 81, 127
2, 59024, Note_off_c, 0, 60, 127
2, 59028, Note_on_c, 11, 58, 127
2, 59028, Note_on_c, 2, 74, 127
2, 59112, Note_off_c, 2, 74, 127
2, 59117, Note_on_c, 0, 72, 127
2, 59201, Note_off_c, 0, 72, 127
2, 59201, Note_off_c, 11, 58, 127
2, 59205, Note_on_c, 10, 57, 127
2, 59205, Note_on_c, 2, 74, 127
2, 59378, Note_off_c, 10, 57, 127
2, 59383, Note_on_c, 7, 55, 127
2, 59556, Note_off_c, 7, 55, 127
2, 59560, Note_on_c, 11, 58, 127
2, 59733, Note_off_c, 11, 58, 127
2, 59739, Note_on_c, 3, 51, 127
2, 59823, Note_off_c, 3, 51, 127
2, 59827, Note_on_c, 2, 50, 127
2, 59896, Note_off_c, 2, 74, 127
2, 59911, Note_off_c, 2, 50, 127
2, 59916, Note_on_c, 3, 51, 127
2, 59916, Note_on_c, 0, 72, 127
2, 60089, Note_off_c, 0, 72, 127
2, 60094, Note_on_c, 3, 75, 127
2, 60267, Note_off_c, 3, 75, 127
2, 60271, Note_on_c, 2, 74, 127
2, 60444, Note_off_c, 2, 74, 127
2, 60448, Note_on_c, 0, 72, 127
2, 60599, Note_off_c, 3, 51, 127
2, 60626, Note_on_c, 2, 50, 127
2, 60626, Note_on_c, 11, 70, 127
2, 60630, Note_off_c, 0, 72, 127
2, 60799, Note_off_c, 11, 70, 127
2, 60799, Note_off_c, 2, 50, 127
2, 60803, Note_on_c, 0, 48, 127
2, 60803, Note_on_c, 10, 69, 127
2, 60976, Note_off_c, 10, 69, 127
2, 60976, Note_off_c, 0, 48, 127
2, 60981, Note_on_c, 3, 51, 127
2, 60981, Note_on_c, 0, 72, 127
2, 61154, Note_off_c, 0, 72, 127
2, 61154, Note_off_c, 3, 51, 127
2, 61159, Note_on_c, 10, 45, 127
2, 61159, Note_on_c, 6, 66, 127
2, 61332, Note_off_c, 6, 66, 127
2, 61336, Note_on_c, 10, 69, 127
2, 61509, Note_off_c, 10, 69, 127
2, 61509, Note_off_c, 10, 45, 127
2, 61514, Note_on_c, 2, 50, 127
2, 61514, Note_on_c, 11, 70, 127
2, 61598, Note_off_c, 2, 50, 127
2, 61602, Note_on_c, 0, 48, 127
2, 61686, Note_off_c, 0, 48, 127
2, 61687, Note_off_c, 11, 70, 127
2, 61691, Note_on_c, 2, 50, 127
2, 61691, Note_on_c, 10, 69, 127
2, 61864, Note_off_c, 10, 69, 127
2, 61869, Note_on_c, 7, 67, 127
2, 62042, Note_off_c, 7, 67, 127
2, 62046, Note_on_c, 5, 65, 127
2, 62190, Note_off_c, 2, 50, 127
2, 62219, Note_off_c, 5, 65, 127
2, 62223, Note_on_c, 0, 48, 127
2, 62223, Note_on_c, 4, 64, 127
2, 62396, Note_off_c, 4, 64, 127
2, 62401, Note_on_c, 7, 67, 127
2, 62566, Note_off_c, 7, 67, 127
2, 62573, Note_off_c, 0, 48, 127
2, 62579, Note_on_c, 11, 46, 127
2, 62579, Note_on_c, 1, 61, 127
2, 62761, Note_off_c, 1, 61, 127
2, 62765, Note_on_c, 7, 67, 127
2, 62947, Note_off_c, 7, 67, 127
2, 62948, Note_off_c, 11, 46, 127
2, 62952, Note_on_c, 10, 45, 127
2, 62952, Note_on_c, 10, 69, 127
2, 63134, Note_off_c, 10, 69, 127
2, 63134, Note_off_c, 10, 45, 127
2, 63140, Note_on_c, 7, 43, 127
2, 63140, Note_on_c, 11, 70, 127
2, 63322, Note_off_c, 11, 70, 127
2, 63322, Note_off_c, 7, 43, 127
2, 63326, Note_on_c, 2, 50, 127
2, 63326, Note_on_c, 2, 62, 127
2, 63420, Note_off_c, 2, 50, 127
2, 63424, Note_on_c, 0, 48, 127
2, 63518, Note_off_c, 0, 48, 127
2, 63522, Note_on_c, 2, 50, 127
2, 63522, Note_on_c, 10, 69, 127
2, 63566, Note_off_c, 2, 62, 127
2, 63714, Note_off_c, 10, 69, 127
2, 63719, Note_on_c, 2, 38, 127
2, 63719, Note_on_c, 7, 67, 127
2, 63911, Note_off_c, 7, 67, 127
2, 63916, Note_on_c, 6, 66, 127
2, 64014, Note_off_c, 2, 50, 127
2, 64108, Note_off_c, 6, 66, 127
2, 64108, Note_off_c, 2, 38, 127
2, 64149, Note_on_c, 7, 67, 127
2, 64149, Note_on_c, 7, 43, 127
2, 65846, Note_off_c, 7, 43, 127
2, 65846, Note_off_c, 7, 67, 127
2, 69120, End_track
3, 0, Start_track
3, 0, Title_t, "MIDI"
3, 1536, End_track
0, 0, End_of_file
