0, 0, Header, 1, 3, 384
1, 0, Start_track
1, 0, Tempo, 500000
1, 0, Time_signature, 4, 2, 24, 8
1, 86016, End_track
2, 0, Start_track
2, 0, Text_t, "harpsichord: John Sankey"
2, 0, Program_c, 0, 6
2, 0, Pitch_bend_c, 0, 8192
2, 0, Program_c, 1, 6
2, 0, Pitch_bend_c, 1, 7792
2, 0, Program_c, 2, 6
2, 0, Pitch_bend_c, 2, 7876
2, 0, Program_c, 3, 6
2, 0, Pitch_bend_c, 3, 7952
2, 0, Program_c, 4, 6
2, 0, Pitch_bend_c, 4, 7792
2, 0, Program_c, 5, 6
2, 0, Pitch_bend_c, 5, 8112
2, 0, Program_c, 6, 6
2, 0, Pitch_bend_c, 6, 7712
2, 0, Program_c, 7, 6
2, 0, Pitch_bend_c, 7, 8037
2, 0, Program_c, 8, 6
2, 0, Pitch_bend_c, 8, 7872
2, 0, Program_c, 10, 6
2, 0, Pitch_bend_c, 10, 7712
2, 0, Program_c, 11, 6
2, 0, Pitch_bend_c, 11, 8032
2, 0, Program_c, 12, 6
2, 0, Pitch_bend_c, 12, 7872
2, 0, Title_t, "Track 1"
2, 48, Note_on_c, 12, 47, 127
2, 48, Note_on_c, 12, 71, 127
2, 284, Note_off_c, 12, 71, 127
2, 285, Note_on_c, 6, 66, 127
2, 521, Note_off_c, 6, 66, 127
2, 522, Note_on_c, 6, 66, 127
2, 758, Note_off_c, 6, 66, 127
2, 759, Note_on_c, 7, 67, 127
2, 888, Note_off_c, 12, 47, 127
2, 996, Note_off_c, 7, 67, 127
2, 997, Note_on_c, 12, 59, 127
2, 997, Note_on_c, 6, 66, 127
2, 1233, Note_off_c, 6, 66, 127
2, 1233, Note_off_c, 12, 59, 127
2, 1234, Note_on_c, 1, 61, 127
2, 1234, Note_on_c, 6, 66, 127
2, 1470, Note_off_c, 6, 66, 127
2, 1470, Note_off_c, 1, 61, 127
2, 1471, Note_on_c, 2, 62, 127
2, 1471, Note_on_c, 12, 71, 127
2, 1707, Note_off_c, 12, 71, 127
2, 1707, Note_off_c, 2, 62, 127
2, 1708, Note_on_c, 1, 61, 127
2, 1708, Note_on_c, 6, 66, 127
2, 1944, Note_off_c, 6, 66, 127
2, 1944, Note_off_c, 1, 61, 127
2, 1945, Note_on_c, 12, 59, 127
2, 1945, Note_on_c, 6, 66, 127
2, 2181, Note_off_c, 6, 66, 127
2, 2181, Note_off_c, 12, 59, 127
2, 2182, Note_on_c, 11, 58, 127
2, 2182, Note_on_c, 1, 73, 127
2, 2418, Note_off_c, 1, 73, 127
2, 2419, Note_on_c, 6, 66, 127
2, 2655, Note_off_c, 6, 66, 127
2, 2656, Note_on_c, 6, 66, 127
2, 2892, Note_off_c, 6, 66, 127
2, 2893, Note_on_c, 7, 67, 127
2, 3072, Note_off_c, 11, 58, 127
2, 3129, Note_off_c, 7, 67, 127
2, 3130, Note_on_c, 12, 59, 127
2, 3130, Note_on_c, 6, 66, 127
2, 3366, Note_off_c, 6, 66, 127
2, 3366, Note_off_c, 12, 59, 127
2, 3367, Note_on_c, 1, 61, 127
2, 3367, Note_on_c, 6, 66, 127
2, 3603, Note_off_c, 6, 66, 127
2, 3603, Note_off_c, 1, 61, 127
2, 3604, Note_on_c, 12, 59, 127
2, 3604, Note_on_c, 1, 73, 127
2, 3840, Note_off_c, 1, 73, 127
2, 3840, Note_off_c, 12, 59, 127
2, 3841, Note_on_c, 1, 61, 127
2, 3841, Note_on_c, 6, 66, 127
2, 4077, Note_off_c, 6, 66, 127
2, 4077, Note_off_c, 1, 61, 127
2, 4078, Note_on_c, 11, 58, 127
2, 4078, Note_on_c, 6, 66, 127
2, 4314, Note_off_c, 6, 66, 127
2, 4314, Note_off_c, 11, 58, 127
2, 4315, Note_on_c, 12, 59, 127
2, 4315, Note_on_c, 2, 74, 127
2, 4434, Note_on_c, 12, 71, 127
2, 4444, Note_off_c, 2, 74, 127
2, 4553, Note_on_c, 2, 74, 127
2, 4563, Note_off_c, 12, 71, 127
2, 4672, Note_on_c, 6, 78, 127
2, 4682, Note_off_c, 2, 74, 127
2, 4791, Note_on_c, 12, 83, 127
2, 4801, Note_off_c, 6, 78, 127
2, 4910, Note_on_c, 6, 78, 127
2, 4920, Note_off_c, 12, 83, 127
2, 5029, Note_on_c, 2, 74, 127
2, 5039, Note_off_c, 6, 78, 127
2, 5148, Note_on_c, 6, 78, 127
2, 5158, Note_off_c, 2, 74, 127
2, 5267, Note_on_c, 2, 74, 127
2, 5277, Note_off_c, 6, 78, 127
2, 5386, Note_on_c, 12, 71, 127
2, 5396, Note_off_c, 2, 74, 127
2, 5505, Note_on_c, 2, 74, 127
2, 5515, Note_off_c, 12, 71, 127
2, 5624, Note_on_c, 12, 71, 127
2, 5634, Note_off_c, 2, 74, 127
2, 5743, Note_on_c, 6, 66, 127
2, 5753, Note_off_c, 12, 71, 127
2, 5862, Note_on_c, 12, 71, 127
2, 5872, Note_off_c, 6, 66, 127
2, 5981, Note_on_c, 6, 66, 127
2, 5991, Note_off_c, 12, 71, 127
2, 6100, Note_on_c, 2, 62, 127
2, 6110, Note_off_c, 6, 66, 127
2, 6219, Note_on_c, 6, 66, 127
2, 6229, Note_off_c, 2, 62, 127
2, 6338, Note_on_c, 2, 62, 127
2, 6348, Note_off_c, 6, 66, 127
2, 6456, Note_off_c, 12, 59, 127
2, 6457, Note_on_c, 12, 59, 127
2, 6467, Note_off_c, 2, 62, 127
2, 6695, Note_on_c, 6, 54, 127
2, 6931, Note_off_c, 6, 54, 127
2, 6932, Note_on_c, 6, 54, 127
2, 7168, Note_off_c, 6, 54, 127
2, 7168, Note_off_c, 12, 59, 127
2, 7169, Note_on_c, 7, 55, 127
2, 7405, Note_off_c, 7, 55, 127
2, 7406, Note_on_c, 6, 54, 127
2, 7406, Note_on_c, 12, 71, 127
2, 7642, Note_off_c, 12, 71, 127
2, 7642, Note_off_c, 6, 54, 127
2, 7643, Note_on_c, 6, 54, 127
2, 7643, Note_on_c, 1, 73, 127
2, 7879, Note_off_c, 1, 73, 127
2, 7879, Note_off_c, 6, 54, 127
2, 7880, Note_on_c, 12, 59, 127
2, 7880, Note_on_c, 2, 74, 127
2, 8116, Note_off_c, 2, 74, 127
2, 8116, Note_off_c, 12, 59, 127
2, 8117, Note_on_c, 6, 54, 127
2, 8117, Note_on_c, 1, 73, 127
2, 8353, Note_off_c, 1, 73, 127
2, 8353, Note_off_c, 6, 54, 127
2, 8354, Note_on_c, 6, 54, 127
2, 8354, Note_on_c, 12, 71, 127
2, 8590, Note_off_c, 12, 71, 127
2, 8590, Note_off_c, 6, 54, 127
2, 8591, Note_on_c, 1, 61, 127
2, 8591, Note_on_c, 11, 70, 127
2, 8827, Note_off_c, 1, 61, 127
2, 8828, Note_on_c, 6, 54, 127
2, 9064, Note_off_c, 6, 54, 127
2, 9065, Note_on_c, 6, 54, 127
2, 9301, Note_off_c, 6, 54, 127
2, 9302, Note_on_c, 7, 55, 127
2, 9455, Note_off_c, 11, 70, 127
2, 9538, Note_off_c, 7, 55, 127
2, 9539, Note_on_c, 6, 54, 127
2, 9539, Note_on_c, 12, 71, 127
2, 9775, Note_off_c, 12, 71, 127
2, 9775, Note_off_c, 6, 54, 127
2, 9776, Note_on_c, 6, 54, 127
2, 9776, Note_on_c, 1, 73, 127
2, 10012, Note_off_c, 1, 73, 127
2, 10012, Note_off_c, 6, 54, 127
2, 10013, Note_on_c, 1, 61, 127
2, 10013, Note_on_c, 12, 71, 127
2, 10249, Note_off_c, 12, 71, 127
2, 10249, Note_off_c, 1, 61, 127
2, 10250, Note_on_c, 6, 54, 127
2, 10250, Note_on_c, 1, 73, 127
2, 10486, Note_off_c, 1, 73, 127
2, 10486, Note_off_c, 6, 54, 127
2, 10487, Note_on_c, 6, 54, 127
2, 10487, Note_on_c, 11, 70, 127
2, 10723, Note_off_c, 11, 70, 127
2, 10723, Note_off_c, 6, 54, 127
2, 10724, Note_on_c, 2, 62, 127
2, 10724, Note_on_c, 12, 71, 127
2, 10842, Note_off_c, 2, 62, 127
2, 10843, Note_on_c, 12, 59, 127
2, 10843, Note_on_c, 6, 66, 127
2, 10853, Note_off_c, 12, 71, 127
2, 10961, Note_off_c, 12, 59, 127
2, 10962, Note_on_c, 2, 62, 127
2, 10962, Note_on_c, 12, 71, 127
2, 10972, Note_off_c, 6, 66, 127
2, 11080, Note_off_c, 2, 62, 127
2, 11081, Note_on_c, 6, 66, 127
2, 11081, Note_on_c, 2, 74, 127
2, 11091, Note_off_c, 12, 71, 127
2, 11199, Note_off_c, 6, 66, 127
2, 11200, Note_on_c, 12, 71, 127
2, 11200, Note_on_c, 6, 78, 127
2, 11210, Note_off_c, 2, 74, 127
2, 11318, Note_off_c, 12, 71, 127
2, 11319, Note_on_c, 6, 66, 127
2, 11319, Note_on_c, 2, 74, 127
2, 11329, Note_off_c, 6, 78, 127
2, 11437, Note_off_c, 6, 66, 127
2, 11438, Note_on_c, 2, 62, 127
2, 11438, Note_on_c, 12, 71, 127
2, 11448, Note_off_c, 2, 74, 127
2, 11556, Note_off_c, 2, 62, 127
2, 11557, Note_on_c, 6, 66, 127
2, 11557, Note_on_c, 2, 74, 127
2, 11567, Note_off_c, 12, 71, 127
2, 11675, Note_off_c, 6, 66, 127
2, 11676, Note_on_c, 2, 62, 127
2, 11676, Note_on_c, 12, 71, 127
2, 11686, Note_off_c, 2, 74, 127
2, 11794, Note_off_c, 2, 62, 127
2, 11795, Note_on_c, 12, 59, 127
2, 11795, Note_on_c, 6, 66, 127
2, 11805, Note_off_c, 12, 71, 127
2, 11913, Note_off_c, 12, 59, 127
2, 11914, Note_on_c, 2, 62, 127
2, 11914, Note_on_c, 12, 71, 127
2, 11924, Note_off_c, 6, 66, 127
2, 12032, Note_off_c, 2, 62, 127
2, 12033, Note_on_c, 12, 59, 127
2, 12033, Note_on_c, 6, 66, 127
2, 12043, Note_off_c, 12, 71, 127
2, 12151, Note_off_c, 12, 59, 127
2, 12152, Note_on_c, 6, 54, 127
2, 12152, Note_on_c, 2, 62, 127
2, 12162, Note_off_c, 6, 66, 127
2, 12270, Note_off_c, 6, 54, 127
2, 12271, Note_on_c, 12, 59, 127
2, 12271, Note_on_c, 6, 66, 127
2, 12281, Note_off_c, 2, 62, 127
2, 12389, Note_off_c, 12, 59, 127
2, 12390, Note_on_c, 6, 54, 127
2, 12390, Note_on_c, 2, 62, 127
2, 12400, Note_off_c, 6, 66, 127
2, 12508, Note_off_c, 6, 54, 127
2, 12509, Note_on_c, 2, 50, 127
2, 12509, Note_on_c, 12, 59, 127
2, 12519, Note_off_c, 2, 62, 127
2, 12627, Note_off_c, 2, 50, 127
2, 12628, Note_on_c, 6, 54, 127
2, 12628, Note_on_c, 2, 62, 127
2, 12638, Note_off_c, 12, 59, 127
2, 12746, Note_off_c, 6, 54, 127
2, 12747, Note_on_c, 2, 50, 127
2, 12747, Note_on_c, 12, 59, 127
2, 12757, Note_off_c, 2, 62, 127
2, 12861, Note_off_c, 12, 59, 127
2, 12865, Note_off_c, 2, 50, 127
2, 12866, Note_on_c, 12, 47, 127
2, 12866, Note_on_c, 12, 71, 127
2, 12866, Note_on_c, 2, 74, 127
2, 13102, Note_off_c, 12, 71, 127
2, 13103, Note_on_c, 6, 66, 127
2, 13339, Note_off_c, 6, 66, 127
2, 13340, Note_on_c, 6, 66, 127
2, 13576, Note_off_c, 6, 66, 127
2, 13577, Note_on_c, 7, 67, 127
2, 13706, Note_off_c, 12, 47, 127
2, 13814, Note_off_c, 7, 67, 127
2, 13815, Note_on_c, 12, 59, 127
2, 13815, Note_on_c, 6, 66, 127
2, 14051, Note_off_c, 6, 66, 127
2, 14051, Note_off_c, 12, 59, 127
2, 14052, Note_on_c, 1, 61, 127
2, 14052, Note_on_c, 6, 66, 127
2, 14288, Note_off_c, 6, 66, 127
2, 14288, Note_off_c, 1, 61, 127
2, 14289, Note_on_c, 2, 62, 127
2, 14289, Note_on_c, 12, 71, 127
2, 14525, Note_off_c, 12, 71, 127
2, 14525, Note_off_c, 2, 62, 127
2, 14526, Note_on_c, 1, 61, 127
2, 14526, Note_on_c, 6, 66, 127
2, 14762, Note_off_c, 6, 66, 127
2, 14762, Note_off_c, 1, 61, 127
2, 14763, Note_on_c, 12, 59, 127
2, 14763, Note_on_c, 6, 66, 127
2, 14999, Note_off_c, 6, 66, 127
2, 14999, Note_off_c, 12, 59, 127
2, 14999, Note_off_c, 2, 74, 127
2, 15000, Note_on_c, 4, 64, 127
2, 15000, Note_on_c, 8, 68, 127
2, 15238, Note_on_c, 12, 71, 127
2, 15474, Note_off_c, 12, 71, 127
2, 15475, Note_on_c, 12, 71, 127
2, 15711, Note_off_c, 12, 71, 127
2, 15712, Note_on_c, 1, 73, 127
2, 15948, Note_off_c, 1, 73, 127
2, 15949, Note_on_c, 4, 52, 127
2, 15949, Note_on_c, 12, 71, 127
2, 16063, Note_off_c, 4, 64, 127
2, 16185, Note_off_c, 12, 71, 127
2, 16185, Note_off_c, 4, 52, 127
2, 16186, Note_on_c, 6, 54, 127
2, 16186, Note_on_c, 12, 71, 127
2, 16422, Note_off_c, 12, 71, 127
2, 16422, Note_off_c, 6, 54, 127
2, 16423, Note_on_c, 8, 56, 127
2, 16423, Note_on_c, 4, 76, 127
2, 16659, Note_off_c, 4, 76, 127
2, 16659, Note_off_c, 8, 56, 127
2, 16660, Note_on_c, 6, 54, 127
2, 16660, Note_on_c, 12, 71, 127
2, 16896, Note_off_c, 12, 71, 127
2, 16896, Note_off_c, 6, 54, 127
2, 16897, Note_on_c, 4, 52, 127
2, 16897, Note_on_c, 12, 71, 127
2, 17133, Note_off_c, 12, 71, 127
2, 17133, Note_off_c, 4, 52, 127
2, 17133, Note_off_c, 8, 68, 127
2, 17134, Note_on_c, 10, 57, 127
2, 17134, Note_on_c, 10, 69, 127
2, 17134, Note_on_c, 1, 73, 127
2, 17370, Note_off_c, 10, 69, 127
2, 17371, Note_on_c, 4, 64, 127
2, 17607, Note_off_c, 4, 64, 127
2, 17608, Note_on_c, 4, 64, 127
2, 17844, Note_off_c, 4, 64, 127
2, 17845, Note_on_c, 6, 66, 127
2, 18081, Note_off_c, 6, 66, 127
2, 18082, Note_on_c, 10, 45, 127
2, 18082, Note_on_c, 4, 64, 127
2, 18196, Note_off_c, 10, 57, 127
2, 18318, Note_off_c, 4, 64, 127
2, 18318, Note_off_c, 10, 45, 127
2, 18319, Note_on_c, 12, 47, 127
2, 18319, Note_on_c, 4, 64, 127
2, 18555, Note_off_c, 4, 64, 127
2, 18555, Note_off_c, 12, 47, 127
2, 18556, Note_on_c, 1, 49, 127
2, 18556, Note_on_c, 10, 69, 127
2, 18792, Note_off_c, 10, 69, 127
2, 18792, Note_off_c, 1, 49, 127
2, 18793, Note_on_c, 12, 47, 127
2, 18793, Note_on_c, 4, 64, 127
2, 19029, Note_off_c, 4, 64, 127
2, 19029, Note_off_c, 12, 47, 127
2, 19030, Note_on_c, 10, 45, 127
2, 19030, Note_on_c, 4, 64, 127
2, 19266, Note_off_c, 4, 64, 127
2, 19266, Note_off_c, 10, 45, 127
2, 19266, Note_off_c, 1, 73, 127
2, 19267, Note_on_c, 2, 50, 127
2, 19267, Note_on_c, 6, 66, 127
2, 19505, Note_on_c, 10, 69, 127
2, 19741, Note_off_c, 10, 69, 127
2, 19742, Note_on_c, 10, 69, 127
2, 19978, Note_off_c, 10, 69, 127
2, 19979, Note_on_c, 12, 71, 127
2, 20200, Note_off_c, 2, 50, 127
2, 20215, Note_off_c, 12, 71, 127
2, 20216, Note_on_c, 2, 38, 127
2, 20216, Note_on_c, 10, 69, 127
2, 20452, Note_off_c, 10, 69, 127
2, 20452, Note_off_c, 2, 38, 127
2, 20453, Note_on_c, 4, 40, 127
2, 20453, Note_on_c, 10, 69, 127
2, 20689, Note_off_c, 10, 69, 127
2, 20689, Note_off_c, 4, 40, 127
2, 20690, Note_on_c, 6, 42, 127
2, 20690, Note_on_c, 2, 74, 127
2, 20926, Note_off_c, 2, 74, 127
2, 20926, Note_off_c, 6, 42, 127
2, 20927, Note_on_c, 4, 40, 127
2, 20927, Note_on_c, 10, 69, 127
2, 21163, Note_off_c, 10, 69, 127
2, 21163, Note_off_c, 4, 40, 127
2, 21164, Note_on_c, 2, 38, 127
2, 21164, Note_on_c, 10, 69, 127
2, 21400, Note_off_c, 10, 69, 127
2, 21400, Note_off_c, 2, 38, 127
2, 21400, Note_off_c, 6, 66, 127
2, 21401, Note_on_c, 7, 43, 127
2, 21401, Note_on_c, 7, 67, 127
2, 21401, Note_on_c, 12, 71, 127
2, 21520, Note_on_c, 2, 74, 127
2, 21530, Note_off_c, 12, 71, 127
2, 21639, Note_on_c, 12, 71, 127
2, 21649, Note_off_c, 2, 74, 127
2, 21745, Note_off_c, 7, 67, 127
2, 21757, Note_on_c, 7, 67, 127
2, 21767, Note_off_c, 12, 71, 127
2, 21876, Note_on_c, 12, 71, 127
2, 21992, Note_off_c, 7, 67, 127
2, 21994, Note_on_c, 7, 67, 127
2, 22004, Note_off_c, 12, 71, 127
2, 22112, Note_off_c, 7, 43, 127
2, 22113, Note_on_c, 7, 55, 127
2, 22113, Note_on_c, 4, 64, 127
2, 22123, Note_off_c, 7, 67, 127
2, 22231, Note_off_c, 7, 55, 127
2, 22232, Note_on_c, 12, 59, 127
2, 22350, Note_off_c, 12, 59, 127
2, 22351, Note_on_c, 7, 55, 127
2, 22469, Note_off_c, 7, 55, 127
2, 22470, Note_on_c, 4, 52, 127
2, 22588, Note_off_c, 4, 52, 127
2, 22589, Note_on_c, 7, 55, 127
2, 22707, Note_off_c, 7, 55, 127
2, 22708, Note_on_c, 4, 52, 127
2, 22807, Note_off_c, 4, 64, 127
2, 22826, Note_off_c, 4, 52, 127
2, 22827, Note_on_c, 1, 49, 127
2, 22827, Note_on_c, 4, 76, 127
2, 22945, Note_off_c, 1, 49, 127
2, 22946, Note_on_c, 4, 52, 127
2, 22946, Note_on_c, 7, 79, 127
2, 22956, Note_off_c, 4, 76, 127
2, 23064, Note_off_c, 4, 52, 127
2, 23065, Note_on_c, 1, 49, 127
2, 23065, Note_on_c, 4, 76, 127
2, 23075, Note_off_c, 7, 79, 127
2, 23183, Note_off_c, 1, 49, 127
2, 23184, Note_on_c, 10, 45, 127
2, 23184, Note_on_c, 1, 73, 127
2, 23194, Note_off_c, 4, 76, 127
2, 23302, Note_off_c, 10, 45, 127
2, 23303, Note_on_c, 1, 49, 127
2, 23303, Note_on_c, 4, 76, 127
2, 23313, Note_off_c, 1, 73, 127
2, 23421, Note_off_c, 1, 49, 127
2, 23422, Note_on_c, 10, 45, 127
2, 23422, Note_on_c, 1, 73, 127
2, 23432, Note_off_c, 4, 76, 127
2, 23540, Note_off_c, 10, 45, 127
2, 23541, Note_on_c, 6, 42, 127
2, 23541, Note_on_c, 10, 69, 127
2, 23551, Note_off_c, 1, 73, 127
2, 23660, Note_on_c, 1, 73, 127
2, 23670, Note_off_c, 10, 69, 127
2, 23779, Note_on_c, 10, 69, 127
2, 23789, Note_off_c, 1, 73, 127
2, 23898, Note_on_c, 6, 66, 127
2, 23908, Note_off_c, 10, 69, 127
2, 24017, Note_on_c, 10, 69, 127
2, 24027, Note_off_c, 6, 66, 127
2, 24136, Note_on_c, 6, 66, 127
2, 24146, Note_off_c, 10, 69, 127
2, 24235, Note_off_c, 6, 42, 127
2, 24255, Note_on_c, 6, 54, 127
2, 24255, Note_on_c, 2, 62, 127
2, 24265, Note_off_c, 6, 66, 127
2, 24373, Note_off_c, 6, 54, 127
2, 24374, Note_on_c, 10, 57, 127
2, 24492, Note_off_c, 10, 57, 127
2, 24493, Note_on_c, 6, 54, 127
2, 24611, Note_off_c, 6, 54, 127
2, 24612, Note_on_c, 2, 50, 127
2, 24730, Note_off_c, 2, 50, 127
2, 24731, Note_on_c, 6, 54, 127
2, 24849, Note_off_c, 6, 54, 127
2, 24850, Note_on_c, 2, 50, 127
2, 24949, Note_off_c, 2, 62, 127
2, 24968, Note_off_c, 2, 50, 127
2, 24969, Note_on_c, 12, 47, 127
2, 24969, Note_on_c, 2, 74, 127
2, 25087, Note_off_c, 12, 47, 127
2, 25088, Note_on_c, 2, 50, 127
2, 25088, Note_on_c, 6, 78, 127
2, 25098, Note_off_c, 2, 74, 127
2, 25206, Note_off_c, 2, 50, 127
2, 25207, Note_on_c, 12, 47, 127
2, 25207, Note_on_c, 2, 74, 127
2, 25217, Note_off_c, 6, 78, 127
2, 25325, Note_off_c, 12, 47, 127
2, 25326, Note_on_c, 7, 43, 127
2, 25326, Note_on_c, 12, 71, 127
2, 25336, Note_off_c, 2, 74, 127
2, 25444, Note_off_c, 7, 43, 127
2, 25445, Note_on_c, 12, 47, 127
2, 25445, Note_on_c, 2, 74, 127
2, 25455, Note_off_c, 12, 71, 127
2, 25563, Note_off_c, 12, 47, 127
2, 25564, Note_on_c, 7, 43, 127
2, 25564, Note_on_c, 12, 71, 127
2, 25574, Note_off_c, 2, 74, 127
2, 25682, Note_off_c, 7, 43, 127
2, 25683, Note_on_c, 4, 40, 127
2, 25683, Note_on_c, 7, 67, 127
2, 25693, Note_off_c, 12, 71, 127
2, 25802, Note_on_c, 12, 71, 127
2, 25812, Note_off_c, 7, 67, 127
2, 25921, Note_on_c, 7, 67, 127
2, 25931, Note_off_c, 12, 71, 127
2, 26040, Note_on_c, 4, 64, 127
2, 26050, Note_off_c, 7, 67, 127
2, 26159, Note_on_c, 7, 67, 127
2, 26169, Note_off_c, 4, 64, 127
2, 26278, Note_on_c, 4, 64, 127
2, 26288, Note_off_c, 7, 67, 127
2, 26377, Note_off_c, 4, 40, 127
2, 26397, Note_on_c, 4, 52, 127
2, 26397, Note_on_c, 1, 61, 127
2, 26407, Note_off_c, 4, 64, 127
2, 26515, Note_off_c, 4, 52, 127
2, 26516, Note_on_c, 7, 55, 127
2, 26516, Note_on_c, 4, 64, 127
2, 26526, Note_off_c, 1, 61, 127
2, 26634, Note_off_c, 7, 55, 127
2, 26635, Note_on_c, 4, 52, 127
2, 26635, Note_on_c, 1, 61, 127
2, 26645, Note_off_c, 4, 64, 127
2, 26753, Note_off_c, 4, 52, 127
2, 26754, Note_on_c, 1, 49, 127
2, 26754, Note_on_c, 10, 57, 127
2, 26764, Note_off_c, 1, 61, 127
2, 26872, Note_off_c, 1, 49, 127
2, 26873, Note_on_c, 4, 52, 127
2, 26873, Note_on_c, 1, 61, 127
2, 26883, Note_off_c, 10, 57, 127
2, 26991, Note_off_c, 4, 52, 127
2, 26992, Note_on_c, 1, 49, 127
2, 26992, Note_on_c, 10, 57, 127
2, 27002, Note_off_c, 1, 61, 127
2, 27110, Note_off_c, 1, 49, 127
2, 27111, Note_on_c, 10, 45, 127
2, 27111, Note_on_c, 10, 69, 127
2, 27121, Note_off_c, 10, 57, 127
2, 27229, Note_off_c, 10, 45, 127
2, 27230, Note_on_c, 1, 49, 127
2, 27348, Note_off_c, 1, 49, 127
2, 27348, Note_off_c, 10, 69, 127
2, 27349, Note_on_c, 10, 45, 127
2, 27349, Note_on_c, 6, 66, 127
2, 27467, Note_off_c, 10, 45, 127
2, 27468, Note_on_c, 6, 42, 127
2, 27586, Note_off_c, 6, 42, 127
2, 27586, Note_off_c, 6, 66, 127
2, 27587, Note_on_c, 10, 45, 127
2, 27587, Note_on_c, 7, 67, 127
2, 27705, Note_off_c, 10, 45, 127
2, 27706, Note_on_c, 6, 42, 127
2, 27824, Note_off_c, 6, 42, 127
2, 27824, Note_off_c, 7, 67, 127
2, 27825, Note_on_c, 2, 38, 127
2, 27825, Note_on_c, 2, 62, 127
2, 27825, Note_on_c, 6, 66, 127
2, 28061, Note_off_c, 2, 62, 127
2, 28062, Note_on_c, 10, 57, 127
2, 28298, Note_off_c, 10, 57, 127
2, 28299, Note_on_c, 10, 57, 127
2, 28535, Note_off_c, 10, 57, 127
2, 28536, Note_on_c, 12, 59, 127
2, 28628, Note_off_c, 2, 38, 127
2, 28773, Note_off_c, 12, 59, 127
2, 28774, Note_on_c, 2, 38, 127
2, 28774, Note_on_c, 10, 57, 127
2, 29010, Note_off_c, 10, 57, 127
2, 29010, Note_off_c, 2, 38, 127
2, 29011, Note_on_c, 4, 40, 127
2, 29011, Note_on_c, 10, 57, 127
2, 29247, Note_off_c, 10, 57, 127
2, 29247, Note_off_c, 4, 40, 127
2, 29248, Note_on_c, 6, 42, 127
2, 29248, Note_on_c, 2, 62, 127
2, 29484, Note_off_c, 2, 62, 127
2, 29484, Note_off_c, 6, 42, 127
2, 29485, Note_on_c, 4, 40, 127
2, 29485, Note_on_c, 10, 57, 127
2, 29721, Note_off_c, 10, 57, 127
2, 29721, Note_off_c, 4, 40, 127
2, 29722, Note_on_c, 2, 38, 127
2, 29722, Note_on_c, 10, 57, 127
2, 29958, Note_off_c, 10, 57, 127
2, 29958, Note_off_c, 2, 38, 127
2, 29958, Note_off_c, 6, 66, 127
2, 29959, Note_on_c, 1, 37, 127
2, 29959, Note_on_c, 4, 64, 127
2, 30195, Note_off_c, 4, 64, 127
2, 30196, Note_on_c, 10, 57, 127
2, 30432, Note_off_c, 10, 57, 127
2, 30433, Note_on_c, 10, 57, 127
2, 30669, Note_off_c, 10, 57, 127
2, 30670, Note_on_c, 12, 59, 127
2, 30836, Note_off_c, 1, 37, 127
2, 30907, Note_off_c, 12, 59, 127
2, 30908, Note_on_c, 10, 45, 127
2, 30908, Note_on_c, 10, 57, 127
2, 31144, Note_off_c, 10, 57, 127
2, 31144, Note_off_c, 10, 45, 127
2, 31145, Note_on_c, 12, 47, 127
2, 31145, Note_on_c, 10, 57, 127
2, 31381, Note_off_c, 10, 57, 127
2, 31381, Note_off_c, 12, 47, 127
2, 31382, Note_on_c, 1, 49, 127
2, 31382, Note_on_c, 4, 64, 127
2, 31618, Note_off_c, 4, 64, 127
2, 31618, Note_off_c, 1, 49, 127
2, 31619, Note_on_c, 12, 47, 127
2, 31619, Note_on_c, 10, 57, 127
2, 31855, Note_off_c, 10, 57, 127
2, 31855, Note_off_c, 12, 47, 127
2, 31856, Note_on_c, 10, 45, 127
2, 31856, Note_on_c, 10, 57, 127
2, 32092, Note_off_c, 10, 57, 127
2, 32092, Note_off_c, 10, 45, 127
2, 32093, Note_on_c, 2, 50, 127
2, 32093, Note_on_c, 6, 66, 127
2, 32212, Note_on_c, 2, 62, 127
2, 32213, Note_off_c, 6, 66, 127
2, 32331, Note_on_c, 6, 66, 127
2, 32332, Note_off_c, 2, 62, 127
2, 32450, Note_on_c, 10, 69, 127
2, 32451, Note_off_c, 6, 66, 127
2, 32569, Note_on_c, 2, 74, 127
2, 32570, Note_off_c, 10, 69, 127
2, 32688, Note_on_c, 12, 71, 127
2, 32689, Note_off_c, 2, 74, 127
2, 32807, Note_on_c, 8, 68, 127
2, 32808, Note_off_c, 12, 71, 127
2, 32926, Note_on_c, 12, 71, 127
2, 32927, Note_off_c, 8, 68, 127
2, 32998, Note_off_c, 2, 50, 127
2, 33045, Note_on_c, 4, 52, 127
2, 33045, Note_on_c, 8, 68, 127
2, 33046, Note_off_c, 12, 71, 127
2, 33164, Note_on_c, 4, 64, 127
2, 33165, Note_off_c, 8, 68, 127
2, 33281, Note_off_c, 4, 52, 127
2, 33282, Note_on_c, 6, 54, 127
2, 33282, Note_on_c, 8, 68, 127
2, 33283, Note_off_c, 4, 64, 127
2, 33401, Note_on_c, 4, 64, 127
2, 33402, Note_off_c, 8, 68, 127
2, 33518, Note_off_c, 6, 54, 127
2, 33519, Note_on_c, 4, 52, 127
2, 33519, Note_on_c, 12, 59, 127
2, 33520, Note_off_c, 4, 64, 127
2, 33638, Note_on_c, 4, 64, 127
2, 33639, Note_off_c, 12, 59, 127
2, 33755, Note_off_c, 4, 52, 127
2, 33756, Note_on_c, 6, 54, 127
2, 33756, Note_on_c, 12, 59, 127
2, 33757, Note_off_c, 4, 64, 127
2, 33875, Note_on_c, 8, 56, 127
2, 33876, Note_off_c, 12, 59, 127
2, 33992, Note_off_c, 6, 54, 127
2, 33993, Note_on_c, 2, 50, 127
2, 33993, Note_on_c, 12, 59, 127
2, 33994, Note_off_c, 8, 56, 127
2, 34112, Note_on_c, 8, 56, 127
2, 34113, Note_off_c, 12, 59, 127
2, 34229, Note_off_c, 2, 50, 127
2, 34230, Note_on_c, 1, 49, 127
2, 34230, Note_on_c, 4, 52, 127
2, 34230, Note_on_c, 10, 69, 127
2, 34231, Note_off_c, 8, 56, 127
2, 34466, Note_off_c, 10, 69, 127
2, 34467, Note_on_c, 4, 64, 127
2, 34703, Note_off_c, 4, 64, 127
2, 34704, Note_on_c, 4, 64, 127
2, 34940, Note_off_c, 4, 64, 127
2, 34941, Note_on_c, 6, 66, 127
2, 35070, Note_off_c, 1, 49, 127
2, 35178, Note_off_c, 6, 66, 127
2, 35178, Note_off_c, 4, 52, 127
2, 35179, Note_on_c, 10, 57, 127
2, 35179, Note_on_c, 4, 64, 127
2, 35415, Note_off_c, 4, 64, 127
2, 35415, Note_off_c, 10, 57, 127
2, 35416, Note_on_c, 12, 59, 127
2, 35416, Note_on_c, 4, 64, 127
2, 35652, Note_off_c, 4, 64, 127
2, 35652, Note_off_c, 12, 59, 127
2, 35653, Note_on_c, 1, 61, 127
2, 35653, Note_on_c, 10, 69, 127
2, 35889, Note_off_c, 10, 69, 127
2, 35889, Note_off_c, 1, 61, 127
2, 35890, Note_on_c, 12, 59, 127
2, 35890, Note_on_c, 4, 64, 127
2, 36126, Note_off_c, 4, 64, 127
2, 36126, Note_off_c, 12, 59, 127
2, 36127, Note_on_c, 10, 57, 127
2, 36127, Note_on_c, 4, 64, 127
2, 36363, Note_off_c, 4, 64, 127
2, 36363, Note_off_c, 10, 57, 127
2, 36364, Note_on_c, 8, 56, 127
2, 36364, Note_on_c, 4, 52, 127
2, 36364, Note_on_c, 12, 71, 127
2, 36600, Note_off_c, 12, 71, 127
2, 36601, Note_on_c, 4, 64, 127
2, 36837, Note_off_c, 4, 64, 127
2, 36838, Note_on_c, 4, 64, 127
2, 37074, Note_off_c, 4, 64, 127
2, 37075, Note_on_c, 6, 66, 127
2, 37204, Note_off_c, 4, 52, 127
2, 37312, Note_off_c, 6, 66, 127
2, 37312, Note_off_c, 8, 56, 127
2, 37313, Note_on_c, 10, 57, 127
2, 37313, Note_on_c, 4, 64, 127
2, 37549, Note_off_c, 4, 64, 127
2, 37549, Note_off_c, 10, 57, 127
2, 37550, Note_on_c, 12, 59, 127
2, 37550, Note_on_c, 4, 64, 127
2, 37786, Note_off_c, 4, 64, 127
2, 37786, Note_off_c, 12, 59, 127
2, 37787, Note_on_c, 10, 57, 127
2, 37787, Note_on_c, 12, 71, 127
2, 38023, Note_off_c, 12, 71, 127
2, 38023, Note_off_c, 10, 57, 127
2, 38024, Note_on_c, 12, 59, 127
2, 38024, Note_on_c, 4, 64, 127
2, 38260, Note_off_c, 4, 64, 127
2, 38260, Note_off_c, 12, 59, 127
2, 38261, Note_on_c, 8, 56, 127
2, 38261, Note_on_c, 4, 64, 127
2, 38497, Note_off_c, 4, 64, 127
2, 38497, Note_off_c, 8, 56, 127
2, 38498, Note_on_c, 10, 45, 127
2, 38498, Note_on_c, 10, 57, 127
2, 38498, Note_on_c, 1, 73, 127
2, 38617, Note_on_c, 10, 69, 127
2, 38627, Note_off_c, 1, 73, 127
2, 38736, Note_on_c, 1, 73, 127
2, 38746, Note_off_c, 10, 69, 127
2, 38855, Note_on_c, 4, 76, 127
2, 38865, Note_off_c, 1, 73, 127
2, 38974, Note_on_c, 10, 81, 127
2, 38984, Note_off_c, 4, 76, 127
2, 39093, Note_on_c, 6, 78, 127
2, 39103, Note_off_c, 10, 81, 127
2, 39211, Note_off_c, 10, 45, 127
2, 39212, Note_on_c, 6, 54, 127
2, 39212, Note_on_c, 3, 75, 127
2, 39222, Note_off_c, 6, 78, 127
2, 39331, Note_on_c, 6, 78, 127
2, 39341, Note_off_c, 3, 75, 127
2, 39449, Note_off_c, 10, 57, 127
2, 39450, Note_on_c, 12, 59, 127
2, 39450, Note_on_c, 3, 75, 127
2, 39460, Note_off_c, 6, 78, 127
2, 39569, Note_on_c, 12, 71, 127
2, 39579, Note_off_c, 3, 75, 127
2, 39687, Note_off_c, 12, 59, 127
2, 39688, Note_on_c, 0, 60, 127
2, 39688, Note_on_c, 3, 75, 127
2, 39698, Note_off_c, 12, 71, 127
2, 39807, Note_off_c, 6, 54, 127
2, 39807, Note_on_c, 12, 71, 127
2, 39817, Note_off_c, 3, 75, 127
2, 39925, Note_off_c, 0, 60, 127
2, 39926, Note_on_c, 12, 59, 127
2, 39926, Note_on_c, 6, 66, 127
2, 39936, Note_off_c, 12, 71, 127
2, 40045, Note_on_c, 12, 71, 127
2, 40055, Note_off_c, 6, 66, 127
2, 40163, Note_off_c, 12, 59, 127
2, 40164, Note_on_c, 0, 60, 127
2, 40164, Note_on_c, 6, 66, 127
2, 40174, Note_off_c, 12, 71, 127
2, 40283, Note_on_c, 3, 63, 127
2, 40293, Note_off_c, 6, 66, 127
2, 40401, Note_off_c, 0, 60, 127
2, 40402, Note_on_c, 10, 57, 127
2, 40402, Note_on_c, 6, 66, 127
2, 40412, Note_off_c, 3, 63, 127
2, 40521, Note_on_c, 3, 63, 127
2, 40531, Note_off_c, 6, 66, 127
2, 40639, Note_off_c, 10, 57, 127
2, 40640, Note_on_c, 7, 55, 127
2, 40640, Note_on_c, 4, 64, 127
2, 40650, Note_off_c, 3, 63, 127
2, 40878, Note_on_c, 12, 59, 127
2, 41114, Note_off_c, 12, 59, 127
2, 41115, Note_on_c, 12, 59, 127
2, 41351, Note_off_c, 12, 59, 127
2, 41351, Note_off_c, 4, 64, 127
2, 41352, Note_on_c, 0, 60, 127
2, 41588, Note_off_c, 0, 60, 127
2, 41588, Note_off_c, 7, 55, 127
2, 41589, Note_on_c, 4, 52, 127
2, 41589, Note_on_c, 12, 59, 127
2, 41825, Note_off_c, 12, 59, 127
2, 41825, Note_off_c, 4, 52, 127
2, 41826, Note_on_c, 6, 54, 127
2, 41826, Note_on_c, 12, 59, 127
2, 42062, Note_off_c, 12, 59, 127
2, 42062, Note_off_c, 6, 54, 127
2, 42063, Note_on_c, 7, 55, 127
2, 42063, Note_on_c, 4, 64, 127
2, 42063, Note_on_c, 7, 67, 127
2, 42299, Note_off_c, 4, 64, 127
2, 42299, Note_off_c, 7, 55, 127
2, 42300, Note_on_c, 6, 54, 127
2, 42300, Note_on_c, 12, 59, 127
2, 42536, Note_off_c, 12, 59, 127
2, 42536, Note_off_c, 6, 54, 127
2, 42537, Note_on_c, 4, 52, 127
2, 42537, Note_on_c, 12, 59, 127
2, 42773, Note_off_c, 12, 59, 127
2, 42773, Note_off_c, 4, 52, 127
2, 42774, Note_on_c, 10, 57, 127
2, 42774, Note_on_c, 1, 61, 127
2, 43010, Note_off_c, 7, 67, 127
2, 43011, Note_on_c, 4, 64, 127
2, 43247, Note_off_c, 4, 64, 127
2, 43248, Note_on_c, 4, 64, 127
2, 43484, Note_off_c, 4, 64, 127
2, 43485, Note_on_c, 6, 66, 127
2, 43721, Note_off_c, 6, 66, 127
2, 43722, Note_on_c, 10, 45, 127
2, 43722, Note_on_c, 4, 64, 127
2, 43836, Note_off_c, 10, 57, 127
2, 43958, Note_off_c, 4, 64, 127
2, 43958, Note_off_c, 10, 45, 127
2, 43959, Note_on_c, 12, 47, 127
2, 43959, Note_on_c, 4, 64, 127
2, 44195, Note_off_c, 4, 64, 127
2, 44195, Note_off_c, 12, 47, 127
2, 44196, Note_on_c, 1, 49, 127
2, 44196, Note_on_c, 10, 69, 127
2, 44432, Note_off_c, 10, 69, 127
2, 44432, Note_off_c, 1, 49, 127
2, 44433, Note_on_c, 12, 47, 127
2, 44433, Note_on_c, 4, 64, 127
2, 44669, Note_off_c, 4, 64, 127
2, 44669, Note_off_c, 12, 47, 127
2, 44670, Note_on_c, 10, 45, 127
2, 44670, Note_on_c, 4, 64, 127
2, 44906, Note_off_c, 4, 64, 127
2, 44906, Note_off_c, 10, 45, 127
2, 44906, Note_off_c, 1, 61, 127
2, 44907, Note_on_c, 2, 50, 127
2, 44907, Note_on_c, 6, 66, 127
2, 45145, Note_on_c, 10, 57, 127
2, 45381, Note_off_c, 10, 57, 127
2, 45382, Note_on_c, 10, 57, 127
2, 45618, Note_off_c, 10, 57, 127
2, 45619, Note_on_c, 12, 59, 127
2, 45840, Note_off_c, 2, 50, 127
2, 45855, Note_off_c, 12, 59, 127
2, 45856, Note_on_c, 2, 50, 127
2, 45856, Note_on_c, 10, 57, 127
2, 46092, Note_off_c, 10, 57, 127
2, 46092, Note_off_c, 2, 50, 127
2, 46093, Note_on_c, 4, 52, 127
2, 46093, Note_on_c, 10, 57, 127
2, 46329, Note_off_c, 10, 57, 127
2, 46329, Note_off_c, 4, 52, 127
2, 46330, Note_on_c, 6, 54, 127
2, 46330, Note_on_c, 2, 62, 127
2, 46566, Note_off_c, 2, 62, 127
2, 46566, Note_off_c, 6, 54, 127
2, 46567, Note_on_c, 4, 52, 127
2, 46567, Note_on_c, 10, 57, 127
2, 46803, Note_off_c, 10, 57, 127
2, 46803, Note_off_c, 4, 52, 127
2, 46804, Note_on_c, 2, 50, 127
2, 46804, Note_on_c, 10, 57, 127
2, 47040, Note_off_c, 10, 57, 127
2, 47040, Note_off_c, 2, 50, 127
2, 47040, Note_off_c, 6, 66, 127
2, 47041, Note_on_c, 7, 55, 127
2, 47041, Note_on_c, 12, 59, 127
2, 47279, Note_on_c, 2, 62, 127
2, 47515, Note_off_c, 2, 62, 127
2, 47516, Note_on_c, 2, 62, 127
2, 47752, Note_off_c, 2, 62, 127
2, 47753, Note_on_c, 4, 64, 127
2, 47974, Note_off_c, 7, 55, 127
2, 47989, Note_off_c, 4, 64, 127
2, 47990, Note_on_c, 7, 55, 127
2, 47990, Note_on_c, 2, 62, 127
2, 48226, Note_off_c, 2, 62, 127
2, 48226, Note_off_c, 7, 55, 127
2, 48227, Note_on_c, 6, 54, 127
2, 48227, Note_on_c, 2, 62, 127
2, 48463, Note_off_c, 2, 62, 127
2, 48463, Note_off_c, 6, 54, 127
2, 48464, Note_on_c, 4, 52, 127
2, 48464, Note_on_c, 7, 67, 127
2, 48700, Note_off_c, 7, 67, 127
2, 48700, Note_off_c, 4, 52, 127
2, 48701, Note_on_c, 6, 54, 127
2, 48701, Note_on_c, 2, 62, 127
2, 48937, Note_off_c, 2, 62, 127
2, 48937, Note_off_c, 6, 54, 127
2, 48938, Note_on_c, 7, 55, 127
2, 48938, Note_on_c, 2, 62, 127
2, 49174, Note_off_c, 2, 62, 127
2, 49174, Note_off_c, 7, 55, 127
2, 49174, Note_off_c, 12, 59, 127
2, 49175, Note_on_c, 1, 49, 127
2, 49175, Note_on_c, 4, 64, 127
2, 49413, Note_on_c, 8, 56, 127
2, 49649, Note_off_c, 8, 56, 127
2, 49650, Note_on_c, 8, 56, 127
2, 49886, Note_off_c, 8, 56, 127
2, 49887, Note_on_c, 10, 57, 127
2, 50108, Note_off_c, 1, 49, 127
2, 50123, Note_off_c, 10, 57, 127
2, 50124, Note_on_c, 1, 49, 127
2, 50124, Note_on_c, 8, 56, 127
2, 50360, Note_off_c, 8, 56, 127
2, 50360, Note_off_c, 1, 49, 127
2, 50361, Note_on_c, 12, 47, 127
2, 50361, Note_on_c, 8, 56, 127
2, 50597, Note_off_c, 8, 56, 127
2, 50597, Note_off_c, 12, 47, 127
2, 50598, Note_on_c, 11, 46, 127
2, 50598, Note_on_c, 1, 61, 127
2, 50834, Note_off_c, 1, 61, 127
2, 50834, Note_off_c, 11, 46, 127
2, 50835, Note_on_c, 12, 47, 127
2, 50835, Note_on_c, 8, 56, 127
2, 51071, Note_off_c, 8, 56, 127
2, 51071, Note_off_c, 12, 47, 127
2, 51072, Note_on_c, 1, 49, 127
2, 51072, Note_on_c, 8, 56, 127
2, 51308, Note_off_c, 8, 56, 127
2, 51308, Note_off_c, 1, 49, 127
2, 51308, Note_off_c, 4, 64, 127
2, 51309, Note_on_c, 6, 42, 127
2, 51309, Note_on_c, 11, 58, 127
2, 51547, Note_on_c, 1, 61, 127
2, 51783, Note_off_c, 1, 61, 127
2, 51784, Note_on_c, 1, 61, 127
2, 52020, Note_off_c, 1, 61, 127
2, 52021, Note_on_c, 2, 62, 127
2, 52236, Note_off_c, 11, 58, 127
2, 52236, Note_off_c, 6, 42, 127
2, 52257, Note_off_c, 2, 62, 127
2, 52258, Note_on_c, 6, 54, 127
2, 52258, Note_on_c, 1, 61, 127
2, 52494, Note_off_c, 1, 61, 127
2, 52494, Note_off_c, 6, 54, 127
2, 52495, Note_on_c, 4, 52, 127
2, 52495, Note_on_c, 1, 61, 127
2, 52731, Note_off_c, 1, 61, 127
2, 52731, Note_off_c, 4, 52, 127
2, 52732, Note_on_c, 2, 50, 127
2, 52732, Note_on_c, 6, 66, 127
2, 52968, Note_off_c, 6, 66, 127
2, 52968, Note_off_c, 2, 50, 127
2, 52969, Note_on_c, 4, 52, 127
2, 52969, Note_on_c, 1, 61, 127
2, 53205, Note_off_c, 1, 61, 127
2, 53205, Note_off_c, 4, 52, 127
2, 53206, Note_on_c, 6, 54, 127
2, 53206, Note_on_c, 1, 61, 127
2, 53442, Note_off_c, 1, 61, 127
2, 53442, Note_off_c, 6, 54, 127
2, 53443, Note_on_c, 12, 47, 127
2, 53443, Note_on_c, 12, 59, 127
2, 53443, Note_on_c, 2, 62, 127
2, 53554, Note_off_c, 12, 59, 127
2, 53561, Note_on_c, 12, 59, 127
2, 53571, Note_off_c, 2, 62, 127
2, 53680, Note_on_c, 2, 62, 127
2, 53799, Note_on_c, 6, 66, 127
2, 53809, Note_off_c, 2, 62, 127
2, 53918, Note_on_c, 2, 62, 127
2, 53928, Note_off_c, 6, 66, 127
2, 54037, Note_on_c, 6, 66, 127
2, 54047, Note_off_c, 2, 62, 127
2, 54155, Note_off_c, 12, 47, 127
2, 54156, Note_off_c, 12, 59, 127
2, 54156, Note_on_c, 2, 50, 127
2, 54156, Note_on_c, 12, 71, 127
2, 54166, Note_off_c, 6, 66, 127
2, 54274, Note_off_c, 2, 50, 127
2, 54275, Note_on_c, 12, 47, 127
2, 54275, Note_on_c, 6, 66, 127
2, 54285, Note_off_c, 12, 71, 127
2, 54393, Note_off_c, 12, 47, 127
2, 54394, Note_on_c, 2, 50, 127
2, 54394, Note_on_c, 12, 71, 127
2, 54404, Note_off_c, 6, 66, 127
2, 54512, Note_off_c, 2, 50, 127
2, 54513, Note_on_c, 6, 54, 127
2, 54513, Note_on_c, 2, 74, 127
2, 54523, Note_off_c, 12, 71, 127
2, 54631, Note_off_c, 6, 54, 127
2, 54632, Note_on_c, 2, 50, 127
2, 54632, Note_on_c, 12, 71, 127
2, 54642, Note_off_c, 2, 74, 127
2, 54750, Note_off_c, 2, 50, 127
2, 54751, Note_on_c, 6, 54, 127
2, 54751, Note_on_c, 2, 74, 127
2, 54761, Note_off_c, 12, 71, 127
2, 54869, Note_off_c, 6, 54, 127
2, 54870, Note_on_c, 12, 59, 127
2, 54870, Note_on_c, 7, 79, 127
2, 54880, Note_off_c, 2, 74, 127
2, 54988, Note_off_c, 12, 59, 127
2, 54989, Note_on_c, 7, 55, 127
2, 55107, Note_off_c, 7, 55, 127
2, 55108, Note_on_c, 12, 59, 127
2, 55226, Note_off_c, 12, 59, 127
2, 55227, Note_on_c, 4, 64, 127
2, 55345, Note_off_c, 4, 64, 127
2, 55346, Note_on_c, 12, 59, 127
2, 55464, Note_off_c, 12, 59, 127
2, 55465, Note_on_c, 4, 64, 127
2, 55552, Note_off_c, 7, 79, 127
2, 55583, Note_off_c, 4, 64, 127
2, 55584, Note_on_c, 7, 67, 127
2, 55584, Note_on_c, 1, 61, 127
2, 55703, Note_on_c, 10, 57, 127
2, 55713, Note_off_c, 1, 61, 127
2, 55822, Note_on_c, 1, 61, 127
2, 55832, Note_off_c, 10, 57, 127
2, 55941, Note_on_c, 4, 64, 127
2, 55951, Note_off_c, 1, 61, 127
2, 56060, Note_on_c, 1, 61, 127
2, 56070, Note_off_c, 4, 64, 127
2, 56179, Note_on_c, 4, 64, 127
2, 56189, Note_off_c, 1, 61, 127
2, 56266, Note_off_c, 7, 67, 127
2, 56298, Note_on_c, 1, 49, 127
2, 56298, Note_on_c, 10, 69, 127
2, 56308, Note_off_c, 4, 64, 127
2, 56416, Note_off_c, 1, 49, 127
2, 56417, Note_on_c, 10, 45, 127
2, 56417, Note_on_c, 4, 64, 127
2, 56427, Note_off_c, 10, 69, 127
2, 56535, Note_off_c, 10, 45, 127
2, 56536, Note_on_c, 1, 49, 127
2, 56536, Note_on_c, 10, 69, 127
2, 56546, Note_off_c, 4, 64, 127
2, 56654, Note_off_c, 1, 49, 127
2, 56655, Note_on_c, 4, 52, 127
2, 56655, Note_on_c, 1, 73, 127
2, 56665, Note_off_c, 10, 69, 127
2, 56773, Note_off_c, 4, 52, 127
2, 56774, Note_on_c, 1, 49, 127
2, 56774, Note_on_c, 10, 69, 127
2, 56784, Note_off_c, 1, 73, 127
2, 56892, Note_off_c, 1, 49, 127
2, 56893, Note_on_c, 4, 52, 127
2, 56893, Note_on_c, 1, 73, 127
2, 56903, Note_off_c, 10, 69, 127
2, 57011, Note_off_c, 4, 52, 127
2, 57012, Note_on_c, 10, 57, 127
2, 57012, Note_on_c, 6, 78, 127
2, 57022, Note_off_c, 1, 73, 127
2, 57130, Note_off_c, 10, 57, 127
2, 57131, Note_on_c, 6, 54, 127
2, 57249, Note_off_c, 6, 54, 127
2, 57250, Note_on_c, 10, 57, 127
2, 57368, Note_off_c, 10, 57, 127
2, 57369, Note_on_c, 2, 62, 127
2, 57487, Note_off_c, 2, 62, 127
2, 57488, Note_on_c, 10, 57, 127
2, 57606, Note_off_c, 10, 57, 127
2, 57607, Note_on_c, 2, 62, 127
2, 57694, Note_off_c, 6, 78, 127
2, 57725, Note_off_c, 2, 62, 127
2, 57726, Note_on_c, 7, 67, 127
2, 57726, Note_on_c, 12, 59, 127
2, 57844, Note_off_c, 7, 67, 127
2, 57845, Note_on_c, 12, 71, 127
2, 57845, Note_on_c, 7, 55, 127
2, 57855, Note_off_c, 12, 59, 127
2, 57963, Note_off_c, 12, 71, 127
2, 57964, Note_on_c, 7, 67, 127
2, 57964, Note_on_c, 12, 59, 127
2, 57974, Note_off_c, 7, 55, 127
2, 58083, Note_on_c, 2, 62, 127
2, 58093, Note_off_c, 12, 59, 127
2, 58162, Note_off_c, 7, 67, 127
2, 58202, Note_on_c, 7, 67, 127
2, 58202, Note_on_c, 12, 59, 127
2, 58212, Note_off_c, 2, 62, 127
2, 58321, Note_on_c, 2, 62, 127
2, 58331, Note_off_c, 7, 67, 127
2, 58400, Note_off_c, 12, 59, 127
2, 58440, Note_on_c, 12, 59, 127
2, 58440, Note_on_c, 7, 67, 127
2, 58450, Note_off_c, 2, 62, 127
2, 58558, Note_off_c, 12, 59, 127
2, 58559, Note_on_c, 2, 62, 127
2, 58638, Note_off_c, 7, 67, 127
2, 58678, Note_on_c, 12, 59, 127
2, 58678, Note_on_c, 7, 67, 127
2, 58688, Note_off_c, 2, 62, 127
2, 58796, Note_off_c, 12, 59, 127
2, 58797, Note_on_c, 7, 55, 127
2, 58797, Note_on_c, 12, 71, 127
2, 58807, Note_off_c, 7, 67, 127
2, 58915, Note_off_c, 7, 55, 127
2, 58916, Note_on_c, 12, 59, 127
2, 58916, Note_on_c, 7, 67, 127
2, 58926, Note_off_c, 12, 71, 127
2, 59034, Note_off_c, 12, 59, 127
2, 59035, Note_on_c, 7, 55, 127
2, 59035, Note_on_c, 12, 71, 127
2, 59045, Note_off_c, 7, 67, 127
2, 59153, Note_off_c, 7, 55, 127
2, 59154, Note_on_c, 4, 52, 127
2, 59154, Note_on_c, 4, 76, 127
2, 59164, Note_off_c, 12, 71, 127
2, 59272, Note_off_c, 4, 52, 127
2, 59273, Note_on_c, 7, 55, 127
2, 59391, Note_off_c, 7, 55, 127
2, 59392, Note_on_c, 4, 52, 127
2, 59510, Note_off_c, 4, 52, 127
2, 59511, Note_on_c, 1, 49, 127
2, 59629, Note_off_c, 1, 49, 127
2, 59630, Note_on_c, 4, 52, 127
2, 59748, Note_off_c, 4, 52, 127
2, 59749, Note_on_c, 1, 49, 127
2, 59867, Note_off_c, 1, 49, 127
2, 59868, Note_on_c, 11, 46, 127
2, 60106, Note_on_c, 6, 66, 127
2, 60342, Note_off_c, 6, 66, 127
2, 60343, Note_on_c, 6, 66, 127
2, 60579, Note_off_c, 6, 66, 127
2, 60580, Note_on_c, 7, 67, 127
2, 60783, Note_off_c, 11, 46, 127
2, 60816, Note_off_c, 7, 67, 127
2, 60817, Note_on_c, 12, 47, 127
2, 60817, Note_on_c, 6, 66, 127
2, 61053, Note_off_c, 6, 66, 127
2, 61053, Note_off_c, 12, 47, 127
2, 61054, Note_on_c, 1, 49, 127
2, 61054, Note_on_c, 6, 66, 127
2, 61290, Note_off_c, 6, 66, 127
2, 61290, Note_off_c, 1, 49, 127
2, 61290, Note_off_c, 4, 76, 127
2, 61291, Note_on_c, 6, 42, 127
2, 61291, Note_on_c, 4, 76, 127
2, 61527, Note_off_c, 6, 42, 127
2, 61528, Note_on_c, 12, 47, 127
2, 61528, Note_on_c, 6, 66, 127
2, 61764, Note_off_c, 6, 66, 127
2, 61764, Note_off_c, 12, 47, 127
2, 61765, Note_on_c, 11, 46, 127
2, 61765, Note_on_c, 6, 66, 127
2, 62001, Note_off_c, 6, 66, 127
2, 62001, Note_off_c, 11, 46, 127
2, 62001, Note_off_c, 4, 76, 127
2, 62002, Note_on_c, 12, 47, 127
2, 62002, Note_on_c, 6, 66, 127
2, 62002, Note_on_c, 2, 74, 127
2, 62238, Note_off_c, 6, 66, 127
2, 62239, Note_on_c, 12, 59, 127
2, 62475, Note_off_c, 12, 59, 127
2, 62476, Note_on_c, 12, 59, 127
2, 62712, Note_off_c, 12, 59, 127
2, 62713, Note_on_c, 2, 62, 127
2, 62949, Note_off_c, 2, 62, 127
2, 62950, Note_on_c, 12, 59, 127
2, 63113, Note_off_c, 12, 47, 127
2, 63186, Note_off_c, 12, 59, 127
2, 63187, Note_on_c, 12, 59, 127
2, 63423, Note_off_c, 12, 59, 127
2, 63424, Note_on_c, 12, 47, 127
2, 63424, Note_on_c, 6, 66, 127
2, 63660, Note_off_c, 6, 66, 127
2, 63661, Note_on_c, 12, 59, 127
2, 63897, Note_off_c, 12, 59, 127
2, 63898, Note_on_c, 12, 59, 127
2, 64134, Note_off_c, 12, 59, 127
2, 64134, Note_off_c, 12, 47, 127
2, 64135, Note_on_c, 4, 52, 127
2, 64135, Note_on_c, 7, 67, 127
2, 64371, Note_off_c, 2, 74, 127
2, 64372, Note_on_c, 12, 71, 127
2, 64608, Note_off_c, 12, 71, 127
2, 64609, Note_on_c, 12, 71, 127
2, 64845, Note_off_c, 12, 71, 127
2, 64846, Note_on_c, 0, 72, 127
2, 65082, Note_off_c, 0, 72, 127
2, 65083, Note_on_c, 12, 71, 127
2, 65319, Note_off_c, 12, 71, 127
2, 65320, Note_on_c, 12, 71, 127
2, 65556, Note_off_c, 12, 71, 127
2, 65557, Note_on_c, 7, 79, 127
2, 65793, Note_off_c, 7, 79, 127
2, 65794, Note_on_c, 12, 71, 127
2, 66030, Note_off_c, 12, 71, 127
2, 66031, Note_on_c, 12, 71, 127
2, 66267, Note_off_c, 12, 71, 127
2, 66267, Note_off_c, 7, 67, 127
2, 66268, Note_on_c, 6, 66, 127
2, 66268, Note_on_c, 11, 70, 127
2, 66911, Note_off_c, 11, 70, 127
2, 66911, Note_off_c, 6, 66, 127
2, 66980, Note_on_c, 11, 70, 127
2, 66980, Note_on_c, 6, 78, 127
2, 68337, Note_off_c, 4, 52, 127
2, 68403, Note_off_c, 6, 78, 127
2, 68403, Note_off_c, 11, 70, 127
2, 68405, Note_on_c, 2, 50, 127
2, 68524, Note_on_c, 12, 71, 127
2, 68643, Note_on_c, 2, 74, 127
2, 68653, Note_off_c, 12, 71, 127
2, 68762, Note_on_c, 6, 78, 127
2, 68772, Note_off_c, 2, 74, 127
2, 68881, Note_on_c, 12, 83, 127
2, 68891, Note_off_c, 6, 78, 127
2, 69000, Note_on_c, 6, 78, 127
2, 69010, Note_off_c, 12, 83, 127
2, 69119, Note_on_c, 2, 74, 127
2, 69129, Note_off_c, 6, 78, 127
2, 69238, Note_on_c, 6, 78, 127
2, 69248, Note_off_c, 2, 74, 127
2, 69357, Note_on_c, 2, 74, 127
2, 69367, Note_off_c, 6, 78, 127
2, 69476, Note_on_c, 12, 71, 127
2, 69486, Note_off_c, 2, 74, 127
2, 69595, Note_on_c, 2, 74, 127
2, 69605, Note_off_c, 12, 71, 127
2, 69714, Note_on_c, 12, 71, 127
2, 69724, Note_off_c, 2, 74, 127
2, 69830, Note_off_c, 2, 50, 127
2, 69832, Note_on_c, 6, 66, 127
2, 69842, Note_off_c, 12, 71, 127
2, 69951, Note_on_c, 12, 71, 127
2, 69961, Note_off_c, 6, 66, 127
2, 70070, Note_on_c, 6, 66, 127
2, 70080, Note_off_c, 12, 71, 127
2, 70189, Note_on_c, 2, 62, 127
2, 70199, Note_off_c, 6, 66, 127
2, 70308, Note_on_c, 6, 66, 127
2, 70318, Note_off_c, 2, 62, 127
2, 70427, Note_on_c, 2, 62, 127
2, 70437, Note_off_c, 6, 66, 127
2, 70546, Note_on_c, 12, 59, 127
2, 70546, Note_on_c, 12, 71, 127
2, 70546, Note_on_c, 2, 74, 127
2, 70556, Note_off_c, 2, 62, 127
2, 70664, Note_off_c, 12, 59, 127
2, 70665, Note_on_c, 7, 55, 127
2, 70783, Note_off_c, 7, 55, 127
2, 70784, Note_on_c, 12, 59, 127
2, 70902, Note_off_c, 12, 59, 127
2, 70903, Note_on_c, 2, 62, 127
2, 71021, Note_off_c, 2, 62, 127
2, 71022, Note_on_c, 7, 67, 127
2, 71140, Note_off_c, 7, 67, 127
2, 71141, Note_on_c, 2, 62, 127
2, 71259, Note_off_c, 2, 62, 127
2, 71260, Note_on_c, 12, 59, 127
2, 71378, Note_off_c, 12, 59, 127
2, 71379, Note_on_c, 2, 62, 127
2, 71497, Note_off_c, 2, 62, 127
2, 71498, Note_on_c, 12, 59, 127
2, 71616, Note_off_c, 12, 59, 127
2, 71617, Note_on_c, 7, 55, 127
2, 71735, Note_off_c, 7, 55, 127
2, 71736, Note_on_c, 12, 59, 127
2, 71854, Note_off_c, 12, 59, 127
2, 71855, Note_on_c, 7, 55, 127
2, 71973, Note_off_c, 7, 55, 127
2, 71974, Note_on_c, 2, 50, 127
2, 72092, Note_off_c, 2, 50, 127
2, 72093, Note_on_c, 7, 55, 127
2, 72211, Note_off_c, 7, 55, 127
2, 72212, Note_on_c, 2, 50, 127
2, 72330, Note_off_c, 2, 50, 127
2, 72331, Note_on_c, 12, 47, 127
2, 72449, Note_off_c, 12, 47, 127
2, 72450, Note_on_c, 2, 50, 127
2, 72568, Note_off_c, 2, 50, 127
2, 72569, Note_on_c, 12, 47, 127
2, 72687, Note_off_c, 12, 47, 127
2, 72687, Note_off_c, 2, 74, 127
2, 72688, Note_on_c, 5, 41, 127
2, 72928, Note_on_c, 1, 73, 127
2, 73167, Note_off_c, 1, 73, 127
2, 73168, Note_on_c, 1, 73, 127
2, 73407, Note_off_c, 1, 73, 127
2, 73408, Note_on_c, 8, 80, 127
2, 73648, Note_on_c, 1, 73, 127
2, 73758, Note_off_c, 8, 80, 127
2, 73887, Note_off_c, 1, 73, 127
2, 73888, Note_on_c, 1, 73, 127
2, 74126, Note_off_c, 5, 41, 127
2, 74127, Note_off_c, 1, 73, 127
2, 74128, Note_on_c, 2, 74, 127
2, 74367, Note_off_c, 2, 74, 127
2, 74368, Note_on_c, 1, 73, 127
2, 74607, Note_off_c, 1, 73, 127
2, 74608, Note_on_c, 1, 73, 127
2, 74847, Note_off_c, 1, 73, 127
2, 74847, Note_off_c, 12, 71, 127
2, 74848, Note_on_c, 6, 42, 127
2, 74848, Note_on_c, 11, 70, 127
2, 74848, Note_on_c, 4, 76, 127
2, 75088, Note_on_c, 1, 73, 127
2, 75148, Note_off_c, 4, 76, 127
2, 75327, Note_off_c, 1, 73, 127
2, 75328, Note_on_c, 1, 73, 127
2, 75567, Note_off_c, 1, 73, 127
2, 75568, Note_on_c, 11, 82, 127
2, 75698, Note_off_c, 6, 42, 127
2, 75807, Note_off_c, 11, 70, 127
2, 75808, Note_on_c, 4, 52, 127
2, 75808, Note_on_c, 11, 70, 127
2, 75808, Note_on_c, 1, 73, 127
2, 75968, Note_off_c, 11, 82, 127
2, 76047, Note_off_c, 1, 73, 127
2, 76047, Note_off_c, 11, 70, 127
2, 76047, Note_off_c, 4, 52, 127
2, 76048, Note_on_c, 6, 54, 127
2, 76048, Note_on_c, 12, 71, 127
2, 76048, Note_on_c, 2, 74, 127
2, 76287, Note_off_c, 2, 74, 127
2, 76287, Note_off_c, 12, 71, 127
2, 76287, Note_off_c, 6, 54, 127
2, 76288, Note_on_c, 7, 55, 127
2, 76288, Note_on_c, 1, 73, 127
2, 76288, Note_on_c, 4, 76, 127
2, 76527, Note_off_c, 4, 76, 127
2, 76527, Note_off_c, 1, 73, 127
2, 76527, Note_off_c, 7, 55, 127
2, 76528, Note_on_c, 6, 54, 127
2, 76528, Note_on_c, 12, 71, 127
2, 76528, Note_on_c, 2, 74, 127
2, 76767, Note_off_c, 2, 74, 127
2, 76767, Note_off_c, 12, 71, 127
2, 76767, Note_off_c, 6, 54, 127
2, 76768, Note_on_c, 4, 52, 127
2, 76768, Note_on_c, 11, 70, 127
2, 76768, Note_on_c, 1, 73, 127
2, 77007, Note_off_c, 1, 73, 127
2, 77007, Note_off_c, 11, 70, 127
2, 77007, Note_off_c, 4, 52, 127
2, 77008, Note_on_c, 2, 50, 127
2, 77008, Note_on_c, 12, 71, 127
2, 77008, Note_on_c, 6, 78, 127
2, 77252, Note_off_c, 6, 78, 127
2, 77253, Note_on_c, 7, 79, 127
2, 77497, Note_off_c, 7, 79, 127
2, 77497, Note_off_c, 2, 50, 127
2, 77498, Note_on_c, 4, 52, 127
2, 77498, Note_on_c, 4, 76, 127
2, 77742, Note_off_c, 4, 76, 127
2, 77742, Note_off_c, 4, 52, 127
2, 77743, Note_on_c, 6, 54, 127
2, 77743, Note_on_c, 2, 74, 127
2, 78290, Note_off_c, 6, 54, 127
2, 78291, Note_on_c, 4, 52, 127
2, 78564, Note_off_c, 4, 52, 127
2, 78564, Note_off_c, 12, 71, 127
2, 78565, Note_on_c, 6, 54, 127
2, 78565, Note_on_c, 11, 70, 127
2, 78632, Note_off_c, 2, 74, 127
2, 78633, Note_on_c, 1, 73, 127
2, 78702, Note_on_c, 2, 74, 127
2, 78708, Note_off_c, 1, 73, 127
2, 78771, Note_on_c, 1, 73, 127
2, 78777, Note_off_c, 2, 74, 127
2, 78840, Note_on_c, 2, 74, 127
2, 78846, Note_off_c, 1, 73, 127
2, 78909, Note_on_c, 1, 73, 127
2, 78915, Note_off_c, 2, 74, 127
2, 78978, Note_on_c, 2, 74, 127
2, 78984, Note_off_c, 1, 73, 127
2, 79047, Note_on_c, 1, 73, 127
2, 79053, Note_off_c, 2, 74, 127
2, 79114, Note_off_c, 1, 73, 127
2, 79114, Note_off_c, 6, 54, 127
2, 79115, Note_on_c, 6, 42, 127
2, 79115, Note_on_c, 12, 71, 127
2, 79345, Note_off_c, 11, 70, 127
2, 79402, Note_off_c, 12, 71, 127
2, 79416, Note_off_c, 6, 42, 127
2, 79432, Note_on_c, 12, 71, 127
2, 79432, Note_on_c, 12, 47, 127
2, 81898, Note_off_c, 12, 47, 127
2, 81898, Note_off_c, 12, 71, 127
2, 86016, End_track
3, 0, Start_track
3, 0, Title_t, "MIDI"
3, 1536, End_track
0, 0, End_of_file
