0, 0, Header, 1, 3, 384
1, 0, Start_track
1, 0, Tempo, 500000
1, 0, Time_signature, 4, 2, 24, 8
1, 78336, End_track
2, 0, Start_track
2, 0, Text_t, "harpsichord: John Sankey"
2, 0, Program_c, 0, 6
2, 0, Pitch_bend_c, 0, 8192
2, 0, Program_c, 1, 6
2, 0, Pitch_bend_c, 1, 7792
2, 0, Program_c, 2, 6
2, 0, Pitch_bend_c, 2, 7876
2, 0, Program_c, 3, 6
2, 0, Pitch_bend_c, 3, 7952
2, 0, Program_c, 4, 6
2, 0, Pitch_bend_c, 4, 7792
2, 0, Program_c, 5, 6
2, 0, Pitch_bend_c, 5, 8112
2, 0, Program_c, 6, 6
2, 0, Pitch_bend_c, 6, 7712
2, 0, Program_c, 7, 6
2, 0, Pitch_bend_c, 7, 8037
2, 0, Program_c, 8, 6
2, 0, Pitch_bend_c, 8, 7872
2, 0, Program_c, 10, 6
2, 0, Pitch_bend_c, 10, 7712
2, 0, Program_c, 11, 6
2, 0, Pitch_bend_c, 11, 8032
2, 0, Program_c, 12, 6
2, 0, Pitch_bend_c, 12, 7872
2, 0, Title_t, "Track 1"
2, 48, Note_on_c, 11, 58, 127
2, 48, Note_on_c, 11, 70, 127
2, 430, Note_off_c, 11, 58, 127
2, 432, Note_on_c, 2, 62, 127
2, 814, Note_off_c, 2, 62, 127
2, 816, Note_on_c, 0, 60, 127
2, 1006, Note_off_c, 11, 70, 127
2, 1008, Note_on_c, 11, 70, 127
2, 1198, Note_off_c, 11, 70, 127
2, 1198, Note_off_c, 0, 60, 127
2, 1200, Note_on_c, 11, 58, 127
2, 1200, Note_on_c, 10, 69, 127
2, 1390, Note_off_c, 10, 69, 127
2, 1392, Note_on_c, 7, 67, 127
2, 1582, Note_off_c, 7, 67, 127
2, 1582, Note_off_c, 11, 58, 127
2, 1584, Note_on_c, 10, 57, 127
2, 1584, Note_on_c, 5, 65, 127
2, 1966, Note_off_c, 5, 65, 127
2, 1966, Note_off_c, 10, 57, 127
2, 1968, Note_on_c, 7, 55, 127
2, 1968, Note_on_c, 7, 67, 127
2, 2350, Note_off_c, 7, 67, 127
2, 2350, Note_off_c, 7, 55, 127
2, 2352, Note_on_c, 5, 53, 127
2, 2352, Note_on_c, 2, 62, 127
2, 2542, Note_off_c, 2, 62, 127
2, 2544, Note_on_c, 3, 63, 127
2, 2734, Note_off_c, 3, 63, 127
2, 2734, Note_off_c, 5, 53, 127
2, 2736, Note_on_c, 3, 51, 127
2, 2736, Note_on_c, 5, 65, 127
2, 3118, Note_off_c, 5, 65, 127
2, 3118, Note_off_c, 3, 51, 127
2, 3120, Note_on_c, 2, 50, 127
2, 3120, Note_on_c, 11, 58, 127
2, 3310, Note_off_c, 11, 58, 127
2, 3312, Note_on_c, 5, 53, 127
2, 3502, Note_off_c, 5, 53, 127
2, 3504, Note_on_c, 11, 58, 127
2, 3504, Note_on_c, 5, 77, 127
2, 3694, Note_off_c, 11, 58, 127
2, 3696, Note_on_c, 2, 62, 127
2, 3886, Note_off_c, 2, 62, 127
2, 3886, Note_off_c, 2, 50, 127
2, 3888, Note_on_c, 5, 53, 127
2, 3888, Note_on_c, 0, 60, 127
2, 4078, Note_off_c, 5, 77, 127
2, 4080, Note_on_c, 3, 75, 127
2, 4270, Note_off_c, 3, 75, 127
2, 4270, Note_off_c, 0, 60, 127
2, 4272, Note_on_c, 3, 63, 127
2, 4272, Note_on_c, 2, 74, 127
2, 4462, Note_off_c, 2, 74, 127
2, 4464, Note_on_c, 0, 72, 127
2, 4654, Note_off_c, 0, 72, 127
2, 4654, Note_off_c, 5, 53, 127
2, 4656, Note_on_c, 7, 55, 127
2, 4656, Note_on_c, 11, 70, 127
2, 5038, Note_off_c, 11, 70, 127
2, 5038, Note_off_c, 3, 63, 127
2, 5040, Note_on_c, 2, 62, 127
2, 5040, Note_on_c, 2, 74, 127
2, 5230, Note_off_c, 2, 62, 127
2, 5232, Note_on_c, 4, 64, 127
2, 5422, Note_off_c, 4, 64, 127
2, 5422, Note_off_c, 2, 74, 127
2, 5422, Note_off_c, 7, 55, 127
2, 5424, Note_on_c, 0, 60, 127
2, 5424, Note_on_c, 5, 65, 127
2, 5424, Note_on_c, 10, 69, 127
2, 5614, Note_off_c, 10, 69, 127
2, 5616, Note_on_c, 11, 70, 127
2, 5696, Note_off_c, 5, 65, 127
2, 5698, Note_on_c, 4, 64, 127
2, 5806, Note_off_c, 4, 64, 127
2, 5806, Note_off_c, 11, 70, 127
2, 5808, Note_on_c, 5, 65, 127
2, 5808, Note_on_c, 0, 72, 127
2, 5902, Note_off_c, 5, 65, 127
2, 5904, Note_on_c, 4, 64, 127
2, 5998, Note_off_c, 4, 64, 127
2, 6000, Note_on_c, 2, 62, 127
2, 6094, Note_off_c, 2, 62, 127
2, 6096, Note_on_c, 4, 64, 127
2, 6188, Note_off_c, 0, 72, 127
2, 6190, Note_off_c, 4, 64, 127
2, 6190, Note_off_c, 0, 60, 127
2, 6192, Note_on_c, 2, 62, 127
2, 6192, Note_on_c, 5, 65, 127
2, 6384, Note_on_c, 5, 77, 127
2, 6574, Note_off_c, 5, 77, 127
2, 6576, Note_on_c, 2, 74, 127
2, 6766, Note_off_c, 2, 74, 127
2, 6768, Note_on_c, 11, 70, 127
2, 6958, Note_off_c, 11, 70, 127
2, 6958, Note_off_c, 5, 65, 127
2, 6960, Note_on_c, 7, 67, 127
2, 6960, Note_on_c, 3, 75, 127
2, 7150, Note_off_c, 2, 62, 127
2, 7152, Note_on_c, 2, 62, 127
2, 7342, Note_off_c, 2, 62, 127
2, 7342, Note_off_c, 3, 75, 127
2, 7342, Note_off_c, 7, 67, 127
2, 7344, Note_on_c, 11, 58, 127
2, 7344, Note_on_c, 11, 70, 127
2, 7344, Note_on_c, 7, 79, 127
2, 7534, Note_off_c, 11, 58, 127
2, 7536, Note_on_c, 7, 55, 127
2, 7726, Note_off_c, 7, 55, 127
2, 7726, Note_off_c, 11, 70, 127
2, 7728, Note_on_c, 0, 60, 127
2, 7728, Note_on_c, 3, 63, 127
2, 7918, Note_off_c, 7, 79, 127
2, 7920, Note_on_c, 3, 75, 127
2, 8110, Note_off_c, 3, 75, 127
2, 8110, Note_off_c, 3, 63, 127
2, 8110, Note_off_c, 0, 60, 127
2, 8112, Note_on_c, 3, 63, 127
2, 8112, Note_on_c, 7, 67, 127
2, 8112, Note_on_c, 0, 72, 127
2, 8302, Note_off_c, 0, 72, 127
2, 8304, Note_on_c, 10, 69, 127
2, 8494, Note_off_c, 7, 67, 127
2, 8496, Note_on_c, 0, 72, 127
2, 8686, Note_off_c, 3, 63, 127
2, 8688, Note_on_c, 0, 60, 127
2, 8864, Note_off_c, 10, 69, 127
2, 8878, Note_off_c, 0, 60, 127
2, 8878, Note_off_c, 0, 72, 127
2, 8880, Note_on_c, 10, 57, 127
2, 8880, Note_on_c, 0, 72, 127
2, 8880, Note_on_c, 5, 77, 127
2, 9070, Note_off_c, 10, 57, 127
2, 9072, Note_on_c, 5, 53, 127
2, 9262, Note_off_c, 5, 53, 127
2, 9262, Note_off_c, 5, 77, 127
2, 9264, Note_on_c, 11, 58, 127
2, 9264, Note_on_c, 2, 74, 127
2, 9454, Note_off_c, 0, 72, 127
2, 9456, Note_on_c, 5, 65, 127
2, 9646, Note_off_c, 5, 65, 127
2, 9648, Note_on_c, 11, 70, 127
2, 9824, Note_off_c, 2, 74, 127
2, 9838, Note_off_c, 11, 70, 127
2, 9840, Note_on_c, 2, 74, 127
2, 10030, Note_off_c, 2, 74, 127
2, 10032, Note_on_c, 7, 67, 127
2, 10032, Note_on_c, 4, 76, 127
2, 10222, Note_off_c, 11, 58, 127
2, 10224, Note_on_c, 11, 58, 127
2, 10414, Note_off_c, 11, 58, 127
2, 10414, Note_off_c, 7, 67, 127
2, 10416, Note_on_c, 10, 57, 127
2, 10416, Note_on_c, 11, 70, 127
2, 10606, Note_off_c, 10, 57, 127
2, 10608, Note_on_c, 7, 55, 127
2, 10798, Note_off_c, 7, 55, 127
2, 10798, Note_off_c, 11, 70, 127
2, 10798, Note_off_c, 4, 76, 127
2, 10800, Note_on_c, 5, 53, 127
2, 10800, Note_on_c, 10, 69, 127
2, 10800, Note_on_c, 5, 77, 127
2, 11182, Note_off_c, 5, 77, 127
2, 11182, Note_off_c, 10, 69, 127
2, 11182, Note_off_c, 5, 53, 127
2, 11184, Note_on_c, 7, 55, 127
2, 11184, Note_on_c, 2, 62, 127
2, 11184, Note_on_c, 11, 70, 127
2, 11374, Note_off_c, 2, 62, 127
2, 11376, Note_on_c, 3, 63, 127
2, 11566, Note_off_c, 3, 63, 127
2, 11566, Note_off_c, 7, 55, 127
2, 11568, Note_on_c, 2, 50, 127
2, 11568, Note_on_c, 5, 65, 127
2, 11758, Note_off_c, 5, 65, 127
2, 11758, Note_off_c, 2, 50, 127
2, 11760, Note_on_c, 3, 51, 127
2, 11760, Note_on_c, 7, 67, 127
2, 11950, Note_off_c, 7, 67, 127
2, 11950, Note_off_c, 3, 51, 127
2, 11950, Note_off_c, 11, 70, 127
2, 11952, Note_on_c, 5, 53, 127
2, 11952, Note_on_c, 3, 63, 127
2, 11952, Note_on_c, 10, 69, 127
2, 12142, Note_off_c, 3, 63, 127
2, 12144, Note_on_c, 5, 65, 127
2, 12334, Note_off_c, 5, 65, 127
2, 12334, Note_off_c, 5, 53, 127
2, 12336, Note_on_c, 11, 46, 127
2, 12336, Note_on_c, 2, 62, 127
2, 12526, Note_off_c, 2, 62, 127
2, 12528, Note_on_c, 5, 65, 127
2, 12718, Note_off_c, 5, 65, 127
2, 12718, Note_off_c, 11, 46, 127
2, 12718, Note_off_c, 10, 69, 127
2, 12720, Note_on_c, 3, 51, 127
2, 12720, Note_on_c, 11, 58, 127
2, 12720, Note_on_c, 7, 67, 127
2, 12910, Note_off_c, 11, 58, 127
2, 12912, Note_on_c, 0, 60, 127
2, 13102, Note_off_c, 0, 60, 127
2, 13102, Note_off_c, 3, 51, 127
2, 13104, Note_on_c, 11, 46, 127
2, 13104, Note_on_c, 2, 62, 127
2, 13294, Note_off_c, 2, 62, 127
2, 13294, Note_off_c, 11, 46, 127
2, 13296, Note_on_c, 0, 48, 127
2, 13296, Note_on_c, 3, 63, 127
2, 13486, Note_off_c, 3, 63, 127
2, 13486, Note_off_c, 0, 48, 127
2, 13486, Note_off_c, 7, 67, 127
2, 13488, Note_on_c, 2, 50, 127
2, 13488, Note_on_c, 0, 60, 127
2, 13488, Note_on_c, 5, 65, 127
2, 13678, Note_off_c, 0, 60, 127
2, 13680, Note_on_c, 2, 62, 127
2, 13870, Note_off_c, 2, 62, 127
2, 13870, Note_off_c, 2, 50, 127
2, 13872, Note_on_c, 7, 43, 127
2, 13872, Note_on_c, 11, 58, 127
2, 14062, Note_off_c, 11, 58, 127
2, 14064, Note_on_c, 2, 62, 127
2, 14254, Note_off_c, 2, 62, 127
2, 14254, Note_off_c, 7, 43, 127
2, 14254, Note_off_c, 5, 65, 127
2, 14256, Note_on_c, 0, 48, 127
2, 14256, Note_on_c, 7, 55, 127
2, 14256, Note_on_c, 3, 63, 127
2, 14446, Note_off_c, 7, 55, 127
2, 14448, Note_on_c, 10, 57, 127
2, 14638, Note_off_c, 10, 57, 127
2, 14638, Note_off_c, 0, 48, 127
2, 14640, Note_on_c, 7, 43, 127
2, 14640, Note_on_c, 11, 58, 127
2, 14830, Note_off_c, 11, 58, 127
2, 14830, Note_off_c, 7, 43, 127
2, 14832, Note_on_c, 10, 45, 127
2, 14832, Note_on_c, 0, 60, 127
2, 15022, Note_off_c, 0, 60, 127
2, 15022, Note_off_c, 10, 45, 127
2, 15022, Note_off_c, 3, 63, 127
2, 15024, Note_on_c, 11, 46, 127
2, 15024, Note_on_c, 8, 56, 127
2, 15024, Note_on_c, 2, 62, 127
2, 15214, Note_off_c, 8, 56, 127
2, 15216, Note_on_c, 11, 58, 127
2, 15406, Note_off_c, 11, 58, 127
2, 15406, Note_off_c, 11, 46, 127
2, 15408, Note_on_c, 3, 39, 127
2, 15408, Note_on_c, 7, 55, 127
2, 15598, Note_off_c, 2, 62, 127
2, 15600, Note_on_c, 7, 67, 127
2, 15790, Note_off_c, 7, 67, 127
2, 15790, Note_off_c, 3, 39, 127
2, 15792, Note_on_c, 3, 51, 127
2, 15792, Note_on_c, 3, 63, 127
2, 15982, Note_off_c, 3, 63, 127
2, 15984, Note_on_c, 0, 60, 127
2, 16174, Note_off_c, 0, 60, 127
2, 16174, Note_off_c, 7, 55, 127
2, 16176, Note_on_c, 5, 53, 127
2, 16176, Note_on_c, 10, 69, 127
2, 16366, Note_off_c, 3, 51, 127
2, 16368, Note_on_c, 0, 60, 127
2, 16556, Note_off_c, 5, 53, 127
2, 16558, Note_off_c, 0, 60, 127
2, 16558, Note_off_c, 10, 69, 127
2, 16560, Note_on_c, 10, 57, 127
2, 16560, Note_on_c, 0, 72, 127
2, 16750, Note_off_c, 10, 57, 127
2, 16752, Note_on_c, 5, 53, 127
2, 16942, Note_off_c, 5, 53, 127
2, 16944, Note_on_c, 2, 50, 127
2, 17134, Note_off_c, 0, 72, 127
2, 17136, Note_on_c, 5, 65, 127
2, 17326, Note_off_c, 5, 65, 127
2, 17326, Note_off_c, 2, 50, 127
2, 17328, Note_on_c, 7, 55, 127
2, 17328, Note_on_c, 11, 70, 127
2, 17518, Note_off_c, 11, 70, 127
2, 17520, Note_on_c, 2, 74, 127
2, 17710, Note_off_c, 2, 74, 127
2, 17710, Note_off_c, 7, 55, 127
2, 17712, Note_on_c, 3, 51, 127
2, 17712, Note_on_c, 0, 72, 127
2, 17902, Note_off_c, 3, 51, 127
2, 17904, Note_on_c, 0, 48, 127
2, 18094, Note_off_c, 0, 48, 127
2, 18094, Note_off_c, 0, 72, 127
2, 18096, Note_on_c, 5, 53, 127
2, 18096, Note_on_c, 3, 75, 127
2, 18286, Note_off_c, 5, 53, 127
2, 18288, Note_on_c, 10, 57, 127
2, 18478, Note_off_c, 10, 57, 127
2, 18480, Note_on_c, 11, 46, 127
2, 18480, Note_on_c, 11, 70, 127
2, 18670, Note_off_c, 11, 46, 127
2, 18672, Note_on_c, 11, 58, 127
2, 18862, Note_off_c, 11, 58, 127
2, 18862, Note_off_c, 3, 75, 127
2, 18864, Note_on_c, 7, 55, 127
2, 18864, Note_on_c, 2, 74, 127
2, 19054, Note_off_c, 7, 55, 127
2, 19056, Note_on_c, 2, 50, 127
2, 19246, Note_off_c, 2, 50, 127
2, 19248, Note_on_c, 5, 53, 127
2, 19374, Note_off_c, 5, 53, 127
2, 19376, Note_on_c, 3, 51, 127
2, 19438, Note_off_c, 11, 70, 127
2, 19440, Note_on_c, 11, 70, 127
2, 19446, Note_off_c, 3, 51, 127
2, 19448, Note_on_c, 5, 53, 127
2, 19518, Note_off_c, 5, 53, 127
2, 19520, Note_on_c, 3, 51, 127
2, 19590, Note_off_c, 3, 51, 127
2, 19592, Note_on_c, 5, 53, 127
2, 19630, Note_off_c, 11, 70, 127
2, 19630, Note_off_c, 2, 74, 127
2, 19632, Note_on_c, 10, 69, 127
2, 19632, Note_on_c, 0, 72, 127
2, 19662, Note_off_c, 5, 53, 127
2, 19664, Note_on_c, 3, 51, 127
2, 19734, Note_off_c, 3, 51, 127
2, 19736, Note_on_c, 5, 53, 127
2, 19806, Note_off_c, 5, 53, 127
2, 19808, Note_on_c, 3, 51, 127
2, 19822, Note_off_c, 10, 69, 127
2, 19824, Note_on_c, 7, 67, 127
2, 20014, Note_off_c, 7, 67, 127
2, 20014, Note_off_c, 3, 51, 127
2, 20014, Note_off_c, 0, 72, 127
2, 20016, Note_on_c, 2, 50, 127
2, 20016, Note_on_c, 6, 66, 127
2, 20016, Note_on_c, 2, 74, 127
2, 20206, Note_off_c, 2, 50, 127
2, 20208, Note_on_c, 0, 60, 127
2, 20396, Note_off_c, 2, 74, 127
2, 20398, Note_off_c, 0, 60, 127
2, 20398, Note_off_c, 6, 66, 127
2, 20400, Note_on_c, 11, 58, 127
2, 20400, Note_on_c, 7, 67, 127
2, 20590, Note_off_c, 11, 58, 127
2, 20592, Note_on_c, 10, 57, 127
2, 20782, Note_off_c, 10, 57, 127
2, 20782, Note_off_c, 7, 67, 127
2, 20784, Note_on_c, 7, 55, 127
2, 20784, Note_on_c, 2, 62, 127
2, 20974, Note_off_c, 2, 62, 127
2, 20974, Note_off_c, 7, 55, 127
2, 20976, Note_on_c, 11, 58, 127
2, 20976, Note_on_c, 4, 64, 127
2, 21166, Note_off_c, 4, 64, 127
2, 21166, Note_off_c, 11, 58, 127
2, 21168, Note_on_c, 8, 56, 127
2, 21168, Note_on_c, 5, 65, 127
2, 21358, Note_off_c, 8, 56, 127
2, 21360, Note_on_c, 7, 55, 127
2, 21550, Note_off_c, 7, 55, 127
2, 21550, Note_off_c, 5, 65, 127
2, 21552, Note_on_c, 5, 53, 127
2, 21552, Note_on_c, 12, 59, 127
2, 21742, Note_off_c, 5, 53, 127
2, 21744, Note_on_c, 8, 56, 127
2, 21934, Note_off_c, 8, 56, 127
2, 21936, Note_on_c, 7, 55, 127
2, 21936, Note_on_c, 7, 79, 127
2, 22126, Note_off_c, 7, 55, 127
2, 22128, Note_on_c, 5, 53, 127
2, 22318, Note_off_c, 5, 53, 127
2, 22318, Note_off_c, 12, 59, 127
2, 22320, Note_on_c, 3, 51, 127
2, 22320, Note_on_c, 0, 60, 127
2, 22510, Note_off_c, 7, 79, 127
2, 22512, Note_on_c, 7, 79, 127
2, 22702, Note_off_c, 7, 79, 127
2, 22702, Note_off_c, 3, 51, 127
2, 22704, Note_on_c, 0, 48, 127
2, 22704, Note_on_c, 5, 77, 127
2, 22894, Note_off_c, 5, 77, 127
2, 22896, Note_on_c, 3, 75, 127
2, 23086, Note_off_c, 3, 75, 127
2, 23086, Note_off_c, 0, 48, 127
2, 23088, Note_on_c, 5, 53, 127
2, 23088, Note_on_c, 2, 74, 127
2, 23278, Note_off_c, 5, 53, 127
2, 23280, Note_on_c, 3, 51, 127
2, 23470, Note_off_c, 3, 51, 127
2, 23470, Note_off_c, 2, 74, 127
2, 23470, Note_off_c, 0, 60, 127
2, 23472, Note_on_c, 5, 53, 127
2, 23472, Note_on_c, 8, 68, 127
2, 23472, Note_on_c, 5, 77, 127
2, 23662, Note_off_c, 5, 53, 127
2, 23664, Note_on_c, 7, 55, 127
2, 23854, Note_off_c, 7, 55, 127
2, 23854, Note_off_c, 5, 77, 127
2, 23854, Note_off_c, 8, 68, 127
2, 23856, Note_on_c, 8, 56, 127
2, 23856, Note_on_c, 2, 62, 127
2, 23856, Note_on_c, 12, 71, 127
2, 24046, Note_off_c, 12, 71, 127
2, 24046, Note_off_c, 2, 62, 127
2, 24046, Note_off_c, 8, 56, 127
2, 24048, Note_on_c, 7, 55, 127
2, 24048, Note_on_c, 3, 63, 127
2, 24048, Note_on_c, 0, 72, 127
2, 24238, Note_off_c, 0, 72, 127
2, 24238, Note_off_c, 3, 63, 127
2, 24238, Note_off_c, 7, 55, 127
2, 24240, Note_on_c, 5, 53, 127
2, 24240, Note_on_c, 5, 65, 127
2, 24240, Note_on_c, 2, 74, 127
2, 24430, Note_off_c, 5, 53, 127
2, 24432, Note_on_c, 3, 51, 127
2, 24622, Note_off_c, 3, 51, 127
2, 24622, Note_off_c, 2, 74, 127
2, 24622, Note_off_c, 5, 65, 127
2, 24624, Note_on_c, 5, 53, 127
2, 24624, Note_on_c, 12, 59, 127
2, 24624, Note_on_c, 7, 67, 127
2, 24814, Note_off_c, 5, 53, 127
2, 24816, Note_on_c, 8, 56, 127
2, 25006, Note_off_c, 8, 56, 127
2, 25006, Note_off_c, 7, 67, 127
2, 25006, Note_off_c, 12, 59, 127
2, 25008, Note_on_c, 7, 55, 127
2, 25008, Note_on_c, 2, 62, 127
2, 25008, Note_on_c, 12, 71, 127
2, 25198, Note_off_c, 7, 55, 127
2, 25200, Note_on_c, 5, 53, 127
2, 25390, Note_off_c, 5, 53, 127
2, 25390, Note_off_c, 12, 71, 127
2, 25390, Note_off_c, 2, 62, 127
2, 25392, Note_on_c, 3, 51, 127
2, 25392, Note_on_c, 7, 67, 127
2, 25392, Note_on_c, 0, 72, 127
2, 25582, Note_off_c, 7, 67, 127
2, 25582, Note_off_c, 3, 51, 127
2, 25584, Note_on_c, 2, 50, 127
2, 25584, Note_on_c, 11, 70, 127
2, 25774, Note_off_c, 11, 70, 127
2, 25774, Note_off_c, 2, 50, 127
2, 25776, Note_on_c, 0, 48, 127
2, 25776, Note_on_c, 8, 68, 127
2, 25966, Note_off_c, 8, 68, 127
2, 25966, Note_off_c, 0, 48, 127
2, 25968, Note_on_c, 11, 46, 127
2, 25968, Note_on_c, 7, 67, 127
2, 26158, Note_off_c, 7, 67, 127
2, 26158, Note_off_c, 11, 46, 127
2, 26160, Note_on_c, 8, 44, 127
2, 26160, Note_on_c, 5, 65, 127
2, 26350, Note_off_c, 8, 44, 127
2, 26352, Note_on_c, 0, 48, 127
2, 26542, Note_off_c, 0, 48, 127
2, 26542, Note_off_c, 5, 65, 127
2, 26544, Note_on_c, 5, 53, 127
2, 26544, Note_on_c, 8, 68, 127
2, 26734, Note_off_c, 5, 53, 127
2, 26736, Note_on_c, 8, 56, 127
2, 26926, Note_off_c, 8, 56, 127
2, 26926, Note_off_c, 8, 68, 127
2, 26926, Note_off_c, 0, 72, 127
2, 26928, Note_on_c, 7, 55, 127
2, 26928, Note_on_c, 2, 62, 127
2, 26928, Note_on_c, 12, 71, 127
2, 27118, Note_off_c, 2, 62, 127
2, 27120, Note_on_c, 3, 63, 127
2, 27310, Note_off_c, 3, 63, 127
2, 27310, Note_off_c, 7, 55, 127
2, 27312, Note_on_c, 7, 43, 127
2, 27312, Note_on_c, 5, 65, 127
2, 27694, Note_off_c, 7, 43, 127
2, 27694, Note_off_c, 12, 71, 127
2, 27696, Note_on_c, 0, 48, 127
2, 27696, Note_on_c, 0, 72, 127
2, 27886, Note_off_c, 5, 65, 127
2, 27888, Note_on_c, 5, 65, 127
2, 28078, Note_off_c, 5, 65, 127
2, 28078, Note_off_c, 0, 48, 127
2, 28080, Note_on_c, 0, 60, 127
2, 28080, Note_on_c, 4, 64, 127
2, 28270, Note_off_c, 4, 64, 127
2, 28272, Note_on_c, 2, 62, 127
2, 28462, Note_off_c, 2, 62, 127
2, 28464, Note_on_c, 4, 64, 127
2, 28654, Note_off_c, 0, 60, 127
2, 28656, Note_on_c, 11, 58, 127
2, 28846, Note_off_c, 11, 58, 127
2, 28846, Note_off_c, 4, 64, 127
2, 28846, Note_off_c, 0, 72, 127
2, 28848, Note_on_c, 10, 57, 127
2, 28848, Note_on_c, 11, 70, 127
2, 29038, Note_off_c, 10, 57, 127
2, 29040, Note_on_c, 7, 55, 127
2, 29230, Note_off_c, 7, 55, 127
2, 29232, Note_on_c, 5, 53, 127
2, 29422, Note_off_c, 11, 70, 127
2, 29424, Note_on_c, 10, 69, 127
2, 29614, Note_off_c, 10, 69, 127
2, 29614, Note_off_c, 5, 53, 127
2, 29616, Note_on_c, 10, 57, 127
2, 29616, Note_on_c, 7, 67, 127
2, 29806, Note_off_c, 7, 67, 127
2, 29808, Note_on_c, 5, 65, 127
2, 29998, Note_off_c, 5, 65, 127
2, 29998, Note_off_c, 10, 57, 127
2, 30000, Note_on_c, 4, 52, 127
2, 30000, Note_on_c, 7, 67, 127
2, 30190, Note_off_c, 7, 67, 127
2, 30190, Note_off_c, 4, 52, 127
2, 30192, Note_on_c, 5, 53, 127
2, 30192, Note_on_c, 10, 69, 127
2, 30382, Note_off_c, 10, 69, 127
2, 30382, Note_off_c, 5, 53, 127
2, 30384, Note_on_c, 7, 55, 127
2, 30384, Note_on_c, 11, 70, 127
2, 30574, Note_off_c, 11, 70, 127
2, 30576, Note_on_c, 7, 67, 127
2, 30766, Note_off_c, 7, 67, 127
2, 30766, Note_off_c, 7, 55, 127
2, 30768, Note_on_c, 10, 45, 127
2, 30768, Note_on_c, 4, 64, 127
2, 30958, Note_off_c, 4, 64, 127
2, 30960, Note_on_c, 7, 67, 127
2, 31150, Note_off_c, 7, 67, 127
2, 31152, Note_on_c, 4, 64, 127
2, 31342, Note_off_c, 4, 64, 127
2, 31344, Note_on_c, 0, 60, 127
2, 31534, Note_off_c, 0, 60, 127
2, 31536, Note_on_c, 5, 65, 127
2, 31726, Note_off_c, 10, 45, 127
2, 31728, Note_on_c, 10, 57, 127
2, 31918, Note_off_c, 10, 57, 127
2, 31918, Note_off_c, 5, 65, 127
2, 31920, Note_on_c, 5, 53, 127
2, 31920, Note_on_c, 10, 69, 127
2, 31920, Note_on_c, 5, 77, 127
2, 32110, Note_off_c, 5, 53, 127
2, 32112, Note_on_c, 2, 50, 127
2, 32302, Note_off_c, 2, 50, 127
2, 32302, Note_off_c, 10, 69, 127
2, 32304, Note_on_c, 11, 46, 127
2, 32304, Note_on_c, 7, 67, 127
2, 32494, Note_off_c, 11, 46, 127
2, 32494, Note_off_c, 5, 77, 127
2, 32496, Note_on_c, 2, 50, 127
2, 32496, Note_on_c, 4, 76, 127
2, 32686, Note_off_c, 4, 76, 127
2, 32686, Note_off_c, 2, 50, 127
2, 32688, Note_on_c, 11, 46, 127
2, 32688, Note_on_c, 2, 74, 127
2, 32878, Note_off_c, 2, 74, 127
2, 32878, Note_off_c, 11, 46, 127
2, 32880, Note_on_c, 7, 43, 127
2, 32880, Note_on_c, 4, 76, 127
2, 33070, Note_off_c, 4, 76, 127
2, 33070, Note_off_c, 7, 43, 127
2, 33072, Note_on_c, 0, 48, 127
2, 33072, Note_on_c, 2, 74, 127
2, 33198, Note_off_c, 2, 74, 127
2, 33200, Note_on_c, 4, 76, 127
2, 33262, Note_off_c, 4, 76, 127
2, 33264, Note_on_c, 5, 77, 127
2, 33326, Note_off_c, 5, 77, 127
2, 33328, Note_on_c, 4, 76, 127
2, 33390, Note_off_c, 4, 76, 127
2, 33392, Note_on_c, 5, 77, 127
2, 33454, Note_off_c, 5, 77, 127
2, 33454, Note_off_c, 0, 48, 127
2, 33456, Note_on_c, 0, 36, 127
2, 33456, Note_on_c, 4, 76, 127
2, 33646, Note_off_c, 4, 76, 127
2, 33648, Note_on_c, 5, 77, 127
2, 33838, Note_off_c, 5, 77, 127
2, 33838, Note_off_c, 0, 36, 127
2, 33838, Note_off_c, 7, 67, 127
2, 33840, Note_on_c, 5, 41, 127
2, 33840, Note_on_c, 10, 69, 127
2, 33840, Note_on_c, 5, 77, 127
2, 34030, Note_off_c, 5, 41, 127
2, 34032, Note_on_c, 7, 55, 127
2, 34222, Note_off_c, 7, 55, 127
2, 34222, Note_off_c, 5, 77, 127
2, 34224, Note_on_c, 5, 53, 127
2, 34224, Note_on_c, 10, 81, 127
2, 34414, Note_off_c, 5, 53, 127
2, 34416, Note_on_c, 4, 52, 127
2, 34606, Note_off_c, 4, 52, 127
2, 34606, Note_off_c, 10, 69, 127
2, 34608, Note_on_c, 2, 50, 127
2, 34608, Note_on_c, 11, 70, 127
2, 34798, Note_off_c, 10, 81, 127
2, 34800, Note_on_c, 10, 81, 127
2, 34990, Note_off_c, 10, 81, 127
2, 34990, Note_off_c, 2, 50, 127
2, 34992, Note_on_c, 4, 52, 127
2, 34992, Note_on_c, 7, 79, 127
2, 35182, Note_off_c, 7, 79, 127
2, 35182, Note_off_c, 4, 52, 127
2, 35184, Note_on_c, 5, 53, 127
2, 35184, Note_on_c, 5, 77, 127
2, 35374, Note_off_c, 5, 77, 127
2, 35374, Note_off_c, 5, 53, 127
2, 35376, Note_on_c, 7, 55, 127
2, 35376, Note_on_c, 4, 76, 127
2, 35566, Note_off_c, 11, 70, 127
2, 35568, Note_on_c, 10, 69, 127
2, 35758, Note_off_c, 10, 69, 127
2, 35758, Note_off_c, 4, 76, 127
2, 35760, Note_on_c, 7, 67, 127
2, 35760, Note_on_c, 7, 79, 127
2, 35950, Note_off_c, 7, 67, 127
2, 35952, Note_on_c, 5, 65, 127
2, 36142, Note_off_c, 5, 65, 127
2, 36142, Note_off_c, 7, 79, 127
2, 36144, Note_on_c, 4, 64, 127
2, 36144, Note_on_c, 1, 73, 127
2, 36334, Note_off_c, 1, 73, 127
2, 36336, Note_on_c, 2, 74, 127
2, 36526, Note_off_c, 2, 74, 127
2, 36526, Note_off_c, 4, 64, 127
2, 36528, Note_on_c, 7, 67, 127
2, 36528, Note_on_c, 4, 76, 127
2, 36910, Note_off_c, 4, 76, 127
2, 36910, Note_off_c, 7, 67, 127
2, 36912, Note_on_c, 1, 61, 127
2, 36912, Note_on_c, 10, 69, 127
2, 37102, Note_off_c, 1, 61, 127
2, 37102, Note_off_c, 7, 55, 127
2, 37104, Note_on_c, 11, 58, 127
2, 37104, Note_on_c, 2, 62, 127
2, 37294, Note_off_c, 2, 62, 127
2, 37294, Note_off_c, 11, 58, 127
2, 37296, Note_on_c, 10, 57, 127
2, 37296, Note_on_c, 4, 64, 127
2, 37486, Note_off_c, 10, 57, 127
2, 37486, Note_off_c, 10, 69, 127
2, 37488, Note_on_c, 7, 55, 127
2, 37488, Note_on_c, 12, 71, 127
2, 37678, Note_off_c, 12, 71, 127
2, 37678, Note_off_c, 7, 55, 127
2, 37678, Note_off_c, 4, 64, 127
2, 37680, Note_on_c, 6, 54, 127
2, 37680, Note_on_c, 10, 57, 127
2, 37680, Note_on_c, 0, 72, 127
2, 37870, Note_off_c, 0, 72, 127
2, 37870, Note_off_c, 6, 54, 127
2, 37872, Note_on_c, 2, 50, 127
2, 37872, Note_on_c, 12, 71, 127
2, 38062, Note_off_c, 12, 71, 127
2, 38062, Note_off_c, 2, 50, 127
2, 38062, Note_off_c, 10, 57, 127
2, 38064, Note_on_c, 4, 52, 127
2, 38064, Note_on_c, 10, 69, 127
2, 38064, Note_on_c, 0, 72, 127
2, 38254, Note_off_c, 0, 72, 127
2, 38254, Note_off_c, 4, 52, 127
2, 38256, Note_on_c, 5, 53, 127
2, 38256, Note_on_c, 2, 74, 127
2, 38446, Note_off_c, 2, 74, 127
2, 38446, Note_off_c, 5, 53, 127
2, 38448, Note_on_c, 7, 55, 127
2, 38448, Note_on_c, 12, 71, 127
2, 38604, Note_off_c, 10, 69, 127
2, 38638, Note_off_c, 7, 55, 127
2, 38640, Note_on_c, 6, 54, 127
2, 38640, Note_on_c, 10, 69, 127
2, 38728, Note_off_c, 12, 71, 127
2, 38830, Note_off_c, 10, 69, 127
2, 38830, Note_off_c, 6, 54, 127
2, 38832, Note_on_c, 7, 55, 127
2, 38832, Note_on_c, 7, 67, 127
2, 38832, Note_on_c, 12, 71, 127
2, 39022, Note_off_c, 12, 71, 127
2, 39022, Note_off_c, 7, 55, 127
2, 39024, Note_on_c, 10, 57, 127
2, 39024, Note_on_c, 1, 73, 127
2, 39214, Note_off_c, 1, 73, 127
2, 39214, Note_off_c, 10, 57, 127
2, 39216, Note_on_c, 11, 58, 127
2, 39216, Note_on_c, 2, 74, 127
2, 39406, Note_off_c, 7, 67, 127
2, 39408, Note_on_c, 5, 65, 127
2, 39598, Note_off_c, 5, 65, 127
2, 39598, Note_off_c, 11, 58, 127
2, 39600, Note_on_c, 10, 57, 127
2, 39600, Note_on_c, 7, 67, 127
2, 39790, Note_off_c, 7, 67, 127
2, 39792, Note_on_c, 10, 69, 127
2, 39982, Note_off_c, 10, 69, 127
2, 39982, Note_off_c, 10, 57, 127
2, 39984, Note_on_c, 7, 55, 127
2, 39984, Note_on_c, 11, 70, 127
2, 40174, Note_off_c, 11, 70, 127
2, 40174, Note_off_c, 7, 55, 127
2, 40176, Note_on_c, 4, 52, 127
2, 40176, Note_on_c, 7, 67, 127
2, 40366, Note_off_c, 7, 67, 127
2, 40366, Note_off_c, 4, 52, 127
2, 40368, Note_on_c, 5, 53, 127
2, 40368, Note_on_c, 10, 69, 127
2, 40558, Note_off_c, 10, 69, 127
2, 40558, Note_off_c, 5, 53, 127
2, 40560, Note_on_c, 7, 55, 127
2, 40560, Note_on_c, 11, 70, 127
2, 40750, Note_off_c, 11, 70, 127
2, 40750, Note_off_c, 7, 55, 127
2, 40750, Note_off_c, 2, 74, 127
2, 40752, Note_on_c, 10, 57, 127
2, 40752, Note_on_c, 4, 64, 127
2, 40752, Note_on_c, 1, 73, 127
2, 40942, Note_off_c, 4, 64, 127
2, 40944, Note_on_c, 11, 70, 127
2, 41134, Note_off_c, 11, 70, 127
2, 41134, Note_off_c, 10, 57, 127
2, 41136, Note_on_c, 10, 45, 127
2, 41136, Note_on_c, 10, 69, 127
2, 41326, Note_off_c, 10, 69, 127
2, 41328, Note_on_c, 7, 67, 127
2, 41518, Note_off_c, 7, 67, 127
2, 41518, Note_off_c, 10, 45, 127
2, 41518, Note_off_c, 1, 73, 127
2, 41520, Note_on_c, 2, 50, 127
2, 41520, Note_on_c, 5, 65, 127
2, 41520, Note_on_c, 2, 74, 127
2, 41710, Note_off_c, 2, 50, 127
2, 41712, Note_on_c, 10, 57, 127
2, 41902, Note_off_c, 10, 57, 127
2, 41902, Note_off_c, 2, 74, 127
2, 41904, Note_on_c, 5, 53, 127
2, 41904, Note_on_c, 5, 77, 127
2, 42094, Note_off_c, 5, 53, 127
2, 42096, Note_on_c, 2, 50, 127
2, 42280, Note_off_c, 5, 65, 127
2, 42286, Note_off_c, 2, 50, 127
2, 42288, Note_on_c, 2, 62, 127
2, 42478, Note_off_c, 5, 77, 127
2, 42480, Note_on_c, 3, 75, 127
2, 42670, Note_off_c, 3, 75, 127
2, 42670, Note_off_c, 2, 62, 127
2, 42672, Note_on_c, 5, 65, 127
2, 42672, Note_on_c, 2, 74, 127
2, 42862, Note_off_c, 2, 74, 127
2, 42864, Note_on_c, 0, 72, 127
2, 43054, Note_off_c, 0, 72, 127
2, 43056, Note_on_c, 12, 71, 127
2, 43246, Note_off_c, 5, 65, 127
2, 43248, Note_on_c, 3, 63, 127
2, 43438, Note_off_c, 3, 63, 127
2, 43438, Note_off_c, 12, 71, 127
2, 43440, Note_on_c, 2, 62, 127
2, 43440, Note_on_c, 2, 74, 127
2, 43630, Note_off_c, 2, 62, 127
2, 43632, Note_on_c, 0, 60, 127
2, 43822, Note_off_c, 0, 60, 127
2, 43822, Note_off_c, 2, 74, 127
2, 43824, Note_on_c, 12, 59, 127
2, 43824, Note_on_c, 7, 67, 127
2, 44014, Note_off_c, 7, 67, 127
2, 44016, Note_on_c, 10, 69, 127
2, 44206, Note_off_c, 10, 69, 127
2, 44206, Note_off_c, 12, 59, 127
2, 44208, Note_on_c, 7, 55, 127
2, 44208, Note_on_c, 12, 71, 127
2, 44302, Note_off_c, 12, 71, 127
2, 44304, Note_on_c, 10, 69, 127
2, 44398, Note_off_c, 10, 69, 127
2, 44400, Note_on_c, 12, 71, 127
2, 44590, Note_off_c, 12, 71, 127
2, 44590, Note_off_c, 7, 55, 127
2, 44592, Note_on_c, 0, 60, 127
2, 44592, Note_on_c, 3, 63, 127
2, 44782, Note_off_c, 0, 60, 127
2, 44784, Note_on_c, 7, 55, 127
2, 44974, Note_off_c, 7, 55, 127
2, 44976, Note_on_c, 3, 51, 127
2, 44976, Note_on_c, 0, 72, 127
2, 45166, Note_off_c, 3, 51, 127
2, 45168, Note_on_c, 0, 48, 127
2, 45352, Note_off_c, 3, 63, 127
2, 45358, Note_off_c, 0, 48, 127
2, 45358, Note_off_c, 0, 72, 127
2, 45360, Note_on_c, 11, 58, 127
2, 45360, Note_on_c, 3, 75, 127
2, 45550, Note_off_c, 11, 58, 127
2, 45552, Note_on_c, 2, 62, 127
2, 45552, Note_on_c, 11, 70, 127
2, 45742, Note_off_c, 11, 70, 127
2, 45742, Note_off_c, 2, 62, 127
2, 45744, Note_on_c, 0, 60, 127
2, 45744, Note_on_c, 10, 69, 127
2, 45934, Note_off_c, 10, 69, 127
2, 45934, Note_off_c, 0, 60, 127
2, 45936, Note_on_c, 11, 58, 127
2, 45936, Note_on_c, 7, 67, 127
2, 46126, Note_off_c, 7, 67, 127
2, 46126, Note_off_c, 11, 58, 127
2, 46128, Note_on_c, 10, 57, 127
2, 46128, Note_on_c, 5, 65, 127
2, 46318, Note_off_c, 10, 57, 127
2, 46320, Note_on_c, 7, 55, 127
2, 46510, Note_off_c, 7, 55, 127
2, 46510, Note_off_c, 5, 65, 127
2, 46510, Note_off_c, 3, 75, 127
2, 46512, Note_on_c, 5, 53, 127
2, 46512, Note_on_c, 10, 69, 127
2, 46512, Note_on_c, 2, 74, 127
2, 46702, Note_off_c, 2, 74, 127
2, 46702, Note_off_c, 5, 53, 127
2, 46704, Note_on_c, 3, 51, 127
2, 46704, Note_on_c, 0, 72, 127
2, 46894, Note_off_c, 0, 72, 127
2, 46894, Note_off_c, 3, 51, 127
2, 46894, Note_off_c, 10, 69, 127
2, 46896, Note_on_c, 5, 53, 127
2, 46896, Note_on_c, 2, 62, 127
2, 46896, Note_on_c, 11, 70, 127
2, 47086, Note_off_c, 2, 62, 127
2, 47088, Note_on_c, 3, 63, 127
2, 47278, Note_off_c, 3, 63, 127
2, 47278, Note_off_c, 11, 70, 127
2, 47280, Note_on_c, 5, 65, 127
2, 47280, Note_on_c, 10, 69, 127
2, 47470, Note_off_c, 5, 53, 127
2, 47472, Note_on_c, 7, 55, 127
2, 47662, Note_off_c, 7, 55, 127
2, 47662, Note_off_c, 10, 69, 127
2, 47662, Note_off_c, 5, 65, 127
2, 47664, Note_on_c, 8, 56, 127
2, 47664, Note_on_c, 11, 58, 127
2, 47664, Note_on_c, 2, 74, 127
2, 47839, Note_off_c, 11, 58, 127
2, 47856, Note_on_c, 11, 58, 127
2, 47866, Note_off_c, 8, 56, 127
2, 48046, Note_off_c, 11, 58, 127
2, 48048, Note_on_c, 8, 56, 127
2, 48048, Note_on_c, 5, 65, 127
2, 48238, Note_off_c, 8, 56, 127
2, 48238, Note_off_c, 2, 74, 127
2, 48240, Note_on_c, 7, 55, 127
2, 48240, Note_on_c, 3, 75, 127
2, 48430, Note_off_c, 3, 75, 127
2, 48430, Note_off_c, 7, 55, 127
2, 48432, Note_on_c, 5, 53, 127
2, 48432, Note_on_c, 2, 74, 127
2, 48622, Note_off_c, 2, 74, 127
2, 48622, Note_off_c, 5, 53, 127
2, 48624, Note_on_c, 3, 51, 127
2, 48624, Note_on_c, 0, 72, 127
2, 48814, Note_off_c, 0, 72, 127
2, 48814, Note_off_c, 3, 51, 127
2, 48816, Note_on_c, 2, 50, 127
2, 48816, Note_on_c, 11, 70, 127
2, 49006, Note_off_c, 11, 70, 127
2, 49006, Note_off_c, 2, 50, 127
2, 49008, Note_on_c, 0, 48, 127
2, 49008, Note_on_c, 8, 68, 127
2, 49198, Note_off_c, 8, 68, 127
2, 49198, Note_off_c, 0, 48, 127
2, 49200, Note_on_c, 11, 46, 127
2, 49200, Note_on_c, 7, 67, 127
2, 49390, Note_off_c, 5, 65, 127
2, 49392, Note_on_c, 2, 62, 127
2, 49582, Note_off_c, 2, 62, 127
2, 49582, Note_off_c, 11, 46, 127
2, 49584, Note_on_c, 0, 48, 127
2, 49584, Note_on_c, 3, 63, 127
2, 49774, Note_off_c, 7, 67, 127
2, 49776, Note_on_c, 8, 68, 127
2, 49966, Note_off_c, 8, 68, 127
2, 49966, Note_off_c, 0, 48, 127
2, 49968, Note_on_c, 7, 43, 127
2, 49968, Note_on_c, 11, 70, 127
2, 50158, Note_off_c, 7, 43, 127
2, 50160, Note_on_c, 8, 44, 127
2, 50350, Note_off_c, 8, 44, 127
2, 50350, Note_off_c, 11, 70, 127
2, 50350, Note_off_c, 3, 63, 127
2, 50352, Note_on_c, 11, 46, 127
2, 50352, Note_on_c, 2, 62, 127
2, 50352, Note_on_c, 5, 65, 127
2, 50734, Note_off_c, 5, 65, 127
2, 50734, Note_off_c, 2, 62, 127
2, 50734, Note_off_c, 11, 46, 127
2, 50736, Note_on_c, 3, 39, 127
2, 50736, Note_on_c, 3, 63, 127
2, 50736, Note_on_c, 7, 67, 127
2, 51116, Note_off_c, 3, 63, 127
2, 51118, Note_off_c, 7, 67, 127
2, 51120, Note_on_c, 7, 79, 127
2, 51496, Note_off_c, 3, 39, 127
2, 51504, Note_on_c, 0, 72, 127
2, 51694, Note_off_c, 7, 79, 127
2, 51696, Note_on_c, 5, 77, 127
2, 51886, Note_off_c, 5, 77, 127
2, 51888, Note_on_c, 3, 63, 127
2, 51888, Note_on_c, 3, 75, 127
2, 52078, Note_off_c, 3, 75, 127
2, 52078, Note_off_c, 0, 72, 127
2, 52080, Note_on_c, 11, 70, 127
2, 52080, Note_on_c, 2, 74, 127
2, 52270, Note_off_c, 2, 74, 127
2, 52270, Note_off_c, 11, 70, 127
2, 52272, Note_on_c, 10, 69, 127
2, 52272, Note_on_c, 0, 72, 127
2, 52462, Note_off_c, 10, 69, 127
2, 52464, Note_on_c, 7, 67, 127
2, 52654, Note_off_c, 7, 67, 127
2, 52654, Note_off_c, 0, 72, 127
2, 52654, Note_off_c, 3, 63, 127
2, 52656, Note_on_c, 2, 62, 127
2, 52656, Note_on_c, 5, 65, 127
2, 52656, Note_on_c, 5, 77, 127
2, 53038, Note_off_c, 5, 77, 127
2, 53038, Note_off_c, 5, 65, 127
2, 53040, Note_on_c, 7, 67, 127
2, 53040, Note_on_c, 11, 70, 127
2, 53230, Note_off_c, 11, 70, 127
2, 53230, Note_off_c, 2, 62, 127
2, 53232, Note_on_c, 2, 62, 127
2, 53232, Note_on_c, 0, 72, 127
2, 53422, Note_off_c, 0, 72, 127
2, 53422, Note_off_c, 2, 62, 127
2, 53422, Note_off_c, 7, 67, 127
2, 53424, Note_on_c, 0, 60, 127
2, 53424, Note_on_c, 11, 70, 127
2, 53424, Note_on_c, 2, 74, 127
2, 53614, Note_off_c, 0, 60, 127
2, 53616, Note_on_c, 11, 58, 127
2, 53806, Note_off_c, 11, 58, 127
2, 53806, Note_off_c, 2, 74, 127
2, 53806, Note_off_c, 11, 70, 127
2, 53808, Note_on_c, 0, 60, 127
2, 53808, Note_on_c, 3, 63, 127
2, 53808, Note_on_c, 7, 67, 127
2, 53998, Note_off_c, 3, 63, 127
2, 53998, Note_off_c, 0, 60, 127
2, 54000, Note_on_c, 2, 62, 127
2, 54000, Note_on_c, 5, 65, 127
2, 54190, Note_off_c, 5, 65, 127
2, 54190, Note_off_c, 2, 62, 127
2, 54190, Note_off_c, 7, 67, 127
2, 54192, Note_on_c, 0, 60, 127
2, 54192, Note_on_c, 7, 67, 127
2, 54192, Note_on_c, 3, 75, 127
2, 54382, Note_off_c, 0, 60, 127
2, 54384, Note_on_c, 11, 58, 127
2, 54574, Note_off_c, 11, 58, 127
2, 54574, Note_off_c, 7, 67, 127
2, 54576, Note_on_c, 10, 57, 127
2, 54576, Note_on_c, 0, 60, 127
2, 54766, Note_off_c, 10, 57, 127
2, 54766, Note_off_c, 3, 75, 127
2, 54768, Note_on_c, 11, 58, 127
2, 54768, Note_on_c, 2, 74, 127
2, 54958, Note_off_c, 2, 74, 127
2, 54958, Note_off_c, 11, 58, 127
2, 54958, Note_off_c, 0, 60, 127
2, 54960, Note_on_c, 10, 57, 127
2, 54960, Note_on_c, 5, 65, 127
2, 54960, Note_on_c, 0, 72, 127
2, 55150, Note_off_c, 0, 72, 127
2, 55150, Note_off_c, 10, 57, 127
2, 55152, Note_on_c, 7, 55, 127
2, 55152, Note_on_c, 11, 70, 127
2, 55342, Note_off_c, 11, 70, 127
2, 55342, Note_off_c, 7, 55, 127
2, 55344, Note_on_c, 5, 53, 127
2, 55344, Note_on_c, 10, 69, 127
2, 55534, Note_off_c, 5, 65, 127
2, 55536, Note_on_c, 3, 63, 127
2, 55726, Note_off_c, 3, 63, 127
2, 55726, Note_off_c, 10, 69, 127
2, 55726, Note_off_c, 5, 53, 127
2, 55728, Note_on_c, 11, 46, 127
2, 55728, Note_on_c, 2, 62, 127
2, 55728, Note_on_c, 2, 74, 127
2, 55918, Note_off_c, 2, 62, 127
2, 55920, Note_on_c, 0, 60, 127
2, 56110, Note_off_c, 0, 60, 127
2, 56110, Note_off_c, 2, 74, 127
2, 56110, Note_off_c, 11, 46, 127
2, 56112, Note_on_c, 3, 51, 127
2, 56112, Note_on_c, 11, 58, 127
2, 56112, Note_on_c, 7, 67, 127
2, 56302, Note_off_c, 7, 67, 127
2, 56302, Note_off_c, 3, 51, 127
2, 56304, Note_on_c, 2, 50, 127
2, 56304, Note_on_c, 10, 69, 127
2, 56494, Note_off_c, 10, 69, 127
2, 56494, Note_off_c, 2, 50, 127
2, 56494, Note_off_c, 11, 58, 127
2, 56496, Note_on_c, 0, 48, 127
2, 56496, Note_on_c, 2, 62, 127
2, 56496, Note_on_c, 11, 70, 127
2, 56686, Note_off_c, 0, 48, 127
2, 56688, Note_on_c, 11, 46, 127
2, 56878, Note_off_c, 11, 46, 127
2, 56878, Note_off_c, 11, 70, 127
2, 56878, Note_off_c, 2, 62, 127
2, 56880, Note_on_c, 0, 48, 127
2, 56880, Note_on_c, 10, 57, 127
2, 56880, Note_on_c, 3, 63, 127
2, 57070, Note_off_c, 10, 57, 127
2, 57070, Note_off_c, 0, 48, 127
2, 57072, Note_on_c, 11, 46, 127
2, 57072, Note_on_c, 11, 58, 127
2, 57262, Note_off_c, 11, 58, 127
2, 57262, Note_off_c, 11, 46, 127
2, 57262, Note_off_c, 3, 63, 127
2, 57264, Note_on_c, 10, 45, 127
2, 57264, Note_on_c, 0, 60, 127
2, 57264, Note_on_c, 0, 72, 127
2, 57454, Note_off_c, 10, 45, 127
2, 57456, Note_on_c, 7, 43, 127
2, 57646, Note_off_c, 7, 43, 127
2, 57646, Note_off_c, 0, 60, 127
2, 57648, Note_on_c, 10, 45, 127
2, 57648, Note_on_c, 5, 53, 127
2, 57838, Note_off_c, 10, 45, 127
2, 57838, Note_off_c, 0, 72, 127
2, 57840, Note_on_c, 7, 43, 127
2, 57840, Note_on_c, 11, 70, 127
2, 58030, Note_off_c, 11, 70, 127
2, 58030, Note_off_c, 7, 43, 127
2, 58032, Note_on_c, 5, 41, 127
2, 58032, Note_on_c, 10, 69, 127
2, 58222, Note_off_c, 10, 69, 127
2, 58222, Note_off_c, 5, 41, 127
2, 58224, Note_on_c, 3, 39, 127
2, 58224, Note_on_c, 7, 67, 127
2, 58414, Note_off_c, 7, 67, 127
2, 58414, Note_off_c, 3, 39, 127
2, 58416, Note_on_c, 2, 38, 127
2, 58416, Note_on_c, 5, 65, 127
2, 58606, Note_off_c, 2, 38, 127
2, 58608, Note_off_c, 5, 53, 127
2, 58608, Note_on_c, 3, 51, 127
2, 58798, Note_off_c, 3, 51, 127
2, 58800, Note_on_c, 2, 50, 127
2, 58800, Note_on_c, 11, 70, 127
2, 58990, Note_off_c, 2, 50, 127
2, 58992, Note_on_c, 0, 48, 127
2, 59176, Note_off_c, 5, 65, 127
2, 59182, Note_off_c, 0, 48, 127
2, 59184, Note_on_c, 11, 46, 127
2, 59374, Note_off_c, 11, 46, 127
2, 59374, Note_off_c, 11, 70, 127
2, 59376, Note_on_c, 7, 55, 127
2, 59376, Note_on_c, 11, 70, 127
2, 59566, Note_off_c, 11, 70, 127
2, 59566, Note_off_c, 7, 55, 127
2, 59568, Note_on_c, 5, 53, 127
2, 59568, Note_on_c, 10, 69, 127
2, 59758, Note_off_c, 10, 69, 127
2, 59758, Note_off_c, 5, 53, 127
2, 59760, Note_on_c, 3, 51, 127
2, 59760, Note_on_c, 7, 67, 127
2, 59950, Note_off_c, 7, 67, 127
2, 59950, Note_off_c, 3, 51, 127
2, 59952, Note_on_c, 2, 50, 127
2, 59952, Note_on_c, 5, 65, 127
2, 60142, Note_off_c, 2, 50, 127
2, 60144, Note_on_c, 3, 63, 127
2, 60334, Note_off_c, 3, 63, 127
2, 60334, Note_off_c, 5, 65, 127
2, 60336, Note_on_c, 2, 62, 127
2, 60336, Note_on_c, 10, 69, 127
2, 60336, Note_on_c, 5, 77, 127
2, 60526, Note_off_c, 2, 62, 127
2, 60528, Note_on_c, 0, 60, 127
2, 60718, Note_off_c, 0, 60, 127
2, 60718, Note_off_c, 10, 69, 127
2, 60720, Note_on_c, 11, 58, 127
2, 60720, Note_on_c, 2, 62, 127
2, 60910, Note_off_c, 2, 62, 127
2, 60910, Note_off_c, 5, 77, 127
2, 60912, Note_on_c, 3, 63, 127
2, 60912, Note_on_c, 3, 75, 127
2, 61102, Note_off_c, 3, 75, 127
2, 61102, Note_off_c, 3, 63, 127
2, 61104, Note_on_c, 5, 65, 127
2, 61104, Note_on_c, 2, 74, 127
2, 61294, Note_off_c, 2, 74, 127
2, 61294, Note_off_c, 11, 58, 127
2, 61296, Note_on_c, 10, 57, 127
2, 61296, Note_on_c, 0, 72, 127
2, 61486, Note_off_c, 0, 72, 127
2, 61486, Note_off_c, 10, 57, 127
2, 61486, Note_off_c, 5, 65, 127
2, 61488, Note_on_c, 7, 55, 127
2, 61488, Note_on_c, 11, 58, 127
2, 61488, Note_on_c, 11, 70, 127
2, 61678, Note_off_c, 11, 58, 127
2, 61680, Note_on_c, 10, 57, 127
2, 61870, Note_off_c, 10, 57, 127
2, 61870, Note_off_c, 11, 70, 127
2, 61870, Note_off_c, 7, 55, 127
2, 61872, Note_on_c, 5, 53, 127
2, 61872, Note_on_c, 11, 58, 127
2, 61872, Note_on_c, 2, 74, 127
2, 62062, Note_off_c, 11, 58, 127
2, 62064, Note_on_c, 2, 62, 127
2, 62254, Note_off_c, 2, 62, 127
2, 62254, Note_off_c, 2, 74, 127
2, 62256, Note_on_c, 0, 60, 127
2, 62256, Note_on_c, 10, 69, 127
2, 62446, Note_off_c, 10, 69, 127
2, 62446, Note_off_c, 5, 53, 127
2, 62448, Note_on_c, 3, 51, 127
2, 62448, Note_on_c, 11, 70, 127
2, 62638, Note_off_c, 11, 70, 127
2, 62638, Note_off_c, 3, 51, 127
2, 62638, Note_off_c, 0, 60, 127
2, 62640, Note_on_c, 2, 50, 127
2, 62640, Note_on_c, 3, 63, 127
2, 62640, Note_on_c, 0, 72, 127
2, 62830, Note_off_c, 2, 50, 127
2, 62832, Note_on_c, 0, 48, 127
2, 63022, Note_off_c, 0, 48, 127
2, 63024, Note_on_c, 11, 46, 127
2, 63214, Note_off_c, 0, 72, 127
2, 63216, Note_on_c, 5, 65, 127
2, 63406, Note_off_c, 5, 65, 127
2, 63406, Note_off_c, 11, 46, 127
2, 63406, Note_off_c, 3, 63, 127
2, 63408, Note_on_c, 2, 50, 127
2, 63408, Note_on_c, 2, 62, 127
2, 63408, Note_on_c, 11, 70, 127
2, 63598, Note_off_c, 11, 70, 127
2, 63600, Note_on_c, 2, 74, 127
2, 63768, Note_off_c, 2, 62, 127
2, 63790, Note_off_c, 2, 74, 127
2, 63790, Note_off_c, 2, 50, 127
2, 63792, Note_on_c, 10, 45, 127
2, 63792, Note_on_c, 0, 72, 127
2, 63982, Note_off_c, 10, 45, 127
2, 63984, Note_on_c, 11, 46, 127
2, 63984, Note_on_c, 11, 70, 127
2, 64174, Note_off_c, 11, 70, 127
2, 64174, Note_off_c, 11, 46, 127
2, 64174, Note_off_c, 0, 72, 127
2, 64176, Note_on_c, 0, 48, 127
2, 64176, Note_on_c, 10, 69, 127
2, 64176, Note_on_c, 3, 75, 127
2, 64366, Note_off_c, 10, 69, 127
2, 64368, Note_on_c, 7, 67, 127
2, 64558, Note_off_c, 7, 67, 127
2, 64558, Note_off_c, 0, 48, 127
2, 64560, Note_on_c, 2, 38, 127
2, 64560, Note_on_c, 5, 65, 127
2, 64750, Note_off_c, 3, 75, 127
2, 64752, Note_on_c, 10, 69, 127
2, 64942, Note_off_c, 10, 69, 127
2, 64942, Note_off_c, 2, 38, 127
2, 64944, Note_on_c, 2, 50, 127
2, 64944, Note_on_c, 11, 70, 127
2, 65134, Note_off_c, 11, 70, 127
2, 65136, Note_on_c, 2, 74, 127
2, 65300, Note_off_c, 5, 65, 127
2, 65326, Note_off_c, 2, 74, 127
2, 65326, Note_off_c, 2, 50, 127
2, 65328, Note_on_c, 11, 46, 127
2, 65328, Note_on_c, 5, 77, 127
2, 65520, Note_on_c, 2, 74, 127
2, 65710, Note_off_c, 2, 74, 127
2, 65710, Note_off_c, 11, 46, 127
2, 65712, Note_on_c, 2, 50, 127
2, 65712, Note_on_c, 11, 70, 127
2, 65902, Note_off_c, 11, 70, 127
2, 65904, Note_on_c, 8, 68, 127
2, 66094, Note_off_c, 8, 68, 127
2, 66094, Note_off_c, 2, 50, 127
2, 66096, Note_on_c, 3, 39, 127
2, 66096, Note_on_c, 7, 67, 127
2, 66286, Note_off_c, 5, 77, 127
2, 66288, Note_on_c, 11, 70, 127
2, 66478, Note_off_c, 11, 70, 127
2, 66478, Note_off_c, 3, 39, 127
2, 66480, Note_on_c, 3, 51, 127
2, 66480, Note_on_c, 0, 72, 127
2, 66670, Note_off_c, 0, 72, 127
2, 66672, Note_on_c, 3, 75, 127
2, 66836, Note_off_c, 7, 67, 127
2, 66862, Note_off_c, 3, 75, 127
2, 66862, Note_off_c, 3, 51, 127
2, 66864, Note_on_c, 0, 48, 127
2, 66864, Note_on_c, 7, 79, 127
2, 67056, Note_on_c, 3, 75, 127
2, 67246, Note_off_c, 3, 75, 127
2, 67246, Note_off_c, 0, 48, 127
2, 67248, Note_on_c, 3, 51, 127
2, 67248, Note_on_c, 0, 72, 127
2, 67438, Note_off_c, 0, 72, 127
2, 67440, Note_on_c, 11, 70, 127
2, 67630, Note_off_c, 11, 70, 127
2, 67630, Note_off_c, 7, 79, 127
2, 67632, Note_on_c, 5, 77, 127
2, 67632, Note_on_c, 11, 82, 127
2, 67832, Note_off_c, 11, 82, 127
2, 67834, Note_on_c, 10, 81, 127
2, 68034, Note_off_c, 10, 81, 127
2, 68034, Note_off_c, 3, 51, 127
2, 68036, Note_on_c, 3, 63, 127
2, 68036, Note_on_c, 7, 79, 127
2, 68200, Note_off_c, 5, 77, 127
2, 68236, Note_off_c, 7, 79, 127
2, 68238, Note_on_c, 5, 77, 127
2, 68438, Note_off_c, 5, 77, 127
2, 68438, Note_off_c, 3, 63, 127
2, 68440, Note_on_c, 2, 62, 127
2, 68440, Note_on_c, 11, 82, 127
2, 68640, Note_off_c, 11, 82, 127
2, 68642, Note_on_c, 10, 81, 127
2, 68741, Note_off_c, 10, 81, 127
2, 68743, Note_on_c, 7, 79, 127
2, 68842, Note_off_c, 7, 79, 127
2, 68842, Note_off_c, 2, 62, 127
2, 68844, Note_on_c, 11, 58, 127
2, 68844, Note_on_c, 5, 77, 127
2, 68943, Note_off_c, 5, 77, 127
2, 68945, Note_on_c, 3, 75, 127
2, 69044, Note_off_c, 3, 75, 127
2, 69046, Note_on_c, 2, 74, 127
2, 69145, Note_off_c, 2, 74, 127
2, 69147, Note_on_c, 0, 72, 127
2, 69246, Note_off_c, 0, 72, 127
2, 69246, Note_off_c, 11, 58, 127
2, 69248, Note_on_c, 7, 55, 127
2, 69248, Note_on_c, 11, 70, 127
2, 69349, Note_on_c, 10, 69, 127
2, 69448, Note_off_c, 10, 69, 127
2, 69450, Note_on_c, 7, 67, 127
2, 69549, Note_off_c, 7, 67, 127
2, 69551, Note_on_c, 5, 65, 127
2, 69650, Note_off_c, 5, 65, 127
2, 69650, Note_off_c, 7, 55, 127
2, 69652, Note_on_c, 3, 51, 127
2, 69652, Note_on_c, 7, 67, 127
2, 69852, Note_off_c, 7, 67, 127
2, 69854, Note_on_c, 3, 63, 127
2, 70054, Note_off_c, 3, 63, 127
2, 70054, Note_off_c, 3, 51, 127
2, 70056, Note_on_c, 5, 53, 127
2, 70056, Note_on_c, 2, 62, 127
2, 70280, Note_off_c, 11, 70, 127
2, 70282, Note_on_c, 11, 70, 127
2, 70506, Note_off_c, 2, 62, 127
2, 70506, Note_off_c, 5, 53, 127
2, 70508, Note_on_c, 5, 41, 127
2, 70508, Note_on_c, 0, 60, 127
2, 70767, Note_off_c, 11, 70, 127
2, 70770, Note_on_c, 10, 69, 127
2, 71029, Note_off_c, 10, 69, 127
2, 71029, Note_off_c, 0, 60, 127
2, 71029, Note_off_c, 5, 41, 127
2, 71059, Note_on_c, 11, 46, 127
2, 71059, Note_on_c, 2, 62, 127
2, 71059, Note_on_c, 11, 70, 127
2, 73481, Note_off_c, 11, 70, 127
2, 73481, Note_off_c, 2, 62, 127
2, 73481, Note_off_c, 11, 46, 127
2, 78336, End_track
3, 0, Start_track
3, 0, Title_t, "MIDI"
3, 1536, End_track
0, 0, End_of_file
